%TF.GenerationSoftware,KiCad,Pcbnew,(5.1.6)-1*%
%TF.CreationDate,2020-12-10T00:12:40+08:00*%
%TF.ProjectId,cubesat_obc,63756265-7361-4745-9f6f-62632e6b6963,rev?*%
%TF.SameCoordinates,Original*%
%TF.FileFunction,Soldermask,Bot*%
%TF.FilePolarity,Negative*%
%FSLAX46Y46*%
G04 Gerber Fmt 4.6, Leading zero omitted, Abs format (unit mm)*
G04 Created by KiCad (PCBNEW (5.1.6)-1) date 2020-12-10 00:12:40*
%MOMM*%
%LPD*%
G01*
G04 APERTURE LIST*
%ADD10C,1.700000*%
%ADD11R,1.700000X1.700000*%
%ADD12R,1.400000X1.800000*%
%ADD13R,5.730000X2.940000*%
%ADD14R,0.500000X1.300000*%
%ADD15R,2.890000X2.003000*%
%ADD16C,4.500000*%
%ADD17R,2.400000X1.200000*%
%ADD18R,2.003000X2.890000*%
%ADD19R,3.200000X3.200000*%
%ADD20R,1.500000X0.400000*%
%ADD21R,3.450000X3.450000*%
%ADD22R,5.200000X5.200000*%
%ADD23C,5.700000*%
%ADD24R,1.000000X0.900000*%
%ADD25R,0.950000X0.400000*%
%ADD26R,0.400000X0.950000*%
%ADD27R,6.300000X6.300000*%
%ADD28R,1.400000X1.700000*%
%ADD29R,4.300000X2.400000*%
%ADD30R,1.500000X1.300000*%
%ADD31R,1.100000X1.900000*%
%ADD32C,1.290000*%
%ADD33R,1.600000X0.900000*%
%ADD34R,2.100000X1.550000*%
%ADD35R,1.480000X0.740000*%
%ADD36R,0.350000X0.800000*%
G04 APERTURE END LIST*
D10*
%TO.C,U14*%
X115679006Y-60792998D03*
X118219006Y-60792998D03*
X115679006Y-63332998D03*
X118219006Y-63332998D03*
X115679006Y-65872998D03*
X118219006Y-65872998D03*
X115679006Y-68412998D03*
X118219006Y-68412998D03*
X115679006Y-70952998D03*
X118219006Y-70952998D03*
X115679006Y-73492998D03*
X118219006Y-73492998D03*
X115679006Y-76032998D03*
X118219006Y-76032998D03*
X115679006Y-78572998D03*
X118219006Y-78572998D03*
X115679006Y-81112998D03*
X118219006Y-81112998D03*
X115679006Y-83652998D03*
X118219006Y-83652998D03*
X115679006Y-86192998D03*
X118219006Y-86192998D03*
X115679006Y-88732998D03*
X118219006Y-88732998D03*
X115679006Y-91272998D03*
X118219006Y-91272998D03*
X115679006Y-93812998D03*
X118219006Y-93812998D03*
X115679006Y-96352998D03*
X118219006Y-96352998D03*
X115679006Y-98892998D03*
X118219006Y-98892998D03*
X115679006Y-101432998D03*
X118219006Y-101432998D03*
X115679006Y-103972998D03*
X118219006Y-103972998D03*
X115679006Y-106512998D03*
X118219006Y-106512998D03*
X115679006Y-109052998D03*
X118219006Y-109052998D03*
X115679006Y-111592998D03*
X118219006Y-111592998D03*
X115679006Y-114132998D03*
X118219006Y-114132998D03*
X115679006Y-116672998D03*
X118219006Y-116672998D03*
X115679006Y-119212998D03*
X118219006Y-119212998D03*
X115679006Y-121752998D03*
X118219006Y-121752998D03*
X115679006Y-124292998D03*
D11*
X118219006Y-124292998D03*
D10*
X110599006Y-60792998D03*
X113139006Y-60792998D03*
X110599006Y-63332998D03*
X113139006Y-63332998D03*
X110599006Y-65872998D03*
X113139006Y-65872998D03*
X110599006Y-68412998D03*
X113139006Y-68412998D03*
X110599006Y-70952998D03*
X113139006Y-70952998D03*
X110599006Y-73492998D03*
X113139006Y-73492998D03*
X110599006Y-76032998D03*
X113139006Y-76032998D03*
X110599006Y-78572998D03*
X113139006Y-78572998D03*
X110599006Y-81112998D03*
X113139006Y-81112998D03*
X110599006Y-83652998D03*
X113139006Y-83652998D03*
X110599006Y-86192998D03*
X113139006Y-86192998D03*
X110599006Y-88732998D03*
X113139006Y-88732998D03*
X110599006Y-91272998D03*
X113139006Y-91272998D03*
X110599006Y-93812998D03*
X113139006Y-93812998D03*
X110599006Y-96352998D03*
X113139006Y-96352998D03*
X110599006Y-98892998D03*
X113139006Y-98892998D03*
X110599006Y-101432998D03*
X113139006Y-101432998D03*
X110599006Y-103972998D03*
X113139006Y-103972998D03*
X110599006Y-106512998D03*
X113139006Y-106512998D03*
X110599006Y-109052998D03*
X113139006Y-109052998D03*
X110599006Y-111592998D03*
X113139006Y-111592998D03*
X110599006Y-114132998D03*
X113139006Y-114132998D03*
X110599006Y-116672998D03*
X113139006Y-116672998D03*
X110599006Y-119212998D03*
X113139006Y-119212998D03*
X110599006Y-121752998D03*
X113139006Y-121752998D03*
X110599006Y-124292998D03*
X113139006Y-124292998D03*
%TD*%
D12*
%TO.C,D6*%
X178717000Y-62103000D03*
X182217000Y-62103000D03*
%TD*%
%TO.C,D5*%
X182217000Y-64643000D03*
X178717000Y-64643000D03*
%TD*%
%TO.C,D3*%
X172367000Y-61341000D03*
X175867000Y-61341000D03*
%TD*%
%TO.C,D1*%
X178717000Y-67183000D03*
X182217000Y-67183000D03*
%TD*%
%TO.C,R16*%
G36*
G01*
X184587500Y-66861000D02*
X184982500Y-66861000D01*
G75*
G02*
X185155000Y-67033500I0J-172500D01*
G01*
X185155000Y-67378500D01*
G75*
G02*
X184982500Y-67551000I-172500J0D01*
G01*
X184587500Y-67551000D01*
G75*
G02*
X184415000Y-67378500I0J172500D01*
G01*
X184415000Y-67033500D01*
G75*
G02*
X184587500Y-66861000I172500J0D01*
G01*
G37*
G36*
G01*
X184587500Y-67831000D02*
X184982500Y-67831000D01*
G75*
G02*
X185155000Y-68003500I0J-172500D01*
G01*
X185155000Y-68348500D01*
G75*
G02*
X184982500Y-68521000I-172500J0D01*
G01*
X184587500Y-68521000D01*
G75*
G02*
X184415000Y-68348500I0J172500D01*
G01*
X184415000Y-68003500D01*
G75*
G02*
X184587500Y-67831000I172500J0D01*
G01*
G37*
%TD*%
%TO.C,R27*%
G36*
G01*
X164077000Y-84260000D02*
X164472000Y-84260000D01*
G75*
G02*
X164644500Y-84432500I0J-172500D01*
G01*
X164644500Y-84777500D01*
G75*
G02*
X164472000Y-84950000I-172500J0D01*
G01*
X164077000Y-84950000D01*
G75*
G02*
X163904500Y-84777500I0J172500D01*
G01*
X163904500Y-84432500D01*
G75*
G02*
X164077000Y-84260000I172500J0D01*
G01*
G37*
G36*
G01*
X164077000Y-85230000D02*
X164472000Y-85230000D01*
G75*
G02*
X164644500Y-85402500I0J-172500D01*
G01*
X164644500Y-85747500D01*
G75*
G02*
X164472000Y-85920000I-172500J0D01*
G01*
X164077000Y-85920000D01*
G75*
G02*
X163904500Y-85747500I0J172500D01*
G01*
X163904500Y-85402500D01*
G75*
G02*
X164077000Y-85230000I172500J0D01*
G01*
G37*
%TD*%
%TO.C,R26*%
G36*
G01*
X174124000Y-84650000D02*
X173729000Y-84650000D01*
G75*
G02*
X173556500Y-84477500I0J172500D01*
G01*
X173556500Y-84132500D01*
G75*
G02*
X173729000Y-83960000I172500J0D01*
G01*
X174124000Y-83960000D01*
G75*
G02*
X174296500Y-84132500I0J-172500D01*
G01*
X174296500Y-84477500D01*
G75*
G02*
X174124000Y-84650000I-172500J0D01*
G01*
G37*
G36*
G01*
X174124000Y-83680000D02*
X173729000Y-83680000D01*
G75*
G02*
X173556500Y-83507500I0J172500D01*
G01*
X173556500Y-83162500D01*
G75*
G02*
X173729000Y-82990000I172500J0D01*
G01*
X174124000Y-82990000D01*
G75*
G02*
X174296500Y-83162500I0J-172500D01*
G01*
X174296500Y-83507500D01*
G75*
G02*
X174124000Y-83680000I-172500J0D01*
G01*
G37*
%TD*%
%TO.C,R17*%
G36*
G01*
X184982500Y-63441000D02*
X184587500Y-63441000D01*
G75*
G02*
X184415000Y-63268500I0J172500D01*
G01*
X184415000Y-62923500D01*
G75*
G02*
X184587500Y-62751000I172500J0D01*
G01*
X184982500Y-62751000D01*
G75*
G02*
X185155000Y-62923500I0J-172500D01*
G01*
X185155000Y-63268500D01*
G75*
G02*
X184982500Y-63441000I-172500J0D01*
G01*
G37*
G36*
G01*
X184982500Y-62471000D02*
X184587500Y-62471000D01*
G75*
G02*
X184415000Y-62298500I0J172500D01*
G01*
X184415000Y-61953500D01*
G75*
G02*
X184587500Y-61781000I172500J0D01*
G01*
X184982500Y-61781000D01*
G75*
G02*
X185155000Y-61953500I0J-172500D01*
G01*
X185155000Y-62298500D01*
G75*
G02*
X184982500Y-62471000I-172500J0D01*
G01*
G37*
%TD*%
%TO.C,R117*%
G36*
G01*
X136575500Y-104958500D02*
X136575500Y-105353500D01*
G75*
G02*
X136403000Y-105526000I-172500J0D01*
G01*
X136058000Y-105526000D01*
G75*
G02*
X135885500Y-105353500I0J172500D01*
G01*
X135885500Y-104958500D01*
G75*
G02*
X136058000Y-104786000I172500J0D01*
G01*
X136403000Y-104786000D01*
G75*
G02*
X136575500Y-104958500I0J-172500D01*
G01*
G37*
G36*
G01*
X137545500Y-104958500D02*
X137545500Y-105353500D01*
G75*
G02*
X137373000Y-105526000I-172500J0D01*
G01*
X137028000Y-105526000D01*
G75*
G02*
X136855500Y-105353500I0J172500D01*
G01*
X136855500Y-104958500D01*
G75*
G02*
X137028000Y-104786000I172500J0D01*
G01*
X137373000Y-104786000D01*
G75*
G02*
X137545500Y-104958500I0J-172500D01*
G01*
G37*
%TD*%
%TO.C,R118*%
G36*
G01*
X136575500Y-106228500D02*
X136575500Y-106623500D01*
G75*
G02*
X136403000Y-106796000I-172500J0D01*
G01*
X136058000Y-106796000D01*
G75*
G02*
X135885500Y-106623500I0J172500D01*
G01*
X135885500Y-106228500D01*
G75*
G02*
X136058000Y-106056000I172500J0D01*
G01*
X136403000Y-106056000D01*
G75*
G02*
X136575500Y-106228500I0J-172500D01*
G01*
G37*
G36*
G01*
X137545500Y-106228500D02*
X137545500Y-106623500D01*
G75*
G02*
X137373000Y-106796000I-172500J0D01*
G01*
X137028000Y-106796000D01*
G75*
G02*
X136855500Y-106623500I0J172500D01*
G01*
X136855500Y-106228500D01*
G75*
G02*
X137028000Y-106056000I172500J0D01*
G01*
X137373000Y-106056000D01*
G75*
G02*
X137545500Y-106228500I0J-172500D01*
G01*
G37*
%TD*%
%TO.C,R10*%
G36*
G01*
X172565750Y-63114000D02*
X173128250Y-63114000D01*
G75*
G02*
X173372000Y-63357750I0J-243750D01*
G01*
X173372000Y-63845250D01*
G75*
G02*
X173128250Y-64089000I-243750J0D01*
G01*
X172565750Y-64089000D01*
G75*
G02*
X172322000Y-63845250I0J243750D01*
G01*
X172322000Y-63357750D01*
G75*
G02*
X172565750Y-63114000I243750J0D01*
G01*
G37*
G36*
G01*
X172565750Y-64689000D02*
X173128250Y-64689000D01*
G75*
G02*
X173372000Y-64932750I0J-243750D01*
G01*
X173372000Y-65420250D01*
G75*
G02*
X173128250Y-65664000I-243750J0D01*
G01*
X172565750Y-65664000D01*
G75*
G02*
X172322000Y-65420250I0J243750D01*
G01*
X172322000Y-64932750D01*
G75*
G02*
X172565750Y-64689000I243750J0D01*
G01*
G37*
%TD*%
%TO.C,R13*%
G36*
G01*
X175138000Y-66647750D02*
X175138000Y-67210250D01*
G75*
G02*
X174894250Y-67454000I-243750J0D01*
G01*
X174406750Y-67454000D01*
G75*
G02*
X174163000Y-67210250I0J243750D01*
G01*
X174163000Y-66647750D01*
G75*
G02*
X174406750Y-66404000I243750J0D01*
G01*
X174894250Y-66404000D01*
G75*
G02*
X175138000Y-66647750I0J-243750D01*
G01*
G37*
G36*
G01*
X173563000Y-66647750D02*
X173563000Y-67210250D01*
G75*
G02*
X173319250Y-67454000I-243750J0D01*
G01*
X172831750Y-67454000D01*
G75*
G02*
X172588000Y-67210250I0J243750D01*
G01*
X172588000Y-66647750D01*
G75*
G02*
X172831750Y-66404000I243750J0D01*
G01*
X173319250Y-66404000D01*
G75*
G02*
X173563000Y-66647750I0J-243750D01*
G01*
G37*
%TD*%
%TO.C,R15*%
G36*
G01*
X174906250Y-65664000D02*
X174343750Y-65664000D01*
G75*
G02*
X174100000Y-65420250I0J243750D01*
G01*
X174100000Y-64932750D01*
G75*
G02*
X174343750Y-64689000I243750J0D01*
G01*
X174906250Y-64689000D01*
G75*
G02*
X175150000Y-64932750I0J-243750D01*
G01*
X175150000Y-65420250D01*
G75*
G02*
X174906250Y-65664000I-243750J0D01*
G01*
G37*
G36*
G01*
X174906250Y-64089000D02*
X174343750Y-64089000D01*
G75*
G02*
X174100000Y-63845250I0J243750D01*
G01*
X174100000Y-63357750D01*
G75*
G02*
X174343750Y-63114000I243750J0D01*
G01*
X174906250Y-63114000D01*
G75*
G02*
X175150000Y-63357750I0J-243750D01*
G01*
X175150000Y-63845250D01*
G75*
G02*
X174906250Y-64089000I-243750J0D01*
G01*
G37*
%TD*%
%TO.C,R25*%
G36*
G01*
X173729000Y-85022000D02*
X174124000Y-85022000D01*
G75*
G02*
X174296500Y-85194500I0J-172500D01*
G01*
X174296500Y-85539500D01*
G75*
G02*
X174124000Y-85712000I-172500J0D01*
G01*
X173729000Y-85712000D01*
G75*
G02*
X173556500Y-85539500I0J172500D01*
G01*
X173556500Y-85194500D01*
G75*
G02*
X173729000Y-85022000I172500J0D01*
G01*
G37*
G36*
G01*
X173729000Y-85992000D02*
X174124000Y-85992000D01*
G75*
G02*
X174296500Y-86164500I0J-172500D01*
G01*
X174296500Y-86509500D01*
G75*
G02*
X174124000Y-86682000I-172500J0D01*
G01*
X173729000Y-86682000D01*
G75*
G02*
X173556500Y-86509500I0J172500D01*
G01*
X173556500Y-86164500D01*
G75*
G02*
X173729000Y-85992000I172500J0D01*
G01*
G37*
%TD*%
%TO.C,R113*%
G36*
G01*
X168776000Y-119202500D02*
X169171000Y-119202500D01*
G75*
G02*
X169343500Y-119375000I0J-172500D01*
G01*
X169343500Y-119720000D01*
G75*
G02*
X169171000Y-119892500I-172500J0D01*
G01*
X168776000Y-119892500D01*
G75*
G02*
X168603500Y-119720000I0J172500D01*
G01*
X168603500Y-119375000D01*
G75*
G02*
X168776000Y-119202500I172500J0D01*
G01*
G37*
G36*
G01*
X168776000Y-118232500D02*
X169171000Y-118232500D01*
G75*
G02*
X169343500Y-118405000I0J-172500D01*
G01*
X169343500Y-118750000D01*
G75*
G02*
X169171000Y-118922500I-172500J0D01*
G01*
X168776000Y-118922500D01*
G75*
G02*
X168603500Y-118750000I0J172500D01*
G01*
X168603500Y-118405000D01*
G75*
G02*
X168776000Y-118232500I172500J0D01*
G01*
G37*
%TD*%
%TO.C,R112*%
G36*
G01*
X169982500Y-119202500D02*
X170377500Y-119202500D01*
G75*
G02*
X170550000Y-119375000I0J-172500D01*
G01*
X170550000Y-119720000D01*
G75*
G02*
X170377500Y-119892500I-172500J0D01*
G01*
X169982500Y-119892500D01*
G75*
G02*
X169810000Y-119720000I0J172500D01*
G01*
X169810000Y-119375000D01*
G75*
G02*
X169982500Y-119202500I172500J0D01*
G01*
G37*
G36*
G01*
X169982500Y-118232500D02*
X170377500Y-118232500D01*
G75*
G02*
X170550000Y-118405000I0J-172500D01*
G01*
X170550000Y-118750000D01*
G75*
G02*
X170377500Y-118922500I-172500J0D01*
G01*
X169982500Y-118922500D01*
G75*
G02*
X169810000Y-118750000I0J172500D01*
G01*
X169810000Y-118405000D01*
G75*
G02*
X169982500Y-118232500I172500J0D01*
G01*
G37*
%TD*%
%TO.C,R114*%
G36*
G01*
X173696000Y-123509500D02*
X173696000Y-123759500D01*
G75*
G02*
X173571000Y-123884500I-125000J0D01*
G01*
X173261000Y-123884500D01*
G75*
G02*
X173136000Y-123759500I0J125000D01*
G01*
X173136000Y-123509500D01*
G75*
G02*
X173261000Y-123384500I125000J0D01*
G01*
X173571000Y-123384500D01*
G75*
G02*
X173696000Y-123509500I0J-125000D01*
G01*
G37*
G36*
G01*
X174336000Y-123509500D02*
X174336000Y-123759500D01*
G75*
G02*
X174211000Y-123884500I-125000J0D01*
G01*
X173901000Y-123884500D01*
G75*
G02*
X173776000Y-123759500I0J125000D01*
G01*
X173776000Y-123509500D01*
G75*
G02*
X173901000Y-123384500I125000J0D01*
G01*
X174211000Y-123384500D01*
G75*
G02*
X174336000Y-123509500I0J-125000D01*
G01*
G37*
%TD*%
%TO.C,R103*%
G36*
G01*
X153429000Y-69031500D02*
X153429000Y-68636500D01*
G75*
G02*
X153601500Y-68464000I172500J0D01*
G01*
X153946500Y-68464000D01*
G75*
G02*
X154119000Y-68636500I0J-172500D01*
G01*
X154119000Y-69031500D01*
G75*
G02*
X153946500Y-69204000I-172500J0D01*
G01*
X153601500Y-69204000D01*
G75*
G02*
X153429000Y-69031500I0J172500D01*
G01*
G37*
G36*
G01*
X152459000Y-69031500D02*
X152459000Y-68636500D01*
G75*
G02*
X152631500Y-68464000I172500J0D01*
G01*
X152976500Y-68464000D01*
G75*
G02*
X153149000Y-68636500I0J-172500D01*
G01*
X153149000Y-69031500D01*
G75*
G02*
X152976500Y-69204000I-172500J0D01*
G01*
X152631500Y-69204000D01*
G75*
G02*
X152459000Y-69031500I0J172500D01*
G01*
G37*
%TD*%
%TO.C,R102*%
G36*
G01*
X149789500Y-70942500D02*
X150184500Y-70942500D01*
G75*
G02*
X150357000Y-71115000I0J-172500D01*
G01*
X150357000Y-71460000D01*
G75*
G02*
X150184500Y-71632500I-172500J0D01*
G01*
X149789500Y-71632500D01*
G75*
G02*
X149617000Y-71460000I0J172500D01*
G01*
X149617000Y-71115000D01*
G75*
G02*
X149789500Y-70942500I172500J0D01*
G01*
G37*
G36*
G01*
X149789500Y-69972500D02*
X150184500Y-69972500D01*
G75*
G02*
X150357000Y-70145000I0J-172500D01*
G01*
X150357000Y-70490000D01*
G75*
G02*
X150184500Y-70662500I-172500J0D01*
G01*
X149789500Y-70662500D01*
G75*
G02*
X149617000Y-70490000I0J172500D01*
G01*
X149617000Y-70145000D01*
G75*
G02*
X149789500Y-69972500I172500J0D01*
G01*
G37*
%TD*%
%TO.C,R101*%
G36*
G01*
X146995500Y-70942500D02*
X147390500Y-70942500D01*
G75*
G02*
X147563000Y-71115000I0J-172500D01*
G01*
X147563000Y-71460000D01*
G75*
G02*
X147390500Y-71632500I-172500J0D01*
G01*
X146995500Y-71632500D01*
G75*
G02*
X146823000Y-71460000I0J172500D01*
G01*
X146823000Y-71115000D01*
G75*
G02*
X146995500Y-70942500I172500J0D01*
G01*
G37*
G36*
G01*
X146995500Y-69972500D02*
X147390500Y-69972500D01*
G75*
G02*
X147563000Y-70145000I0J-172500D01*
G01*
X147563000Y-70490000D01*
G75*
G02*
X147390500Y-70662500I-172500J0D01*
G01*
X146995500Y-70662500D01*
G75*
G02*
X146823000Y-70490000I0J172500D01*
G01*
X146823000Y-70145000D01*
G75*
G02*
X146995500Y-69972500I172500J0D01*
G01*
G37*
%TD*%
%TO.C,R100*%
G36*
G01*
X148392500Y-70942500D02*
X148787500Y-70942500D01*
G75*
G02*
X148960000Y-71115000I0J-172500D01*
G01*
X148960000Y-71460000D01*
G75*
G02*
X148787500Y-71632500I-172500J0D01*
G01*
X148392500Y-71632500D01*
G75*
G02*
X148220000Y-71460000I0J172500D01*
G01*
X148220000Y-71115000D01*
G75*
G02*
X148392500Y-70942500I172500J0D01*
G01*
G37*
G36*
G01*
X148392500Y-69972500D02*
X148787500Y-69972500D01*
G75*
G02*
X148960000Y-70145000I0J-172500D01*
G01*
X148960000Y-70490000D01*
G75*
G02*
X148787500Y-70662500I-172500J0D01*
G01*
X148392500Y-70662500D01*
G75*
G02*
X148220000Y-70490000I0J172500D01*
G01*
X148220000Y-70145000D01*
G75*
G02*
X148392500Y-69972500I172500J0D01*
G01*
G37*
%TD*%
%TO.C,R12*%
G36*
G01*
X164472000Y-82791000D02*
X164077000Y-82791000D01*
G75*
G02*
X163904500Y-82618500I0J172500D01*
G01*
X163904500Y-82273500D01*
G75*
G02*
X164077000Y-82101000I172500J0D01*
G01*
X164472000Y-82101000D01*
G75*
G02*
X164644500Y-82273500I0J-172500D01*
G01*
X164644500Y-82618500D01*
G75*
G02*
X164472000Y-82791000I-172500J0D01*
G01*
G37*
G36*
G01*
X164472000Y-83761000D02*
X164077000Y-83761000D01*
G75*
G02*
X163904500Y-83588500I0J172500D01*
G01*
X163904500Y-83243500D01*
G75*
G02*
X164077000Y-83071000I172500J0D01*
G01*
X164472000Y-83071000D01*
G75*
G02*
X164644500Y-83243500I0J-172500D01*
G01*
X164644500Y-83588500D01*
G75*
G02*
X164472000Y-83761000I-172500J0D01*
G01*
G37*
%TD*%
%TO.C,R21*%
G36*
G01*
X166596500Y-105988500D02*
X166596500Y-105593500D01*
G75*
G02*
X166769000Y-105421000I172500J0D01*
G01*
X167114000Y-105421000D01*
G75*
G02*
X167286500Y-105593500I0J-172500D01*
G01*
X167286500Y-105988500D01*
G75*
G02*
X167114000Y-106161000I-172500J0D01*
G01*
X166769000Y-106161000D01*
G75*
G02*
X166596500Y-105988500I0J172500D01*
G01*
G37*
G36*
G01*
X165626500Y-105988500D02*
X165626500Y-105593500D01*
G75*
G02*
X165799000Y-105421000I172500J0D01*
G01*
X166144000Y-105421000D01*
G75*
G02*
X166316500Y-105593500I0J-172500D01*
G01*
X166316500Y-105988500D01*
G75*
G02*
X166144000Y-106161000I-172500J0D01*
G01*
X165799000Y-106161000D01*
G75*
G02*
X165626500Y-105988500I0J172500D01*
G01*
G37*
%TD*%
%TO.C,R24*%
G36*
G01*
X166573500Y-107131500D02*
X166573500Y-106736500D01*
G75*
G02*
X166746000Y-106564000I172500J0D01*
G01*
X167091000Y-106564000D01*
G75*
G02*
X167263500Y-106736500I0J-172500D01*
G01*
X167263500Y-107131500D01*
G75*
G02*
X167091000Y-107304000I-172500J0D01*
G01*
X166746000Y-107304000D01*
G75*
G02*
X166573500Y-107131500I0J172500D01*
G01*
G37*
G36*
G01*
X165603500Y-107131500D02*
X165603500Y-106736500D01*
G75*
G02*
X165776000Y-106564000I172500J0D01*
G01*
X166121000Y-106564000D01*
G75*
G02*
X166293500Y-106736500I0J-172500D01*
G01*
X166293500Y-107131500D01*
G75*
G02*
X166121000Y-107304000I-172500J0D01*
G01*
X165776000Y-107304000D01*
G75*
G02*
X165603500Y-107131500I0J172500D01*
G01*
G37*
%TD*%
%TO.C,R11*%
G36*
G01*
X171260000Y-70402000D02*
X171260000Y-70822000D01*
G75*
G02*
X171100000Y-70982000I-160000J0D01*
G01*
X170780000Y-70982000D01*
G75*
G02*
X170620000Y-70822000I0J160000D01*
G01*
X170620000Y-70402000D01*
G75*
G02*
X170780000Y-70242000I160000J0D01*
G01*
X171100000Y-70242000D01*
G75*
G02*
X171260000Y-70402000I0J-160000D01*
G01*
G37*
G36*
G01*
X172280000Y-70402000D02*
X172280000Y-70822000D01*
G75*
G02*
X172120000Y-70982000I-160000J0D01*
G01*
X171800000Y-70982000D01*
G75*
G02*
X171640000Y-70822000I0J160000D01*
G01*
X171640000Y-70402000D01*
G75*
G02*
X171800000Y-70242000I160000J0D01*
G01*
X172120000Y-70242000D01*
G75*
G02*
X172280000Y-70402000I0J-160000D01*
G01*
G37*
%TD*%
%TO.C,R4*%
G36*
G01*
X154749000Y-75013000D02*
X154749000Y-74593000D01*
G75*
G02*
X154909000Y-74433000I160000J0D01*
G01*
X155229000Y-74433000D01*
G75*
G02*
X155389000Y-74593000I0J-160000D01*
G01*
X155389000Y-75013000D01*
G75*
G02*
X155229000Y-75173000I-160000J0D01*
G01*
X154909000Y-75173000D01*
G75*
G02*
X154749000Y-75013000I0J160000D01*
G01*
G37*
G36*
G01*
X153729000Y-75013000D02*
X153729000Y-74593000D01*
G75*
G02*
X153889000Y-74433000I160000J0D01*
G01*
X154209000Y-74433000D01*
G75*
G02*
X154369000Y-74593000I0J-160000D01*
G01*
X154369000Y-75013000D01*
G75*
G02*
X154209000Y-75173000I-160000J0D01*
G01*
X153889000Y-75173000D01*
G75*
G02*
X153729000Y-75013000I0J160000D01*
G01*
G37*
%TD*%
%TO.C,R3*%
G36*
G01*
X145606000Y-74593000D02*
X145606000Y-75013000D01*
G75*
G02*
X145446000Y-75173000I-160000J0D01*
G01*
X145126000Y-75173000D01*
G75*
G02*
X144966000Y-75013000I0J160000D01*
G01*
X144966000Y-74593000D01*
G75*
G02*
X145126000Y-74433000I160000J0D01*
G01*
X145446000Y-74433000D01*
G75*
G02*
X145606000Y-74593000I0J-160000D01*
G01*
G37*
G36*
G01*
X146626000Y-74593000D02*
X146626000Y-75013000D01*
G75*
G02*
X146466000Y-75173000I-160000J0D01*
G01*
X146146000Y-75173000D01*
G75*
G02*
X145986000Y-75013000I0J160000D01*
G01*
X145986000Y-74593000D01*
G75*
G02*
X146146000Y-74433000I160000J0D01*
G01*
X146466000Y-74433000D01*
G75*
G02*
X146626000Y-74593000I0J-160000D01*
G01*
G37*
%TD*%
%TO.C,R6*%
G36*
G01*
X154134000Y-86360500D02*
X153714000Y-86360500D01*
G75*
G02*
X153554000Y-86200500I0J160000D01*
G01*
X153554000Y-85880500D01*
G75*
G02*
X153714000Y-85720500I160000J0D01*
G01*
X154134000Y-85720500D01*
G75*
G02*
X154294000Y-85880500I0J-160000D01*
G01*
X154294000Y-86200500D01*
G75*
G02*
X154134000Y-86360500I-160000J0D01*
G01*
G37*
G36*
G01*
X154134000Y-87380500D02*
X153714000Y-87380500D01*
G75*
G02*
X153554000Y-87220500I0J160000D01*
G01*
X153554000Y-86900500D01*
G75*
G02*
X153714000Y-86740500I160000J0D01*
G01*
X154134000Y-86740500D01*
G75*
G02*
X154294000Y-86900500I0J-160000D01*
G01*
X154294000Y-87220500D01*
G75*
G02*
X154134000Y-87380500I-160000J0D01*
G01*
G37*
%TD*%
%TO.C,R5*%
G36*
G01*
X145498000Y-86106500D02*
X145078000Y-86106500D01*
G75*
G02*
X144918000Y-85946500I0J160000D01*
G01*
X144918000Y-85626500D01*
G75*
G02*
X145078000Y-85466500I160000J0D01*
G01*
X145498000Y-85466500D01*
G75*
G02*
X145658000Y-85626500I0J-160000D01*
G01*
X145658000Y-85946500D01*
G75*
G02*
X145498000Y-86106500I-160000J0D01*
G01*
G37*
G36*
G01*
X145498000Y-87126500D02*
X145078000Y-87126500D01*
G75*
G02*
X144918000Y-86966500I0J160000D01*
G01*
X144918000Y-86646500D01*
G75*
G02*
X145078000Y-86486500I160000J0D01*
G01*
X145498000Y-86486500D01*
G75*
G02*
X145658000Y-86646500I0J-160000D01*
G01*
X145658000Y-86966500D01*
G75*
G02*
X145498000Y-87126500I-160000J0D01*
G01*
G37*
%TD*%
%TO.C,R8*%
G36*
G01*
X152864000Y-86360500D02*
X152444000Y-86360500D01*
G75*
G02*
X152284000Y-86200500I0J160000D01*
G01*
X152284000Y-85880500D01*
G75*
G02*
X152444000Y-85720500I160000J0D01*
G01*
X152864000Y-85720500D01*
G75*
G02*
X153024000Y-85880500I0J-160000D01*
G01*
X153024000Y-86200500D01*
G75*
G02*
X152864000Y-86360500I-160000J0D01*
G01*
G37*
G36*
G01*
X152864000Y-87380500D02*
X152444000Y-87380500D01*
G75*
G02*
X152284000Y-87220500I0J160000D01*
G01*
X152284000Y-86900500D01*
G75*
G02*
X152444000Y-86740500I160000J0D01*
G01*
X152864000Y-86740500D01*
G75*
G02*
X153024000Y-86900500I0J-160000D01*
G01*
X153024000Y-87220500D01*
G75*
G02*
X152864000Y-87380500I-160000J0D01*
G01*
G37*
%TD*%
%TO.C,R7*%
G36*
G01*
X144228000Y-86106500D02*
X143808000Y-86106500D01*
G75*
G02*
X143648000Y-85946500I0J160000D01*
G01*
X143648000Y-85626500D01*
G75*
G02*
X143808000Y-85466500I160000J0D01*
G01*
X144228000Y-85466500D01*
G75*
G02*
X144388000Y-85626500I0J-160000D01*
G01*
X144388000Y-85946500D01*
G75*
G02*
X144228000Y-86106500I-160000J0D01*
G01*
G37*
G36*
G01*
X144228000Y-87126500D02*
X143808000Y-87126500D01*
G75*
G02*
X143648000Y-86966500I0J160000D01*
G01*
X143648000Y-86646500D01*
G75*
G02*
X143808000Y-86486500I160000J0D01*
G01*
X144228000Y-86486500D01*
G75*
G02*
X144388000Y-86646500I0J-160000D01*
G01*
X144388000Y-86966500D01*
G75*
G02*
X144228000Y-87126500I-160000J0D01*
G01*
G37*
%TD*%
%TO.C,R9*%
G36*
G01*
X168147500Y-81871000D02*
X168147500Y-81451000D01*
G75*
G02*
X168307500Y-81291000I160000J0D01*
G01*
X168627500Y-81291000D01*
G75*
G02*
X168787500Y-81451000I0J-160000D01*
G01*
X168787500Y-81871000D01*
G75*
G02*
X168627500Y-82031000I-160000J0D01*
G01*
X168307500Y-82031000D01*
G75*
G02*
X168147500Y-81871000I0J160000D01*
G01*
G37*
G36*
G01*
X167127500Y-81871000D02*
X167127500Y-81451000D01*
G75*
G02*
X167287500Y-81291000I160000J0D01*
G01*
X167607500Y-81291000D01*
G75*
G02*
X167767500Y-81451000I0J-160000D01*
G01*
X167767500Y-81871000D01*
G75*
G02*
X167607500Y-82031000I-160000J0D01*
G01*
X167287500Y-82031000D01*
G75*
G02*
X167127500Y-81871000I0J160000D01*
G01*
G37*
%TD*%
%TO.C,C48*%
G36*
G01*
X183248000Y-129469500D02*
X183248000Y-129864500D01*
G75*
G02*
X183075500Y-130037000I-172500J0D01*
G01*
X182730500Y-130037000D01*
G75*
G02*
X182558000Y-129864500I0J172500D01*
G01*
X182558000Y-129469500D01*
G75*
G02*
X182730500Y-129297000I172500J0D01*
G01*
X183075500Y-129297000D01*
G75*
G02*
X183248000Y-129469500I0J-172500D01*
G01*
G37*
G36*
G01*
X184218000Y-129469500D02*
X184218000Y-129864500D01*
G75*
G02*
X184045500Y-130037000I-172500J0D01*
G01*
X183700500Y-130037000D01*
G75*
G02*
X183528000Y-129864500I0J172500D01*
G01*
X183528000Y-129469500D01*
G75*
G02*
X183700500Y-129297000I172500J0D01*
G01*
X184045500Y-129297000D01*
G75*
G02*
X184218000Y-129469500I0J-172500D01*
G01*
G37*
%TD*%
%TO.C,C50*%
G36*
G01*
X173786500Y-125405500D02*
X173786500Y-125800500D01*
G75*
G02*
X173614000Y-125973000I-172500J0D01*
G01*
X173269000Y-125973000D01*
G75*
G02*
X173096500Y-125800500I0J172500D01*
G01*
X173096500Y-125405500D01*
G75*
G02*
X173269000Y-125233000I172500J0D01*
G01*
X173614000Y-125233000D01*
G75*
G02*
X173786500Y-125405500I0J-172500D01*
G01*
G37*
G36*
G01*
X174756500Y-125405500D02*
X174756500Y-125800500D01*
G75*
G02*
X174584000Y-125973000I-172500J0D01*
G01*
X174239000Y-125973000D01*
G75*
G02*
X174066500Y-125800500I0J172500D01*
G01*
X174066500Y-125405500D01*
G75*
G02*
X174239000Y-125233000I172500J0D01*
G01*
X174584000Y-125233000D01*
G75*
G02*
X174756500Y-125405500I0J-172500D01*
G01*
G37*
%TD*%
%TO.C,C38*%
G36*
G01*
X156788500Y-66281000D02*
X156393500Y-66281000D01*
G75*
G02*
X156221000Y-66108500I0J172500D01*
G01*
X156221000Y-65763500D01*
G75*
G02*
X156393500Y-65591000I172500J0D01*
G01*
X156788500Y-65591000D01*
G75*
G02*
X156961000Y-65763500I0J-172500D01*
G01*
X156961000Y-66108500D01*
G75*
G02*
X156788500Y-66281000I-172500J0D01*
G01*
G37*
G36*
G01*
X156788500Y-67251000D02*
X156393500Y-67251000D01*
G75*
G02*
X156221000Y-67078500I0J172500D01*
G01*
X156221000Y-66733500D01*
G75*
G02*
X156393500Y-66561000I172500J0D01*
G01*
X156788500Y-66561000D01*
G75*
G02*
X156961000Y-66733500I0J-172500D01*
G01*
X156961000Y-67078500D01*
G75*
G02*
X156788500Y-67251000I-172500J0D01*
G01*
G37*
%TD*%
%TO.C,C40*%
G36*
G01*
X165521000Y-125791500D02*
X165521000Y-125541500D01*
G75*
G02*
X165646000Y-125416500I125000J0D01*
G01*
X165956000Y-125416500D01*
G75*
G02*
X166081000Y-125541500I0J-125000D01*
G01*
X166081000Y-125791500D01*
G75*
G02*
X165956000Y-125916500I-125000J0D01*
G01*
X165646000Y-125916500D01*
G75*
G02*
X165521000Y-125791500I0J125000D01*
G01*
G37*
G36*
G01*
X164881000Y-125791500D02*
X164881000Y-125541500D01*
G75*
G02*
X165006000Y-125416500I125000J0D01*
G01*
X165316000Y-125416500D01*
G75*
G02*
X165441000Y-125541500I0J-125000D01*
G01*
X165441000Y-125791500D01*
G75*
G02*
X165316000Y-125916500I-125000J0D01*
G01*
X165006000Y-125916500D01*
G75*
G02*
X164881000Y-125791500I0J125000D01*
G01*
G37*
%TD*%
%TO.C,C43*%
G36*
G01*
X180767000Y-131281750D02*
X180767000Y-130719250D01*
G75*
G02*
X181010750Y-130475500I243750J0D01*
G01*
X181498250Y-130475500D01*
G75*
G02*
X181742000Y-130719250I0J-243750D01*
G01*
X181742000Y-131281750D01*
G75*
G02*
X181498250Y-131525500I-243750J0D01*
G01*
X181010750Y-131525500D01*
G75*
G02*
X180767000Y-131281750I0J243750D01*
G01*
G37*
G36*
G01*
X179192000Y-131281750D02*
X179192000Y-130719250D01*
G75*
G02*
X179435750Y-130475500I243750J0D01*
G01*
X179923250Y-130475500D01*
G75*
G02*
X180167000Y-130719250I0J-243750D01*
G01*
X180167000Y-131281750D01*
G75*
G02*
X179923250Y-131525500I-243750J0D01*
G01*
X179435750Y-131525500D01*
G75*
G02*
X179192000Y-131281750I0J243750D01*
G01*
G37*
%TD*%
%TO.C,C46*%
G36*
G01*
X181178500Y-132595000D02*
X181178500Y-132200000D01*
G75*
G02*
X181351000Y-132027500I172500J0D01*
G01*
X181696000Y-132027500D01*
G75*
G02*
X181868500Y-132200000I0J-172500D01*
G01*
X181868500Y-132595000D01*
G75*
G02*
X181696000Y-132767500I-172500J0D01*
G01*
X181351000Y-132767500D01*
G75*
G02*
X181178500Y-132595000I0J172500D01*
G01*
G37*
G36*
G01*
X180208500Y-132595000D02*
X180208500Y-132200000D01*
G75*
G02*
X180381000Y-132027500I172500J0D01*
G01*
X180726000Y-132027500D01*
G75*
G02*
X180898500Y-132200000I0J-172500D01*
G01*
X180898500Y-132595000D01*
G75*
G02*
X180726000Y-132767500I-172500J0D01*
G01*
X180381000Y-132767500D01*
G75*
G02*
X180208500Y-132595000I0J172500D01*
G01*
G37*
%TD*%
%TO.C,C41*%
G36*
G01*
X165521000Y-122489500D02*
X165521000Y-122239500D01*
G75*
G02*
X165646000Y-122114500I125000J0D01*
G01*
X165956000Y-122114500D01*
G75*
G02*
X166081000Y-122239500I0J-125000D01*
G01*
X166081000Y-122489500D01*
G75*
G02*
X165956000Y-122614500I-125000J0D01*
G01*
X165646000Y-122614500D01*
G75*
G02*
X165521000Y-122489500I0J125000D01*
G01*
G37*
G36*
G01*
X164881000Y-122489500D02*
X164881000Y-122239500D01*
G75*
G02*
X165006000Y-122114500I125000J0D01*
G01*
X165316000Y-122114500D01*
G75*
G02*
X165441000Y-122239500I0J-125000D01*
G01*
X165441000Y-122489500D01*
G75*
G02*
X165316000Y-122614500I-125000J0D01*
G01*
X165006000Y-122614500D01*
G75*
G02*
X164881000Y-122489500I0J125000D01*
G01*
G37*
%TD*%
%TO.C,C35*%
G36*
G01*
X155123500Y-68720000D02*
X155518500Y-68720000D01*
G75*
G02*
X155691000Y-68892500I0J-172500D01*
G01*
X155691000Y-69237500D01*
G75*
G02*
X155518500Y-69410000I-172500J0D01*
G01*
X155123500Y-69410000D01*
G75*
G02*
X154951000Y-69237500I0J172500D01*
G01*
X154951000Y-68892500D01*
G75*
G02*
X155123500Y-68720000I172500J0D01*
G01*
G37*
G36*
G01*
X155123500Y-67750000D02*
X155518500Y-67750000D01*
G75*
G02*
X155691000Y-67922500I0J-172500D01*
G01*
X155691000Y-68267500D01*
G75*
G02*
X155518500Y-68440000I-172500J0D01*
G01*
X155123500Y-68440000D01*
G75*
G02*
X154951000Y-68267500I0J172500D01*
G01*
X154951000Y-67922500D01*
G75*
G02*
X155123500Y-67750000I172500J0D01*
G01*
G37*
%TD*%
%TO.C,C36*%
G36*
G01*
X156788500Y-62852000D02*
X156393500Y-62852000D01*
G75*
G02*
X156221000Y-62679500I0J172500D01*
G01*
X156221000Y-62334500D01*
G75*
G02*
X156393500Y-62162000I172500J0D01*
G01*
X156788500Y-62162000D01*
G75*
G02*
X156961000Y-62334500I0J-172500D01*
G01*
X156961000Y-62679500D01*
G75*
G02*
X156788500Y-62852000I-172500J0D01*
G01*
G37*
G36*
G01*
X156788500Y-63822000D02*
X156393500Y-63822000D01*
G75*
G02*
X156221000Y-63649500I0J172500D01*
G01*
X156221000Y-63304500D01*
G75*
G02*
X156393500Y-63132000I172500J0D01*
G01*
X156788500Y-63132000D01*
G75*
G02*
X156961000Y-63304500I0J-172500D01*
G01*
X156961000Y-63649500D01*
G75*
G02*
X156788500Y-63822000I-172500J0D01*
G01*
G37*
%TD*%
%TO.C,C65*%
G36*
G01*
X143048000Y-125376250D02*
X143048000Y-124813750D01*
G75*
G02*
X143291750Y-124570000I243750J0D01*
G01*
X143779250Y-124570000D01*
G75*
G02*
X144023000Y-124813750I0J-243750D01*
G01*
X144023000Y-125376250D01*
G75*
G02*
X143779250Y-125620000I-243750J0D01*
G01*
X143291750Y-125620000D01*
G75*
G02*
X143048000Y-125376250I0J243750D01*
G01*
G37*
G36*
G01*
X141473000Y-125376250D02*
X141473000Y-124813750D01*
G75*
G02*
X141716750Y-124570000I243750J0D01*
G01*
X142204250Y-124570000D01*
G75*
G02*
X142448000Y-124813750I0J-243750D01*
G01*
X142448000Y-125376250D01*
G75*
G02*
X142204250Y-125620000I-243750J0D01*
G01*
X141716750Y-125620000D01*
G75*
G02*
X141473000Y-125376250I0J243750D01*
G01*
G37*
%TD*%
%TO.C,C49*%
G36*
G01*
X179210000Y-116783500D02*
X179210000Y-116388500D01*
G75*
G02*
X179382500Y-116216000I172500J0D01*
G01*
X179727500Y-116216000D01*
G75*
G02*
X179900000Y-116388500I0J-172500D01*
G01*
X179900000Y-116783500D01*
G75*
G02*
X179727500Y-116956000I-172500J0D01*
G01*
X179382500Y-116956000D01*
G75*
G02*
X179210000Y-116783500I0J172500D01*
G01*
G37*
G36*
G01*
X178240000Y-116783500D02*
X178240000Y-116388500D01*
G75*
G02*
X178412500Y-116216000I172500J0D01*
G01*
X178757500Y-116216000D01*
G75*
G02*
X178930000Y-116388500I0J-172500D01*
G01*
X178930000Y-116783500D01*
G75*
G02*
X178757500Y-116956000I-172500J0D01*
G01*
X178412500Y-116956000D01*
G75*
G02*
X178240000Y-116783500I0J172500D01*
G01*
G37*
%TD*%
%TO.C,C19*%
G36*
G01*
X144966000Y-76524500D02*
X144966000Y-76129500D01*
G75*
G02*
X145138500Y-75957000I172500J0D01*
G01*
X145483500Y-75957000D01*
G75*
G02*
X145656000Y-76129500I0J-172500D01*
G01*
X145656000Y-76524500D01*
G75*
G02*
X145483500Y-76697000I-172500J0D01*
G01*
X145138500Y-76697000D01*
G75*
G02*
X144966000Y-76524500I0J172500D01*
G01*
G37*
G36*
G01*
X145936000Y-76524500D02*
X145936000Y-76129500D01*
G75*
G02*
X146108500Y-75957000I172500J0D01*
G01*
X146453500Y-75957000D01*
G75*
G02*
X146626000Y-76129500I0J-172500D01*
G01*
X146626000Y-76524500D01*
G75*
G02*
X146453500Y-76697000I-172500J0D01*
G01*
X146108500Y-76697000D01*
G75*
G02*
X145936000Y-76524500I0J172500D01*
G01*
G37*
%TD*%
%TO.C,C47*%
G36*
G01*
X187014500Y-126098000D02*
X186619500Y-126098000D01*
G75*
G02*
X186447000Y-125925500I0J172500D01*
G01*
X186447000Y-125580500D01*
G75*
G02*
X186619500Y-125408000I172500J0D01*
G01*
X187014500Y-125408000D01*
G75*
G02*
X187187000Y-125580500I0J-172500D01*
G01*
X187187000Y-125925500D01*
G75*
G02*
X187014500Y-126098000I-172500J0D01*
G01*
G37*
G36*
G01*
X187014500Y-127068000D02*
X186619500Y-127068000D01*
G75*
G02*
X186447000Y-126895500I0J172500D01*
G01*
X186447000Y-126550500D01*
G75*
G02*
X186619500Y-126378000I172500J0D01*
G01*
X187014500Y-126378000D01*
G75*
G02*
X187187000Y-126550500I0J-172500D01*
G01*
X187187000Y-126895500D01*
G75*
G02*
X187014500Y-127068000I-172500J0D01*
G01*
G37*
%TD*%
%TO.C,C45*%
G36*
G01*
X181115000Y-129864500D02*
X181115000Y-129469500D01*
G75*
G02*
X181287500Y-129297000I172500J0D01*
G01*
X181632500Y-129297000D01*
G75*
G02*
X181805000Y-129469500I0J-172500D01*
G01*
X181805000Y-129864500D01*
G75*
G02*
X181632500Y-130037000I-172500J0D01*
G01*
X181287500Y-130037000D01*
G75*
G02*
X181115000Y-129864500I0J172500D01*
G01*
G37*
G36*
G01*
X180145000Y-129864500D02*
X180145000Y-129469500D01*
G75*
G02*
X180317500Y-129297000I172500J0D01*
G01*
X180662500Y-129297000D01*
G75*
G02*
X180835000Y-129469500I0J-172500D01*
G01*
X180835000Y-129864500D01*
G75*
G02*
X180662500Y-130037000I-172500J0D01*
G01*
X180317500Y-130037000D01*
G75*
G02*
X180145000Y-129864500I0J172500D01*
G01*
G37*
%TD*%
%TO.C,C44*%
G36*
G01*
X186556000Y-121298000D02*
X186951000Y-121298000D01*
G75*
G02*
X187123500Y-121470500I0J-172500D01*
G01*
X187123500Y-121815500D01*
G75*
G02*
X186951000Y-121988000I-172500J0D01*
G01*
X186556000Y-121988000D01*
G75*
G02*
X186383500Y-121815500I0J172500D01*
G01*
X186383500Y-121470500D01*
G75*
G02*
X186556000Y-121298000I172500J0D01*
G01*
G37*
G36*
G01*
X186556000Y-120328000D02*
X186951000Y-120328000D01*
G75*
G02*
X187123500Y-120500500I0J-172500D01*
G01*
X187123500Y-120845500D01*
G75*
G02*
X186951000Y-121018000I-172500J0D01*
G01*
X186556000Y-121018000D01*
G75*
G02*
X186383500Y-120845500I0J172500D01*
G01*
X186383500Y-120500500D01*
G75*
G02*
X186556000Y-120328000I172500J0D01*
G01*
G37*
%TD*%
%TO.C,C42*%
G36*
G01*
X181680500Y-134861000D02*
X181285500Y-134861000D01*
G75*
G02*
X181113000Y-134688500I0J172500D01*
G01*
X181113000Y-134343500D01*
G75*
G02*
X181285500Y-134171000I172500J0D01*
G01*
X181680500Y-134171000D01*
G75*
G02*
X181853000Y-134343500I0J-172500D01*
G01*
X181853000Y-134688500D01*
G75*
G02*
X181680500Y-134861000I-172500J0D01*
G01*
G37*
G36*
G01*
X181680500Y-135831000D02*
X181285500Y-135831000D01*
G75*
G02*
X181113000Y-135658500I0J172500D01*
G01*
X181113000Y-135313500D01*
G75*
G02*
X181285500Y-135141000I172500J0D01*
G01*
X181680500Y-135141000D01*
G75*
G02*
X181853000Y-135313500I0J-172500D01*
G01*
X181853000Y-135658500D01*
G75*
G02*
X181680500Y-135831000I-172500J0D01*
G01*
G37*
%TD*%
%TO.C,C39*%
G36*
G01*
X173171500Y-128765000D02*
X172776500Y-128765000D01*
G75*
G02*
X172604000Y-128592500I0J172500D01*
G01*
X172604000Y-128247500D01*
G75*
G02*
X172776500Y-128075000I172500J0D01*
G01*
X173171500Y-128075000D01*
G75*
G02*
X173344000Y-128247500I0J-172500D01*
G01*
X173344000Y-128592500D01*
G75*
G02*
X173171500Y-128765000I-172500J0D01*
G01*
G37*
G36*
G01*
X173171500Y-129735000D02*
X172776500Y-129735000D01*
G75*
G02*
X172604000Y-129562500I0J172500D01*
G01*
X172604000Y-129217500D01*
G75*
G02*
X172776500Y-129045000I172500J0D01*
G01*
X173171500Y-129045000D01*
G75*
G02*
X173344000Y-129217500I0J-172500D01*
G01*
X173344000Y-129562500D01*
G75*
G02*
X173171500Y-129735000I-172500J0D01*
G01*
G37*
%TD*%
%TO.C,C63*%
G36*
G01*
X146118000Y-118166500D02*
X146118000Y-118561500D01*
G75*
G02*
X145945500Y-118734000I-172500J0D01*
G01*
X145600500Y-118734000D01*
G75*
G02*
X145428000Y-118561500I0J172500D01*
G01*
X145428000Y-118166500D01*
G75*
G02*
X145600500Y-117994000I172500J0D01*
G01*
X145945500Y-117994000D01*
G75*
G02*
X146118000Y-118166500I0J-172500D01*
G01*
G37*
G36*
G01*
X145148000Y-118166500D02*
X145148000Y-118561500D01*
G75*
G02*
X144975500Y-118734000I-172500J0D01*
G01*
X144630500Y-118734000D01*
G75*
G02*
X144458000Y-118561500I0J172500D01*
G01*
X144458000Y-118166500D01*
G75*
G02*
X144630500Y-117994000I172500J0D01*
G01*
X144975500Y-117994000D01*
G75*
G02*
X145148000Y-118166500I0J-172500D01*
G01*
G37*
%TD*%
%TO.C,C61*%
G36*
G01*
X144413500Y-122454750D02*
X144413500Y-123417250D01*
G75*
G02*
X144144750Y-123686000I-268750J0D01*
G01*
X143607250Y-123686000D01*
G75*
G02*
X143338500Y-123417250I0J268750D01*
G01*
X143338500Y-122454750D01*
G75*
G02*
X143607250Y-122186000I268750J0D01*
G01*
X144144750Y-122186000D01*
G75*
G02*
X144413500Y-122454750I0J-268750D01*
G01*
G37*
G36*
G01*
X142538500Y-122454750D02*
X142538500Y-123417250D01*
G75*
G02*
X142269750Y-123686000I-268750J0D01*
G01*
X141732250Y-123686000D01*
G75*
G02*
X141463500Y-123417250I0J268750D01*
G01*
X141463500Y-122454750D01*
G75*
G02*
X141732250Y-122186000I268750J0D01*
G01*
X142269750Y-122186000D01*
G75*
G02*
X142538500Y-122454750I0J-268750D01*
G01*
G37*
%TD*%
%TO.C,C59*%
G36*
G01*
X146242500Y-120944000D02*
X146492500Y-120944000D01*
G75*
G02*
X146617500Y-121069000I0J-125000D01*
G01*
X146617500Y-121379000D01*
G75*
G02*
X146492500Y-121504000I-125000J0D01*
G01*
X146242500Y-121504000D01*
G75*
G02*
X146117500Y-121379000I0J125000D01*
G01*
X146117500Y-121069000D01*
G75*
G02*
X146242500Y-120944000I125000J0D01*
G01*
G37*
G36*
G01*
X146242500Y-120304000D02*
X146492500Y-120304000D01*
G75*
G02*
X146617500Y-120429000I0J-125000D01*
G01*
X146617500Y-120739000D01*
G75*
G02*
X146492500Y-120864000I-125000J0D01*
G01*
X146242500Y-120864000D01*
G75*
G02*
X146117500Y-120739000I0J125000D01*
G01*
X146117500Y-120429000D01*
G75*
G02*
X146242500Y-120304000I125000J0D01*
G01*
G37*
%TD*%
%TO.C,C56*%
G36*
G01*
X151830500Y-120944000D02*
X152080500Y-120944000D01*
G75*
G02*
X152205500Y-121069000I0J-125000D01*
G01*
X152205500Y-121379000D01*
G75*
G02*
X152080500Y-121504000I-125000J0D01*
G01*
X151830500Y-121504000D01*
G75*
G02*
X151705500Y-121379000I0J125000D01*
G01*
X151705500Y-121069000D01*
G75*
G02*
X151830500Y-120944000I125000J0D01*
G01*
G37*
G36*
G01*
X151830500Y-120304000D02*
X152080500Y-120304000D01*
G75*
G02*
X152205500Y-120429000I0J-125000D01*
G01*
X152205500Y-120739000D01*
G75*
G02*
X152080500Y-120864000I-125000J0D01*
G01*
X151830500Y-120864000D01*
G75*
G02*
X151705500Y-120739000I0J125000D01*
G01*
X151705500Y-120429000D01*
G75*
G02*
X151830500Y-120304000I125000J0D01*
G01*
G37*
%TD*%
%TO.C,C70*%
G36*
G01*
X157164500Y-125389000D02*
X157414500Y-125389000D01*
G75*
G02*
X157539500Y-125514000I0J-125000D01*
G01*
X157539500Y-125824000D01*
G75*
G02*
X157414500Y-125949000I-125000J0D01*
G01*
X157164500Y-125949000D01*
G75*
G02*
X157039500Y-125824000I0J125000D01*
G01*
X157039500Y-125514000D01*
G75*
G02*
X157164500Y-125389000I125000J0D01*
G01*
G37*
G36*
G01*
X157164500Y-124749000D02*
X157414500Y-124749000D01*
G75*
G02*
X157539500Y-124874000I0J-125000D01*
G01*
X157539500Y-125184000D01*
G75*
G02*
X157414500Y-125309000I-125000J0D01*
G01*
X157164500Y-125309000D01*
G75*
G02*
X157039500Y-125184000I0J125000D01*
G01*
X157039500Y-124874000D01*
G75*
G02*
X157164500Y-124749000I125000J0D01*
G01*
G37*
%TD*%
%TO.C,C72*%
G36*
G01*
X154624500Y-125389000D02*
X154874500Y-125389000D01*
G75*
G02*
X154999500Y-125514000I0J-125000D01*
G01*
X154999500Y-125824000D01*
G75*
G02*
X154874500Y-125949000I-125000J0D01*
G01*
X154624500Y-125949000D01*
G75*
G02*
X154499500Y-125824000I0J125000D01*
G01*
X154499500Y-125514000D01*
G75*
G02*
X154624500Y-125389000I125000J0D01*
G01*
G37*
G36*
G01*
X154624500Y-124749000D02*
X154874500Y-124749000D01*
G75*
G02*
X154999500Y-124874000I0J-125000D01*
G01*
X154999500Y-125184000D01*
G75*
G02*
X154874500Y-125309000I-125000J0D01*
G01*
X154624500Y-125309000D01*
G75*
G02*
X154499500Y-125184000I0J125000D01*
G01*
X154499500Y-124874000D01*
G75*
G02*
X154624500Y-124749000I125000J0D01*
G01*
G37*
%TD*%
%TO.C,C20*%
G36*
G01*
X153729000Y-76524500D02*
X153729000Y-76129500D01*
G75*
G02*
X153901500Y-75957000I172500J0D01*
G01*
X154246500Y-75957000D01*
G75*
G02*
X154419000Y-76129500I0J-172500D01*
G01*
X154419000Y-76524500D01*
G75*
G02*
X154246500Y-76697000I-172500J0D01*
G01*
X153901500Y-76697000D01*
G75*
G02*
X153729000Y-76524500I0J172500D01*
G01*
G37*
G36*
G01*
X154699000Y-76524500D02*
X154699000Y-76129500D01*
G75*
G02*
X154871500Y-75957000I172500J0D01*
G01*
X155216500Y-75957000D01*
G75*
G02*
X155389000Y-76129500I0J-172500D01*
G01*
X155389000Y-76524500D01*
G75*
G02*
X155216500Y-76697000I-172500J0D01*
G01*
X154871500Y-76697000D01*
G75*
G02*
X154699000Y-76524500I0J172500D01*
G01*
G37*
%TD*%
%TO.C,C21*%
G36*
G01*
X185007900Y-66006400D02*
X184612900Y-66006400D01*
G75*
G02*
X184440400Y-65833900I0J172500D01*
G01*
X184440400Y-65488900D01*
G75*
G02*
X184612900Y-65316400I172500J0D01*
G01*
X185007900Y-65316400D01*
G75*
G02*
X185180400Y-65488900I0J-172500D01*
G01*
X185180400Y-65833900D01*
G75*
G02*
X185007900Y-66006400I-172500J0D01*
G01*
G37*
G36*
G01*
X185007900Y-65036400D02*
X184612900Y-65036400D01*
G75*
G02*
X184440400Y-64863900I0J172500D01*
G01*
X184440400Y-64518900D01*
G75*
G02*
X184612900Y-64346400I172500J0D01*
G01*
X185007900Y-64346400D01*
G75*
G02*
X185180400Y-64518900I0J-172500D01*
G01*
X185180400Y-64863900D01*
G75*
G02*
X185007900Y-65036400I-172500J0D01*
G01*
G37*
%TD*%
%TO.C,C71*%
G36*
G01*
X157784500Y-92385500D02*
X157784500Y-92780500D01*
G75*
G02*
X157612000Y-92953000I-172500J0D01*
G01*
X157267000Y-92953000D01*
G75*
G02*
X157094500Y-92780500I0J172500D01*
G01*
X157094500Y-92385500D01*
G75*
G02*
X157267000Y-92213000I172500J0D01*
G01*
X157612000Y-92213000D01*
G75*
G02*
X157784500Y-92385500I0J-172500D01*
G01*
G37*
G36*
G01*
X158754500Y-92385500D02*
X158754500Y-92780500D01*
G75*
G02*
X158582000Y-92953000I-172500J0D01*
G01*
X158237000Y-92953000D01*
G75*
G02*
X158064500Y-92780500I0J172500D01*
G01*
X158064500Y-92385500D01*
G75*
G02*
X158237000Y-92213000I172500J0D01*
G01*
X158582000Y-92213000D01*
G75*
G02*
X158754500Y-92385500I0J-172500D01*
G01*
G37*
%TD*%
%TO.C,C69*%
G36*
G01*
X139326000Y-103619000D02*
X138931000Y-103619000D01*
G75*
G02*
X138758500Y-103446500I0J172500D01*
G01*
X138758500Y-103101500D01*
G75*
G02*
X138931000Y-102929000I172500J0D01*
G01*
X139326000Y-102929000D01*
G75*
G02*
X139498500Y-103101500I0J-172500D01*
G01*
X139498500Y-103446500D01*
G75*
G02*
X139326000Y-103619000I-172500J0D01*
G01*
G37*
G36*
G01*
X139326000Y-104589000D02*
X138931000Y-104589000D01*
G75*
G02*
X138758500Y-104416500I0J172500D01*
G01*
X138758500Y-104071500D01*
G75*
G02*
X138931000Y-103899000I172500J0D01*
G01*
X139326000Y-103899000D01*
G75*
G02*
X139498500Y-104071500I0J-172500D01*
G01*
X139498500Y-104416500D01*
G75*
G02*
X139326000Y-104589000I-172500J0D01*
G01*
G37*
%TD*%
%TO.C,C68*%
G36*
G01*
X140278500Y-94221000D02*
X139883500Y-94221000D01*
G75*
G02*
X139711000Y-94048500I0J172500D01*
G01*
X139711000Y-93703500D01*
G75*
G02*
X139883500Y-93531000I172500J0D01*
G01*
X140278500Y-93531000D01*
G75*
G02*
X140451000Y-93703500I0J-172500D01*
G01*
X140451000Y-94048500D01*
G75*
G02*
X140278500Y-94221000I-172500J0D01*
G01*
G37*
G36*
G01*
X140278500Y-95191000D02*
X139883500Y-95191000D01*
G75*
G02*
X139711000Y-95018500I0J172500D01*
G01*
X139711000Y-94673500D01*
G75*
G02*
X139883500Y-94501000I172500J0D01*
G01*
X140278500Y-94501000D01*
G75*
G02*
X140451000Y-94673500I0J-172500D01*
G01*
X140451000Y-95018500D01*
G75*
G02*
X140278500Y-95191000I-172500J0D01*
G01*
G37*
%TD*%
%TO.C,C67*%
G36*
G01*
X139326000Y-108826000D02*
X138931000Y-108826000D01*
G75*
G02*
X138758500Y-108653500I0J172500D01*
G01*
X138758500Y-108308500D01*
G75*
G02*
X138931000Y-108136000I172500J0D01*
G01*
X139326000Y-108136000D01*
G75*
G02*
X139498500Y-108308500I0J-172500D01*
G01*
X139498500Y-108653500D01*
G75*
G02*
X139326000Y-108826000I-172500J0D01*
G01*
G37*
G36*
G01*
X139326000Y-109796000D02*
X138931000Y-109796000D01*
G75*
G02*
X138758500Y-109623500I0J172500D01*
G01*
X138758500Y-109278500D01*
G75*
G02*
X138931000Y-109106000I172500J0D01*
G01*
X139326000Y-109106000D01*
G75*
G02*
X139498500Y-109278500I0J-172500D01*
G01*
X139498500Y-109623500D01*
G75*
G02*
X139326000Y-109796000I-172500J0D01*
G01*
G37*
%TD*%
%TO.C,C66*%
G36*
G01*
X163823000Y-107582000D02*
X164218000Y-107582000D01*
G75*
G02*
X164390500Y-107754500I0J-172500D01*
G01*
X164390500Y-108099500D01*
G75*
G02*
X164218000Y-108272000I-172500J0D01*
G01*
X163823000Y-108272000D01*
G75*
G02*
X163650500Y-108099500I0J172500D01*
G01*
X163650500Y-107754500D01*
G75*
G02*
X163823000Y-107582000I172500J0D01*
G01*
G37*
G36*
G01*
X163823000Y-106612000D02*
X164218000Y-106612000D01*
G75*
G02*
X164390500Y-106784500I0J-172500D01*
G01*
X164390500Y-107129500D01*
G75*
G02*
X164218000Y-107302000I-172500J0D01*
G01*
X163823000Y-107302000D01*
G75*
G02*
X163650500Y-107129500I0J172500D01*
G01*
X163650500Y-106784500D01*
G75*
G02*
X163823000Y-106612000I172500J0D01*
G01*
G37*
%TD*%
%TO.C,C64*%
G36*
G01*
X163823000Y-103010000D02*
X164218000Y-103010000D01*
G75*
G02*
X164390500Y-103182500I0J-172500D01*
G01*
X164390500Y-103527500D01*
G75*
G02*
X164218000Y-103700000I-172500J0D01*
G01*
X163823000Y-103700000D01*
G75*
G02*
X163650500Y-103527500I0J172500D01*
G01*
X163650500Y-103182500D01*
G75*
G02*
X163823000Y-103010000I172500J0D01*
G01*
G37*
G36*
G01*
X163823000Y-102040000D02*
X164218000Y-102040000D01*
G75*
G02*
X164390500Y-102212500I0J-172500D01*
G01*
X164390500Y-102557500D01*
G75*
G02*
X164218000Y-102730000I-172500J0D01*
G01*
X163823000Y-102730000D01*
G75*
G02*
X163650500Y-102557500I0J172500D01*
G01*
X163650500Y-102212500D01*
G75*
G02*
X163823000Y-102040000I172500J0D01*
G01*
G37*
%TD*%
%TO.C,C62*%
G36*
G01*
X153708400Y-93669500D02*
X153708400Y-93274500D01*
G75*
G02*
X153880900Y-93102000I172500J0D01*
G01*
X154225900Y-93102000D01*
G75*
G02*
X154398400Y-93274500I0J-172500D01*
G01*
X154398400Y-93669500D01*
G75*
G02*
X154225900Y-93842000I-172500J0D01*
G01*
X153880900Y-93842000D01*
G75*
G02*
X153708400Y-93669500I0J172500D01*
G01*
G37*
G36*
G01*
X152738400Y-93669500D02*
X152738400Y-93274500D01*
G75*
G02*
X152910900Y-93102000I172500J0D01*
G01*
X153255900Y-93102000D01*
G75*
G02*
X153428400Y-93274500I0J-172500D01*
G01*
X153428400Y-93669500D01*
G75*
G02*
X153255900Y-93842000I-172500J0D01*
G01*
X152910900Y-93842000D01*
G75*
G02*
X152738400Y-93669500I0J172500D01*
G01*
G37*
%TD*%
%TO.C,C60*%
G36*
G01*
X139326000Y-115430000D02*
X138931000Y-115430000D01*
G75*
G02*
X138758500Y-115257500I0J172500D01*
G01*
X138758500Y-114912500D01*
G75*
G02*
X138931000Y-114740000I172500J0D01*
G01*
X139326000Y-114740000D01*
G75*
G02*
X139498500Y-114912500I0J-172500D01*
G01*
X139498500Y-115257500D01*
G75*
G02*
X139326000Y-115430000I-172500J0D01*
G01*
G37*
G36*
G01*
X139326000Y-116400000D02*
X138931000Y-116400000D01*
G75*
G02*
X138758500Y-116227500I0J172500D01*
G01*
X138758500Y-115882500D01*
G75*
G02*
X138931000Y-115710000I172500J0D01*
G01*
X139326000Y-115710000D01*
G75*
G02*
X139498500Y-115882500I0J-172500D01*
G01*
X139498500Y-116227500D01*
G75*
G02*
X139326000Y-116400000I-172500J0D01*
G01*
G37*
%TD*%
%TO.C,C57*%
G36*
G01*
X148069600Y-93669500D02*
X148069600Y-93274500D01*
G75*
G02*
X148242100Y-93102000I172500J0D01*
G01*
X148587100Y-93102000D01*
G75*
G02*
X148759600Y-93274500I0J-172500D01*
G01*
X148759600Y-93669500D01*
G75*
G02*
X148587100Y-93842000I-172500J0D01*
G01*
X148242100Y-93842000D01*
G75*
G02*
X148069600Y-93669500I0J172500D01*
G01*
G37*
G36*
G01*
X147099600Y-93669500D02*
X147099600Y-93274500D01*
G75*
G02*
X147272100Y-93102000I172500J0D01*
G01*
X147617100Y-93102000D01*
G75*
G02*
X147789600Y-93274500I0J-172500D01*
G01*
X147789600Y-93669500D01*
G75*
G02*
X147617100Y-93842000I-172500J0D01*
G01*
X147272100Y-93842000D01*
G75*
G02*
X147099600Y-93669500I0J172500D01*
G01*
G37*
%TD*%
%TO.C,C55*%
G36*
G01*
X159366000Y-89434750D02*
X159366000Y-90397250D01*
G75*
G02*
X159097250Y-90666000I-268750J0D01*
G01*
X158559750Y-90666000D01*
G75*
G02*
X158291000Y-90397250I0J268750D01*
G01*
X158291000Y-89434750D01*
G75*
G02*
X158559750Y-89166000I268750J0D01*
G01*
X159097250Y-89166000D01*
G75*
G02*
X159366000Y-89434750I0J-268750D01*
G01*
G37*
G36*
G01*
X161241000Y-89434750D02*
X161241000Y-90397250D01*
G75*
G02*
X160972250Y-90666000I-268750J0D01*
G01*
X160434750Y-90666000D01*
G75*
G02*
X160166000Y-90397250I0J268750D01*
G01*
X160166000Y-89434750D01*
G75*
G02*
X160434750Y-89166000I268750J0D01*
G01*
X160972250Y-89166000D01*
G75*
G02*
X161241000Y-89434750I0J-268750D01*
G01*
G37*
%TD*%
%TO.C,C54*%
G36*
G01*
X159969500Y-92780500D02*
X159969500Y-92385500D01*
G75*
G02*
X160142000Y-92213000I172500J0D01*
G01*
X160487000Y-92213000D01*
G75*
G02*
X160659500Y-92385500I0J-172500D01*
G01*
X160659500Y-92780500D01*
G75*
G02*
X160487000Y-92953000I-172500J0D01*
G01*
X160142000Y-92953000D01*
G75*
G02*
X159969500Y-92780500I0J172500D01*
G01*
G37*
G36*
G01*
X158999500Y-92780500D02*
X158999500Y-92385500D01*
G75*
G02*
X159172000Y-92213000I172500J0D01*
G01*
X159517000Y-92213000D01*
G75*
G02*
X159689500Y-92385500I0J-172500D01*
G01*
X159689500Y-92780500D01*
G75*
G02*
X159517000Y-92953000I-172500J0D01*
G01*
X159172000Y-92953000D01*
G75*
G02*
X158999500Y-92780500I0J172500D01*
G01*
G37*
%TD*%
%TO.C,C53*%
G36*
G01*
X135599250Y-109366000D02*
X136561750Y-109366000D01*
G75*
G02*
X136830500Y-109634750I0J-268750D01*
G01*
X136830500Y-110172250D01*
G75*
G02*
X136561750Y-110441000I-268750J0D01*
G01*
X135599250Y-110441000D01*
G75*
G02*
X135330500Y-110172250I0J268750D01*
G01*
X135330500Y-109634750D01*
G75*
G02*
X135599250Y-109366000I268750J0D01*
G01*
G37*
G36*
G01*
X135599250Y-107491000D02*
X136561750Y-107491000D01*
G75*
G02*
X136830500Y-107759750I0J-268750D01*
G01*
X136830500Y-108297250D01*
G75*
G02*
X136561750Y-108566000I-268750J0D01*
G01*
X135599250Y-108566000D01*
G75*
G02*
X135330500Y-108297250I0J268750D01*
G01*
X135330500Y-107759750D01*
G75*
G02*
X135599250Y-107491000I268750J0D01*
G01*
G37*
%TD*%
%TO.C,C52*%
G36*
G01*
X152450500Y-118166500D02*
X152450500Y-118561500D01*
G75*
G02*
X152278000Y-118734000I-172500J0D01*
G01*
X151933000Y-118734000D01*
G75*
G02*
X151760500Y-118561500I0J172500D01*
G01*
X151760500Y-118166500D01*
G75*
G02*
X151933000Y-117994000I172500J0D01*
G01*
X152278000Y-117994000D01*
G75*
G02*
X152450500Y-118166500I0J-172500D01*
G01*
G37*
G36*
G01*
X153420500Y-118166500D02*
X153420500Y-118561500D01*
G75*
G02*
X153248000Y-118734000I-172500J0D01*
G01*
X152903000Y-118734000D01*
G75*
G02*
X152730500Y-118561500I0J172500D01*
G01*
X152730500Y-118166500D01*
G75*
G02*
X152903000Y-117994000I172500J0D01*
G01*
X153248000Y-117994000D01*
G75*
G02*
X153420500Y-118166500I0J-172500D01*
G01*
G37*
%TD*%
%TO.C,C51*%
G36*
G01*
X133513250Y-109266000D02*
X134075750Y-109266000D01*
G75*
G02*
X134319500Y-109509750I0J-243750D01*
G01*
X134319500Y-109997250D01*
G75*
G02*
X134075750Y-110241000I-243750J0D01*
G01*
X133513250Y-110241000D01*
G75*
G02*
X133269500Y-109997250I0J243750D01*
G01*
X133269500Y-109509750D01*
G75*
G02*
X133513250Y-109266000I243750J0D01*
G01*
G37*
G36*
G01*
X133513250Y-107691000D02*
X134075750Y-107691000D01*
G75*
G02*
X134319500Y-107934750I0J-243750D01*
G01*
X134319500Y-108422250D01*
G75*
G02*
X134075750Y-108666000I-243750J0D01*
G01*
X133513250Y-108666000D01*
G75*
G02*
X133269500Y-108422250I0J243750D01*
G01*
X133269500Y-107934750D01*
G75*
G02*
X133513250Y-107691000I243750J0D01*
G01*
G37*
%TD*%
%TO.C,C33*%
G36*
G01*
X122702000Y-120179000D02*
X121392000Y-120179000D01*
G75*
G02*
X121122000Y-119909000I0J270000D01*
G01*
X121122000Y-119099000D01*
G75*
G02*
X121392000Y-118829000I270000J0D01*
G01*
X122702000Y-118829000D01*
G75*
G02*
X122972000Y-119099000I0J-270000D01*
G01*
X122972000Y-119909000D01*
G75*
G02*
X122702000Y-120179000I-270000J0D01*
G01*
G37*
G36*
G01*
X122702000Y-122979000D02*
X121392000Y-122979000D01*
G75*
G02*
X121122000Y-122709000I0J270000D01*
G01*
X121122000Y-121899000D01*
G75*
G02*
X121392000Y-121629000I270000J0D01*
G01*
X122702000Y-121629000D01*
G75*
G02*
X122972000Y-121899000I0J-270000D01*
G01*
X122972000Y-122709000D01*
G75*
G02*
X122702000Y-122979000I-270000J0D01*
G01*
G37*
%TD*%
%TO.C,C34*%
G36*
G01*
X122702000Y-76491000D02*
X121392000Y-76491000D01*
G75*
G02*
X121122000Y-76221000I0J270000D01*
G01*
X121122000Y-75411000D01*
G75*
G02*
X121392000Y-75141000I270000J0D01*
G01*
X122702000Y-75141000D01*
G75*
G02*
X122972000Y-75411000I0J-270000D01*
G01*
X122972000Y-76221000D01*
G75*
G02*
X122702000Y-76491000I-270000J0D01*
G01*
G37*
G36*
G01*
X122702000Y-79291000D02*
X121392000Y-79291000D01*
G75*
G02*
X121122000Y-79021000I0J270000D01*
G01*
X121122000Y-78211000D01*
G75*
G02*
X121392000Y-77941000I270000J0D01*
G01*
X122702000Y-77941000D01*
G75*
G02*
X122972000Y-78211000I0J-270000D01*
G01*
X122972000Y-79021000D01*
G75*
G02*
X122702000Y-79291000I-270000J0D01*
G01*
G37*
%TD*%
%TO.C,C37*%
G36*
G01*
X146926000Y-68763500D02*
X146926000Y-69158500D01*
G75*
G02*
X146753500Y-69331000I-172500J0D01*
G01*
X146408500Y-69331000D01*
G75*
G02*
X146236000Y-69158500I0J172500D01*
G01*
X146236000Y-68763500D01*
G75*
G02*
X146408500Y-68591000I172500J0D01*
G01*
X146753500Y-68591000D01*
G75*
G02*
X146926000Y-68763500I0J-172500D01*
G01*
G37*
G36*
G01*
X147896000Y-68763500D02*
X147896000Y-69158500D01*
G75*
G02*
X147723500Y-69331000I-172500J0D01*
G01*
X147378500Y-69331000D01*
G75*
G02*
X147206000Y-69158500I0J172500D01*
G01*
X147206000Y-68763500D01*
G75*
G02*
X147378500Y-68591000I172500J0D01*
G01*
X147723500Y-68591000D01*
G75*
G02*
X147896000Y-68763500I0J-172500D01*
G01*
G37*
%TD*%
%TO.C,C23*%
G36*
G01*
X167526000Y-67634500D02*
X167526000Y-67239500D01*
G75*
G02*
X167698500Y-67067000I172500J0D01*
G01*
X168043500Y-67067000D01*
G75*
G02*
X168216000Y-67239500I0J-172500D01*
G01*
X168216000Y-67634500D01*
G75*
G02*
X168043500Y-67807000I-172500J0D01*
G01*
X167698500Y-67807000D01*
G75*
G02*
X167526000Y-67634500I0J172500D01*
G01*
G37*
G36*
G01*
X166556000Y-67634500D02*
X166556000Y-67239500D01*
G75*
G02*
X166728500Y-67067000I172500J0D01*
G01*
X167073500Y-67067000D01*
G75*
G02*
X167246000Y-67239500I0J-172500D01*
G01*
X167246000Y-67634500D01*
G75*
G02*
X167073500Y-67807000I-172500J0D01*
G01*
X166728500Y-67807000D01*
G75*
G02*
X166556000Y-67634500I0J172500D01*
G01*
G37*
%TD*%
%TO.C,C73*%
G36*
G01*
X163823000Y-114290000D02*
X164218000Y-114290000D01*
G75*
G02*
X164390500Y-114462500I0J-172500D01*
G01*
X164390500Y-114807500D01*
G75*
G02*
X164218000Y-114980000I-172500J0D01*
G01*
X163823000Y-114980000D01*
G75*
G02*
X163650500Y-114807500I0J172500D01*
G01*
X163650500Y-114462500D01*
G75*
G02*
X163823000Y-114290000I172500J0D01*
G01*
G37*
G36*
G01*
X163823000Y-113320000D02*
X164218000Y-113320000D01*
G75*
G02*
X164390500Y-113492500I0J-172500D01*
G01*
X164390500Y-113837500D01*
G75*
G02*
X164218000Y-114010000I-172500J0D01*
G01*
X163823000Y-114010000D01*
G75*
G02*
X163650500Y-113837500I0J172500D01*
G01*
X163650500Y-113492500D01*
G75*
G02*
X163823000Y-113320000I172500J0D01*
G01*
G37*
%TD*%
%TO.C,C74*%
G36*
G01*
X138072500Y-91315000D02*
X138072500Y-91565000D01*
G75*
G02*
X137947500Y-91690000I-125000J0D01*
G01*
X137637500Y-91690000D01*
G75*
G02*
X137512500Y-91565000I0J125000D01*
G01*
X137512500Y-91315000D01*
G75*
G02*
X137637500Y-91190000I125000J0D01*
G01*
X137947500Y-91190000D01*
G75*
G02*
X138072500Y-91315000I0J-125000D01*
G01*
G37*
G36*
G01*
X138712500Y-91315000D02*
X138712500Y-91565000D01*
G75*
G02*
X138587500Y-91690000I-125000J0D01*
G01*
X138277500Y-91690000D01*
G75*
G02*
X138152500Y-91565000I0J125000D01*
G01*
X138152500Y-91315000D01*
G75*
G02*
X138277500Y-91190000I125000J0D01*
G01*
X138587500Y-91190000D01*
G75*
G02*
X138712500Y-91315000I0J-125000D01*
G01*
G37*
%TD*%
%TO.C,C58*%
G36*
G01*
X138931000Y-98819000D02*
X139326000Y-98819000D01*
G75*
G02*
X139498500Y-98991500I0J-172500D01*
G01*
X139498500Y-99336500D01*
G75*
G02*
X139326000Y-99509000I-172500J0D01*
G01*
X138931000Y-99509000D01*
G75*
G02*
X138758500Y-99336500I0J172500D01*
G01*
X138758500Y-98991500D01*
G75*
G02*
X138931000Y-98819000I172500J0D01*
G01*
G37*
G36*
G01*
X138931000Y-97849000D02*
X139326000Y-97849000D01*
G75*
G02*
X139498500Y-98021500I0J-172500D01*
G01*
X139498500Y-98366500D01*
G75*
G02*
X139326000Y-98539000I-172500J0D01*
G01*
X138931000Y-98539000D01*
G75*
G02*
X138758500Y-98366500I0J172500D01*
G01*
X138758500Y-98021500D01*
G75*
G02*
X138931000Y-97849000I172500J0D01*
G01*
G37*
%TD*%
%TO.C,C22*%
G36*
G01*
X188511262Y-107036500D02*
X187154738Y-107036500D01*
G75*
G02*
X186883000Y-106764762I0J271738D01*
G01*
X186883000Y-106058238D01*
G75*
G02*
X187154738Y-105786500I271738J0D01*
G01*
X188511262Y-105786500D01*
G75*
G02*
X188783000Y-106058238I0J-271738D01*
G01*
X188783000Y-106764762D01*
G75*
G02*
X188511262Y-107036500I-271738J0D01*
G01*
G37*
G36*
G01*
X188511262Y-109986500D02*
X187154738Y-109986500D01*
G75*
G02*
X186883000Y-109714762I0J271738D01*
G01*
X186883000Y-109008238D01*
G75*
G02*
X187154738Y-108736500I271738J0D01*
G01*
X188511262Y-108736500D01*
G75*
G02*
X188783000Y-109008238I0J-271738D01*
G01*
X188783000Y-109714762D01*
G75*
G02*
X188511262Y-109986500I-271738J0D01*
G01*
G37*
%TD*%
%TO.C,C18*%
G36*
G01*
X189059738Y-94195000D02*
X190416262Y-94195000D01*
G75*
G02*
X190688000Y-94466738I0J-271738D01*
G01*
X190688000Y-95173262D01*
G75*
G02*
X190416262Y-95445000I-271738J0D01*
G01*
X189059738Y-95445000D01*
G75*
G02*
X188788000Y-95173262I0J271738D01*
G01*
X188788000Y-94466738D01*
G75*
G02*
X189059738Y-94195000I271738J0D01*
G01*
G37*
G36*
G01*
X189059738Y-91245000D02*
X190416262Y-91245000D01*
G75*
G02*
X190688000Y-91516738I0J-271738D01*
G01*
X190688000Y-92223262D01*
G75*
G02*
X190416262Y-92495000I-271738J0D01*
G01*
X189059738Y-92495000D01*
G75*
G02*
X188788000Y-92223262I0J271738D01*
G01*
X188788000Y-91516738D01*
G75*
G02*
X189059738Y-91245000I271738J0D01*
G01*
G37*
%TD*%
%TO.C,C17*%
G36*
G01*
X191178262Y-107036500D02*
X189821738Y-107036500D01*
G75*
G02*
X189550000Y-106764762I0J271738D01*
G01*
X189550000Y-106058238D01*
G75*
G02*
X189821738Y-105786500I271738J0D01*
G01*
X191178262Y-105786500D01*
G75*
G02*
X191450000Y-106058238I0J-271738D01*
G01*
X191450000Y-106764762D01*
G75*
G02*
X191178262Y-107036500I-271738J0D01*
G01*
G37*
G36*
G01*
X191178262Y-109986500D02*
X189821738Y-109986500D01*
G75*
G02*
X189550000Y-109714762I0J271738D01*
G01*
X189550000Y-109008238D01*
G75*
G02*
X189821738Y-108736500I271738J0D01*
G01*
X191178262Y-108736500D01*
G75*
G02*
X191450000Y-109008238I0J-271738D01*
G01*
X191450000Y-109714762D01*
G75*
G02*
X191178262Y-109986500I-271738J0D01*
G01*
G37*
%TD*%
%TO.C,C16*%
G36*
G01*
X171746500Y-113368500D02*
X172296500Y-113368500D01*
G75*
G02*
X172546500Y-113618500I0J-250000D01*
G01*
X172546500Y-114118500D01*
G75*
G02*
X172296500Y-114368500I-250000J0D01*
G01*
X171746500Y-114368500D01*
G75*
G02*
X171496500Y-114118500I0J250000D01*
G01*
X171496500Y-113618500D01*
G75*
G02*
X171746500Y-113368500I250000J0D01*
G01*
G37*
G36*
G01*
X171746500Y-111818500D02*
X172296500Y-111818500D01*
G75*
G02*
X172546500Y-112068500I0J-250000D01*
G01*
X172546500Y-112568500D01*
G75*
G02*
X172296500Y-112818500I-250000J0D01*
G01*
X171746500Y-112818500D01*
G75*
G02*
X171496500Y-112568500I0J250000D01*
G01*
X171496500Y-112068500D01*
G75*
G02*
X171746500Y-111818500I250000J0D01*
G01*
G37*
%TD*%
%TO.C,C15*%
G36*
G01*
X184487738Y-108736500D02*
X185844262Y-108736500D01*
G75*
G02*
X186116000Y-109008238I0J-271738D01*
G01*
X186116000Y-109714762D01*
G75*
G02*
X185844262Y-109986500I-271738J0D01*
G01*
X184487738Y-109986500D01*
G75*
G02*
X184216000Y-109714762I0J271738D01*
G01*
X184216000Y-109008238D01*
G75*
G02*
X184487738Y-108736500I271738J0D01*
G01*
G37*
G36*
G01*
X184487738Y-105786500D02*
X185844262Y-105786500D01*
G75*
G02*
X186116000Y-106058238I0J-271738D01*
G01*
X186116000Y-106764762D01*
G75*
G02*
X185844262Y-107036500I-271738J0D01*
G01*
X184487738Y-107036500D01*
G75*
G02*
X184216000Y-106764762I0J271738D01*
G01*
X184216000Y-106058238D01*
G75*
G02*
X184487738Y-105786500I271738J0D01*
G01*
G37*
%TD*%
%TO.C,C14*%
G36*
G01*
X169311238Y-113118000D02*
X170667762Y-113118000D01*
G75*
G02*
X170939500Y-113389738I0J-271738D01*
G01*
X170939500Y-114096262D01*
G75*
G02*
X170667762Y-114368000I-271738J0D01*
G01*
X169311238Y-114368000D01*
G75*
G02*
X169039500Y-114096262I0J271738D01*
G01*
X169039500Y-113389738D01*
G75*
G02*
X169311238Y-113118000I271738J0D01*
G01*
G37*
G36*
G01*
X169311238Y-110168000D02*
X170667762Y-110168000D01*
G75*
G02*
X170939500Y-110439738I0J-271738D01*
G01*
X170939500Y-111146262D01*
G75*
G02*
X170667762Y-111418000I-271738J0D01*
G01*
X169311238Y-111418000D01*
G75*
G02*
X169039500Y-111146262I0J271738D01*
G01*
X169039500Y-110439738D01*
G75*
G02*
X169311238Y-110168000I271738J0D01*
G01*
G37*
%TD*%
%TO.C,C10*%
G36*
G01*
X129501000Y-105707262D02*
X129501000Y-104350738D01*
G75*
G02*
X129772738Y-104079000I271738J0D01*
G01*
X130479262Y-104079000D01*
G75*
G02*
X130751000Y-104350738I0J-271738D01*
G01*
X130751000Y-105707262D01*
G75*
G02*
X130479262Y-105979000I-271738J0D01*
G01*
X129772738Y-105979000D01*
G75*
G02*
X129501000Y-105707262I0J271738D01*
G01*
G37*
G36*
G01*
X126551000Y-105707262D02*
X126551000Y-104350738D01*
G75*
G02*
X126822738Y-104079000I271738J0D01*
G01*
X127529262Y-104079000D01*
G75*
G02*
X127801000Y-104350738I0J-271738D01*
G01*
X127801000Y-105707262D01*
G75*
G02*
X127529262Y-105979000I-271738J0D01*
G01*
X126822738Y-105979000D01*
G75*
G02*
X126551000Y-105707262I0J271738D01*
G01*
G37*
%TD*%
%TO.C,C9*%
G36*
G01*
X184487738Y-113562500D02*
X185844262Y-113562500D01*
G75*
G02*
X186116000Y-113834238I0J-271738D01*
G01*
X186116000Y-114540762D01*
G75*
G02*
X185844262Y-114812500I-271738J0D01*
G01*
X184487738Y-114812500D01*
G75*
G02*
X184216000Y-114540762I0J271738D01*
G01*
X184216000Y-113834238D01*
G75*
G02*
X184487738Y-113562500I271738J0D01*
G01*
G37*
G36*
G01*
X184487738Y-110612500D02*
X185844262Y-110612500D01*
G75*
G02*
X186116000Y-110884238I0J-271738D01*
G01*
X186116000Y-111590762D01*
G75*
G02*
X185844262Y-111862500I-271738J0D01*
G01*
X184487738Y-111862500D01*
G75*
G02*
X184216000Y-111590762I0J271738D01*
G01*
X184216000Y-110884238D01*
G75*
G02*
X184487738Y-110612500I271738J0D01*
G01*
G37*
%TD*%
%TO.C,C8*%
G36*
G01*
X179998000Y-57741738D02*
X179998000Y-59098262D01*
G75*
G02*
X179726262Y-59370000I-271738J0D01*
G01*
X179019738Y-59370000D01*
G75*
G02*
X178748000Y-59098262I0J271738D01*
G01*
X178748000Y-57741738D01*
G75*
G02*
X179019738Y-57470000I271738J0D01*
G01*
X179726262Y-57470000D01*
G75*
G02*
X179998000Y-57741738I0J-271738D01*
G01*
G37*
G36*
G01*
X182948000Y-57741738D02*
X182948000Y-59098262D01*
G75*
G02*
X182676262Y-59370000I-271738J0D01*
G01*
X181969738Y-59370000D01*
G75*
G02*
X181698000Y-59098262I0J271738D01*
G01*
X181698000Y-57741738D01*
G75*
G02*
X181969738Y-57470000I271738J0D01*
G01*
X182676262Y-57470000D01*
G75*
G02*
X182948000Y-57741738I0J-271738D01*
G01*
G37*
%TD*%
%TO.C,C3*%
G36*
G01*
X164865000Y-73398000D02*
X164865000Y-72398000D01*
G75*
G02*
X165140000Y-72123000I275000J0D01*
G01*
X165690000Y-72123000D01*
G75*
G02*
X165965000Y-72398000I0J-275000D01*
G01*
X165965000Y-73398000D01*
G75*
G02*
X165690000Y-73673000I-275000J0D01*
G01*
X165140000Y-73673000D01*
G75*
G02*
X164865000Y-73398000I0J275000D01*
G01*
G37*
G36*
G01*
X162965000Y-73398000D02*
X162965000Y-72398000D01*
G75*
G02*
X163240000Y-72123000I275000J0D01*
G01*
X163790000Y-72123000D01*
G75*
G02*
X164065000Y-72398000I0J-275000D01*
G01*
X164065000Y-73398000D01*
G75*
G02*
X163790000Y-73673000I-275000J0D01*
G01*
X163240000Y-73673000D01*
G75*
G02*
X162965000Y-73398000I0J275000D01*
G01*
G37*
%TD*%
%TO.C,C2*%
G36*
G01*
X171300000Y-74862000D02*
X171300000Y-75252000D01*
G75*
G02*
X171135000Y-75417000I-165000J0D01*
G01*
X170805000Y-75417000D01*
G75*
G02*
X170640000Y-75252000I0J165000D01*
G01*
X170640000Y-74862000D01*
G75*
G02*
X170805000Y-74697000I165000J0D01*
G01*
X171135000Y-74697000D01*
G75*
G02*
X171300000Y-74862000I0J-165000D01*
G01*
G37*
G36*
G01*
X172260000Y-74862000D02*
X172260000Y-75252000D01*
G75*
G02*
X172095000Y-75417000I-165000J0D01*
G01*
X171765000Y-75417000D01*
G75*
G02*
X171600000Y-75252000I0J165000D01*
G01*
X171600000Y-74862000D01*
G75*
G02*
X171765000Y-74697000I165000J0D01*
G01*
X172095000Y-74697000D01*
G75*
G02*
X172260000Y-74862000I0J-165000D01*
G01*
G37*
%TD*%
%TO.C,C1*%
G36*
G01*
X169330000Y-72219738D02*
X169330000Y-73576262D01*
G75*
G02*
X169058262Y-73848000I-271738J0D01*
G01*
X168351738Y-73848000D01*
G75*
G02*
X168080000Y-73576262I0J271738D01*
G01*
X168080000Y-72219738D01*
G75*
G02*
X168351738Y-71948000I271738J0D01*
G01*
X169058262Y-71948000D01*
G75*
G02*
X169330000Y-72219738I0J-271738D01*
G01*
G37*
G36*
G01*
X172280000Y-72219738D02*
X172280000Y-73576262D01*
G75*
G02*
X172008262Y-73848000I-271738J0D01*
G01*
X171301738Y-73848000D01*
G75*
G02*
X171030000Y-73576262I0J271738D01*
G01*
X171030000Y-72219738D01*
G75*
G02*
X171301738Y-71948000I271738J0D01*
G01*
X172008262Y-71948000D01*
G75*
G02*
X172280000Y-72219738I0J-271738D01*
G01*
G37*
%TD*%
D13*
%TO.C,U21*%
X177609500Y-111188500D03*
D14*
X174117000Y-108588500D03*
X174752000Y-108588500D03*
X175387000Y-108588500D03*
X176022000Y-108588500D03*
X176657000Y-108588500D03*
X177292000Y-108588500D03*
X177927000Y-108588500D03*
X178562000Y-108588500D03*
X179197000Y-108588500D03*
X179832000Y-108588500D03*
X180467000Y-108588500D03*
X181102000Y-108588500D03*
X181102000Y-113788500D03*
X180467000Y-113788500D03*
X179832000Y-113788500D03*
X179197000Y-113788500D03*
X178562000Y-113788500D03*
X177927000Y-113788500D03*
X177292000Y-113788500D03*
X176657000Y-113788500D03*
X176022000Y-113788500D03*
X175387000Y-113788500D03*
X174752000Y-113788500D03*
X174117000Y-113788500D03*
%TD*%
%TO.C,U19*%
G36*
G01*
X162924500Y-114868000D02*
X161549500Y-114868000D01*
G75*
G02*
X161449500Y-114768000I0J100000D01*
G01*
X161449500Y-114568000D01*
G75*
G02*
X161549500Y-114468000I100000J0D01*
G01*
X162924500Y-114468000D01*
G75*
G02*
X163024500Y-114568000I0J-100000D01*
G01*
X163024500Y-114768000D01*
G75*
G02*
X162924500Y-114868000I-100000J0D01*
G01*
G37*
G36*
G01*
X162924500Y-114368000D02*
X161549500Y-114368000D01*
G75*
G02*
X161449500Y-114268000I0J100000D01*
G01*
X161449500Y-114068000D01*
G75*
G02*
X161549500Y-113968000I100000J0D01*
G01*
X162924500Y-113968000D01*
G75*
G02*
X163024500Y-114068000I0J-100000D01*
G01*
X163024500Y-114268000D01*
G75*
G02*
X162924500Y-114368000I-100000J0D01*
G01*
G37*
G36*
G01*
X162924500Y-113868000D02*
X161549500Y-113868000D01*
G75*
G02*
X161449500Y-113768000I0J100000D01*
G01*
X161449500Y-113568000D01*
G75*
G02*
X161549500Y-113468000I100000J0D01*
G01*
X162924500Y-113468000D01*
G75*
G02*
X163024500Y-113568000I0J-100000D01*
G01*
X163024500Y-113768000D01*
G75*
G02*
X162924500Y-113868000I-100000J0D01*
G01*
G37*
G36*
G01*
X162924500Y-113368000D02*
X161549500Y-113368000D01*
G75*
G02*
X161449500Y-113268000I0J100000D01*
G01*
X161449500Y-113068000D01*
G75*
G02*
X161549500Y-112968000I100000J0D01*
G01*
X162924500Y-112968000D01*
G75*
G02*
X163024500Y-113068000I0J-100000D01*
G01*
X163024500Y-113268000D01*
G75*
G02*
X162924500Y-113368000I-100000J0D01*
G01*
G37*
G36*
G01*
X162924500Y-112868000D02*
X161549500Y-112868000D01*
G75*
G02*
X161449500Y-112768000I0J100000D01*
G01*
X161449500Y-112568000D01*
G75*
G02*
X161549500Y-112468000I100000J0D01*
G01*
X162924500Y-112468000D01*
G75*
G02*
X163024500Y-112568000I0J-100000D01*
G01*
X163024500Y-112768000D01*
G75*
G02*
X162924500Y-112868000I-100000J0D01*
G01*
G37*
G36*
G01*
X162924500Y-112368000D02*
X161549500Y-112368000D01*
G75*
G02*
X161449500Y-112268000I0J100000D01*
G01*
X161449500Y-112068000D01*
G75*
G02*
X161549500Y-111968000I100000J0D01*
G01*
X162924500Y-111968000D01*
G75*
G02*
X163024500Y-112068000I0J-100000D01*
G01*
X163024500Y-112268000D01*
G75*
G02*
X162924500Y-112368000I-100000J0D01*
G01*
G37*
G36*
G01*
X162924500Y-111868000D02*
X161549500Y-111868000D01*
G75*
G02*
X161449500Y-111768000I0J100000D01*
G01*
X161449500Y-111568000D01*
G75*
G02*
X161549500Y-111468000I100000J0D01*
G01*
X162924500Y-111468000D01*
G75*
G02*
X163024500Y-111568000I0J-100000D01*
G01*
X163024500Y-111768000D01*
G75*
G02*
X162924500Y-111868000I-100000J0D01*
G01*
G37*
G36*
G01*
X162924500Y-111368000D02*
X161549500Y-111368000D01*
G75*
G02*
X161449500Y-111268000I0J100000D01*
G01*
X161449500Y-111068000D01*
G75*
G02*
X161549500Y-110968000I100000J0D01*
G01*
X162924500Y-110968000D01*
G75*
G02*
X163024500Y-111068000I0J-100000D01*
G01*
X163024500Y-111268000D01*
G75*
G02*
X162924500Y-111368000I-100000J0D01*
G01*
G37*
G36*
G01*
X162924500Y-110868000D02*
X161549500Y-110868000D01*
G75*
G02*
X161449500Y-110768000I0J100000D01*
G01*
X161449500Y-110568000D01*
G75*
G02*
X161549500Y-110468000I100000J0D01*
G01*
X162924500Y-110468000D01*
G75*
G02*
X163024500Y-110568000I0J-100000D01*
G01*
X163024500Y-110768000D01*
G75*
G02*
X162924500Y-110868000I-100000J0D01*
G01*
G37*
G36*
G01*
X162924500Y-110368000D02*
X161549500Y-110368000D01*
G75*
G02*
X161449500Y-110268000I0J100000D01*
G01*
X161449500Y-110068000D01*
G75*
G02*
X161549500Y-109968000I100000J0D01*
G01*
X162924500Y-109968000D01*
G75*
G02*
X163024500Y-110068000I0J-100000D01*
G01*
X163024500Y-110268000D01*
G75*
G02*
X162924500Y-110368000I-100000J0D01*
G01*
G37*
G36*
G01*
X162924500Y-109868000D02*
X161549500Y-109868000D01*
G75*
G02*
X161449500Y-109768000I0J100000D01*
G01*
X161449500Y-109568000D01*
G75*
G02*
X161549500Y-109468000I100000J0D01*
G01*
X162924500Y-109468000D01*
G75*
G02*
X163024500Y-109568000I0J-100000D01*
G01*
X163024500Y-109768000D01*
G75*
G02*
X162924500Y-109868000I-100000J0D01*
G01*
G37*
G36*
G01*
X162924500Y-109368000D02*
X161549500Y-109368000D01*
G75*
G02*
X161449500Y-109268000I0J100000D01*
G01*
X161449500Y-109068000D01*
G75*
G02*
X161549500Y-108968000I100000J0D01*
G01*
X162924500Y-108968000D01*
G75*
G02*
X163024500Y-109068000I0J-100000D01*
G01*
X163024500Y-109268000D01*
G75*
G02*
X162924500Y-109368000I-100000J0D01*
G01*
G37*
G36*
G01*
X162924500Y-108868000D02*
X161549500Y-108868000D01*
G75*
G02*
X161449500Y-108768000I0J100000D01*
G01*
X161449500Y-108568000D01*
G75*
G02*
X161549500Y-108468000I100000J0D01*
G01*
X162924500Y-108468000D01*
G75*
G02*
X163024500Y-108568000I0J-100000D01*
G01*
X163024500Y-108768000D01*
G75*
G02*
X162924500Y-108868000I-100000J0D01*
G01*
G37*
G36*
G01*
X162924500Y-108368000D02*
X161549500Y-108368000D01*
G75*
G02*
X161449500Y-108268000I0J100000D01*
G01*
X161449500Y-108068000D01*
G75*
G02*
X161549500Y-107968000I100000J0D01*
G01*
X162924500Y-107968000D01*
G75*
G02*
X163024500Y-108068000I0J-100000D01*
G01*
X163024500Y-108268000D01*
G75*
G02*
X162924500Y-108368000I-100000J0D01*
G01*
G37*
G36*
G01*
X162924500Y-107868000D02*
X161549500Y-107868000D01*
G75*
G02*
X161449500Y-107768000I0J100000D01*
G01*
X161449500Y-107568000D01*
G75*
G02*
X161549500Y-107468000I100000J0D01*
G01*
X162924500Y-107468000D01*
G75*
G02*
X163024500Y-107568000I0J-100000D01*
G01*
X163024500Y-107768000D01*
G75*
G02*
X162924500Y-107868000I-100000J0D01*
G01*
G37*
G36*
G01*
X162924500Y-107368000D02*
X161549500Y-107368000D01*
G75*
G02*
X161449500Y-107268000I0J100000D01*
G01*
X161449500Y-107068000D01*
G75*
G02*
X161549500Y-106968000I100000J0D01*
G01*
X162924500Y-106968000D01*
G75*
G02*
X163024500Y-107068000I0J-100000D01*
G01*
X163024500Y-107268000D01*
G75*
G02*
X162924500Y-107368000I-100000J0D01*
G01*
G37*
G36*
G01*
X162924500Y-106868000D02*
X161549500Y-106868000D01*
G75*
G02*
X161449500Y-106768000I0J100000D01*
G01*
X161449500Y-106568000D01*
G75*
G02*
X161549500Y-106468000I100000J0D01*
G01*
X162924500Y-106468000D01*
G75*
G02*
X163024500Y-106568000I0J-100000D01*
G01*
X163024500Y-106768000D01*
G75*
G02*
X162924500Y-106868000I-100000J0D01*
G01*
G37*
G36*
G01*
X162924500Y-106368000D02*
X161549500Y-106368000D01*
G75*
G02*
X161449500Y-106268000I0J100000D01*
G01*
X161449500Y-106068000D01*
G75*
G02*
X161549500Y-105968000I100000J0D01*
G01*
X162924500Y-105968000D01*
G75*
G02*
X163024500Y-106068000I0J-100000D01*
G01*
X163024500Y-106268000D01*
G75*
G02*
X162924500Y-106368000I-100000J0D01*
G01*
G37*
G36*
G01*
X162924500Y-105868000D02*
X161549500Y-105868000D01*
G75*
G02*
X161449500Y-105768000I0J100000D01*
G01*
X161449500Y-105568000D01*
G75*
G02*
X161549500Y-105468000I100000J0D01*
G01*
X162924500Y-105468000D01*
G75*
G02*
X163024500Y-105568000I0J-100000D01*
G01*
X163024500Y-105768000D01*
G75*
G02*
X162924500Y-105868000I-100000J0D01*
G01*
G37*
G36*
G01*
X162924500Y-105368000D02*
X161549500Y-105368000D01*
G75*
G02*
X161449500Y-105268000I0J100000D01*
G01*
X161449500Y-105068000D01*
G75*
G02*
X161549500Y-104968000I100000J0D01*
G01*
X162924500Y-104968000D01*
G75*
G02*
X163024500Y-105068000I0J-100000D01*
G01*
X163024500Y-105268000D01*
G75*
G02*
X162924500Y-105368000I-100000J0D01*
G01*
G37*
G36*
G01*
X162924500Y-104868000D02*
X161549500Y-104868000D01*
G75*
G02*
X161449500Y-104768000I0J100000D01*
G01*
X161449500Y-104568000D01*
G75*
G02*
X161549500Y-104468000I100000J0D01*
G01*
X162924500Y-104468000D01*
G75*
G02*
X163024500Y-104568000I0J-100000D01*
G01*
X163024500Y-104768000D01*
G75*
G02*
X162924500Y-104868000I-100000J0D01*
G01*
G37*
G36*
G01*
X162924500Y-104368000D02*
X161549500Y-104368000D01*
G75*
G02*
X161449500Y-104268000I0J100000D01*
G01*
X161449500Y-104068000D01*
G75*
G02*
X161549500Y-103968000I100000J0D01*
G01*
X162924500Y-103968000D01*
G75*
G02*
X163024500Y-104068000I0J-100000D01*
G01*
X163024500Y-104268000D01*
G75*
G02*
X162924500Y-104368000I-100000J0D01*
G01*
G37*
G36*
G01*
X162924500Y-103868000D02*
X161549500Y-103868000D01*
G75*
G02*
X161449500Y-103768000I0J100000D01*
G01*
X161449500Y-103568000D01*
G75*
G02*
X161549500Y-103468000I100000J0D01*
G01*
X162924500Y-103468000D01*
G75*
G02*
X163024500Y-103568000I0J-100000D01*
G01*
X163024500Y-103768000D01*
G75*
G02*
X162924500Y-103868000I-100000J0D01*
G01*
G37*
G36*
G01*
X162924500Y-103368000D02*
X161549500Y-103368000D01*
G75*
G02*
X161449500Y-103268000I0J100000D01*
G01*
X161449500Y-103068000D01*
G75*
G02*
X161549500Y-102968000I100000J0D01*
G01*
X162924500Y-102968000D01*
G75*
G02*
X163024500Y-103068000I0J-100000D01*
G01*
X163024500Y-103268000D01*
G75*
G02*
X162924500Y-103368000I-100000J0D01*
G01*
G37*
G36*
G01*
X162924500Y-102868000D02*
X161549500Y-102868000D01*
G75*
G02*
X161449500Y-102768000I0J100000D01*
G01*
X161449500Y-102568000D01*
G75*
G02*
X161549500Y-102468000I100000J0D01*
G01*
X162924500Y-102468000D01*
G75*
G02*
X163024500Y-102568000I0J-100000D01*
G01*
X163024500Y-102768000D01*
G75*
G02*
X162924500Y-102868000I-100000J0D01*
G01*
G37*
G36*
G01*
X162924500Y-102368000D02*
X161549500Y-102368000D01*
G75*
G02*
X161449500Y-102268000I0J100000D01*
G01*
X161449500Y-102068000D01*
G75*
G02*
X161549500Y-101968000I100000J0D01*
G01*
X162924500Y-101968000D01*
G75*
G02*
X163024500Y-102068000I0J-100000D01*
G01*
X163024500Y-102268000D01*
G75*
G02*
X162924500Y-102368000I-100000J0D01*
G01*
G37*
G36*
G01*
X162924500Y-101868000D02*
X161549500Y-101868000D01*
G75*
G02*
X161449500Y-101768000I0J100000D01*
G01*
X161449500Y-101568000D01*
G75*
G02*
X161549500Y-101468000I100000J0D01*
G01*
X162924500Y-101468000D01*
G75*
G02*
X163024500Y-101568000I0J-100000D01*
G01*
X163024500Y-101768000D01*
G75*
G02*
X162924500Y-101868000I-100000J0D01*
G01*
G37*
G36*
G01*
X162924500Y-101368000D02*
X161549500Y-101368000D01*
G75*
G02*
X161449500Y-101268000I0J100000D01*
G01*
X161449500Y-101068000D01*
G75*
G02*
X161549500Y-100968000I100000J0D01*
G01*
X162924500Y-100968000D01*
G75*
G02*
X163024500Y-101068000I0J-100000D01*
G01*
X163024500Y-101268000D01*
G75*
G02*
X162924500Y-101368000I-100000J0D01*
G01*
G37*
G36*
G01*
X162924500Y-100868000D02*
X161549500Y-100868000D01*
G75*
G02*
X161449500Y-100768000I0J100000D01*
G01*
X161449500Y-100568000D01*
G75*
G02*
X161549500Y-100468000I100000J0D01*
G01*
X162924500Y-100468000D01*
G75*
G02*
X163024500Y-100568000I0J-100000D01*
G01*
X163024500Y-100768000D01*
G75*
G02*
X162924500Y-100868000I-100000J0D01*
G01*
G37*
G36*
G01*
X162924500Y-100368000D02*
X161549500Y-100368000D01*
G75*
G02*
X161449500Y-100268000I0J100000D01*
G01*
X161449500Y-100068000D01*
G75*
G02*
X161549500Y-99968000I100000J0D01*
G01*
X162924500Y-99968000D01*
G75*
G02*
X163024500Y-100068000I0J-100000D01*
G01*
X163024500Y-100268000D01*
G75*
G02*
X162924500Y-100368000I-100000J0D01*
G01*
G37*
G36*
G01*
X162924500Y-99868000D02*
X161549500Y-99868000D01*
G75*
G02*
X161449500Y-99768000I0J100000D01*
G01*
X161449500Y-99568000D01*
G75*
G02*
X161549500Y-99468000I100000J0D01*
G01*
X162924500Y-99468000D01*
G75*
G02*
X163024500Y-99568000I0J-100000D01*
G01*
X163024500Y-99768000D01*
G75*
G02*
X162924500Y-99868000I-100000J0D01*
G01*
G37*
G36*
G01*
X162924500Y-99368000D02*
X161549500Y-99368000D01*
G75*
G02*
X161449500Y-99268000I0J100000D01*
G01*
X161449500Y-99068000D01*
G75*
G02*
X161549500Y-98968000I100000J0D01*
G01*
X162924500Y-98968000D01*
G75*
G02*
X163024500Y-99068000I0J-100000D01*
G01*
X163024500Y-99268000D01*
G75*
G02*
X162924500Y-99368000I-100000J0D01*
G01*
G37*
G36*
G01*
X162924500Y-98868000D02*
X161549500Y-98868000D01*
G75*
G02*
X161449500Y-98768000I0J100000D01*
G01*
X161449500Y-98568000D01*
G75*
G02*
X161549500Y-98468000I100000J0D01*
G01*
X162924500Y-98468000D01*
G75*
G02*
X163024500Y-98568000I0J-100000D01*
G01*
X163024500Y-98768000D01*
G75*
G02*
X162924500Y-98868000I-100000J0D01*
G01*
G37*
G36*
G01*
X162924500Y-98368000D02*
X161549500Y-98368000D01*
G75*
G02*
X161449500Y-98268000I0J100000D01*
G01*
X161449500Y-98068000D01*
G75*
G02*
X161549500Y-97968000I100000J0D01*
G01*
X162924500Y-97968000D01*
G75*
G02*
X163024500Y-98068000I0J-100000D01*
G01*
X163024500Y-98268000D01*
G75*
G02*
X162924500Y-98368000I-100000J0D01*
G01*
G37*
G36*
G01*
X162924500Y-97868000D02*
X161549500Y-97868000D01*
G75*
G02*
X161449500Y-97768000I0J100000D01*
G01*
X161449500Y-97568000D01*
G75*
G02*
X161549500Y-97468000I100000J0D01*
G01*
X162924500Y-97468000D01*
G75*
G02*
X163024500Y-97568000I0J-100000D01*
G01*
X163024500Y-97768000D01*
G75*
G02*
X162924500Y-97868000I-100000J0D01*
G01*
G37*
G36*
G01*
X162924500Y-97368000D02*
X161549500Y-97368000D01*
G75*
G02*
X161449500Y-97268000I0J100000D01*
G01*
X161449500Y-97068000D01*
G75*
G02*
X161549500Y-96968000I100000J0D01*
G01*
X162924500Y-96968000D01*
G75*
G02*
X163024500Y-97068000I0J-100000D01*
G01*
X163024500Y-97268000D01*
G75*
G02*
X162924500Y-97368000I-100000J0D01*
G01*
G37*
G36*
G01*
X160424500Y-96043000D02*
X160224500Y-96043000D01*
G75*
G02*
X160124500Y-95943000I0J100000D01*
G01*
X160124500Y-94568000D01*
G75*
G02*
X160224500Y-94468000I100000J0D01*
G01*
X160424500Y-94468000D01*
G75*
G02*
X160524500Y-94568000I0J-100000D01*
G01*
X160524500Y-95943000D01*
G75*
G02*
X160424500Y-96043000I-100000J0D01*
G01*
G37*
G36*
G01*
X159924500Y-96043000D02*
X159724500Y-96043000D01*
G75*
G02*
X159624500Y-95943000I0J100000D01*
G01*
X159624500Y-94568000D01*
G75*
G02*
X159724500Y-94468000I100000J0D01*
G01*
X159924500Y-94468000D01*
G75*
G02*
X160024500Y-94568000I0J-100000D01*
G01*
X160024500Y-95943000D01*
G75*
G02*
X159924500Y-96043000I-100000J0D01*
G01*
G37*
G36*
G01*
X159424500Y-96043000D02*
X159224500Y-96043000D01*
G75*
G02*
X159124500Y-95943000I0J100000D01*
G01*
X159124500Y-94568000D01*
G75*
G02*
X159224500Y-94468000I100000J0D01*
G01*
X159424500Y-94468000D01*
G75*
G02*
X159524500Y-94568000I0J-100000D01*
G01*
X159524500Y-95943000D01*
G75*
G02*
X159424500Y-96043000I-100000J0D01*
G01*
G37*
G36*
G01*
X158924500Y-96043000D02*
X158724500Y-96043000D01*
G75*
G02*
X158624500Y-95943000I0J100000D01*
G01*
X158624500Y-94568000D01*
G75*
G02*
X158724500Y-94468000I100000J0D01*
G01*
X158924500Y-94468000D01*
G75*
G02*
X159024500Y-94568000I0J-100000D01*
G01*
X159024500Y-95943000D01*
G75*
G02*
X158924500Y-96043000I-100000J0D01*
G01*
G37*
G36*
G01*
X158424500Y-96043000D02*
X158224500Y-96043000D01*
G75*
G02*
X158124500Y-95943000I0J100000D01*
G01*
X158124500Y-94568000D01*
G75*
G02*
X158224500Y-94468000I100000J0D01*
G01*
X158424500Y-94468000D01*
G75*
G02*
X158524500Y-94568000I0J-100000D01*
G01*
X158524500Y-95943000D01*
G75*
G02*
X158424500Y-96043000I-100000J0D01*
G01*
G37*
G36*
G01*
X157924500Y-96043000D02*
X157724500Y-96043000D01*
G75*
G02*
X157624500Y-95943000I0J100000D01*
G01*
X157624500Y-94568000D01*
G75*
G02*
X157724500Y-94468000I100000J0D01*
G01*
X157924500Y-94468000D01*
G75*
G02*
X158024500Y-94568000I0J-100000D01*
G01*
X158024500Y-95943000D01*
G75*
G02*
X157924500Y-96043000I-100000J0D01*
G01*
G37*
G36*
G01*
X157424500Y-96043000D02*
X157224500Y-96043000D01*
G75*
G02*
X157124500Y-95943000I0J100000D01*
G01*
X157124500Y-94568000D01*
G75*
G02*
X157224500Y-94468000I100000J0D01*
G01*
X157424500Y-94468000D01*
G75*
G02*
X157524500Y-94568000I0J-100000D01*
G01*
X157524500Y-95943000D01*
G75*
G02*
X157424500Y-96043000I-100000J0D01*
G01*
G37*
G36*
G01*
X156924500Y-96043000D02*
X156724500Y-96043000D01*
G75*
G02*
X156624500Y-95943000I0J100000D01*
G01*
X156624500Y-94568000D01*
G75*
G02*
X156724500Y-94468000I100000J0D01*
G01*
X156924500Y-94468000D01*
G75*
G02*
X157024500Y-94568000I0J-100000D01*
G01*
X157024500Y-95943000D01*
G75*
G02*
X156924500Y-96043000I-100000J0D01*
G01*
G37*
G36*
G01*
X156424500Y-96043000D02*
X156224500Y-96043000D01*
G75*
G02*
X156124500Y-95943000I0J100000D01*
G01*
X156124500Y-94568000D01*
G75*
G02*
X156224500Y-94468000I100000J0D01*
G01*
X156424500Y-94468000D01*
G75*
G02*
X156524500Y-94568000I0J-100000D01*
G01*
X156524500Y-95943000D01*
G75*
G02*
X156424500Y-96043000I-100000J0D01*
G01*
G37*
G36*
G01*
X155924500Y-96043000D02*
X155724500Y-96043000D01*
G75*
G02*
X155624500Y-95943000I0J100000D01*
G01*
X155624500Y-94568000D01*
G75*
G02*
X155724500Y-94468000I100000J0D01*
G01*
X155924500Y-94468000D01*
G75*
G02*
X156024500Y-94568000I0J-100000D01*
G01*
X156024500Y-95943000D01*
G75*
G02*
X155924500Y-96043000I-100000J0D01*
G01*
G37*
G36*
G01*
X155424500Y-96043000D02*
X155224500Y-96043000D01*
G75*
G02*
X155124500Y-95943000I0J100000D01*
G01*
X155124500Y-94568000D01*
G75*
G02*
X155224500Y-94468000I100000J0D01*
G01*
X155424500Y-94468000D01*
G75*
G02*
X155524500Y-94568000I0J-100000D01*
G01*
X155524500Y-95943000D01*
G75*
G02*
X155424500Y-96043000I-100000J0D01*
G01*
G37*
G36*
G01*
X154924500Y-96043000D02*
X154724500Y-96043000D01*
G75*
G02*
X154624500Y-95943000I0J100000D01*
G01*
X154624500Y-94568000D01*
G75*
G02*
X154724500Y-94468000I100000J0D01*
G01*
X154924500Y-94468000D01*
G75*
G02*
X155024500Y-94568000I0J-100000D01*
G01*
X155024500Y-95943000D01*
G75*
G02*
X154924500Y-96043000I-100000J0D01*
G01*
G37*
G36*
G01*
X154424500Y-96043000D02*
X154224500Y-96043000D01*
G75*
G02*
X154124500Y-95943000I0J100000D01*
G01*
X154124500Y-94568000D01*
G75*
G02*
X154224500Y-94468000I100000J0D01*
G01*
X154424500Y-94468000D01*
G75*
G02*
X154524500Y-94568000I0J-100000D01*
G01*
X154524500Y-95943000D01*
G75*
G02*
X154424500Y-96043000I-100000J0D01*
G01*
G37*
G36*
G01*
X153924500Y-96043000D02*
X153724500Y-96043000D01*
G75*
G02*
X153624500Y-95943000I0J100000D01*
G01*
X153624500Y-94568000D01*
G75*
G02*
X153724500Y-94468000I100000J0D01*
G01*
X153924500Y-94468000D01*
G75*
G02*
X154024500Y-94568000I0J-100000D01*
G01*
X154024500Y-95943000D01*
G75*
G02*
X153924500Y-96043000I-100000J0D01*
G01*
G37*
G36*
G01*
X153424500Y-96043000D02*
X153224500Y-96043000D01*
G75*
G02*
X153124500Y-95943000I0J100000D01*
G01*
X153124500Y-94568000D01*
G75*
G02*
X153224500Y-94468000I100000J0D01*
G01*
X153424500Y-94468000D01*
G75*
G02*
X153524500Y-94568000I0J-100000D01*
G01*
X153524500Y-95943000D01*
G75*
G02*
X153424500Y-96043000I-100000J0D01*
G01*
G37*
G36*
G01*
X152924500Y-96043000D02*
X152724500Y-96043000D01*
G75*
G02*
X152624500Y-95943000I0J100000D01*
G01*
X152624500Y-94568000D01*
G75*
G02*
X152724500Y-94468000I100000J0D01*
G01*
X152924500Y-94468000D01*
G75*
G02*
X153024500Y-94568000I0J-100000D01*
G01*
X153024500Y-95943000D01*
G75*
G02*
X152924500Y-96043000I-100000J0D01*
G01*
G37*
G36*
G01*
X152424500Y-96043000D02*
X152224500Y-96043000D01*
G75*
G02*
X152124500Y-95943000I0J100000D01*
G01*
X152124500Y-94568000D01*
G75*
G02*
X152224500Y-94468000I100000J0D01*
G01*
X152424500Y-94468000D01*
G75*
G02*
X152524500Y-94568000I0J-100000D01*
G01*
X152524500Y-95943000D01*
G75*
G02*
X152424500Y-96043000I-100000J0D01*
G01*
G37*
G36*
G01*
X151924500Y-96043000D02*
X151724500Y-96043000D01*
G75*
G02*
X151624500Y-95943000I0J100000D01*
G01*
X151624500Y-94568000D01*
G75*
G02*
X151724500Y-94468000I100000J0D01*
G01*
X151924500Y-94468000D01*
G75*
G02*
X152024500Y-94568000I0J-100000D01*
G01*
X152024500Y-95943000D01*
G75*
G02*
X151924500Y-96043000I-100000J0D01*
G01*
G37*
G36*
G01*
X151424500Y-96043000D02*
X151224500Y-96043000D01*
G75*
G02*
X151124500Y-95943000I0J100000D01*
G01*
X151124500Y-94568000D01*
G75*
G02*
X151224500Y-94468000I100000J0D01*
G01*
X151424500Y-94468000D01*
G75*
G02*
X151524500Y-94568000I0J-100000D01*
G01*
X151524500Y-95943000D01*
G75*
G02*
X151424500Y-96043000I-100000J0D01*
G01*
G37*
G36*
G01*
X150924500Y-96043000D02*
X150724500Y-96043000D01*
G75*
G02*
X150624500Y-95943000I0J100000D01*
G01*
X150624500Y-94568000D01*
G75*
G02*
X150724500Y-94468000I100000J0D01*
G01*
X150924500Y-94468000D01*
G75*
G02*
X151024500Y-94568000I0J-100000D01*
G01*
X151024500Y-95943000D01*
G75*
G02*
X150924500Y-96043000I-100000J0D01*
G01*
G37*
G36*
G01*
X150424500Y-96043000D02*
X150224500Y-96043000D01*
G75*
G02*
X150124500Y-95943000I0J100000D01*
G01*
X150124500Y-94568000D01*
G75*
G02*
X150224500Y-94468000I100000J0D01*
G01*
X150424500Y-94468000D01*
G75*
G02*
X150524500Y-94568000I0J-100000D01*
G01*
X150524500Y-95943000D01*
G75*
G02*
X150424500Y-96043000I-100000J0D01*
G01*
G37*
G36*
G01*
X149924500Y-96043000D02*
X149724500Y-96043000D01*
G75*
G02*
X149624500Y-95943000I0J100000D01*
G01*
X149624500Y-94568000D01*
G75*
G02*
X149724500Y-94468000I100000J0D01*
G01*
X149924500Y-94468000D01*
G75*
G02*
X150024500Y-94568000I0J-100000D01*
G01*
X150024500Y-95943000D01*
G75*
G02*
X149924500Y-96043000I-100000J0D01*
G01*
G37*
G36*
G01*
X149424500Y-96043000D02*
X149224500Y-96043000D01*
G75*
G02*
X149124500Y-95943000I0J100000D01*
G01*
X149124500Y-94568000D01*
G75*
G02*
X149224500Y-94468000I100000J0D01*
G01*
X149424500Y-94468000D01*
G75*
G02*
X149524500Y-94568000I0J-100000D01*
G01*
X149524500Y-95943000D01*
G75*
G02*
X149424500Y-96043000I-100000J0D01*
G01*
G37*
G36*
G01*
X148924500Y-96043000D02*
X148724500Y-96043000D01*
G75*
G02*
X148624500Y-95943000I0J100000D01*
G01*
X148624500Y-94568000D01*
G75*
G02*
X148724500Y-94468000I100000J0D01*
G01*
X148924500Y-94468000D01*
G75*
G02*
X149024500Y-94568000I0J-100000D01*
G01*
X149024500Y-95943000D01*
G75*
G02*
X148924500Y-96043000I-100000J0D01*
G01*
G37*
G36*
G01*
X148424500Y-96043000D02*
X148224500Y-96043000D01*
G75*
G02*
X148124500Y-95943000I0J100000D01*
G01*
X148124500Y-94568000D01*
G75*
G02*
X148224500Y-94468000I100000J0D01*
G01*
X148424500Y-94468000D01*
G75*
G02*
X148524500Y-94568000I0J-100000D01*
G01*
X148524500Y-95943000D01*
G75*
G02*
X148424500Y-96043000I-100000J0D01*
G01*
G37*
G36*
G01*
X147924500Y-96043000D02*
X147724500Y-96043000D01*
G75*
G02*
X147624500Y-95943000I0J100000D01*
G01*
X147624500Y-94568000D01*
G75*
G02*
X147724500Y-94468000I100000J0D01*
G01*
X147924500Y-94468000D01*
G75*
G02*
X148024500Y-94568000I0J-100000D01*
G01*
X148024500Y-95943000D01*
G75*
G02*
X147924500Y-96043000I-100000J0D01*
G01*
G37*
G36*
G01*
X147424500Y-96043000D02*
X147224500Y-96043000D01*
G75*
G02*
X147124500Y-95943000I0J100000D01*
G01*
X147124500Y-94568000D01*
G75*
G02*
X147224500Y-94468000I100000J0D01*
G01*
X147424500Y-94468000D01*
G75*
G02*
X147524500Y-94568000I0J-100000D01*
G01*
X147524500Y-95943000D01*
G75*
G02*
X147424500Y-96043000I-100000J0D01*
G01*
G37*
G36*
G01*
X146924500Y-96043000D02*
X146724500Y-96043000D01*
G75*
G02*
X146624500Y-95943000I0J100000D01*
G01*
X146624500Y-94568000D01*
G75*
G02*
X146724500Y-94468000I100000J0D01*
G01*
X146924500Y-94468000D01*
G75*
G02*
X147024500Y-94568000I0J-100000D01*
G01*
X147024500Y-95943000D01*
G75*
G02*
X146924500Y-96043000I-100000J0D01*
G01*
G37*
G36*
G01*
X146424500Y-96043000D02*
X146224500Y-96043000D01*
G75*
G02*
X146124500Y-95943000I0J100000D01*
G01*
X146124500Y-94568000D01*
G75*
G02*
X146224500Y-94468000I100000J0D01*
G01*
X146424500Y-94468000D01*
G75*
G02*
X146524500Y-94568000I0J-100000D01*
G01*
X146524500Y-95943000D01*
G75*
G02*
X146424500Y-96043000I-100000J0D01*
G01*
G37*
G36*
G01*
X145924500Y-96043000D02*
X145724500Y-96043000D01*
G75*
G02*
X145624500Y-95943000I0J100000D01*
G01*
X145624500Y-94568000D01*
G75*
G02*
X145724500Y-94468000I100000J0D01*
G01*
X145924500Y-94468000D01*
G75*
G02*
X146024500Y-94568000I0J-100000D01*
G01*
X146024500Y-95943000D01*
G75*
G02*
X145924500Y-96043000I-100000J0D01*
G01*
G37*
G36*
G01*
X145424500Y-96043000D02*
X145224500Y-96043000D01*
G75*
G02*
X145124500Y-95943000I0J100000D01*
G01*
X145124500Y-94568000D01*
G75*
G02*
X145224500Y-94468000I100000J0D01*
G01*
X145424500Y-94468000D01*
G75*
G02*
X145524500Y-94568000I0J-100000D01*
G01*
X145524500Y-95943000D01*
G75*
G02*
X145424500Y-96043000I-100000J0D01*
G01*
G37*
G36*
G01*
X144924500Y-96043000D02*
X144724500Y-96043000D01*
G75*
G02*
X144624500Y-95943000I0J100000D01*
G01*
X144624500Y-94568000D01*
G75*
G02*
X144724500Y-94468000I100000J0D01*
G01*
X144924500Y-94468000D01*
G75*
G02*
X145024500Y-94568000I0J-100000D01*
G01*
X145024500Y-95943000D01*
G75*
G02*
X144924500Y-96043000I-100000J0D01*
G01*
G37*
G36*
G01*
X144424500Y-96043000D02*
X144224500Y-96043000D01*
G75*
G02*
X144124500Y-95943000I0J100000D01*
G01*
X144124500Y-94568000D01*
G75*
G02*
X144224500Y-94468000I100000J0D01*
G01*
X144424500Y-94468000D01*
G75*
G02*
X144524500Y-94568000I0J-100000D01*
G01*
X144524500Y-95943000D01*
G75*
G02*
X144424500Y-96043000I-100000J0D01*
G01*
G37*
G36*
G01*
X143924500Y-96043000D02*
X143724500Y-96043000D01*
G75*
G02*
X143624500Y-95943000I0J100000D01*
G01*
X143624500Y-94568000D01*
G75*
G02*
X143724500Y-94468000I100000J0D01*
G01*
X143924500Y-94468000D01*
G75*
G02*
X144024500Y-94568000I0J-100000D01*
G01*
X144024500Y-95943000D01*
G75*
G02*
X143924500Y-96043000I-100000J0D01*
G01*
G37*
G36*
G01*
X143424500Y-96043000D02*
X143224500Y-96043000D01*
G75*
G02*
X143124500Y-95943000I0J100000D01*
G01*
X143124500Y-94568000D01*
G75*
G02*
X143224500Y-94468000I100000J0D01*
G01*
X143424500Y-94468000D01*
G75*
G02*
X143524500Y-94568000I0J-100000D01*
G01*
X143524500Y-95943000D01*
G75*
G02*
X143424500Y-96043000I-100000J0D01*
G01*
G37*
G36*
G01*
X142924500Y-96043000D02*
X142724500Y-96043000D01*
G75*
G02*
X142624500Y-95943000I0J100000D01*
G01*
X142624500Y-94568000D01*
G75*
G02*
X142724500Y-94468000I100000J0D01*
G01*
X142924500Y-94468000D01*
G75*
G02*
X143024500Y-94568000I0J-100000D01*
G01*
X143024500Y-95943000D01*
G75*
G02*
X142924500Y-96043000I-100000J0D01*
G01*
G37*
G36*
G01*
X141599500Y-97368000D02*
X140224500Y-97368000D01*
G75*
G02*
X140124500Y-97268000I0J100000D01*
G01*
X140124500Y-97068000D01*
G75*
G02*
X140224500Y-96968000I100000J0D01*
G01*
X141599500Y-96968000D01*
G75*
G02*
X141699500Y-97068000I0J-100000D01*
G01*
X141699500Y-97268000D01*
G75*
G02*
X141599500Y-97368000I-100000J0D01*
G01*
G37*
G36*
G01*
X141599500Y-97868000D02*
X140224500Y-97868000D01*
G75*
G02*
X140124500Y-97768000I0J100000D01*
G01*
X140124500Y-97568000D01*
G75*
G02*
X140224500Y-97468000I100000J0D01*
G01*
X141599500Y-97468000D01*
G75*
G02*
X141699500Y-97568000I0J-100000D01*
G01*
X141699500Y-97768000D01*
G75*
G02*
X141599500Y-97868000I-100000J0D01*
G01*
G37*
G36*
G01*
X141599500Y-98368000D02*
X140224500Y-98368000D01*
G75*
G02*
X140124500Y-98268000I0J100000D01*
G01*
X140124500Y-98068000D01*
G75*
G02*
X140224500Y-97968000I100000J0D01*
G01*
X141599500Y-97968000D01*
G75*
G02*
X141699500Y-98068000I0J-100000D01*
G01*
X141699500Y-98268000D01*
G75*
G02*
X141599500Y-98368000I-100000J0D01*
G01*
G37*
G36*
G01*
X141599500Y-98868000D02*
X140224500Y-98868000D01*
G75*
G02*
X140124500Y-98768000I0J100000D01*
G01*
X140124500Y-98568000D01*
G75*
G02*
X140224500Y-98468000I100000J0D01*
G01*
X141599500Y-98468000D01*
G75*
G02*
X141699500Y-98568000I0J-100000D01*
G01*
X141699500Y-98768000D01*
G75*
G02*
X141599500Y-98868000I-100000J0D01*
G01*
G37*
G36*
G01*
X141599500Y-99368000D02*
X140224500Y-99368000D01*
G75*
G02*
X140124500Y-99268000I0J100000D01*
G01*
X140124500Y-99068000D01*
G75*
G02*
X140224500Y-98968000I100000J0D01*
G01*
X141599500Y-98968000D01*
G75*
G02*
X141699500Y-99068000I0J-100000D01*
G01*
X141699500Y-99268000D01*
G75*
G02*
X141599500Y-99368000I-100000J0D01*
G01*
G37*
G36*
G01*
X141599500Y-99868000D02*
X140224500Y-99868000D01*
G75*
G02*
X140124500Y-99768000I0J100000D01*
G01*
X140124500Y-99568000D01*
G75*
G02*
X140224500Y-99468000I100000J0D01*
G01*
X141599500Y-99468000D01*
G75*
G02*
X141699500Y-99568000I0J-100000D01*
G01*
X141699500Y-99768000D01*
G75*
G02*
X141599500Y-99868000I-100000J0D01*
G01*
G37*
G36*
G01*
X141599500Y-100368000D02*
X140224500Y-100368000D01*
G75*
G02*
X140124500Y-100268000I0J100000D01*
G01*
X140124500Y-100068000D01*
G75*
G02*
X140224500Y-99968000I100000J0D01*
G01*
X141599500Y-99968000D01*
G75*
G02*
X141699500Y-100068000I0J-100000D01*
G01*
X141699500Y-100268000D01*
G75*
G02*
X141599500Y-100368000I-100000J0D01*
G01*
G37*
G36*
G01*
X141599500Y-100868000D02*
X140224500Y-100868000D01*
G75*
G02*
X140124500Y-100768000I0J100000D01*
G01*
X140124500Y-100568000D01*
G75*
G02*
X140224500Y-100468000I100000J0D01*
G01*
X141599500Y-100468000D01*
G75*
G02*
X141699500Y-100568000I0J-100000D01*
G01*
X141699500Y-100768000D01*
G75*
G02*
X141599500Y-100868000I-100000J0D01*
G01*
G37*
G36*
G01*
X141599500Y-101368000D02*
X140224500Y-101368000D01*
G75*
G02*
X140124500Y-101268000I0J100000D01*
G01*
X140124500Y-101068000D01*
G75*
G02*
X140224500Y-100968000I100000J0D01*
G01*
X141599500Y-100968000D01*
G75*
G02*
X141699500Y-101068000I0J-100000D01*
G01*
X141699500Y-101268000D01*
G75*
G02*
X141599500Y-101368000I-100000J0D01*
G01*
G37*
G36*
G01*
X141599500Y-101868000D02*
X140224500Y-101868000D01*
G75*
G02*
X140124500Y-101768000I0J100000D01*
G01*
X140124500Y-101568000D01*
G75*
G02*
X140224500Y-101468000I100000J0D01*
G01*
X141599500Y-101468000D01*
G75*
G02*
X141699500Y-101568000I0J-100000D01*
G01*
X141699500Y-101768000D01*
G75*
G02*
X141599500Y-101868000I-100000J0D01*
G01*
G37*
G36*
G01*
X141599500Y-102368000D02*
X140224500Y-102368000D01*
G75*
G02*
X140124500Y-102268000I0J100000D01*
G01*
X140124500Y-102068000D01*
G75*
G02*
X140224500Y-101968000I100000J0D01*
G01*
X141599500Y-101968000D01*
G75*
G02*
X141699500Y-102068000I0J-100000D01*
G01*
X141699500Y-102268000D01*
G75*
G02*
X141599500Y-102368000I-100000J0D01*
G01*
G37*
G36*
G01*
X141599500Y-102868000D02*
X140224500Y-102868000D01*
G75*
G02*
X140124500Y-102768000I0J100000D01*
G01*
X140124500Y-102568000D01*
G75*
G02*
X140224500Y-102468000I100000J0D01*
G01*
X141599500Y-102468000D01*
G75*
G02*
X141699500Y-102568000I0J-100000D01*
G01*
X141699500Y-102768000D01*
G75*
G02*
X141599500Y-102868000I-100000J0D01*
G01*
G37*
G36*
G01*
X141599500Y-103368000D02*
X140224500Y-103368000D01*
G75*
G02*
X140124500Y-103268000I0J100000D01*
G01*
X140124500Y-103068000D01*
G75*
G02*
X140224500Y-102968000I100000J0D01*
G01*
X141599500Y-102968000D01*
G75*
G02*
X141699500Y-103068000I0J-100000D01*
G01*
X141699500Y-103268000D01*
G75*
G02*
X141599500Y-103368000I-100000J0D01*
G01*
G37*
G36*
G01*
X141599500Y-103868000D02*
X140224500Y-103868000D01*
G75*
G02*
X140124500Y-103768000I0J100000D01*
G01*
X140124500Y-103568000D01*
G75*
G02*
X140224500Y-103468000I100000J0D01*
G01*
X141599500Y-103468000D01*
G75*
G02*
X141699500Y-103568000I0J-100000D01*
G01*
X141699500Y-103768000D01*
G75*
G02*
X141599500Y-103868000I-100000J0D01*
G01*
G37*
G36*
G01*
X141599500Y-104368000D02*
X140224500Y-104368000D01*
G75*
G02*
X140124500Y-104268000I0J100000D01*
G01*
X140124500Y-104068000D01*
G75*
G02*
X140224500Y-103968000I100000J0D01*
G01*
X141599500Y-103968000D01*
G75*
G02*
X141699500Y-104068000I0J-100000D01*
G01*
X141699500Y-104268000D01*
G75*
G02*
X141599500Y-104368000I-100000J0D01*
G01*
G37*
G36*
G01*
X141599500Y-104868000D02*
X140224500Y-104868000D01*
G75*
G02*
X140124500Y-104768000I0J100000D01*
G01*
X140124500Y-104568000D01*
G75*
G02*
X140224500Y-104468000I100000J0D01*
G01*
X141599500Y-104468000D01*
G75*
G02*
X141699500Y-104568000I0J-100000D01*
G01*
X141699500Y-104768000D01*
G75*
G02*
X141599500Y-104868000I-100000J0D01*
G01*
G37*
G36*
G01*
X141599500Y-105368000D02*
X140224500Y-105368000D01*
G75*
G02*
X140124500Y-105268000I0J100000D01*
G01*
X140124500Y-105068000D01*
G75*
G02*
X140224500Y-104968000I100000J0D01*
G01*
X141599500Y-104968000D01*
G75*
G02*
X141699500Y-105068000I0J-100000D01*
G01*
X141699500Y-105268000D01*
G75*
G02*
X141599500Y-105368000I-100000J0D01*
G01*
G37*
G36*
G01*
X141599500Y-105868000D02*
X140224500Y-105868000D01*
G75*
G02*
X140124500Y-105768000I0J100000D01*
G01*
X140124500Y-105568000D01*
G75*
G02*
X140224500Y-105468000I100000J0D01*
G01*
X141599500Y-105468000D01*
G75*
G02*
X141699500Y-105568000I0J-100000D01*
G01*
X141699500Y-105768000D01*
G75*
G02*
X141599500Y-105868000I-100000J0D01*
G01*
G37*
G36*
G01*
X141599500Y-106368000D02*
X140224500Y-106368000D01*
G75*
G02*
X140124500Y-106268000I0J100000D01*
G01*
X140124500Y-106068000D01*
G75*
G02*
X140224500Y-105968000I100000J0D01*
G01*
X141599500Y-105968000D01*
G75*
G02*
X141699500Y-106068000I0J-100000D01*
G01*
X141699500Y-106268000D01*
G75*
G02*
X141599500Y-106368000I-100000J0D01*
G01*
G37*
G36*
G01*
X141599500Y-106868000D02*
X140224500Y-106868000D01*
G75*
G02*
X140124500Y-106768000I0J100000D01*
G01*
X140124500Y-106568000D01*
G75*
G02*
X140224500Y-106468000I100000J0D01*
G01*
X141599500Y-106468000D01*
G75*
G02*
X141699500Y-106568000I0J-100000D01*
G01*
X141699500Y-106768000D01*
G75*
G02*
X141599500Y-106868000I-100000J0D01*
G01*
G37*
G36*
G01*
X141599500Y-107368000D02*
X140224500Y-107368000D01*
G75*
G02*
X140124500Y-107268000I0J100000D01*
G01*
X140124500Y-107068000D01*
G75*
G02*
X140224500Y-106968000I100000J0D01*
G01*
X141599500Y-106968000D01*
G75*
G02*
X141699500Y-107068000I0J-100000D01*
G01*
X141699500Y-107268000D01*
G75*
G02*
X141599500Y-107368000I-100000J0D01*
G01*
G37*
G36*
G01*
X141599500Y-107868000D02*
X140224500Y-107868000D01*
G75*
G02*
X140124500Y-107768000I0J100000D01*
G01*
X140124500Y-107568000D01*
G75*
G02*
X140224500Y-107468000I100000J0D01*
G01*
X141599500Y-107468000D01*
G75*
G02*
X141699500Y-107568000I0J-100000D01*
G01*
X141699500Y-107768000D01*
G75*
G02*
X141599500Y-107868000I-100000J0D01*
G01*
G37*
G36*
G01*
X141599500Y-108368000D02*
X140224500Y-108368000D01*
G75*
G02*
X140124500Y-108268000I0J100000D01*
G01*
X140124500Y-108068000D01*
G75*
G02*
X140224500Y-107968000I100000J0D01*
G01*
X141599500Y-107968000D01*
G75*
G02*
X141699500Y-108068000I0J-100000D01*
G01*
X141699500Y-108268000D01*
G75*
G02*
X141599500Y-108368000I-100000J0D01*
G01*
G37*
G36*
G01*
X141599500Y-108868000D02*
X140224500Y-108868000D01*
G75*
G02*
X140124500Y-108768000I0J100000D01*
G01*
X140124500Y-108568000D01*
G75*
G02*
X140224500Y-108468000I100000J0D01*
G01*
X141599500Y-108468000D01*
G75*
G02*
X141699500Y-108568000I0J-100000D01*
G01*
X141699500Y-108768000D01*
G75*
G02*
X141599500Y-108868000I-100000J0D01*
G01*
G37*
G36*
G01*
X141599500Y-109368000D02*
X140224500Y-109368000D01*
G75*
G02*
X140124500Y-109268000I0J100000D01*
G01*
X140124500Y-109068000D01*
G75*
G02*
X140224500Y-108968000I100000J0D01*
G01*
X141599500Y-108968000D01*
G75*
G02*
X141699500Y-109068000I0J-100000D01*
G01*
X141699500Y-109268000D01*
G75*
G02*
X141599500Y-109368000I-100000J0D01*
G01*
G37*
G36*
G01*
X141599500Y-109868000D02*
X140224500Y-109868000D01*
G75*
G02*
X140124500Y-109768000I0J100000D01*
G01*
X140124500Y-109568000D01*
G75*
G02*
X140224500Y-109468000I100000J0D01*
G01*
X141599500Y-109468000D01*
G75*
G02*
X141699500Y-109568000I0J-100000D01*
G01*
X141699500Y-109768000D01*
G75*
G02*
X141599500Y-109868000I-100000J0D01*
G01*
G37*
G36*
G01*
X141599500Y-110368000D02*
X140224500Y-110368000D01*
G75*
G02*
X140124500Y-110268000I0J100000D01*
G01*
X140124500Y-110068000D01*
G75*
G02*
X140224500Y-109968000I100000J0D01*
G01*
X141599500Y-109968000D01*
G75*
G02*
X141699500Y-110068000I0J-100000D01*
G01*
X141699500Y-110268000D01*
G75*
G02*
X141599500Y-110368000I-100000J0D01*
G01*
G37*
G36*
G01*
X141599500Y-110868000D02*
X140224500Y-110868000D01*
G75*
G02*
X140124500Y-110768000I0J100000D01*
G01*
X140124500Y-110568000D01*
G75*
G02*
X140224500Y-110468000I100000J0D01*
G01*
X141599500Y-110468000D01*
G75*
G02*
X141699500Y-110568000I0J-100000D01*
G01*
X141699500Y-110768000D01*
G75*
G02*
X141599500Y-110868000I-100000J0D01*
G01*
G37*
G36*
G01*
X141599500Y-111368000D02*
X140224500Y-111368000D01*
G75*
G02*
X140124500Y-111268000I0J100000D01*
G01*
X140124500Y-111068000D01*
G75*
G02*
X140224500Y-110968000I100000J0D01*
G01*
X141599500Y-110968000D01*
G75*
G02*
X141699500Y-111068000I0J-100000D01*
G01*
X141699500Y-111268000D01*
G75*
G02*
X141599500Y-111368000I-100000J0D01*
G01*
G37*
G36*
G01*
X141599500Y-111868000D02*
X140224500Y-111868000D01*
G75*
G02*
X140124500Y-111768000I0J100000D01*
G01*
X140124500Y-111568000D01*
G75*
G02*
X140224500Y-111468000I100000J0D01*
G01*
X141599500Y-111468000D01*
G75*
G02*
X141699500Y-111568000I0J-100000D01*
G01*
X141699500Y-111768000D01*
G75*
G02*
X141599500Y-111868000I-100000J0D01*
G01*
G37*
G36*
G01*
X141599500Y-112368000D02*
X140224500Y-112368000D01*
G75*
G02*
X140124500Y-112268000I0J100000D01*
G01*
X140124500Y-112068000D01*
G75*
G02*
X140224500Y-111968000I100000J0D01*
G01*
X141599500Y-111968000D01*
G75*
G02*
X141699500Y-112068000I0J-100000D01*
G01*
X141699500Y-112268000D01*
G75*
G02*
X141599500Y-112368000I-100000J0D01*
G01*
G37*
G36*
G01*
X141599500Y-112868000D02*
X140224500Y-112868000D01*
G75*
G02*
X140124500Y-112768000I0J100000D01*
G01*
X140124500Y-112568000D01*
G75*
G02*
X140224500Y-112468000I100000J0D01*
G01*
X141599500Y-112468000D01*
G75*
G02*
X141699500Y-112568000I0J-100000D01*
G01*
X141699500Y-112768000D01*
G75*
G02*
X141599500Y-112868000I-100000J0D01*
G01*
G37*
G36*
G01*
X141599500Y-113368000D02*
X140224500Y-113368000D01*
G75*
G02*
X140124500Y-113268000I0J100000D01*
G01*
X140124500Y-113068000D01*
G75*
G02*
X140224500Y-112968000I100000J0D01*
G01*
X141599500Y-112968000D01*
G75*
G02*
X141699500Y-113068000I0J-100000D01*
G01*
X141699500Y-113268000D01*
G75*
G02*
X141599500Y-113368000I-100000J0D01*
G01*
G37*
G36*
G01*
X141599500Y-113868000D02*
X140224500Y-113868000D01*
G75*
G02*
X140124500Y-113768000I0J100000D01*
G01*
X140124500Y-113568000D01*
G75*
G02*
X140224500Y-113468000I100000J0D01*
G01*
X141599500Y-113468000D01*
G75*
G02*
X141699500Y-113568000I0J-100000D01*
G01*
X141699500Y-113768000D01*
G75*
G02*
X141599500Y-113868000I-100000J0D01*
G01*
G37*
G36*
G01*
X141599500Y-114368000D02*
X140224500Y-114368000D01*
G75*
G02*
X140124500Y-114268000I0J100000D01*
G01*
X140124500Y-114068000D01*
G75*
G02*
X140224500Y-113968000I100000J0D01*
G01*
X141599500Y-113968000D01*
G75*
G02*
X141699500Y-114068000I0J-100000D01*
G01*
X141699500Y-114268000D01*
G75*
G02*
X141599500Y-114368000I-100000J0D01*
G01*
G37*
G36*
G01*
X141599500Y-114868000D02*
X140224500Y-114868000D01*
G75*
G02*
X140124500Y-114768000I0J100000D01*
G01*
X140124500Y-114568000D01*
G75*
G02*
X140224500Y-114468000I100000J0D01*
G01*
X141599500Y-114468000D01*
G75*
G02*
X141699500Y-114568000I0J-100000D01*
G01*
X141699500Y-114768000D01*
G75*
G02*
X141599500Y-114868000I-100000J0D01*
G01*
G37*
G36*
G01*
X142924500Y-117368000D02*
X142724500Y-117368000D01*
G75*
G02*
X142624500Y-117268000I0J100000D01*
G01*
X142624500Y-115893000D01*
G75*
G02*
X142724500Y-115793000I100000J0D01*
G01*
X142924500Y-115793000D01*
G75*
G02*
X143024500Y-115893000I0J-100000D01*
G01*
X143024500Y-117268000D01*
G75*
G02*
X142924500Y-117368000I-100000J0D01*
G01*
G37*
G36*
G01*
X143424500Y-117368000D02*
X143224500Y-117368000D01*
G75*
G02*
X143124500Y-117268000I0J100000D01*
G01*
X143124500Y-115893000D01*
G75*
G02*
X143224500Y-115793000I100000J0D01*
G01*
X143424500Y-115793000D01*
G75*
G02*
X143524500Y-115893000I0J-100000D01*
G01*
X143524500Y-117268000D01*
G75*
G02*
X143424500Y-117368000I-100000J0D01*
G01*
G37*
G36*
G01*
X143924500Y-117368000D02*
X143724500Y-117368000D01*
G75*
G02*
X143624500Y-117268000I0J100000D01*
G01*
X143624500Y-115893000D01*
G75*
G02*
X143724500Y-115793000I100000J0D01*
G01*
X143924500Y-115793000D01*
G75*
G02*
X144024500Y-115893000I0J-100000D01*
G01*
X144024500Y-117268000D01*
G75*
G02*
X143924500Y-117368000I-100000J0D01*
G01*
G37*
G36*
G01*
X144424500Y-117368000D02*
X144224500Y-117368000D01*
G75*
G02*
X144124500Y-117268000I0J100000D01*
G01*
X144124500Y-115893000D01*
G75*
G02*
X144224500Y-115793000I100000J0D01*
G01*
X144424500Y-115793000D01*
G75*
G02*
X144524500Y-115893000I0J-100000D01*
G01*
X144524500Y-117268000D01*
G75*
G02*
X144424500Y-117368000I-100000J0D01*
G01*
G37*
G36*
G01*
X144924500Y-117368000D02*
X144724500Y-117368000D01*
G75*
G02*
X144624500Y-117268000I0J100000D01*
G01*
X144624500Y-115893000D01*
G75*
G02*
X144724500Y-115793000I100000J0D01*
G01*
X144924500Y-115793000D01*
G75*
G02*
X145024500Y-115893000I0J-100000D01*
G01*
X145024500Y-117268000D01*
G75*
G02*
X144924500Y-117368000I-100000J0D01*
G01*
G37*
G36*
G01*
X145424500Y-117368000D02*
X145224500Y-117368000D01*
G75*
G02*
X145124500Y-117268000I0J100000D01*
G01*
X145124500Y-115893000D01*
G75*
G02*
X145224500Y-115793000I100000J0D01*
G01*
X145424500Y-115793000D01*
G75*
G02*
X145524500Y-115893000I0J-100000D01*
G01*
X145524500Y-117268000D01*
G75*
G02*
X145424500Y-117368000I-100000J0D01*
G01*
G37*
G36*
G01*
X145924500Y-117368000D02*
X145724500Y-117368000D01*
G75*
G02*
X145624500Y-117268000I0J100000D01*
G01*
X145624500Y-115893000D01*
G75*
G02*
X145724500Y-115793000I100000J0D01*
G01*
X145924500Y-115793000D01*
G75*
G02*
X146024500Y-115893000I0J-100000D01*
G01*
X146024500Y-117268000D01*
G75*
G02*
X145924500Y-117368000I-100000J0D01*
G01*
G37*
G36*
G01*
X146424500Y-117368000D02*
X146224500Y-117368000D01*
G75*
G02*
X146124500Y-117268000I0J100000D01*
G01*
X146124500Y-115893000D01*
G75*
G02*
X146224500Y-115793000I100000J0D01*
G01*
X146424500Y-115793000D01*
G75*
G02*
X146524500Y-115893000I0J-100000D01*
G01*
X146524500Y-117268000D01*
G75*
G02*
X146424500Y-117368000I-100000J0D01*
G01*
G37*
G36*
G01*
X146924500Y-117368000D02*
X146724500Y-117368000D01*
G75*
G02*
X146624500Y-117268000I0J100000D01*
G01*
X146624500Y-115893000D01*
G75*
G02*
X146724500Y-115793000I100000J0D01*
G01*
X146924500Y-115793000D01*
G75*
G02*
X147024500Y-115893000I0J-100000D01*
G01*
X147024500Y-117268000D01*
G75*
G02*
X146924500Y-117368000I-100000J0D01*
G01*
G37*
G36*
G01*
X147424500Y-117368000D02*
X147224500Y-117368000D01*
G75*
G02*
X147124500Y-117268000I0J100000D01*
G01*
X147124500Y-115893000D01*
G75*
G02*
X147224500Y-115793000I100000J0D01*
G01*
X147424500Y-115793000D01*
G75*
G02*
X147524500Y-115893000I0J-100000D01*
G01*
X147524500Y-117268000D01*
G75*
G02*
X147424500Y-117368000I-100000J0D01*
G01*
G37*
G36*
G01*
X147924500Y-117368000D02*
X147724500Y-117368000D01*
G75*
G02*
X147624500Y-117268000I0J100000D01*
G01*
X147624500Y-115893000D01*
G75*
G02*
X147724500Y-115793000I100000J0D01*
G01*
X147924500Y-115793000D01*
G75*
G02*
X148024500Y-115893000I0J-100000D01*
G01*
X148024500Y-117268000D01*
G75*
G02*
X147924500Y-117368000I-100000J0D01*
G01*
G37*
G36*
G01*
X148424500Y-117368000D02*
X148224500Y-117368000D01*
G75*
G02*
X148124500Y-117268000I0J100000D01*
G01*
X148124500Y-115893000D01*
G75*
G02*
X148224500Y-115793000I100000J0D01*
G01*
X148424500Y-115793000D01*
G75*
G02*
X148524500Y-115893000I0J-100000D01*
G01*
X148524500Y-117268000D01*
G75*
G02*
X148424500Y-117368000I-100000J0D01*
G01*
G37*
G36*
G01*
X148924500Y-117368000D02*
X148724500Y-117368000D01*
G75*
G02*
X148624500Y-117268000I0J100000D01*
G01*
X148624500Y-115893000D01*
G75*
G02*
X148724500Y-115793000I100000J0D01*
G01*
X148924500Y-115793000D01*
G75*
G02*
X149024500Y-115893000I0J-100000D01*
G01*
X149024500Y-117268000D01*
G75*
G02*
X148924500Y-117368000I-100000J0D01*
G01*
G37*
G36*
G01*
X149424500Y-117368000D02*
X149224500Y-117368000D01*
G75*
G02*
X149124500Y-117268000I0J100000D01*
G01*
X149124500Y-115893000D01*
G75*
G02*
X149224500Y-115793000I100000J0D01*
G01*
X149424500Y-115793000D01*
G75*
G02*
X149524500Y-115893000I0J-100000D01*
G01*
X149524500Y-117268000D01*
G75*
G02*
X149424500Y-117368000I-100000J0D01*
G01*
G37*
G36*
G01*
X149924500Y-117368000D02*
X149724500Y-117368000D01*
G75*
G02*
X149624500Y-117268000I0J100000D01*
G01*
X149624500Y-115893000D01*
G75*
G02*
X149724500Y-115793000I100000J0D01*
G01*
X149924500Y-115793000D01*
G75*
G02*
X150024500Y-115893000I0J-100000D01*
G01*
X150024500Y-117268000D01*
G75*
G02*
X149924500Y-117368000I-100000J0D01*
G01*
G37*
G36*
G01*
X150424500Y-117368000D02*
X150224500Y-117368000D01*
G75*
G02*
X150124500Y-117268000I0J100000D01*
G01*
X150124500Y-115893000D01*
G75*
G02*
X150224500Y-115793000I100000J0D01*
G01*
X150424500Y-115793000D01*
G75*
G02*
X150524500Y-115893000I0J-100000D01*
G01*
X150524500Y-117268000D01*
G75*
G02*
X150424500Y-117368000I-100000J0D01*
G01*
G37*
G36*
G01*
X150924500Y-117368000D02*
X150724500Y-117368000D01*
G75*
G02*
X150624500Y-117268000I0J100000D01*
G01*
X150624500Y-115893000D01*
G75*
G02*
X150724500Y-115793000I100000J0D01*
G01*
X150924500Y-115793000D01*
G75*
G02*
X151024500Y-115893000I0J-100000D01*
G01*
X151024500Y-117268000D01*
G75*
G02*
X150924500Y-117368000I-100000J0D01*
G01*
G37*
G36*
G01*
X151424500Y-117368000D02*
X151224500Y-117368000D01*
G75*
G02*
X151124500Y-117268000I0J100000D01*
G01*
X151124500Y-115893000D01*
G75*
G02*
X151224500Y-115793000I100000J0D01*
G01*
X151424500Y-115793000D01*
G75*
G02*
X151524500Y-115893000I0J-100000D01*
G01*
X151524500Y-117268000D01*
G75*
G02*
X151424500Y-117368000I-100000J0D01*
G01*
G37*
G36*
G01*
X151924500Y-117368000D02*
X151724500Y-117368000D01*
G75*
G02*
X151624500Y-117268000I0J100000D01*
G01*
X151624500Y-115893000D01*
G75*
G02*
X151724500Y-115793000I100000J0D01*
G01*
X151924500Y-115793000D01*
G75*
G02*
X152024500Y-115893000I0J-100000D01*
G01*
X152024500Y-117268000D01*
G75*
G02*
X151924500Y-117368000I-100000J0D01*
G01*
G37*
G36*
G01*
X152424500Y-117368000D02*
X152224500Y-117368000D01*
G75*
G02*
X152124500Y-117268000I0J100000D01*
G01*
X152124500Y-115893000D01*
G75*
G02*
X152224500Y-115793000I100000J0D01*
G01*
X152424500Y-115793000D01*
G75*
G02*
X152524500Y-115893000I0J-100000D01*
G01*
X152524500Y-117268000D01*
G75*
G02*
X152424500Y-117368000I-100000J0D01*
G01*
G37*
G36*
G01*
X152924500Y-117368000D02*
X152724500Y-117368000D01*
G75*
G02*
X152624500Y-117268000I0J100000D01*
G01*
X152624500Y-115893000D01*
G75*
G02*
X152724500Y-115793000I100000J0D01*
G01*
X152924500Y-115793000D01*
G75*
G02*
X153024500Y-115893000I0J-100000D01*
G01*
X153024500Y-117268000D01*
G75*
G02*
X152924500Y-117368000I-100000J0D01*
G01*
G37*
G36*
G01*
X153424500Y-117368000D02*
X153224500Y-117368000D01*
G75*
G02*
X153124500Y-117268000I0J100000D01*
G01*
X153124500Y-115893000D01*
G75*
G02*
X153224500Y-115793000I100000J0D01*
G01*
X153424500Y-115793000D01*
G75*
G02*
X153524500Y-115893000I0J-100000D01*
G01*
X153524500Y-117268000D01*
G75*
G02*
X153424500Y-117368000I-100000J0D01*
G01*
G37*
G36*
G01*
X153924500Y-117368000D02*
X153724500Y-117368000D01*
G75*
G02*
X153624500Y-117268000I0J100000D01*
G01*
X153624500Y-115893000D01*
G75*
G02*
X153724500Y-115793000I100000J0D01*
G01*
X153924500Y-115793000D01*
G75*
G02*
X154024500Y-115893000I0J-100000D01*
G01*
X154024500Y-117268000D01*
G75*
G02*
X153924500Y-117368000I-100000J0D01*
G01*
G37*
G36*
G01*
X154424500Y-117368000D02*
X154224500Y-117368000D01*
G75*
G02*
X154124500Y-117268000I0J100000D01*
G01*
X154124500Y-115893000D01*
G75*
G02*
X154224500Y-115793000I100000J0D01*
G01*
X154424500Y-115793000D01*
G75*
G02*
X154524500Y-115893000I0J-100000D01*
G01*
X154524500Y-117268000D01*
G75*
G02*
X154424500Y-117368000I-100000J0D01*
G01*
G37*
G36*
G01*
X154924500Y-117368000D02*
X154724500Y-117368000D01*
G75*
G02*
X154624500Y-117268000I0J100000D01*
G01*
X154624500Y-115893000D01*
G75*
G02*
X154724500Y-115793000I100000J0D01*
G01*
X154924500Y-115793000D01*
G75*
G02*
X155024500Y-115893000I0J-100000D01*
G01*
X155024500Y-117268000D01*
G75*
G02*
X154924500Y-117368000I-100000J0D01*
G01*
G37*
G36*
G01*
X155424500Y-117368000D02*
X155224500Y-117368000D01*
G75*
G02*
X155124500Y-117268000I0J100000D01*
G01*
X155124500Y-115893000D01*
G75*
G02*
X155224500Y-115793000I100000J0D01*
G01*
X155424500Y-115793000D01*
G75*
G02*
X155524500Y-115893000I0J-100000D01*
G01*
X155524500Y-117268000D01*
G75*
G02*
X155424500Y-117368000I-100000J0D01*
G01*
G37*
G36*
G01*
X155924500Y-117368000D02*
X155724500Y-117368000D01*
G75*
G02*
X155624500Y-117268000I0J100000D01*
G01*
X155624500Y-115893000D01*
G75*
G02*
X155724500Y-115793000I100000J0D01*
G01*
X155924500Y-115793000D01*
G75*
G02*
X156024500Y-115893000I0J-100000D01*
G01*
X156024500Y-117268000D01*
G75*
G02*
X155924500Y-117368000I-100000J0D01*
G01*
G37*
G36*
G01*
X156424500Y-117368000D02*
X156224500Y-117368000D01*
G75*
G02*
X156124500Y-117268000I0J100000D01*
G01*
X156124500Y-115893000D01*
G75*
G02*
X156224500Y-115793000I100000J0D01*
G01*
X156424500Y-115793000D01*
G75*
G02*
X156524500Y-115893000I0J-100000D01*
G01*
X156524500Y-117268000D01*
G75*
G02*
X156424500Y-117368000I-100000J0D01*
G01*
G37*
G36*
G01*
X156924500Y-117368000D02*
X156724500Y-117368000D01*
G75*
G02*
X156624500Y-117268000I0J100000D01*
G01*
X156624500Y-115893000D01*
G75*
G02*
X156724500Y-115793000I100000J0D01*
G01*
X156924500Y-115793000D01*
G75*
G02*
X157024500Y-115893000I0J-100000D01*
G01*
X157024500Y-117268000D01*
G75*
G02*
X156924500Y-117368000I-100000J0D01*
G01*
G37*
G36*
G01*
X157424500Y-117368000D02*
X157224500Y-117368000D01*
G75*
G02*
X157124500Y-117268000I0J100000D01*
G01*
X157124500Y-115893000D01*
G75*
G02*
X157224500Y-115793000I100000J0D01*
G01*
X157424500Y-115793000D01*
G75*
G02*
X157524500Y-115893000I0J-100000D01*
G01*
X157524500Y-117268000D01*
G75*
G02*
X157424500Y-117368000I-100000J0D01*
G01*
G37*
G36*
G01*
X157924500Y-117368000D02*
X157724500Y-117368000D01*
G75*
G02*
X157624500Y-117268000I0J100000D01*
G01*
X157624500Y-115893000D01*
G75*
G02*
X157724500Y-115793000I100000J0D01*
G01*
X157924500Y-115793000D01*
G75*
G02*
X158024500Y-115893000I0J-100000D01*
G01*
X158024500Y-117268000D01*
G75*
G02*
X157924500Y-117368000I-100000J0D01*
G01*
G37*
G36*
G01*
X158424500Y-117368000D02*
X158224500Y-117368000D01*
G75*
G02*
X158124500Y-117268000I0J100000D01*
G01*
X158124500Y-115893000D01*
G75*
G02*
X158224500Y-115793000I100000J0D01*
G01*
X158424500Y-115793000D01*
G75*
G02*
X158524500Y-115893000I0J-100000D01*
G01*
X158524500Y-117268000D01*
G75*
G02*
X158424500Y-117368000I-100000J0D01*
G01*
G37*
G36*
G01*
X158924500Y-117368000D02*
X158724500Y-117368000D01*
G75*
G02*
X158624500Y-117268000I0J100000D01*
G01*
X158624500Y-115893000D01*
G75*
G02*
X158724500Y-115793000I100000J0D01*
G01*
X158924500Y-115793000D01*
G75*
G02*
X159024500Y-115893000I0J-100000D01*
G01*
X159024500Y-117268000D01*
G75*
G02*
X158924500Y-117368000I-100000J0D01*
G01*
G37*
G36*
G01*
X159424500Y-117368000D02*
X159224500Y-117368000D01*
G75*
G02*
X159124500Y-117268000I0J100000D01*
G01*
X159124500Y-115893000D01*
G75*
G02*
X159224500Y-115793000I100000J0D01*
G01*
X159424500Y-115793000D01*
G75*
G02*
X159524500Y-115893000I0J-100000D01*
G01*
X159524500Y-117268000D01*
G75*
G02*
X159424500Y-117368000I-100000J0D01*
G01*
G37*
G36*
G01*
X159924500Y-117368000D02*
X159724500Y-117368000D01*
G75*
G02*
X159624500Y-117268000I0J100000D01*
G01*
X159624500Y-115893000D01*
G75*
G02*
X159724500Y-115793000I100000J0D01*
G01*
X159924500Y-115793000D01*
G75*
G02*
X160024500Y-115893000I0J-100000D01*
G01*
X160024500Y-117268000D01*
G75*
G02*
X159924500Y-117368000I-100000J0D01*
G01*
G37*
G36*
G01*
X160424500Y-117368000D02*
X160224500Y-117368000D01*
G75*
G02*
X160124500Y-117268000I0J100000D01*
G01*
X160124500Y-115893000D01*
G75*
G02*
X160224500Y-115793000I100000J0D01*
G01*
X160424500Y-115793000D01*
G75*
G02*
X160524500Y-115893000I0J-100000D01*
G01*
X160524500Y-117268000D01*
G75*
G02*
X160424500Y-117368000I-100000J0D01*
G01*
G37*
%TD*%
D15*
%TO.C,L10*%
X135572500Y-99708500D03*
X135572500Y-94855500D03*
%TD*%
D16*
%TO.C,H11*%
X186464001Y-98252997D03*
%TD*%
D17*
%TO.C,FL2*%
X126174000Y-74958000D03*
X130874000Y-74958000D03*
X130874000Y-78458000D03*
X126174000Y-78458000D03*
%TD*%
%TO.C,L1*%
G36*
G01*
X186855000Y-65489000D02*
X189065000Y-65489000D01*
G75*
G02*
X189335000Y-65759000I0J-270000D01*
G01*
X189335000Y-66569000D01*
G75*
G02*
X189065000Y-66839000I-270000J0D01*
G01*
X186855000Y-66839000D01*
G75*
G02*
X186585000Y-66569000I0J270000D01*
G01*
X186585000Y-65759000D01*
G75*
G02*
X186855000Y-65489000I270000J0D01*
G01*
G37*
G36*
G01*
X186855000Y-68289000D02*
X189065000Y-68289000D01*
G75*
G02*
X189335000Y-68559000I0J-270000D01*
G01*
X189335000Y-69369000D01*
G75*
G02*
X189065000Y-69639000I-270000J0D01*
G01*
X186855000Y-69639000D01*
G75*
G02*
X186585000Y-69369000I0J270000D01*
G01*
X186585000Y-68559000D01*
G75*
G02*
X186855000Y-68289000I270000J0D01*
G01*
G37*
%TD*%
D18*
%TO.C,L4*%
X167907500Y-77089000D03*
X163054500Y-77089000D03*
%TD*%
D15*
%TO.C,L3*%
X175514000Y-73011500D03*
X175514000Y-77864500D03*
%TD*%
D19*
%TO.C,U1*%
X184404000Y-77343000D03*
G36*
G01*
X186329000Y-74530500D02*
X186329000Y-75280500D01*
G75*
G02*
X186241500Y-75368000I-87500J0D01*
G01*
X186066500Y-75368000D01*
G75*
G02*
X185979000Y-75280500I0J87500D01*
G01*
X185979000Y-74530500D01*
G75*
G02*
X186066500Y-74443000I87500J0D01*
G01*
X186241500Y-74443000D01*
G75*
G02*
X186329000Y-74530500I0J-87500D01*
G01*
G37*
G36*
G01*
X185829000Y-74530500D02*
X185829000Y-75280500D01*
G75*
G02*
X185741500Y-75368000I-87500J0D01*
G01*
X185566500Y-75368000D01*
G75*
G02*
X185479000Y-75280500I0J87500D01*
G01*
X185479000Y-74530500D01*
G75*
G02*
X185566500Y-74443000I87500J0D01*
G01*
X185741500Y-74443000D01*
G75*
G02*
X185829000Y-74530500I0J-87500D01*
G01*
G37*
G36*
G01*
X185329000Y-74530500D02*
X185329000Y-75280500D01*
G75*
G02*
X185241500Y-75368000I-87500J0D01*
G01*
X185066500Y-75368000D01*
G75*
G02*
X184979000Y-75280500I0J87500D01*
G01*
X184979000Y-74530500D01*
G75*
G02*
X185066500Y-74443000I87500J0D01*
G01*
X185241500Y-74443000D01*
G75*
G02*
X185329000Y-74530500I0J-87500D01*
G01*
G37*
G36*
G01*
X184829000Y-74530500D02*
X184829000Y-75280500D01*
G75*
G02*
X184741500Y-75368000I-87500J0D01*
G01*
X184566500Y-75368000D01*
G75*
G02*
X184479000Y-75280500I0J87500D01*
G01*
X184479000Y-74530500D01*
G75*
G02*
X184566500Y-74443000I87500J0D01*
G01*
X184741500Y-74443000D01*
G75*
G02*
X184829000Y-74530500I0J-87500D01*
G01*
G37*
G36*
G01*
X184329000Y-74530500D02*
X184329000Y-75280500D01*
G75*
G02*
X184241500Y-75368000I-87500J0D01*
G01*
X184066500Y-75368000D01*
G75*
G02*
X183979000Y-75280500I0J87500D01*
G01*
X183979000Y-74530500D01*
G75*
G02*
X184066500Y-74443000I87500J0D01*
G01*
X184241500Y-74443000D01*
G75*
G02*
X184329000Y-74530500I0J-87500D01*
G01*
G37*
G36*
G01*
X183829000Y-74530500D02*
X183829000Y-75280500D01*
G75*
G02*
X183741500Y-75368000I-87500J0D01*
G01*
X183566500Y-75368000D01*
G75*
G02*
X183479000Y-75280500I0J87500D01*
G01*
X183479000Y-74530500D01*
G75*
G02*
X183566500Y-74443000I87500J0D01*
G01*
X183741500Y-74443000D01*
G75*
G02*
X183829000Y-74530500I0J-87500D01*
G01*
G37*
G36*
G01*
X183329000Y-74530500D02*
X183329000Y-75280500D01*
G75*
G02*
X183241500Y-75368000I-87500J0D01*
G01*
X183066500Y-75368000D01*
G75*
G02*
X182979000Y-75280500I0J87500D01*
G01*
X182979000Y-74530500D01*
G75*
G02*
X183066500Y-74443000I87500J0D01*
G01*
X183241500Y-74443000D01*
G75*
G02*
X183329000Y-74530500I0J-87500D01*
G01*
G37*
G36*
G01*
X182829000Y-74530500D02*
X182829000Y-75280500D01*
G75*
G02*
X182741500Y-75368000I-87500J0D01*
G01*
X182566500Y-75368000D01*
G75*
G02*
X182479000Y-75280500I0J87500D01*
G01*
X182479000Y-74530500D01*
G75*
G02*
X182566500Y-74443000I87500J0D01*
G01*
X182741500Y-74443000D01*
G75*
G02*
X182829000Y-74530500I0J-87500D01*
G01*
G37*
G36*
G01*
X182429000Y-75505500D02*
X182429000Y-75680500D01*
G75*
G02*
X182341500Y-75768000I-87500J0D01*
G01*
X181591500Y-75768000D01*
G75*
G02*
X181504000Y-75680500I0J87500D01*
G01*
X181504000Y-75505500D01*
G75*
G02*
X181591500Y-75418000I87500J0D01*
G01*
X182341500Y-75418000D01*
G75*
G02*
X182429000Y-75505500I0J-87500D01*
G01*
G37*
G36*
G01*
X182429000Y-76005500D02*
X182429000Y-76180500D01*
G75*
G02*
X182341500Y-76268000I-87500J0D01*
G01*
X181591500Y-76268000D01*
G75*
G02*
X181504000Y-76180500I0J87500D01*
G01*
X181504000Y-76005500D01*
G75*
G02*
X181591500Y-75918000I87500J0D01*
G01*
X182341500Y-75918000D01*
G75*
G02*
X182429000Y-76005500I0J-87500D01*
G01*
G37*
G36*
G01*
X182429000Y-76505500D02*
X182429000Y-76680500D01*
G75*
G02*
X182341500Y-76768000I-87500J0D01*
G01*
X181591500Y-76768000D01*
G75*
G02*
X181504000Y-76680500I0J87500D01*
G01*
X181504000Y-76505500D01*
G75*
G02*
X181591500Y-76418000I87500J0D01*
G01*
X182341500Y-76418000D01*
G75*
G02*
X182429000Y-76505500I0J-87500D01*
G01*
G37*
G36*
G01*
X182429000Y-77005500D02*
X182429000Y-77180500D01*
G75*
G02*
X182341500Y-77268000I-87500J0D01*
G01*
X181591500Y-77268000D01*
G75*
G02*
X181504000Y-77180500I0J87500D01*
G01*
X181504000Y-77005500D01*
G75*
G02*
X181591500Y-76918000I87500J0D01*
G01*
X182341500Y-76918000D01*
G75*
G02*
X182429000Y-77005500I0J-87500D01*
G01*
G37*
G36*
G01*
X182429000Y-77505500D02*
X182429000Y-77680500D01*
G75*
G02*
X182341500Y-77768000I-87500J0D01*
G01*
X181591500Y-77768000D01*
G75*
G02*
X181504000Y-77680500I0J87500D01*
G01*
X181504000Y-77505500D01*
G75*
G02*
X181591500Y-77418000I87500J0D01*
G01*
X182341500Y-77418000D01*
G75*
G02*
X182429000Y-77505500I0J-87500D01*
G01*
G37*
G36*
G01*
X182429000Y-78005500D02*
X182429000Y-78180500D01*
G75*
G02*
X182341500Y-78268000I-87500J0D01*
G01*
X181591500Y-78268000D01*
G75*
G02*
X181504000Y-78180500I0J87500D01*
G01*
X181504000Y-78005500D01*
G75*
G02*
X181591500Y-77918000I87500J0D01*
G01*
X182341500Y-77918000D01*
G75*
G02*
X182429000Y-78005500I0J-87500D01*
G01*
G37*
G36*
G01*
X182429000Y-78505500D02*
X182429000Y-78680500D01*
G75*
G02*
X182341500Y-78768000I-87500J0D01*
G01*
X181591500Y-78768000D01*
G75*
G02*
X181504000Y-78680500I0J87500D01*
G01*
X181504000Y-78505500D01*
G75*
G02*
X181591500Y-78418000I87500J0D01*
G01*
X182341500Y-78418000D01*
G75*
G02*
X182429000Y-78505500I0J-87500D01*
G01*
G37*
G36*
G01*
X182429000Y-79005500D02*
X182429000Y-79180500D01*
G75*
G02*
X182341500Y-79268000I-87500J0D01*
G01*
X181591500Y-79268000D01*
G75*
G02*
X181504000Y-79180500I0J87500D01*
G01*
X181504000Y-79005500D01*
G75*
G02*
X181591500Y-78918000I87500J0D01*
G01*
X182341500Y-78918000D01*
G75*
G02*
X182429000Y-79005500I0J-87500D01*
G01*
G37*
G36*
G01*
X182829000Y-79405500D02*
X182829000Y-80155500D01*
G75*
G02*
X182741500Y-80243000I-87500J0D01*
G01*
X182566500Y-80243000D01*
G75*
G02*
X182479000Y-80155500I0J87500D01*
G01*
X182479000Y-79405500D01*
G75*
G02*
X182566500Y-79318000I87500J0D01*
G01*
X182741500Y-79318000D01*
G75*
G02*
X182829000Y-79405500I0J-87500D01*
G01*
G37*
G36*
G01*
X183329000Y-79405500D02*
X183329000Y-80155500D01*
G75*
G02*
X183241500Y-80243000I-87500J0D01*
G01*
X183066500Y-80243000D01*
G75*
G02*
X182979000Y-80155500I0J87500D01*
G01*
X182979000Y-79405500D01*
G75*
G02*
X183066500Y-79318000I87500J0D01*
G01*
X183241500Y-79318000D01*
G75*
G02*
X183329000Y-79405500I0J-87500D01*
G01*
G37*
G36*
G01*
X183829000Y-79405500D02*
X183829000Y-80155500D01*
G75*
G02*
X183741500Y-80243000I-87500J0D01*
G01*
X183566500Y-80243000D01*
G75*
G02*
X183479000Y-80155500I0J87500D01*
G01*
X183479000Y-79405500D01*
G75*
G02*
X183566500Y-79318000I87500J0D01*
G01*
X183741500Y-79318000D01*
G75*
G02*
X183829000Y-79405500I0J-87500D01*
G01*
G37*
G36*
G01*
X184329000Y-79405500D02*
X184329000Y-80155500D01*
G75*
G02*
X184241500Y-80243000I-87500J0D01*
G01*
X184066500Y-80243000D01*
G75*
G02*
X183979000Y-80155500I0J87500D01*
G01*
X183979000Y-79405500D01*
G75*
G02*
X184066500Y-79318000I87500J0D01*
G01*
X184241500Y-79318000D01*
G75*
G02*
X184329000Y-79405500I0J-87500D01*
G01*
G37*
G36*
G01*
X184829000Y-79405500D02*
X184829000Y-80155500D01*
G75*
G02*
X184741500Y-80243000I-87500J0D01*
G01*
X184566500Y-80243000D01*
G75*
G02*
X184479000Y-80155500I0J87500D01*
G01*
X184479000Y-79405500D01*
G75*
G02*
X184566500Y-79318000I87500J0D01*
G01*
X184741500Y-79318000D01*
G75*
G02*
X184829000Y-79405500I0J-87500D01*
G01*
G37*
G36*
G01*
X185329000Y-79405500D02*
X185329000Y-80155500D01*
G75*
G02*
X185241500Y-80243000I-87500J0D01*
G01*
X185066500Y-80243000D01*
G75*
G02*
X184979000Y-80155500I0J87500D01*
G01*
X184979000Y-79405500D01*
G75*
G02*
X185066500Y-79318000I87500J0D01*
G01*
X185241500Y-79318000D01*
G75*
G02*
X185329000Y-79405500I0J-87500D01*
G01*
G37*
G36*
G01*
X185829000Y-79405500D02*
X185829000Y-80155500D01*
G75*
G02*
X185741500Y-80243000I-87500J0D01*
G01*
X185566500Y-80243000D01*
G75*
G02*
X185479000Y-80155500I0J87500D01*
G01*
X185479000Y-79405500D01*
G75*
G02*
X185566500Y-79318000I87500J0D01*
G01*
X185741500Y-79318000D01*
G75*
G02*
X185829000Y-79405500I0J-87500D01*
G01*
G37*
G36*
G01*
X186329000Y-79405500D02*
X186329000Y-80155500D01*
G75*
G02*
X186241500Y-80243000I-87500J0D01*
G01*
X186066500Y-80243000D01*
G75*
G02*
X185979000Y-80155500I0J87500D01*
G01*
X185979000Y-79405500D01*
G75*
G02*
X186066500Y-79318000I87500J0D01*
G01*
X186241500Y-79318000D01*
G75*
G02*
X186329000Y-79405500I0J-87500D01*
G01*
G37*
G36*
G01*
X187304000Y-79005500D02*
X187304000Y-79180500D01*
G75*
G02*
X187216500Y-79268000I-87500J0D01*
G01*
X186466500Y-79268000D01*
G75*
G02*
X186379000Y-79180500I0J87500D01*
G01*
X186379000Y-79005500D01*
G75*
G02*
X186466500Y-78918000I87500J0D01*
G01*
X187216500Y-78918000D01*
G75*
G02*
X187304000Y-79005500I0J-87500D01*
G01*
G37*
G36*
G01*
X187304000Y-78505500D02*
X187304000Y-78680500D01*
G75*
G02*
X187216500Y-78768000I-87500J0D01*
G01*
X186466500Y-78768000D01*
G75*
G02*
X186379000Y-78680500I0J87500D01*
G01*
X186379000Y-78505500D01*
G75*
G02*
X186466500Y-78418000I87500J0D01*
G01*
X187216500Y-78418000D01*
G75*
G02*
X187304000Y-78505500I0J-87500D01*
G01*
G37*
G36*
G01*
X187304000Y-78005500D02*
X187304000Y-78180500D01*
G75*
G02*
X187216500Y-78268000I-87500J0D01*
G01*
X186466500Y-78268000D01*
G75*
G02*
X186379000Y-78180500I0J87500D01*
G01*
X186379000Y-78005500D01*
G75*
G02*
X186466500Y-77918000I87500J0D01*
G01*
X187216500Y-77918000D01*
G75*
G02*
X187304000Y-78005500I0J-87500D01*
G01*
G37*
G36*
G01*
X187304000Y-77505500D02*
X187304000Y-77680500D01*
G75*
G02*
X187216500Y-77768000I-87500J0D01*
G01*
X186466500Y-77768000D01*
G75*
G02*
X186379000Y-77680500I0J87500D01*
G01*
X186379000Y-77505500D01*
G75*
G02*
X186466500Y-77418000I87500J0D01*
G01*
X187216500Y-77418000D01*
G75*
G02*
X187304000Y-77505500I0J-87500D01*
G01*
G37*
G36*
G01*
X187304000Y-77005500D02*
X187304000Y-77180500D01*
G75*
G02*
X187216500Y-77268000I-87500J0D01*
G01*
X186466500Y-77268000D01*
G75*
G02*
X186379000Y-77180500I0J87500D01*
G01*
X186379000Y-77005500D01*
G75*
G02*
X186466500Y-76918000I87500J0D01*
G01*
X187216500Y-76918000D01*
G75*
G02*
X187304000Y-77005500I0J-87500D01*
G01*
G37*
G36*
G01*
X187304000Y-76505500D02*
X187304000Y-76680500D01*
G75*
G02*
X187216500Y-76768000I-87500J0D01*
G01*
X186466500Y-76768000D01*
G75*
G02*
X186379000Y-76680500I0J87500D01*
G01*
X186379000Y-76505500D01*
G75*
G02*
X186466500Y-76418000I87500J0D01*
G01*
X187216500Y-76418000D01*
G75*
G02*
X187304000Y-76505500I0J-87500D01*
G01*
G37*
G36*
G01*
X187304000Y-76005500D02*
X187304000Y-76180500D01*
G75*
G02*
X187216500Y-76268000I-87500J0D01*
G01*
X186466500Y-76268000D01*
G75*
G02*
X186379000Y-76180500I0J87500D01*
G01*
X186379000Y-76005500D01*
G75*
G02*
X186466500Y-75918000I87500J0D01*
G01*
X187216500Y-75918000D01*
G75*
G02*
X187304000Y-76005500I0J-87500D01*
G01*
G37*
G36*
G01*
X187304000Y-75505500D02*
X187304000Y-75680500D01*
G75*
G02*
X187216500Y-75768000I-87500J0D01*
G01*
X186466500Y-75768000D01*
G75*
G02*
X186379000Y-75680500I0J87500D01*
G01*
X186379000Y-75505500D01*
G75*
G02*
X186466500Y-75418000I87500J0D01*
G01*
X187216500Y-75418000D01*
G75*
G02*
X187304000Y-75505500I0J-87500D01*
G01*
G37*
%TD*%
D20*
%TO.C,U4*%
X171351300Y-84471000D03*
X171351300Y-84971000D03*
X171351300Y-85471000D03*
X171351300Y-85971000D03*
X171351300Y-86471000D03*
X166951300Y-86471000D03*
X166951300Y-85971000D03*
X166951300Y-85471000D03*
X166951300Y-84971000D03*
X166951300Y-84471000D03*
%TD*%
D21*
%TO.C,U5*%
X167043100Y-63119000D03*
G36*
G01*
X168543100Y-60319000D02*
X168543100Y-61019000D01*
G75*
G02*
X168443100Y-61119000I-100000J0D01*
G01*
X168243100Y-61119000D01*
G75*
G02*
X168143100Y-61019000I0J100000D01*
G01*
X168143100Y-60319000D01*
G75*
G02*
X168243100Y-60219000I100000J0D01*
G01*
X168443100Y-60219000D01*
G75*
G02*
X168543100Y-60319000I0J-100000D01*
G01*
G37*
G36*
G01*
X167893100Y-60319000D02*
X167893100Y-61019000D01*
G75*
G02*
X167793100Y-61119000I-100000J0D01*
G01*
X167593100Y-61119000D01*
G75*
G02*
X167493100Y-61019000I0J100000D01*
G01*
X167493100Y-60319000D01*
G75*
G02*
X167593100Y-60219000I100000J0D01*
G01*
X167793100Y-60219000D01*
G75*
G02*
X167893100Y-60319000I0J-100000D01*
G01*
G37*
G36*
G01*
X167243100Y-60319000D02*
X167243100Y-61019000D01*
G75*
G02*
X167143100Y-61119000I-100000J0D01*
G01*
X166943100Y-61119000D01*
G75*
G02*
X166843100Y-61019000I0J100000D01*
G01*
X166843100Y-60319000D01*
G75*
G02*
X166943100Y-60219000I100000J0D01*
G01*
X167143100Y-60219000D01*
G75*
G02*
X167243100Y-60319000I0J-100000D01*
G01*
G37*
G36*
G01*
X166593100Y-60319000D02*
X166593100Y-61019000D01*
G75*
G02*
X166493100Y-61119000I-100000J0D01*
G01*
X166293100Y-61119000D01*
G75*
G02*
X166193100Y-61019000I0J100000D01*
G01*
X166193100Y-60319000D01*
G75*
G02*
X166293100Y-60219000I100000J0D01*
G01*
X166493100Y-60219000D01*
G75*
G02*
X166593100Y-60319000I0J-100000D01*
G01*
G37*
G36*
G01*
X165943100Y-60319000D02*
X165943100Y-61019000D01*
G75*
G02*
X165843100Y-61119000I-100000J0D01*
G01*
X165643100Y-61119000D01*
G75*
G02*
X165543100Y-61019000I0J100000D01*
G01*
X165543100Y-60319000D01*
G75*
G02*
X165643100Y-60219000I100000J0D01*
G01*
X165843100Y-60219000D01*
G75*
G02*
X165943100Y-60319000I0J-100000D01*
G01*
G37*
G36*
G01*
X165043100Y-61719000D02*
X165043100Y-61919000D01*
G75*
G02*
X164943100Y-62019000I-100000J0D01*
G01*
X164243100Y-62019000D01*
G75*
G02*
X164143100Y-61919000I0J100000D01*
G01*
X164143100Y-61719000D01*
G75*
G02*
X164243100Y-61619000I100000J0D01*
G01*
X164943100Y-61619000D01*
G75*
G02*
X165043100Y-61719000I0J-100000D01*
G01*
G37*
G36*
G01*
X165043100Y-62369000D02*
X165043100Y-62569000D01*
G75*
G02*
X164943100Y-62669000I-100000J0D01*
G01*
X164243100Y-62669000D01*
G75*
G02*
X164143100Y-62569000I0J100000D01*
G01*
X164143100Y-62369000D01*
G75*
G02*
X164243100Y-62269000I100000J0D01*
G01*
X164943100Y-62269000D01*
G75*
G02*
X165043100Y-62369000I0J-100000D01*
G01*
G37*
G36*
G01*
X165043100Y-63019000D02*
X165043100Y-63219000D01*
G75*
G02*
X164943100Y-63319000I-100000J0D01*
G01*
X164243100Y-63319000D01*
G75*
G02*
X164143100Y-63219000I0J100000D01*
G01*
X164143100Y-63019000D01*
G75*
G02*
X164243100Y-62919000I100000J0D01*
G01*
X164943100Y-62919000D01*
G75*
G02*
X165043100Y-63019000I0J-100000D01*
G01*
G37*
G36*
G01*
X165043100Y-63669000D02*
X165043100Y-63869000D01*
G75*
G02*
X164943100Y-63969000I-100000J0D01*
G01*
X164243100Y-63969000D01*
G75*
G02*
X164143100Y-63869000I0J100000D01*
G01*
X164143100Y-63669000D01*
G75*
G02*
X164243100Y-63569000I100000J0D01*
G01*
X164943100Y-63569000D01*
G75*
G02*
X165043100Y-63669000I0J-100000D01*
G01*
G37*
G36*
G01*
X165043100Y-64319000D02*
X165043100Y-64519000D01*
G75*
G02*
X164943100Y-64619000I-100000J0D01*
G01*
X164243100Y-64619000D01*
G75*
G02*
X164143100Y-64519000I0J100000D01*
G01*
X164143100Y-64319000D01*
G75*
G02*
X164243100Y-64219000I100000J0D01*
G01*
X164943100Y-64219000D01*
G75*
G02*
X165043100Y-64319000I0J-100000D01*
G01*
G37*
G36*
G01*
X165943100Y-65219000D02*
X165943100Y-65919000D01*
G75*
G02*
X165843100Y-66019000I-100000J0D01*
G01*
X165643100Y-66019000D01*
G75*
G02*
X165543100Y-65919000I0J100000D01*
G01*
X165543100Y-65219000D01*
G75*
G02*
X165643100Y-65119000I100000J0D01*
G01*
X165843100Y-65119000D01*
G75*
G02*
X165943100Y-65219000I0J-100000D01*
G01*
G37*
G36*
G01*
X166593100Y-65219000D02*
X166593100Y-65919000D01*
G75*
G02*
X166493100Y-66019000I-100000J0D01*
G01*
X166293100Y-66019000D01*
G75*
G02*
X166193100Y-65919000I0J100000D01*
G01*
X166193100Y-65219000D01*
G75*
G02*
X166293100Y-65119000I100000J0D01*
G01*
X166493100Y-65119000D01*
G75*
G02*
X166593100Y-65219000I0J-100000D01*
G01*
G37*
G36*
G01*
X167243100Y-65219000D02*
X167243100Y-65919000D01*
G75*
G02*
X167143100Y-66019000I-100000J0D01*
G01*
X166943100Y-66019000D01*
G75*
G02*
X166843100Y-65919000I0J100000D01*
G01*
X166843100Y-65219000D01*
G75*
G02*
X166943100Y-65119000I100000J0D01*
G01*
X167143100Y-65119000D01*
G75*
G02*
X167243100Y-65219000I0J-100000D01*
G01*
G37*
G36*
G01*
X167893100Y-65219000D02*
X167893100Y-65919000D01*
G75*
G02*
X167793100Y-66019000I-100000J0D01*
G01*
X167593100Y-66019000D01*
G75*
G02*
X167493100Y-65919000I0J100000D01*
G01*
X167493100Y-65219000D01*
G75*
G02*
X167593100Y-65119000I100000J0D01*
G01*
X167793100Y-65119000D01*
G75*
G02*
X167893100Y-65219000I0J-100000D01*
G01*
G37*
G36*
G01*
X168543100Y-65219000D02*
X168543100Y-65919000D01*
G75*
G02*
X168443100Y-66019000I-100000J0D01*
G01*
X168243100Y-66019000D01*
G75*
G02*
X168143100Y-65919000I0J100000D01*
G01*
X168143100Y-65219000D01*
G75*
G02*
X168243100Y-65119000I100000J0D01*
G01*
X168443100Y-65119000D01*
G75*
G02*
X168543100Y-65219000I0J-100000D01*
G01*
G37*
G36*
G01*
X169943100Y-64319000D02*
X169943100Y-64519000D01*
G75*
G02*
X169843100Y-64619000I-100000J0D01*
G01*
X169143100Y-64619000D01*
G75*
G02*
X169043100Y-64519000I0J100000D01*
G01*
X169043100Y-64319000D01*
G75*
G02*
X169143100Y-64219000I100000J0D01*
G01*
X169843100Y-64219000D01*
G75*
G02*
X169943100Y-64319000I0J-100000D01*
G01*
G37*
G36*
G01*
X169943100Y-63669000D02*
X169943100Y-63869000D01*
G75*
G02*
X169843100Y-63969000I-100000J0D01*
G01*
X169143100Y-63969000D01*
G75*
G02*
X169043100Y-63869000I0J100000D01*
G01*
X169043100Y-63669000D01*
G75*
G02*
X169143100Y-63569000I100000J0D01*
G01*
X169843100Y-63569000D01*
G75*
G02*
X169943100Y-63669000I0J-100000D01*
G01*
G37*
G36*
G01*
X169943100Y-63019000D02*
X169943100Y-63219000D01*
G75*
G02*
X169843100Y-63319000I-100000J0D01*
G01*
X169143100Y-63319000D01*
G75*
G02*
X169043100Y-63219000I0J100000D01*
G01*
X169043100Y-63019000D01*
G75*
G02*
X169143100Y-62919000I100000J0D01*
G01*
X169843100Y-62919000D01*
G75*
G02*
X169943100Y-63019000I0J-100000D01*
G01*
G37*
G36*
G01*
X169943100Y-62369000D02*
X169943100Y-62569000D01*
G75*
G02*
X169843100Y-62669000I-100000J0D01*
G01*
X169143100Y-62669000D01*
G75*
G02*
X169043100Y-62569000I0J100000D01*
G01*
X169043100Y-62369000D01*
G75*
G02*
X169143100Y-62269000I100000J0D01*
G01*
X169843100Y-62269000D01*
G75*
G02*
X169943100Y-62369000I0J-100000D01*
G01*
G37*
G36*
G01*
X169943100Y-61719000D02*
X169943100Y-61919000D01*
G75*
G02*
X169843100Y-62019000I-100000J0D01*
G01*
X169143100Y-62019000D01*
G75*
G02*
X169043100Y-61919000I0J100000D01*
G01*
X169043100Y-61719000D01*
G75*
G02*
X169143100Y-61619000I100000J0D01*
G01*
X169843100Y-61619000D01*
G75*
G02*
X169943100Y-61719000I0J-100000D01*
G01*
G37*
%TD*%
%TO.C,U3*%
G36*
G01*
X156735520Y-79639500D02*
X156385520Y-79639500D01*
G75*
G02*
X156210520Y-79464500I0J175000D01*
G01*
X156210520Y-77764500D01*
G75*
G02*
X156385520Y-77589500I175000J0D01*
G01*
X156735520Y-77589500D01*
G75*
G02*
X156910520Y-77764500I0J-175000D01*
G01*
X156910520Y-79464500D01*
G75*
G02*
X156735520Y-79639500I-175000J0D01*
G01*
G37*
G36*
G01*
X155465520Y-79639500D02*
X155115520Y-79639500D01*
G75*
G02*
X154940520Y-79464500I0J175000D01*
G01*
X154940520Y-77764500D01*
G75*
G02*
X155115520Y-77589500I175000J0D01*
G01*
X155465520Y-77589500D01*
G75*
G02*
X155640520Y-77764500I0J-175000D01*
G01*
X155640520Y-79464500D01*
G75*
G02*
X155465520Y-79639500I-175000J0D01*
G01*
G37*
G36*
G01*
X154195520Y-79639500D02*
X153845520Y-79639500D01*
G75*
G02*
X153670520Y-79464500I0J175000D01*
G01*
X153670520Y-77764500D01*
G75*
G02*
X153845520Y-77589500I175000J0D01*
G01*
X154195520Y-77589500D01*
G75*
G02*
X154370520Y-77764500I0J-175000D01*
G01*
X154370520Y-79464500D01*
G75*
G02*
X154195520Y-79639500I-175000J0D01*
G01*
G37*
G36*
G01*
X152925520Y-79639500D02*
X152575520Y-79639500D01*
G75*
G02*
X152400520Y-79464500I0J175000D01*
G01*
X152400520Y-77764500D01*
G75*
G02*
X152575520Y-77589500I175000J0D01*
G01*
X152925520Y-77589500D01*
G75*
G02*
X153100520Y-77764500I0J-175000D01*
G01*
X153100520Y-79464500D01*
G75*
G02*
X152925520Y-79639500I-175000J0D01*
G01*
G37*
G36*
G01*
X152925520Y-84589500D02*
X152575520Y-84589500D01*
G75*
G02*
X152400520Y-84414500I0J175000D01*
G01*
X152400520Y-82714500D01*
G75*
G02*
X152575520Y-82539500I175000J0D01*
G01*
X152925520Y-82539500D01*
G75*
G02*
X153100520Y-82714500I0J-175000D01*
G01*
X153100520Y-84414500D01*
G75*
G02*
X152925520Y-84589500I-175000J0D01*
G01*
G37*
G36*
G01*
X154195520Y-84589500D02*
X153845520Y-84589500D01*
G75*
G02*
X153670520Y-84414500I0J175000D01*
G01*
X153670520Y-82714500D01*
G75*
G02*
X153845520Y-82539500I175000J0D01*
G01*
X154195520Y-82539500D01*
G75*
G02*
X154370520Y-82714500I0J-175000D01*
G01*
X154370520Y-84414500D01*
G75*
G02*
X154195520Y-84589500I-175000J0D01*
G01*
G37*
G36*
G01*
X155465520Y-84589500D02*
X155115520Y-84589500D01*
G75*
G02*
X154940520Y-84414500I0J175000D01*
G01*
X154940520Y-82714500D01*
G75*
G02*
X155115520Y-82539500I175000J0D01*
G01*
X155465520Y-82539500D01*
G75*
G02*
X155640520Y-82714500I0J-175000D01*
G01*
X155640520Y-84414500D01*
G75*
G02*
X155465520Y-84589500I-175000J0D01*
G01*
G37*
G36*
G01*
X156735520Y-84589500D02*
X156385520Y-84589500D01*
G75*
G02*
X156210520Y-84414500I0J175000D01*
G01*
X156210520Y-82714500D01*
G75*
G02*
X156385520Y-82539500I175000J0D01*
G01*
X156735520Y-82539500D01*
G75*
G02*
X156910520Y-82714500I0J-175000D01*
G01*
X156910520Y-84414500D01*
G75*
G02*
X156735520Y-84589500I-175000J0D01*
G01*
G37*
%TD*%
D16*
%TO.C,H5*%
X127734002Y-88253000D03*
%TD*%
%TO.C,UART0*%
G36*
G01*
X140985000Y-52858095D02*
X140985000Y-50281905D01*
G75*
G02*
X141246905Y-50020000I261905J0D01*
G01*
X142923095Y-50020000D01*
G75*
G02*
X143185000Y-50281905I0J-261905D01*
G01*
X143185000Y-52858095D01*
G75*
G02*
X142923095Y-53120000I-261905J0D01*
G01*
X141246905Y-53120000D01*
G75*
G02*
X140985000Y-52858095I0J261905D01*
G01*
G37*
G36*
G01*
X132135000Y-52858095D02*
X132135000Y-50281905D01*
G75*
G02*
X132396905Y-50020000I261905J0D01*
G01*
X134073095Y-50020000D01*
G75*
G02*
X134335000Y-50281905I0J-261905D01*
G01*
X134335000Y-52858095D01*
G75*
G02*
X134073095Y-53120000I-261905J0D01*
G01*
X132396905Y-53120000D01*
G75*
G02*
X132135000Y-52858095I0J261905D01*
G01*
G37*
G36*
G01*
X139085000Y-55095000D02*
X139085000Y-53845000D01*
G75*
G02*
X139310000Y-53620000I225000J0D01*
G01*
X139760000Y-53620000D01*
G75*
G02*
X139985000Y-53845000I0J-225000D01*
G01*
X139985000Y-55095000D01*
G75*
G02*
X139760000Y-55320000I-225000J0D01*
G01*
X139310000Y-55320000D01*
G75*
G02*
X139085000Y-55095000I0J225000D01*
G01*
G37*
G36*
G01*
X137835000Y-55095000D02*
X137835000Y-53845000D01*
G75*
G02*
X138060000Y-53620000I225000J0D01*
G01*
X138510000Y-53620000D01*
G75*
G02*
X138735000Y-53845000I0J-225000D01*
G01*
X138735000Y-55095000D01*
G75*
G02*
X138510000Y-55320000I-225000J0D01*
G01*
X138060000Y-55320000D01*
G75*
G02*
X137835000Y-55095000I0J225000D01*
G01*
G37*
G36*
G01*
X136585000Y-55095000D02*
X136585000Y-53845000D01*
G75*
G02*
X136810000Y-53620000I225000J0D01*
G01*
X137260000Y-53620000D01*
G75*
G02*
X137485000Y-53845000I0J-225000D01*
G01*
X137485000Y-55095000D01*
G75*
G02*
X137260000Y-55320000I-225000J0D01*
G01*
X136810000Y-55320000D01*
G75*
G02*
X136585000Y-55095000I0J225000D01*
G01*
G37*
G36*
G01*
X135335000Y-55095000D02*
X135335000Y-53845000D01*
G75*
G02*
X135560000Y-53620000I225000J0D01*
G01*
X136010000Y-53620000D01*
G75*
G02*
X136235000Y-53845000I0J-225000D01*
G01*
X136235000Y-55095000D01*
G75*
G02*
X136010000Y-55320000I-225000J0D01*
G01*
X135560000Y-55320000D01*
G75*
G02*
X135335000Y-55095000I0J225000D01*
G01*
G37*
%TD*%
%TO.C,H9*%
X127734002Y-131982998D03*
%TD*%
%TO.C,H12*%
X186464001Y-88253000D03*
%TD*%
%TO.C,H8*%
X186464001Y-54522998D03*
%TD*%
%TO.C,H6*%
X127734002Y-98252997D03*
%TD*%
%TO.C,H7*%
X127734002Y-54522998D03*
%TD*%
%TO.C,H10*%
X186464001Y-131982998D03*
%TD*%
%TO.C,U2*%
G36*
G01*
X147995380Y-79649660D02*
X147645380Y-79649660D01*
G75*
G02*
X147470380Y-79474660I0J175000D01*
G01*
X147470380Y-77774660D01*
G75*
G02*
X147645380Y-77599660I175000J0D01*
G01*
X147995380Y-77599660D01*
G75*
G02*
X148170380Y-77774660I0J-175000D01*
G01*
X148170380Y-79474660D01*
G75*
G02*
X147995380Y-79649660I-175000J0D01*
G01*
G37*
G36*
G01*
X146725380Y-79649660D02*
X146375380Y-79649660D01*
G75*
G02*
X146200380Y-79474660I0J175000D01*
G01*
X146200380Y-77774660D01*
G75*
G02*
X146375380Y-77599660I175000J0D01*
G01*
X146725380Y-77599660D01*
G75*
G02*
X146900380Y-77774660I0J-175000D01*
G01*
X146900380Y-79474660D01*
G75*
G02*
X146725380Y-79649660I-175000J0D01*
G01*
G37*
G36*
G01*
X145455380Y-79649660D02*
X145105380Y-79649660D01*
G75*
G02*
X144930380Y-79474660I0J175000D01*
G01*
X144930380Y-77774660D01*
G75*
G02*
X145105380Y-77599660I175000J0D01*
G01*
X145455380Y-77599660D01*
G75*
G02*
X145630380Y-77774660I0J-175000D01*
G01*
X145630380Y-79474660D01*
G75*
G02*
X145455380Y-79649660I-175000J0D01*
G01*
G37*
G36*
G01*
X144185380Y-79649660D02*
X143835380Y-79649660D01*
G75*
G02*
X143660380Y-79474660I0J175000D01*
G01*
X143660380Y-77774660D01*
G75*
G02*
X143835380Y-77599660I175000J0D01*
G01*
X144185380Y-77599660D01*
G75*
G02*
X144360380Y-77774660I0J-175000D01*
G01*
X144360380Y-79474660D01*
G75*
G02*
X144185380Y-79649660I-175000J0D01*
G01*
G37*
G36*
G01*
X144185380Y-84599660D02*
X143835380Y-84599660D01*
G75*
G02*
X143660380Y-84424660I0J175000D01*
G01*
X143660380Y-82724660D01*
G75*
G02*
X143835380Y-82549660I175000J0D01*
G01*
X144185380Y-82549660D01*
G75*
G02*
X144360380Y-82724660I0J-175000D01*
G01*
X144360380Y-84424660D01*
G75*
G02*
X144185380Y-84599660I-175000J0D01*
G01*
G37*
G36*
G01*
X145455380Y-84599660D02*
X145105380Y-84599660D01*
G75*
G02*
X144930380Y-84424660I0J175000D01*
G01*
X144930380Y-82724660D01*
G75*
G02*
X145105380Y-82549660I175000J0D01*
G01*
X145455380Y-82549660D01*
G75*
G02*
X145630380Y-82724660I0J-175000D01*
G01*
X145630380Y-84424660D01*
G75*
G02*
X145455380Y-84599660I-175000J0D01*
G01*
G37*
G36*
G01*
X146725380Y-84599660D02*
X146375380Y-84599660D01*
G75*
G02*
X146200380Y-84424660I0J175000D01*
G01*
X146200380Y-82724660D01*
G75*
G02*
X146375380Y-82549660I175000J0D01*
G01*
X146725380Y-82549660D01*
G75*
G02*
X146900380Y-82724660I0J-175000D01*
G01*
X146900380Y-84424660D01*
G75*
G02*
X146725380Y-84599660I-175000J0D01*
G01*
G37*
G36*
G01*
X147995380Y-84599660D02*
X147645380Y-84599660D01*
G75*
G02*
X147470380Y-84424660I0J175000D01*
G01*
X147470380Y-82724660D01*
G75*
G02*
X147645380Y-82549660I175000J0D01*
G01*
X147995380Y-82549660D01*
G75*
G02*
X148170380Y-82724660I0J-175000D01*
G01*
X148170380Y-84424660D01*
G75*
G02*
X147995380Y-84599660I-175000J0D01*
G01*
G37*
%TD*%
%TO.C,UART3*%
G36*
G01*
X179085000Y-52858095D02*
X179085000Y-50281905D01*
G75*
G02*
X179346905Y-50020000I261905J0D01*
G01*
X181023095Y-50020000D01*
G75*
G02*
X181285000Y-50281905I0J-261905D01*
G01*
X181285000Y-52858095D01*
G75*
G02*
X181023095Y-53120000I-261905J0D01*
G01*
X179346905Y-53120000D01*
G75*
G02*
X179085000Y-52858095I0J261905D01*
G01*
G37*
G36*
G01*
X170235000Y-52858095D02*
X170235000Y-50281905D01*
G75*
G02*
X170496905Y-50020000I261905J0D01*
G01*
X172173095Y-50020000D01*
G75*
G02*
X172435000Y-50281905I0J-261905D01*
G01*
X172435000Y-52858095D01*
G75*
G02*
X172173095Y-53120000I-261905J0D01*
G01*
X170496905Y-53120000D01*
G75*
G02*
X170235000Y-52858095I0J261905D01*
G01*
G37*
G36*
G01*
X177185000Y-55095000D02*
X177185000Y-53845000D01*
G75*
G02*
X177410000Y-53620000I225000J0D01*
G01*
X177860000Y-53620000D01*
G75*
G02*
X178085000Y-53845000I0J-225000D01*
G01*
X178085000Y-55095000D01*
G75*
G02*
X177860000Y-55320000I-225000J0D01*
G01*
X177410000Y-55320000D01*
G75*
G02*
X177185000Y-55095000I0J225000D01*
G01*
G37*
G36*
G01*
X175935000Y-55095000D02*
X175935000Y-53845000D01*
G75*
G02*
X176160000Y-53620000I225000J0D01*
G01*
X176610000Y-53620000D01*
G75*
G02*
X176835000Y-53845000I0J-225000D01*
G01*
X176835000Y-55095000D01*
G75*
G02*
X176610000Y-55320000I-225000J0D01*
G01*
X176160000Y-55320000D01*
G75*
G02*
X175935000Y-55095000I0J225000D01*
G01*
G37*
G36*
G01*
X174685000Y-55095000D02*
X174685000Y-53845000D01*
G75*
G02*
X174910000Y-53620000I225000J0D01*
G01*
X175360000Y-53620000D01*
G75*
G02*
X175585000Y-53845000I0J-225000D01*
G01*
X175585000Y-55095000D01*
G75*
G02*
X175360000Y-55320000I-225000J0D01*
G01*
X174910000Y-55320000D01*
G75*
G02*
X174685000Y-55095000I0J225000D01*
G01*
G37*
G36*
G01*
X173435000Y-55095000D02*
X173435000Y-53845000D01*
G75*
G02*
X173660000Y-53620000I225000J0D01*
G01*
X174110000Y-53620000D01*
G75*
G02*
X174335000Y-53845000I0J-225000D01*
G01*
X174335000Y-55095000D01*
G75*
G02*
X174110000Y-55320000I-225000J0D01*
G01*
X173660000Y-55320000D01*
G75*
G02*
X173435000Y-55095000I0J225000D01*
G01*
G37*
%TD*%
D22*
%TO.C,U16*%
X150241000Y-64008000D03*
G36*
G01*
X154078500Y-66933000D02*
X153278500Y-66933000D01*
G75*
G02*
X153191000Y-66845500I0J87500D01*
G01*
X153191000Y-66670500D01*
G75*
G02*
X153278500Y-66583000I87500J0D01*
G01*
X154078500Y-66583000D01*
G75*
G02*
X154166000Y-66670500I0J-87500D01*
G01*
X154166000Y-66845500D01*
G75*
G02*
X154078500Y-66933000I-87500J0D01*
G01*
G37*
G36*
G01*
X154078500Y-66433000D02*
X153278500Y-66433000D01*
G75*
G02*
X153191000Y-66345500I0J87500D01*
G01*
X153191000Y-66170500D01*
G75*
G02*
X153278500Y-66083000I87500J0D01*
G01*
X154078500Y-66083000D01*
G75*
G02*
X154166000Y-66170500I0J-87500D01*
G01*
X154166000Y-66345500D01*
G75*
G02*
X154078500Y-66433000I-87500J0D01*
G01*
G37*
G36*
G01*
X154078500Y-65933000D02*
X153278500Y-65933000D01*
G75*
G02*
X153191000Y-65845500I0J87500D01*
G01*
X153191000Y-65670500D01*
G75*
G02*
X153278500Y-65583000I87500J0D01*
G01*
X154078500Y-65583000D01*
G75*
G02*
X154166000Y-65670500I0J-87500D01*
G01*
X154166000Y-65845500D01*
G75*
G02*
X154078500Y-65933000I-87500J0D01*
G01*
G37*
G36*
G01*
X154078500Y-65433000D02*
X153278500Y-65433000D01*
G75*
G02*
X153191000Y-65345500I0J87500D01*
G01*
X153191000Y-65170500D01*
G75*
G02*
X153278500Y-65083000I87500J0D01*
G01*
X154078500Y-65083000D01*
G75*
G02*
X154166000Y-65170500I0J-87500D01*
G01*
X154166000Y-65345500D01*
G75*
G02*
X154078500Y-65433000I-87500J0D01*
G01*
G37*
G36*
G01*
X154078500Y-64933000D02*
X153278500Y-64933000D01*
G75*
G02*
X153191000Y-64845500I0J87500D01*
G01*
X153191000Y-64670500D01*
G75*
G02*
X153278500Y-64583000I87500J0D01*
G01*
X154078500Y-64583000D01*
G75*
G02*
X154166000Y-64670500I0J-87500D01*
G01*
X154166000Y-64845500D01*
G75*
G02*
X154078500Y-64933000I-87500J0D01*
G01*
G37*
G36*
G01*
X154078500Y-64433000D02*
X153278500Y-64433000D01*
G75*
G02*
X153191000Y-64345500I0J87500D01*
G01*
X153191000Y-64170500D01*
G75*
G02*
X153278500Y-64083000I87500J0D01*
G01*
X154078500Y-64083000D01*
G75*
G02*
X154166000Y-64170500I0J-87500D01*
G01*
X154166000Y-64345500D01*
G75*
G02*
X154078500Y-64433000I-87500J0D01*
G01*
G37*
G36*
G01*
X154078500Y-63933000D02*
X153278500Y-63933000D01*
G75*
G02*
X153191000Y-63845500I0J87500D01*
G01*
X153191000Y-63670500D01*
G75*
G02*
X153278500Y-63583000I87500J0D01*
G01*
X154078500Y-63583000D01*
G75*
G02*
X154166000Y-63670500I0J-87500D01*
G01*
X154166000Y-63845500D01*
G75*
G02*
X154078500Y-63933000I-87500J0D01*
G01*
G37*
G36*
G01*
X154078500Y-63433000D02*
X153278500Y-63433000D01*
G75*
G02*
X153191000Y-63345500I0J87500D01*
G01*
X153191000Y-63170500D01*
G75*
G02*
X153278500Y-63083000I87500J0D01*
G01*
X154078500Y-63083000D01*
G75*
G02*
X154166000Y-63170500I0J-87500D01*
G01*
X154166000Y-63345500D01*
G75*
G02*
X154078500Y-63433000I-87500J0D01*
G01*
G37*
G36*
G01*
X154078500Y-62933000D02*
X153278500Y-62933000D01*
G75*
G02*
X153191000Y-62845500I0J87500D01*
G01*
X153191000Y-62670500D01*
G75*
G02*
X153278500Y-62583000I87500J0D01*
G01*
X154078500Y-62583000D01*
G75*
G02*
X154166000Y-62670500I0J-87500D01*
G01*
X154166000Y-62845500D01*
G75*
G02*
X154078500Y-62933000I-87500J0D01*
G01*
G37*
G36*
G01*
X154078500Y-62433000D02*
X153278500Y-62433000D01*
G75*
G02*
X153191000Y-62345500I0J87500D01*
G01*
X153191000Y-62170500D01*
G75*
G02*
X153278500Y-62083000I87500J0D01*
G01*
X154078500Y-62083000D01*
G75*
G02*
X154166000Y-62170500I0J-87500D01*
G01*
X154166000Y-62345500D01*
G75*
G02*
X154078500Y-62433000I-87500J0D01*
G01*
G37*
G36*
G01*
X154078500Y-61933000D02*
X153278500Y-61933000D01*
G75*
G02*
X153191000Y-61845500I0J87500D01*
G01*
X153191000Y-61670500D01*
G75*
G02*
X153278500Y-61583000I87500J0D01*
G01*
X154078500Y-61583000D01*
G75*
G02*
X154166000Y-61670500I0J-87500D01*
G01*
X154166000Y-61845500D01*
G75*
G02*
X154078500Y-61933000I-87500J0D01*
G01*
G37*
G36*
G01*
X154078500Y-61433000D02*
X153278500Y-61433000D01*
G75*
G02*
X153191000Y-61345500I0J87500D01*
G01*
X153191000Y-61170500D01*
G75*
G02*
X153278500Y-61083000I87500J0D01*
G01*
X154078500Y-61083000D01*
G75*
G02*
X154166000Y-61170500I0J-87500D01*
G01*
X154166000Y-61345500D01*
G75*
G02*
X154078500Y-61433000I-87500J0D01*
G01*
G37*
G36*
G01*
X153078500Y-61058000D02*
X152903500Y-61058000D01*
G75*
G02*
X152816000Y-60970500I0J87500D01*
G01*
X152816000Y-60170500D01*
G75*
G02*
X152903500Y-60083000I87500J0D01*
G01*
X153078500Y-60083000D01*
G75*
G02*
X153166000Y-60170500I0J-87500D01*
G01*
X153166000Y-60970500D01*
G75*
G02*
X153078500Y-61058000I-87500J0D01*
G01*
G37*
G36*
G01*
X152578500Y-61058000D02*
X152403500Y-61058000D01*
G75*
G02*
X152316000Y-60970500I0J87500D01*
G01*
X152316000Y-60170500D01*
G75*
G02*
X152403500Y-60083000I87500J0D01*
G01*
X152578500Y-60083000D01*
G75*
G02*
X152666000Y-60170500I0J-87500D01*
G01*
X152666000Y-60970500D01*
G75*
G02*
X152578500Y-61058000I-87500J0D01*
G01*
G37*
G36*
G01*
X152078500Y-61058000D02*
X151903500Y-61058000D01*
G75*
G02*
X151816000Y-60970500I0J87500D01*
G01*
X151816000Y-60170500D01*
G75*
G02*
X151903500Y-60083000I87500J0D01*
G01*
X152078500Y-60083000D01*
G75*
G02*
X152166000Y-60170500I0J-87500D01*
G01*
X152166000Y-60970500D01*
G75*
G02*
X152078500Y-61058000I-87500J0D01*
G01*
G37*
G36*
G01*
X151578500Y-61058000D02*
X151403500Y-61058000D01*
G75*
G02*
X151316000Y-60970500I0J87500D01*
G01*
X151316000Y-60170500D01*
G75*
G02*
X151403500Y-60083000I87500J0D01*
G01*
X151578500Y-60083000D01*
G75*
G02*
X151666000Y-60170500I0J-87500D01*
G01*
X151666000Y-60970500D01*
G75*
G02*
X151578500Y-61058000I-87500J0D01*
G01*
G37*
G36*
G01*
X151078500Y-61058000D02*
X150903500Y-61058000D01*
G75*
G02*
X150816000Y-60970500I0J87500D01*
G01*
X150816000Y-60170500D01*
G75*
G02*
X150903500Y-60083000I87500J0D01*
G01*
X151078500Y-60083000D01*
G75*
G02*
X151166000Y-60170500I0J-87500D01*
G01*
X151166000Y-60970500D01*
G75*
G02*
X151078500Y-61058000I-87500J0D01*
G01*
G37*
G36*
G01*
X150578500Y-61058000D02*
X150403500Y-61058000D01*
G75*
G02*
X150316000Y-60970500I0J87500D01*
G01*
X150316000Y-60170500D01*
G75*
G02*
X150403500Y-60083000I87500J0D01*
G01*
X150578500Y-60083000D01*
G75*
G02*
X150666000Y-60170500I0J-87500D01*
G01*
X150666000Y-60970500D01*
G75*
G02*
X150578500Y-61058000I-87500J0D01*
G01*
G37*
G36*
G01*
X150078500Y-61058000D02*
X149903500Y-61058000D01*
G75*
G02*
X149816000Y-60970500I0J87500D01*
G01*
X149816000Y-60170500D01*
G75*
G02*
X149903500Y-60083000I87500J0D01*
G01*
X150078500Y-60083000D01*
G75*
G02*
X150166000Y-60170500I0J-87500D01*
G01*
X150166000Y-60970500D01*
G75*
G02*
X150078500Y-61058000I-87500J0D01*
G01*
G37*
G36*
G01*
X149578500Y-61058000D02*
X149403500Y-61058000D01*
G75*
G02*
X149316000Y-60970500I0J87500D01*
G01*
X149316000Y-60170500D01*
G75*
G02*
X149403500Y-60083000I87500J0D01*
G01*
X149578500Y-60083000D01*
G75*
G02*
X149666000Y-60170500I0J-87500D01*
G01*
X149666000Y-60970500D01*
G75*
G02*
X149578500Y-61058000I-87500J0D01*
G01*
G37*
G36*
G01*
X149078500Y-61058000D02*
X148903500Y-61058000D01*
G75*
G02*
X148816000Y-60970500I0J87500D01*
G01*
X148816000Y-60170500D01*
G75*
G02*
X148903500Y-60083000I87500J0D01*
G01*
X149078500Y-60083000D01*
G75*
G02*
X149166000Y-60170500I0J-87500D01*
G01*
X149166000Y-60970500D01*
G75*
G02*
X149078500Y-61058000I-87500J0D01*
G01*
G37*
G36*
G01*
X148578500Y-61058000D02*
X148403500Y-61058000D01*
G75*
G02*
X148316000Y-60970500I0J87500D01*
G01*
X148316000Y-60170500D01*
G75*
G02*
X148403500Y-60083000I87500J0D01*
G01*
X148578500Y-60083000D01*
G75*
G02*
X148666000Y-60170500I0J-87500D01*
G01*
X148666000Y-60970500D01*
G75*
G02*
X148578500Y-61058000I-87500J0D01*
G01*
G37*
G36*
G01*
X148078500Y-61058000D02*
X147903500Y-61058000D01*
G75*
G02*
X147816000Y-60970500I0J87500D01*
G01*
X147816000Y-60170500D01*
G75*
G02*
X147903500Y-60083000I87500J0D01*
G01*
X148078500Y-60083000D01*
G75*
G02*
X148166000Y-60170500I0J-87500D01*
G01*
X148166000Y-60970500D01*
G75*
G02*
X148078500Y-61058000I-87500J0D01*
G01*
G37*
G36*
G01*
X147578500Y-61058000D02*
X147403500Y-61058000D01*
G75*
G02*
X147316000Y-60970500I0J87500D01*
G01*
X147316000Y-60170500D01*
G75*
G02*
X147403500Y-60083000I87500J0D01*
G01*
X147578500Y-60083000D01*
G75*
G02*
X147666000Y-60170500I0J-87500D01*
G01*
X147666000Y-60970500D01*
G75*
G02*
X147578500Y-61058000I-87500J0D01*
G01*
G37*
G36*
G01*
X147203500Y-61433000D02*
X146403500Y-61433000D01*
G75*
G02*
X146316000Y-61345500I0J87500D01*
G01*
X146316000Y-61170500D01*
G75*
G02*
X146403500Y-61083000I87500J0D01*
G01*
X147203500Y-61083000D01*
G75*
G02*
X147291000Y-61170500I0J-87500D01*
G01*
X147291000Y-61345500D01*
G75*
G02*
X147203500Y-61433000I-87500J0D01*
G01*
G37*
G36*
G01*
X147203500Y-61933000D02*
X146403500Y-61933000D01*
G75*
G02*
X146316000Y-61845500I0J87500D01*
G01*
X146316000Y-61670500D01*
G75*
G02*
X146403500Y-61583000I87500J0D01*
G01*
X147203500Y-61583000D01*
G75*
G02*
X147291000Y-61670500I0J-87500D01*
G01*
X147291000Y-61845500D01*
G75*
G02*
X147203500Y-61933000I-87500J0D01*
G01*
G37*
G36*
G01*
X147203500Y-62433000D02*
X146403500Y-62433000D01*
G75*
G02*
X146316000Y-62345500I0J87500D01*
G01*
X146316000Y-62170500D01*
G75*
G02*
X146403500Y-62083000I87500J0D01*
G01*
X147203500Y-62083000D01*
G75*
G02*
X147291000Y-62170500I0J-87500D01*
G01*
X147291000Y-62345500D01*
G75*
G02*
X147203500Y-62433000I-87500J0D01*
G01*
G37*
G36*
G01*
X147203500Y-62933000D02*
X146403500Y-62933000D01*
G75*
G02*
X146316000Y-62845500I0J87500D01*
G01*
X146316000Y-62670500D01*
G75*
G02*
X146403500Y-62583000I87500J0D01*
G01*
X147203500Y-62583000D01*
G75*
G02*
X147291000Y-62670500I0J-87500D01*
G01*
X147291000Y-62845500D01*
G75*
G02*
X147203500Y-62933000I-87500J0D01*
G01*
G37*
G36*
G01*
X147203500Y-63433000D02*
X146403500Y-63433000D01*
G75*
G02*
X146316000Y-63345500I0J87500D01*
G01*
X146316000Y-63170500D01*
G75*
G02*
X146403500Y-63083000I87500J0D01*
G01*
X147203500Y-63083000D01*
G75*
G02*
X147291000Y-63170500I0J-87500D01*
G01*
X147291000Y-63345500D01*
G75*
G02*
X147203500Y-63433000I-87500J0D01*
G01*
G37*
G36*
G01*
X147203500Y-63933000D02*
X146403500Y-63933000D01*
G75*
G02*
X146316000Y-63845500I0J87500D01*
G01*
X146316000Y-63670500D01*
G75*
G02*
X146403500Y-63583000I87500J0D01*
G01*
X147203500Y-63583000D01*
G75*
G02*
X147291000Y-63670500I0J-87500D01*
G01*
X147291000Y-63845500D01*
G75*
G02*
X147203500Y-63933000I-87500J0D01*
G01*
G37*
G36*
G01*
X147203500Y-64433000D02*
X146403500Y-64433000D01*
G75*
G02*
X146316000Y-64345500I0J87500D01*
G01*
X146316000Y-64170500D01*
G75*
G02*
X146403500Y-64083000I87500J0D01*
G01*
X147203500Y-64083000D01*
G75*
G02*
X147291000Y-64170500I0J-87500D01*
G01*
X147291000Y-64345500D01*
G75*
G02*
X147203500Y-64433000I-87500J0D01*
G01*
G37*
G36*
G01*
X147203500Y-64933000D02*
X146403500Y-64933000D01*
G75*
G02*
X146316000Y-64845500I0J87500D01*
G01*
X146316000Y-64670500D01*
G75*
G02*
X146403500Y-64583000I87500J0D01*
G01*
X147203500Y-64583000D01*
G75*
G02*
X147291000Y-64670500I0J-87500D01*
G01*
X147291000Y-64845500D01*
G75*
G02*
X147203500Y-64933000I-87500J0D01*
G01*
G37*
G36*
G01*
X147203500Y-65433000D02*
X146403500Y-65433000D01*
G75*
G02*
X146316000Y-65345500I0J87500D01*
G01*
X146316000Y-65170500D01*
G75*
G02*
X146403500Y-65083000I87500J0D01*
G01*
X147203500Y-65083000D01*
G75*
G02*
X147291000Y-65170500I0J-87500D01*
G01*
X147291000Y-65345500D01*
G75*
G02*
X147203500Y-65433000I-87500J0D01*
G01*
G37*
G36*
G01*
X147203500Y-65933000D02*
X146403500Y-65933000D01*
G75*
G02*
X146316000Y-65845500I0J87500D01*
G01*
X146316000Y-65670500D01*
G75*
G02*
X146403500Y-65583000I87500J0D01*
G01*
X147203500Y-65583000D01*
G75*
G02*
X147291000Y-65670500I0J-87500D01*
G01*
X147291000Y-65845500D01*
G75*
G02*
X147203500Y-65933000I-87500J0D01*
G01*
G37*
G36*
G01*
X147203500Y-66433000D02*
X146403500Y-66433000D01*
G75*
G02*
X146316000Y-66345500I0J87500D01*
G01*
X146316000Y-66170500D01*
G75*
G02*
X146403500Y-66083000I87500J0D01*
G01*
X147203500Y-66083000D01*
G75*
G02*
X147291000Y-66170500I0J-87500D01*
G01*
X147291000Y-66345500D01*
G75*
G02*
X147203500Y-66433000I-87500J0D01*
G01*
G37*
G36*
G01*
X147203500Y-66933000D02*
X146403500Y-66933000D01*
G75*
G02*
X146316000Y-66845500I0J87500D01*
G01*
X146316000Y-66670500D01*
G75*
G02*
X146403500Y-66583000I87500J0D01*
G01*
X147203500Y-66583000D01*
G75*
G02*
X147291000Y-66670500I0J-87500D01*
G01*
X147291000Y-66845500D01*
G75*
G02*
X147203500Y-66933000I-87500J0D01*
G01*
G37*
G36*
G01*
X147578500Y-67933000D02*
X147403500Y-67933000D01*
G75*
G02*
X147316000Y-67845500I0J87500D01*
G01*
X147316000Y-67045500D01*
G75*
G02*
X147403500Y-66958000I87500J0D01*
G01*
X147578500Y-66958000D01*
G75*
G02*
X147666000Y-67045500I0J-87500D01*
G01*
X147666000Y-67845500D01*
G75*
G02*
X147578500Y-67933000I-87500J0D01*
G01*
G37*
G36*
G01*
X148078500Y-67933000D02*
X147903500Y-67933000D01*
G75*
G02*
X147816000Y-67845500I0J87500D01*
G01*
X147816000Y-67045500D01*
G75*
G02*
X147903500Y-66958000I87500J0D01*
G01*
X148078500Y-66958000D01*
G75*
G02*
X148166000Y-67045500I0J-87500D01*
G01*
X148166000Y-67845500D01*
G75*
G02*
X148078500Y-67933000I-87500J0D01*
G01*
G37*
G36*
G01*
X148578500Y-67933000D02*
X148403500Y-67933000D01*
G75*
G02*
X148316000Y-67845500I0J87500D01*
G01*
X148316000Y-67045500D01*
G75*
G02*
X148403500Y-66958000I87500J0D01*
G01*
X148578500Y-66958000D01*
G75*
G02*
X148666000Y-67045500I0J-87500D01*
G01*
X148666000Y-67845500D01*
G75*
G02*
X148578500Y-67933000I-87500J0D01*
G01*
G37*
G36*
G01*
X149078500Y-67933000D02*
X148903500Y-67933000D01*
G75*
G02*
X148816000Y-67845500I0J87500D01*
G01*
X148816000Y-67045500D01*
G75*
G02*
X148903500Y-66958000I87500J0D01*
G01*
X149078500Y-66958000D01*
G75*
G02*
X149166000Y-67045500I0J-87500D01*
G01*
X149166000Y-67845500D01*
G75*
G02*
X149078500Y-67933000I-87500J0D01*
G01*
G37*
G36*
G01*
X149578500Y-67933000D02*
X149403500Y-67933000D01*
G75*
G02*
X149316000Y-67845500I0J87500D01*
G01*
X149316000Y-67045500D01*
G75*
G02*
X149403500Y-66958000I87500J0D01*
G01*
X149578500Y-66958000D01*
G75*
G02*
X149666000Y-67045500I0J-87500D01*
G01*
X149666000Y-67845500D01*
G75*
G02*
X149578500Y-67933000I-87500J0D01*
G01*
G37*
G36*
G01*
X150078500Y-67933000D02*
X149903500Y-67933000D01*
G75*
G02*
X149816000Y-67845500I0J87500D01*
G01*
X149816000Y-67045500D01*
G75*
G02*
X149903500Y-66958000I87500J0D01*
G01*
X150078500Y-66958000D01*
G75*
G02*
X150166000Y-67045500I0J-87500D01*
G01*
X150166000Y-67845500D01*
G75*
G02*
X150078500Y-67933000I-87500J0D01*
G01*
G37*
G36*
G01*
X150578500Y-67933000D02*
X150403500Y-67933000D01*
G75*
G02*
X150316000Y-67845500I0J87500D01*
G01*
X150316000Y-67045500D01*
G75*
G02*
X150403500Y-66958000I87500J0D01*
G01*
X150578500Y-66958000D01*
G75*
G02*
X150666000Y-67045500I0J-87500D01*
G01*
X150666000Y-67845500D01*
G75*
G02*
X150578500Y-67933000I-87500J0D01*
G01*
G37*
G36*
G01*
X151078500Y-67933000D02*
X150903500Y-67933000D01*
G75*
G02*
X150816000Y-67845500I0J87500D01*
G01*
X150816000Y-67045500D01*
G75*
G02*
X150903500Y-66958000I87500J0D01*
G01*
X151078500Y-66958000D01*
G75*
G02*
X151166000Y-67045500I0J-87500D01*
G01*
X151166000Y-67845500D01*
G75*
G02*
X151078500Y-67933000I-87500J0D01*
G01*
G37*
G36*
G01*
X151578500Y-67933000D02*
X151403500Y-67933000D01*
G75*
G02*
X151316000Y-67845500I0J87500D01*
G01*
X151316000Y-67045500D01*
G75*
G02*
X151403500Y-66958000I87500J0D01*
G01*
X151578500Y-66958000D01*
G75*
G02*
X151666000Y-67045500I0J-87500D01*
G01*
X151666000Y-67845500D01*
G75*
G02*
X151578500Y-67933000I-87500J0D01*
G01*
G37*
G36*
G01*
X152078500Y-67933000D02*
X151903500Y-67933000D01*
G75*
G02*
X151816000Y-67845500I0J87500D01*
G01*
X151816000Y-67045500D01*
G75*
G02*
X151903500Y-66958000I87500J0D01*
G01*
X152078500Y-66958000D01*
G75*
G02*
X152166000Y-67045500I0J-87500D01*
G01*
X152166000Y-67845500D01*
G75*
G02*
X152078500Y-67933000I-87500J0D01*
G01*
G37*
G36*
G01*
X152578500Y-67933000D02*
X152403500Y-67933000D01*
G75*
G02*
X152316000Y-67845500I0J87500D01*
G01*
X152316000Y-67045500D01*
G75*
G02*
X152403500Y-66958000I87500J0D01*
G01*
X152578500Y-66958000D01*
G75*
G02*
X152666000Y-67045500I0J-87500D01*
G01*
X152666000Y-67845500D01*
G75*
G02*
X152578500Y-67933000I-87500J0D01*
G01*
G37*
G36*
G01*
X153078500Y-67933000D02*
X152903500Y-67933000D01*
G75*
G02*
X152816000Y-67845500I0J87500D01*
G01*
X152816000Y-67045500D01*
G75*
G02*
X152903500Y-66958000I87500J0D01*
G01*
X153078500Y-66958000D01*
G75*
G02*
X153166000Y-67045500I0J-87500D01*
G01*
X153166000Y-67845500D01*
G75*
G02*
X153078500Y-67933000I-87500J0D01*
G01*
G37*
%TD*%
D17*
%TO.C,FL1*%
X126174000Y-118646000D03*
X130874000Y-118646000D03*
X130874000Y-122146000D03*
X126174000Y-122146000D03*
%TD*%
%TO.C,UART_FTDI0*%
G36*
G01*
X195744405Y-127237000D02*
X198320595Y-127237000D01*
G75*
G02*
X198582500Y-127498905I0J-261905D01*
G01*
X198582500Y-129175095D01*
G75*
G02*
X198320595Y-129437000I-261905J0D01*
G01*
X195744405Y-129437000D01*
G75*
G02*
X195482500Y-129175095I0J261905D01*
G01*
X195482500Y-127498905D01*
G75*
G02*
X195744405Y-127237000I261905J0D01*
G01*
G37*
G36*
G01*
X195744405Y-113387000D02*
X198320595Y-113387000D01*
G75*
G02*
X198582500Y-113648905I0J-261905D01*
G01*
X198582500Y-115325095D01*
G75*
G02*
X198320595Y-115587000I-261905J0D01*
G01*
X195744405Y-115587000D01*
G75*
G02*
X195482500Y-115325095I0J261905D01*
G01*
X195482500Y-113648905D01*
G75*
G02*
X195744405Y-113387000I261905J0D01*
G01*
G37*
G36*
G01*
X193507500Y-125337000D02*
X194757500Y-125337000D01*
G75*
G02*
X194982500Y-125562000I0J-225000D01*
G01*
X194982500Y-126012000D01*
G75*
G02*
X194757500Y-126237000I-225000J0D01*
G01*
X193507500Y-126237000D01*
G75*
G02*
X193282500Y-126012000I0J225000D01*
G01*
X193282500Y-125562000D01*
G75*
G02*
X193507500Y-125337000I225000J0D01*
G01*
G37*
G36*
G01*
X193507500Y-124087000D02*
X194757500Y-124087000D01*
G75*
G02*
X194982500Y-124312000I0J-225000D01*
G01*
X194982500Y-124762000D01*
G75*
G02*
X194757500Y-124987000I-225000J0D01*
G01*
X193507500Y-124987000D01*
G75*
G02*
X193282500Y-124762000I0J225000D01*
G01*
X193282500Y-124312000D01*
G75*
G02*
X193507500Y-124087000I225000J0D01*
G01*
G37*
G36*
G01*
X193507500Y-122837000D02*
X194757500Y-122837000D01*
G75*
G02*
X194982500Y-123062000I0J-225000D01*
G01*
X194982500Y-123512000D01*
G75*
G02*
X194757500Y-123737000I-225000J0D01*
G01*
X193507500Y-123737000D01*
G75*
G02*
X193282500Y-123512000I0J225000D01*
G01*
X193282500Y-123062000D01*
G75*
G02*
X193507500Y-122837000I225000J0D01*
G01*
G37*
G36*
G01*
X193507500Y-121587000D02*
X194757500Y-121587000D01*
G75*
G02*
X194982500Y-121812000I0J-225000D01*
G01*
X194982500Y-122262000D01*
G75*
G02*
X194757500Y-122487000I-225000J0D01*
G01*
X193507500Y-122487000D01*
G75*
G02*
X193282500Y-122262000I0J225000D01*
G01*
X193282500Y-121812000D01*
G75*
G02*
X193507500Y-121587000I225000J0D01*
G01*
G37*
G36*
G01*
X193507500Y-120337000D02*
X194757500Y-120337000D01*
G75*
G02*
X194982500Y-120562000I0J-225000D01*
G01*
X194982500Y-121012000D01*
G75*
G02*
X194757500Y-121237000I-225000J0D01*
G01*
X193507500Y-121237000D01*
G75*
G02*
X193282500Y-121012000I0J225000D01*
G01*
X193282500Y-120562000D01*
G75*
G02*
X193507500Y-120337000I225000J0D01*
G01*
G37*
G36*
G01*
X193507500Y-119087000D02*
X194757500Y-119087000D01*
G75*
G02*
X194982500Y-119312000I0J-225000D01*
G01*
X194982500Y-119762000D01*
G75*
G02*
X194757500Y-119987000I-225000J0D01*
G01*
X193507500Y-119987000D01*
G75*
G02*
X193282500Y-119762000I0J225000D01*
G01*
X193282500Y-119312000D01*
G75*
G02*
X193507500Y-119087000I225000J0D01*
G01*
G37*
G36*
G01*
X193507500Y-117837000D02*
X194757500Y-117837000D01*
G75*
G02*
X194982500Y-118062000I0J-225000D01*
G01*
X194982500Y-118512000D01*
G75*
G02*
X194757500Y-118737000I-225000J0D01*
G01*
X193507500Y-118737000D01*
G75*
G02*
X193282500Y-118512000I0J225000D01*
G01*
X193282500Y-118062000D01*
G75*
G02*
X193507500Y-117837000I225000J0D01*
G01*
G37*
G36*
G01*
X193507500Y-116587000D02*
X194757500Y-116587000D01*
G75*
G02*
X194982500Y-116812000I0J-225000D01*
G01*
X194982500Y-117262000D01*
G75*
G02*
X194757500Y-117487000I-225000J0D01*
G01*
X193507500Y-117487000D01*
G75*
G02*
X193282500Y-117262000I0J225000D01*
G01*
X193282500Y-116812000D01*
G75*
G02*
X193507500Y-116587000I225000J0D01*
G01*
G37*
%TD*%
D23*
%TO.C,H1*%
X110734001Y-55792998D03*
%TD*%
%TO.C,H2*%
X196464001Y-133262997D03*
%TD*%
%TO.C,H3*%
X196464001Y-53252998D03*
%TD*%
%TO.C,H4*%
X110734001Y-129452998D03*
%TD*%
%TO.C,L9*%
G36*
G01*
X176111000Y-131990000D02*
X173901000Y-131990000D01*
G75*
G02*
X173631000Y-131720000I0J270000D01*
G01*
X173631000Y-130910000D01*
G75*
G02*
X173901000Y-130640000I270000J0D01*
G01*
X176111000Y-130640000D01*
G75*
G02*
X176381000Y-130910000I0J-270000D01*
G01*
X176381000Y-131720000D01*
G75*
G02*
X176111000Y-131990000I-270000J0D01*
G01*
G37*
G36*
G01*
X176111000Y-134790000D02*
X173901000Y-134790000D01*
G75*
G02*
X173631000Y-134520000I0J270000D01*
G01*
X173631000Y-133710000D01*
G75*
G02*
X173901000Y-133440000I270000J0D01*
G01*
X176111000Y-133440000D01*
G75*
G02*
X176381000Y-133710000I0J-270000D01*
G01*
X176381000Y-134520000D01*
G75*
G02*
X176111000Y-134790000I-270000J0D01*
G01*
G37*
%TD*%
D24*
%TO.C,U17*%
X177943000Y-134874000D03*
X179943000Y-135824000D03*
X179943000Y-133924000D03*
%TD*%
D25*
%TO.C,U18*%
X176532000Y-126186000D03*
X176532000Y-125686000D03*
X176532000Y-125186000D03*
X176532000Y-124686000D03*
X176532000Y-124186000D03*
X176532000Y-123686000D03*
X176532000Y-123186000D03*
X176532000Y-122686000D03*
X176532000Y-122186000D03*
X176532000Y-121686000D03*
X176532000Y-121186000D03*
X176532000Y-120686000D03*
X176532000Y-120186000D03*
X176532000Y-119686000D03*
D26*
X177217000Y-119001000D03*
X177717000Y-119001000D03*
X178217000Y-119001000D03*
X178717000Y-119001000D03*
X179217000Y-119001000D03*
X179717000Y-119001000D03*
X180217000Y-119001000D03*
X180717000Y-119001000D03*
X181217000Y-119001000D03*
X181717000Y-119001000D03*
X182217000Y-119001000D03*
X182717000Y-119001000D03*
X183217000Y-119001000D03*
X183717000Y-119001000D03*
D25*
X184402000Y-119686000D03*
X184402000Y-120186000D03*
X184402000Y-120686000D03*
X184402000Y-121186000D03*
X184402000Y-121686000D03*
X184402000Y-122186000D03*
X184402000Y-122686000D03*
X184402000Y-123186000D03*
X184402000Y-123686000D03*
X184402000Y-124186000D03*
X184402000Y-124686000D03*
X184402000Y-125186000D03*
X184402000Y-125686000D03*
X184402000Y-126186000D03*
D26*
X183717000Y-126871000D03*
X183217000Y-126871000D03*
X182717000Y-126871000D03*
X182217000Y-126871000D03*
X181717000Y-126871000D03*
X181217000Y-126871000D03*
X180717000Y-126871000D03*
X180217000Y-126871000D03*
X179717000Y-126871000D03*
X179217000Y-126871000D03*
X178717000Y-126871000D03*
X178217000Y-126871000D03*
X177717000Y-126871000D03*
X177217000Y-126871000D03*
D27*
X180467000Y-122936000D03*
%TD*%
%TO.C,USB0*%
G36*
G01*
X162600500Y-132307905D02*
X162600500Y-134884095D01*
G75*
G02*
X162338595Y-135146000I-261905J0D01*
G01*
X160662405Y-135146000D01*
G75*
G02*
X160400500Y-134884095I0J261905D01*
G01*
X160400500Y-132307905D01*
G75*
G02*
X160662405Y-132046000I261905J0D01*
G01*
X162338595Y-132046000D01*
G75*
G02*
X162600500Y-132307905I0J-261905D01*
G01*
G37*
G36*
G01*
X171450500Y-132307905D02*
X171450500Y-134884095D01*
G75*
G02*
X171188595Y-135146000I-261905J0D01*
G01*
X169512405Y-135146000D01*
G75*
G02*
X169250500Y-134884095I0J261905D01*
G01*
X169250500Y-132307905D01*
G75*
G02*
X169512405Y-132046000I261905J0D01*
G01*
X171188595Y-132046000D01*
G75*
G02*
X171450500Y-132307905I0J-261905D01*
G01*
G37*
G36*
G01*
X164500500Y-130071000D02*
X164500500Y-131321000D01*
G75*
G02*
X164275500Y-131546000I-225000J0D01*
G01*
X163825500Y-131546000D01*
G75*
G02*
X163600500Y-131321000I0J225000D01*
G01*
X163600500Y-130071000D01*
G75*
G02*
X163825500Y-129846000I225000J0D01*
G01*
X164275500Y-129846000D01*
G75*
G02*
X164500500Y-130071000I0J-225000D01*
G01*
G37*
G36*
G01*
X165750500Y-130071000D02*
X165750500Y-131321000D01*
G75*
G02*
X165525500Y-131546000I-225000J0D01*
G01*
X165075500Y-131546000D01*
G75*
G02*
X164850500Y-131321000I0J225000D01*
G01*
X164850500Y-130071000D01*
G75*
G02*
X165075500Y-129846000I225000J0D01*
G01*
X165525500Y-129846000D01*
G75*
G02*
X165750500Y-130071000I0J-225000D01*
G01*
G37*
G36*
G01*
X167000500Y-130071000D02*
X167000500Y-131321000D01*
G75*
G02*
X166775500Y-131546000I-225000J0D01*
G01*
X166325500Y-131546000D01*
G75*
G02*
X166100500Y-131321000I0J225000D01*
G01*
X166100500Y-130071000D01*
G75*
G02*
X166325500Y-129846000I225000J0D01*
G01*
X166775500Y-129846000D01*
G75*
G02*
X167000500Y-130071000I0J-225000D01*
G01*
G37*
G36*
G01*
X168250500Y-130071000D02*
X168250500Y-131321000D01*
G75*
G02*
X168025500Y-131546000I-225000J0D01*
G01*
X167575500Y-131546000D01*
G75*
G02*
X167350500Y-131321000I0J225000D01*
G01*
X167350500Y-130071000D01*
G75*
G02*
X167575500Y-129846000I225000J0D01*
G01*
X168025500Y-129846000D01*
G75*
G02*
X168250500Y-130071000I0J-225000D01*
G01*
G37*
%TD*%
D28*
%TO.C,Y2*%
X169783000Y-125729000D03*
X169783000Y-122429000D03*
X167783000Y-122429000D03*
X167783000Y-125729000D03*
%TD*%
D29*
%TO.C,Y1*%
X159893000Y-67793000D03*
X159893000Y-61493000D03*
%TD*%
D30*
%TO.C,Y3*%
X148061500Y-122096000D03*
X150261500Y-122096000D03*
X150261500Y-120396000D03*
X148061500Y-120396000D03*
%TD*%
D31*
%TO.C,Y4*%
X157289500Y-122809000D03*
X154789500Y-122809000D03*
%TD*%
%TO.C,UART2*%
G36*
G01*
X166385000Y-52858095D02*
X166385000Y-50281905D01*
G75*
G02*
X166646905Y-50020000I261905J0D01*
G01*
X168323095Y-50020000D01*
G75*
G02*
X168585000Y-50281905I0J-261905D01*
G01*
X168585000Y-52858095D01*
G75*
G02*
X168323095Y-53120000I-261905J0D01*
G01*
X166646905Y-53120000D01*
G75*
G02*
X166385000Y-52858095I0J261905D01*
G01*
G37*
G36*
G01*
X157535000Y-52858095D02*
X157535000Y-50281905D01*
G75*
G02*
X157796905Y-50020000I261905J0D01*
G01*
X159473095Y-50020000D01*
G75*
G02*
X159735000Y-50281905I0J-261905D01*
G01*
X159735000Y-52858095D01*
G75*
G02*
X159473095Y-53120000I-261905J0D01*
G01*
X157796905Y-53120000D01*
G75*
G02*
X157535000Y-52858095I0J261905D01*
G01*
G37*
G36*
G01*
X164485000Y-55095000D02*
X164485000Y-53845000D01*
G75*
G02*
X164710000Y-53620000I225000J0D01*
G01*
X165160000Y-53620000D01*
G75*
G02*
X165385000Y-53845000I0J-225000D01*
G01*
X165385000Y-55095000D01*
G75*
G02*
X165160000Y-55320000I-225000J0D01*
G01*
X164710000Y-55320000D01*
G75*
G02*
X164485000Y-55095000I0J225000D01*
G01*
G37*
G36*
G01*
X163235000Y-55095000D02*
X163235000Y-53845000D01*
G75*
G02*
X163460000Y-53620000I225000J0D01*
G01*
X163910000Y-53620000D01*
G75*
G02*
X164135000Y-53845000I0J-225000D01*
G01*
X164135000Y-55095000D01*
G75*
G02*
X163910000Y-55320000I-225000J0D01*
G01*
X163460000Y-55320000D01*
G75*
G02*
X163235000Y-55095000I0J225000D01*
G01*
G37*
G36*
G01*
X161985000Y-55095000D02*
X161985000Y-53845000D01*
G75*
G02*
X162210000Y-53620000I225000J0D01*
G01*
X162660000Y-53620000D01*
G75*
G02*
X162885000Y-53845000I0J-225000D01*
G01*
X162885000Y-55095000D01*
G75*
G02*
X162660000Y-55320000I-225000J0D01*
G01*
X162210000Y-55320000D01*
G75*
G02*
X161985000Y-55095000I0J225000D01*
G01*
G37*
G36*
G01*
X160735000Y-55095000D02*
X160735000Y-53845000D01*
G75*
G02*
X160960000Y-53620000I225000J0D01*
G01*
X161410000Y-53620000D01*
G75*
G02*
X161635000Y-53845000I0J-225000D01*
G01*
X161635000Y-55095000D01*
G75*
G02*
X161410000Y-55320000I-225000J0D01*
G01*
X160960000Y-55320000D01*
G75*
G02*
X160735000Y-55095000I0J225000D01*
G01*
G37*
%TD*%
%TO.C,UART1*%
G36*
G01*
X153685000Y-52858095D02*
X153685000Y-50281905D01*
G75*
G02*
X153946905Y-50020000I261905J0D01*
G01*
X155623095Y-50020000D01*
G75*
G02*
X155885000Y-50281905I0J-261905D01*
G01*
X155885000Y-52858095D01*
G75*
G02*
X155623095Y-53120000I-261905J0D01*
G01*
X153946905Y-53120000D01*
G75*
G02*
X153685000Y-52858095I0J261905D01*
G01*
G37*
G36*
G01*
X144835000Y-52858095D02*
X144835000Y-50281905D01*
G75*
G02*
X145096905Y-50020000I261905J0D01*
G01*
X146773095Y-50020000D01*
G75*
G02*
X147035000Y-50281905I0J-261905D01*
G01*
X147035000Y-52858095D01*
G75*
G02*
X146773095Y-53120000I-261905J0D01*
G01*
X145096905Y-53120000D01*
G75*
G02*
X144835000Y-52858095I0J261905D01*
G01*
G37*
G36*
G01*
X151785000Y-55095000D02*
X151785000Y-53845000D01*
G75*
G02*
X152010000Y-53620000I225000J0D01*
G01*
X152460000Y-53620000D01*
G75*
G02*
X152685000Y-53845000I0J-225000D01*
G01*
X152685000Y-55095000D01*
G75*
G02*
X152460000Y-55320000I-225000J0D01*
G01*
X152010000Y-55320000D01*
G75*
G02*
X151785000Y-55095000I0J225000D01*
G01*
G37*
G36*
G01*
X150535000Y-55095000D02*
X150535000Y-53845000D01*
G75*
G02*
X150760000Y-53620000I225000J0D01*
G01*
X151210000Y-53620000D01*
G75*
G02*
X151435000Y-53845000I0J-225000D01*
G01*
X151435000Y-55095000D01*
G75*
G02*
X151210000Y-55320000I-225000J0D01*
G01*
X150760000Y-55320000D01*
G75*
G02*
X150535000Y-55095000I0J225000D01*
G01*
G37*
G36*
G01*
X149285000Y-55095000D02*
X149285000Y-53845000D01*
G75*
G02*
X149510000Y-53620000I225000J0D01*
G01*
X149960000Y-53620000D01*
G75*
G02*
X150185000Y-53845000I0J-225000D01*
G01*
X150185000Y-55095000D01*
G75*
G02*
X149960000Y-55320000I-225000J0D01*
G01*
X149510000Y-55320000D01*
G75*
G02*
X149285000Y-55095000I0J225000D01*
G01*
G37*
G36*
G01*
X148035000Y-55095000D02*
X148035000Y-53845000D01*
G75*
G02*
X148260000Y-53620000I225000J0D01*
G01*
X148710000Y-53620000D01*
G75*
G02*
X148935000Y-53845000I0J-225000D01*
G01*
X148935000Y-55095000D01*
G75*
G02*
X148710000Y-55320000I-225000J0D01*
G01*
X148260000Y-55320000D01*
G75*
G02*
X148035000Y-55095000I0J225000D01*
G01*
G37*
%TD*%
D32*
%TO.C,J10*%
X130416300Y-72751560D03*
X130416300Y-81751560D03*
%TD*%
%TO.C,J9*%
X130411220Y-116437020D03*
X130411220Y-125437020D03*
%TD*%
%TO.C,TEMP3*%
G36*
G01*
X193507500Y-89603000D02*
X194757500Y-89603000D01*
G75*
G02*
X194982500Y-89828000I0J-225000D01*
G01*
X194982500Y-90278000D01*
G75*
G02*
X194757500Y-90503000I-225000J0D01*
G01*
X193507500Y-90503000D01*
G75*
G02*
X193282500Y-90278000I0J225000D01*
G01*
X193282500Y-89828000D01*
G75*
G02*
X193507500Y-89603000I225000J0D01*
G01*
G37*
G36*
G01*
X193507500Y-90853000D02*
X194757500Y-90853000D01*
G75*
G02*
X194982500Y-91078000I0J-225000D01*
G01*
X194982500Y-91528000D01*
G75*
G02*
X194757500Y-91753000I-225000J0D01*
G01*
X193507500Y-91753000D01*
G75*
G02*
X193282500Y-91528000I0J225000D01*
G01*
X193282500Y-91078000D01*
G75*
G02*
X193507500Y-90853000I225000J0D01*
G01*
G37*
G36*
G01*
X195744405Y-86403000D02*
X198320595Y-86403000D01*
G75*
G02*
X198582500Y-86664905I0J-261905D01*
G01*
X198582500Y-88341095D01*
G75*
G02*
X198320595Y-88603000I-261905J0D01*
G01*
X195744405Y-88603000D01*
G75*
G02*
X195482500Y-88341095I0J261905D01*
G01*
X195482500Y-86664905D01*
G75*
G02*
X195744405Y-86403000I261905J0D01*
G01*
G37*
G36*
G01*
X195744405Y-92753000D02*
X198320595Y-92753000D01*
G75*
G02*
X198582500Y-93014905I0J-261905D01*
G01*
X198582500Y-94691095D01*
G75*
G02*
X198320595Y-94953000I-261905J0D01*
G01*
X195744405Y-94953000D01*
G75*
G02*
X195482500Y-94691095I0J261905D01*
G01*
X195482500Y-93014905D01*
G75*
G02*
X195744405Y-92753000I261905J0D01*
G01*
G37*
%TD*%
%TO.C,TEMP0*%
G36*
G01*
X193507500Y-60647000D02*
X194757500Y-60647000D01*
G75*
G02*
X194982500Y-60872000I0J-225000D01*
G01*
X194982500Y-61322000D01*
G75*
G02*
X194757500Y-61547000I-225000J0D01*
G01*
X193507500Y-61547000D01*
G75*
G02*
X193282500Y-61322000I0J225000D01*
G01*
X193282500Y-60872000D01*
G75*
G02*
X193507500Y-60647000I225000J0D01*
G01*
G37*
G36*
G01*
X193507500Y-61897000D02*
X194757500Y-61897000D01*
G75*
G02*
X194982500Y-62122000I0J-225000D01*
G01*
X194982500Y-62572000D01*
G75*
G02*
X194757500Y-62797000I-225000J0D01*
G01*
X193507500Y-62797000D01*
G75*
G02*
X193282500Y-62572000I0J225000D01*
G01*
X193282500Y-62122000D01*
G75*
G02*
X193507500Y-61897000I225000J0D01*
G01*
G37*
G36*
G01*
X195744405Y-57447000D02*
X198320595Y-57447000D01*
G75*
G02*
X198582500Y-57708905I0J-261905D01*
G01*
X198582500Y-59385095D01*
G75*
G02*
X198320595Y-59647000I-261905J0D01*
G01*
X195744405Y-59647000D01*
G75*
G02*
X195482500Y-59385095I0J261905D01*
G01*
X195482500Y-57708905D01*
G75*
G02*
X195744405Y-57447000I261905J0D01*
G01*
G37*
G36*
G01*
X195744405Y-63797000D02*
X198320595Y-63797000D01*
G75*
G02*
X198582500Y-64058905I0J-261905D01*
G01*
X198582500Y-65735095D01*
G75*
G02*
X198320595Y-65997000I-261905J0D01*
G01*
X195744405Y-65997000D01*
G75*
G02*
X195482500Y-65735095I0J261905D01*
G01*
X195482500Y-64058905D01*
G75*
G02*
X195744405Y-63797000I261905J0D01*
G01*
G37*
%TD*%
%TO.C,TEMP2*%
G36*
G01*
X193507500Y-79951000D02*
X194757500Y-79951000D01*
G75*
G02*
X194982500Y-80176000I0J-225000D01*
G01*
X194982500Y-80626000D01*
G75*
G02*
X194757500Y-80851000I-225000J0D01*
G01*
X193507500Y-80851000D01*
G75*
G02*
X193282500Y-80626000I0J225000D01*
G01*
X193282500Y-80176000D01*
G75*
G02*
X193507500Y-79951000I225000J0D01*
G01*
G37*
G36*
G01*
X193507500Y-81201000D02*
X194757500Y-81201000D01*
G75*
G02*
X194982500Y-81426000I0J-225000D01*
G01*
X194982500Y-81876000D01*
G75*
G02*
X194757500Y-82101000I-225000J0D01*
G01*
X193507500Y-82101000D01*
G75*
G02*
X193282500Y-81876000I0J225000D01*
G01*
X193282500Y-81426000D01*
G75*
G02*
X193507500Y-81201000I225000J0D01*
G01*
G37*
G36*
G01*
X195744405Y-76751000D02*
X198320595Y-76751000D01*
G75*
G02*
X198582500Y-77012905I0J-261905D01*
G01*
X198582500Y-78689095D01*
G75*
G02*
X198320595Y-78951000I-261905J0D01*
G01*
X195744405Y-78951000D01*
G75*
G02*
X195482500Y-78689095I0J261905D01*
G01*
X195482500Y-77012905D01*
G75*
G02*
X195744405Y-76751000I261905J0D01*
G01*
G37*
G36*
G01*
X195744405Y-83101000D02*
X198320595Y-83101000D01*
G75*
G02*
X198582500Y-83362905I0J-261905D01*
G01*
X198582500Y-85039095D01*
G75*
G02*
X198320595Y-85301000I-261905J0D01*
G01*
X195744405Y-85301000D01*
G75*
G02*
X195482500Y-85039095I0J261905D01*
G01*
X195482500Y-83362905D01*
G75*
G02*
X195744405Y-83101000I261905J0D01*
G01*
G37*
%TD*%
%TO.C,TEMP1*%
G36*
G01*
X193507500Y-70299000D02*
X194757500Y-70299000D01*
G75*
G02*
X194982500Y-70524000I0J-225000D01*
G01*
X194982500Y-70974000D01*
G75*
G02*
X194757500Y-71199000I-225000J0D01*
G01*
X193507500Y-71199000D01*
G75*
G02*
X193282500Y-70974000I0J225000D01*
G01*
X193282500Y-70524000D01*
G75*
G02*
X193507500Y-70299000I225000J0D01*
G01*
G37*
G36*
G01*
X193507500Y-71549000D02*
X194757500Y-71549000D01*
G75*
G02*
X194982500Y-71774000I0J-225000D01*
G01*
X194982500Y-72224000D01*
G75*
G02*
X194757500Y-72449000I-225000J0D01*
G01*
X193507500Y-72449000D01*
G75*
G02*
X193282500Y-72224000I0J225000D01*
G01*
X193282500Y-71774000D01*
G75*
G02*
X193507500Y-71549000I225000J0D01*
G01*
G37*
G36*
G01*
X195744405Y-67099000D02*
X198320595Y-67099000D01*
G75*
G02*
X198582500Y-67360905I0J-261905D01*
G01*
X198582500Y-69037095D01*
G75*
G02*
X198320595Y-69299000I-261905J0D01*
G01*
X195744405Y-69299000D01*
G75*
G02*
X195482500Y-69037095I0J261905D01*
G01*
X195482500Y-67360905D01*
G75*
G02*
X195744405Y-67099000I261905J0D01*
G01*
G37*
G36*
G01*
X195744405Y-73449000D02*
X198320595Y-73449000D01*
G75*
G02*
X198582500Y-73710905I0J-261905D01*
G01*
X198582500Y-75387095D01*
G75*
G02*
X198320595Y-75649000I-261905J0D01*
G01*
X195744405Y-75649000D01*
G75*
G02*
X195482500Y-75387095I0J261905D01*
G01*
X195482500Y-73710905D01*
G75*
G02*
X195744405Y-73449000I261905J0D01*
G01*
G37*
%TD*%
%TO.C,ADC1*%
G36*
G01*
X143803000Y-130071000D02*
X143803000Y-131321000D01*
G75*
G02*
X143578000Y-131546000I-225000J0D01*
G01*
X143128000Y-131546000D01*
G75*
G02*
X142903000Y-131321000I0J225000D01*
G01*
X142903000Y-130071000D01*
G75*
G02*
X143128000Y-129846000I225000J0D01*
G01*
X143578000Y-129846000D01*
G75*
G02*
X143803000Y-130071000I0J-225000D01*
G01*
G37*
G36*
G01*
X142553000Y-130071000D02*
X142553000Y-131321000D01*
G75*
G02*
X142328000Y-131546000I-225000J0D01*
G01*
X141878000Y-131546000D01*
G75*
G02*
X141653000Y-131321000I0J225000D01*
G01*
X141653000Y-130071000D01*
G75*
G02*
X141878000Y-129846000I225000J0D01*
G01*
X142328000Y-129846000D01*
G75*
G02*
X142553000Y-130071000I0J-225000D01*
G01*
G37*
G36*
G01*
X141303000Y-130071000D02*
X141303000Y-131321000D01*
G75*
G02*
X141078000Y-131546000I-225000J0D01*
G01*
X140628000Y-131546000D01*
G75*
G02*
X140403000Y-131321000I0J225000D01*
G01*
X140403000Y-130071000D01*
G75*
G02*
X140628000Y-129846000I225000J0D01*
G01*
X141078000Y-129846000D01*
G75*
G02*
X141303000Y-130071000I0J-225000D01*
G01*
G37*
G36*
G01*
X140053000Y-130071000D02*
X140053000Y-131321000D01*
G75*
G02*
X139828000Y-131546000I-225000J0D01*
G01*
X139378000Y-131546000D01*
G75*
G02*
X139153000Y-131321000I0J225000D01*
G01*
X139153000Y-130071000D01*
G75*
G02*
X139378000Y-129846000I225000J0D01*
G01*
X139828000Y-129846000D01*
G75*
G02*
X140053000Y-130071000I0J-225000D01*
G01*
G37*
G36*
G01*
X147003000Y-132307905D02*
X147003000Y-134884095D01*
G75*
G02*
X146741095Y-135146000I-261905J0D01*
G01*
X145064905Y-135146000D01*
G75*
G02*
X144803000Y-134884095I0J261905D01*
G01*
X144803000Y-132307905D01*
G75*
G02*
X145064905Y-132046000I261905J0D01*
G01*
X146741095Y-132046000D01*
G75*
G02*
X147003000Y-132307905I0J-261905D01*
G01*
G37*
G36*
G01*
X138153000Y-132307905D02*
X138153000Y-134884095D01*
G75*
G02*
X137891095Y-135146000I-261905J0D01*
G01*
X136214905Y-135146000D01*
G75*
G02*
X135953000Y-134884095I0J261905D01*
G01*
X135953000Y-132307905D01*
G75*
G02*
X136214905Y-132046000I261905J0D01*
G01*
X137891095Y-132046000D01*
G75*
G02*
X138153000Y-132307905I0J-261905D01*
G01*
G37*
%TD*%
%TO.C,JTAG1*%
G36*
G01*
X193507500Y-99372000D02*
X194757500Y-99372000D01*
G75*
G02*
X194982500Y-99597000I0J-225000D01*
G01*
X194982500Y-100047000D01*
G75*
G02*
X194757500Y-100272000I-225000J0D01*
G01*
X193507500Y-100272000D01*
G75*
G02*
X193282500Y-100047000I0J225000D01*
G01*
X193282500Y-99597000D01*
G75*
G02*
X193507500Y-99372000I225000J0D01*
G01*
G37*
G36*
G01*
X193507500Y-100622000D02*
X194757500Y-100622000D01*
G75*
G02*
X194982500Y-100847000I0J-225000D01*
G01*
X194982500Y-101297000D01*
G75*
G02*
X194757500Y-101522000I-225000J0D01*
G01*
X193507500Y-101522000D01*
G75*
G02*
X193282500Y-101297000I0J225000D01*
G01*
X193282500Y-100847000D01*
G75*
G02*
X193507500Y-100622000I225000J0D01*
G01*
G37*
G36*
G01*
X193507500Y-101872000D02*
X194757500Y-101872000D01*
G75*
G02*
X194982500Y-102097000I0J-225000D01*
G01*
X194982500Y-102547000D01*
G75*
G02*
X194757500Y-102772000I-225000J0D01*
G01*
X193507500Y-102772000D01*
G75*
G02*
X193282500Y-102547000I0J225000D01*
G01*
X193282500Y-102097000D01*
G75*
G02*
X193507500Y-101872000I225000J0D01*
G01*
G37*
G36*
G01*
X193507500Y-103122000D02*
X194757500Y-103122000D01*
G75*
G02*
X194982500Y-103347000I0J-225000D01*
G01*
X194982500Y-103797000D01*
G75*
G02*
X194757500Y-104022000I-225000J0D01*
G01*
X193507500Y-104022000D01*
G75*
G02*
X193282500Y-103797000I0J225000D01*
G01*
X193282500Y-103347000D01*
G75*
G02*
X193507500Y-103122000I225000J0D01*
G01*
G37*
G36*
G01*
X193507500Y-104372000D02*
X194757500Y-104372000D01*
G75*
G02*
X194982500Y-104597000I0J-225000D01*
G01*
X194982500Y-105047000D01*
G75*
G02*
X194757500Y-105272000I-225000J0D01*
G01*
X193507500Y-105272000D01*
G75*
G02*
X193282500Y-105047000I0J225000D01*
G01*
X193282500Y-104597000D01*
G75*
G02*
X193507500Y-104372000I225000J0D01*
G01*
G37*
G36*
G01*
X193507500Y-105622000D02*
X194757500Y-105622000D01*
G75*
G02*
X194982500Y-105847000I0J-225000D01*
G01*
X194982500Y-106297000D01*
G75*
G02*
X194757500Y-106522000I-225000J0D01*
G01*
X193507500Y-106522000D01*
G75*
G02*
X193282500Y-106297000I0J225000D01*
G01*
X193282500Y-105847000D01*
G75*
G02*
X193507500Y-105622000I225000J0D01*
G01*
G37*
G36*
G01*
X193507500Y-106872000D02*
X194757500Y-106872000D01*
G75*
G02*
X194982500Y-107097000I0J-225000D01*
G01*
X194982500Y-107547000D01*
G75*
G02*
X194757500Y-107772000I-225000J0D01*
G01*
X193507500Y-107772000D01*
G75*
G02*
X193282500Y-107547000I0J225000D01*
G01*
X193282500Y-107097000D01*
G75*
G02*
X193507500Y-106872000I225000J0D01*
G01*
G37*
G36*
G01*
X193507500Y-108122000D02*
X194757500Y-108122000D01*
G75*
G02*
X194982500Y-108347000I0J-225000D01*
G01*
X194982500Y-108797000D01*
G75*
G02*
X194757500Y-109022000I-225000J0D01*
G01*
X193507500Y-109022000D01*
G75*
G02*
X193282500Y-108797000I0J225000D01*
G01*
X193282500Y-108347000D01*
G75*
G02*
X193507500Y-108122000I225000J0D01*
G01*
G37*
G36*
G01*
X195744405Y-96172000D02*
X198320595Y-96172000D01*
G75*
G02*
X198582500Y-96433905I0J-261905D01*
G01*
X198582500Y-98110095D01*
G75*
G02*
X198320595Y-98372000I-261905J0D01*
G01*
X195744405Y-98372000D01*
G75*
G02*
X195482500Y-98110095I0J261905D01*
G01*
X195482500Y-96433905D01*
G75*
G02*
X195744405Y-96172000I261905J0D01*
G01*
G37*
G36*
G01*
X195744405Y-110022000D02*
X198320595Y-110022000D01*
G75*
G02*
X198582500Y-110283905I0J-261905D01*
G01*
X198582500Y-111960095D01*
G75*
G02*
X198320595Y-112222000I-261905J0D01*
G01*
X195744405Y-112222000D01*
G75*
G02*
X195482500Y-111960095I0J261905D01*
G01*
X195482500Y-110283905D01*
G75*
G02*
X195744405Y-110022000I261905J0D01*
G01*
G37*
%TD*%
%TO.C,ADC0*%
G36*
G01*
X155995000Y-130071000D02*
X155995000Y-131321000D01*
G75*
G02*
X155770000Y-131546000I-225000J0D01*
G01*
X155320000Y-131546000D01*
G75*
G02*
X155095000Y-131321000I0J225000D01*
G01*
X155095000Y-130071000D01*
G75*
G02*
X155320000Y-129846000I225000J0D01*
G01*
X155770000Y-129846000D01*
G75*
G02*
X155995000Y-130071000I0J-225000D01*
G01*
G37*
G36*
G01*
X154745000Y-130071000D02*
X154745000Y-131321000D01*
G75*
G02*
X154520000Y-131546000I-225000J0D01*
G01*
X154070000Y-131546000D01*
G75*
G02*
X153845000Y-131321000I0J225000D01*
G01*
X153845000Y-130071000D01*
G75*
G02*
X154070000Y-129846000I225000J0D01*
G01*
X154520000Y-129846000D01*
G75*
G02*
X154745000Y-130071000I0J-225000D01*
G01*
G37*
G36*
G01*
X153495000Y-130071000D02*
X153495000Y-131321000D01*
G75*
G02*
X153270000Y-131546000I-225000J0D01*
G01*
X152820000Y-131546000D01*
G75*
G02*
X152595000Y-131321000I0J225000D01*
G01*
X152595000Y-130071000D01*
G75*
G02*
X152820000Y-129846000I225000J0D01*
G01*
X153270000Y-129846000D01*
G75*
G02*
X153495000Y-130071000I0J-225000D01*
G01*
G37*
G36*
G01*
X152245000Y-130071000D02*
X152245000Y-131321000D01*
G75*
G02*
X152020000Y-131546000I-225000J0D01*
G01*
X151570000Y-131546000D01*
G75*
G02*
X151345000Y-131321000I0J225000D01*
G01*
X151345000Y-130071000D01*
G75*
G02*
X151570000Y-129846000I225000J0D01*
G01*
X152020000Y-129846000D01*
G75*
G02*
X152245000Y-130071000I0J-225000D01*
G01*
G37*
G36*
G01*
X159195000Y-132307905D02*
X159195000Y-134884095D01*
G75*
G02*
X158933095Y-135146000I-261905J0D01*
G01*
X157256905Y-135146000D01*
G75*
G02*
X156995000Y-134884095I0J261905D01*
G01*
X156995000Y-132307905D01*
G75*
G02*
X157256905Y-132046000I261905J0D01*
G01*
X158933095Y-132046000D01*
G75*
G02*
X159195000Y-132307905I0J-261905D01*
G01*
G37*
G36*
G01*
X150345000Y-132307905D02*
X150345000Y-134884095D01*
G75*
G02*
X150083095Y-135146000I-261905J0D01*
G01*
X148406905Y-135146000D01*
G75*
G02*
X148145000Y-134884095I0J261905D01*
G01*
X148145000Y-132307905D01*
G75*
G02*
X148406905Y-132046000I261905J0D01*
G01*
X150083095Y-132046000D01*
G75*
G02*
X150345000Y-132307905I0J-261905D01*
G01*
G37*
%TD*%
D33*
%TO.C,J17*%
X172694000Y-95034500D03*
X172694000Y-96134500D03*
X172694000Y-97234500D03*
X172694000Y-98334500D03*
X172694000Y-99434500D03*
X172694000Y-100534500D03*
X172694000Y-101634500D03*
X172694000Y-102734500D03*
D34*
X178394000Y-105109500D03*
X178394000Y-91359500D03*
X170094000Y-91359500D03*
X170094000Y-105109500D03*
%TD*%
%TO.C,L2*%
G36*
G01*
X189001500Y-64876500D02*
X186791500Y-64876500D01*
G75*
G02*
X186521500Y-64606500I0J270000D01*
G01*
X186521500Y-63796500D01*
G75*
G02*
X186791500Y-63526500I270000J0D01*
G01*
X189001500Y-63526500D01*
G75*
G02*
X189271500Y-63796500I0J-270000D01*
G01*
X189271500Y-64606500D01*
G75*
G02*
X189001500Y-64876500I-270000J0D01*
G01*
G37*
G36*
G01*
X189001500Y-62076500D02*
X186791500Y-62076500D01*
G75*
G02*
X186521500Y-61806500I0J270000D01*
G01*
X186521500Y-60996500D01*
G75*
G02*
X186791500Y-60726500I270000J0D01*
G01*
X189001500Y-60726500D01*
G75*
G02*
X189271500Y-60996500I0J-270000D01*
G01*
X189271500Y-61806500D01*
G75*
G02*
X189001500Y-62076500I-270000J0D01*
G01*
G37*
%TD*%
D35*
%TO.C,U6*%
X170815000Y-77597000D03*
D36*
X170140000Y-78522000D03*
X170590000Y-78522000D03*
X171040000Y-78522000D03*
X171490000Y-78522000D03*
X171490000Y-76672000D03*
X171040000Y-76672000D03*
X170590000Y-76672000D03*
X170140000Y-76672000D03*
%TD*%
M02*
