M48
; DRILL file {KiCad (6.0.7)} date Fri Aug 26 15:29:02 2022
; FORMAT={-:-/ absolute / metric / decimal}
; #@! TF.CreationDate,2022-08-26T15:29:02+08:00
; #@! TF.GenerationSoftware,Kicad,Pcbnew,(6.0.7)
; #@! TF.FileFunction,Plated,1,4,PTH
FMAT,2
METRIC
; #@! TA.AperFunction,Plated,PTH,ViaDrill
T1C0.200
; #@! TA.AperFunction,Plated,PTH,ComponentDrill
T2C0.200
; #@! TA.AperFunction,Plated,PTH,ViaDrill
T3C0.300
; #@! TA.AperFunction,Plated,PTH,ViaDrill
T4C0.400
; #@! TA.AperFunction,Plated,PTH,ViaDrill
T5C0.500
; #@! TA.AperFunction,Plated,PTH,ComponentDrill
T6C1.016
; #@! TA.AperFunction,Plated,PTH,ComponentDrill
T7C3.200
%
G90
G05
T1
X108.05Y-117.3
X108.05Y-118.1
X108.15Y-125.2
X108.9Y-125.1
X121.9Y-111.7
X122.175Y-69.65
X125.502Y-112.743
X126.55Y-109.1
X126.9Y-110.14
X127.46Y-112.44
X129.54Y-76.708
X129.54Y-77.47
X130.65Y-128.7
X130.95Y-50.05
X132.125Y-91.8
X132.75Y-91.75
X133.25Y-88.4
X133.55Y-116.5
X133.6Y-117.4
X133.85Y-88.45
X134.03Y-97.7
X134.75Y-58.0
X134.8Y-86.05
X134.98Y-104.3
X135.45Y-86.3
X136.2Y-92.95
X136.64Y-128.61
X136.7Y-128.01
X136.775Y-105.825
X136.83Y-127.17
X137.375Y-90.875
X137.775Y-81.75
X137.8Y-92.35
X137.825Y-82.85
X138.3Y-56.8
X138.3Y-57.7
X138.375Y-110.2
X138.45Y-87.15
X138.475Y-91.375
X138.6Y-89.55
X138.9Y-82.875
X139.025Y-91.8
X139.65Y-125.3
X139.7Y-75.692
X139.79Y-125.9
X139.825Y-82.0
X140.1Y-53.0
X140.2Y-118.75
X141.07Y-125.73
X141.475Y-83.425
X142.025Y-116.575
X142.175Y-93.65
X142.2Y-106.85
X142.275Y-102.6
X142.39Y-126.1
X142.575Y-89.675
X142.75Y-113.575
X142.825Y-106.825
X142.85Y-100.675
X143.15Y-91.725
X143.325Y-114.7
X143.51Y-75.184
X143.55Y-106.65
X143.6Y-91.25
X143.65Y-85.2
X143.675Y-114.2
X143.75Y-69.7
X145.05Y-114.9
X145.075Y-102.6
X145.1Y-85.225
X145.35Y-113.775
X146.175Y-69.5
X146.2Y-115.6
X146.304Y-122.428
X146.8Y-115.6
X146.85Y-106.55
X147.05Y-90.075
X147.375Y-83.55
X147.675Y-92.55
X147.836Y-108.212
X148.3Y-118.55
X148.575Y-90.275
X148.59Y-92.456
X148.65Y-80.675
X149.325Y-89.4
X150.175Y-113.775
X150.25Y-105.8
X150.3Y-118.65
X150.65Y-69.45
X151.46Y-78.96
X151.7Y-69.55
X151.725Y-76.625
X151.725Y-106.325
X152.25Y-87.05
X152.4Y-111.7
X152.654Y-120.65
X152.908Y-97.155
X153.125Y-76.475
X153.162Y-125.222
X153.457Y-84.733
X154.125Y-118.9
X154.745Y-108.718
X154.94Y-98.044
X155.075Y-94.05
X156.475Y-73.4
X156.8Y-102.5
X156.972Y-107.242
X157.05Y-83.7
X157.099Y-87.249
X157.225Y-52.05
X157.8Y-93.875
X157.85Y-82.15
X157.965Y-96.67
X158.5Y-74.375
X158.562Y-91.4
X158.625Y-96.425
X159.325Y-84.525
X159.893Y-88.011
X160.375Y-98.075
X160.65Y-103.05
X160.738Y-100.644
X160.909Y-93.218
X160.933Y-94.258
X161.0Y-103.675
X161.0Y-104.25
X161.025Y-101.675
X164.1Y-70.4
X165.354Y-104.521
X165.6Y-117.2
X165.6Y-117.85
X165.65Y-111.55
X165.65Y-112.2
X165.784Y-85.533
X165.997Y-107.704
X166.9Y-104.75
X167.64Y-59.871
X167.65Y-107.05
X167.933Y-83.439
X168.148Y-119.888
X168.3Y-87.1
X168.4Y-117.2
X168.529Y-59.817
X168.675Y-97.65
X168.95Y-116.7
X169.0Y-110.75
X169.075Y-97.1
X169.624Y-81.026
X169.69Y-114.215
X170.7Y-52.15
X171.9Y-52.175
X172.4Y-59.301
X172.974Y-85.217
X174.8Y-98.0
X174.825Y-61.85
X176.0Y-104.6
X176.4Y-56.65
X176.55Y-108.925
X176.6Y-109.525
X176.85Y-83.3
X177.15Y-56.35
X177.304Y-58.789
X178.05Y-86.1
X178.575Y-109.85
X178.75Y-77.45
X179.8Y-108.05
X180.25Y-78.1
X180.525Y-114.1
X180.9Y-84.65
X181.3Y-85.1
X181.821Y-85.56
X182.05Y-103.8
X182.118Y-128.016
X182.925Y-103.325
X183.1Y-81.65
X183.55Y-110.95
X183.575Y-117.0
X183.65Y-82.1
X184.3Y-82.25
X185.547Y-126.238
X187.25Y-115.4
X188.468Y-124.587
X188.468Y-125.222
X189.835Y-120.015
X190.2Y-95.75
X190.513Y-119.537
X190.775Y-95.95
X191.15Y-102.0
X191.625Y-98.9
X192.2Y-103.2
X192.5Y-106.7
X192.55Y-105.35
X192.55Y-107.875
T2
X165.618Y-61.694
X165.618Y-63.119
X165.618Y-64.544
X167.043Y-61.694
X167.043Y-63.119
X167.043Y-64.544
X168.468Y-61.694
X168.468Y-63.119
X168.468Y-64.544
X182.76Y-107.91
X182.76Y-109.09
X182.76Y-113.76
X182.76Y-114.94
X183.94Y-107.91
X183.94Y-109.09
X183.94Y-113.76
X183.94Y-114.94
T3
X120.396Y-113.792
X121.35Y-115.35
X121.539Y-82.423
X121.793Y-77.343
X121.92Y-59.436
X121.92Y-61.214
X121.92Y-62.992
X121.92Y-64.77
X121.92Y-66.548
X121.92Y-68.326
X124.206Y-122.047
X124.6Y-114.25
X127.508Y-59.436
X127.508Y-61.214
X127.508Y-62.992
X127.508Y-64.77
X127.508Y-66.548
X127.508Y-68.326
X127.997Y-74.93
X128.651Y-108.05
X129.032Y-105.156
X129.069Y-119.098
X129.2Y-126.115
X129.413Y-70.358
X130.937Y-77.216
X130.937Y-120.904
X131.774Y-108.204
X132.715Y-124.079
X132.75Y-80.2
X133.35Y-59.436
X133.35Y-61.214
X133.35Y-62.992
X133.35Y-64.77
X133.35Y-66.548
X133.35Y-68.326
X133.5Y-56.275
X135.128Y-69.361
X136.35Y-90.325
X138.28Y-108.481
X138.38Y-116.15
X138.41Y-114.8
X138.417Y-72.275
X139.446Y-59.436
X139.446Y-61.214
X139.446Y-62.992
X139.446Y-64.77
X139.446Y-66.548
X139.446Y-68.326
X140.925Y-89.675
X142.159Y-120.462
X142.251Y-77.459
X142.74Y-122.95
X142.756Y-110.191
X143.35Y-128.8
X143.51Y-76.5
X144.272Y-125.476
X147.955Y-104.784
X148.769Y-74.59
X151.525Y-90.175
X153.162Y-92.456
X154.051Y-92.456
X154.686Y-96.647
X155.5Y-129.25
X158.75Y-113.709
X160.782Y-88.646
X161.084Y-113.776
X162.052Y-92.71
X162.125Y-81.975
X163.082Y-79.247
X163.83Y-91.694
X164.2Y-127.04
X164.95Y-103.35
X164.973Y-102.489
X164.973Y-107.163
X164.973Y-114.681
X164.98Y-113.734
X165.227Y-129.709
X165.862Y-67.691
X167.372Y-80.645
X167.6Y-105.1
X168.604Y-67.716
X170.053Y-89.535
X171.069Y-100.559
X171.196Y-98.298
X171.266Y-107.766
X171.65Y-105.0
X173.228Y-124.126
X173.228Y-126.492
X173.725Y-121.575
X174.498Y-126.492
X174.853Y-60.646
X175.373Y-122.176
X175.387Y-124.126
X175.387Y-126.873
X175.408Y-119.559
X175.704Y-64.706
X175.95Y-66.969
X177.3Y-107.6
X177.7Y-76.55
X178.308Y-89.408
X179.325Y-73.275
X179.5Y-111.75
X179.959Y-105.029
X180.165Y-94.0
X180.19Y-118.268
X180.247Y-73.659
X180.34Y-128.016
X180.45Y-108.65
X180.594Y-58.42
X180.848Y-79.121
X180.881Y-77.9
X180.9Y-93.1
X180.95Y-64.725
X181.6Y-73.075
X181.775Y-60.3
X182.245Y-129.667
X182.372Y-90.678
X182.533Y-95.89
X183.487Y-128.987
X183.848Y-127.66
X184.575Y-72.775
X185.905Y-116.534
X186.188Y-80.899
X186.634Y-116.534
X186.771Y-124.984
X187.068Y-103.814
X187.4Y-111.65
X187.452Y-73.334
X187.706Y-123.19
X187.744Y-120.859
X188.1Y-110.95
X188.341Y-121.613
X188.899Y-77.801
X189.35Y-113.125
X189.611Y-70.866
X189.738Y-78.386
X190.45Y-108.25
X192.278Y-117.221
X192.405Y-118.491
X192.5Y-95.55
X192.641Y-65.405
X192.825Y-68.85
X195.45Y-104.05
T4
X141.1Y-79.825
X142.925Y-82.05
T5
X141.35Y-58.65
X166.175Y-77.3
X176.5Y-68.816
X191.6Y-59.0
T6
X110.605Y-60.8
X110.605Y-63.34
X110.605Y-65.88
X110.605Y-68.42
X110.605Y-70.96
X110.605Y-73.5
X110.605Y-76.04
X110.605Y-78.58
X110.605Y-81.12
X110.605Y-83.66
X110.605Y-86.2
X110.605Y-88.74
X110.605Y-91.28
X110.605Y-93.82
X110.605Y-96.36
X110.605Y-98.9
X110.605Y-101.44
X110.605Y-103.98
X110.605Y-106.52
X110.605Y-109.06
X110.605Y-111.6
X110.605Y-114.14
X110.605Y-116.68
X110.605Y-119.22
X110.605Y-121.76
X110.605Y-124.3
X113.145Y-60.8
X113.145Y-63.34
X113.145Y-65.88
X113.145Y-68.42
X113.145Y-70.96
X113.145Y-73.5
X113.145Y-76.04
X113.145Y-78.58
X113.145Y-81.12
X113.145Y-83.66
X113.145Y-86.2
X113.145Y-88.74
X113.145Y-91.28
X113.145Y-93.82
X113.145Y-96.36
X113.145Y-98.9
X113.145Y-101.44
X113.145Y-103.98
X113.145Y-106.52
X113.145Y-109.06
X113.145Y-111.6
X113.145Y-114.14
X113.145Y-116.68
X113.145Y-119.22
X113.145Y-121.76
X113.145Y-124.3
X115.685Y-60.8
X115.685Y-63.34
X115.685Y-65.88
X115.685Y-68.42
X115.685Y-70.96
X115.685Y-73.5
X115.685Y-76.04
X115.685Y-78.58
X115.685Y-81.12
X115.685Y-83.66
X115.685Y-86.2
X115.685Y-88.74
X115.685Y-91.28
X115.685Y-93.82
X115.685Y-96.36
X115.685Y-98.9
X115.685Y-101.44
X115.685Y-103.98
X115.685Y-106.52
X115.685Y-109.06
X115.685Y-111.6
X115.685Y-114.14
X115.685Y-116.68
X115.685Y-119.22
X115.685Y-121.76
X115.685Y-124.3
X118.225Y-60.8
X118.225Y-63.34
X118.225Y-65.88
X118.225Y-68.42
X118.225Y-70.96
X118.225Y-73.5
X118.225Y-76.04
X118.225Y-78.58
X118.225Y-81.12
X118.225Y-83.66
X118.225Y-86.2
X118.225Y-88.74
X118.225Y-91.28
X118.225Y-93.82
X118.225Y-96.36
X118.225Y-98.9
X118.225Y-101.44
X118.225Y-103.98
X118.225Y-106.52
X118.225Y-109.06
X118.225Y-111.6
X118.225Y-114.14
X118.225Y-116.68
X118.225Y-119.22
X118.225Y-121.76
X118.225Y-124.3
T7
X110.734Y-55.793
X110.734Y-129.453
X196.464Y-53.253
X196.464Y-133.263
T0
M30
