%TF.GenerationSoftware,KiCad,Pcbnew,(5.1.6)-1*%
%TF.CreationDate,2020-12-10T00:12:40+08:00*%
%TF.ProjectId,cubesat_obc,63756265-7361-4745-9f6f-62632e6b6963,rev?*%
%TF.SameCoordinates,Original*%
%TF.FileFunction,Legend,Top*%
%TF.FilePolarity,Positive*%
%FSLAX46Y46*%
G04 Gerber Fmt 4.6, Leading zero omitted, Abs format (unit mm)*
G04 Created by KiCad (PCBNEW (5.1.6)-1) date 2020-12-10 00:12:40*
%MOMM*%
%LPD*%
G01*
G04 APERTURE LIST*
%ADD10C,0.200000*%
%ADD11C,0.120000*%
%ADD12C,0.100000*%
%ADD13C,0.150000*%
%ADD14C,0.127000*%
G04 APERTURE END LIST*
D10*
%TO.C,U14*%
X114409006Y-59522998D02*
X114409006Y-125562998D01*
X109329006Y-125562998D02*
X109329006Y-59522998D01*
X119489006Y-125562998D02*
X109329006Y-125562998D01*
X119489006Y-59522998D02*
X119489006Y-125562998D01*
X109329006Y-59522998D02*
X119489006Y-59522998D01*
D11*
%TO.C,R2*%
X122792258Y-79135500D02*
X122317742Y-79135500D01*
X122792258Y-78090500D02*
X122317742Y-78090500D01*
%TO.C,R1*%
X122254242Y-80694000D02*
X122728758Y-80694000D01*
X122254242Y-81739000D02*
X122728758Y-81739000D01*
%TO.C,C13*%
X177532420Y-111123000D02*
X177813580Y-111123000D01*
X177532420Y-112143000D02*
X177813580Y-112143000D01*
%TO.C,C12*%
X127684920Y-110996000D02*
X127966080Y-110996000D01*
X127684920Y-112016000D02*
X127966080Y-112016000D01*
%TO.C,C11*%
X177659420Y-64196500D02*
X177940580Y-64196500D01*
X177659420Y-65216500D02*
X177940580Y-65216500D01*
%TO.C,C7*%
X162708000Y-92309836D02*
X162708000Y-92094164D01*
X163428000Y-92309836D02*
X163428000Y-92094164D01*
%TO.C,C6*%
X162708000Y-94468836D02*
X162708000Y-94253164D01*
X163428000Y-94468836D02*
X163428000Y-94253164D01*
%TO.C,C5*%
X158776164Y-88283000D02*
X158991836Y-88283000D01*
X158776164Y-89003000D02*
X158991836Y-89003000D01*
%TO.C,C4*%
X155596000Y-95865836D02*
X155596000Y-95650164D01*
X156316000Y-95865836D02*
X156316000Y-95650164D01*
%TO.C,D2*%
X188175000Y-110133000D02*
X186475000Y-110133000D01*
X186475000Y-110133000D02*
X186475000Y-112683000D01*
X188175000Y-110133000D02*
X188175000Y-112683000D01*
%TO.C,D4*%
X188175000Y-113562000D02*
X186475000Y-113562000D01*
X186475000Y-113562000D02*
X186475000Y-116112000D01*
X188175000Y-113562000D02*
X188175000Y-116112000D01*
%TO.C,D7*%
X191223000Y-110133000D02*
X189523000Y-110133000D01*
X189523000Y-110133000D02*
X189523000Y-112683000D01*
X191223000Y-110133000D02*
X191223000Y-112683000D01*
%TO.C,D8*%
X191223000Y-113562000D02*
X189523000Y-113562000D01*
X189523000Y-113562000D02*
X189523000Y-116112000D01*
X191223000Y-113562000D02*
X191223000Y-116112000D01*
%TO.C,D9*%
X189523000Y-109450000D02*
X191223000Y-109450000D01*
X191223000Y-109450000D02*
X191223000Y-106900000D01*
X189523000Y-109450000D02*
X189523000Y-106900000D01*
%TO.C,D10*%
X189523000Y-106021000D02*
X191223000Y-106021000D01*
X191223000Y-106021000D02*
X191223000Y-103471000D01*
X189523000Y-106021000D02*
X189523000Y-103471000D01*
%TO.C,D11*%
X186475000Y-109450000D02*
X188175000Y-109450000D01*
X188175000Y-109450000D02*
X188175000Y-106900000D01*
X186475000Y-109450000D02*
X186475000Y-106900000D01*
%TO.C,D12*%
X186475000Y-106021000D02*
X188175000Y-106021000D01*
X188175000Y-106021000D02*
X188175000Y-103471000D01*
X186475000Y-106021000D02*
X186475000Y-103471000D01*
%TO.C,D13*%
X179412000Y-90194000D02*
X177712000Y-90194000D01*
X177712000Y-90194000D02*
X177712000Y-92744000D01*
X179412000Y-90194000D02*
X179412000Y-92744000D01*
%TO.C,D14*%
X179412000Y-93623000D02*
X177712000Y-93623000D01*
X177712000Y-93623000D02*
X177712000Y-96173000D01*
X179412000Y-93623000D02*
X179412000Y-96173000D01*
%TO.C,D15*%
X182460000Y-90194000D02*
X180760000Y-90194000D01*
X180760000Y-90194000D02*
X180760000Y-92744000D01*
X182460000Y-90194000D02*
X182460000Y-92744000D01*
%TO.C,D16*%
X182460000Y-93623000D02*
X180760000Y-93623000D01*
X180760000Y-93623000D02*
X180760000Y-96173000D01*
X182460000Y-93623000D02*
X182460000Y-96173000D01*
D12*
%TO.C,U9*%
X179154000Y-59296500D02*
X179654000Y-59296500D01*
X179654000Y-59296500D02*
X179654000Y-59796500D01*
X179654000Y-62496500D02*
X179654000Y-61996500D01*
X179654000Y-61996500D02*
X179654000Y-62496500D01*
X179654000Y-62496500D02*
X179154000Y-62496500D01*
X176454000Y-62496500D02*
X176954000Y-62496500D01*
X176454000Y-62496500D02*
X176454000Y-61996500D01*
X176454000Y-59296500D02*
X176454000Y-59796500D01*
%TO.C,U10*%
X179123000Y-106262000D02*
X179623000Y-106262000D01*
X179623000Y-106262000D02*
X179623000Y-106762000D01*
X179623000Y-109462000D02*
X179623000Y-108962000D01*
X179623000Y-108962000D02*
X179623000Y-109462000D01*
X179623000Y-109462000D02*
X179123000Y-109462000D01*
X176423000Y-109462000D02*
X176923000Y-109462000D01*
X176423000Y-109462000D02*
X176423000Y-108962000D01*
X176423000Y-106262000D02*
X176423000Y-106762000D01*
%TO.C,U20*%
X129213500Y-106246500D02*
X129713500Y-106246500D01*
X129713500Y-106246500D02*
X129713500Y-106746500D01*
X129713500Y-109446500D02*
X129713500Y-108946500D01*
X129713500Y-108946500D02*
X129713500Y-109446500D01*
X129713500Y-109446500D02*
X129213500Y-109446500D01*
X126513500Y-109446500D02*
X127013500Y-109446500D01*
X126513500Y-109446500D02*
X126513500Y-108946500D01*
X126513500Y-106246500D02*
X126513500Y-106746500D01*
D11*
%TO.C,MAG_1*%
X195272500Y-115265000D02*
X194822500Y-115265000D01*
X194822500Y-115265000D02*
X194822500Y-114315000D01*
X194822500Y-114315000D02*
X193332500Y-114315000D01*
X195272500Y-110795000D02*
X194822500Y-110795000D01*
X194822500Y-110795000D02*
X194822500Y-111745000D01*
X198792500Y-115265000D02*
X199242500Y-115265000D01*
X199242500Y-115265000D02*
X199242500Y-110795000D01*
X199242500Y-110795000D02*
X198792500Y-110795000D01*
%TO.C,MAG_3*%
X195272500Y-95961000D02*
X194822500Y-95961000D01*
X194822500Y-95961000D02*
X194822500Y-95011000D01*
X194822500Y-95011000D02*
X193332500Y-95011000D01*
X195272500Y-91491000D02*
X194822500Y-91491000D01*
X194822500Y-91491000D02*
X194822500Y-92441000D01*
X198792500Y-95961000D02*
X199242500Y-95961000D01*
X199242500Y-95961000D02*
X199242500Y-91491000D01*
X199242500Y-91491000D02*
X198792500Y-91491000D01*
%TO.C,MAG_2*%
X195272500Y-105613000D02*
X194822500Y-105613000D01*
X194822500Y-105613000D02*
X194822500Y-104663000D01*
X194822500Y-104663000D02*
X193332500Y-104663000D01*
X195272500Y-101143000D02*
X194822500Y-101143000D01*
X194822500Y-101143000D02*
X194822500Y-102093000D01*
X198792500Y-105613000D02*
X199242500Y-105613000D01*
X199242500Y-105613000D02*
X199242500Y-101143000D01*
X199242500Y-101143000D02*
X198792500Y-101143000D01*
%TO.C,TEMP5*%
X195272500Y-76657000D02*
X194822500Y-76657000D01*
X194822500Y-76657000D02*
X194822500Y-75707000D01*
X194822500Y-75707000D02*
X193332500Y-75707000D01*
X195272500Y-72187000D02*
X194822500Y-72187000D01*
X194822500Y-72187000D02*
X194822500Y-73137000D01*
X198792500Y-76657000D02*
X199242500Y-76657000D01*
X199242500Y-76657000D02*
X199242500Y-72187000D01*
X199242500Y-72187000D02*
X198792500Y-72187000D01*
%TO.C,TEMP4*%
X195272500Y-86309000D02*
X194822500Y-86309000D01*
X194822500Y-86309000D02*
X194822500Y-85359000D01*
X194822500Y-85359000D02*
X193332500Y-85359000D01*
X195272500Y-81839000D02*
X194822500Y-81839000D01*
X194822500Y-81839000D02*
X194822500Y-82789000D01*
X198792500Y-86309000D02*
X199242500Y-86309000D01*
X199242500Y-86309000D02*
X199242500Y-81839000D01*
X199242500Y-81839000D02*
X198792500Y-81839000D01*
D13*
%TO.C,U11*%
X142597000Y-117168000D02*
X141372000Y-117168000D01*
X142597000Y-120293000D02*
X145947000Y-120293000D01*
X142597000Y-116943000D02*
X145947000Y-116943000D01*
X142597000Y-120293000D02*
X142597000Y-119993000D01*
X145947000Y-120293000D02*
X145947000Y-119993000D01*
X145947000Y-116943000D02*
X145947000Y-117243000D01*
X142597000Y-116943000D02*
X142597000Y-117168000D01*
%TO.C,U12*%
X142566520Y-74404560D02*
X141341520Y-74404560D01*
X142566520Y-77529560D02*
X145916520Y-77529560D01*
X142566520Y-74179560D02*
X145916520Y-74179560D01*
X142566520Y-77529560D02*
X142566520Y-77229560D01*
X145916520Y-77529560D02*
X145916520Y-77229560D01*
X145916520Y-74179560D02*
X145916520Y-74479560D01*
X142566520Y-74179560D02*
X142566520Y-74404560D01*
D14*
%TO.C,U8*%
X156851000Y-90559000D02*
X156851000Y-89529000D01*
X156851000Y-89529000D02*
X157131000Y-89529000D01*
X161131000Y-89529000D02*
X161411000Y-89529000D01*
X161411000Y-89529000D02*
X161411000Y-90559000D01*
X161411000Y-91559000D02*
X161411000Y-92589000D01*
X161411000Y-92589000D02*
X161131000Y-92589000D01*
X156851000Y-91559000D02*
X156851000Y-92589000D01*
X156851000Y-92589000D02*
X157131000Y-92589000D01*
D10*
X157431000Y-89059000D02*
G75*
G03*
X157431000Y-89059000I-100000J0D01*
G01*
D13*
%TO.C,U13*%
X142597000Y-107037000D02*
X142597000Y-107262000D01*
X145947000Y-107037000D02*
X145947000Y-107337000D01*
X145947000Y-110387000D02*
X145947000Y-110087000D01*
X142597000Y-110387000D02*
X142597000Y-110087000D01*
X142597000Y-107037000D02*
X145947000Y-107037000D01*
X142597000Y-110387000D02*
X145947000Y-110387000D01*
X142597000Y-107262000D02*
X141372000Y-107262000D01*
%TO.C,U15*%
X142470000Y-85955000D02*
X142470000Y-86180000D01*
X145820000Y-85955000D02*
X145820000Y-86255000D01*
X145820000Y-89305000D02*
X145820000Y-89005000D01*
X142470000Y-89305000D02*
X142470000Y-89005000D01*
X142470000Y-85955000D02*
X145820000Y-85955000D01*
X142470000Y-89305000D02*
X145820000Y-89305000D01*
X142470000Y-86180000D02*
X141245000Y-86180000D01*
D10*
%TO.C,J10*%
X126036300Y-82431560D02*
X126036300Y-82631560D01*
X126036300Y-82631560D02*
X134796300Y-82631560D01*
X134796300Y-82631560D02*
X134796300Y-82431560D01*
X126036300Y-71871560D02*
X134796300Y-71871560D01*
X126036300Y-72071560D02*
X126036300Y-71871560D01*
X134796300Y-71871560D02*
X134796300Y-72071560D01*
X124716300Y-81751560D02*
G75*
G03*
X124716300Y-81751560I-100000J0D01*
G01*
%TO.C,J9*%
X126031220Y-126117020D02*
X126031220Y-126317020D01*
X126031220Y-126317020D02*
X134791220Y-126317020D01*
X134791220Y-126317020D02*
X134791220Y-126117020D01*
X126031220Y-115557020D02*
X134791220Y-115557020D01*
X126031220Y-115757020D02*
X126031220Y-115557020D01*
X134791220Y-115557020D02*
X134791220Y-115757020D01*
X124711220Y-125437020D02*
G75*
G03*
X124711220Y-125437020I-100000J0D01*
G01*
D11*
%TO.C,SPI0*%
X195272500Y-67072000D02*
X194822500Y-67072000D01*
X194822500Y-67072000D02*
X194822500Y-66122000D01*
X194822500Y-66122000D02*
X193332500Y-66122000D01*
X195272500Y-58852000D02*
X194822500Y-58852000D01*
X194822500Y-58852000D02*
X194822500Y-59802000D01*
X198792500Y-67072000D02*
X199242500Y-67072000D01*
X199242500Y-67072000D02*
X199242500Y-58852000D01*
X199242500Y-58852000D02*
X198792500Y-58852000D01*
D14*
%TO.C,U7*%
X157869000Y-98038000D02*
X156839000Y-98038000D01*
X156839000Y-98038000D02*
X156839000Y-97758000D01*
X156839000Y-93758000D02*
X156839000Y-93478000D01*
X156839000Y-93478000D02*
X157869000Y-93478000D01*
X158869000Y-93478000D02*
X159899000Y-93478000D01*
X159899000Y-93478000D02*
X159899000Y-93758000D01*
X158869000Y-98038000D02*
X159899000Y-98038000D01*
X159899000Y-98038000D02*
X159899000Y-97758000D01*
D10*
X156469000Y-97558000D02*
G75*
G03*
X156469000Y-97558000I-100000J0D01*
G01*
%TO.C,U14*%
D13*
X116490904Y-57872380D02*
X116490904Y-58681904D01*
X116538523Y-58777142D01*
X116586142Y-58824761D01*
X116681380Y-58872380D01*
X116871857Y-58872380D01*
X116967095Y-58824761D01*
X117014714Y-58777142D01*
X117062333Y-58681904D01*
X117062333Y-57872380D01*
X118062333Y-58872380D02*
X117490904Y-58872380D01*
X117776619Y-58872380D02*
X117776619Y-57872380D01*
X117681380Y-58015238D01*
X117586142Y-58110476D01*
X117490904Y-58158095D01*
X118919476Y-58205714D02*
X118919476Y-58872380D01*
X118681380Y-57824761D02*
X118443285Y-58539047D01*
X119062333Y-58539047D01*
%TO.C,R56*%
D12*
X139123000Y-78775666D02*
X138889666Y-78442333D01*
X138723000Y-78775666D02*
X138723000Y-78075666D01*
X138989666Y-78075666D01*
X139056333Y-78109000D01*
X139089666Y-78142333D01*
X139123000Y-78209000D01*
X139123000Y-78309000D01*
X139089666Y-78375666D01*
X139056333Y-78409000D01*
X138989666Y-78442333D01*
X138723000Y-78442333D01*
X139756333Y-78075666D02*
X139423000Y-78075666D01*
X139389666Y-78409000D01*
X139423000Y-78375666D01*
X139489666Y-78342333D01*
X139656333Y-78342333D01*
X139723000Y-78375666D01*
X139756333Y-78409000D01*
X139789666Y-78475666D01*
X139789666Y-78642333D01*
X139756333Y-78709000D01*
X139723000Y-78742333D01*
X139656333Y-78775666D01*
X139489666Y-78775666D01*
X139423000Y-78742333D01*
X139389666Y-78709000D01*
X140389666Y-78075666D02*
X140256333Y-78075666D01*
X140189666Y-78109000D01*
X140156333Y-78142333D01*
X140089666Y-78242333D01*
X140056333Y-78375666D01*
X140056333Y-78642333D01*
X140089666Y-78709000D01*
X140123000Y-78742333D01*
X140189666Y-78775666D01*
X140323000Y-78775666D01*
X140389666Y-78742333D01*
X140423000Y-78709000D01*
X140456333Y-78642333D01*
X140456333Y-78475666D01*
X140423000Y-78409000D01*
X140389666Y-78375666D01*
X140323000Y-78342333D01*
X140189666Y-78342333D01*
X140123000Y-78375666D01*
X140089666Y-78409000D01*
X140056333Y-78475666D01*
%TO.C,R55*%
X139123000Y-76235666D02*
X138889666Y-75902333D01*
X138723000Y-76235666D02*
X138723000Y-75535666D01*
X138989666Y-75535666D01*
X139056333Y-75569000D01*
X139089666Y-75602333D01*
X139123000Y-75669000D01*
X139123000Y-75769000D01*
X139089666Y-75835666D01*
X139056333Y-75869000D01*
X138989666Y-75902333D01*
X138723000Y-75902333D01*
X139756333Y-75535666D02*
X139423000Y-75535666D01*
X139389666Y-75869000D01*
X139423000Y-75835666D01*
X139489666Y-75802333D01*
X139656333Y-75802333D01*
X139723000Y-75835666D01*
X139756333Y-75869000D01*
X139789666Y-75935666D01*
X139789666Y-76102333D01*
X139756333Y-76169000D01*
X139723000Y-76202333D01*
X139656333Y-76235666D01*
X139489666Y-76235666D01*
X139423000Y-76202333D01*
X139389666Y-76169000D01*
X140423000Y-75535666D02*
X140089666Y-75535666D01*
X140056333Y-75869000D01*
X140089666Y-75835666D01*
X140156333Y-75802333D01*
X140323000Y-75802333D01*
X140389666Y-75835666D01*
X140423000Y-75869000D01*
X140456333Y-75935666D01*
X140456333Y-76102333D01*
X140423000Y-76169000D01*
X140389666Y-76202333D01*
X140323000Y-76235666D01*
X140156333Y-76235666D01*
X140089666Y-76202333D01*
X140056333Y-76169000D01*
%TO.C,R54*%
X150426000Y-121628666D02*
X150192666Y-121295333D01*
X150026000Y-121628666D02*
X150026000Y-120928666D01*
X150292666Y-120928666D01*
X150359333Y-120962000D01*
X150392666Y-120995333D01*
X150426000Y-121062000D01*
X150426000Y-121162000D01*
X150392666Y-121228666D01*
X150359333Y-121262000D01*
X150292666Y-121295333D01*
X150026000Y-121295333D01*
X151059333Y-120928666D02*
X150726000Y-120928666D01*
X150692666Y-121262000D01*
X150726000Y-121228666D01*
X150792666Y-121195333D01*
X150959333Y-121195333D01*
X151026000Y-121228666D01*
X151059333Y-121262000D01*
X151092666Y-121328666D01*
X151092666Y-121495333D01*
X151059333Y-121562000D01*
X151026000Y-121595333D01*
X150959333Y-121628666D01*
X150792666Y-121628666D01*
X150726000Y-121595333D01*
X150692666Y-121562000D01*
X151692666Y-121162000D02*
X151692666Y-121628666D01*
X151526000Y-120895333D02*
X151359333Y-121395333D01*
X151792666Y-121395333D01*
%TO.C,R53*%
X150426000Y-119215666D02*
X150192666Y-118882333D01*
X150026000Y-119215666D02*
X150026000Y-118515666D01*
X150292666Y-118515666D01*
X150359333Y-118549000D01*
X150392666Y-118582333D01*
X150426000Y-118649000D01*
X150426000Y-118749000D01*
X150392666Y-118815666D01*
X150359333Y-118849000D01*
X150292666Y-118882333D01*
X150026000Y-118882333D01*
X151059333Y-118515666D02*
X150726000Y-118515666D01*
X150692666Y-118849000D01*
X150726000Y-118815666D01*
X150792666Y-118782333D01*
X150959333Y-118782333D01*
X151026000Y-118815666D01*
X151059333Y-118849000D01*
X151092666Y-118915666D01*
X151092666Y-119082333D01*
X151059333Y-119149000D01*
X151026000Y-119182333D01*
X150959333Y-119215666D01*
X150792666Y-119215666D01*
X150726000Y-119182333D01*
X150692666Y-119149000D01*
X151326000Y-118515666D02*
X151759333Y-118515666D01*
X151526000Y-118782333D01*
X151626000Y-118782333D01*
X151692666Y-118815666D01*
X151726000Y-118849000D01*
X151759333Y-118915666D01*
X151759333Y-119082333D01*
X151726000Y-119149000D01*
X151692666Y-119182333D01*
X151626000Y-119215666D01*
X151426000Y-119215666D01*
X151359333Y-119182333D01*
X151326000Y-119149000D01*
%TO.C,R52*%
X150426000Y-117056666D02*
X150192666Y-116723333D01*
X150026000Y-117056666D02*
X150026000Y-116356666D01*
X150292666Y-116356666D01*
X150359333Y-116390000D01*
X150392666Y-116423333D01*
X150426000Y-116490000D01*
X150426000Y-116590000D01*
X150392666Y-116656666D01*
X150359333Y-116690000D01*
X150292666Y-116723333D01*
X150026000Y-116723333D01*
X151059333Y-116356666D02*
X150726000Y-116356666D01*
X150692666Y-116690000D01*
X150726000Y-116656666D01*
X150792666Y-116623333D01*
X150959333Y-116623333D01*
X151026000Y-116656666D01*
X151059333Y-116690000D01*
X151092666Y-116756666D01*
X151092666Y-116923333D01*
X151059333Y-116990000D01*
X151026000Y-117023333D01*
X150959333Y-117056666D01*
X150792666Y-117056666D01*
X150726000Y-117023333D01*
X150692666Y-116990000D01*
X151359333Y-116423333D02*
X151392666Y-116390000D01*
X151459333Y-116356666D01*
X151626000Y-116356666D01*
X151692666Y-116390000D01*
X151726000Y-116423333D01*
X151759333Y-116490000D01*
X151759333Y-116556666D01*
X151726000Y-116656666D01*
X151326000Y-117056666D01*
X151759333Y-117056666D01*
%TO.C,R51*%
X139250000Y-113954666D02*
X139016666Y-113621333D01*
X138850000Y-113954666D02*
X138850000Y-113254666D01*
X139116666Y-113254666D01*
X139183333Y-113288000D01*
X139216666Y-113321333D01*
X139250000Y-113388000D01*
X139250000Y-113488000D01*
X139216666Y-113554666D01*
X139183333Y-113588000D01*
X139116666Y-113621333D01*
X138850000Y-113621333D01*
X139883333Y-113254666D02*
X139550000Y-113254666D01*
X139516666Y-113588000D01*
X139550000Y-113554666D01*
X139616666Y-113521333D01*
X139783333Y-113521333D01*
X139850000Y-113554666D01*
X139883333Y-113588000D01*
X139916666Y-113654666D01*
X139916666Y-113821333D01*
X139883333Y-113888000D01*
X139850000Y-113921333D01*
X139783333Y-113954666D01*
X139616666Y-113954666D01*
X139550000Y-113921333D01*
X139516666Y-113888000D01*
X140583333Y-113954666D02*
X140183333Y-113954666D01*
X140383333Y-113954666D02*
X140383333Y-113254666D01*
X140316666Y-113354666D01*
X140250000Y-113421333D01*
X140183333Y-113454666D01*
%TO.C,R115*%
X145958666Y-102891333D02*
X145625333Y-103124666D01*
X145958666Y-103291333D02*
X145258666Y-103291333D01*
X145258666Y-103024666D01*
X145292000Y-102958000D01*
X145325333Y-102924666D01*
X145392000Y-102891333D01*
X145492000Y-102891333D01*
X145558666Y-102924666D01*
X145592000Y-102958000D01*
X145625333Y-103024666D01*
X145625333Y-103291333D01*
X145958666Y-102224666D02*
X145958666Y-102624666D01*
X145958666Y-102424666D02*
X145258666Y-102424666D01*
X145358666Y-102491333D01*
X145425333Y-102558000D01*
X145458666Y-102624666D01*
X145958666Y-101558000D02*
X145958666Y-101958000D01*
X145958666Y-101758000D02*
X145258666Y-101758000D01*
X145358666Y-101824666D01*
X145425333Y-101891333D01*
X145458666Y-101958000D01*
X145258666Y-100924666D02*
X145258666Y-101258000D01*
X145592000Y-101291333D01*
X145558666Y-101258000D01*
X145525333Y-101191333D01*
X145525333Y-101024666D01*
X145558666Y-100958000D01*
X145592000Y-100924666D01*
X145658666Y-100891333D01*
X145825333Y-100891333D01*
X145892000Y-100924666D01*
X145925333Y-100958000D01*
X145958666Y-101024666D01*
X145958666Y-101191333D01*
X145925333Y-101258000D01*
X145892000Y-101291333D01*
%TO.C,R119*%
X152564333Y-100054666D02*
X152897666Y-99821333D01*
X152564333Y-99654666D02*
X153264333Y-99654666D01*
X153264333Y-99921333D01*
X153231000Y-99988000D01*
X153197666Y-100021333D01*
X153131000Y-100054666D01*
X153031000Y-100054666D01*
X152964333Y-100021333D01*
X152931000Y-99988000D01*
X152897666Y-99921333D01*
X152897666Y-99654666D01*
X152564333Y-100721333D02*
X152564333Y-100321333D01*
X152564333Y-100521333D02*
X153264333Y-100521333D01*
X153164333Y-100454666D01*
X153097666Y-100388000D01*
X153064333Y-100321333D01*
X152564333Y-101388000D02*
X152564333Y-100988000D01*
X152564333Y-101188000D02*
X153264333Y-101188000D01*
X153164333Y-101121333D01*
X153097666Y-101054666D01*
X153064333Y-100988000D01*
X152564333Y-101721333D02*
X152564333Y-101854666D01*
X152597666Y-101921333D01*
X152631000Y-101954666D01*
X152731000Y-102021333D01*
X152864333Y-102054666D01*
X153131000Y-102054666D01*
X153197666Y-102021333D01*
X153231000Y-101988000D01*
X153264333Y-101921333D01*
X153264333Y-101788000D01*
X153231000Y-101721333D01*
X153197666Y-101688000D01*
X153131000Y-101654666D01*
X152964333Y-101654666D01*
X152897666Y-101688000D01*
X152864333Y-101721333D01*
X152831000Y-101788000D01*
X152831000Y-101921333D01*
X152864333Y-101988000D01*
X152897666Y-102021333D01*
X152964333Y-102054666D01*
%TO.C,R50*%
X139250000Y-116240666D02*
X139016666Y-115907333D01*
X138850000Y-116240666D02*
X138850000Y-115540666D01*
X139116666Y-115540666D01*
X139183333Y-115574000D01*
X139216666Y-115607333D01*
X139250000Y-115674000D01*
X139250000Y-115774000D01*
X139216666Y-115840666D01*
X139183333Y-115874000D01*
X139116666Y-115907333D01*
X138850000Y-115907333D01*
X139883333Y-115540666D02*
X139550000Y-115540666D01*
X139516666Y-115874000D01*
X139550000Y-115840666D01*
X139616666Y-115807333D01*
X139783333Y-115807333D01*
X139850000Y-115840666D01*
X139883333Y-115874000D01*
X139916666Y-115940666D01*
X139916666Y-116107333D01*
X139883333Y-116174000D01*
X139850000Y-116207333D01*
X139783333Y-116240666D01*
X139616666Y-116240666D01*
X139550000Y-116207333D01*
X139516666Y-116174000D01*
X140350000Y-115540666D02*
X140416666Y-115540666D01*
X140483333Y-115574000D01*
X140516666Y-115607333D01*
X140550000Y-115674000D01*
X140583333Y-115807333D01*
X140583333Y-115974000D01*
X140550000Y-116107333D01*
X140516666Y-116174000D01*
X140483333Y-116207333D01*
X140416666Y-116240666D01*
X140350000Y-116240666D01*
X140283333Y-116207333D01*
X140250000Y-116174000D01*
X140216666Y-116107333D01*
X140183333Y-115974000D01*
X140183333Y-115807333D01*
X140216666Y-115674000D01*
X140250000Y-115607333D01*
X140283333Y-115574000D01*
X140350000Y-115540666D01*
%TO.C,R49*%
X139250000Y-120812666D02*
X139016666Y-120479333D01*
X138850000Y-120812666D02*
X138850000Y-120112666D01*
X139116666Y-120112666D01*
X139183333Y-120146000D01*
X139216666Y-120179333D01*
X139250000Y-120246000D01*
X139250000Y-120346000D01*
X139216666Y-120412666D01*
X139183333Y-120446000D01*
X139116666Y-120479333D01*
X138850000Y-120479333D01*
X139850000Y-120346000D02*
X139850000Y-120812666D01*
X139683333Y-120079333D02*
X139516666Y-120579333D01*
X139950000Y-120579333D01*
X140250000Y-120812666D02*
X140383333Y-120812666D01*
X140450000Y-120779333D01*
X140483333Y-120746000D01*
X140550000Y-120646000D01*
X140583333Y-120512666D01*
X140583333Y-120246000D01*
X140550000Y-120179333D01*
X140516666Y-120146000D01*
X140450000Y-120112666D01*
X140316666Y-120112666D01*
X140250000Y-120146000D01*
X140216666Y-120179333D01*
X140183333Y-120246000D01*
X140183333Y-120412666D01*
X140216666Y-120479333D01*
X140250000Y-120512666D01*
X140316666Y-120546000D01*
X140450000Y-120546000D01*
X140516666Y-120512666D01*
X140550000Y-120479333D01*
X140583333Y-120412666D01*
%TO.C,R48*%
X139250000Y-118526666D02*
X139016666Y-118193333D01*
X138850000Y-118526666D02*
X138850000Y-117826666D01*
X139116666Y-117826666D01*
X139183333Y-117860000D01*
X139216666Y-117893333D01*
X139250000Y-117960000D01*
X139250000Y-118060000D01*
X139216666Y-118126666D01*
X139183333Y-118160000D01*
X139116666Y-118193333D01*
X138850000Y-118193333D01*
X139850000Y-118060000D02*
X139850000Y-118526666D01*
X139683333Y-117793333D02*
X139516666Y-118293333D01*
X139950000Y-118293333D01*
X140316666Y-118126666D02*
X140250000Y-118093333D01*
X140216666Y-118060000D01*
X140183333Y-117993333D01*
X140183333Y-117960000D01*
X140216666Y-117893333D01*
X140250000Y-117860000D01*
X140316666Y-117826666D01*
X140450000Y-117826666D01*
X140516666Y-117860000D01*
X140550000Y-117893333D01*
X140583333Y-117960000D01*
X140583333Y-117993333D01*
X140550000Y-118060000D01*
X140516666Y-118093333D01*
X140450000Y-118126666D01*
X140316666Y-118126666D01*
X140250000Y-118160000D01*
X140216666Y-118193333D01*
X140183333Y-118260000D01*
X140183333Y-118393333D01*
X140216666Y-118460000D01*
X140250000Y-118493333D01*
X140316666Y-118526666D01*
X140450000Y-118526666D01*
X140516666Y-118493333D01*
X140550000Y-118460000D01*
X140583333Y-118393333D01*
X140583333Y-118260000D01*
X140550000Y-118193333D01*
X140516666Y-118160000D01*
X140450000Y-118126666D01*
%TO.C,R120*%
X153834333Y-100054666D02*
X154167666Y-99821333D01*
X153834333Y-99654666D02*
X154534333Y-99654666D01*
X154534333Y-99921333D01*
X154501000Y-99988000D01*
X154467666Y-100021333D01*
X154401000Y-100054666D01*
X154301000Y-100054666D01*
X154234333Y-100021333D01*
X154201000Y-99988000D01*
X154167666Y-99921333D01*
X154167666Y-99654666D01*
X153834333Y-100721333D02*
X153834333Y-100321333D01*
X153834333Y-100521333D02*
X154534333Y-100521333D01*
X154434333Y-100454666D01*
X154367666Y-100388000D01*
X154334333Y-100321333D01*
X154467666Y-100988000D02*
X154501000Y-101021333D01*
X154534333Y-101088000D01*
X154534333Y-101254666D01*
X154501000Y-101321333D01*
X154467666Y-101354666D01*
X154401000Y-101388000D01*
X154334333Y-101388000D01*
X154234333Y-101354666D01*
X153834333Y-100954666D01*
X153834333Y-101388000D01*
X154534333Y-101821333D02*
X154534333Y-101888000D01*
X154501000Y-101954666D01*
X154467666Y-101988000D01*
X154401000Y-102021333D01*
X154267666Y-102054666D01*
X154101000Y-102054666D01*
X153967666Y-102021333D01*
X153901000Y-101988000D01*
X153867666Y-101954666D01*
X153834333Y-101888000D01*
X153834333Y-101821333D01*
X153867666Y-101754666D01*
X153901000Y-101721333D01*
X153967666Y-101688000D01*
X154101000Y-101654666D01*
X154267666Y-101654666D01*
X154401000Y-101688000D01*
X154467666Y-101721333D01*
X154501000Y-101754666D01*
X154534333Y-101821333D01*
%TO.C,R116*%
X147609666Y-102891333D02*
X147276333Y-103124666D01*
X147609666Y-103291333D02*
X146909666Y-103291333D01*
X146909666Y-103024666D01*
X146943000Y-102958000D01*
X146976333Y-102924666D01*
X147043000Y-102891333D01*
X147143000Y-102891333D01*
X147209666Y-102924666D01*
X147243000Y-102958000D01*
X147276333Y-103024666D01*
X147276333Y-103291333D01*
X147609666Y-102224666D02*
X147609666Y-102624666D01*
X147609666Y-102424666D02*
X146909666Y-102424666D01*
X147009666Y-102491333D01*
X147076333Y-102558000D01*
X147109666Y-102624666D01*
X147609666Y-101558000D02*
X147609666Y-101958000D01*
X147609666Y-101758000D02*
X146909666Y-101758000D01*
X147009666Y-101824666D01*
X147076333Y-101891333D01*
X147109666Y-101958000D01*
X146909666Y-100958000D02*
X146909666Y-101091333D01*
X146943000Y-101158000D01*
X146976333Y-101191333D01*
X147076333Y-101258000D01*
X147209666Y-101291333D01*
X147476333Y-101291333D01*
X147543000Y-101258000D01*
X147576333Y-101224666D01*
X147609666Y-101158000D01*
X147609666Y-101024666D01*
X147576333Y-100958000D01*
X147543000Y-100924666D01*
X147476333Y-100891333D01*
X147309666Y-100891333D01*
X147243000Y-100924666D01*
X147209666Y-100958000D01*
X147176333Y-101024666D01*
X147176333Y-101158000D01*
X147209666Y-101224666D01*
X147243000Y-101258000D01*
X147309666Y-101291333D01*
%TO.C,R107*%
X176254666Y-52486666D02*
X176021333Y-52153333D01*
X175854666Y-52486666D02*
X175854666Y-51786666D01*
X176121333Y-51786666D01*
X176188000Y-51820000D01*
X176221333Y-51853333D01*
X176254666Y-51920000D01*
X176254666Y-52020000D01*
X176221333Y-52086666D01*
X176188000Y-52120000D01*
X176121333Y-52153333D01*
X175854666Y-52153333D01*
X176921333Y-52486666D02*
X176521333Y-52486666D01*
X176721333Y-52486666D02*
X176721333Y-51786666D01*
X176654666Y-51886666D01*
X176588000Y-51953333D01*
X176521333Y-51986666D01*
X177354666Y-51786666D02*
X177421333Y-51786666D01*
X177488000Y-51820000D01*
X177521333Y-51853333D01*
X177554666Y-51920000D01*
X177588000Y-52053333D01*
X177588000Y-52220000D01*
X177554666Y-52353333D01*
X177521333Y-52420000D01*
X177488000Y-52453333D01*
X177421333Y-52486666D01*
X177354666Y-52486666D01*
X177288000Y-52453333D01*
X177254666Y-52420000D01*
X177221333Y-52353333D01*
X177188000Y-52220000D01*
X177188000Y-52053333D01*
X177221333Y-51920000D01*
X177254666Y-51853333D01*
X177288000Y-51820000D01*
X177354666Y-51786666D01*
X177821333Y-51786666D02*
X178288000Y-51786666D01*
X177988000Y-52486666D01*
%TO.C,R111*%
X176254666Y-51216666D02*
X176021333Y-50883333D01*
X175854666Y-51216666D02*
X175854666Y-50516666D01*
X176121333Y-50516666D01*
X176188000Y-50550000D01*
X176221333Y-50583333D01*
X176254666Y-50650000D01*
X176254666Y-50750000D01*
X176221333Y-50816666D01*
X176188000Y-50850000D01*
X176121333Y-50883333D01*
X175854666Y-50883333D01*
X176921333Y-51216666D02*
X176521333Y-51216666D01*
X176721333Y-51216666D02*
X176721333Y-50516666D01*
X176654666Y-50616666D01*
X176588000Y-50683333D01*
X176521333Y-50716666D01*
X177588000Y-51216666D02*
X177188000Y-51216666D01*
X177388000Y-51216666D02*
X177388000Y-50516666D01*
X177321333Y-50616666D01*
X177254666Y-50683333D01*
X177188000Y-50716666D01*
X178254666Y-51216666D02*
X177854666Y-51216666D01*
X178054666Y-51216666D02*
X178054666Y-50516666D01*
X177988000Y-50616666D01*
X177921333Y-50683333D01*
X177854666Y-50716666D01*
%TO.C,R62*%
X139250000Y-108620666D02*
X139016666Y-108287333D01*
X138850000Y-108620666D02*
X138850000Y-107920666D01*
X139116666Y-107920666D01*
X139183333Y-107954000D01*
X139216666Y-107987333D01*
X139250000Y-108054000D01*
X139250000Y-108154000D01*
X139216666Y-108220666D01*
X139183333Y-108254000D01*
X139116666Y-108287333D01*
X138850000Y-108287333D01*
X139850000Y-107920666D02*
X139716666Y-107920666D01*
X139650000Y-107954000D01*
X139616666Y-107987333D01*
X139550000Y-108087333D01*
X139516666Y-108220666D01*
X139516666Y-108487333D01*
X139550000Y-108554000D01*
X139583333Y-108587333D01*
X139650000Y-108620666D01*
X139783333Y-108620666D01*
X139850000Y-108587333D01*
X139883333Y-108554000D01*
X139916666Y-108487333D01*
X139916666Y-108320666D01*
X139883333Y-108254000D01*
X139850000Y-108220666D01*
X139783333Y-108187333D01*
X139650000Y-108187333D01*
X139583333Y-108220666D01*
X139550000Y-108254000D01*
X139516666Y-108320666D01*
X140183333Y-107987333D02*
X140216666Y-107954000D01*
X140283333Y-107920666D01*
X140450000Y-107920666D01*
X140516666Y-107954000D01*
X140550000Y-107987333D01*
X140583333Y-108054000D01*
X140583333Y-108120666D01*
X140550000Y-108220666D01*
X140150000Y-108620666D01*
X140583333Y-108620666D01*
%TO.C,R75*%
X152839000Y-89751666D02*
X152605666Y-89418333D01*
X152439000Y-89751666D02*
X152439000Y-89051666D01*
X152705666Y-89051666D01*
X152772333Y-89085000D01*
X152805666Y-89118333D01*
X152839000Y-89185000D01*
X152839000Y-89285000D01*
X152805666Y-89351666D01*
X152772333Y-89385000D01*
X152705666Y-89418333D01*
X152439000Y-89418333D01*
X153072333Y-89051666D02*
X153539000Y-89051666D01*
X153239000Y-89751666D01*
X154139000Y-89051666D02*
X153805666Y-89051666D01*
X153772333Y-89385000D01*
X153805666Y-89351666D01*
X153872333Y-89318333D01*
X154039000Y-89318333D01*
X154105666Y-89351666D01*
X154139000Y-89385000D01*
X154172333Y-89451666D01*
X154172333Y-89618333D01*
X154139000Y-89685000D01*
X154105666Y-89718333D01*
X154039000Y-89751666D01*
X153872333Y-89751666D01*
X153805666Y-89718333D01*
X153772333Y-89685000D01*
%TO.C,R74*%
X152839000Y-87465666D02*
X152605666Y-87132333D01*
X152439000Y-87465666D02*
X152439000Y-86765666D01*
X152705666Y-86765666D01*
X152772333Y-86799000D01*
X152805666Y-86832333D01*
X152839000Y-86899000D01*
X152839000Y-86999000D01*
X152805666Y-87065666D01*
X152772333Y-87099000D01*
X152705666Y-87132333D01*
X152439000Y-87132333D01*
X153072333Y-86765666D02*
X153539000Y-86765666D01*
X153239000Y-87465666D01*
X154105666Y-86999000D02*
X154105666Y-87465666D01*
X153939000Y-86732333D02*
X153772333Y-87232333D01*
X154205666Y-87232333D01*
%TO.C,R73*%
X152839000Y-84925666D02*
X152605666Y-84592333D01*
X152439000Y-84925666D02*
X152439000Y-84225666D01*
X152705666Y-84225666D01*
X152772333Y-84259000D01*
X152805666Y-84292333D01*
X152839000Y-84359000D01*
X152839000Y-84459000D01*
X152805666Y-84525666D01*
X152772333Y-84559000D01*
X152705666Y-84592333D01*
X152439000Y-84592333D01*
X153072333Y-84225666D02*
X153539000Y-84225666D01*
X153239000Y-84925666D01*
X153739000Y-84225666D02*
X154172333Y-84225666D01*
X153939000Y-84492333D01*
X154039000Y-84492333D01*
X154105666Y-84525666D01*
X154139000Y-84559000D01*
X154172333Y-84625666D01*
X154172333Y-84792333D01*
X154139000Y-84859000D01*
X154105666Y-84892333D01*
X154039000Y-84925666D01*
X153839000Y-84925666D01*
X153772333Y-84892333D01*
X153739000Y-84859000D01*
%TO.C,R72*%
X139123000Y-82966666D02*
X138889666Y-82633333D01*
X138723000Y-82966666D02*
X138723000Y-82266666D01*
X138989666Y-82266666D01*
X139056333Y-82300000D01*
X139089666Y-82333333D01*
X139123000Y-82400000D01*
X139123000Y-82500000D01*
X139089666Y-82566666D01*
X139056333Y-82600000D01*
X138989666Y-82633333D01*
X138723000Y-82633333D01*
X139356333Y-82266666D02*
X139823000Y-82266666D01*
X139523000Y-82966666D01*
X140056333Y-82333333D02*
X140089666Y-82300000D01*
X140156333Y-82266666D01*
X140323000Y-82266666D01*
X140389666Y-82300000D01*
X140423000Y-82333333D01*
X140456333Y-82400000D01*
X140456333Y-82466666D01*
X140423000Y-82566666D01*
X140023000Y-82966666D01*
X140456333Y-82966666D01*
%TO.C,R71*%
X139123000Y-85252666D02*
X138889666Y-84919333D01*
X138723000Y-85252666D02*
X138723000Y-84552666D01*
X138989666Y-84552666D01*
X139056333Y-84586000D01*
X139089666Y-84619333D01*
X139123000Y-84686000D01*
X139123000Y-84786000D01*
X139089666Y-84852666D01*
X139056333Y-84886000D01*
X138989666Y-84919333D01*
X138723000Y-84919333D01*
X139356333Y-84552666D02*
X139823000Y-84552666D01*
X139523000Y-85252666D01*
X140456333Y-85252666D02*
X140056333Y-85252666D01*
X140256333Y-85252666D02*
X140256333Y-84552666D01*
X140189666Y-84652666D01*
X140123000Y-84719333D01*
X140056333Y-84752666D01*
%TO.C,R70*%
X139123000Y-89824666D02*
X138889666Y-89491333D01*
X138723000Y-89824666D02*
X138723000Y-89124666D01*
X138989666Y-89124666D01*
X139056333Y-89158000D01*
X139089666Y-89191333D01*
X139123000Y-89258000D01*
X139123000Y-89358000D01*
X139089666Y-89424666D01*
X139056333Y-89458000D01*
X138989666Y-89491333D01*
X138723000Y-89491333D01*
X139356333Y-89124666D02*
X139823000Y-89124666D01*
X139523000Y-89824666D01*
X140223000Y-89124666D02*
X140289666Y-89124666D01*
X140356333Y-89158000D01*
X140389666Y-89191333D01*
X140423000Y-89258000D01*
X140456333Y-89391333D01*
X140456333Y-89558000D01*
X140423000Y-89691333D01*
X140389666Y-89758000D01*
X140356333Y-89791333D01*
X140289666Y-89824666D01*
X140223000Y-89824666D01*
X140156333Y-89791333D01*
X140123000Y-89758000D01*
X140089666Y-89691333D01*
X140056333Y-89558000D01*
X140056333Y-89391333D01*
X140089666Y-89258000D01*
X140123000Y-89191333D01*
X140156333Y-89158000D01*
X140223000Y-89124666D01*
%TO.C,R69*%
X139123000Y-87538666D02*
X138889666Y-87205333D01*
X138723000Y-87538666D02*
X138723000Y-86838666D01*
X138989666Y-86838666D01*
X139056333Y-86872000D01*
X139089666Y-86905333D01*
X139123000Y-86972000D01*
X139123000Y-87072000D01*
X139089666Y-87138666D01*
X139056333Y-87172000D01*
X138989666Y-87205333D01*
X138723000Y-87205333D01*
X139723000Y-86838666D02*
X139589666Y-86838666D01*
X139523000Y-86872000D01*
X139489666Y-86905333D01*
X139423000Y-87005333D01*
X139389666Y-87138666D01*
X139389666Y-87405333D01*
X139423000Y-87472000D01*
X139456333Y-87505333D01*
X139523000Y-87538666D01*
X139656333Y-87538666D01*
X139723000Y-87505333D01*
X139756333Y-87472000D01*
X139789666Y-87405333D01*
X139789666Y-87238666D01*
X139756333Y-87172000D01*
X139723000Y-87138666D01*
X139656333Y-87105333D01*
X139523000Y-87105333D01*
X139456333Y-87138666D01*
X139423000Y-87172000D01*
X139389666Y-87238666D01*
X140123000Y-87538666D02*
X140256333Y-87538666D01*
X140323000Y-87505333D01*
X140356333Y-87472000D01*
X140423000Y-87372000D01*
X140456333Y-87238666D01*
X140456333Y-86972000D01*
X140423000Y-86905333D01*
X140389666Y-86872000D01*
X140323000Y-86838666D01*
X140189666Y-86838666D01*
X140123000Y-86872000D01*
X140089666Y-86905333D01*
X140056333Y-86972000D01*
X140056333Y-87138666D01*
X140089666Y-87205333D01*
X140123000Y-87238666D01*
X140189666Y-87272000D01*
X140323000Y-87272000D01*
X140389666Y-87238666D01*
X140423000Y-87205333D01*
X140456333Y-87138666D01*
%TO.C,R68*%
X150426000Y-111722666D02*
X150192666Y-111389333D01*
X150026000Y-111722666D02*
X150026000Y-111022666D01*
X150292666Y-111022666D01*
X150359333Y-111056000D01*
X150392666Y-111089333D01*
X150426000Y-111156000D01*
X150426000Y-111256000D01*
X150392666Y-111322666D01*
X150359333Y-111356000D01*
X150292666Y-111389333D01*
X150026000Y-111389333D01*
X151026000Y-111022666D02*
X150892666Y-111022666D01*
X150826000Y-111056000D01*
X150792666Y-111089333D01*
X150726000Y-111189333D01*
X150692666Y-111322666D01*
X150692666Y-111589333D01*
X150726000Y-111656000D01*
X150759333Y-111689333D01*
X150826000Y-111722666D01*
X150959333Y-111722666D01*
X151026000Y-111689333D01*
X151059333Y-111656000D01*
X151092666Y-111589333D01*
X151092666Y-111422666D01*
X151059333Y-111356000D01*
X151026000Y-111322666D01*
X150959333Y-111289333D01*
X150826000Y-111289333D01*
X150759333Y-111322666D01*
X150726000Y-111356000D01*
X150692666Y-111422666D01*
X151492666Y-111322666D02*
X151426000Y-111289333D01*
X151392666Y-111256000D01*
X151359333Y-111189333D01*
X151359333Y-111156000D01*
X151392666Y-111089333D01*
X151426000Y-111056000D01*
X151492666Y-111022666D01*
X151626000Y-111022666D01*
X151692666Y-111056000D01*
X151726000Y-111089333D01*
X151759333Y-111156000D01*
X151759333Y-111189333D01*
X151726000Y-111256000D01*
X151692666Y-111289333D01*
X151626000Y-111322666D01*
X151492666Y-111322666D01*
X151426000Y-111356000D01*
X151392666Y-111389333D01*
X151359333Y-111456000D01*
X151359333Y-111589333D01*
X151392666Y-111656000D01*
X151426000Y-111689333D01*
X151492666Y-111722666D01*
X151626000Y-111722666D01*
X151692666Y-111689333D01*
X151726000Y-111656000D01*
X151759333Y-111589333D01*
X151759333Y-111456000D01*
X151726000Y-111389333D01*
X151692666Y-111356000D01*
X151626000Y-111322666D01*
%TO.C,R66*%
X150426000Y-106896666D02*
X150192666Y-106563333D01*
X150026000Y-106896666D02*
X150026000Y-106196666D01*
X150292666Y-106196666D01*
X150359333Y-106230000D01*
X150392666Y-106263333D01*
X150426000Y-106330000D01*
X150426000Y-106430000D01*
X150392666Y-106496666D01*
X150359333Y-106530000D01*
X150292666Y-106563333D01*
X150026000Y-106563333D01*
X151026000Y-106196666D02*
X150892666Y-106196666D01*
X150826000Y-106230000D01*
X150792666Y-106263333D01*
X150726000Y-106363333D01*
X150692666Y-106496666D01*
X150692666Y-106763333D01*
X150726000Y-106830000D01*
X150759333Y-106863333D01*
X150826000Y-106896666D01*
X150959333Y-106896666D01*
X151026000Y-106863333D01*
X151059333Y-106830000D01*
X151092666Y-106763333D01*
X151092666Y-106596666D01*
X151059333Y-106530000D01*
X151026000Y-106496666D01*
X150959333Y-106463333D01*
X150826000Y-106463333D01*
X150759333Y-106496666D01*
X150726000Y-106530000D01*
X150692666Y-106596666D01*
X151692666Y-106196666D02*
X151559333Y-106196666D01*
X151492666Y-106230000D01*
X151459333Y-106263333D01*
X151392666Y-106363333D01*
X151359333Y-106496666D01*
X151359333Y-106763333D01*
X151392666Y-106830000D01*
X151426000Y-106863333D01*
X151492666Y-106896666D01*
X151626000Y-106896666D01*
X151692666Y-106863333D01*
X151726000Y-106830000D01*
X151759333Y-106763333D01*
X151759333Y-106596666D01*
X151726000Y-106530000D01*
X151692666Y-106496666D01*
X151626000Y-106463333D01*
X151492666Y-106463333D01*
X151426000Y-106496666D01*
X151392666Y-106530000D01*
X151359333Y-106596666D01*
%TO.C,R65*%
X139250000Y-104048666D02*
X139016666Y-103715333D01*
X138850000Y-104048666D02*
X138850000Y-103348666D01*
X139116666Y-103348666D01*
X139183333Y-103382000D01*
X139216666Y-103415333D01*
X139250000Y-103482000D01*
X139250000Y-103582000D01*
X139216666Y-103648666D01*
X139183333Y-103682000D01*
X139116666Y-103715333D01*
X138850000Y-103715333D01*
X139850000Y-103348666D02*
X139716666Y-103348666D01*
X139650000Y-103382000D01*
X139616666Y-103415333D01*
X139550000Y-103515333D01*
X139516666Y-103648666D01*
X139516666Y-103915333D01*
X139550000Y-103982000D01*
X139583333Y-104015333D01*
X139650000Y-104048666D01*
X139783333Y-104048666D01*
X139850000Y-104015333D01*
X139883333Y-103982000D01*
X139916666Y-103915333D01*
X139916666Y-103748666D01*
X139883333Y-103682000D01*
X139850000Y-103648666D01*
X139783333Y-103615333D01*
X139650000Y-103615333D01*
X139583333Y-103648666D01*
X139550000Y-103682000D01*
X139516666Y-103748666D01*
X140550000Y-103348666D02*
X140216666Y-103348666D01*
X140183333Y-103682000D01*
X140216666Y-103648666D01*
X140283333Y-103615333D01*
X140450000Y-103615333D01*
X140516666Y-103648666D01*
X140550000Y-103682000D01*
X140583333Y-103748666D01*
X140583333Y-103915333D01*
X140550000Y-103982000D01*
X140516666Y-104015333D01*
X140450000Y-104048666D01*
X140283333Y-104048666D01*
X140216666Y-104015333D01*
X140183333Y-103982000D01*
%TO.C,R64*%
X139250000Y-106334666D02*
X139016666Y-106001333D01*
X138850000Y-106334666D02*
X138850000Y-105634666D01*
X139116666Y-105634666D01*
X139183333Y-105668000D01*
X139216666Y-105701333D01*
X139250000Y-105768000D01*
X139250000Y-105868000D01*
X139216666Y-105934666D01*
X139183333Y-105968000D01*
X139116666Y-106001333D01*
X138850000Y-106001333D01*
X139850000Y-105634666D02*
X139716666Y-105634666D01*
X139650000Y-105668000D01*
X139616666Y-105701333D01*
X139550000Y-105801333D01*
X139516666Y-105934666D01*
X139516666Y-106201333D01*
X139550000Y-106268000D01*
X139583333Y-106301333D01*
X139650000Y-106334666D01*
X139783333Y-106334666D01*
X139850000Y-106301333D01*
X139883333Y-106268000D01*
X139916666Y-106201333D01*
X139916666Y-106034666D01*
X139883333Y-105968000D01*
X139850000Y-105934666D01*
X139783333Y-105901333D01*
X139650000Y-105901333D01*
X139583333Y-105934666D01*
X139550000Y-105968000D01*
X139516666Y-106034666D01*
X140516666Y-105868000D02*
X140516666Y-106334666D01*
X140350000Y-105601333D02*
X140183333Y-106101333D01*
X140616666Y-106101333D01*
%TO.C,R63*%
X139250000Y-110906666D02*
X139016666Y-110573333D01*
X138850000Y-110906666D02*
X138850000Y-110206666D01*
X139116666Y-110206666D01*
X139183333Y-110240000D01*
X139216666Y-110273333D01*
X139250000Y-110340000D01*
X139250000Y-110440000D01*
X139216666Y-110506666D01*
X139183333Y-110540000D01*
X139116666Y-110573333D01*
X138850000Y-110573333D01*
X139850000Y-110206666D02*
X139716666Y-110206666D01*
X139650000Y-110240000D01*
X139616666Y-110273333D01*
X139550000Y-110373333D01*
X139516666Y-110506666D01*
X139516666Y-110773333D01*
X139550000Y-110840000D01*
X139583333Y-110873333D01*
X139650000Y-110906666D01*
X139783333Y-110906666D01*
X139850000Y-110873333D01*
X139883333Y-110840000D01*
X139916666Y-110773333D01*
X139916666Y-110606666D01*
X139883333Y-110540000D01*
X139850000Y-110506666D01*
X139783333Y-110473333D01*
X139650000Y-110473333D01*
X139583333Y-110506666D01*
X139550000Y-110540000D01*
X139516666Y-110606666D01*
X140150000Y-110206666D02*
X140583333Y-110206666D01*
X140350000Y-110473333D01*
X140450000Y-110473333D01*
X140516666Y-110506666D01*
X140550000Y-110540000D01*
X140583333Y-110606666D01*
X140583333Y-110773333D01*
X140550000Y-110840000D01*
X140516666Y-110873333D01*
X140450000Y-110906666D01*
X140250000Y-110906666D01*
X140183333Y-110873333D01*
X140150000Y-110840000D01*
%TO.C,R67*%
X150426000Y-109436666D02*
X150192666Y-109103333D01*
X150026000Y-109436666D02*
X150026000Y-108736666D01*
X150292666Y-108736666D01*
X150359333Y-108770000D01*
X150392666Y-108803333D01*
X150426000Y-108870000D01*
X150426000Y-108970000D01*
X150392666Y-109036666D01*
X150359333Y-109070000D01*
X150292666Y-109103333D01*
X150026000Y-109103333D01*
X151026000Y-108736666D02*
X150892666Y-108736666D01*
X150826000Y-108770000D01*
X150792666Y-108803333D01*
X150726000Y-108903333D01*
X150692666Y-109036666D01*
X150692666Y-109303333D01*
X150726000Y-109370000D01*
X150759333Y-109403333D01*
X150826000Y-109436666D01*
X150959333Y-109436666D01*
X151026000Y-109403333D01*
X151059333Y-109370000D01*
X151092666Y-109303333D01*
X151092666Y-109136666D01*
X151059333Y-109070000D01*
X151026000Y-109036666D01*
X150959333Y-109003333D01*
X150826000Y-109003333D01*
X150759333Y-109036666D01*
X150726000Y-109070000D01*
X150692666Y-109136666D01*
X151326000Y-108736666D02*
X151792666Y-108736666D01*
X151492666Y-109436666D01*
%TO.C,R109*%
X150854666Y-51216666D02*
X150621333Y-50883333D01*
X150454666Y-51216666D02*
X150454666Y-50516666D01*
X150721333Y-50516666D01*
X150788000Y-50550000D01*
X150821333Y-50583333D01*
X150854666Y-50650000D01*
X150854666Y-50750000D01*
X150821333Y-50816666D01*
X150788000Y-50850000D01*
X150721333Y-50883333D01*
X150454666Y-50883333D01*
X151521333Y-51216666D02*
X151121333Y-51216666D01*
X151321333Y-51216666D02*
X151321333Y-50516666D01*
X151254666Y-50616666D01*
X151188000Y-50683333D01*
X151121333Y-50716666D01*
X151954666Y-50516666D02*
X152021333Y-50516666D01*
X152088000Y-50550000D01*
X152121333Y-50583333D01*
X152154666Y-50650000D01*
X152188000Y-50783333D01*
X152188000Y-50950000D01*
X152154666Y-51083333D01*
X152121333Y-51150000D01*
X152088000Y-51183333D01*
X152021333Y-51216666D01*
X151954666Y-51216666D01*
X151888000Y-51183333D01*
X151854666Y-51150000D01*
X151821333Y-51083333D01*
X151788000Y-50950000D01*
X151788000Y-50783333D01*
X151821333Y-50650000D01*
X151854666Y-50583333D01*
X151888000Y-50550000D01*
X151954666Y-50516666D01*
X152521333Y-51216666D02*
X152654666Y-51216666D01*
X152721333Y-51183333D01*
X152754666Y-51150000D01*
X152821333Y-51050000D01*
X152854666Y-50916666D01*
X152854666Y-50650000D01*
X152821333Y-50583333D01*
X152788000Y-50550000D01*
X152721333Y-50516666D01*
X152588000Y-50516666D01*
X152521333Y-50550000D01*
X152488000Y-50583333D01*
X152454666Y-50650000D01*
X152454666Y-50816666D01*
X152488000Y-50883333D01*
X152521333Y-50916666D01*
X152588000Y-50950000D01*
X152721333Y-50950000D01*
X152788000Y-50916666D01*
X152821333Y-50883333D01*
X152854666Y-50816666D01*
%TO.C,R110*%
X163554666Y-51216666D02*
X163321333Y-50883333D01*
X163154666Y-51216666D02*
X163154666Y-50516666D01*
X163421333Y-50516666D01*
X163488000Y-50550000D01*
X163521333Y-50583333D01*
X163554666Y-50650000D01*
X163554666Y-50750000D01*
X163521333Y-50816666D01*
X163488000Y-50850000D01*
X163421333Y-50883333D01*
X163154666Y-50883333D01*
X164221333Y-51216666D02*
X163821333Y-51216666D01*
X164021333Y-51216666D02*
X164021333Y-50516666D01*
X163954666Y-50616666D01*
X163888000Y-50683333D01*
X163821333Y-50716666D01*
X164888000Y-51216666D02*
X164488000Y-51216666D01*
X164688000Y-51216666D02*
X164688000Y-50516666D01*
X164621333Y-50616666D01*
X164554666Y-50683333D01*
X164488000Y-50716666D01*
X165321333Y-50516666D02*
X165388000Y-50516666D01*
X165454666Y-50550000D01*
X165488000Y-50583333D01*
X165521333Y-50650000D01*
X165554666Y-50783333D01*
X165554666Y-50950000D01*
X165521333Y-51083333D01*
X165488000Y-51150000D01*
X165454666Y-51183333D01*
X165388000Y-51216666D01*
X165321333Y-51216666D01*
X165254666Y-51183333D01*
X165221333Y-51150000D01*
X165188000Y-51083333D01*
X165154666Y-50950000D01*
X165154666Y-50783333D01*
X165188000Y-50650000D01*
X165221333Y-50583333D01*
X165254666Y-50550000D01*
X165321333Y-50516666D01*
%TO.C,R108*%
X138154666Y-51216666D02*
X137921333Y-50883333D01*
X137754666Y-51216666D02*
X137754666Y-50516666D01*
X138021333Y-50516666D01*
X138088000Y-50550000D01*
X138121333Y-50583333D01*
X138154666Y-50650000D01*
X138154666Y-50750000D01*
X138121333Y-50816666D01*
X138088000Y-50850000D01*
X138021333Y-50883333D01*
X137754666Y-50883333D01*
X138821333Y-51216666D02*
X138421333Y-51216666D01*
X138621333Y-51216666D02*
X138621333Y-50516666D01*
X138554666Y-50616666D01*
X138488000Y-50683333D01*
X138421333Y-50716666D01*
X139254666Y-50516666D02*
X139321333Y-50516666D01*
X139388000Y-50550000D01*
X139421333Y-50583333D01*
X139454666Y-50650000D01*
X139488000Y-50783333D01*
X139488000Y-50950000D01*
X139454666Y-51083333D01*
X139421333Y-51150000D01*
X139388000Y-51183333D01*
X139321333Y-51216666D01*
X139254666Y-51216666D01*
X139188000Y-51183333D01*
X139154666Y-51150000D01*
X139121333Y-51083333D01*
X139088000Y-50950000D01*
X139088000Y-50783333D01*
X139121333Y-50650000D01*
X139154666Y-50583333D01*
X139188000Y-50550000D01*
X139254666Y-50516666D01*
X139888000Y-50816666D02*
X139821333Y-50783333D01*
X139788000Y-50750000D01*
X139754666Y-50683333D01*
X139754666Y-50650000D01*
X139788000Y-50583333D01*
X139821333Y-50550000D01*
X139888000Y-50516666D01*
X140021333Y-50516666D01*
X140088000Y-50550000D01*
X140121333Y-50583333D01*
X140154666Y-50650000D01*
X140154666Y-50683333D01*
X140121333Y-50750000D01*
X140088000Y-50783333D01*
X140021333Y-50816666D01*
X139888000Y-50816666D01*
X139821333Y-50850000D01*
X139788000Y-50883333D01*
X139754666Y-50950000D01*
X139754666Y-51083333D01*
X139788000Y-51150000D01*
X139821333Y-51183333D01*
X139888000Y-51216666D01*
X140021333Y-51216666D01*
X140088000Y-51183333D01*
X140121333Y-51150000D01*
X140154666Y-51083333D01*
X140154666Y-50950000D01*
X140121333Y-50883333D01*
X140088000Y-50850000D01*
X140021333Y-50816666D01*
%TO.C,R106*%
X163554666Y-52486666D02*
X163321333Y-52153333D01*
X163154666Y-52486666D02*
X163154666Y-51786666D01*
X163421333Y-51786666D01*
X163488000Y-51820000D01*
X163521333Y-51853333D01*
X163554666Y-51920000D01*
X163554666Y-52020000D01*
X163521333Y-52086666D01*
X163488000Y-52120000D01*
X163421333Y-52153333D01*
X163154666Y-52153333D01*
X164221333Y-52486666D02*
X163821333Y-52486666D01*
X164021333Y-52486666D02*
X164021333Y-51786666D01*
X163954666Y-51886666D01*
X163888000Y-51953333D01*
X163821333Y-51986666D01*
X164654666Y-51786666D02*
X164721333Y-51786666D01*
X164788000Y-51820000D01*
X164821333Y-51853333D01*
X164854666Y-51920000D01*
X164888000Y-52053333D01*
X164888000Y-52220000D01*
X164854666Y-52353333D01*
X164821333Y-52420000D01*
X164788000Y-52453333D01*
X164721333Y-52486666D01*
X164654666Y-52486666D01*
X164588000Y-52453333D01*
X164554666Y-52420000D01*
X164521333Y-52353333D01*
X164488000Y-52220000D01*
X164488000Y-52053333D01*
X164521333Y-51920000D01*
X164554666Y-51853333D01*
X164588000Y-51820000D01*
X164654666Y-51786666D01*
X165488000Y-51786666D02*
X165354666Y-51786666D01*
X165288000Y-51820000D01*
X165254666Y-51853333D01*
X165188000Y-51953333D01*
X165154666Y-52086666D01*
X165154666Y-52353333D01*
X165188000Y-52420000D01*
X165221333Y-52453333D01*
X165288000Y-52486666D01*
X165421333Y-52486666D01*
X165488000Y-52453333D01*
X165521333Y-52420000D01*
X165554666Y-52353333D01*
X165554666Y-52186666D01*
X165521333Y-52120000D01*
X165488000Y-52086666D01*
X165421333Y-52053333D01*
X165288000Y-52053333D01*
X165221333Y-52086666D01*
X165188000Y-52120000D01*
X165154666Y-52186666D01*
%TO.C,R105*%
X150854666Y-52486666D02*
X150621333Y-52153333D01*
X150454666Y-52486666D02*
X150454666Y-51786666D01*
X150721333Y-51786666D01*
X150788000Y-51820000D01*
X150821333Y-51853333D01*
X150854666Y-51920000D01*
X150854666Y-52020000D01*
X150821333Y-52086666D01*
X150788000Y-52120000D01*
X150721333Y-52153333D01*
X150454666Y-52153333D01*
X151521333Y-52486666D02*
X151121333Y-52486666D01*
X151321333Y-52486666D02*
X151321333Y-51786666D01*
X151254666Y-51886666D01*
X151188000Y-51953333D01*
X151121333Y-51986666D01*
X151954666Y-51786666D02*
X152021333Y-51786666D01*
X152088000Y-51820000D01*
X152121333Y-51853333D01*
X152154666Y-51920000D01*
X152188000Y-52053333D01*
X152188000Y-52220000D01*
X152154666Y-52353333D01*
X152121333Y-52420000D01*
X152088000Y-52453333D01*
X152021333Y-52486666D01*
X151954666Y-52486666D01*
X151888000Y-52453333D01*
X151854666Y-52420000D01*
X151821333Y-52353333D01*
X151788000Y-52220000D01*
X151788000Y-52053333D01*
X151821333Y-51920000D01*
X151854666Y-51853333D01*
X151888000Y-51820000D01*
X151954666Y-51786666D01*
X152821333Y-51786666D02*
X152488000Y-51786666D01*
X152454666Y-52120000D01*
X152488000Y-52086666D01*
X152554666Y-52053333D01*
X152721333Y-52053333D01*
X152788000Y-52086666D01*
X152821333Y-52120000D01*
X152854666Y-52186666D01*
X152854666Y-52353333D01*
X152821333Y-52420000D01*
X152788000Y-52453333D01*
X152721333Y-52486666D01*
X152554666Y-52486666D01*
X152488000Y-52453333D01*
X152454666Y-52420000D01*
%TO.C,R104*%
X138154666Y-52486666D02*
X137921333Y-52153333D01*
X137754666Y-52486666D02*
X137754666Y-51786666D01*
X138021333Y-51786666D01*
X138088000Y-51820000D01*
X138121333Y-51853333D01*
X138154666Y-51920000D01*
X138154666Y-52020000D01*
X138121333Y-52086666D01*
X138088000Y-52120000D01*
X138021333Y-52153333D01*
X137754666Y-52153333D01*
X138821333Y-52486666D02*
X138421333Y-52486666D01*
X138621333Y-52486666D02*
X138621333Y-51786666D01*
X138554666Y-51886666D01*
X138488000Y-51953333D01*
X138421333Y-51986666D01*
X139254666Y-51786666D02*
X139321333Y-51786666D01*
X139388000Y-51820000D01*
X139421333Y-51853333D01*
X139454666Y-51920000D01*
X139488000Y-52053333D01*
X139488000Y-52220000D01*
X139454666Y-52353333D01*
X139421333Y-52420000D01*
X139388000Y-52453333D01*
X139321333Y-52486666D01*
X139254666Y-52486666D01*
X139188000Y-52453333D01*
X139154666Y-52420000D01*
X139121333Y-52353333D01*
X139088000Y-52220000D01*
X139088000Y-52053333D01*
X139121333Y-51920000D01*
X139154666Y-51853333D01*
X139188000Y-51820000D01*
X139254666Y-51786666D01*
X140088000Y-52020000D02*
X140088000Y-52486666D01*
X139921333Y-51753333D02*
X139754666Y-52253333D01*
X140188000Y-52253333D01*
%TO.C,R61*%
X150299000Y-78829666D02*
X150065666Y-78496333D01*
X149899000Y-78829666D02*
X149899000Y-78129666D01*
X150165666Y-78129666D01*
X150232333Y-78163000D01*
X150265666Y-78196333D01*
X150299000Y-78263000D01*
X150299000Y-78363000D01*
X150265666Y-78429666D01*
X150232333Y-78463000D01*
X150165666Y-78496333D01*
X149899000Y-78496333D01*
X150899000Y-78129666D02*
X150765666Y-78129666D01*
X150699000Y-78163000D01*
X150665666Y-78196333D01*
X150599000Y-78296333D01*
X150565666Y-78429666D01*
X150565666Y-78696333D01*
X150599000Y-78763000D01*
X150632333Y-78796333D01*
X150699000Y-78829666D01*
X150832333Y-78829666D01*
X150899000Y-78796333D01*
X150932333Y-78763000D01*
X150965666Y-78696333D01*
X150965666Y-78529666D01*
X150932333Y-78463000D01*
X150899000Y-78429666D01*
X150832333Y-78396333D01*
X150699000Y-78396333D01*
X150632333Y-78429666D01*
X150599000Y-78463000D01*
X150565666Y-78529666D01*
X151632333Y-78829666D02*
X151232333Y-78829666D01*
X151432333Y-78829666D02*
X151432333Y-78129666D01*
X151365666Y-78229666D01*
X151299000Y-78296333D01*
X151232333Y-78329666D01*
%TO.C,R60*%
X150299000Y-76289666D02*
X150065666Y-75956333D01*
X149899000Y-76289666D02*
X149899000Y-75589666D01*
X150165666Y-75589666D01*
X150232333Y-75623000D01*
X150265666Y-75656333D01*
X150299000Y-75723000D01*
X150299000Y-75823000D01*
X150265666Y-75889666D01*
X150232333Y-75923000D01*
X150165666Y-75956333D01*
X149899000Y-75956333D01*
X150899000Y-75589666D02*
X150765666Y-75589666D01*
X150699000Y-75623000D01*
X150665666Y-75656333D01*
X150599000Y-75756333D01*
X150565666Y-75889666D01*
X150565666Y-76156333D01*
X150599000Y-76223000D01*
X150632333Y-76256333D01*
X150699000Y-76289666D01*
X150832333Y-76289666D01*
X150899000Y-76256333D01*
X150932333Y-76223000D01*
X150965666Y-76156333D01*
X150965666Y-75989666D01*
X150932333Y-75923000D01*
X150899000Y-75889666D01*
X150832333Y-75856333D01*
X150699000Y-75856333D01*
X150632333Y-75889666D01*
X150599000Y-75923000D01*
X150565666Y-75989666D01*
X151399000Y-75589666D02*
X151465666Y-75589666D01*
X151532333Y-75623000D01*
X151565666Y-75656333D01*
X151599000Y-75723000D01*
X151632333Y-75856333D01*
X151632333Y-76023000D01*
X151599000Y-76156333D01*
X151565666Y-76223000D01*
X151532333Y-76256333D01*
X151465666Y-76289666D01*
X151399000Y-76289666D01*
X151332333Y-76256333D01*
X151299000Y-76223000D01*
X151265666Y-76156333D01*
X151232333Y-76023000D01*
X151232333Y-75856333D01*
X151265666Y-75723000D01*
X151299000Y-75656333D01*
X151332333Y-75623000D01*
X151399000Y-75589666D01*
%TO.C,R59*%
X150299000Y-73749666D02*
X150065666Y-73416333D01*
X149899000Y-73749666D02*
X149899000Y-73049666D01*
X150165666Y-73049666D01*
X150232333Y-73083000D01*
X150265666Y-73116333D01*
X150299000Y-73183000D01*
X150299000Y-73283000D01*
X150265666Y-73349666D01*
X150232333Y-73383000D01*
X150165666Y-73416333D01*
X149899000Y-73416333D01*
X150932333Y-73049666D02*
X150599000Y-73049666D01*
X150565666Y-73383000D01*
X150599000Y-73349666D01*
X150665666Y-73316333D01*
X150832333Y-73316333D01*
X150899000Y-73349666D01*
X150932333Y-73383000D01*
X150965666Y-73449666D01*
X150965666Y-73616333D01*
X150932333Y-73683000D01*
X150899000Y-73716333D01*
X150832333Y-73749666D01*
X150665666Y-73749666D01*
X150599000Y-73716333D01*
X150565666Y-73683000D01*
X151299000Y-73749666D02*
X151432333Y-73749666D01*
X151499000Y-73716333D01*
X151532333Y-73683000D01*
X151599000Y-73583000D01*
X151632333Y-73449666D01*
X151632333Y-73183000D01*
X151599000Y-73116333D01*
X151565666Y-73083000D01*
X151499000Y-73049666D01*
X151365666Y-73049666D01*
X151299000Y-73083000D01*
X151265666Y-73116333D01*
X151232333Y-73183000D01*
X151232333Y-73349666D01*
X151265666Y-73416333D01*
X151299000Y-73449666D01*
X151365666Y-73483000D01*
X151499000Y-73483000D01*
X151565666Y-73449666D01*
X151599000Y-73416333D01*
X151632333Y-73349666D01*
%TO.C,R58*%
X139123000Y-71409666D02*
X138889666Y-71076333D01*
X138723000Y-71409666D02*
X138723000Y-70709666D01*
X138989666Y-70709666D01*
X139056333Y-70743000D01*
X139089666Y-70776333D01*
X139123000Y-70843000D01*
X139123000Y-70943000D01*
X139089666Y-71009666D01*
X139056333Y-71043000D01*
X138989666Y-71076333D01*
X138723000Y-71076333D01*
X139756333Y-70709666D02*
X139423000Y-70709666D01*
X139389666Y-71043000D01*
X139423000Y-71009666D01*
X139489666Y-70976333D01*
X139656333Y-70976333D01*
X139723000Y-71009666D01*
X139756333Y-71043000D01*
X139789666Y-71109666D01*
X139789666Y-71276333D01*
X139756333Y-71343000D01*
X139723000Y-71376333D01*
X139656333Y-71409666D01*
X139489666Y-71409666D01*
X139423000Y-71376333D01*
X139389666Y-71343000D01*
X140189666Y-71009666D02*
X140123000Y-70976333D01*
X140089666Y-70943000D01*
X140056333Y-70876333D01*
X140056333Y-70843000D01*
X140089666Y-70776333D01*
X140123000Y-70743000D01*
X140189666Y-70709666D01*
X140323000Y-70709666D01*
X140389666Y-70743000D01*
X140423000Y-70776333D01*
X140456333Y-70843000D01*
X140456333Y-70876333D01*
X140423000Y-70943000D01*
X140389666Y-70976333D01*
X140323000Y-71009666D01*
X140189666Y-71009666D01*
X140123000Y-71043000D01*
X140089666Y-71076333D01*
X140056333Y-71143000D01*
X140056333Y-71276333D01*
X140089666Y-71343000D01*
X140123000Y-71376333D01*
X140189666Y-71409666D01*
X140323000Y-71409666D01*
X140389666Y-71376333D01*
X140423000Y-71343000D01*
X140456333Y-71276333D01*
X140456333Y-71143000D01*
X140423000Y-71076333D01*
X140389666Y-71043000D01*
X140323000Y-71009666D01*
%TO.C,R57*%
X139123000Y-73949666D02*
X138889666Y-73616333D01*
X138723000Y-73949666D02*
X138723000Y-73249666D01*
X138989666Y-73249666D01*
X139056333Y-73283000D01*
X139089666Y-73316333D01*
X139123000Y-73383000D01*
X139123000Y-73483000D01*
X139089666Y-73549666D01*
X139056333Y-73583000D01*
X138989666Y-73616333D01*
X138723000Y-73616333D01*
X139756333Y-73249666D02*
X139423000Y-73249666D01*
X139389666Y-73583000D01*
X139423000Y-73549666D01*
X139489666Y-73516333D01*
X139656333Y-73516333D01*
X139723000Y-73549666D01*
X139756333Y-73583000D01*
X139789666Y-73649666D01*
X139789666Y-73816333D01*
X139756333Y-73883000D01*
X139723000Y-73916333D01*
X139656333Y-73949666D01*
X139489666Y-73949666D01*
X139423000Y-73916333D01*
X139389666Y-73883000D01*
X140023000Y-73249666D02*
X140489666Y-73249666D01*
X140189666Y-73949666D01*
%TO.C,R99*%
X142298000Y-59817766D02*
X142064666Y-59484433D01*
X141898000Y-59817766D02*
X141898000Y-59117766D01*
X142164666Y-59117766D01*
X142231333Y-59151100D01*
X142264666Y-59184433D01*
X142298000Y-59251100D01*
X142298000Y-59351100D01*
X142264666Y-59417766D01*
X142231333Y-59451100D01*
X142164666Y-59484433D01*
X141898000Y-59484433D01*
X142631333Y-59817766D02*
X142764666Y-59817766D01*
X142831333Y-59784433D01*
X142864666Y-59751100D01*
X142931333Y-59651100D01*
X142964666Y-59517766D01*
X142964666Y-59251100D01*
X142931333Y-59184433D01*
X142898000Y-59151100D01*
X142831333Y-59117766D01*
X142698000Y-59117766D01*
X142631333Y-59151100D01*
X142598000Y-59184433D01*
X142564666Y-59251100D01*
X142564666Y-59417766D01*
X142598000Y-59484433D01*
X142631333Y-59517766D01*
X142698000Y-59551100D01*
X142831333Y-59551100D01*
X142898000Y-59517766D01*
X142931333Y-59484433D01*
X142964666Y-59417766D01*
X143298000Y-59817766D02*
X143431333Y-59817766D01*
X143498000Y-59784433D01*
X143531333Y-59751100D01*
X143598000Y-59651100D01*
X143631333Y-59517766D01*
X143631333Y-59251100D01*
X143598000Y-59184433D01*
X143564666Y-59151100D01*
X143498000Y-59117766D01*
X143364666Y-59117766D01*
X143298000Y-59151100D01*
X143264666Y-59184433D01*
X143231333Y-59251100D01*
X143231333Y-59417766D01*
X143264666Y-59484433D01*
X143298000Y-59517766D01*
X143364666Y-59551100D01*
X143498000Y-59551100D01*
X143564666Y-59517766D01*
X143598000Y-59484433D01*
X143631333Y-59417766D01*
%TO.C,R98*%
X130995000Y-59817766D02*
X130761666Y-59484433D01*
X130595000Y-59817766D02*
X130595000Y-59117766D01*
X130861666Y-59117766D01*
X130928333Y-59151100D01*
X130961666Y-59184433D01*
X130995000Y-59251100D01*
X130995000Y-59351100D01*
X130961666Y-59417766D01*
X130928333Y-59451100D01*
X130861666Y-59484433D01*
X130595000Y-59484433D01*
X131328333Y-59817766D02*
X131461666Y-59817766D01*
X131528333Y-59784433D01*
X131561666Y-59751100D01*
X131628333Y-59651100D01*
X131661666Y-59517766D01*
X131661666Y-59251100D01*
X131628333Y-59184433D01*
X131595000Y-59151100D01*
X131528333Y-59117766D01*
X131395000Y-59117766D01*
X131328333Y-59151100D01*
X131295000Y-59184433D01*
X131261666Y-59251100D01*
X131261666Y-59417766D01*
X131295000Y-59484433D01*
X131328333Y-59517766D01*
X131395000Y-59551100D01*
X131528333Y-59551100D01*
X131595000Y-59517766D01*
X131628333Y-59484433D01*
X131661666Y-59417766D01*
X132061666Y-59417766D02*
X131995000Y-59384433D01*
X131961666Y-59351100D01*
X131928333Y-59284433D01*
X131928333Y-59251100D01*
X131961666Y-59184433D01*
X131995000Y-59151100D01*
X132061666Y-59117766D01*
X132195000Y-59117766D01*
X132261666Y-59151100D01*
X132295000Y-59184433D01*
X132328333Y-59251100D01*
X132328333Y-59284433D01*
X132295000Y-59351100D01*
X132261666Y-59384433D01*
X132195000Y-59417766D01*
X132061666Y-59417766D01*
X131995000Y-59451100D01*
X131961666Y-59484433D01*
X131928333Y-59551100D01*
X131928333Y-59684433D01*
X131961666Y-59751100D01*
X131995000Y-59784433D01*
X132061666Y-59817766D01*
X132195000Y-59817766D01*
X132261666Y-59784433D01*
X132295000Y-59751100D01*
X132328333Y-59684433D01*
X132328333Y-59551100D01*
X132295000Y-59484433D01*
X132261666Y-59451100D01*
X132195000Y-59417766D01*
%TO.C,R97*%
X142298000Y-61588146D02*
X142064666Y-61254813D01*
X141898000Y-61588146D02*
X141898000Y-60888146D01*
X142164666Y-60888146D01*
X142231333Y-60921480D01*
X142264666Y-60954813D01*
X142298000Y-61021480D01*
X142298000Y-61121480D01*
X142264666Y-61188146D01*
X142231333Y-61221480D01*
X142164666Y-61254813D01*
X141898000Y-61254813D01*
X142631333Y-61588146D02*
X142764666Y-61588146D01*
X142831333Y-61554813D01*
X142864666Y-61521480D01*
X142931333Y-61421480D01*
X142964666Y-61288146D01*
X142964666Y-61021480D01*
X142931333Y-60954813D01*
X142898000Y-60921480D01*
X142831333Y-60888146D01*
X142698000Y-60888146D01*
X142631333Y-60921480D01*
X142598000Y-60954813D01*
X142564666Y-61021480D01*
X142564666Y-61188146D01*
X142598000Y-61254813D01*
X142631333Y-61288146D01*
X142698000Y-61321480D01*
X142831333Y-61321480D01*
X142898000Y-61288146D01*
X142931333Y-61254813D01*
X142964666Y-61188146D01*
X143198000Y-60888146D02*
X143664666Y-60888146D01*
X143364666Y-61588146D01*
%TO.C,R96*%
X130995000Y-61588146D02*
X130761666Y-61254813D01*
X130595000Y-61588146D02*
X130595000Y-60888146D01*
X130861666Y-60888146D01*
X130928333Y-60921480D01*
X130961666Y-60954813D01*
X130995000Y-61021480D01*
X130995000Y-61121480D01*
X130961666Y-61188146D01*
X130928333Y-61221480D01*
X130861666Y-61254813D01*
X130595000Y-61254813D01*
X131328333Y-61588146D02*
X131461666Y-61588146D01*
X131528333Y-61554813D01*
X131561666Y-61521480D01*
X131628333Y-61421480D01*
X131661666Y-61288146D01*
X131661666Y-61021480D01*
X131628333Y-60954813D01*
X131595000Y-60921480D01*
X131528333Y-60888146D01*
X131395000Y-60888146D01*
X131328333Y-60921480D01*
X131295000Y-60954813D01*
X131261666Y-61021480D01*
X131261666Y-61188146D01*
X131295000Y-61254813D01*
X131328333Y-61288146D01*
X131395000Y-61321480D01*
X131528333Y-61321480D01*
X131595000Y-61288146D01*
X131628333Y-61254813D01*
X131661666Y-61188146D01*
X132261666Y-60888146D02*
X132128333Y-60888146D01*
X132061666Y-60921480D01*
X132028333Y-60954813D01*
X131961666Y-61054813D01*
X131928333Y-61188146D01*
X131928333Y-61454813D01*
X131961666Y-61521480D01*
X131995000Y-61554813D01*
X132061666Y-61588146D01*
X132195000Y-61588146D01*
X132261666Y-61554813D01*
X132295000Y-61521480D01*
X132328333Y-61454813D01*
X132328333Y-61288146D01*
X132295000Y-61221480D01*
X132261666Y-61188146D01*
X132195000Y-61154813D01*
X132061666Y-61154813D01*
X131995000Y-61188146D01*
X131961666Y-61221480D01*
X131928333Y-61288146D01*
%TO.C,R95*%
X142298000Y-63358526D02*
X142064666Y-63025193D01*
X141898000Y-63358526D02*
X141898000Y-62658526D01*
X142164666Y-62658526D01*
X142231333Y-62691860D01*
X142264666Y-62725193D01*
X142298000Y-62791860D01*
X142298000Y-62891860D01*
X142264666Y-62958526D01*
X142231333Y-62991860D01*
X142164666Y-63025193D01*
X141898000Y-63025193D01*
X142631333Y-63358526D02*
X142764666Y-63358526D01*
X142831333Y-63325193D01*
X142864666Y-63291860D01*
X142931333Y-63191860D01*
X142964666Y-63058526D01*
X142964666Y-62791860D01*
X142931333Y-62725193D01*
X142898000Y-62691860D01*
X142831333Y-62658526D01*
X142698000Y-62658526D01*
X142631333Y-62691860D01*
X142598000Y-62725193D01*
X142564666Y-62791860D01*
X142564666Y-62958526D01*
X142598000Y-63025193D01*
X142631333Y-63058526D01*
X142698000Y-63091860D01*
X142831333Y-63091860D01*
X142898000Y-63058526D01*
X142931333Y-63025193D01*
X142964666Y-62958526D01*
X143598000Y-62658526D02*
X143264666Y-62658526D01*
X143231333Y-62991860D01*
X143264666Y-62958526D01*
X143331333Y-62925193D01*
X143498000Y-62925193D01*
X143564666Y-62958526D01*
X143598000Y-62991860D01*
X143631333Y-63058526D01*
X143631333Y-63225193D01*
X143598000Y-63291860D01*
X143564666Y-63325193D01*
X143498000Y-63358526D01*
X143331333Y-63358526D01*
X143264666Y-63325193D01*
X143231333Y-63291860D01*
%TO.C,R94*%
X130995000Y-63358526D02*
X130761666Y-63025193D01*
X130595000Y-63358526D02*
X130595000Y-62658526D01*
X130861666Y-62658526D01*
X130928333Y-62691860D01*
X130961666Y-62725193D01*
X130995000Y-62791860D01*
X130995000Y-62891860D01*
X130961666Y-62958526D01*
X130928333Y-62991860D01*
X130861666Y-63025193D01*
X130595000Y-63025193D01*
X131328333Y-63358526D02*
X131461666Y-63358526D01*
X131528333Y-63325193D01*
X131561666Y-63291860D01*
X131628333Y-63191860D01*
X131661666Y-63058526D01*
X131661666Y-62791860D01*
X131628333Y-62725193D01*
X131595000Y-62691860D01*
X131528333Y-62658526D01*
X131395000Y-62658526D01*
X131328333Y-62691860D01*
X131295000Y-62725193D01*
X131261666Y-62791860D01*
X131261666Y-62958526D01*
X131295000Y-63025193D01*
X131328333Y-63058526D01*
X131395000Y-63091860D01*
X131528333Y-63091860D01*
X131595000Y-63058526D01*
X131628333Y-63025193D01*
X131661666Y-62958526D01*
X132261666Y-62891860D02*
X132261666Y-63358526D01*
X132095000Y-62625193D02*
X131928333Y-63125193D01*
X132361666Y-63125193D01*
%TO.C,R93*%
X142298000Y-65128906D02*
X142064666Y-64795573D01*
X141898000Y-65128906D02*
X141898000Y-64428906D01*
X142164666Y-64428906D01*
X142231333Y-64462240D01*
X142264666Y-64495573D01*
X142298000Y-64562240D01*
X142298000Y-64662240D01*
X142264666Y-64728906D01*
X142231333Y-64762240D01*
X142164666Y-64795573D01*
X141898000Y-64795573D01*
X142631333Y-65128906D02*
X142764666Y-65128906D01*
X142831333Y-65095573D01*
X142864666Y-65062240D01*
X142931333Y-64962240D01*
X142964666Y-64828906D01*
X142964666Y-64562240D01*
X142931333Y-64495573D01*
X142898000Y-64462240D01*
X142831333Y-64428906D01*
X142698000Y-64428906D01*
X142631333Y-64462240D01*
X142598000Y-64495573D01*
X142564666Y-64562240D01*
X142564666Y-64728906D01*
X142598000Y-64795573D01*
X142631333Y-64828906D01*
X142698000Y-64862240D01*
X142831333Y-64862240D01*
X142898000Y-64828906D01*
X142931333Y-64795573D01*
X142964666Y-64728906D01*
X143198000Y-64428906D02*
X143631333Y-64428906D01*
X143398000Y-64695573D01*
X143498000Y-64695573D01*
X143564666Y-64728906D01*
X143598000Y-64762240D01*
X143631333Y-64828906D01*
X143631333Y-64995573D01*
X143598000Y-65062240D01*
X143564666Y-65095573D01*
X143498000Y-65128906D01*
X143298000Y-65128906D01*
X143231333Y-65095573D01*
X143198000Y-65062240D01*
%TO.C,R92*%
X130995000Y-65128906D02*
X130761666Y-64795573D01*
X130595000Y-65128906D02*
X130595000Y-64428906D01*
X130861666Y-64428906D01*
X130928333Y-64462240D01*
X130961666Y-64495573D01*
X130995000Y-64562240D01*
X130995000Y-64662240D01*
X130961666Y-64728906D01*
X130928333Y-64762240D01*
X130861666Y-64795573D01*
X130595000Y-64795573D01*
X131328333Y-65128906D02*
X131461666Y-65128906D01*
X131528333Y-65095573D01*
X131561666Y-65062240D01*
X131628333Y-64962240D01*
X131661666Y-64828906D01*
X131661666Y-64562240D01*
X131628333Y-64495573D01*
X131595000Y-64462240D01*
X131528333Y-64428906D01*
X131395000Y-64428906D01*
X131328333Y-64462240D01*
X131295000Y-64495573D01*
X131261666Y-64562240D01*
X131261666Y-64728906D01*
X131295000Y-64795573D01*
X131328333Y-64828906D01*
X131395000Y-64862240D01*
X131528333Y-64862240D01*
X131595000Y-64828906D01*
X131628333Y-64795573D01*
X131661666Y-64728906D01*
X131928333Y-64495573D02*
X131961666Y-64462240D01*
X132028333Y-64428906D01*
X132195000Y-64428906D01*
X132261666Y-64462240D01*
X132295000Y-64495573D01*
X132328333Y-64562240D01*
X132328333Y-64628906D01*
X132295000Y-64728906D01*
X131895000Y-65128906D01*
X132328333Y-65128906D01*
%TO.C,R91*%
X142298000Y-66899286D02*
X142064666Y-66565953D01*
X141898000Y-66899286D02*
X141898000Y-66199286D01*
X142164666Y-66199286D01*
X142231333Y-66232620D01*
X142264666Y-66265953D01*
X142298000Y-66332620D01*
X142298000Y-66432620D01*
X142264666Y-66499286D01*
X142231333Y-66532620D01*
X142164666Y-66565953D01*
X141898000Y-66565953D01*
X142631333Y-66899286D02*
X142764666Y-66899286D01*
X142831333Y-66865953D01*
X142864666Y-66832620D01*
X142931333Y-66732620D01*
X142964666Y-66599286D01*
X142964666Y-66332620D01*
X142931333Y-66265953D01*
X142898000Y-66232620D01*
X142831333Y-66199286D01*
X142698000Y-66199286D01*
X142631333Y-66232620D01*
X142598000Y-66265953D01*
X142564666Y-66332620D01*
X142564666Y-66499286D01*
X142598000Y-66565953D01*
X142631333Y-66599286D01*
X142698000Y-66632620D01*
X142831333Y-66632620D01*
X142898000Y-66599286D01*
X142931333Y-66565953D01*
X142964666Y-66499286D01*
X143631333Y-66899286D02*
X143231333Y-66899286D01*
X143431333Y-66899286D02*
X143431333Y-66199286D01*
X143364666Y-66299286D01*
X143298000Y-66365953D01*
X143231333Y-66399286D01*
%TO.C,R90*%
X130995000Y-66899286D02*
X130761666Y-66565953D01*
X130595000Y-66899286D02*
X130595000Y-66199286D01*
X130861666Y-66199286D01*
X130928333Y-66232620D01*
X130961666Y-66265953D01*
X130995000Y-66332620D01*
X130995000Y-66432620D01*
X130961666Y-66499286D01*
X130928333Y-66532620D01*
X130861666Y-66565953D01*
X130595000Y-66565953D01*
X131328333Y-66899286D02*
X131461666Y-66899286D01*
X131528333Y-66865953D01*
X131561666Y-66832620D01*
X131628333Y-66732620D01*
X131661666Y-66599286D01*
X131661666Y-66332620D01*
X131628333Y-66265953D01*
X131595000Y-66232620D01*
X131528333Y-66199286D01*
X131395000Y-66199286D01*
X131328333Y-66232620D01*
X131295000Y-66265953D01*
X131261666Y-66332620D01*
X131261666Y-66499286D01*
X131295000Y-66565953D01*
X131328333Y-66599286D01*
X131395000Y-66632620D01*
X131528333Y-66632620D01*
X131595000Y-66599286D01*
X131628333Y-66565953D01*
X131661666Y-66499286D01*
X132095000Y-66199286D02*
X132161666Y-66199286D01*
X132228333Y-66232620D01*
X132261666Y-66265953D01*
X132295000Y-66332620D01*
X132328333Y-66465953D01*
X132328333Y-66632620D01*
X132295000Y-66765953D01*
X132261666Y-66832620D01*
X132228333Y-66865953D01*
X132161666Y-66899286D01*
X132095000Y-66899286D01*
X132028333Y-66865953D01*
X131995000Y-66832620D01*
X131961666Y-66765953D01*
X131928333Y-66632620D01*
X131928333Y-66465953D01*
X131961666Y-66332620D01*
X131995000Y-66265953D01*
X132028333Y-66232620D01*
X132095000Y-66199286D01*
%TO.C,R89*%
X142298000Y-68669666D02*
X142064666Y-68336333D01*
X141898000Y-68669666D02*
X141898000Y-67969666D01*
X142164666Y-67969666D01*
X142231333Y-68003000D01*
X142264666Y-68036333D01*
X142298000Y-68103000D01*
X142298000Y-68203000D01*
X142264666Y-68269666D01*
X142231333Y-68303000D01*
X142164666Y-68336333D01*
X141898000Y-68336333D01*
X142698000Y-68269666D02*
X142631333Y-68236333D01*
X142598000Y-68203000D01*
X142564666Y-68136333D01*
X142564666Y-68103000D01*
X142598000Y-68036333D01*
X142631333Y-68003000D01*
X142698000Y-67969666D01*
X142831333Y-67969666D01*
X142898000Y-68003000D01*
X142931333Y-68036333D01*
X142964666Y-68103000D01*
X142964666Y-68136333D01*
X142931333Y-68203000D01*
X142898000Y-68236333D01*
X142831333Y-68269666D01*
X142698000Y-68269666D01*
X142631333Y-68303000D01*
X142598000Y-68336333D01*
X142564666Y-68403000D01*
X142564666Y-68536333D01*
X142598000Y-68603000D01*
X142631333Y-68636333D01*
X142698000Y-68669666D01*
X142831333Y-68669666D01*
X142898000Y-68636333D01*
X142931333Y-68603000D01*
X142964666Y-68536333D01*
X142964666Y-68403000D01*
X142931333Y-68336333D01*
X142898000Y-68303000D01*
X142831333Y-68269666D01*
X143298000Y-68669666D02*
X143431333Y-68669666D01*
X143498000Y-68636333D01*
X143531333Y-68603000D01*
X143598000Y-68503000D01*
X143631333Y-68369666D01*
X143631333Y-68103000D01*
X143598000Y-68036333D01*
X143564666Y-68003000D01*
X143498000Y-67969666D01*
X143364666Y-67969666D01*
X143298000Y-68003000D01*
X143264666Y-68036333D01*
X143231333Y-68103000D01*
X143231333Y-68269666D01*
X143264666Y-68336333D01*
X143298000Y-68369666D01*
X143364666Y-68403000D01*
X143498000Y-68403000D01*
X143564666Y-68369666D01*
X143598000Y-68336333D01*
X143631333Y-68269666D01*
%TO.C,R88*%
X130995000Y-68669666D02*
X130761666Y-68336333D01*
X130595000Y-68669666D02*
X130595000Y-67969666D01*
X130861666Y-67969666D01*
X130928333Y-68003000D01*
X130961666Y-68036333D01*
X130995000Y-68103000D01*
X130995000Y-68203000D01*
X130961666Y-68269666D01*
X130928333Y-68303000D01*
X130861666Y-68336333D01*
X130595000Y-68336333D01*
X131395000Y-68269666D02*
X131328333Y-68236333D01*
X131295000Y-68203000D01*
X131261666Y-68136333D01*
X131261666Y-68103000D01*
X131295000Y-68036333D01*
X131328333Y-68003000D01*
X131395000Y-67969666D01*
X131528333Y-67969666D01*
X131595000Y-68003000D01*
X131628333Y-68036333D01*
X131661666Y-68103000D01*
X131661666Y-68136333D01*
X131628333Y-68203000D01*
X131595000Y-68236333D01*
X131528333Y-68269666D01*
X131395000Y-68269666D01*
X131328333Y-68303000D01*
X131295000Y-68336333D01*
X131261666Y-68403000D01*
X131261666Y-68536333D01*
X131295000Y-68603000D01*
X131328333Y-68636333D01*
X131395000Y-68669666D01*
X131528333Y-68669666D01*
X131595000Y-68636333D01*
X131628333Y-68603000D01*
X131661666Y-68536333D01*
X131661666Y-68403000D01*
X131628333Y-68336333D01*
X131595000Y-68303000D01*
X131528333Y-68269666D01*
X132061666Y-68269666D02*
X131995000Y-68236333D01*
X131961666Y-68203000D01*
X131928333Y-68136333D01*
X131928333Y-68103000D01*
X131961666Y-68036333D01*
X131995000Y-68003000D01*
X132061666Y-67969666D01*
X132195000Y-67969666D01*
X132261666Y-68003000D01*
X132295000Y-68036333D01*
X132328333Y-68103000D01*
X132328333Y-68136333D01*
X132295000Y-68203000D01*
X132261666Y-68236333D01*
X132195000Y-68269666D01*
X132061666Y-68269666D01*
X131995000Y-68303000D01*
X131961666Y-68336333D01*
X131928333Y-68403000D01*
X131928333Y-68536333D01*
X131961666Y-68603000D01*
X131995000Y-68636333D01*
X132061666Y-68669666D01*
X132195000Y-68669666D01*
X132261666Y-68636333D01*
X132295000Y-68603000D01*
X132328333Y-68536333D01*
X132328333Y-68403000D01*
X132295000Y-68336333D01*
X132261666Y-68303000D01*
X132195000Y-68269666D01*
%TO.C,R87*%
X136710000Y-59817766D02*
X136476666Y-59484433D01*
X136310000Y-59817766D02*
X136310000Y-59117766D01*
X136576666Y-59117766D01*
X136643333Y-59151100D01*
X136676666Y-59184433D01*
X136710000Y-59251100D01*
X136710000Y-59351100D01*
X136676666Y-59417766D01*
X136643333Y-59451100D01*
X136576666Y-59484433D01*
X136310000Y-59484433D01*
X137110000Y-59417766D02*
X137043333Y-59384433D01*
X137010000Y-59351100D01*
X136976666Y-59284433D01*
X136976666Y-59251100D01*
X137010000Y-59184433D01*
X137043333Y-59151100D01*
X137110000Y-59117766D01*
X137243333Y-59117766D01*
X137310000Y-59151100D01*
X137343333Y-59184433D01*
X137376666Y-59251100D01*
X137376666Y-59284433D01*
X137343333Y-59351100D01*
X137310000Y-59384433D01*
X137243333Y-59417766D01*
X137110000Y-59417766D01*
X137043333Y-59451100D01*
X137010000Y-59484433D01*
X136976666Y-59551100D01*
X136976666Y-59684433D01*
X137010000Y-59751100D01*
X137043333Y-59784433D01*
X137110000Y-59817766D01*
X137243333Y-59817766D01*
X137310000Y-59784433D01*
X137343333Y-59751100D01*
X137376666Y-59684433D01*
X137376666Y-59551100D01*
X137343333Y-59484433D01*
X137310000Y-59451100D01*
X137243333Y-59417766D01*
X137610000Y-59117766D02*
X138076666Y-59117766D01*
X137776666Y-59817766D01*
%TO.C,R86*%
X125430000Y-59817766D02*
X125196666Y-59484433D01*
X125030000Y-59817766D02*
X125030000Y-59117766D01*
X125296666Y-59117766D01*
X125363333Y-59151100D01*
X125396666Y-59184433D01*
X125430000Y-59251100D01*
X125430000Y-59351100D01*
X125396666Y-59417766D01*
X125363333Y-59451100D01*
X125296666Y-59484433D01*
X125030000Y-59484433D01*
X125830000Y-59417766D02*
X125763333Y-59384433D01*
X125730000Y-59351100D01*
X125696666Y-59284433D01*
X125696666Y-59251100D01*
X125730000Y-59184433D01*
X125763333Y-59151100D01*
X125830000Y-59117766D01*
X125963333Y-59117766D01*
X126030000Y-59151100D01*
X126063333Y-59184433D01*
X126096666Y-59251100D01*
X126096666Y-59284433D01*
X126063333Y-59351100D01*
X126030000Y-59384433D01*
X125963333Y-59417766D01*
X125830000Y-59417766D01*
X125763333Y-59451100D01*
X125730000Y-59484433D01*
X125696666Y-59551100D01*
X125696666Y-59684433D01*
X125730000Y-59751100D01*
X125763333Y-59784433D01*
X125830000Y-59817766D01*
X125963333Y-59817766D01*
X126030000Y-59784433D01*
X126063333Y-59751100D01*
X126096666Y-59684433D01*
X126096666Y-59551100D01*
X126063333Y-59484433D01*
X126030000Y-59451100D01*
X125963333Y-59417766D01*
X126696666Y-59117766D02*
X126563333Y-59117766D01*
X126496666Y-59151100D01*
X126463333Y-59184433D01*
X126396666Y-59284433D01*
X126363333Y-59417766D01*
X126363333Y-59684433D01*
X126396666Y-59751100D01*
X126430000Y-59784433D01*
X126496666Y-59817766D01*
X126630000Y-59817766D01*
X126696666Y-59784433D01*
X126730000Y-59751100D01*
X126763333Y-59684433D01*
X126763333Y-59517766D01*
X126730000Y-59451100D01*
X126696666Y-59417766D01*
X126630000Y-59384433D01*
X126496666Y-59384433D01*
X126430000Y-59417766D01*
X126396666Y-59451100D01*
X126363333Y-59517766D01*
%TO.C,R85*%
X136710000Y-61588146D02*
X136476666Y-61254813D01*
X136310000Y-61588146D02*
X136310000Y-60888146D01*
X136576666Y-60888146D01*
X136643333Y-60921480D01*
X136676666Y-60954813D01*
X136710000Y-61021480D01*
X136710000Y-61121480D01*
X136676666Y-61188146D01*
X136643333Y-61221480D01*
X136576666Y-61254813D01*
X136310000Y-61254813D01*
X137110000Y-61188146D02*
X137043333Y-61154813D01*
X137010000Y-61121480D01*
X136976666Y-61054813D01*
X136976666Y-61021480D01*
X137010000Y-60954813D01*
X137043333Y-60921480D01*
X137110000Y-60888146D01*
X137243333Y-60888146D01*
X137310000Y-60921480D01*
X137343333Y-60954813D01*
X137376666Y-61021480D01*
X137376666Y-61054813D01*
X137343333Y-61121480D01*
X137310000Y-61154813D01*
X137243333Y-61188146D01*
X137110000Y-61188146D01*
X137043333Y-61221480D01*
X137010000Y-61254813D01*
X136976666Y-61321480D01*
X136976666Y-61454813D01*
X137010000Y-61521480D01*
X137043333Y-61554813D01*
X137110000Y-61588146D01*
X137243333Y-61588146D01*
X137310000Y-61554813D01*
X137343333Y-61521480D01*
X137376666Y-61454813D01*
X137376666Y-61321480D01*
X137343333Y-61254813D01*
X137310000Y-61221480D01*
X137243333Y-61188146D01*
X138010000Y-60888146D02*
X137676666Y-60888146D01*
X137643333Y-61221480D01*
X137676666Y-61188146D01*
X137743333Y-61154813D01*
X137910000Y-61154813D01*
X137976666Y-61188146D01*
X138010000Y-61221480D01*
X138043333Y-61288146D01*
X138043333Y-61454813D01*
X138010000Y-61521480D01*
X137976666Y-61554813D01*
X137910000Y-61588146D01*
X137743333Y-61588146D01*
X137676666Y-61554813D01*
X137643333Y-61521480D01*
%TO.C,R84*%
X125430000Y-61588146D02*
X125196666Y-61254813D01*
X125030000Y-61588146D02*
X125030000Y-60888146D01*
X125296666Y-60888146D01*
X125363333Y-60921480D01*
X125396666Y-60954813D01*
X125430000Y-61021480D01*
X125430000Y-61121480D01*
X125396666Y-61188146D01*
X125363333Y-61221480D01*
X125296666Y-61254813D01*
X125030000Y-61254813D01*
X125830000Y-61188146D02*
X125763333Y-61154813D01*
X125730000Y-61121480D01*
X125696666Y-61054813D01*
X125696666Y-61021480D01*
X125730000Y-60954813D01*
X125763333Y-60921480D01*
X125830000Y-60888146D01*
X125963333Y-60888146D01*
X126030000Y-60921480D01*
X126063333Y-60954813D01*
X126096666Y-61021480D01*
X126096666Y-61054813D01*
X126063333Y-61121480D01*
X126030000Y-61154813D01*
X125963333Y-61188146D01*
X125830000Y-61188146D01*
X125763333Y-61221480D01*
X125730000Y-61254813D01*
X125696666Y-61321480D01*
X125696666Y-61454813D01*
X125730000Y-61521480D01*
X125763333Y-61554813D01*
X125830000Y-61588146D01*
X125963333Y-61588146D01*
X126030000Y-61554813D01*
X126063333Y-61521480D01*
X126096666Y-61454813D01*
X126096666Y-61321480D01*
X126063333Y-61254813D01*
X126030000Y-61221480D01*
X125963333Y-61188146D01*
X126696666Y-61121480D02*
X126696666Y-61588146D01*
X126530000Y-60854813D02*
X126363333Y-61354813D01*
X126796666Y-61354813D01*
%TO.C,R83*%
X136710000Y-63358526D02*
X136476666Y-63025193D01*
X136310000Y-63358526D02*
X136310000Y-62658526D01*
X136576666Y-62658526D01*
X136643333Y-62691860D01*
X136676666Y-62725193D01*
X136710000Y-62791860D01*
X136710000Y-62891860D01*
X136676666Y-62958526D01*
X136643333Y-62991860D01*
X136576666Y-63025193D01*
X136310000Y-63025193D01*
X137110000Y-62958526D02*
X137043333Y-62925193D01*
X137010000Y-62891860D01*
X136976666Y-62825193D01*
X136976666Y-62791860D01*
X137010000Y-62725193D01*
X137043333Y-62691860D01*
X137110000Y-62658526D01*
X137243333Y-62658526D01*
X137310000Y-62691860D01*
X137343333Y-62725193D01*
X137376666Y-62791860D01*
X137376666Y-62825193D01*
X137343333Y-62891860D01*
X137310000Y-62925193D01*
X137243333Y-62958526D01*
X137110000Y-62958526D01*
X137043333Y-62991860D01*
X137010000Y-63025193D01*
X136976666Y-63091860D01*
X136976666Y-63225193D01*
X137010000Y-63291860D01*
X137043333Y-63325193D01*
X137110000Y-63358526D01*
X137243333Y-63358526D01*
X137310000Y-63325193D01*
X137343333Y-63291860D01*
X137376666Y-63225193D01*
X137376666Y-63091860D01*
X137343333Y-63025193D01*
X137310000Y-62991860D01*
X137243333Y-62958526D01*
X137610000Y-62658526D02*
X138043333Y-62658526D01*
X137810000Y-62925193D01*
X137910000Y-62925193D01*
X137976666Y-62958526D01*
X138010000Y-62991860D01*
X138043333Y-63058526D01*
X138043333Y-63225193D01*
X138010000Y-63291860D01*
X137976666Y-63325193D01*
X137910000Y-63358526D01*
X137710000Y-63358526D01*
X137643333Y-63325193D01*
X137610000Y-63291860D01*
%TO.C,R82*%
X125430000Y-63358526D02*
X125196666Y-63025193D01*
X125030000Y-63358526D02*
X125030000Y-62658526D01*
X125296666Y-62658526D01*
X125363333Y-62691860D01*
X125396666Y-62725193D01*
X125430000Y-62791860D01*
X125430000Y-62891860D01*
X125396666Y-62958526D01*
X125363333Y-62991860D01*
X125296666Y-63025193D01*
X125030000Y-63025193D01*
X125830000Y-62958526D02*
X125763333Y-62925193D01*
X125730000Y-62891860D01*
X125696666Y-62825193D01*
X125696666Y-62791860D01*
X125730000Y-62725193D01*
X125763333Y-62691860D01*
X125830000Y-62658526D01*
X125963333Y-62658526D01*
X126030000Y-62691860D01*
X126063333Y-62725193D01*
X126096666Y-62791860D01*
X126096666Y-62825193D01*
X126063333Y-62891860D01*
X126030000Y-62925193D01*
X125963333Y-62958526D01*
X125830000Y-62958526D01*
X125763333Y-62991860D01*
X125730000Y-63025193D01*
X125696666Y-63091860D01*
X125696666Y-63225193D01*
X125730000Y-63291860D01*
X125763333Y-63325193D01*
X125830000Y-63358526D01*
X125963333Y-63358526D01*
X126030000Y-63325193D01*
X126063333Y-63291860D01*
X126096666Y-63225193D01*
X126096666Y-63091860D01*
X126063333Y-63025193D01*
X126030000Y-62991860D01*
X125963333Y-62958526D01*
X126363333Y-62725193D02*
X126396666Y-62691860D01*
X126463333Y-62658526D01*
X126630000Y-62658526D01*
X126696666Y-62691860D01*
X126730000Y-62725193D01*
X126763333Y-62791860D01*
X126763333Y-62858526D01*
X126730000Y-62958526D01*
X126330000Y-63358526D01*
X126763333Y-63358526D01*
%TO.C,R81*%
X136710000Y-65128906D02*
X136476666Y-64795573D01*
X136310000Y-65128906D02*
X136310000Y-64428906D01*
X136576666Y-64428906D01*
X136643333Y-64462240D01*
X136676666Y-64495573D01*
X136710000Y-64562240D01*
X136710000Y-64662240D01*
X136676666Y-64728906D01*
X136643333Y-64762240D01*
X136576666Y-64795573D01*
X136310000Y-64795573D01*
X137110000Y-64728906D02*
X137043333Y-64695573D01*
X137010000Y-64662240D01*
X136976666Y-64595573D01*
X136976666Y-64562240D01*
X137010000Y-64495573D01*
X137043333Y-64462240D01*
X137110000Y-64428906D01*
X137243333Y-64428906D01*
X137310000Y-64462240D01*
X137343333Y-64495573D01*
X137376666Y-64562240D01*
X137376666Y-64595573D01*
X137343333Y-64662240D01*
X137310000Y-64695573D01*
X137243333Y-64728906D01*
X137110000Y-64728906D01*
X137043333Y-64762240D01*
X137010000Y-64795573D01*
X136976666Y-64862240D01*
X136976666Y-64995573D01*
X137010000Y-65062240D01*
X137043333Y-65095573D01*
X137110000Y-65128906D01*
X137243333Y-65128906D01*
X137310000Y-65095573D01*
X137343333Y-65062240D01*
X137376666Y-64995573D01*
X137376666Y-64862240D01*
X137343333Y-64795573D01*
X137310000Y-64762240D01*
X137243333Y-64728906D01*
X138043333Y-65128906D02*
X137643333Y-65128906D01*
X137843333Y-65128906D02*
X137843333Y-64428906D01*
X137776666Y-64528906D01*
X137710000Y-64595573D01*
X137643333Y-64628906D01*
%TO.C,R80*%
X125430000Y-65128906D02*
X125196666Y-64795573D01*
X125030000Y-65128906D02*
X125030000Y-64428906D01*
X125296666Y-64428906D01*
X125363333Y-64462240D01*
X125396666Y-64495573D01*
X125430000Y-64562240D01*
X125430000Y-64662240D01*
X125396666Y-64728906D01*
X125363333Y-64762240D01*
X125296666Y-64795573D01*
X125030000Y-64795573D01*
X125830000Y-64728906D02*
X125763333Y-64695573D01*
X125730000Y-64662240D01*
X125696666Y-64595573D01*
X125696666Y-64562240D01*
X125730000Y-64495573D01*
X125763333Y-64462240D01*
X125830000Y-64428906D01*
X125963333Y-64428906D01*
X126030000Y-64462240D01*
X126063333Y-64495573D01*
X126096666Y-64562240D01*
X126096666Y-64595573D01*
X126063333Y-64662240D01*
X126030000Y-64695573D01*
X125963333Y-64728906D01*
X125830000Y-64728906D01*
X125763333Y-64762240D01*
X125730000Y-64795573D01*
X125696666Y-64862240D01*
X125696666Y-64995573D01*
X125730000Y-65062240D01*
X125763333Y-65095573D01*
X125830000Y-65128906D01*
X125963333Y-65128906D01*
X126030000Y-65095573D01*
X126063333Y-65062240D01*
X126096666Y-64995573D01*
X126096666Y-64862240D01*
X126063333Y-64795573D01*
X126030000Y-64762240D01*
X125963333Y-64728906D01*
X126530000Y-64428906D02*
X126596666Y-64428906D01*
X126663333Y-64462240D01*
X126696666Y-64495573D01*
X126730000Y-64562240D01*
X126763333Y-64695573D01*
X126763333Y-64862240D01*
X126730000Y-64995573D01*
X126696666Y-65062240D01*
X126663333Y-65095573D01*
X126596666Y-65128906D01*
X126530000Y-65128906D01*
X126463333Y-65095573D01*
X126430000Y-65062240D01*
X126396666Y-64995573D01*
X126363333Y-64862240D01*
X126363333Y-64695573D01*
X126396666Y-64562240D01*
X126430000Y-64495573D01*
X126463333Y-64462240D01*
X126530000Y-64428906D01*
%TO.C,R79*%
X136710000Y-66899286D02*
X136476666Y-66565953D01*
X136310000Y-66899286D02*
X136310000Y-66199286D01*
X136576666Y-66199286D01*
X136643333Y-66232620D01*
X136676666Y-66265953D01*
X136710000Y-66332620D01*
X136710000Y-66432620D01*
X136676666Y-66499286D01*
X136643333Y-66532620D01*
X136576666Y-66565953D01*
X136310000Y-66565953D01*
X136943333Y-66199286D02*
X137410000Y-66199286D01*
X137110000Y-66899286D01*
X137710000Y-66899286D02*
X137843333Y-66899286D01*
X137910000Y-66865953D01*
X137943333Y-66832620D01*
X138010000Y-66732620D01*
X138043333Y-66599286D01*
X138043333Y-66332620D01*
X138010000Y-66265953D01*
X137976666Y-66232620D01*
X137910000Y-66199286D01*
X137776666Y-66199286D01*
X137710000Y-66232620D01*
X137676666Y-66265953D01*
X137643333Y-66332620D01*
X137643333Y-66499286D01*
X137676666Y-66565953D01*
X137710000Y-66599286D01*
X137776666Y-66632620D01*
X137910000Y-66632620D01*
X137976666Y-66599286D01*
X138010000Y-66565953D01*
X138043333Y-66499286D01*
%TO.C,R78*%
X125430000Y-66899286D02*
X125196666Y-66565953D01*
X125030000Y-66899286D02*
X125030000Y-66199286D01*
X125296666Y-66199286D01*
X125363333Y-66232620D01*
X125396666Y-66265953D01*
X125430000Y-66332620D01*
X125430000Y-66432620D01*
X125396666Y-66499286D01*
X125363333Y-66532620D01*
X125296666Y-66565953D01*
X125030000Y-66565953D01*
X125663333Y-66199286D02*
X126130000Y-66199286D01*
X125830000Y-66899286D01*
X126496666Y-66499286D02*
X126430000Y-66465953D01*
X126396666Y-66432620D01*
X126363333Y-66365953D01*
X126363333Y-66332620D01*
X126396666Y-66265953D01*
X126430000Y-66232620D01*
X126496666Y-66199286D01*
X126630000Y-66199286D01*
X126696666Y-66232620D01*
X126730000Y-66265953D01*
X126763333Y-66332620D01*
X126763333Y-66365953D01*
X126730000Y-66432620D01*
X126696666Y-66465953D01*
X126630000Y-66499286D01*
X126496666Y-66499286D01*
X126430000Y-66532620D01*
X126396666Y-66565953D01*
X126363333Y-66632620D01*
X126363333Y-66765953D01*
X126396666Y-66832620D01*
X126430000Y-66865953D01*
X126496666Y-66899286D01*
X126630000Y-66899286D01*
X126696666Y-66865953D01*
X126730000Y-66832620D01*
X126763333Y-66765953D01*
X126763333Y-66632620D01*
X126730000Y-66565953D01*
X126696666Y-66532620D01*
X126630000Y-66499286D01*
%TO.C,R77*%
X136710000Y-68669666D02*
X136476666Y-68336333D01*
X136310000Y-68669666D02*
X136310000Y-67969666D01*
X136576666Y-67969666D01*
X136643333Y-68003000D01*
X136676666Y-68036333D01*
X136710000Y-68103000D01*
X136710000Y-68203000D01*
X136676666Y-68269666D01*
X136643333Y-68303000D01*
X136576666Y-68336333D01*
X136310000Y-68336333D01*
X136943333Y-67969666D02*
X137410000Y-67969666D01*
X137110000Y-68669666D01*
X137610000Y-67969666D02*
X138076666Y-67969666D01*
X137776666Y-68669666D01*
%TO.C,R76*%
X125430000Y-68669666D02*
X125196666Y-68336333D01*
X125030000Y-68669666D02*
X125030000Y-67969666D01*
X125296666Y-67969666D01*
X125363333Y-68003000D01*
X125396666Y-68036333D01*
X125430000Y-68103000D01*
X125430000Y-68203000D01*
X125396666Y-68269666D01*
X125363333Y-68303000D01*
X125296666Y-68336333D01*
X125030000Y-68336333D01*
X125663333Y-67969666D02*
X126130000Y-67969666D01*
X125830000Y-68669666D01*
X126696666Y-67969666D02*
X126563333Y-67969666D01*
X126496666Y-68003000D01*
X126463333Y-68036333D01*
X126396666Y-68136333D01*
X126363333Y-68269666D01*
X126363333Y-68536333D01*
X126396666Y-68603000D01*
X126430000Y-68636333D01*
X126496666Y-68669666D01*
X126630000Y-68669666D01*
X126696666Y-68636333D01*
X126730000Y-68603000D01*
X126763333Y-68536333D01*
X126763333Y-68369666D01*
X126730000Y-68303000D01*
X126696666Y-68269666D01*
X126630000Y-68236333D01*
X126496666Y-68236333D01*
X126430000Y-68269666D01*
X126396666Y-68303000D01*
X126363333Y-68369666D01*
%TO.C,R2*%
X122438333Y-80359666D02*
X122205000Y-80026333D01*
X122038333Y-80359666D02*
X122038333Y-79659666D01*
X122305000Y-79659666D01*
X122371666Y-79693000D01*
X122405000Y-79726333D01*
X122438333Y-79793000D01*
X122438333Y-79893000D01*
X122405000Y-79959666D01*
X122371666Y-79993000D01*
X122305000Y-80026333D01*
X122038333Y-80026333D01*
X122705000Y-79726333D02*
X122738333Y-79693000D01*
X122805000Y-79659666D01*
X122971666Y-79659666D01*
X123038333Y-79693000D01*
X123071666Y-79726333D01*
X123105000Y-79793000D01*
X123105000Y-79859666D01*
X123071666Y-79959666D01*
X122671666Y-80359666D01*
X123105000Y-80359666D01*
%TO.C,R1*%
X122374833Y-80103166D02*
X122141500Y-79769833D01*
X121974833Y-80103166D02*
X121974833Y-79403166D01*
X122241500Y-79403166D01*
X122308166Y-79436500D01*
X122341500Y-79469833D01*
X122374833Y-79536500D01*
X122374833Y-79636500D01*
X122341500Y-79703166D01*
X122308166Y-79736500D01*
X122241500Y-79769833D01*
X121974833Y-79769833D01*
X123041500Y-80103166D02*
X122641500Y-80103166D01*
X122841500Y-80103166D02*
X122841500Y-79403166D01*
X122774833Y-79503166D01*
X122708166Y-79569833D01*
X122641500Y-79603166D01*
%TO.C,C75*%
X171346000Y-100018000D02*
X171379333Y-100051333D01*
X171412666Y-100151333D01*
X171412666Y-100218000D01*
X171379333Y-100318000D01*
X171312666Y-100384666D01*
X171246000Y-100418000D01*
X171112666Y-100451333D01*
X171012666Y-100451333D01*
X170879333Y-100418000D01*
X170812666Y-100384666D01*
X170746000Y-100318000D01*
X170712666Y-100218000D01*
X170712666Y-100151333D01*
X170746000Y-100051333D01*
X170779333Y-100018000D01*
X170712666Y-99784666D02*
X170712666Y-99318000D01*
X171412666Y-99618000D01*
X170712666Y-98718000D02*
X170712666Y-99051333D01*
X171046000Y-99084666D01*
X171012666Y-99051333D01*
X170979333Y-98984666D01*
X170979333Y-98818000D01*
X171012666Y-98751333D01*
X171046000Y-98718000D01*
X171112666Y-98684666D01*
X171279333Y-98684666D01*
X171346000Y-98718000D01*
X171379333Y-98751333D01*
X171412666Y-98818000D01*
X171412666Y-98984666D01*
X171379333Y-99051333D01*
X171346000Y-99084666D01*
%TO.C,C13*%
X177223000Y-110453000D02*
X177189666Y-110486333D01*
X177089666Y-110519666D01*
X177023000Y-110519666D01*
X176923000Y-110486333D01*
X176856333Y-110419666D01*
X176823000Y-110353000D01*
X176789666Y-110219666D01*
X176789666Y-110119666D01*
X176823000Y-109986333D01*
X176856333Y-109919666D01*
X176923000Y-109853000D01*
X177023000Y-109819666D01*
X177089666Y-109819666D01*
X177189666Y-109853000D01*
X177223000Y-109886333D01*
X177889666Y-110519666D02*
X177489666Y-110519666D01*
X177689666Y-110519666D02*
X177689666Y-109819666D01*
X177623000Y-109919666D01*
X177556333Y-109986333D01*
X177489666Y-110019666D01*
X178123000Y-109819666D02*
X178556333Y-109819666D01*
X178323000Y-110086333D01*
X178423000Y-110086333D01*
X178489666Y-110119666D01*
X178523000Y-110153000D01*
X178556333Y-110219666D01*
X178556333Y-110386333D01*
X178523000Y-110453000D01*
X178489666Y-110486333D01*
X178423000Y-110519666D01*
X178223000Y-110519666D01*
X178156333Y-110486333D01*
X178123000Y-110453000D01*
%TO.C,C12*%
X127375500Y-110326000D02*
X127342166Y-110359333D01*
X127242166Y-110392666D01*
X127175500Y-110392666D01*
X127075500Y-110359333D01*
X127008833Y-110292666D01*
X126975500Y-110226000D01*
X126942166Y-110092666D01*
X126942166Y-109992666D01*
X126975500Y-109859333D01*
X127008833Y-109792666D01*
X127075500Y-109726000D01*
X127175500Y-109692666D01*
X127242166Y-109692666D01*
X127342166Y-109726000D01*
X127375500Y-109759333D01*
X128042166Y-110392666D02*
X127642166Y-110392666D01*
X127842166Y-110392666D02*
X127842166Y-109692666D01*
X127775500Y-109792666D01*
X127708833Y-109859333D01*
X127642166Y-109892666D01*
X128308833Y-109759333D02*
X128342166Y-109726000D01*
X128408833Y-109692666D01*
X128575500Y-109692666D01*
X128642166Y-109726000D01*
X128675500Y-109759333D01*
X128708833Y-109826000D01*
X128708833Y-109892666D01*
X128675500Y-109992666D01*
X128275500Y-110392666D01*
X128708833Y-110392666D01*
%TO.C,C11*%
X177350000Y-63526500D02*
X177316666Y-63559833D01*
X177216666Y-63593166D01*
X177150000Y-63593166D01*
X177050000Y-63559833D01*
X176983333Y-63493166D01*
X176950000Y-63426500D01*
X176916666Y-63293166D01*
X176916666Y-63193166D01*
X176950000Y-63059833D01*
X176983333Y-62993166D01*
X177050000Y-62926500D01*
X177150000Y-62893166D01*
X177216666Y-62893166D01*
X177316666Y-62926500D01*
X177350000Y-62959833D01*
X178016666Y-63593166D02*
X177616666Y-63593166D01*
X177816666Y-63593166D02*
X177816666Y-62893166D01*
X177750000Y-62993166D01*
X177683333Y-63059833D01*
X177616666Y-63093166D01*
X178683333Y-63593166D02*
X178283333Y-63593166D01*
X178483333Y-63593166D02*
X178483333Y-62893166D01*
X178416666Y-62993166D01*
X178350000Y-63059833D01*
X178283333Y-63093166D01*
%TO.C,C7*%
X164334000Y-92318666D02*
X164367333Y-92352000D01*
X164400666Y-92452000D01*
X164400666Y-92518666D01*
X164367333Y-92618666D01*
X164300666Y-92685333D01*
X164234000Y-92718666D01*
X164100666Y-92752000D01*
X164000666Y-92752000D01*
X163867333Y-92718666D01*
X163800666Y-92685333D01*
X163734000Y-92618666D01*
X163700666Y-92518666D01*
X163700666Y-92452000D01*
X163734000Y-92352000D01*
X163767333Y-92318666D01*
X163700666Y-92085333D02*
X163700666Y-91618666D01*
X164400666Y-91918666D01*
%TO.C,C6*%
X162285000Y-94477666D02*
X162318333Y-94511000D01*
X162351666Y-94611000D01*
X162351666Y-94677666D01*
X162318333Y-94777666D01*
X162251666Y-94844333D01*
X162185000Y-94877666D01*
X162051666Y-94911000D01*
X161951666Y-94911000D01*
X161818333Y-94877666D01*
X161751666Y-94844333D01*
X161685000Y-94777666D01*
X161651666Y-94677666D01*
X161651666Y-94611000D01*
X161685000Y-94511000D01*
X161718333Y-94477666D01*
X161651666Y-93877666D02*
X161651666Y-94011000D01*
X161685000Y-94077666D01*
X161718333Y-94111000D01*
X161818333Y-94177666D01*
X161951666Y-94211000D01*
X162218333Y-94211000D01*
X162285000Y-94177666D01*
X162318333Y-94144333D01*
X162351666Y-94077666D01*
X162351666Y-93944333D01*
X162318333Y-93877666D01*
X162285000Y-93844333D01*
X162218333Y-93811000D01*
X162051666Y-93811000D01*
X161985000Y-93844333D01*
X161951666Y-93877666D01*
X161918333Y-93944333D01*
X161918333Y-94077666D01*
X161951666Y-94144333D01*
X161985000Y-94177666D01*
X162051666Y-94211000D01*
%TO.C,C5*%
X158767333Y-87860000D02*
X158734000Y-87893333D01*
X158634000Y-87926666D01*
X158567333Y-87926666D01*
X158467333Y-87893333D01*
X158400666Y-87826666D01*
X158367333Y-87760000D01*
X158334000Y-87626666D01*
X158334000Y-87526666D01*
X158367333Y-87393333D01*
X158400666Y-87326666D01*
X158467333Y-87260000D01*
X158567333Y-87226666D01*
X158634000Y-87226666D01*
X158734000Y-87260000D01*
X158767333Y-87293333D01*
X159400666Y-87226666D02*
X159067333Y-87226666D01*
X159034000Y-87560000D01*
X159067333Y-87526666D01*
X159134000Y-87493333D01*
X159300666Y-87493333D01*
X159367333Y-87526666D01*
X159400666Y-87560000D01*
X159434000Y-87626666D01*
X159434000Y-87793333D01*
X159400666Y-87860000D01*
X159367333Y-87893333D01*
X159300666Y-87926666D01*
X159134000Y-87926666D01*
X159067333Y-87893333D01*
X159034000Y-87860000D01*
%TO.C,C4*%
X155173000Y-95874666D02*
X155206333Y-95908000D01*
X155239666Y-96008000D01*
X155239666Y-96074666D01*
X155206333Y-96174666D01*
X155139666Y-96241333D01*
X155073000Y-96274666D01*
X154939666Y-96308000D01*
X154839666Y-96308000D01*
X154706333Y-96274666D01*
X154639666Y-96241333D01*
X154573000Y-96174666D01*
X154539666Y-96074666D01*
X154539666Y-96008000D01*
X154573000Y-95908000D01*
X154606333Y-95874666D01*
X154773000Y-95274666D02*
X155239666Y-95274666D01*
X154506333Y-95441333D02*
X155006333Y-95608000D01*
X155006333Y-95174666D01*
%TO.C,D2*%
X185808666Y-112149666D02*
X185108666Y-112149666D01*
X185108666Y-111983000D01*
X185142000Y-111883000D01*
X185208666Y-111816333D01*
X185275333Y-111783000D01*
X185408666Y-111749666D01*
X185508666Y-111749666D01*
X185642000Y-111783000D01*
X185708666Y-111816333D01*
X185775333Y-111883000D01*
X185808666Y-111983000D01*
X185808666Y-112149666D01*
X185175333Y-111483000D02*
X185142000Y-111449666D01*
X185108666Y-111383000D01*
X185108666Y-111216333D01*
X185142000Y-111149666D01*
X185175333Y-111116333D01*
X185242000Y-111083000D01*
X185308666Y-111083000D01*
X185408666Y-111116333D01*
X185808666Y-111516333D01*
X185808666Y-111083000D01*
%TO.C,D4*%
X185808666Y-115578666D02*
X185108666Y-115578666D01*
X185108666Y-115412000D01*
X185142000Y-115312000D01*
X185208666Y-115245333D01*
X185275333Y-115212000D01*
X185408666Y-115178666D01*
X185508666Y-115178666D01*
X185642000Y-115212000D01*
X185708666Y-115245333D01*
X185775333Y-115312000D01*
X185808666Y-115412000D01*
X185808666Y-115578666D01*
X185342000Y-114578666D02*
X185808666Y-114578666D01*
X185075333Y-114745333D02*
X185575333Y-114912000D01*
X185575333Y-114478666D01*
%TO.C,D7*%
X189237666Y-112149666D02*
X188537666Y-112149666D01*
X188537666Y-111983000D01*
X188571000Y-111883000D01*
X188637666Y-111816333D01*
X188704333Y-111783000D01*
X188837666Y-111749666D01*
X188937666Y-111749666D01*
X189071000Y-111783000D01*
X189137666Y-111816333D01*
X189204333Y-111883000D01*
X189237666Y-111983000D01*
X189237666Y-112149666D01*
X188537666Y-111516333D02*
X188537666Y-111049666D01*
X189237666Y-111349666D01*
%TO.C,D8*%
X189237666Y-115578666D02*
X188537666Y-115578666D01*
X188537666Y-115412000D01*
X188571000Y-115312000D01*
X188637666Y-115245333D01*
X188704333Y-115212000D01*
X188837666Y-115178666D01*
X188937666Y-115178666D01*
X189071000Y-115212000D01*
X189137666Y-115245333D01*
X189204333Y-115312000D01*
X189237666Y-115412000D01*
X189237666Y-115578666D01*
X188837666Y-114778666D02*
X188804333Y-114845333D01*
X188771000Y-114878666D01*
X188704333Y-114912000D01*
X188671000Y-114912000D01*
X188604333Y-114878666D01*
X188571000Y-114845333D01*
X188537666Y-114778666D01*
X188537666Y-114645333D01*
X188571000Y-114578666D01*
X188604333Y-114545333D01*
X188671000Y-114512000D01*
X188704333Y-114512000D01*
X188771000Y-114545333D01*
X188804333Y-114578666D01*
X188837666Y-114645333D01*
X188837666Y-114778666D01*
X188871000Y-114845333D01*
X188904333Y-114878666D01*
X188971000Y-114912000D01*
X189104333Y-114912000D01*
X189171000Y-114878666D01*
X189204333Y-114845333D01*
X189237666Y-114778666D01*
X189237666Y-114645333D01*
X189204333Y-114578666D01*
X189171000Y-114545333D01*
X189104333Y-114512000D01*
X188971000Y-114512000D01*
X188904333Y-114545333D01*
X188871000Y-114578666D01*
X188837666Y-114645333D01*
%TO.C,D9*%
X189220666Y-108466666D02*
X188520666Y-108466666D01*
X188520666Y-108300000D01*
X188554000Y-108200000D01*
X188620666Y-108133333D01*
X188687333Y-108100000D01*
X188820666Y-108066666D01*
X188920666Y-108066666D01*
X189054000Y-108100000D01*
X189120666Y-108133333D01*
X189187333Y-108200000D01*
X189220666Y-108300000D01*
X189220666Y-108466666D01*
X189220666Y-107733333D02*
X189220666Y-107600000D01*
X189187333Y-107533333D01*
X189154000Y-107500000D01*
X189054000Y-107433333D01*
X188920666Y-107400000D01*
X188654000Y-107400000D01*
X188587333Y-107433333D01*
X188554000Y-107466666D01*
X188520666Y-107533333D01*
X188520666Y-107666666D01*
X188554000Y-107733333D01*
X188587333Y-107766666D01*
X188654000Y-107800000D01*
X188820666Y-107800000D01*
X188887333Y-107766666D01*
X188920666Y-107733333D01*
X188954000Y-107666666D01*
X188954000Y-107533333D01*
X188920666Y-107466666D01*
X188887333Y-107433333D01*
X188820666Y-107400000D01*
%TO.C,D10*%
X189220666Y-105371000D02*
X188520666Y-105371000D01*
X188520666Y-105204333D01*
X188554000Y-105104333D01*
X188620666Y-105037666D01*
X188687333Y-105004333D01*
X188820666Y-104971000D01*
X188920666Y-104971000D01*
X189054000Y-105004333D01*
X189120666Y-105037666D01*
X189187333Y-105104333D01*
X189220666Y-105204333D01*
X189220666Y-105371000D01*
X189220666Y-104304333D02*
X189220666Y-104704333D01*
X189220666Y-104504333D02*
X188520666Y-104504333D01*
X188620666Y-104571000D01*
X188687333Y-104637666D01*
X188720666Y-104704333D01*
X188520666Y-103871000D02*
X188520666Y-103804333D01*
X188554000Y-103737666D01*
X188587333Y-103704333D01*
X188654000Y-103671000D01*
X188787333Y-103637666D01*
X188954000Y-103637666D01*
X189087333Y-103671000D01*
X189154000Y-103704333D01*
X189187333Y-103737666D01*
X189220666Y-103804333D01*
X189220666Y-103871000D01*
X189187333Y-103937666D01*
X189154000Y-103971000D01*
X189087333Y-104004333D01*
X188954000Y-104037666D01*
X188787333Y-104037666D01*
X188654000Y-104004333D01*
X188587333Y-103971000D01*
X188554000Y-103937666D01*
X188520666Y-103871000D01*
%TO.C,D11*%
X185791666Y-108800000D02*
X185091666Y-108800000D01*
X185091666Y-108633333D01*
X185125000Y-108533333D01*
X185191666Y-108466666D01*
X185258333Y-108433333D01*
X185391666Y-108400000D01*
X185491666Y-108400000D01*
X185625000Y-108433333D01*
X185691666Y-108466666D01*
X185758333Y-108533333D01*
X185791666Y-108633333D01*
X185791666Y-108800000D01*
X185791666Y-107733333D02*
X185791666Y-108133333D01*
X185791666Y-107933333D02*
X185091666Y-107933333D01*
X185191666Y-108000000D01*
X185258333Y-108066666D01*
X185291666Y-108133333D01*
X185791666Y-107066666D02*
X185791666Y-107466666D01*
X185791666Y-107266666D02*
X185091666Y-107266666D01*
X185191666Y-107333333D01*
X185258333Y-107400000D01*
X185291666Y-107466666D01*
%TO.C,D12*%
X185791666Y-105371000D02*
X185091666Y-105371000D01*
X185091666Y-105204333D01*
X185125000Y-105104333D01*
X185191666Y-105037666D01*
X185258333Y-105004333D01*
X185391666Y-104971000D01*
X185491666Y-104971000D01*
X185625000Y-105004333D01*
X185691666Y-105037666D01*
X185758333Y-105104333D01*
X185791666Y-105204333D01*
X185791666Y-105371000D01*
X185791666Y-104304333D02*
X185791666Y-104704333D01*
X185791666Y-104504333D02*
X185091666Y-104504333D01*
X185191666Y-104571000D01*
X185258333Y-104637666D01*
X185291666Y-104704333D01*
X185158333Y-104037666D02*
X185125000Y-104004333D01*
X185091666Y-103937666D01*
X185091666Y-103771000D01*
X185125000Y-103704333D01*
X185158333Y-103671000D01*
X185225000Y-103637666D01*
X185291666Y-103637666D01*
X185391666Y-103671000D01*
X185791666Y-104071000D01*
X185791666Y-103637666D01*
%TO.C,D13*%
X180347666Y-92544000D02*
X179647666Y-92544000D01*
X179647666Y-92377333D01*
X179681000Y-92277333D01*
X179747666Y-92210666D01*
X179814333Y-92177333D01*
X179947666Y-92144000D01*
X180047666Y-92144000D01*
X180181000Y-92177333D01*
X180247666Y-92210666D01*
X180314333Y-92277333D01*
X180347666Y-92377333D01*
X180347666Y-92544000D01*
X180347666Y-91477333D02*
X180347666Y-91877333D01*
X180347666Y-91677333D02*
X179647666Y-91677333D01*
X179747666Y-91744000D01*
X179814333Y-91810666D01*
X179847666Y-91877333D01*
X179647666Y-91244000D02*
X179647666Y-90810666D01*
X179914333Y-91044000D01*
X179914333Y-90944000D01*
X179947666Y-90877333D01*
X179981000Y-90844000D01*
X180047666Y-90810666D01*
X180214333Y-90810666D01*
X180281000Y-90844000D01*
X180314333Y-90877333D01*
X180347666Y-90944000D01*
X180347666Y-91144000D01*
X180314333Y-91210666D01*
X180281000Y-91244000D01*
%TO.C,D14*%
X180347666Y-95973000D02*
X179647666Y-95973000D01*
X179647666Y-95806333D01*
X179681000Y-95706333D01*
X179747666Y-95639666D01*
X179814333Y-95606333D01*
X179947666Y-95573000D01*
X180047666Y-95573000D01*
X180181000Y-95606333D01*
X180247666Y-95639666D01*
X180314333Y-95706333D01*
X180347666Y-95806333D01*
X180347666Y-95973000D01*
X180347666Y-94906333D02*
X180347666Y-95306333D01*
X180347666Y-95106333D02*
X179647666Y-95106333D01*
X179747666Y-95173000D01*
X179814333Y-95239666D01*
X179847666Y-95306333D01*
X179881000Y-94306333D02*
X180347666Y-94306333D01*
X179614333Y-94473000D02*
X180114333Y-94639666D01*
X180114333Y-94206333D01*
%TO.C,D15*%
X183776666Y-92544000D02*
X183076666Y-92544000D01*
X183076666Y-92377333D01*
X183110000Y-92277333D01*
X183176666Y-92210666D01*
X183243333Y-92177333D01*
X183376666Y-92144000D01*
X183476666Y-92144000D01*
X183610000Y-92177333D01*
X183676666Y-92210666D01*
X183743333Y-92277333D01*
X183776666Y-92377333D01*
X183776666Y-92544000D01*
X183776666Y-91477333D02*
X183776666Y-91877333D01*
X183776666Y-91677333D02*
X183076666Y-91677333D01*
X183176666Y-91744000D01*
X183243333Y-91810666D01*
X183276666Y-91877333D01*
X183076666Y-90844000D02*
X183076666Y-91177333D01*
X183410000Y-91210666D01*
X183376666Y-91177333D01*
X183343333Y-91110666D01*
X183343333Y-90944000D01*
X183376666Y-90877333D01*
X183410000Y-90844000D01*
X183476666Y-90810666D01*
X183643333Y-90810666D01*
X183710000Y-90844000D01*
X183743333Y-90877333D01*
X183776666Y-90944000D01*
X183776666Y-91110666D01*
X183743333Y-91177333D01*
X183710000Y-91210666D01*
%TO.C,D16*%
X183776666Y-95973000D02*
X183076666Y-95973000D01*
X183076666Y-95806333D01*
X183110000Y-95706333D01*
X183176666Y-95639666D01*
X183243333Y-95606333D01*
X183376666Y-95573000D01*
X183476666Y-95573000D01*
X183610000Y-95606333D01*
X183676666Y-95639666D01*
X183743333Y-95706333D01*
X183776666Y-95806333D01*
X183776666Y-95973000D01*
X183776666Y-94906333D02*
X183776666Y-95306333D01*
X183776666Y-95106333D02*
X183076666Y-95106333D01*
X183176666Y-95173000D01*
X183243333Y-95239666D01*
X183276666Y-95306333D01*
X183076666Y-94306333D02*
X183076666Y-94439666D01*
X183110000Y-94506333D01*
X183143333Y-94539666D01*
X183243333Y-94606333D01*
X183376666Y-94639666D01*
X183643333Y-94639666D01*
X183710000Y-94606333D01*
X183743333Y-94573000D01*
X183776666Y-94506333D01*
X183776666Y-94373000D01*
X183743333Y-94306333D01*
X183710000Y-94273000D01*
X183643333Y-94239666D01*
X183476666Y-94239666D01*
X183410000Y-94273000D01*
X183376666Y-94306333D01*
X183343333Y-94373000D01*
X183343333Y-94506333D01*
X183376666Y-94573000D01*
X183410000Y-94606333D01*
X183476666Y-94639666D01*
%TO.C,U9*%
D13*
X177292095Y-57648880D02*
X177292095Y-58458404D01*
X177339714Y-58553642D01*
X177387333Y-58601261D01*
X177482571Y-58648880D01*
X177673047Y-58648880D01*
X177768285Y-58601261D01*
X177815904Y-58553642D01*
X177863523Y-58458404D01*
X177863523Y-57648880D01*
X178387333Y-58648880D02*
X178577809Y-58648880D01*
X178673047Y-58601261D01*
X178720666Y-58553642D01*
X178815904Y-58410785D01*
X178863523Y-58220309D01*
X178863523Y-57839357D01*
X178815904Y-57744119D01*
X178768285Y-57696500D01*
X178673047Y-57648880D01*
X178482571Y-57648880D01*
X178387333Y-57696500D01*
X178339714Y-57744119D01*
X178292095Y-57839357D01*
X178292095Y-58077452D01*
X178339714Y-58172690D01*
X178387333Y-58220309D01*
X178482571Y-58267928D01*
X178673047Y-58267928D01*
X178768285Y-58220309D01*
X178815904Y-58172690D01*
X178863523Y-58077452D01*
%TO.C,U10*%
X176784904Y-104614380D02*
X176784904Y-105423904D01*
X176832523Y-105519142D01*
X176880142Y-105566761D01*
X176975380Y-105614380D01*
X177165857Y-105614380D01*
X177261095Y-105566761D01*
X177308714Y-105519142D01*
X177356333Y-105423904D01*
X177356333Y-104614380D01*
X178356333Y-105614380D02*
X177784904Y-105614380D01*
X178070619Y-105614380D02*
X178070619Y-104614380D01*
X177975380Y-104757238D01*
X177880142Y-104852476D01*
X177784904Y-104900095D01*
X178975380Y-104614380D02*
X179070619Y-104614380D01*
X179165857Y-104662000D01*
X179213476Y-104709619D01*
X179261095Y-104804857D01*
X179308714Y-104995333D01*
X179308714Y-105233428D01*
X179261095Y-105423904D01*
X179213476Y-105519142D01*
X179165857Y-105566761D01*
X179070619Y-105614380D01*
X178975380Y-105614380D01*
X178880142Y-105566761D01*
X178832523Y-105519142D01*
X178784904Y-105423904D01*
X178737285Y-105233428D01*
X178737285Y-104995333D01*
X178784904Y-104804857D01*
X178832523Y-104709619D01*
X178880142Y-104662000D01*
X178975380Y-104614380D01*
%TO.C,U20*%
X126875404Y-104598880D02*
X126875404Y-105408404D01*
X126923023Y-105503642D01*
X126970642Y-105551261D01*
X127065880Y-105598880D01*
X127256357Y-105598880D01*
X127351595Y-105551261D01*
X127399214Y-105503642D01*
X127446833Y-105408404D01*
X127446833Y-104598880D01*
X127875404Y-104694119D02*
X127923023Y-104646500D01*
X128018261Y-104598880D01*
X128256357Y-104598880D01*
X128351595Y-104646500D01*
X128399214Y-104694119D01*
X128446833Y-104789357D01*
X128446833Y-104884595D01*
X128399214Y-105027452D01*
X127827785Y-105598880D01*
X128446833Y-105598880D01*
X129065880Y-104598880D02*
X129161119Y-104598880D01*
X129256357Y-104646500D01*
X129303976Y-104694119D01*
X129351595Y-104789357D01*
X129399214Y-104979833D01*
X129399214Y-105217928D01*
X129351595Y-105408404D01*
X129303976Y-105503642D01*
X129256357Y-105551261D01*
X129161119Y-105598880D01*
X129065880Y-105598880D01*
X128970642Y-105551261D01*
X128923023Y-105503642D01*
X128875404Y-105408404D01*
X128827785Y-105217928D01*
X128827785Y-104979833D01*
X128875404Y-104789357D01*
X128923023Y-104694119D01*
X128970642Y-104646500D01*
X129065880Y-104598880D01*
%TO.C,MAG_1*%
X192584880Y-115149047D02*
X191584880Y-115149047D01*
X192299166Y-114815714D01*
X191584880Y-114482380D01*
X192584880Y-114482380D01*
X192299166Y-114053809D02*
X192299166Y-113577619D01*
X192584880Y-114149047D02*
X191584880Y-113815714D01*
X192584880Y-113482380D01*
X191632500Y-112625238D02*
X191584880Y-112720476D01*
X191584880Y-112863333D01*
X191632500Y-113006190D01*
X191727738Y-113101428D01*
X191822976Y-113149047D01*
X192013452Y-113196666D01*
X192156309Y-113196666D01*
X192346785Y-113149047D01*
X192442023Y-113101428D01*
X192537261Y-113006190D01*
X192584880Y-112863333D01*
X192584880Y-112768095D01*
X192537261Y-112625238D01*
X192489642Y-112577619D01*
X192156309Y-112577619D01*
X192156309Y-112768095D01*
X192680119Y-112387142D02*
X192680119Y-111625238D01*
X192584880Y-110863333D02*
X192584880Y-111434761D01*
X192584880Y-111149047D02*
X191584880Y-111149047D01*
X191727738Y-111244285D01*
X191822976Y-111339523D01*
X191870595Y-111434761D01*
%TO.C,H11*%
X185225905Y-94055377D02*
X185225905Y-93055377D01*
X185225905Y-93531568D02*
X185797334Y-93531568D01*
X185797334Y-94055377D02*
X185797334Y-93055377D01*
X186797334Y-94055377D02*
X186225905Y-94055377D01*
X186511620Y-94055377D02*
X186511620Y-93055377D01*
X186416381Y-93198235D01*
X186321143Y-93293473D01*
X186225905Y-93341092D01*
X187749715Y-94055377D02*
X187178286Y-94055377D01*
X187464001Y-94055377D02*
X187464001Y-93055377D01*
X187368762Y-93198235D01*
X187273524Y-93293473D01*
X187178286Y-93341092D01*
%TO.C,MAG_3*%
X192584880Y-95845047D02*
X191584880Y-95845047D01*
X192299166Y-95511714D01*
X191584880Y-95178380D01*
X192584880Y-95178380D01*
X192299166Y-94749809D02*
X192299166Y-94273619D01*
X192584880Y-94845047D02*
X191584880Y-94511714D01*
X192584880Y-94178380D01*
X191632500Y-93321238D02*
X191584880Y-93416476D01*
X191584880Y-93559333D01*
X191632500Y-93702190D01*
X191727738Y-93797428D01*
X191822976Y-93845047D01*
X192013452Y-93892666D01*
X192156309Y-93892666D01*
X192346785Y-93845047D01*
X192442023Y-93797428D01*
X192537261Y-93702190D01*
X192584880Y-93559333D01*
X192584880Y-93464095D01*
X192537261Y-93321238D01*
X192489642Y-93273619D01*
X192156309Y-93273619D01*
X192156309Y-93464095D01*
X192680119Y-93083142D02*
X192680119Y-92321238D01*
X191584880Y-92178380D02*
X191584880Y-91559333D01*
X191965833Y-91892666D01*
X191965833Y-91749809D01*
X192013452Y-91654571D01*
X192061071Y-91606952D01*
X192156309Y-91559333D01*
X192394404Y-91559333D01*
X192489642Y-91606952D01*
X192537261Y-91654571D01*
X192584880Y-91749809D01*
X192584880Y-92035523D01*
X192537261Y-92130761D01*
X192489642Y-92178380D01*
%TO.C,MAG_2*%
X192584880Y-105497047D02*
X191584880Y-105497047D01*
X192299166Y-105163714D01*
X191584880Y-104830380D01*
X192584880Y-104830380D01*
X192299166Y-104401809D02*
X192299166Y-103925619D01*
X192584880Y-104497047D02*
X191584880Y-104163714D01*
X192584880Y-103830380D01*
X191632500Y-102973238D02*
X191584880Y-103068476D01*
X191584880Y-103211333D01*
X191632500Y-103354190D01*
X191727738Y-103449428D01*
X191822976Y-103497047D01*
X192013452Y-103544666D01*
X192156309Y-103544666D01*
X192346785Y-103497047D01*
X192442023Y-103449428D01*
X192537261Y-103354190D01*
X192584880Y-103211333D01*
X192584880Y-103116095D01*
X192537261Y-102973238D01*
X192489642Y-102925619D01*
X192156309Y-102925619D01*
X192156309Y-103116095D01*
X192680119Y-102735142D02*
X192680119Y-101973238D01*
X191680119Y-101782761D02*
X191632500Y-101735142D01*
X191584880Y-101639904D01*
X191584880Y-101401809D01*
X191632500Y-101306571D01*
X191680119Y-101258952D01*
X191775357Y-101211333D01*
X191870595Y-101211333D01*
X192013452Y-101258952D01*
X192584880Y-101830380D01*
X192584880Y-101211333D01*
%TO.C,TEMP5*%
X191584880Y-76707714D02*
X191584880Y-76136285D01*
X192584880Y-76422000D02*
X191584880Y-76422000D01*
X192061071Y-75802952D02*
X192061071Y-75469619D01*
X192584880Y-75326761D02*
X192584880Y-75802952D01*
X191584880Y-75802952D01*
X191584880Y-75326761D01*
X192584880Y-74898190D02*
X191584880Y-74898190D01*
X192299166Y-74564857D01*
X191584880Y-74231523D01*
X192584880Y-74231523D01*
X192584880Y-73755333D02*
X191584880Y-73755333D01*
X191584880Y-73374380D01*
X191632500Y-73279142D01*
X191680119Y-73231523D01*
X191775357Y-73183904D01*
X191918214Y-73183904D01*
X192013452Y-73231523D01*
X192061071Y-73279142D01*
X192108690Y-73374380D01*
X192108690Y-73755333D01*
X191584880Y-72279142D02*
X191584880Y-72755333D01*
X192061071Y-72802952D01*
X192013452Y-72755333D01*
X191965833Y-72660095D01*
X191965833Y-72422000D01*
X192013452Y-72326761D01*
X192061071Y-72279142D01*
X192156309Y-72231523D01*
X192394404Y-72231523D01*
X192489642Y-72279142D01*
X192537261Y-72326761D01*
X192584880Y-72422000D01*
X192584880Y-72660095D01*
X192537261Y-72755333D01*
X192489642Y-72802952D01*
%TO.C,TEMP4*%
X191584880Y-86359714D02*
X191584880Y-85788285D01*
X192584880Y-86074000D02*
X191584880Y-86074000D01*
X192061071Y-85454952D02*
X192061071Y-85121619D01*
X192584880Y-84978761D02*
X192584880Y-85454952D01*
X191584880Y-85454952D01*
X191584880Y-84978761D01*
X192584880Y-84550190D02*
X191584880Y-84550190D01*
X192299166Y-84216857D01*
X191584880Y-83883523D01*
X192584880Y-83883523D01*
X192584880Y-83407333D02*
X191584880Y-83407333D01*
X191584880Y-83026380D01*
X191632500Y-82931142D01*
X191680119Y-82883523D01*
X191775357Y-82835904D01*
X191918214Y-82835904D01*
X192013452Y-82883523D01*
X192061071Y-82931142D01*
X192108690Y-83026380D01*
X192108690Y-83407333D01*
X191918214Y-81978761D02*
X192584880Y-81978761D01*
X191537261Y-82216857D02*
X192251547Y-82454952D01*
X192251547Y-81835904D01*
%TO.C,U11*%
X143033904Y-115470380D02*
X143033904Y-116279904D01*
X143081523Y-116375142D01*
X143129142Y-116422761D01*
X143224380Y-116470380D01*
X143414857Y-116470380D01*
X143510095Y-116422761D01*
X143557714Y-116375142D01*
X143605333Y-116279904D01*
X143605333Y-115470380D01*
X144605333Y-116470380D02*
X144033904Y-116470380D01*
X144319619Y-116470380D02*
X144319619Y-115470380D01*
X144224380Y-115613238D01*
X144129142Y-115708476D01*
X144033904Y-115756095D01*
X145557714Y-116470380D02*
X144986285Y-116470380D01*
X145272000Y-116470380D02*
X145272000Y-115470380D01*
X145176761Y-115613238D01*
X145081523Y-115708476D01*
X144986285Y-115756095D01*
%TO.C,U12*%
X143003424Y-72706940D02*
X143003424Y-73516464D01*
X143051043Y-73611702D01*
X143098662Y-73659321D01*
X143193900Y-73706940D01*
X143384377Y-73706940D01*
X143479615Y-73659321D01*
X143527234Y-73611702D01*
X143574853Y-73516464D01*
X143574853Y-72706940D01*
X144574853Y-73706940D02*
X144003424Y-73706940D01*
X144289139Y-73706940D02*
X144289139Y-72706940D01*
X144193900Y-72849798D01*
X144098662Y-72945036D01*
X144003424Y-72992655D01*
X144955805Y-72802179D02*
X145003424Y-72754560D01*
X145098662Y-72706940D01*
X145336758Y-72706940D01*
X145431996Y-72754560D01*
X145479615Y-72802179D01*
X145527234Y-72897417D01*
X145527234Y-72992655D01*
X145479615Y-73135512D01*
X144908186Y-73706940D01*
X145527234Y-73706940D01*
%TO.C,H5*%
X126972097Y-84055380D02*
X126972097Y-83055380D01*
X126972097Y-83531571D02*
X127543525Y-83531571D01*
X127543525Y-84055380D02*
X127543525Y-83055380D01*
X128495906Y-83055380D02*
X128019716Y-83055380D01*
X127972097Y-83531571D01*
X128019716Y-83483952D01*
X128114954Y-83436333D01*
X128353049Y-83436333D01*
X128448287Y-83483952D01*
X128495906Y-83531571D01*
X128543525Y-83626809D01*
X128543525Y-83864904D01*
X128495906Y-83960142D01*
X128448287Y-84007761D01*
X128353049Y-84055380D01*
X128114954Y-84055380D01*
X128019716Y-84007761D01*
X127972097Y-83960142D01*
%TO.C,H9*%
X126972097Y-127785378D02*
X126972097Y-126785378D01*
X126972097Y-127261569D02*
X127543525Y-127261569D01*
X127543525Y-127785378D02*
X127543525Y-126785378D01*
X128067335Y-127785378D02*
X128257811Y-127785378D01*
X128353049Y-127737759D01*
X128400668Y-127690140D01*
X128495906Y-127547283D01*
X128543525Y-127356807D01*
X128543525Y-126975855D01*
X128495906Y-126880617D01*
X128448287Y-126832998D01*
X128353049Y-126785378D01*
X128162573Y-126785378D01*
X128067335Y-126832998D01*
X128019716Y-126880617D01*
X127972097Y-126975855D01*
X127972097Y-127213950D01*
X128019716Y-127309188D01*
X128067335Y-127356807D01*
X128162573Y-127404426D01*
X128353049Y-127404426D01*
X128448287Y-127356807D01*
X128495906Y-127309188D01*
X128543525Y-127213950D01*
%TO.C,H12*%
X185225905Y-84055380D02*
X185225905Y-83055380D01*
X185225905Y-83531571D02*
X185797334Y-83531571D01*
X185797334Y-84055380D02*
X185797334Y-83055380D01*
X186797334Y-84055380D02*
X186225905Y-84055380D01*
X186511620Y-84055380D02*
X186511620Y-83055380D01*
X186416381Y-83198238D01*
X186321143Y-83293476D01*
X186225905Y-83341095D01*
X187178286Y-83150619D02*
X187225905Y-83103000D01*
X187321143Y-83055380D01*
X187559239Y-83055380D01*
X187654477Y-83103000D01*
X187702096Y-83150619D01*
X187749715Y-83245857D01*
X187749715Y-83341095D01*
X187702096Y-83483952D01*
X187130667Y-84055380D01*
X187749715Y-84055380D01*
%TO.C,H8*%
X185702096Y-50325378D02*
X185702096Y-49325378D01*
X185702096Y-49801569D02*
X186273524Y-49801569D01*
X186273524Y-50325378D02*
X186273524Y-49325378D01*
X186892572Y-49753950D02*
X186797334Y-49706331D01*
X186749715Y-49658712D01*
X186702096Y-49563474D01*
X186702096Y-49515855D01*
X186749715Y-49420617D01*
X186797334Y-49372998D01*
X186892572Y-49325378D01*
X187083048Y-49325378D01*
X187178286Y-49372998D01*
X187225905Y-49420617D01*
X187273524Y-49515855D01*
X187273524Y-49563474D01*
X187225905Y-49658712D01*
X187178286Y-49706331D01*
X187083048Y-49753950D01*
X186892572Y-49753950D01*
X186797334Y-49801569D01*
X186749715Y-49849188D01*
X186702096Y-49944426D01*
X186702096Y-50134902D01*
X186749715Y-50230140D01*
X186797334Y-50277759D01*
X186892572Y-50325378D01*
X187083048Y-50325378D01*
X187178286Y-50277759D01*
X187225905Y-50230140D01*
X187273524Y-50134902D01*
X187273524Y-49944426D01*
X187225905Y-49849188D01*
X187178286Y-49801569D01*
X187083048Y-49753950D01*
%TO.C,H6*%
X126972097Y-94055377D02*
X126972097Y-93055377D01*
X126972097Y-93531568D02*
X127543525Y-93531568D01*
X127543525Y-94055377D02*
X127543525Y-93055377D01*
X128448287Y-93055377D02*
X128257811Y-93055377D01*
X128162573Y-93102997D01*
X128114954Y-93150616D01*
X128019716Y-93293473D01*
X127972097Y-93483949D01*
X127972097Y-93864901D01*
X128019716Y-93960139D01*
X128067335Y-94007758D01*
X128162573Y-94055377D01*
X128353049Y-94055377D01*
X128448287Y-94007758D01*
X128495906Y-93960139D01*
X128543525Y-93864901D01*
X128543525Y-93626806D01*
X128495906Y-93531568D01*
X128448287Y-93483949D01*
X128353049Y-93436330D01*
X128162573Y-93436330D01*
X128067335Y-93483949D01*
X128019716Y-93531568D01*
X127972097Y-93626806D01*
%TO.C,H7*%
X126972097Y-50325378D02*
X126972097Y-49325378D01*
X126972097Y-49801569D02*
X127543525Y-49801569D01*
X127543525Y-50325378D02*
X127543525Y-49325378D01*
X127924478Y-49325378D02*
X128591144Y-49325378D01*
X128162573Y-50325378D01*
%TO.C,H10*%
X185225905Y-127785378D02*
X185225905Y-126785378D01*
X185225905Y-127261569D02*
X185797334Y-127261569D01*
X185797334Y-127785378D02*
X185797334Y-126785378D01*
X186797334Y-127785378D02*
X186225905Y-127785378D01*
X186511620Y-127785378D02*
X186511620Y-126785378D01*
X186416381Y-126928236D01*
X186321143Y-127023474D01*
X186225905Y-127071093D01*
X187416381Y-126785378D02*
X187511620Y-126785378D01*
X187606858Y-126832998D01*
X187654477Y-126880617D01*
X187702096Y-126975855D01*
X187749715Y-127166331D01*
X187749715Y-127404426D01*
X187702096Y-127594902D01*
X187654477Y-127690140D01*
X187606858Y-127737759D01*
X187511620Y-127785378D01*
X187416381Y-127785378D01*
X187321143Y-127737759D01*
X187273524Y-127690140D01*
X187225905Y-127594902D01*
X187178286Y-127404426D01*
X187178286Y-127166331D01*
X187225905Y-126975855D01*
X187273524Y-126880617D01*
X187321143Y-126832998D01*
X187416381Y-126785378D01*
%TO.C,U8*%
X162052095Y-89241380D02*
X162052095Y-90050904D01*
X162099714Y-90146142D01*
X162147333Y-90193761D01*
X162242571Y-90241380D01*
X162433047Y-90241380D01*
X162528285Y-90193761D01*
X162575904Y-90146142D01*
X162623523Y-90050904D01*
X162623523Y-89241380D01*
X163242571Y-89669952D02*
X163147333Y-89622333D01*
X163099714Y-89574714D01*
X163052095Y-89479476D01*
X163052095Y-89431857D01*
X163099714Y-89336619D01*
X163147333Y-89289000D01*
X163242571Y-89241380D01*
X163433047Y-89241380D01*
X163528285Y-89289000D01*
X163575904Y-89336619D01*
X163623523Y-89431857D01*
X163623523Y-89479476D01*
X163575904Y-89574714D01*
X163528285Y-89622333D01*
X163433047Y-89669952D01*
X163242571Y-89669952D01*
X163147333Y-89717571D01*
X163099714Y-89765190D01*
X163052095Y-89860428D01*
X163052095Y-90050904D01*
X163099714Y-90146142D01*
X163147333Y-90193761D01*
X163242571Y-90241380D01*
X163433047Y-90241380D01*
X163528285Y-90193761D01*
X163575904Y-90146142D01*
X163623523Y-90050904D01*
X163623523Y-89860428D01*
X163575904Y-89765190D01*
X163528285Y-89717571D01*
X163433047Y-89669952D01*
%TO.C,U13*%
X143033904Y-105564380D02*
X143033904Y-106373904D01*
X143081523Y-106469142D01*
X143129142Y-106516761D01*
X143224380Y-106564380D01*
X143414857Y-106564380D01*
X143510095Y-106516761D01*
X143557714Y-106469142D01*
X143605333Y-106373904D01*
X143605333Y-105564380D01*
X144605333Y-106564380D02*
X144033904Y-106564380D01*
X144319619Y-106564380D02*
X144319619Y-105564380D01*
X144224380Y-105707238D01*
X144129142Y-105802476D01*
X144033904Y-105850095D01*
X144938666Y-105564380D02*
X145557714Y-105564380D01*
X145224380Y-105945333D01*
X145367238Y-105945333D01*
X145462476Y-105992952D01*
X145510095Y-106040571D01*
X145557714Y-106135809D01*
X145557714Y-106373904D01*
X145510095Y-106469142D01*
X145462476Y-106516761D01*
X145367238Y-106564380D01*
X145081523Y-106564380D01*
X144986285Y-106516761D01*
X144938666Y-106469142D01*
%TO.C,U15*%
X142906904Y-84482380D02*
X142906904Y-85291904D01*
X142954523Y-85387142D01*
X143002142Y-85434761D01*
X143097380Y-85482380D01*
X143287857Y-85482380D01*
X143383095Y-85434761D01*
X143430714Y-85387142D01*
X143478333Y-85291904D01*
X143478333Y-84482380D01*
X144478333Y-85482380D02*
X143906904Y-85482380D01*
X144192619Y-85482380D02*
X144192619Y-84482380D01*
X144097380Y-84625238D01*
X144002142Y-84720476D01*
X143906904Y-84768095D01*
X145383095Y-84482380D02*
X144906904Y-84482380D01*
X144859285Y-84958571D01*
X144906904Y-84910952D01*
X145002142Y-84863333D01*
X145240238Y-84863333D01*
X145335476Y-84910952D01*
X145383095Y-84958571D01*
X145430714Y-85053809D01*
X145430714Y-85291904D01*
X145383095Y-85387142D01*
X145335476Y-85434761D01*
X145240238Y-85482380D01*
X145002142Y-85482380D01*
X144906904Y-85434761D01*
X144859285Y-85387142D01*
%TO.C,H1*%
X114350895Y-56256180D02*
X114350895Y-55256180D01*
X114350895Y-55732371D02*
X114922323Y-55732371D01*
X114922323Y-56256180D02*
X114922323Y-55256180D01*
X115922323Y-56256180D02*
X115350895Y-56256180D01*
X115636609Y-56256180D02*
X115636609Y-55256180D01*
X115541371Y-55399038D01*
X115446133Y-55494276D01*
X115350895Y-55541895D01*
%TO.C,H2*%
X191363695Y-133751580D02*
X191363695Y-132751580D01*
X191363695Y-133227771D02*
X191935123Y-133227771D01*
X191935123Y-133751580D02*
X191935123Y-132751580D01*
X192363695Y-132846819D02*
X192411314Y-132799200D01*
X192506552Y-132751580D01*
X192744647Y-132751580D01*
X192839885Y-132799200D01*
X192887504Y-132846819D01*
X192935123Y-132942057D01*
X192935123Y-133037295D01*
X192887504Y-133180152D01*
X192316076Y-133751580D01*
X192935123Y-133751580D01*
%TO.C,H3*%
X191414495Y-53690780D02*
X191414495Y-52690780D01*
X191414495Y-53166971D02*
X191985923Y-53166971D01*
X191985923Y-53690780D02*
X191985923Y-52690780D01*
X192366876Y-52690780D02*
X192985923Y-52690780D01*
X192652590Y-53071733D01*
X192795447Y-53071733D01*
X192890685Y-53119352D01*
X192938304Y-53166971D01*
X192985923Y-53262209D01*
X192985923Y-53500304D01*
X192938304Y-53595542D01*
X192890685Y-53643161D01*
X192795447Y-53690780D01*
X192509733Y-53690780D01*
X192414495Y-53643161D01*
X192366876Y-53595542D01*
%TO.C,H4*%
X114274695Y-130017780D02*
X114274695Y-129017780D01*
X114274695Y-129493971D02*
X114846123Y-129493971D01*
X114846123Y-130017780D02*
X114846123Y-129017780D01*
X115750885Y-129351114D02*
X115750885Y-130017780D01*
X115512790Y-128970161D02*
X115274695Y-129684447D01*
X115893742Y-129684447D01*
%TO.C,J10*%
X122883680Y-80434083D02*
X123597966Y-80434083D01*
X123740823Y-80481702D01*
X123836061Y-80576940D01*
X123883680Y-80719798D01*
X123883680Y-80815036D01*
X123883680Y-79434083D02*
X123883680Y-80005512D01*
X123883680Y-79719798D02*
X122883680Y-79719798D01*
X123026538Y-79815036D01*
X123121776Y-79910274D01*
X123169395Y-80005512D01*
X122883680Y-78815036D02*
X122883680Y-78719798D01*
X122931300Y-78624560D01*
X122978919Y-78576940D01*
X123074157Y-78529321D01*
X123264633Y-78481702D01*
X123502728Y-78481702D01*
X123693204Y-78529321D01*
X123788442Y-78576940D01*
X123836061Y-78624560D01*
X123883680Y-78719798D01*
X123883680Y-78815036D01*
X123836061Y-78910274D01*
X123788442Y-78957893D01*
X123693204Y-79005512D01*
X123502728Y-79053131D01*
X123264633Y-79053131D01*
X123074157Y-79005512D01*
X122978919Y-78957893D01*
X122931300Y-78910274D01*
X122883680Y-78815036D01*
%TO.C,J9*%
X122878600Y-123643353D02*
X123592886Y-123643353D01*
X123735743Y-123690972D01*
X123830981Y-123786210D01*
X123878600Y-123929067D01*
X123878600Y-124024305D01*
X123878600Y-123119543D02*
X123878600Y-122929067D01*
X123830981Y-122833829D01*
X123783362Y-122786210D01*
X123640505Y-122690972D01*
X123450029Y-122643353D01*
X123069077Y-122643353D01*
X122973839Y-122690972D01*
X122926220Y-122738591D01*
X122878600Y-122833829D01*
X122878600Y-123024305D01*
X122926220Y-123119543D01*
X122973839Y-123167162D01*
X123069077Y-123214781D01*
X123307172Y-123214781D01*
X123402410Y-123167162D01*
X123450029Y-123119543D01*
X123497648Y-123024305D01*
X123497648Y-122833829D01*
X123450029Y-122738591D01*
X123402410Y-122690972D01*
X123307172Y-122643353D01*
%TO.C,SPI0*%
X192537261Y-64462000D02*
X192584880Y-64319142D01*
X192584880Y-64081047D01*
X192537261Y-63985809D01*
X192489642Y-63938190D01*
X192394404Y-63890571D01*
X192299166Y-63890571D01*
X192203928Y-63938190D01*
X192156309Y-63985809D01*
X192108690Y-64081047D01*
X192061071Y-64271523D01*
X192013452Y-64366761D01*
X191965833Y-64414380D01*
X191870595Y-64462000D01*
X191775357Y-64462000D01*
X191680119Y-64414380D01*
X191632500Y-64366761D01*
X191584880Y-64271523D01*
X191584880Y-64033428D01*
X191632500Y-63890571D01*
X192584880Y-63462000D02*
X191584880Y-63462000D01*
X191584880Y-63081047D01*
X191632500Y-62985809D01*
X191680119Y-62938190D01*
X191775357Y-62890571D01*
X191918214Y-62890571D01*
X192013452Y-62938190D01*
X192061071Y-62985809D01*
X192108690Y-63081047D01*
X192108690Y-63462000D01*
X192584880Y-62462000D02*
X191584880Y-62462000D01*
X191584880Y-61795333D02*
X191584880Y-61700095D01*
X191632500Y-61604857D01*
X191680119Y-61557238D01*
X191775357Y-61509619D01*
X191965833Y-61462000D01*
X192203928Y-61462000D01*
X192394404Y-61509619D01*
X192489642Y-61557238D01*
X192537261Y-61604857D01*
X192584880Y-61700095D01*
X192584880Y-61795333D01*
X192537261Y-61890571D01*
X192489642Y-61938190D01*
X192394404Y-61985809D01*
X192203928Y-62033428D01*
X191965833Y-62033428D01*
X191775357Y-61985809D01*
X191680119Y-61938190D01*
X191632500Y-61890571D01*
X191584880Y-61795333D01*
%TO.C,U7*%
X159218380Y-100202904D02*
X160027904Y-100202904D01*
X160123142Y-100155285D01*
X160170761Y-100107666D01*
X160218380Y-100012428D01*
X160218380Y-99821952D01*
X160170761Y-99726714D01*
X160123142Y-99679095D01*
X160027904Y-99631476D01*
X159218380Y-99631476D01*
X159218380Y-99250523D02*
X159218380Y-98583857D01*
X160218380Y-99012428D01*
%TD*%
M02*
