%TF.GenerationSoftware,KiCad,Pcbnew,(5.1.6)-1*%
%TF.CreationDate,2020-12-10T00:12:40+08:00*%
%TF.ProjectId,cubesat_obc,63756265-7361-4745-9f6f-62632e6b6963,rev?*%
%TF.SameCoordinates,Original*%
%TF.FileFunction,Profile,NP*%
%FSLAX46Y46*%
G04 Gerber Fmt 4.6, Leading zero omitted, Abs format (unit mm)*
G04 Created by KiCad (PCBNEW (5.1.6)-1) date 2020-12-10 00:12:40*
%MOMM*%
%LPD*%
G01*
G04 APERTURE LIST*
%TA.AperFunction,Profile*%
%ADD10C,0.200000*%
%TD*%
G04 APERTURE END LIST*
D10*
X196444001Y-50122999D02*
G75*
G02*
X199594003Y-53222999I25001J-3125001D01*
G01*
X193924636Y-50122999D02*
G75*
G02*
X191269000Y-49022999I0J3755636D01*
G01*
X120284000Y-48397999D02*
X189760116Y-48397999D01*
X113804002Y-132572997D02*
X110619005Y-132572994D01*
X186419000Y-136397997D02*
X185544000Y-137272997D01*
X185544000Y-137272997D02*
X123584003Y-137272997D01*
X107619006Y-129372998D02*
X107619008Y-55923000D01*
X199594003Y-53222999D02*
X199594000Y-133222998D01*
X107619008Y-55922999D02*
G75*
G02*
X110644001Y-52673001I3137497J112501D01*
G01*
X189760115Y-48397999D02*
G75*
G02*
X191269000Y-49022999I1J-2133885D01*
G01*
X123584002Y-137272998D02*
G75*
G02*
X119247951Y-135476946I1J6132103D01*
G01*
X110644001Y-52673001D02*
X110928997Y-52673001D01*
X113804002Y-132572996D02*
G75*
G02*
X118140054Y-134369048I0J-6132104D01*
G01*
X119247951Y-135476946D02*
X118140054Y-134369048D01*
X199594000Y-133222998D02*
G75*
G02*
X196469000Y-136398000I-3150001J-25001D01*
G01*
X115947948Y-50194050D02*
G75*
G02*
X120284000Y-48397999I4336052J-4336052D01*
G01*
X193924636Y-50123000D02*
X196444001Y-50123000D01*
X110619005Y-132572996D02*
G75*
G02*
X107619006Y-129372998I100000J3099999D01*
G01*
X115265049Y-50876950D02*
X115947948Y-50194050D01*
X115265049Y-50876950D02*
G75*
G02*
X110928997Y-52673001I-4336052J4336052D01*
G01*
X196469000Y-136398000D02*
X186419000Y-136397997D01*
M02*
