M48
; DRILL file {KiCad (6.0.7)} date Tue Oct 25 19:15:28 2022
; FORMAT={-:-/ absolute / metric / decimal}
; #@! TF.CreationDate,2022-10-25T19:15:28+08:00
; #@! TF.GenerationSoftware,Kicad,Pcbnew,(6.0.7)
; #@! TF.FileFunction,Plated,1,4,PTH
FMAT,2
METRIC
; #@! TA.AperFunction,Plated,PTH,ViaDrill
T1C0.200
; #@! TA.AperFunction,Plated,PTH,ComponentDrill
T2C0.200
; #@! TA.AperFunction,Plated,PTH,ViaDrill
T3C0.300
; #@! TA.AperFunction,Plated,PTH,ViaDrill
T4C0.400
; #@! TA.AperFunction,Plated,PTH,ViaDrill
T5C0.500
; #@! TA.AperFunction,Plated,PTH,ComponentDrill
T6C1.016
; #@! TA.AperFunction,Plated,PTH,ComponentDrill
T7C3.200
%
G90
G05
T1
X108.05Y-117.3
X108.05Y-118.1
X108.15Y-125.2
X108.9Y-125.1
X111.075Y-115.45
X117.475Y-54.75
X121.9Y-111.7
X122.175Y-69.65
X125.502Y-112.743
X126.55Y-109.1
X126.9Y-110.14
X127.45Y-83.4
X127.46Y-112.44
X129.15Y-84.375
X129.54Y-76.708
X129.54Y-77.47
X130.65Y-128.7
X130.95Y-50.05
X132.125Y-91.8
X132.15Y-52.475
X132.75Y-91.75
X133.25Y-88.4
X133.375Y-116.625
X133.375Y-117.4
X133.85Y-88.45
X134.03Y-97.7
X134.6Y-104.05
X134.8Y-86.05
X134.825Y-108.212
X135.125Y-115.05
X135.45Y-86.3
X135.95Y-58.5
X136.2Y-92.95
X136.2Y-115.375
X136.3Y-128.8
X136.4Y-128.19
X136.775Y-105.825
X137.14Y-128.46
X137.375Y-90.875
X137.775Y-81.75
X137.8Y-92.35
X137.825Y-82.85
X138.3Y-56.8
X138.3Y-57.7
X138.375Y-110.2
X138.45Y-87.15
X138.475Y-91.375
X138.6Y-89.55
X138.9Y-82.875
X139.025Y-91.8
X139.7Y-75.692
X139.825Y-82.0
X139.86Y-124.02
X140.03Y-127.22
X140.1Y-53.0
X140.2Y-118.75
X140.36Y-123.72
X141.19Y-123.09
X141.475Y-83.425
X141.63Y-124.56
X142.025Y-116.575
X142.175Y-93.65
X142.2Y-106.85
X142.275Y-102.6
X142.575Y-89.675
X142.8Y-113.5
X142.825Y-106.825
X142.85Y-100.675
X142.975Y-114.975
X143.0Y-51.325
X143.15Y-91.725
X143.51Y-75.184
X143.55Y-106.65
X143.6Y-91.25
X143.6Y-114.4
X143.65Y-85.2
X143.75Y-69.7
X144.01Y-127.11
X145.05Y-114.9
X145.075Y-102.6
X145.1Y-85.225
X145.35Y-113.775
X146.175Y-69.5
X146.2Y-115.6
X146.65Y-100.86
X146.8Y-115.6
X146.85Y-106.55
X146.94Y-121.56
X147.05Y-90.075
X147.26Y-125.99
X147.375Y-83.55
X147.675Y-92.55
X147.836Y-108.212
X148.575Y-90.275
X148.59Y-92.456
X148.65Y-80.675
X149.325Y-89.4
X150.175Y-113.775
X150.25Y-105.8
X150.3Y-118.65
X150.65Y-69.45
X151.46Y-78.96
X151.7Y-69.55
X151.725Y-76.625
X152.25Y-87.05
X152.4Y-111.7
X152.5Y-120.475
X152.65Y-124.41
X152.908Y-97.155
X153.125Y-76.475
X153.2Y-122.925
X153.25Y-123.6
X153.325Y-115.575
X153.37Y-124.2
X153.457Y-84.733
X153.84Y-127.2
X154.075Y-124.4
X154.175Y-107.125
X154.225Y-119.25
X154.745Y-108.718
X154.94Y-98.044
X154.95Y-119.225
X155.075Y-94.05
X155.125Y-123.55
X155.45Y-118.25
X156.475Y-73.4
X156.8Y-102.5
X156.875Y-75.075
X156.925Y-72.475
X157.05Y-83.7
X157.099Y-87.249
X157.225Y-52.05
X157.28Y-93.63
X157.85Y-82.15
X157.965Y-96.67
X158.5Y-74.375
X158.562Y-91.4
X159.325Y-84.525
X159.69Y-87.78
X160.375Y-98.075
X160.52Y-124.06
X160.65Y-103.05
X160.738Y-100.644
X160.909Y-93.218
X160.933Y-94.258
X161.0Y-103.675
X161.0Y-104.25
X161.025Y-122.9
X161.21Y-126.58
X163.61Y-124.23
X164.1Y-70.4
X164.575Y-96.55
X165.354Y-104.521
X165.5Y-116.1
X165.6Y-116.7
X165.65Y-111.55
X165.65Y-112.2
X165.784Y-85.533
X165.997Y-107.704
X166.9Y-104.75
X167.47Y-127.72
X167.64Y-59.871
X167.65Y-107.05
X167.933Y-83.439
X168.148Y-119.5
X168.3Y-87.1
X168.4Y-116.7
X168.529Y-59.817
X168.61Y-88.34
X168.8Y-89.75
X169.0Y-110.9
X169.0Y-117.2
X169.14Y-96.88
X169.17Y-97.54
X169.624Y-81.026
X169.69Y-114.215
X170.3Y-127.2
X170.7Y-52.15
X171.9Y-52.175
X172.4Y-59.301
X172.974Y-85.217
X174.14Y-111.79
X174.4Y-109.55
X174.72Y-122.22
X174.73Y-122.85
X174.79Y-126.59
X174.825Y-61.85
X175.275Y-102.225
X175.3Y-81.325
X176.0Y-104.6
X176.06Y-124.15
X176.47Y-55.59
X176.55Y-108.925
X176.6Y-109.525
X176.85Y-83.3
X177.11Y-55.74
X177.304Y-58.789
X178.05Y-86.1
X178.575Y-109.85
X178.75Y-77.45
X179.8Y-108.05
X180.25Y-78.1
X180.525Y-114.1
X180.9Y-84.65
X181.3Y-85.1
X181.821Y-85.56
X182.118Y-128.016
X182.22Y-105.85
X182.94Y-103.94
X183.1Y-81.65
X183.55Y-110.95
X183.575Y-117.0
X183.65Y-82.1
X184.3Y-82.25
X185.547Y-126.238
X187.25Y-115.4
X188.3Y-74.475
X188.468Y-124.587
X188.468Y-125.222
X189.5Y-74.025
X189.835Y-120.015
X190.513Y-119.537
X190.77Y-101.82
X192.06Y-102.3
X192.13Y-99.29
X192.36Y-103.02
X192.75Y-106.975
X192.8Y-100.15
X192.8Y-102.24
X192.9Y-105.2
X196.225Y-72.7
X196.25Y-125.8
X196.275Y-124.625
X196.825Y-72.925
X197.05Y-128.3
T2
X165.618Y-61.694
X165.618Y-63.119
X165.618Y-64.544
X167.043Y-61.694
X167.043Y-63.119
X167.043Y-64.544
X168.468Y-61.694
X168.468Y-63.119
X168.468Y-64.544
X182.76Y-107.91
X182.76Y-109.09
X182.76Y-113.76
X182.76Y-114.94
X183.94Y-107.91
X183.94Y-109.09
X183.94Y-113.76
X183.94Y-114.94
T3
X120.275Y-57.275
X120.396Y-113.792
X121.35Y-115.35
X121.539Y-82.423
X121.675Y-57.275
X121.675Y-114.05
X121.793Y-77.343
X121.92Y-59.436
X121.92Y-61.214
X121.92Y-62.992
X121.92Y-64.77
X121.92Y-66.548
X121.92Y-68.326
X124.206Y-122.047
X124.6Y-114.25
X124.775Y-103.3
X127.508Y-59.436
X127.508Y-61.214
X127.508Y-62.992
X127.508Y-64.77
X127.508Y-66.548
X127.508Y-68.326
X127.997Y-74.93
X128.651Y-108.05
X129.032Y-105.156
X129.069Y-119.098
X129.2Y-126.115
X129.413Y-70.358
X130.88Y-51.52
X130.937Y-77.216
X130.937Y-120.904
X131.6Y-103.475
X131.774Y-108.204
X132.33Y-56.02
X132.715Y-124.079
X132.75Y-80.2
X133.35Y-59.436
X133.35Y-61.214
X133.35Y-62.992
X133.35Y-64.77
X133.35Y-66.548
X133.35Y-68.326
X133.5Y-56.275
X135.128Y-69.361
X136.35Y-90.325
X138.28Y-108.481
X138.417Y-72.275
X138.445Y-114.934
X138.469Y-116.198
X139.446Y-59.436
X139.446Y-61.214
X139.446Y-62.992
X139.446Y-64.77
X139.446Y-66.548
X139.446Y-68.326
X140.925Y-89.675
X142.159Y-120.462
X142.251Y-77.459
X142.74Y-123.114
X142.756Y-110.191
X142.9Y-105.15
X143.51Y-76.5
X145.25Y-124.37
X147.955Y-104.784
X148.769Y-74.59
X149.225Y-105.15
X151.525Y-90.175
X153.162Y-92.456
X154.051Y-92.456
X154.686Y-96.647
X158.75Y-113.709
X159.075Y-107.65
X160.74Y-88.89
X161.084Y-113.776
X162.052Y-92.71
X162.125Y-81.975
X163.49Y-56.75
X163.83Y-91.694
X164.95Y-103.35
X164.973Y-102.489
X164.973Y-107.163
X164.973Y-114.681
X164.98Y-113.734
X167.6Y-105.1
X168.604Y-67.716
X170.053Y-89.535
X171.069Y-100.559
X171.196Y-98.298
X171.306Y-107.806
X171.42Y-56.75
X171.65Y-105.0
X172.8Y-125.01
X173.228Y-122.728
X173.725Y-121.14
X174.853Y-60.646
X175.348Y-121.821
X175.363Y-125.554
X175.408Y-119.523
X175.704Y-64.706
X175.95Y-66.969
X177.7Y-76.55
X178.308Y-89.408
X179.325Y-73.275
X179.5Y-111.75
X179.959Y-105.029
X180.165Y-94.0
X180.19Y-118.268
X180.247Y-73.659
X180.34Y-128.016
X180.45Y-108.65
X180.45Y-135.575
X180.594Y-58.609
X180.848Y-79.121
X180.881Y-77.9
X180.9Y-93.1
X180.95Y-64.725
X181.6Y-73.075
X181.775Y-60.3
X182.372Y-90.678
X182.533Y-95.89
X183.9Y-128.51
X183.927Y-127.281
X184.575Y-72.775
X185.905Y-116.534
X186.188Y-80.899
X186.634Y-116.534
X186.771Y-124.984
X187.4Y-111.65
X187.439Y-104.499
X187.452Y-73.334
X187.706Y-123.19
X188.1Y-110.95
X188.341Y-121.613
X188.899Y-77.801
X189.35Y-113.125
X189.46Y-121.559
X189.53Y-128.55
X189.611Y-70.866
X189.738Y-78.386
X190.45Y-108.25
X192.425Y-118.875
X192.5Y-95.55
X192.575Y-108.2
X192.709Y-65.421
X192.825Y-68.85
X195.315Y-112.621
X195.715Y-116.751
T4
X141.1Y-79.825
X142.925Y-82.05
T5
X141.35Y-58.65
X166.175Y-77.3
X176.5Y-68.816
X190.815Y-59.032
X191.85Y-58.39
T6
X110.605Y-60.8
X110.605Y-63.34
X110.605Y-65.88
X110.605Y-68.42
X110.605Y-70.96
X110.605Y-73.5
X110.605Y-76.04
X110.605Y-78.58
X110.605Y-81.12
X110.605Y-83.66
X110.605Y-86.2
X110.605Y-88.74
X110.605Y-91.28
X110.605Y-93.82
X110.605Y-96.36
X110.605Y-98.9
X110.605Y-101.44
X110.605Y-103.98
X110.605Y-106.52
X110.605Y-109.06
X110.605Y-111.6
X110.605Y-114.14
X110.605Y-116.68
X110.605Y-119.22
X110.605Y-121.76
X110.605Y-124.3
X113.145Y-60.8
X113.145Y-63.34
X113.145Y-65.88
X113.145Y-68.42
X113.145Y-70.96
X113.145Y-73.5
X113.145Y-76.04
X113.145Y-78.58
X113.145Y-81.12
X113.145Y-83.66
X113.145Y-86.2
X113.145Y-88.74
X113.145Y-91.28
X113.145Y-93.82
X113.145Y-96.36
X113.145Y-98.9
X113.145Y-101.44
X113.145Y-103.98
X113.145Y-106.52
X113.145Y-109.06
X113.145Y-111.6
X113.145Y-114.14
X113.145Y-116.68
X113.145Y-119.22
X113.145Y-121.76
X113.145Y-124.3
X115.685Y-60.8
X115.685Y-63.34
X115.685Y-65.88
X115.685Y-68.42
X115.685Y-70.96
X115.685Y-73.5
X115.685Y-76.04
X115.685Y-78.58
X115.685Y-81.12
X115.685Y-83.66
X115.685Y-86.2
X115.685Y-88.74
X115.685Y-91.28
X115.685Y-93.82
X115.685Y-96.36
X115.685Y-98.9
X115.685Y-101.44
X115.685Y-103.98
X115.685Y-106.52
X115.685Y-109.06
X115.685Y-111.6
X115.685Y-114.14
X115.685Y-116.68
X115.685Y-119.22
X115.685Y-121.76
X115.685Y-124.3
X118.225Y-60.8
X118.225Y-63.34
X118.225Y-65.88
X118.225Y-68.42
X118.225Y-70.96
X118.225Y-73.5
X118.225Y-76.04
X118.225Y-78.58
X118.225Y-81.12
X118.225Y-83.66
X118.225Y-86.2
X118.225Y-88.74
X118.225Y-91.28
X118.225Y-93.82
X118.225Y-96.36
X118.225Y-98.9
X118.225Y-101.44
X118.225Y-103.98
X118.225Y-106.52
X118.225Y-109.06
X118.225Y-111.6
X118.225Y-114.14
X118.225Y-116.68
X118.225Y-119.22
X118.225Y-121.76
X118.225Y-124.3
T7
X110.734Y-55.793
X110.734Y-129.453
X196.464Y-53.253
X196.464Y-133.263
T0
M30
