M48
; DRILL file {KiCad (5.1.6)-1} date 12/10/20 00:12:42
; FORMAT={-:-/ absolute / inch / decimal}
; #@! TF.CreationDate,2020-12-10T00:12:42+08:00
; #@! TF.GenerationSoftware,Kicad,Pcbnew,(5.1.6)-1
FMAT,2
INCH
T1C0.0079
T2C0.0118
T3C0.0400
T4C0.1260
T5C0.0469
T6C0.1732
%
G90
G05
T1
X4.855Y-2.89
X4.875Y-2.91
X4.89Y-2.865
X4.941Y-4.4387
X4.955Y-4.42
X5.015Y-4.34
X5.025Y-4.27
X5.04Y-2.8181
X5.439Y-4.64
X5.445Y-2.065
X5.4513Y-4.6591
X5.495Y-2.015
X5.5077Y-4.983
X5.515Y-4.95
X5.5435Y-3.4677
X5.6147Y-4.3897
X5.6153Y-4.3647
X5.625Y-4.535
X5.6351Y-3.955
X5.64Y-3.62
X5.645Y-4.22
X5.6502Y-4.5152
X5.655Y-4.26
X5.7149Y-4.528
X5.715Y-4.215
X5.7215Y-3.62
X5.735Y-4.195
X5.7701Y-3.1731
X5.775Y-3.235
X5.7762Y-3.2093
X5.8Y-3.165
X5.81Y-3.565
X5.855Y-3.23
X5.875Y-2.81
X5.895Y-2.88
X5.9Y-2.735
X5.9015Y-4.6927
X5.9209Y-4.6741
X5.925Y-2.73
X5.9443Y-2.1445
X5.995Y-2.02
X6.0114Y-4.5473
X6.02Y-3.825
X6.0923Y-4.2802
X6.1Y-3.86
X6.1251Y-4.2599
X6.18Y-4.2221
X6.185Y-3.435
X6.1965Y-2.9384
X6.2102Y-3.6948
X6.2191Y-3.8059
X6.2401Y-4.01
X6.241Y-3.6032
X6.2481Y-2.93
X6.25Y-2.77
X6.2552Y-3.795
X6.295Y-3.465
X6.3049Y-3.961
X6.3169Y-3.86
X6.3283Y-3.9624
X6.335Y-3.67
X6.3359Y-3.7109
X6.445Y-2.07
X6.445Y-4.28
X6.465Y-4.3
X6.475Y-2.725
X6.495Y-2.025
X6.51Y-4.115
X6.515Y-4.5977
X6.5269Y-3.3675
X6.5353Y-4.2403
X6.6Y-2.3571
X6.605Y-4.215
X6.6115Y-3.285
X6.635Y-2.355
X6.665Y-3.8149
X6.665Y-3.84
X6.6781Y-3.19
X6.81Y-3.355
X6.8231Y-4.7321
X6.8653Y-2.3347
X6.867Y-4.35
X6.867Y-4.435
X6.875Y-2.42
X6.88Y-4.73
X6.945Y-2.07
X6.955Y-4.1959
X6.965Y-3.815
X6.9805Y-2.3145
X6.9849Y-3.835
X6.985Y-2.41
X6.99Y-2.03
X7.01Y-3.835
X7.0198Y-4.2381
X7.17Y-5.04
X7.305Y-4.97
X7.3257Y-4.5799
X7.344Y-4.5922
X7.3623Y-4.5433
X7.42Y-4.905
X7.42Y-4.93
X7.695Y-4.12
X6.5204Y-2.4289
X6.5204Y-2.485
X6.5204Y-2.5411
X6.5765Y-2.4289
X6.5765Y-2.485
X6.5765Y-2.5411
X6.6326Y-2.4289
X6.6326Y-2.485
X6.6326Y-2.5411
T2
X4.74Y-4.48
X4.785Y-3.245
X4.795Y-3.045
X4.8Y-2.34
X4.8Y-2.41
X4.8Y-2.48
X4.8Y-2.55
X4.8Y-2.62
X4.8Y-2.69
X4.89Y-4.805
X5.02Y-2.34
X5.02Y-2.41
X5.02Y-2.48
X5.02Y-2.55
X5.02Y-2.62
X5.02Y-2.69
X5.0393Y-2.95
X5.045Y-3.08
X5.05Y-4.67
X5.065Y-4.2539
X5.08Y-4.14
X5.095Y-2.77
X5.155Y-3.04
X5.155Y-4.76
X5.188Y-4.26
X5.225Y-4.885
X5.23Y-3.17
X5.237Y-4.32
X5.25Y-2.34
X5.25Y-2.41
X5.25Y-2.48
X5.25Y-2.55
X5.25Y-2.62
X5.25Y-2.69
X5.32Y-2.7307
X5.345Y-2.2
X5.395Y-2.2
X5.42Y-4.415
X5.44Y-2.845
X5.44Y-3.135
X5.4441Y-4.2709
X5.445Y-3.18
X5.445Y-3.865
X5.445Y-3.905
X5.445Y-4.065
X5.445Y-4.1
X5.4511Y-4.53
X5.4511Y-4.57
X5.475Y-3.26
X5.475Y-3.54
X5.475Y-3.695
X5.48Y-3.175
X5.49Y-2.34
X5.49Y-2.41
X5.49Y-2.48
X5.49Y-2.55
X5.49Y-2.62
X5.49Y-2.69
X5.5011Y-4.18
X5.5098Y-3.36
X5.5161Y-4.7609
X5.5165Y-4.6701
X5.545Y-3.515
X5.58Y-3.735
X5.589Y-4.969
X5.595Y-3.055
X5.595Y-4.73
X5.615Y-4.415
X5.62Y-4.475
X5.6202Y-4.3392
X5.64Y-3.015
X5.645Y-2.955
X5.645Y-5.21
X5.651Y-4.969
X5.745Y-2.74
X5.77Y-4.49
X5.805Y-3.412
X5.81Y-3.035
X5.82Y-2.941
X5.825Y-2.84
X5.825Y-4.115
X5.83Y-3.615
X5.838Y-3.65
X5.845Y-2.2
X5.845Y-2.715
X5.855Y-2.945
X5.895Y-2.2
X5.95Y-2.915
X5.955Y-3.29
X5.9591Y-4.6691
X5.9804Y-3.43
X5.99Y-4.35
X6.015Y-2.739
X6.03Y-3.64
X6.0305Y-4.6979
X6.035Y-4.77
X6.06Y-3.16
X6.065Y-3.64
X6.085Y-2.72
X6.09Y-3.805
X6.105Y-2.91
X6.125Y-5.21
X6.165Y-2.43
X6.165Y-2.665
X6.195Y-2.5
X6.2Y-3.49
X6.25Y-4.475
X6.33Y-3.49
X6.335Y-4.48
X6.3433Y-2.1983
X6.38Y-3.65
X6.395Y-2.2
X6.42Y-3.12
X6.45Y-3.61
X6.495Y-4.035
X6.495Y-4.219
X6.495Y-4.475
X6.495Y-4.515
X6.505Y-5.015
X6.505Y-5.095
X6.53Y-2.665
X6.575Y-4.125
X6.5895Y-3.175
X6.615Y-4.705
X6.638Y-2.666
X6.695Y-3.525
X6.725Y-2.46
X6.725Y-2.51
X6.735Y-3.955
X6.74Y-3.87
X6.76Y-4.14
X6.77Y-4.36
X6.815Y-4.42
X6.82Y-4.8868
X6.82Y-4.98
X6.83Y-4.7917
X6.845Y-2.2
X6.865Y-4.215
X6.87Y-4.98
X6.875Y-2.47
X6.88Y-4.53
X6.895Y-2.2
X6.9028Y-4.1502
X6.905Y-4.7
X6.905Y-4.8868
X6.905Y-4.995
X6.905Y-4.8138
X6.9175Y-2.5475
X6.9278Y-4.5375
X6.9776Y-4.2367
X6.992Y-2.9978
X7.0074Y-2.8774
X7.02Y-3.52
X7.0458Y-4.5247
X7.085Y-2.545
X7.085Y-4.135
X7.095Y-2.8939
X7.095Y-4.22
X7.0952Y-4.6562
X7.1Y-5.04
X7.11Y-2.3
X7.12Y-3.115
X7.1213Y-3.0582
X7.123Y-4.22
X7.125Y-4.395
X7.1389Y-2.3
X7.155Y-4.2804
X7.175Y-5.105
X7.18Y-2.86
X7.18Y-3.57
X7.18Y-3.785
X7.2239Y-5.0782
X7.225Y-2.535
X7.23Y-4.495
X7.2381Y-5.026
X7.24Y-2.61
X7.24Y-4.53
X7.27Y-2.91
X7.2902Y-4.4185
X7.315Y-2.585
X7.33Y-3.185
X7.3532Y-4.9206
X7.36Y-4.075
X7.38Y-2.8861
X7.39Y-4.75
X7.39Y-4.85
X7.395Y-4.385
X7.395Y-4.415
X7.415Y-4.7879
X7.437Y-3.063
X7.465Y-2.79
X7.47Y-3.0861
X7.515Y-4.255
X7.54Y-3.62
X7.56Y-2.79
X7.56Y-3.93
X7.56Y-3.98
X7.56Y-4.26
X7.57Y-4.615
X7.575Y-4.665
X7.585Y-2.575
T3
X4.3543Y-2.3934
X4.3543Y-2.4934
X4.3543Y-2.5934
X4.3543Y-2.6934
X4.3543Y-2.7934
X4.3543Y-2.8934
X4.3543Y-2.9934
X4.3543Y-3.0934
X4.3543Y-3.1934
X4.3543Y-3.2934
X4.3543Y-3.3934
X4.3543Y-3.4934
X4.3543Y-3.5934
X4.3543Y-3.6934
X4.3543Y-3.7934
X4.3543Y-3.8934
X4.3543Y-3.9934
X4.3543Y-4.0934
X4.3543Y-4.1934
X4.3543Y-4.2934
X4.3543Y-4.3934
X4.3543Y-4.4934
X4.3543Y-4.5934
X4.3543Y-4.6934
X4.3543Y-4.7934
X4.3543Y-4.8934
X4.4543Y-2.3934
X4.4543Y-2.4934
X4.4543Y-2.5934
X4.4543Y-2.6934
X4.4543Y-2.7934
X4.4543Y-2.8934
X4.4543Y-2.9934
X4.4543Y-3.0934
X4.4543Y-3.1934
X4.4543Y-3.2934
X4.4543Y-3.3934
X4.4543Y-3.4934
X4.4543Y-3.5934
X4.4543Y-3.6934
X4.4543Y-3.7934
X4.4543Y-3.8934
X4.4543Y-3.9934
X4.4543Y-4.0934
X4.4543Y-4.1934
X4.4543Y-4.2934
X4.4543Y-4.3934
X4.4543Y-4.4934
X4.4543Y-4.5934
X4.4543Y-4.6934
X4.4543Y-4.7934
X4.4543Y-4.8934
X4.5543Y-2.3934
X4.5543Y-2.4934
X4.5543Y-2.5934
X4.5543Y-2.6934
X4.5543Y-2.7934
X4.5543Y-2.8934
X4.5543Y-2.9934
X4.5543Y-3.0934
X4.5543Y-3.1934
X4.5543Y-3.2934
X4.5543Y-3.3934
X4.5543Y-3.4934
X4.5543Y-3.5934
X4.5543Y-3.6934
X4.5543Y-3.7934
X4.5543Y-3.8934
X4.5543Y-3.9934
X4.5543Y-4.0934
X4.5543Y-4.1934
X4.5543Y-4.2934
X4.5543Y-4.3934
X4.5543Y-4.4934
X4.5543Y-4.5934
X4.5543Y-4.6934
X4.5543Y-4.7934
X4.5543Y-4.8934
X4.6543Y-2.3934
X4.6543Y-2.4934
X4.6543Y-2.5934
X4.6543Y-2.6934
X4.6543Y-2.7934
X4.6543Y-2.8934
X4.6543Y-2.9934
X4.6543Y-3.0934
X4.6543Y-3.1934
X4.6543Y-3.2934
X4.6543Y-3.3934
X4.6543Y-3.4934
X4.6543Y-3.5934
X4.6543Y-3.6934
X4.6543Y-3.7934
X4.6543Y-3.8934
X4.6543Y-3.9934
X4.6543Y-4.0934
X4.6543Y-4.1934
X4.6543Y-4.2934
X4.6543Y-4.3934
X4.6543Y-4.4934
X4.6543Y-4.5934
X4.6543Y-4.6934
X4.6543Y-4.7934
X4.6543Y-4.8934
T4
X7.7348Y-2.0966
X4.3596Y-2.1966
X4.3596Y-5.0966
X7.7348Y-5.2466
T5
X5.1343Y-4.5841
X5.1343Y-4.9385
X5.1345Y-2.8642
X5.1345Y-3.2186
T6
X5.0289Y-3.8682
X5.0289Y-2.1466
X7.3411Y-5.1962
X7.3411Y-3.4745
X7.3411Y-2.1466
X5.0289Y-5.1962
X5.0289Y-3.4745
X7.3411Y-3.8682
T0
M30
