%TF.GenerationSoftware,KiCad,Pcbnew,(6.0.7)*%
%TF.CreationDate,2022-08-17T11:57:09+08:00*%
%TF.ProjectId,cubesat_obc,63756265-7361-4745-9f6f-62632e6b6963,rev?*%
%TF.SameCoordinates,Original*%
%TF.FileFunction,Drillmap*%
%TF.FilePolarity,Positive*%
%FSLAX45Y45*%
G04 Gerber Fmt 4.5, Leading zero omitted, Abs format (unit mm)*
G04 Created by KiCad (PCBNEW (6.0.7)) date 2022-08-17 11:57:09*
%MOMM*%
%LPD*%
G01*
G04 APERTURE LIST*
%ADD10C,0.200000*%
%ADD11C,0.020000*%
%ADD12C,0.030000*%
%ADD13C,0.040000*%
%ADD14C,0.050000*%
%ADD15C,0.101600*%
%ADD16C,0.320000*%
G04 APERTURE END LIST*
D10*
X11924795Y-13547695D02*
X11814005Y-13436905D01*
X12028400Y-4839800D02*
G75*
G03*
X11594795Y-5019405I0J-613210D01*
G01*
X19392464Y-5012300D02*
X19644400Y-5012300D01*
X19646900Y-13639800D02*
X18641900Y-13639800D01*
X19959400Y-5322300D02*
G75*
G03*
X19644400Y-5012300I-312500J-2500D01*
G01*
X10761901Y-12937300D02*
G75*
G03*
X11061901Y-13257300I310000J-10000D01*
G01*
X11814005Y-13436905D02*
G75*
G03*
X11380400Y-13257300I-433605J-433605D01*
G01*
X19959400Y-5322300D02*
X19959400Y-13322300D01*
X11064400Y-5267300D02*
X11092900Y-5267300D01*
X19646900Y-13639800D02*
G75*
G03*
X19959400Y-13322300I-2500J315000D01*
G01*
X11924795Y-13547695D02*
G75*
G03*
X12358400Y-13727300I433605J433605D01*
G01*
X11064400Y-5267301D02*
G75*
G03*
X10761901Y-5592300I11250J-313749D01*
G01*
X19126900Y-4902300D02*
G75*
G03*
X18976012Y-4839800I-150890J-150890D01*
G01*
X18554400Y-13727300D02*
X12358400Y-13727300D01*
X10761901Y-12937300D02*
X10761901Y-5592300D01*
X11526505Y-5087695D02*
X11594795Y-5019405D01*
X12028400Y-4839800D02*
X18976012Y-4839800D01*
X11380400Y-13257300D02*
X11061901Y-13257299D01*
X19126899Y-4902301D02*
G75*
G03*
X19392464Y-5012300I265561J265561D01*
G01*
X18641900Y-13639800D02*
X18554400Y-13727300D01*
X11092900Y-5267300D02*
G75*
G03*
X11526505Y-5087695I0J613210D01*
G01*
D11*
X10795000Y-11720000D02*
X10815000Y-11740000D01*
X10815000Y-11720000D02*
X10795000Y-11740000D01*
X10795000Y-11800000D02*
X10815000Y-11820000D01*
X10815000Y-11800000D02*
X10795000Y-11820000D01*
X10805000Y-12510000D02*
X10825000Y-12530000D01*
X10825000Y-12510000D02*
X10805000Y-12530000D01*
X10880000Y-12500000D02*
X10900000Y-12520000D01*
X10900000Y-12500000D02*
X10880000Y-12520000D01*
X12180000Y-11160000D02*
X12200000Y-11180000D01*
X12200000Y-11160000D02*
X12180000Y-11180000D01*
X12207500Y-6955000D02*
X12227500Y-6975000D01*
X12227500Y-6955000D02*
X12207500Y-6975000D01*
X12540169Y-11264298D02*
X12560169Y-11284298D01*
X12560169Y-11264298D02*
X12540169Y-11284298D01*
X12645000Y-10900000D02*
X12665000Y-10920000D01*
X12665000Y-10900000D02*
X12645000Y-10920000D01*
X12680000Y-11004000D02*
X12700000Y-11024000D01*
X12700000Y-11004000D02*
X12680000Y-11024000D01*
X12736000Y-11234000D02*
X12756000Y-11254000D01*
X12756000Y-11234000D02*
X12736000Y-11254000D01*
X12944000Y-7660800D02*
X12964000Y-7680800D01*
X12964000Y-7660800D02*
X12944000Y-7680800D01*
X12944000Y-7737000D02*
X12964000Y-7757000D01*
X12964000Y-7737000D02*
X12944000Y-7757000D01*
X13055000Y-12860000D02*
X13075000Y-12880000D01*
X13075000Y-12860000D02*
X13055000Y-12880000D01*
X13085000Y-4995000D02*
X13105000Y-5015000D01*
X13105000Y-4995000D02*
X13085000Y-5015000D01*
X13202500Y-9170000D02*
X13222500Y-9190000D01*
X13222500Y-9170000D02*
X13202500Y-9190000D01*
X13265000Y-9165000D02*
X13285000Y-9185000D01*
X13285000Y-9165000D02*
X13265000Y-9185000D01*
X13315000Y-8830000D02*
X13335000Y-8850000D01*
X13335000Y-8830000D02*
X13315000Y-8850000D01*
X13345000Y-11640000D02*
X13365000Y-11660000D01*
X13365000Y-11640000D02*
X13345000Y-11660000D01*
X13350000Y-11730000D02*
X13370000Y-11750000D01*
X13370000Y-11730000D02*
X13350000Y-11750000D01*
X13375000Y-8835000D02*
X13395000Y-8855000D01*
X13395000Y-8835000D02*
X13375000Y-8855000D01*
X13393000Y-9760000D02*
X13413000Y-9780000D01*
X13413000Y-9760000D02*
X13393000Y-9780000D01*
X13465000Y-5790000D02*
X13485000Y-5810000D01*
X13485000Y-5790000D02*
X13465000Y-5810000D01*
X13470000Y-8595000D02*
X13490000Y-8615000D01*
X13490000Y-8595000D02*
X13470000Y-8615000D01*
X13488000Y-10420000D02*
X13508000Y-10440000D01*
X13508000Y-10420000D02*
X13488000Y-10440000D01*
X13535000Y-8620000D02*
X13555000Y-8640000D01*
X13555000Y-8620000D02*
X13535000Y-8640000D01*
X13610000Y-9285000D02*
X13630000Y-9305000D01*
X13630000Y-9285000D02*
X13610000Y-9305000D01*
X13654000Y-12851000D02*
X13674000Y-12871000D01*
X13674000Y-12851000D02*
X13654000Y-12871000D01*
X13660000Y-12791000D02*
X13680000Y-12811000D01*
X13680000Y-12791000D02*
X13660000Y-12811000D01*
X13667500Y-10572500D02*
X13687500Y-10592500D01*
X13687500Y-10572500D02*
X13667500Y-10592500D01*
X13673000Y-12707000D02*
X13693000Y-12727000D01*
X13693000Y-12707000D02*
X13673000Y-12727000D01*
X13727500Y-9077500D02*
X13747500Y-9097500D01*
X13747500Y-9077500D02*
X13727500Y-9097500D01*
X13767500Y-8165000D02*
X13787500Y-8185000D01*
X13787500Y-8165000D02*
X13767500Y-8185000D01*
X13770000Y-9225000D02*
X13790000Y-9245000D01*
X13790000Y-9225000D02*
X13770000Y-9245000D01*
X13772500Y-8275000D02*
X13792500Y-8295000D01*
X13792500Y-8275000D02*
X13772500Y-8295000D01*
X13820000Y-5670000D02*
X13840000Y-5690000D01*
X13840000Y-5670000D02*
X13820000Y-5690000D01*
X13820000Y-5760000D02*
X13840000Y-5780000D01*
X13840000Y-5760000D02*
X13820000Y-5780000D01*
X13827500Y-11010000D02*
X13847500Y-11030000D01*
X13847500Y-11010000D02*
X13827500Y-11030000D01*
X13835000Y-8705000D02*
X13855000Y-8725000D01*
X13855000Y-8705000D02*
X13835000Y-8725000D01*
X13837500Y-9127500D02*
X13857500Y-9147500D01*
X13857500Y-9127500D02*
X13837500Y-9147500D01*
X13850000Y-8945000D02*
X13870000Y-8965000D01*
X13870000Y-8945000D02*
X13850000Y-8965000D01*
X13880000Y-8277500D02*
X13900000Y-8297500D01*
X13900000Y-8277500D02*
X13880000Y-8297500D01*
X13892500Y-9170000D02*
X13912500Y-9190000D01*
X13912500Y-9170000D02*
X13892500Y-9190000D01*
X13955000Y-12520000D02*
X13975000Y-12540000D01*
X13975000Y-12520000D02*
X13955000Y-12540000D01*
X13960000Y-7559200D02*
X13980000Y-7579200D01*
X13980000Y-7559200D02*
X13960000Y-7579200D01*
X13969000Y-12580000D02*
X13989000Y-12600000D01*
X13989000Y-12580000D02*
X13969000Y-12600000D01*
X13972500Y-8190000D02*
X13992500Y-8210000D01*
X13992500Y-8190000D02*
X13972500Y-8210000D01*
X14000000Y-5290000D02*
X14020000Y-5310000D01*
X14020000Y-5290000D02*
X14000000Y-5310000D01*
X14010000Y-11865000D02*
X14030000Y-11885000D01*
X14030000Y-11865000D02*
X14010000Y-11885000D01*
X14097000Y-12563000D02*
X14117000Y-12583000D01*
X14117000Y-12563000D02*
X14097000Y-12583000D01*
X14137500Y-8332500D02*
X14157500Y-8352500D01*
X14157500Y-8332500D02*
X14137500Y-8352500D01*
X14192500Y-11647500D02*
X14212500Y-11667500D01*
X14212500Y-11647500D02*
X14192500Y-11667500D01*
X14207500Y-9355000D02*
X14227500Y-9375000D01*
X14227500Y-9355000D02*
X14207500Y-9375000D01*
X14210000Y-10675000D02*
X14230000Y-10695000D01*
X14230000Y-10675000D02*
X14210000Y-10695000D01*
X14217500Y-10250000D02*
X14237500Y-10270000D01*
X14237500Y-10250000D02*
X14217500Y-10270000D01*
X14229000Y-12600000D02*
X14249000Y-12620000D01*
X14249000Y-12600000D02*
X14229000Y-12620000D01*
X14247500Y-8957500D02*
X14267500Y-8977500D01*
X14267500Y-8957500D02*
X14247500Y-8977500D01*
X14265000Y-11347500D02*
X14285000Y-11367500D01*
X14285000Y-11347500D02*
X14265000Y-11367500D01*
X14272500Y-10672500D02*
X14292500Y-10692500D01*
X14292500Y-10672500D02*
X14272500Y-10692500D01*
X14275000Y-10057500D02*
X14295000Y-10077500D01*
X14295000Y-10057500D02*
X14275000Y-10077500D01*
X14305000Y-9162500D02*
X14325000Y-9182500D01*
X14325000Y-9162500D02*
X14305000Y-9182500D01*
X14322500Y-11460000D02*
X14342500Y-11480000D01*
X14342500Y-11460000D02*
X14322500Y-11480000D01*
X14341000Y-7508400D02*
X14361000Y-7528400D01*
X14361000Y-7508400D02*
X14341000Y-7528400D01*
X14345000Y-10655000D02*
X14365000Y-10675000D01*
X14365000Y-10655000D02*
X14345000Y-10675000D01*
X14350000Y-9115000D02*
X14370000Y-9135000D01*
X14370000Y-9115000D02*
X14350000Y-9135000D01*
X14355000Y-8510000D02*
X14375000Y-8530000D01*
X14375000Y-8510000D02*
X14355000Y-8530000D01*
X14357500Y-11410000D02*
X14377500Y-11430000D01*
X14377500Y-11410000D02*
X14357500Y-11430000D01*
X14365000Y-6960000D02*
X14385000Y-6980000D01*
X14385000Y-6960000D02*
X14365000Y-6980000D01*
X14495000Y-11480000D02*
X14515000Y-11500000D01*
X14515000Y-11480000D02*
X14495000Y-11500000D01*
X14497500Y-10250000D02*
X14517500Y-10270000D01*
X14517500Y-10250000D02*
X14497500Y-10270000D01*
X14500000Y-8512500D02*
X14520000Y-8532500D01*
X14520000Y-8512500D02*
X14500000Y-8532500D01*
X14525000Y-11367500D02*
X14545000Y-11387500D01*
X14545000Y-11367500D02*
X14525000Y-11387500D01*
X14607500Y-6940000D02*
X14627500Y-6960000D01*
X14627500Y-6940000D02*
X14607500Y-6960000D01*
X14610000Y-11550000D02*
X14630000Y-11570000D01*
X14630000Y-11550000D02*
X14610000Y-11570000D01*
X14620400Y-12232800D02*
X14640400Y-12252800D01*
X14640400Y-12232800D02*
X14620400Y-12252800D01*
X14670000Y-11550000D02*
X14690000Y-11570000D01*
X14690000Y-11550000D02*
X14670000Y-11570000D01*
X14675000Y-10645000D02*
X14695000Y-10665000D01*
X14695000Y-10645000D02*
X14675000Y-10665000D01*
X14695000Y-8997500D02*
X14715000Y-9017500D01*
X14715000Y-8997500D02*
X14695000Y-9017500D01*
X14727500Y-8345000D02*
X14747500Y-8365000D01*
X14747500Y-8345000D02*
X14727500Y-8365000D01*
X14757500Y-9245000D02*
X14777500Y-9265000D01*
X14777500Y-9245000D02*
X14757500Y-9265000D01*
X14773600Y-10811200D02*
X14793600Y-10831200D01*
X14793600Y-10811200D02*
X14773600Y-10831200D01*
X14820000Y-11845000D02*
X14840000Y-11865000D01*
X14840000Y-11845000D02*
X14820000Y-11865000D01*
X14849000Y-9235600D02*
X14869000Y-9255600D01*
X14869000Y-9235600D02*
X14849000Y-9255600D01*
X14855000Y-8057500D02*
X14875000Y-8077500D01*
X14875000Y-8057500D02*
X14855000Y-8077500D01*
X14857500Y-8607500D02*
X14877500Y-8627500D01*
X14877500Y-8607500D02*
X14857500Y-8627500D01*
X14885000Y-8952500D02*
X14905000Y-8972500D01*
X14905000Y-8952500D02*
X14885000Y-8972500D01*
X15007500Y-11367500D02*
X15027500Y-11387500D01*
X15027500Y-11367500D02*
X15007500Y-11387500D01*
X15015000Y-10570000D02*
X15035000Y-10590000D01*
X15035000Y-10570000D02*
X15015000Y-10590000D01*
X15020000Y-11855000D02*
X15040000Y-11875000D01*
X15040000Y-11855000D02*
X15020000Y-11875000D01*
X15027500Y-9020000D02*
X15047500Y-9040000D01*
X15047500Y-9020000D02*
X15027500Y-9040000D01*
X15055000Y-6935000D02*
X15075000Y-6955000D01*
X15075000Y-6935000D02*
X15055000Y-6955000D01*
X15105000Y-8202500D02*
X15125000Y-8222500D01*
X15125000Y-8202500D02*
X15105000Y-8222500D01*
X15110000Y-9085000D02*
X15130000Y-9105000D01*
X15130000Y-9085000D02*
X15110000Y-9105000D01*
X15136000Y-7886000D02*
X15156000Y-7906000D01*
X15156000Y-7886000D02*
X15136000Y-7906000D01*
X15160000Y-6945000D02*
X15180000Y-6965000D01*
X15180000Y-6945000D02*
X15160000Y-6965000D01*
X15162500Y-7652500D02*
X15182500Y-7672500D01*
X15182500Y-7652500D02*
X15162500Y-7672500D01*
X15162500Y-10622500D02*
X15182500Y-10642500D01*
X15182500Y-10622500D02*
X15162500Y-10642500D01*
X15215000Y-8695000D02*
X15235000Y-8715000D01*
X15235000Y-8695000D02*
X15215000Y-8715000D01*
X15230000Y-11160000D02*
X15250000Y-11180000D01*
X15250000Y-11160000D02*
X15230000Y-11180000D01*
X15255400Y-12055000D02*
X15275400Y-12075000D01*
X15275400Y-12055000D02*
X15255400Y-12075000D01*
X15280800Y-9705500D02*
X15300800Y-9725500D01*
X15300800Y-9705500D02*
X15280800Y-9725500D01*
X15302500Y-7637500D02*
X15322500Y-7657500D01*
X15322500Y-7637500D02*
X15302500Y-7657500D01*
X15306200Y-12512200D02*
X15326200Y-12532200D01*
X15326200Y-12512200D02*
X15306200Y-12532200D01*
X15335750Y-8463250D02*
X15355750Y-8483250D01*
X15355750Y-8463250D02*
X15335750Y-8483250D01*
X15402500Y-11880000D02*
X15422500Y-11900000D01*
X15422500Y-11880000D02*
X15402500Y-11900000D01*
X15464517Y-10861797D02*
X15484517Y-10881797D01*
X15484517Y-10861797D02*
X15464517Y-10881797D01*
X15484000Y-9794400D02*
X15504000Y-9814400D01*
X15504000Y-9794400D02*
X15484000Y-9814400D01*
X15497500Y-9395000D02*
X15517500Y-9415000D01*
X15517500Y-9395000D02*
X15497500Y-9415000D01*
X15637500Y-7330000D02*
X15657500Y-7350000D01*
X15657500Y-7330000D02*
X15637500Y-7350000D01*
X15670000Y-10240000D02*
X15690000Y-10260000D01*
X15690000Y-10240000D02*
X15670000Y-10260000D01*
X15687200Y-10714210D02*
X15707200Y-10734210D01*
X15707200Y-10714210D02*
X15687200Y-10734210D01*
X15699900Y-8714900D02*
X15719900Y-8734900D01*
X15719900Y-8714900D02*
X15699900Y-8734900D01*
X15712500Y-5195000D02*
X15732500Y-5215000D01*
X15732500Y-5195000D02*
X15712500Y-5215000D01*
X15770000Y-9377500D02*
X15790000Y-9397500D01*
X15790000Y-9377500D02*
X15770000Y-9397500D01*
X15777500Y-7915000D02*
X15797500Y-7935000D01*
X15797500Y-7915000D02*
X15777500Y-7935000D01*
X15786500Y-9656999D02*
X15806500Y-9676999D01*
X15806500Y-9656999D02*
X15786500Y-9676999D01*
X15840000Y-7427500D02*
X15860000Y-7447500D01*
X15860000Y-7427500D02*
X15840000Y-7447500D01*
X15842500Y-8665000D02*
X15862500Y-8685000D01*
X15862500Y-8665000D02*
X15842500Y-8685000D01*
X15846191Y-9130050D02*
X15866191Y-9150050D01*
X15866191Y-9130050D02*
X15846191Y-9150050D01*
X15852500Y-9632500D02*
X15872500Y-9652500D01*
X15872500Y-9632500D02*
X15852500Y-9652500D01*
X15979300Y-8791100D02*
X15999300Y-8811100D01*
X15999300Y-8791100D02*
X15979300Y-8811100D01*
X16027500Y-9797500D02*
X16047500Y-9817500D01*
X16047500Y-9797500D02*
X16027500Y-9817500D01*
X16055000Y-10295000D02*
X16075000Y-10315000D01*
X16075000Y-10295000D02*
X16055000Y-10315000D01*
X16063760Y-10054395D02*
X16083760Y-10074395D01*
X16083760Y-10054395D02*
X16063760Y-10074395D01*
X16080899Y-9311800D02*
X16100899Y-9331800D01*
X16100899Y-9311800D02*
X16080899Y-9331800D01*
X16083300Y-9415800D02*
X16103300Y-9435800D01*
X16103300Y-9415800D02*
X16083300Y-9435800D01*
X16090000Y-10357500D02*
X16110000Y-10377500D01*
X16110000Y-10357500D02*
X16090000Y-10377500D01*
X16090000Y-10415000D02*
X16110000Y-10435000D01*
X16110000Y-10415000D02*
X16090000Y-10435000D01*
X16092500Y-10157500D02*
X16112500Y-10177500D01*
X16112500Y-10157500D02*
X16092500Y-10177500D01*
X16175000Y-8287000D02*
X16195000Y-8307000D01*
X16195000Y-8287000D02*
X16175000Y-8307000D01*
X16175000Y-8377500D02*
X16195000Y-8397500D01*
X16195000Y-8377500D02*
X16175000Y-8397500D01*
X16400000Y-7030000D02*
X16420000Y-7050000D01*
X16420000Y-7030000D02*
X16400000Y-7050000D01*
X16525401Y-10442100D02*
X16545401Y-10462100D01*
X16545401Y-10442100D02*
X16525401Y-10462100D01*
X16550000Y-11710000D02*
X16570000Y-11730000D01*
X16570000Y-11710000D02*
X16550000Y-11730000D01*
X16550000Y-11775000D02*
X16570000Y-11795000D01*
X16570000Y-11775000D02*
X16550000Y-11795000D01*
X16555000Y-11145000D02*
X16575000Y-11165000D01*
X16575000Y-11145000D02*
X16555000Y-11165000D01*
X16555000Y-11210000D02*
X16575000Y-11230000D01*
X16575000Y-11210000D02*
X16555000Y-11230000D01*
X16568415Y-8543330D02*
X16588415Y-8563330D01*
X16588415Y-8543330D02*
X16568415Y-8563330D01*
X16589678Y-10760378D02*
X16609678Y-10780378D01*
X16609678Y-10760378D02*
X16589678Y-10780378D01*
X16680000Y-10465000D02*
X16700000Y-10485000D01*
X16700000Y-10465000D02*
X16680000Y-10485000D01*
X16754000Y-5977100D02*
X16774000Y-5997100D01*
X16774000Y-5977100D02*
X16754000Y-5997100D01*
X16755000Y-10695000D02*
X16775000Y-10715000D01*
X16775000Y-10695000D02*
X16755000Y-10715000D01*
X16783250Y-8333900D02*
X16803250Y-8353900D01*
X16803250Y-8333900D02*
X16783250Y-8353900D01*
X16804800Y-11978800D02*
X16824800Y-11998800D01*
X16824800Y-11978800D02*
X16804800Y-11998800D01*
X16820000Y-8700000D02*
X16840000Y-8720000D01*
X16840000Y-8700000D02*
X16820000Y-8720000D01*
X16830000Y-11710000D02*
X16850000Y-11730000D01*
X16850000Y-11710000D02*
X16830000Y-11730000D01*
X16842900Y-5971700D02*
X16862900Y-5991700D01*
X16862900Y-5971700D02*
X16842900Y-5991700D01*
X16857500Y-9755000D02*
X16877500Y-9775000D01*
X16877500Y-9755000D02*
X16857500Y-9775000D01*
X16885000Y-11660000D02*
X16905000Y-11680000D01*
X16905000Y-11660000D02*
X16885000Y-11680000D01*
X16890000Y-11065000D02*
X16910000Y-11085000D01*
X16910000Y-11065000D02*
X16890000Y-11085000D01*
X16897500Y-9700000D02*
X16917500Y-9720000D01*
X16917500Y-9700000D02*
X16897500Y-9720000D01*
X16952401Y-8092600D02*
X16972401Y-8112600D01*
X16972401Y-8092600D02*
X16952401Y-8112600D01*
X16959000Y-11411500D02*
X16979000Y-11431500D01*
X16979000Y-11411500D02*
X16959000Y-11431500D01*
X17060000Y-5205000D02*
X17080000Y-5225000D01*
X17080000Y-5205000D02*
X17060000Y-5225000D01*
X17180000Y-5207500D02*
X17200000Y-5227500D01*
X17200000Y-5207500D02*
X17180000Y-5227500D01*
X17230000Y-5920066D02*
X17250000Y-5940066D01*
X17250000Y-5920066D02*
X17230000Y-5940066D01*
X17287400Y-8511700D02*
X17307400Y-8531700D01*
X17307400Y-8511700D02*
X17287400Y-8531700D01*
X17470000Y-9790000D02*
X17490000Y-9810000D01*
X17490000Y-9790000D02*
X17470000Y-9810000D01*
X17472500Y-6175000D02*
X17492500Y-6195000D01*
X17492500Y-6175000D02*
X17472500Y-6195000D01*
X17590000Y-10450000D02*
X17610000Y-10470000D01*
X17610000Y-10450000D02*
X17590000Y-10470000D01*
X17630000Y-5655000D02*
X17650000Y-5675000D01*
X17650000Y-5655000D02*
X17630000Y-5675000D01*
X17645000Y-10882500D02*
X17665000Y-10902500D01*
X17665000Y-10882500D02*
X17645000Y-10902500D01*
X17650000Y-10942500D02*
X17670000Y-10962500D01*
X17670000Y-10942500D02*
X17650000Y-10962500D01*
X17675000Y-8320000D02*
X17695000Y-8340000D01*
X17695000Y-8320000D02*
X17675000Y-8340000D01*
X17705000Y-5625000D02*
X17725000Y-5645000D01*
X17725000Y-5625000D02*
X17705000Y-5645000D01*
X17720400Y-5868900D02*
X17740400Y-5888900D01*
X17740400Y-5868900D02*
X17720400Y-5888900D01*
X17795000Y-8600000D02*
X17815000Y-8620000D01*
X17815000Y-8600000D02*
X17795000Y-8620000D01*
X17847500Y-10975000D02*
X17867500Y-10995000D01*
X17867500Y-10975000D02*
X17847500Y-10995000D01*
X17865000Y-7735000D02*
X17885000Y-7755000D01*
X17885000Y-7735000D02*
X17865000Y-7755000D01*
X17970000Y-10795000D02*
X17990000Y-10815000D01*
X17990000Y-10795000D02*
X17970000Y-10815000D01*
X18015000Y-7800000D02*
X18035000Y-7820000D01*
X18035000Y-7800000D02*
X18015000Y-7820000D01*
X18042500Y-11400000D02*
X18062500Y-11420000D01*
X18062500Y-11400000D02*
X18042500Y-11420000D01*
X18080000Y-8455000D02*
X18100000Y-8475000D01*
X18100000Y-8455000D02*
X18080000Y-8475000D01*
X18120000Y-8500000D02*
X18140000Y-8520000D01*
X18140000Y-8500000D02*
X18120000Y-8520000D01*
X18172110Y-8546042D02*
X18192110Y-8566042D01*
X18192110Y-8546042D02*
X18172110Y-8566042D01*
X18195000Y-10370000D02*
X18215000Y-10390000D01*
X18215000Y-10370000D02*
X18195000Y-10390000D01*
X18201800Y-12791600D02*
X18221800Y-12811600D01*
X18221800Y-12791600D02*
X18201800Y-12811600D01*
X18282500Y-10322500D02*
X18302500Y-10342500D01*
X18302500Y-10322500D02*
X18282500Y-10342500D01*
X18300000Y-8155000D02*
X18320000Y-8175000D01*
X18320000Y-8155000D02*
X18300000Y-8175000D01*
X18345000Y-11085000D02*
X18365000Y-11105000D01*
X18365000Y-11085000D02*
X18345000Y-11105000D01*
X18347500Y-11690000D02*
X18367500Y-11710000D01*
X18367500Y-11690000D02*
X18347500Y-11710000D01*
X18355000Y-8200000D02*
X18375000Y-8220000D01*
X18375000Y-8200000D02*
X18355000Y-8220000D01*
X18420000Y-8215000D02*
X18440000Y-8235000D01*
X18440000Y-8215000D02*
X18420000Y-8235000D01*
X18544700Y-12613800D02*
X18564700Y-12633800D01*
X18564700Y-12613800D02*
X18544700Y-12633800D01*
X18715000Y-11530000D02*
X18735000Y-11550000D01*
X18735000Y-11530000D02*
X18715000Y-11550000D01*
X18836800Y-12448700D02*
X18856800Y-12468700D01*
X18856800Y-12448700D02*
X18836800Y-12468700D01*
X18836800Y-12512200D02*
X18856800Y-12532200D01*
X18856800Y-12512200D02*
X18836800Y-12532200D01*
X18973500Y-11991500D02*
X18993500Y-12011500D01*
X18993500Y-11991500D02*
X18973500Y-12011500D01*
X19010000Y-9565000D02*
X19030000Y-9585000D01*
X19030000Y-9565000D02*
X19010000Y-9585000D01*
X19041300Y-11943700D02*
X19061300Y-11963700D01*
X19061300Y-11943700D02*
X19041300Y-11963700D01*
X19067500Y-9585000D02*
X19087500Y-9605000D01*
X19087500Y-9585000D02*
X19067500Y-9605000D01*
X19105000Y-10190000D02*
X19125000Y-10210000D01*
X19125000Y-10190000D02*
X19105000Y-10210000D01*
X19152500Y-9880000D02*
X19172500Y-9900000D01*
X19172500Y-9880000D02*
X19152500Y-9900000D01*
X19210000Y-10310000D02*
X19230000Y-10330000D01*
X19230000Y-10310000D02*
X19210000Y-10330000D01*
X19240000Y-10660000D02*
X19260000Y-10680000D01*
X19260000Y-10660000D02*
X19240000Y-10680000D01*
X19245000Y-10525000D02*
X19265000Y-10545000D01*
X19265000Y-10525000D02*
X19245000Y-10545000D01*
X19245000Y-10777500D02*
X19265000Y-10797500D01*
X19265000Y-10777500D02*
X19245000Y-10797500D01*
X16571810Y-6169400D02*
G75*
G03*
X16571810Y-6169400I-10000J0D01*
G01*
X16571810Y-6311900D02*
G75*
G03*
X16571810Y-6311900I-10000J0D01*
G01*
X16571810Y-6454400D02*
G75*
G03*
X16571810Y-6454400I-10000J0D01*
G01*
X16714310Y-6169400D02*
G75*
G03*
X16714310Y-6169400I-10000J0D01*
G01*
X16714310Y-6311900D02*
G75*
G03*
X16714310Y-6311900I-10000J0D01*
G01*
X16714310Y-6454400D02*
G75*
G03*
X16714310Y-6454400I-10000J0D01*
G01*
X16856810Y-6169400D02*
G75*
G03*
X16856810Y-6169400I-10000J0D01*
G01*
X16856810Y-6311900D02*
G75*
G03*
X16856810Y-6311900I-10000J0D01*
G01*
X16856810Y-6454400D02*
G75*
G03*
X16856810Y-6454400I-10000J0D01*
G01*
X18286000Y-10791000D02*
G75*
G03*
X18286000Y-10791000I-10000J0D01*
G01*
X18286000Y-10909000D02*
G75*
G03*
X18286000Y-10909000I-10000J0D01*
G01*
X18286000Y-11376000D02*
G75*
G03*
X18286000Y-11376000I-10000J0D01*
G01*
X18286000Y-11494000D02*
G75*
G03*
X18286000Y-11494000I-10000J0D01*
G01*
X18404000Y-10791000D02*
G75*
G03*
X18404000Y-10791000I-10000J0D01*
G01*
X18404000Y-10909000D02*
G75*
G03*
X18404000Y-10909000I-10000J0D01*
G01*
X18404000Y-11376000D02*
G75*
G03*
X18404000Y-11376000I-10000J0D01*
G01*
X18404000Y-11494000D02*
G75*
G03*
X18404000Y-11494000I-10000J0D01*
G01*
D12*
X12039600Y-11364200D02*
X12039600Y-11394200D01*
X12024600Y-11379200D02*
X12054600Y-11379200D01*
X12135000Y-11520000D02*
X12135000Y-11550000D01*
X12120000Y-11535000D02*
X12150000Y-11535000D01*
X12153900Y-8227300D02*
X12153900Y-8257300D01*
X12138900Y-8242300D02*
X12168900Y-8242300D01*
X12179300Y-7719300D02*
X12179300Y-7749300D01*
X12164300Y-7734300D02*
X12194300Y-7734300D01*
X12192000Y-5928600D02*
X12192000Y-5958600D01*
X12177000Y-5943600D02*
X12207000Y-5943600D01*
X12192000Y-6106400D02*
X12192000Y-6136400D01*
X12177000Y-6121400D02*
X12207000Y-6121400D01*
X12192000Y-6284200D02*
X12192000Y-6314200D01*
X12177000Y-6299200D02*
X12207000Y-6299200D01*
X12192000Y-6462000D02*
X12192000Y-6492000D01*
X12177000Y-6477000D02*
X12207000Y-6477000D01*
X12192000Y-6639800D02*
X12192000Y-6669800D01*
X12177000Y-6654800D02*
X12207000Y-6654800D01*
X12192000Y-6817600D02*
X12192000Y-6847600D01*
X12177000Y-6832600D02*
X12207000Y-6832600D01*
X12420600Y-12189700D02*
X12420600Y-12219700D01*
X12405600Y-12204700D02*
X12435600Y-12204700D01*
X12460000Y-11410000D02*
X12460000Y-11440000D01*
X12445000Y-11425000D02*
X12475000Y-11425000D01*
X12750800Y-5928600D02*
X12750800Y-5958600D01*
X12735800Y-5943600D02*
X12765800Y-5943600D01*
X12750800Y-6106400D02*
X12750800Y-6136400D01*
X12735800Y-6121400D02*
X12765800Y-6121400D01*
X12750800Y-6284200D02*
X12750800Y-6314200D01*
X12735800Y-6299200D02*
X12765800Y-6299200D01*
X12750800Y-6462000D02*
X12750800Y-6492000D01*
X12735800Y-6477000D02*
X12765800Y-6477000D01*
X12750800Y-6639800D02*
X12750800Y-6669800D01*
X12735800Y-6654800D02*
X12765800Y-6654800D01*
X12750800Y-6817600D02*
X12750800Y-6847600D01*
X12735800Y-6832600D02*
X12765800Y-6832600D01*
X12799700Y-7478000D02*
X12799700Y-7508000D01*
X12784700Y-7493000D02*
X12814700Y-7493000D01*
X12865100Y-10789999D02*
X12865100Y-10819999D01*
X12850100Y-10804999D02*
X12880100Y-10804999D01*
X12903200Y-10500600D02*
X12903200Y-10530600D01*
X12888200Y-10515600D02*
X12918200Y-10515600D01*
X12906900Y-11894843D02*
X12906900Y-11924843D01*
X12891900Y-11909843D02*
X12921900Y-11909843D01*
X12920000Y-12596550D02*
X12920000Y-12626550D01*
X12905000Y-12611550D02*
X12935000Y-12611550D01*
X12941300Y-7020800D02*
X12941300Y-7050800D01*
X12926300Y-7035800D02*
X12956300Y-7035800D01*
X13093700Y-7706600D02*
X13093700Y-7736600D01*
X13078700Y-7721600D02*
X13108700Y-7721600D01*
X13093700Y-12075400D02*
X13093700Y-12105400D01*
X13078700Y-12090400D02*
X13108700Y-12090400D01*
X13177399Y-10805400D02*
X13177399Y-10835400D01*
X13162399Y-10820400D02*
X13192399Y-10820400D01*
X13271500Y-12392900D02*
X13271500Y-12422900D01*
X13256500Y-12407900D02*
X13286500Y-12407900D01*
X13275000Y-8005000D02*
X13275000Y-8035000D01*
X13260000Y-8020000D02*
X13290000Y-8020000D01*
X13335000Y-5928600D02*
X13335000Y-5958600D01*
X13320000Y-5943600D02*
X13350000Y-5943600D01*
X13335000Y-6106400D02*
X13335000Y-6136400D01*
X13320000Y-6121400D02*
X13350000Y-6121400D01*
X13335000Y-6284200D02*
X13335000Y-6314200D01*
X13320000Y-6299200D02*
X13350000Y-6299200D01*
X13335000Y-6462000D02*
X13335000Y-6492000D01*
X13320000Y-6477000D02*
X13350000Y-6477000D01*
X13335000Y-6639800D02*
X13335000Y-6669800D01*
X13320000Y-6654800D02*
X13350000Y-6654800D01*
X13335001Y-6817600D02*
X13335001Y-6847600D01*
X13320001Y-6832600D02*
X13350001Y-6832600D01*
X13350000Y-5612500D02*
X13350000Y-5642500D01*
X13335000Y-5627500D02*
X13365000Y-5627500D01*
X13512800Y-6921100D02*
X13512800Y-6951100D01*
X13497800Y-6936100D02*
X13527800Y-6936100D01*
X13635000Y-9017500D02*
X13635000Y-9047500D01*
X13620000Y-9032500D02*
X13650000Y-9032500D01*
X13828000Y-10833100D02*
X13828000Y-10863100D01*
X13813000Y-10848100D02*
X13843000Y-10848100D01*
X13838000Y-11600000D02*
X13838000Y-11630000D01*
X13823000Y-11615000D02*
X13853000Y-11615000D01*
X13841000Y-11465000D02*
X13841000Y-11495000D01*
X13826000Y-11480000D02*
X13856000Y-11480000D01*
X13841663Y-7212463D02*
X13841663Y-7242463D01*
X13826663Y-7227463D02*
X13856663Y-7227463D01*
X13944600Y-5928600D02*
X13944600Y-5958600D01*
X13929600Y-5943600D02*
X13959600Y-5943600D01*
X13944600Y-6106400D02*
X13944600Y-6136400D01*
X13929600Y-6121400D02*
X13959600Y-6121400D01*
X13944600Y-6284200D02*
X13944600Y-6314200D01*
X13929600Y-6299200D02*
X13959600Y-6299200D01*
X13944600Y-6462000D02*
X13944600Y-6492000D01*
X13929600Y-6477000D02*
X13959600Y-6477000D01*
X13944600Y-6639800D02*
X13944600Y-6669800D01*
X13929600Y-6654800D02*
X13959600Y-6654800D01*
X13944600Y-6817600D02*
X13944600Y-6847600D01*
X13929600Y-6832600D02*
X13959600Y-6832600D01*
X14092500Y-8952500D02*
X14092500Y-8982500D01*
X14077500Y-8967500D02*
X14107500Y-8967500D01*
X14215876Y-12031216D02*
X14215876Y-12061216D01*
X14200876Y-12046216D02*
X14230876Y-12046216D01*
X14225063Y-7730937D02*
X14225063Y-7760937D01*
X14210063Y-7745937D02*
X14240063Y-7745937D01*
X14274000Y-12280000D02*
X14274000Y-12310000D01*
X14259000Y-12295000D02*
X14289000Y-12295000D01*
X14275586Y-11004128D02*
X14275586Y-11034128D01*
X14260586Y-11019128D02*
X14290586Y-11019128D01*
X14335000Y-12865000D02*
X14335000Y-12895000D01*
X14320000Y-12880000D02*
X14350000Y-12880000D01*
X14350950Y-7635000D02*
X14350950Y-7665000D01*
X14335950Y-7650000D02*
X14365950Y-7650000D01*
X14427200Y-12532600D02*
X14427200Y-12562600D01*
X14412200Y-12547600D02*
X14442200Y-12547600D01*
X14795500Y-10463450D02*
X14795500Y-10493450D01*
X14780500Y-10478450D02*
X14810500Y-10478450D01*
X14876860Y-7444050D02*
X14876860Y-7474050D01*
X14861860Y-7459050D02*
X14891860Y-7459050D01*
X15152500Y-9002500D02*
X15152500Y-9032500D01*
X15137500Y-9017500D02*
X15167500Y-9017500D01*
X15316200Y-9230600D02*
X15316200Y-9260600D01*
X15301200Y-9245600D02*
X15331200Y-9245600D01*
X15405100Y-9230600D02*
X15405100Y-9260600D01*
X15390100Y-9245600D02*
X15420100Y-9245600D01*
X15468600Y-9649700D02*
X15468600Y-9679700D01*
X15453600Y-9664700D02*
X15483600Y-9664700D01*
X15550000Y-12910000D02*
X15550000Y-12940000D01*
X15535000Y-12925000D02*
X15565000Y-12925000D01*
X15875000Y-11355950D02*
X15875000Y-11385950D01*
X15860000Y-11370950D02*
X15890000Y-11370950D01*
X16078200Y-8849600D02*
X16078200Y-8879600D01*
X16063200Y-8864600D02*
X16093200Y-8864600D01*
X16108450Y-11362600D02*
X16108450Y-11392600D01*
X16093450Y-11377600D02*
X16123450Y-11377600D01*
X16205200Y-8189200D02*
X16205200Y-8219200D01*
X16190200Y-8204200D02*
X16220200Y-8204200D01*
X16205200Y-9256000D02*
X16205200Y-9286000D01*
X16190200Y-9271000D02*
X16220200Y-9271000D01*
X16308195Y-7909666D02*
X16308195Y-7939666D01*
X16293195Y-7924666D02*
X16323195Y-7924666D01*
X16383000Y-9154400D02*
X16383000Y-9184400D01*
X16368000Y-9169400D02*
X16398000Y-9169400D01*
X16420000Y-12689050D02*
X16420000Y-12719050D01*
X16405000Y-12704050D02*
X16435000Y-12704050D01*
X16495000Y-10320000D02*
X16495000Y-10350000D01*
X16480000Y-10335000D02*
X16510000Y-10335000D01*
X16497300Y-10233900D02*
X16497300Y-10263900D01*
X16482300Y-10248900D02*
X16512300Y-10248900D01*
X16497300Y-10701299D02*
X16497300Y-10731299D01*
X16482300Y-10716299D02*
X16512300Y-10716299D01*
X16497300Y-11453100D02*
X16497300Y-11483100D01*
X16482300Y-11468100D02*
X16512300Y-11468100D01*
X16497959Y-11358450D02*
X16497959Y-11388450D01*
X16482959Y-11373450D02*
X16512959Y-11373450D01*
X16522700Y-12955950D02*
X16522700Y-12985950D01*
X16507700Y-12970950D02*
X16537700Y-12970950D01*
X16586200Y-6754100D02*
X16586200Y-6784100D01*
X16571200Y-6769100D02*
X16601200Y-6769100D01*
X16737249Y-8049500D02*
X16737249Y-8079500D01*
X16722249Y-8064500D02*
X16752249Y-8064500D01*
X16760000Y-10495000D02*
X16760000Y-10525000D01*
X16745000Y-10510000D02*
X16775000Y-10510000D01*
X16860400Y-6756640D02*
X16860400Y-6786640D01*
X16845400Y-6771640D02*
X16875400Y-6771640D01*
X17005300Y-8938500D02*
X17005300Y-8968500D01*
X16990300Y-8953500D02*
X17020300Y-8953500D01*
X17106900Y-10040950D02*
X17106900Y-10070950D01*
X17091900Y-10055950D02*
X17121900Y-10055950D01*
X17119600Y-9814800D02*
X17119600Y-9844800D01*
X17104600Y-9829800D02*
X17134600Y-9829800D01*
X17126565Y-10761565D02*
X17126565Y-10791565D01*
X17111565Y-10776565D02*
X17141565Y-10776565D01*
X17165000Y-10485000D02*
X17165000Y-10515000D01*
X17150000Y-10500000D02*
X17180000Y-10500000D01*
X17322800Y-12397599D02*
X17322800Y-12427599D01*
X17307800Y-12412599D02*
X17337800Y-12412599D01*
X17322800Y-12634200D02*
X17322800Y-12664200D01*
X17307800Y-12649200D02*
X17337800Y-12649200D01*
X17372500Y-12142500D02*
X17372500Y-12172500D01*
X17357500Y-12157500D02*
X17387500Y-12157500D01*
X17449800Y-12634200D02*
X17449800Y-12664200D01*
X17434800Y-12649200D02*
X17464800Y-12649200D01*
X17485350Y-6049650D02*
X17485350Y-6079650D01*
X17470350Y-6064650D02*
X17500350Y-6064650D01*
X17537282Y-12202650D02*
X17537282Y-12232650D01*
X17522282Y-12217650D02*
X17552282Y-12217650D01*
X17538700Y-12397599D02*
X17538700Y-12427599D01*
X17523700Y-12412599D02*
X17553700Y-12412599D01*
X17538700Y-12672300D02*
X17538700Y-12702300D01*
X17523700Y-12687300D02*
X17553700Y-12687300D01*
X17540838Y-11940950D02*
X17540838Y-11970950D01*
X17525838Y-11955950D02*
X17555838Y-11955950D01*
X17570450Y-6455650D02*
X17570450Y-6485650D01*
X17555450Y-6470650D02*
X17585450Y-6470650D01*
X17595000Y-6681900D02*
X17595000Y-6711900D01*
X17580000Y-6696900D02*
X17610000Y-6696900D01*
X17730000Y-10745000D02*
X17730000Y-10775000D01*
X17715000Y-10760000D02*
X17745000Y-10760000D01*
X17770000Y-7640000D02*
X17770000Y-7670000D01*
X17755000Y-7655000D02*
X17785000Y-7655000D01*
X17830800Y-8925800D02*
X17830800Y-8955800D01*
X17815800Y-8940800D02*
X17845800Y-8940800D01*
X17932500Y-7312500D02*
X17932500Y-7342500D01*
X17917500Y-7327500D02*
X17947500Y-7327500D01*
X17950000Y-11160000D02*
X17950000Y-11190000D01*
X17935000Y-11175000D02*
X17965000Y-11175000D01*
X17995900Y-10487900D02*
X17995900Y-10517900D01*
X17980900Y-10502900D02*
X18010900Y-10502900D01*
X18016550Y-9385000D02*
X18016550Y-9415000D01*
X18001550Y-9400000D02*
X18031550Y-9400000D01*
X18019050Y-11811802D02*
X18019050Y-11841802D01*
X18004050Y-11826802D02*
X18034050Y-11826802D01*
X18024652Y-7350950D02*
X18024652Y-7380950D01*
X18009652Y-7365950D02*
X18039652Y-7365950D01*
X18034000Y-12786600D02*
X18034000Y-12816600D01*
X18019000Y-12801600D02*
X18049000Y-12801600D01*
X18045000Y-10850000D02*
X18045000Y-10880000D01*
X18030000Y-10865000D02*
X18060000Y-10865000D01*
X18059402Y-5827000D02*
X18059402Y-5857000D01*
X18044402Y-5842000D02*
X18074402Y-5842000D01*
X18084800Y-7897100D02*
X18084800Y-7927100D01*
X18069800Y-7912100D02*
X18099800Y-7912100D01*
X18088066Y-7775000D02*
X18088066Y-7805000D01*
X18073066Y-7790000D02*
X18103066Y-7790000D01*
X18090000Y-9295000D02*
X18090000Y-9325000D01*
X18075000Y-9310000D02*
X18105000Y-9310000D01*
X18095000Y-6457500D02*
X18095000Y-6487500D01*
X18080000Y-6472500D02*
X18110000Y-6472500D01*
X18160000Y-7292500D02*
X18160000Y-7322500D01*
X18145000Y-7307500D02*
X18175000Y-7307500D01*
X18177500Y-6015000D02*
X18177500Y-6045000D01*
X18162500Y-6030000D02*
X18192500Y-6030000D01*
X18224500Y-12951700D02*
X18224500Y-12981700D01*
X18209500Y-12966700D02*
X18239500Y-12966700D01*
X18237200Y-9052800D02*
X18237200Y-9082800D01*
X18222200Y-9067800D02*
X18252200Y-9067800D01*
X18253292Y-9574050D02*
X18253292Y-9604050D01*
X18238292Y-9589050D02*
X18268292Y-9589050D01*
X18348688Y-12883696D02*
X18348688Y-12913696D01*
X18333688Y-12898696D02*
X18363688Y-12898696D01*
X18384835Y-12750999D02*
X18384835Y-12780999D01*
X18369835Y-12765999D02*
X18399835Y-12765999D01*
X18457500Y-7262500D02*
X18457500Y-7292500D01*
X18442500Y-7277500D02*
X18472500Y-7277500D01*
X18590456Y-11638450D02*
X18590456Y-11668450D01*
X18575456Y-11653450D02*
X18605456Y-11653450D01*
X18618849Y-8074904D02*
X18618849Y-8104904D01*
X18603849Y-8089904D02*
X18633849Y-8089904D01*
X18663405Y-11638450D02*
X18663405Y-11668450D01*
X18648405Y-11653450D02*
X18678405Y-11653450D01*
X18677104Y-12483399D02*
X18677104Y-12513399D01*
X18662104Y-12498399D02*
X18692104Y-12498399D01*
X18706836Y-10366450D02*
X18706836Y-10396450D01*
X18691836Y-10381450D02*
X18721836Y-10381450D01*
X18740000Y-11150000D02*
X18740000Y-11180000D01*
X18725000Y-11165000D02*
X18755000Y-11165000D01*
X18745200Y-7318450D02*
X18745200Y-7348450D01*
X18730200Y-7333450D02*
X18760200Y-7333450D01*
X18770600Y-12304000D02*
X18770600Y-12334000D01*
X18755600Y-12319000D02*
X18785600Y-12319000D01*
X18774393Y-12070950D02*
X18774393Y-12100950D01*
X18759393Y-12085950D02*
X18789393Y-12085950D01*
X18810000Y-11080000D02*
X18810000Y-11110000D01*
X18795000Y-11095000D02*
X18825000Y-11095000D01*
X18834100Y-12146300D02*
X18834100Y-12176300D01*
X18819100Y-12161300D02*
X18849100Y-12161300D01*
X18889900Y-7765100D02*
X18889900Y-7795100D01*
X18874900Y-7780100D02*
X18904900Y-7780100D01*
X18935000Y-11297500D02*
X18935000Y-11327500D01*
X18920000Y-11312500D02*
X18950000Y-11312500D01*
X18961100Y-7071600D02*
X18961100Y-7101600D01*
X18946100Y-7086600D02*
X18976100Y-7086600D01*
X18973800Y-7823600D02*
X18973800Y-7853600D01*
X18958800Y-7838600D02*
X18988800Y-7838600D01*
X19045000Y-10810000D02*
X19045000Y-10840000D01*
X19030000Y-10825000D02*
X19060000Y-10825000D01*
X19227800Y-11707100D02*
X19227800Y-11737100D01*
X19212800Y-11722100D02*
X19242800Y-11722100D01*
X19240500Y-11834100D02*
X19240500Y-11864100D01*
X19225500Y-11849100D02*
X19255500Y-11849100D01*
X19250000Y-9540000D02*
X19250000Y-9570000D01*
X19235000Y-9555000D02*
X19265000Y-9555000D01*
X19264050Y-6525500D02*
X19264050Y-6555500D01*
X19249050Y-6540500D02*
X19279050Y-6540500D01*
X19282500Y-6870000D02*
X19282500Y-6900000D01*
X19267500Y-6885000D02*
X19297500Y-6885000D01*
X19545000Y-10390000D02*
X19545000Y-10420000D01*
X19530000Y-10405000D02*
X19560000Y-10405000D01*
D13*
X14124142Y-7996642D02*
X14124142Y-7968358D01*
X14095858Y-7968358D01*
X14095858Y-7996642D01*
X14124142Y-7996642D01*
X14306642Y-8219142D02*
X14306642Y-8190858D01*
X14278358Y-8190858D01*
X14278358Y-8219142D01*
X14306642Y-8219142D01*
D14*
X14135000Y-5890000D02*
X14160000Y-5865000D01*
X14135000Y-5840000D01*
X14110000Y-5865000D01*
X14135000Y-5890000D01*
X16617500Y-7755000D02*
X16642500Y-7730000D01*
X16617500Y-7705000D01*
X16592500Y-7730000D01*
X16617500Y-7755000D01*
X17650000Y-6906550D02*
X17675000Y-6881550D01*
X17650000Y-6856550D01*
X17625000Y-6881550D01*
X17650000Y-6906550D01*
X19160000Y-5925000D02*
X19185000Y-5900000D01*
X19160000Y-5875000D01*
X19135000Y-5900000D01*
X19160000Y-5925000D01*
D15*
X11009700Y-6029200D02*
X11111300Y-6130800D01*
X11111300Y-6029200D02*
X11009700Y-6130800D01*
X11111300Y-6080000D02*
G75*
G03*
X11111300Y-6080000I-50800J0D01*
G01*
X11009700Y-6283200D02*
X11111300Y-6384800D01*
X11111300Y-6283200D02*
X11009700Y-6384800D01*
X11111300Y-6334000D02*
G75*
G03*
X11111300Y-6334000I-50800J0D01*
G01*
X11009700Y-6537200D02*
X11111300Y-6638800D01*
X11111300Y-6537200D02*
X11009700Y-6638800D01*
X11111300Y-6588000D02*
G75*
G03*
X11111300Y-6588000I-50800J0D01*
G01*
X11009700Y-6791200D02*
X11111300Y-6892800D01*
X11111300Y-6791200D02*
X11009700Y-6892800D01*
X11111300Y-6842000D02*
G75*
G03*
X11111300Y-6842000I-50800J0D01*
G01*
X11009700Y-7045200D02*
X11111300Y-7146800D01*
X11111300Y-7045200D02*
X11009700Y-7146800D01*
X11111300Y-7096000D02*
G75*
G03*
X11111300Y-7096000I-50800J0D01*
G01*
X11009700Y-7299200D02*
X11111300Y-7400800D01*
X11111300Y-7299200D02*
X11009700Y-7400800D01*
X11111300Y-7350000D02*
G75*
G03*
X11111300Y-7350000I-50800J0D01*
G01*
X11009700Y-7553200D02*
X11111300Y-7654800D01*
X11111300Y-7553200D02*
X11009700Y-7654800D01*
X11111300Y-7604000D02*
G75*
G03*
X11111300Y-7604000I-50800J0D01*
G01*
X11009700Y-7807200D02*
X11111300Y-7908800D01*
X11111300Y-7807200D02*
X11009700Y-7908800D01*
X11111300Y-7858000D02*
G75*
G03*
X11111300Y-7858000I-50800J0D01*
G01*
X11009700Y-8061200D02*
X11111300Y-8162800D01*
X11111300Y-8061200D02*
X11009700Y-8162800D01*
X11111300Y-8112000D02*
G75*
G03*
X11111300Y-8112000I-50800J0D01*
G01*
X11009700Y-8315200D02*
X11111300Y-8416800D01*
X11111300Y-8315200D02*
X11009700Y-8416800D01*
X11111300Y-8366000D02*
G75*
G03*
X11111300Y-8366000I-50800J0D01*
G01*
X11009700Y-8569200D02*
X11111300Y-8670800D01*
X11111300Y-8569200D02*
X11009700Y-8670800D01*
X11111300Y-8620000D02*
G75*
G03*
X11111300Y-8620000I-50800J0D01*
G01*
X11009700Y-8823200D02*
X11111300Y-8924800D01*
X11111300Y-8823200D02*
X11009700Y-8924800D01*
X11111300Y-8874000D02*
G75*
G03*
X11111300Y-8874000I-50800J0D01*
G01*
X11009700Y-9077200D02*
X11111300Y-9178800D01*
X11111300Y-9077200D02*
X11009700Y-9178800D01*
X11111300Y-9128000D02*
G75*
G03*
X11111300Y-9128000I-50800J0D01*
G01*
X11009700Y-9331200D02*
X11111300Y-9432800D01*
X11111300Y-9331200D02*
X11009700Y-9432800D01*
X11111300Y-9382000D02*
G75*
G03*
X11111300Y-9382000I-50800J0D01*
G01*
X11009700Y-9585200D02*
X11111300Y-9686800D01*
X11111300Y-9585200D02*
X11009700Y-9686800D01*
X11111300Y-9636000D02*
G75*
G03*
X11111300Y-9636000I-50800J0D01*
G01*
X11009700Y-9839200D02*
X11111300Y-9940800D01*
X11111300Y-9839200D02*
X11009700Y-9940800D01*
X11111300Y-9890000D02*
G75*
G03*
X11111300Y-9890000I-50800J0D01*
G01*
X11009700Y-10093200D02*
X11111300Y-10194800D01*
X11111300Y-10093200D02*
X11009700Y-10194800D01*
X11111300Y-10144000D02*
G75*
G03*
X11111300Y-10144000I-50800J0D01*
G01*
X11009700Y-10347200D02*
X11111300Y-10448800D01*
X11111300Y-10347200D02*
X11009700Y-10448800D01*
X11111300Y-10398000D02*
G75*
G03*
X11111300Y-10398000I-50800J0D01*
G01*
X11009700Y-10601200D02*
X11111300Y-10702800D01*
X11111300Y-10601200D02*
X11009700Y-10702800D01*
X11111300Y-10652000D02*
G75*
G03*
X11111300Y-10652000I-50800J0D01*
G01*
X11009700Y-10855200D02*
X11111300Y-10956800D01*
X11111300Y-10855200D02*
X11009700Y-10956800D01*
X11111300Y-10906000D02*
G75*
G03*
X11111300Y-10906000I-50800J0D01*
G01*
X11009700Y-11109200D02*
X11111300Y-11210800D01*
X11111300Y-11109200D02*
X11009700Y-11210800D01*
X11111300Y-11160000D02*
G75*
G03*
X11111300Y-11160000I-50800J0D01*
G01*
X11009700Y-11363200D02*
X11111300Y-11464800D01*
X11111300Y-11363200D02*
X11009700Y-11464800D01*
X11111300Y-11414000D02*
G75*
G03*
X11111300Y-11414000I-50800J0D01*
G01*
X11009700Y-11617200D02*
X11111300Y-11718800D01*
X11111300Y-11617200D02*
X11009700Y-11718800D01*
X11111300Y-11668000D02*
G75*
G03*
X11111300Y-11668000I-50800J0D01*
G01*
X11009700Y-11871200D02*
X11111300Y-11972800D01*
X11111300Y-11871200D02*
X11009700Y-11972800D01*
X11111300Y-11922000D02*
G75*
G03*
X11111300Y-11922000I-50800J0D01*
G01*
X11009700Y-12125200D02*
X11111300Y-12226800D01*
X11111300Y-12125200D02*
X11009700Y-12226800D01*
X11111300Y-12176000D02*
G75*
G03*
X11111300Y-12176000I-50800J0D01*
G01*
X11009700Y-12379200D02*
X11111300Y-12480800D01*
X11111300Y-12379200D02*
X11009700Y-12480800D01*
X11111300Y-12430000D02*
G75*
G03*
X11111300Y-12430000I-50800J0D01*
G01*
X11263700Y-6029200D02*
X11365300Y-6130800D01*
X11365300Y-6029200D02*
X11263700Y-6130800D01*
X11365300Y-6080000D02*
G75*
G03*
X11365300Y-6080000I-50800J0D01*
G01*
X11263700Y-6283200D02*
X11365300Y-6384800D01*
X11365300Y-6283200D02*
X11263700Y-6384800D01*
X11365300Y-6334000D02*
G75*
G03*
X11365300Y-6334000I-50800J0D01*
G01*
X11263700Y-6537200D02*
X11365300Y-6638800D01*
X11365300Y-6537200D02*
X11263700Y-6638800D01*
X11365300Y-6588000D02*
G75*
G03*
X11365300Y-6588000I-50800J0D01*
G01*
X11263700Y-6791200D02*
X11365300Y-6892800D01*
X11365300Y-6791200D02*
X11263700Y-6892800D01*
X11365300Y-6842000D02*
G75*
G03*
X11365300Y-6842000I-50800J0D01*
G01*
X11263700Y-7045200D02*
X11365300Y-7146800D01*
X11365300Y-7045200D02*
X11263700Y-7146800D01*
X11365300Y-7096000D02*
G75*
G03*
X11365300Y-7096000I-50800J0D01*
G01*
X11263700Y-7299200D02*
X11365300Y-7400800D01*
X11365300Y-7299200D02*
X11263700Y-7400800D01*
X11365300Y-7350000D02*
G75*
G03*
X11365300Y-7350000I-50800J0D01*
G01*
X11263700Y-7553200D02*
X11365300Y-7654800D01*
X11365300Y-7553200D02*
X11263700Y-7654800D01*
X11365300Y-7604000D02*
G75*
G03*
X11365300Y-7604000I-50800J0D01*
G01*
X11263700Y-7807200D02*
X11365300Y-7908800D01*
X11365300Y-7807200D02*
X11263700Y-7908800D01*
X11365300Y-7858000D02*
G75*
G03*
X11365300Y-7858000I-50800J0D01*
G01*
X11263700Y-8061200D02*
X11365300Y-8162800D01*
X11365300Y-8061200D02*
X11263700Y-8162800D01*
X11365300Y-8112000D02*
G75*
G03*
X11365300Y-8112000I-50800J0D01*
G01*
X11263700Y-8315200D02*
X11365300Y-8416800D01*
X11365300Y-8315200D02*
X11263700Y-8416800D01*
X11365300Y-8366000D02*
G75*
G03*
X11365300Y-8366000I-50800J0D01*
G01*
X11263700Y-8569200D02*
X11365300Y-8670800D01*
X11365300Y-8569200D02*
X11263700Y-8670800D01*
X11365300Y-8620000D02*
G75*
G03*
X11365300Y-8620000I-50800J0D01*
G01*
X11263700Y-8823200D02*
X11365300Y-8924800D01*
X11365300Y-8823200D02*
X11263700Y-8924800D01*
X11365300Y-8874000D02*
G75*
G03*
X11365300Y-8874000I-50800J0D01*
G01*
X11263700Y-9077200D02*
X11365300Y-9178800D01*
X11365300Y-9077200D02*
X11263700Y-9178800D01*
X11365300Y-9128000D02*
G75*
G03*
X11365300Y-9128000I-50800J0D01*
G01*
X11263700Y-9331200D02*
X11365300Y-9432800D01*
X11365300Y-9331200D02*
X11263700Y-9432800D01*
X11365300Y-9382000D02*
G75*
G03*
X11365300Y-9382000I-50800J0D01*
G01*
X11263700Y-9585200D02*
X11365300Y-9686800D01*
X11365300Y-9585200D02*
X11263700Y-9686800D01*
X11365300Y-9636000D02*
G75*
G03*
X11365300Y-9636000I-50800J0D01*
G01*
X11263700Y-9839200D02*
X11365300Y-9940800D01*
X11365300Y-9839200D02*
X11263700Y-9940800D01*
X11365300Y-9890000D02*
G75*
G03*
X11365300Y-9890000I-50800J0D01*
G01*
X11263700Y-10093200D02*
X11365300Y-10194800D01*
X11365300Y-10093200D02*
X11263700Y-10194800D01*
X11365300Y-10144000D02*
G75*
G03*
X11365300Y-10144000I-50800J0D01*
G01*
X11263700Y-10347200D02*
X11365300Y-10448800D01*
X11365300Y-10347200D02*
X11263700Y-10448800D01*
X11365300Y-10398000D02*
G75*
G03*
X11365300Y-10398000I-50800J0D01*
G01*
X11263700Y-10601200D02*
X11365300Y-10702800D01*
X11365300Y-10601200D02*
X11263700Y-10702800D01*
X11365300Y-10652000D02*
G75*
G03*
X11365300Y-10652000I-50800J0D01*
G01*
X11263700Y-10855200D02*
X11365300Y-10956800D01*
X11365300Y-10855200D02*
X11263700Y-10956800D01*
X11365300Y-10906000D02*
G75*
G03*
X11365300Y-10906000I-50800J0D01*
G01*
X11263700Y-11109200D02*
X11365300Y-11210800D01*
X11365300Y-11109200D02*
X11263700Y-11210800D01*
X11365300Y-11160000D02*
G75*
G03*
X11365300Y-11160000I-50800J0D01*
G01*
X11263700Y-11363200D02*
X11365300Y-11464800D01*
X11365300Y-11363200D02*
X11263700Y-11464800D01*
X11365300Y-11414000D02*
G75*
G03*
X11365300Y-11414000I-50800J0D01*
G01*
X11263700Y-11617200D02*
X11365300Y-11718800D01*
X11365300Y-11617200D02*
X11263700Y-11718800D01*
X11365300Y-11668000D02*
G75*
G03*
X11365300Y-11668000I-50800J0D01*
G01*
X11263700Y-11871200D02*
X11365300Y-11972800D01*
X11365300Y-11871200D02*
X11263700Y-11972800D01*
X11365300Y-11922000D02*
G75*
G03*
X11365300Y-11922000I-50800J0D01*
G01*
X11263700Y-12125200D02*
X11365300Y-12226800D01*
X11365300Y-12125200D02*
X11263700Y-12226800D01*
X11365300Y-12176000D02*
G75*
G03*
X11365300Y-12176000I-50800J0D01*
G01*
X11263700Y-12379200D02*
X11365300Y-12480800D01*
X11365300Y-12379200D02*
X11263700Y-12480800D01*
X11365300Y-12430000D02*
G75*
G03*
X11365300Y-12430000I-50800J0D01*
G01*
X11517700Y-6029200D02*
X11619300Y-6130800D01*
X11619300Y-6029200D02*
X11517700Y-6130800D01*
X11619300Y-6080000D02*
G75*
G03*
X11619300Y-6080000I-50800J0D01*
G01*
X11517700Y-6283200D02*
X11619300Y-6384800D01*
X11619300Y-6283200D02*
X11517700Y-6384800D01*
X11619300Y-6334000D02*
G75*
G03*
X11619300Y-6334000I-50800J0D01*
G01*
X11517700Y-6537200D02*
X11619300Y-6638800D01*
X11619300Y-6537200D02*
X11517700Y-6638800D01*
X11619300Y-6588000D02*
G75*
G03*
X11619300Y-6588000I-50800J0D01*
G01*
X11517700Y-6791200D02*
X11619300Y-6892800D01*
X11619300Y-6791200D02*
X11517700Y-6892800D01*
X11619300Y-6842000D02*
G75*
G03*
X11619300Y-6842000I-50800J0D01*
G01*
X11517700Y-7045200D02*
X11619300Y-7146800D01*
X11619300Y-7045200D02*
X11517700Y-7146800D01*
X11619300Y-7096000D02*
G75*
G03*
X11619300Y-7096000I-50800J0D01*
G01*
X11517700Y-7299200D02*
X11619300Y-7400800D01*
X11619300Y-7299200D02*
X11517700Y-7400800D01*
X11619300Y-7350000D02*
G75*
G03*
X11619300Y-7350000I-50800J0D01*
G01*
X11517700Y-7553200D02*
X11619300Y-7654800D01*
X11619300Y-7553200D02*
X11517700Y-7654800D01*
X11619300Y-7604000D02*
G75*
G03*
X11619300Y-7604000I-50800J0D01*
G01*
X11517700Y-7807200D02*
X11619300Y-7908800D01*
X11619300Y-7807200D02*
X11517700Y-7908800D01*
X11619300Y-7858000D02*
G75*
G03*
X11619300Y-7858000I-50800J0D01*
G01*
X11517700Y-8061200D02*
X11619300Y-8162800D01*
X11619300Y-8061200D02*
X11517700Y-8162800D01*
X11619300Y-8112000D02*
G75*
G03*
X11619300Y-8112000I-50800J0D01*
G01*
X11517700Y-8315200D02*
X11619300Y-8416800D01*
X11619300Y-8315200D02*
X11517700Y-8416800D01*
X11619300Y-8366000D02*
G75*
G03*
X11619300Y-8366000I-50800J0D01*
G01*
X11517700Y-8569200D02*
X11619300Y-8670800D01*
X11619300Y-8569200D02*
X11517700Y-8670800D01*
X11619300Y-8620000D02*
G75*
G03*
X11619300Y-8620000I-50800J0D01*
G01*
X11517700Y-8823200D02*
X11619300Y-8924800D01*
X11619300Y-8823200D02*
X11517700Y-8924800D01*
X11619300Y-8874000D02*
G75*
G03*
X11619300Y-8874000I-50800J0D01*
G01*
X11517700Y-9077200D02*
X11619300Y-9178800D01*
X11619300Y-9077200D02*
X11517700Y-9178800D01*
X11619300Y-9128000D02*
G75*
G03*
X11619300Y-9128000I-50800J0D01*
G01*
X11517700Y-9331200D02*
X11619300Y-9432800D01*
X11619300Y-9331200D02*
X11517700Y-9432800D01*
X11619300Y-9382000D02*
G75*
G03*
X11619300Y-9382000I-50800J0D01*
G01*
X11517700Y-9585200D02*
X11619300Y-9686800D01*
X11619300Y-9585200D02*
X11517700Y-9686800D01*
X11619300Y-9636000D02*
G75*
G03*
X11619300Y-9636000I-50800J0D01*
G01*
X11517700Y-9839200D02*
X11619300Y-9940800D01*
X11619300Y-9839200D02*
X11517700Y-9940800D01*
X11619300Y-9890000D02*
G75*
G03*
X11619300Y-9890000I-50800J0D01*
G01*
X11517700Y-10093200D02*
X11619300Y-10194800D01*
X11619300Y-10093200D02*
X11517700Y-10194800D01*
X11619300Y-10144000D02*
G75*
G03*
X11619300Y-10144000I-50800J0D01*
G01*
X11517700Y-10347200D02*
X11619300Y-10448800D01*
X11619300Y-10347200D02*
X11517700Y-10448800D01*
X11619300Y-10398000D02*
G75*
G03*
X11619300Y-10398000I-50800J0D01*
G01*
X11517700Y-10601200D02*
X11619300Y-10702800D01*
X11619300Y-10601200D02*
X11517700Y-10702800D01*
X11619300Y-10652000D02*
G75*
G03*
X11619300Y-10652000I-50800J0D01*
G01*
X11517700Y-10855200D02*
X11619300Y-10956800D01*
X11619300Y-10855200D02*
X11517700Y-10956800D01*
X11619300Y-10906000D02*
G75*
G03*
X11619300Y-10906000I-50800J0D01*
G01*
X11517700Y-11109200D02*
X11619300Y-11210800D01*
X11619300Y-11109200D02*
X11517700Y-11210800D01*
X11619300Y-11160000D02*
G75*
G03*
X11619300Y-11160000I-50800J0D01*
G01*
X11517700Y-11363200D02*
X11619300Y-11464800D01*
X11619300Y-11363200D02*
X11517700Y-11464800D01*
X11619300Y-11414000D02*
G75*
G03*
X11619300Y-11414000I-50800J0D01*
G01*
X11517700Y-11617200D02*
X11619300Y-11718800D01*
X11619300Y-11617200D02*
X11517700Y-11718800D01*
X11619300Y-11668000D02*
G75*
G03*
X11619300Y-11668000I-50800J0D01*
G01*
X11517700Y-11871200D02*
X11619300Y-11972800D01*
X11619300Y-11871200D02*
X11517700Y-11972800D01*
X11619300Y-11922000D02*
G75*
G03*
X11619300Y-11922000I-50800J0D01*
G01*
X11517700Y-12125200D02*
X11619300Y-12226800D01*
X11619300Y-12125200D02*
X11517700Y-12226800D01*
X11619300Y-12176000D02*
G75*
G03*
X11619300Y-12176000I-50800J0D01*
G01*
X11517700Y-12379200D02*
X11619300Y-12480800D01*
X11619300Y-12379200D02*
X11517700Y-12480800D01*
X11619300Y-12430000D02*
G75*
G03*
X11619300Y-12430000I-50800J0D01*
G01*
X11771700Y-6029200D02*
X11873300Y-6130800D01*
X11873300Y-6029200D02*
X11771700Y-6130800D01*
X11873300Y-6080000D02*
G75*
G03*
X11873300Y-6080000I-50800J0D01*
G01*
X11771700Y-6283200D02*
X11873300Y-6384800D01*
X11873300Y-6283200D02*
X11771700Y-6384800D01*
X11873300Y-6334000D02*
G75*
G03*
X11873300Y-6334000I-50800J0D01*
G01*
X11771700Y-6537200D02*
X11873300Y-6638800D01*
X11873300Y-6537200D02*
X11771700Y-6638800D01*
X11873300Y-6588000D02*
G75*
G03*
X11873300Y-6588000I-50800J0D01*
G01*
X11771700Y-6791200D02*
X11873300Y-6892800D01*
X11873300Y-6791200D02*
X11771700Y-6892800D01*
X11873300Y-6842000D02*
G75*
G03*
X11873300Y-6842000I-50800J0D01*
G01*
X11771700Y-7045200D02*
X11873300Y-7146800D01*
X11873300Y-7045200D02*
X11771700Y-7146800D01*
X11873300Y-7096000D02*
G75*
G03*
X11873300Y-7096000I-50800J0D01*
G01*
X11771700Y-7299200D02*
X11873300Y-7400800D01*
X11873300Y-7299200D02*
X11771700Y-7400800D01*
X11873300Y-7350000D02*
G75*
G03*
X11873300Y-7350000I-50800J0D01*
G01*
X11771700Y-7553200D02*
X11873300Y-7654800D01*
X11873300Y-7553200D02*
X11771700Y-7654800D01*
X11873300Y-7604000D02*
G75*
G03*
X11873300Y-7604000I-50800J0D01*
G01*
X11771700Y-7807200D02*
X11873300Y-7908800D01*
X11873300Y-7807200D02*
X11771700Y-7908800D01*
X11873300Y-7858000D02*
G75*
G03*
X11873300Y-7858000I-50800J0D01*
G01*
X11771700Y-8061200D02*
X11873300Y-8162800D01*
X11873300Y-8061200D02*
X11771700Y-8162800D01*
X11873300Y-8112000D02*
G75*
G03*
X11873300Y-8112000I-50800J0D01*
G01*
X11771700Y-8315200D02*
X11873300Y-8416800D01*
X11873300Y-8315200D02*
X11771700Y-8416800D01*
X11873300Y-8366000D02*
G75*
G03*
X11873300Y-8366000I-50800J0D01*
G01*
X11771700Y-8569200D02*
X11873300Y-8670800D01*
X11873300Y-8569200D02*
X11771700Y-8670800D01*
X11873300Y-8620000D02*
G75*
G03*
X11873300Y-8620000I-50800J0D01*
G01*
X11771700Y-8823200D02*
X11873300Y-8924800D01*
X11873300Y-8823200D02*
X11771700Y-8924800D01*
X11873300Y-8874000D02*
G75*
G03*
X11873300Y-8874000I-50800J0D01*
G01*
X11771700Y-9077200D02*
X11873300Y-9178800D01*
X11873300Y-9077200D02*
X11771700Y-9178800D01*
X11873300Y-9128000D02*
G75*
G03*
X11873300Y-9128000I-50800J0D01*
G01*
X11771700Y-9331200D02*
X11873300Y-9432800D01*
X11873300Y-9331200D02*
X11771700Y-9432800D01*
X11873300Y-9382000D02*
G75*
G03*
X11873300Y-9382000I-50800J0D01*
G01*
X11771700Y-9585200D02*
X11873300Y-9686800D01*
X11873300Y-9585200D02*
X11771700Y-9686800D01*
X11873300Y-9636000D02*
G75*
G03*
X11873300Y-9636000I-50800J0D01*
G01*
X11771700Y-9839200D02*
X11873300Y-9940800D01*
X11873300Y-9839200D02*
X11771700Y-9940800D01*
X11873300Y-9890000D02*
G75*
G03*
X11873300Y-9890000I-50800J0D01*
G01*
X11771700Y-10093200D02*
X11873300Y-10194800D01*
X11873300Y-10093200D02*
X11771700Y-10194800D01*
X11873300Y-10144000D02*
G75*
G03*
X11873300Y-10144000I-50800J0D01*
G01*
X11771700Y-10347200D02*
X11873300Y-10448800D01*
X11873300Y-10347200D02*
X11771700Y-10448800D01*
X11873300Y-10398000D02*
G75*
G03*
X11873300Y-10398000I-50800J0D01*
G01*
X11771700Y-10601200D02*
X11873300Y-10702800D01*
X11873300Y-10601200D02*
X11771700Y-10702800D01*
X11873300Y-10652000D02*
G75*
G03*
X11873300Y-10652000I-50800J0D01*
G01*
X11771700Y-10855200D02*
X11873300Y-10956800D01*
X11873300Y-10855200D02*
X11771700Y-10956800D01*
X11873300Y-10906000D02*
G75*
G03*
X11873300Y-10906000I-50800J0D01*
G01*
X11771700Y-11109200D02*
X11873300Y-11210800D01*
X11873300Y-11109200D02*
X11771700Y-11210800D01*
X11873300Y-11160000D02*
G75*
G03*
X11873300Y-11160000I-50800J0D01*
G01*
X11771700Y-11363200D02*
X11873300Y-11464800D01*
X11873300Y-11363200D02*
X11771700Y-11464800D01*
X11873300Y-11414000D02*
G75*
G03*
X11873300Y-11414000I-50800J0D01*
G01*
X11771700Y-11617200D02*
X11873300Y-11718800D01*
X11873300Y-11617200D02*
X11771700Y-11718800D01*
X11873300Y-11668000D02*
G75*
G03*
X11873300Y-11668000I-50800J0D01*
G01*
X11771700Y-11871200D02*
X11873300Y-11972800D01*
X11873300Y-11871200D02*
X11771700Y-11972800D01*
X11873300Y-11922000D02*
G75*
G03*
X11873300Y-11922000I-50800J0D01*
G01*
X11771700Y-12125200D02*
X11873300Y-12226800D01*
X11873300Y-12125200D02*
X11771700Y-12226800D01*
X11873300Y-12176000D02*
G75*
G03*
X11873300Y-12176000I-50800J0D01*
G01*
X11771700Y-12379200D02*
X11873300Y-12480800D01*
X11873300Y-12379200D02*
X11771700Y-12480800D01*
X11873300Y-12430000D02*
G75*
G03*
X11873300Y-12430000I-50800J0D01*
G01*
D16*
X10913400Y-5419300D02*
X11233400Y-5739300D01*
X11233400Y-5419300D02*
X10913400Y-5739300D01*
X11073400Y-5419300D02*
X11073400Y-5739300D01*
X10913400Y-5579300D02*
X11233400Y-5579300D01*
X10913400Y-12785300D02*
X11233400Y-13105300D01*
X11233400Y-12785300D02*
X10913400Y-13105300D01*
X11073400Y-12785300D02*
X11073400Y-13105300D01*
X10913400Y-12945300D02*
X11233400Y-12945300D01*
X19486400Y-5165300D02*
X19806400Y-5485300D01*
X19806400Y-5165300D02*
X19486400Y-5485300D01*
X19646400Y-5165300D02*
X19646400Y-5485300D01*
X19486400Y-5325300D02*
X19806400Y-5325300D01*
X19486400Y-13166300D02*
X19806400Y-13486300D01*
X19806400Y-13166300D02*
X19486400Y-13486300D01*
X19646400Y-13166300D02*
X19646400Y-13486300D01*
X19486400Y-13326300D02*
X19806400Y-13326300D01*
D10*
X11009318Y-14047776D02*
X11009318Y-13847776D01*
X11056937Y-13847776D01*
X11085509Y-13857300D01*
X11104556Y-13876347D01*
X11114080Y-13895395D01*
X11123604Y-13933490D01*
X11123604Y-13962062D01*
X11114080Y-14000157D01*
X11104556Y-14019204D01*
X11085509Y-14038252D01*
X11056937Y-14047776D01*
X11009318Y-14047776D01*
X11209318Y-14047776D02*
X11209318Y-13914443D01*
X11209318Y-13952538D02*
X11218842Y-13933490D01*
X11228366Y-13923966D01*
X11247413Y-13914443D01*
X11266461Y-13914443D01*
X11333128Y-14047776D02*
X11333128Y-13914443D01*
X11333128Y-13847776D02*
X11323604Y-13857300D01*
X11333128Y-13866824D01*
X11342651Y-13857300D01*
X11333128Y-13847776D01*
X11333128Y-13866824D01*
X11456937Y-14047776D02*
X11437890Y-14038252D01*
X11428366Y-14019204D01*
X11428366Y-13847776D01*
X11561699Y-14047776D02*
X11542651Y-14038252D01*
X11533128Y-14019204D01*
X11533128Y-13847776D01*
X11790271Y-14047776D02*
X11790271Y-13847776D01*
X11856937Y-13990633D01*
X11923604Y-13847776D01*
X11923604Y-14047776D01*
X12104556Y-14047776D02*
X12104556Y-13943014D01*
X12095032Y-13923966D01*
X12075985Y-13914443D01*
X12037890Y-13914443D01*
X12018842Y-13923966D01*
X12104556Y-14038252D02*
X12085509Y-14047776D01*
X12037890Y-14047776D01*
X12018842Y-14038252D01*
X12009318Y-14019204D01*
X12009318Y-14000157D01*
X12018842Y-13981109D01*
X12037890Y-13971585D01*
X12085509Y-13971585D01*
X12104556Y-13962062D01*
X12199794Y-13914443D02*
X12199794Y-14114443D01*
X12199794Y-13923966D02*
X12218842Y-13914443D01*
X12256937Y-13914443D01*
X12275985Y-13923966D01*
X12285509Y-13933490D01*
X12295032Y-13952538D01*
X12295032Y-14009681D01*
X12285509Y-14028728D01*
X12275985Y-14038252D01*
X12256937Y-14047776D01*
X12218842Y-14047776D01*
X12199794Y-14038252D01*
X12380747Y-14028728D02*
X12390271Y-14038252D01*
X12380747Y-14047776D01*
X12371223Y-14038252D01*
X12380747Y-14028728D01*
X12380747Y-14047776D01*
X12380747Y-13923966D02*
X12390271Y-13933490D01*
X12380747Y-13943014D01*
X12371223Y-13933490D01*
X12380747Y-13923966D01*
X12380747Y-13943014D01*
D11*
X10731699Y-14367300D02*
X10751699Y-14387300D01*
X10751699Y-14367300D02*
X10731699Y-14387300D01*
D10*
X11047413Y-14267776D02*
X11066461Y-14267776D01*
X11085509Y-14277300D01*
X11095033Y-14286824D01*
X11104556Y-14305871D01*
X11114080Y-14343966D01*
X11114080Y-14391585D01*
X11104556Y-14429681D01*
X11095033Y-14448728D01*
X11085509Y-14458252D01*
X11066461Y-14467776D01*
X11047413Y-14467776D01*
X11028366Y-14458252D01*
X11018842Y-14448728D01*
X11009318Y-14429681D01*
X10999794Y-14391585D01*
X10999794Y-14343966D01*
X11009318Y-14305871D01*
X11018842Y-14286824D01*
X11028366Y-14277300D01*
X11047413Y-14267776D01*
X11199794Y-14448728D02*
X11209318Y-14458252D01*
X11199794Y-14467776D01*
X11190271Y-14458252D01*
X11199794Y-14448728D01*
X11199794Y-14467776D01*
X11285509Y-14286824D02*
X11295032Y-14277300D01*
X11314080Y-14267776D01*
X11361699Y-14267776D01*
X11380747Y-14277300D01*
X11390271Y-14286824D01*
X11399794Y-14305871D01*
X11399794Y-14324919D01*
X11390271Y-14353490D01*
X11275985Y-14467776D01*
X11399794Y-14467776D01*
X11523604Y-14267776D02*
X11542651Y-14267776D01*
X11561699Y-14277300D01*
X11571223Y-14286824D01*
X11580747Y-14305871D01*
X11590271Y-14343966D01*
X11590271Y-14391585D01*
X11580747Y-14429681D01*
X11571223Y-14448728D01*
X11561699Y-14458252D01*
X11542651Y-14467776D01*
X11523604Y-14467776D01*
X11504556Y-14458252D01*
X11495032Y-14448728D01*
X11485509Y-14429681D01*
X11475985Y-14391585D01*
X11475985Y-14343966D01*
X11485509Y-14305871D01*
X11495032Y-14286824D01*
X11504556Y-14277300D01*
X11523604Y-14267776D01*
X11714080Y-14267776D02*
X11733128Y-14267776D01*
X11752175Y-14277300D01*
X11761699Y-14286824D01*
X11771223Y-14305871D01*
X11780747Y-14343966D01*
X11780747Y-14391585D01*
X11771223Y-14429681D01*
X11761699Y-14448728D01*
X11752175Y-14458252D01*
X11733128Y-14467776D01*
X11714080Y-14467776D01*
X11695032Y-14458252D01*
X11685509Y-14448728D01*
X11675985Y-14429681D01*
X11666461Y-14391585D01*
X11666461Y-14343966D01*
X11675985Y-14305871D01*
X11685509Y-14286824D01*
X11695032Y-14277300D01*
X11714080Y-14267776D01*
X11866461Y-14467776D02*
X11866461Y-14334443D01*
X11866461Y-14353490D02*
X11875985Y-14343966D01*
X11895032Y-14334443D01*
X11923604Y-14334443D01*
X11942651Y-14343966D01*
X11952175Y-14363014D01*
X11952175Y-14467776D01*
X11952175Y-14363014D02*
X11961699Y-14343966D01*
X11980747Y-14334443D01*
X12009318Y-14334443D01*
X12028366Y-14343966D01*
X12037890Y-14363014D01*
X12037890Y-14467776D01*
X12133128Y-14467776D02*
X12133128Y-14334443D01*
X12133128Y-14353490D02*
X12142651Y-14343966D01*
X12161699Y-14334443D01*
X12190271Y-14334443D01*
X12209318Y-14343966D01*
X12218842Y-14363014D01*
X12218842Y-14467776D01*
X12218842Y-14363014D02*
X12228366Y-14343966D01*
X12247413Y-14334443D01*
X12275985Y-14334443D01*
X12295032Y-14343966D01*
X12304556Y-14363014D01*
X12304556Y-14467776D01*
X12695032Y-14258252D02*
X12523604Y-14515395D01*
X12952175Y-14267776D02*
X12971223Y-14267776D01*
X12990271Y-14277300D01*
X12999794Y-14286824D01*
X13009318Y-14305871D01*
X13018842Y-14343966D01*
X13018842Y-14391585D01*
X13009318Y-14429681D01*
X12999794Y-14448728D01*
X12990271Y-14458252D01*
X12971223Y-14467776D01*
X12952175Y-14467776D01*
X12933128Y-14458252D01*
X12923604Y-14448728D01*
X12914080Y-14429681D01*
X12904556Y-14391585D01*
X12904556Y-14343966D01*
X12914080Y-14305871D01*
X12923604Y-14286824D01*
X12933128Y-14277300D01*
X12952175Y-14267776D01*
X13104556Y-14448728D02*
X13114080Y-14458252D01*
X13104556Y-14467776D01*
X13095032Y-14458252D01*
X13104556Y-14448728D01*
X13104556Y-14467776D01*
X13237890Y-14267776D02*
X13256937Y-14267776D01*
X13275985Y-14277300D01*
X13285509Y-14286824D01*
X13295032Y-14305871D01*
X13304556Y-14343966D01*
X13304556Y-14391585D01*
X13295032Y-14429681D01*
X13285509Y-14448728D01*
X13275985Y-14458252D01*
X13256937Y-14467776D01*
X13237890Y-14467776D01*
X13218842Y-14458252D01*
X13209318Y-14448728D01*
X13199794Y-14429681D01*
X13190271Y-14391585D01*
X13190271Y-14343966D01*
X13199794Y-14305871D01*
X13209318Y-14286824D01*
X13218842Y-14277300D01*
X13237890Y-14267776D01*
X13428366Y-14267776D02*
X13447413Y-14267776D01*
X13466461Y-14277300D01*
X13475985Y-14286824D01*
X13485509Y-14305871D01*
X13495032Y-14343966D01*
X13495032Y-14391585D01*
X13485509Y-14429681D01*
X13475985Y-14448728D01*
X13466461Y-14458252D01*
X13447413Y-14467776D01*
X13428366Y-14467776D01*
X13409318Y-14458252D01*
X13399794Y-14448728D01*
X13390271Y-14429681D01*
X13380747Y-14391585D01*
X13380747Y-14343966D01*
X13390271Y-14305871D01*
X13399794Y-14286824D01*
X13409318Y-14277300D01*
X13428366Y-14267776D01*
X13561699Y-14267776D02*
X13695032Y-14267776D01*
X13609318Y-14467776D01*
X13780747Y-14467776D02*
X13818842Y-14467776D01*
X13837890Y-14458252D01*
X13847413Y-14448728D01*
X13866461Y-14420157D01*
X13875985Y-14382062D01*
X13875985Y-14305871D01*
X13866461Y-14286824D01*
X13856937Y-14277300D01*
X13837890Y-14267776D01*
X13799794Y-14267776D01*
X13780747Y-14277300D01*
X13771223Y-14286824D01*
X13761699Y-14305871D01*
X13761699Y-14353490D01*
X13771223Y-14372538D01*
X13780747Y-14382062D01*
X13799794Y-14391585D01*
X13837890Y-14391585D01*
X13856937Y-14382062D01*
X13866461Y-14372538D01*
X13875985Y-14353490D01*
X13952175Y-14267776D02*
X13952175Y-14305871D01*
X14028366Y-14267776D02*
X14028366Y-14305871D01*
X14323604Y-14543966D02*
X14314080Y-14534443D01*
X14295032Y-14505871D01*
X14285509Y-14486824D01*
X14275985Y-14458252D01*
X14266461Y-14410633D01*
X14266461Y-14372538D01*
X14275985Y-14324919D01*
X14285509Y-14296347D01*
X14295032Y-14277300D01*
X14314080Y-14248728D01*
X14323604Y-14239204D01*
X14504556Y-14467776D02*
X14390271Y-14467776D01*
X14447413Y-14467776D02*
X14447413Y-14267776D01*
X14428366Y-14296347D01*
X14409318Y-14315395D01*
X14390271Y-14324919D01*
X14599794Y-14467776D02*
X14637890Y-14467776D01*
X14656937Y-14458252D01*
X14666461Y-14448728D01*
X14685509Y-14420157D01*
X14695032Y-14382062D01*
X14695032Y-14305871D01*
X14685509Y-14286824D01*
X14675985Y-14277300D01*
X14656937Y-14267776D01*
X14618842Y-14267776D01*
X14599794Y-14277300D01*
X14590271Y-14286824D01*
X14580747Y-14305871D01*
X14580747Y-14353490D01*
X14590271Y-14372538D01*
X14599794Y-14382062D01*
X14618842Y-14391585D01*
X14656937Y-14391585D01*
X14675985Y-14382062D01*
X14685509Y-14372538D01*
X14695032Y-14353490D01*
X14866461Y-14267776D02*
X14828366Y-14267776D01*
X14809318Y-14277300D01*
X14799794Y-14286824D01*
X14780747Y-14315395D01*
X14771223Y-14353490D01*
X14771223Y-14429681D01*
X14780747Y-14448728D01*
X14790271Y-14458252D01*
X14809318Y-14467776D01*
X14847413Y-14467776D01*
X14866461Y-14458252D01*
X14875985Y-14448728D01*
X14885509Y-14429681D01*
X14885509Y-14382062D01*
X14875985Y-14363014D01*
X14866461Y-14353490D01*
X14847413Y-14343966D01*
X14809318Y-14343966D01*
X14790271Y-14353490D01*
X14780747Y-14363014D01*
X14771223Y-14382062D01*
X15123604Y-14467776D02*
X15123604Y-14267776D01*
X15209318Y-14467776D02*
X15209318Y-14363014D01*
X15199794Y-14343966D01*
X15180747Y-14334443D01*
X15152175Y-14334443D01*
X15133128Y-14343966D01*
X15123604Y-14353490D01*
X15333128Y-14467776D02*
X15314080Y-14458252D01*
X15304556Y-14448728D01*
X15295032Y-14429681D01*
X15295032Y-14372538D01*
X15304556Y-14353490D01*
X15314080Y-14343966D01*
X15333128Y-14334443D01*
X15361699Y-14334443D01*
X15380747Y-14343966D01*
X15390271Y-14353490D01*
X15399794Y-14372538D01*
X15399794Y-14429681D01*
X15390271Y-14448728D01*
X15380747Y-14458252D01*
X15361699Y-14467776D01*
X15333128Y-14467776D01*
X15514080Y-14467776D02*
X15495032Y-14458252D01*
X15485509Y-14439204D01*
X15485509Y-14267776D01*
X15666461Y-14458252D02*
X15647413Y-14467776D01*
X15609318Y-14467776D01*
X15590271Y-14458252D01*
X15580747Y-14439204D01*
X15580747Y-14363014D01*
X15590271Y-14343966D01*
X15609318Y-14334443D01*
X15647413Y-14334443D01*
X15666461Y-14343966D01*
X15675985Y-14363014D01*
X15675985Y-14382062D01*
X15580747Y-14401109D01*
X15752175Y-14458252D02*
X15771223Y-14467776D01*
X15809318Y-14467776D01*
X15828366Y-14458252D01*
X15837890Y-14439204D01*
X15837890Y-14429681D01*
X15828366Y-14410633D01*
X15809318Y-14401109D01*
X15780747Y-14401109D01*
X15761699Y-14391585D01*
X15752175Y-14372538D01*
X15752175Y-14363014D01*
X15761699Y-14343966D01*
X15780747Y-14334443D01*
X15809318Y-14334443D01*
X15828366Y-14343966D01*
X15904556Y-14543966D02*
X15914080Y-14534443D01*
X15933128Y-14505871D01*
X15942651Y-14486824D01*
X15952175Y-14458252D01*
X15961699Y-14410633D01*
X15961699Y-14372538D01*
X15952175Y-14324919D01*
X15942651Y-14296347D01*
X15933128Y-14277300D01*
X15914080Y-14248728D01*
X15904556Y-14239204D01*
D11*
X10751699Y-14641300D02*
G75*
G03*
X10751699Y-14641300I-10000J0D01*
G01*
D10*
X11047413Y-14531776D02*
X11066461Y-14531776D01*
X11085509Y-14541300D01*
X11095033Y-14550824D01*
X11104556Y-14569871D01*
X11114080Y-14607966D01*
X11114080Y-14655585D01*
X11104556Y-14693681D01*
X11095033Y-14712728D01*
X11085509Y-14722252D01*
X11066461Y-14731776D01*
X11047413Y-14731776D01*
X11028366Y-14722252D01*
X11018842Y-14712728D01*
X11009318Y-14693681D01*
X10999794Y-14655585D01*
X10999794Y-14607966D01*
X11009318Y-14569871D01*
X11018842Y-14550824D01*
X11028366Y-14541300D01*
X11047413Y-14531776D01*
X11199794Y-14712728D02*
X11209318Y-14722252D01*
X11199794Y-14731776D01*
X11190271Y-14722252D01*
X11199794Y-14712728D01*
X11199794Y-14731776D01*
X11285509Y-14550824D02*
X11295032Y-14541300D01*
X11314080Y-14531776D01*
X11361699Y-14531776D01*
X11380747Y-14541300D01*
X11390271Y-14550824D01*
X11399794Y-14569871D01*
X11399794Y-14588919D01*
X11390271Y-14617490D01*
X11275985Y-14731776D01*
X11399794Y-14731776D01*
X11523604Y-14531776D02*
X11542651Y-14531776D01*
X11561699Y-14541300D01*
X11571223Y-14550824D01*
X11580747Y-14569871D01*
X11590271Y-14607966D01*
X11590271Y-14655585D01*
X11580747Y-14693681D01*
X11571223Y-14712728D01*
X11561699Y-14722252D01*
X11542651Y-14731776D01*
X11523604Y-14731776D01*
X11504556Y-14722252D01*
X11495032Y-14712728D01*
X11485509Y-14693681D01*
X11475985Y-14655585D01*
X11475985Y-14607966D01*
X11485509Y-14569871D01*
X11495032Y-14550824D01*
X11504556Y-14541300D01*
X11523604Y-14531776D01*
X11714080Y-14531776D02*
X11733128Y-14531776D01*
X11752175Y-14541300D01*
X11761699Y-14550824D01*
X11771223Y-14569871D01*
X11780747Y-14607966D01*
X11780747Y-14655585D01*
X11771223Y-14693681D01*
X11761699Y-14712728D01*
X11752175Y-14722252D01*
X11733128Y-14731776D01*
X11714080Y-14731776D01*
X11695032Y-14722252D01*
X11685509Y-14712728D01*
X11675985Y-14693681D01*
X11666461Y-14655585D01*
X11666461Y-14607966D01*
X11675985Y-14569871D01*
X11685509Y-14550824D01*
X11695032Y-14541300D01*
X11714080Y-14531776D01*
X11866461Y-14731776D02*
X11866461Y-14598443D01*
X11866461Y-14617490D02*
X11875985Y-14607966D01*
X11895032Y-14598443D01*
X11923604Y-14598443D01*
X11942651Y-14607966D01*
X11952175Y-14627014D01*
X11952175Y-14731776D01*
X11952175Y-14627014D02*
X11961699Y-14607966D01*
X11980747Y-14598443D01*
X12009318Y-14598443D01*
X12028366Y-14607966D01*
X12037890Y-14627014D01*
X12037890Y-14731776D01*
X12133128Y-14731776D02*
X12133128Y-14598443D01*
X12133128Y-14617490D02*
X12142651Y-14607966D01*
X12161699Y-14598443D01*
X12190271Y-14598443D01*
X12209318Y-14607966D01*
X12218842Y-14627014D01*
X12218842Y-14731776D01*
X12218842Y-14627014D02*
X12228366Y-14607966D01*
X12247413Y-14598443D01*
X12275985Y-14598443D01*
X12295032Y-14607966D01*
X12304556Y-14627014D01*
X12304556Y-14731776D01*
X12695032Y-14522252D02*
X12523604Y-14779395D01*
X12952175Y-14531776D02*
X12971223Y-14531776D01*
X12990271Y-14541300D01*
X12999794Y-14550824D01*
X13009318Y-14569871D01*
X13018842Y-14607966D01*
X13018842Y-14655585D01*
X13009318Y-14693681D01*
X12999794Y-14712728D01*
X12990271Y-14722252D01*
X12971223Y-14731776D01*
X12952175Y-14731776D01*
X12933128Y-14722252D01*
X12923604Y-14712728D01*
X12914080Y-14693681D01*
X12904556Y-14655585D01*
X12904556Y-14607966D01*
X12914080Y-14569871D01*
X12923604Y-14550824D01*
X12933128Y-14541300D01*
X12952175Y-14531776D01*
X13104556Y-14712728D02*
X13114080Y-14722252D01*
X13104556Y-14731776D01*
X13095032Y-14722252D01*
X13104556Y-14712728D01*
X13104556Y-14731776D01*
X13237890Y-14531776D02*
X13256937Y-14531776D01*
X13275985Y-14541300D01*
X13285509Y-14550824D01*
X13295032Y-14569871D01*
X13304556Y-14607966D01*
X13304556Y-14655585D01*
X13295032Y-14693681D01*
X13285509Y-14712728D01*
X13275985Y-14722252D01*
X13256937Y-14731776D01*
X13237890Y-14731776D01*
X13218842Y-14722252D01*
X13209318Y-14712728D01*
X13199794Y-14693681D01*
X13190271Y-14655585D01*
X13190271Y-14607966D01*
X13199794Y-14569871D01*
X13209318Y-14550824D01*
X13218842Y-14541300D01*
X13237890Y-14531776D01*
X13428366Y-14531776D02*
X13447413Y-14531776D01*
X13466461Y-14541300D01*
X13475985Y-14550824D01*
X13485509Y-14569871D01*
X13495032Y-14607966D01*
X13495032Y-14655585D01*
X13485509Y-14693681D01*
X13475985Y-14712728D01*
X13466461Y-14722252D01*
X13447413Y-14731776D01*
X13428366Y-14731776D01*
X13409318Y-14722252D01*
X13399794Y-14712728D01*
X13390271Y-14693681D01*
X13380747Y-14655585D01*
X13380747Y-14607966D01*
X13390271Y-14569871D01*
X13399794Y-14550824D01*
X13409318Y-14541300D01*
X13428366Y-14531776D01*
X13561699Y-14531776D02*
X13695032Y-14531776D01*
X13609318Y-14731776D01*
X13780747Y-14731776D02*
X13818842Y-14731776D01*
X13837890Y-14722252D01*
X13847413Y-14712728D01*
X13866461Y-14684157D01*
X13875985Y-14646062D01*
X13875985Y-14569871D01*
X13866461Y-14550824D01*
X13856937Y-14541300D01*
X13837890Y-14531776D01*
X13799794Y-14531776D01*
X13780747Y-14541300D01*
X13771223Y-14550824D01*
X13761699Y-14569871D01*
X13761699Y-14617490D01*
X13771223Y-14636538D01*
X13780747Y-14646062D01*
X13799794Y-14655585D01*
X13837890Y-14655585D01*
X13856937Y-14646062D01*
X13866461Y-14636538D01*
X13875985Y-14617490D01*
X13952175Y-14531776D02*
X13952175Y-14569871D01*
X14028366Y-14531776D02*
X14028366Y-14569871D01*
X14323604Y-14807966D02*
X14314080Y-14798443D01*
X14295032Y-14769871D01*
X14285509Y-14750824D01*
X14275985Y-14722252D01*
X14266461Y-14674633D01*
X14266461Y-14636538D01*
X14275985Y-14588919D01*
X14285509Y-14560347D01*
X14295032Y-14541300D01*
X14314080Y-14512728D01*
X14323604Y-14503204D01*
X14504556Y-14731776D02*
X14390271Y-14731776D01*
X14447413Y-14731776D02*
X14447413Y-14531776D01*
X14428366Y-14560347D01*
X14409318Y-14579395D01*
X14390271Y-14588919D01*
X14571223Y-14531776D02*
X14704556Y-14531776D01*
X14618842Y-14731776D01*
X14933128Y-14731776D02*
X14933128Y-14531776D01*
X15018842Y-14731776D02*
X15018842Y-14627014D01*
X15009318Y-14607966D01*
X14990271Y-14598443D01*
X14961699Y-14598443D01*
X14942651Y-14607966D01*
X14933128Y-14617490D01*
X15142651Y-14731776D02*
X15123604Y-14722252D01*
X15114080Y-14712728D01*
X15104556Y-14693681D01*
X15104556Y-14636538D01*
X15114080Y-14617490D01*
X15123604Y-14607966D01*
X15142651Y-14598443D01*
X15171223Y-14598443D01*
X15190271Y-14607966D01*
X15199794Y-14617490D01*
X15209318Y-14636538D01*
X15209318Y-14693681D01*
X15199794Y-14712728D01*
X15190271Y-14722252D01*
X15171223Y-14731776D01*
X15142651Y-14731776D01*
X15323604Y-14731776D02*
X15304556Y-14722252D01*
X15295032Y-14703204D01*
X15295032Y-14531776D01*
X15475985Y-14722252D02*
X15456937Y-14731776D01*
X15418842Y-14731776D01*
X15399794Y-14722252D01*
X15390271Y-14703204D01*
X15390271Y-14627014D01*
X15399794Y-14607966D01*
X15418842Y-14598443D01*
X15456937Y-14598443D01*
X15475985Y-14607966D01*
X15485509Y-14627014D01*
X15485509Y-14646062D01*
X15390271Y-14665109D01*
X15561699Y-14722252D02*
X15580747Y-14731776D01*
X15618842Y-14731776D01*
X15637890Y-14722252D01*
X15647413Y-14703204D01*
X15647413Y-14693681D01*
X15637890Y-14674633D01*
X15618842Y-14665109D01*
X15590271Y-14665109D01*
X15571223Y-14655585D01*
X15561699Y-14636538D01*
X15561699Y-14627014D01*
X15571223Y-14607966D01*
X15590271Y-14598443D01*
X15618842Y-14598443D01*
X15637890Y-14607966D01*
X15714080Y-14807966D02*
X15723604Y-14798443D01*
X15742651Y-14769871D01*
X15752175Y-14750824D01*
X15761699Y-14722252D01*
X15771223Y-14674633D01*
X15771223Y-14636538D01*
X15761699Y-14588919D01*
X15752175Y-14560347D01*
X15742651Y-14541300D01*
X15723604Y-14512728D01*
X15714080Y-14503204D01*
D12*
X10736699Y-14890300D02*
X10736699Y-14920300D01*
X10721699Y-14905300D02*
X10751699Y-14905300D01*
D10*
X11047413Y-14795776D02*
X11066461Y-14795776D01*
X11085509Y-14805300D01*
X11095033Y-14814824D01*
X11104556Y-14833871D01*
X11114080Y-14871966D01*
X11114080Y-14919585D01*
X11104556Y-14957681D01*
X11095033Y-14976728D01*
X11085509Y-14986252D01*
X11066461Y-14995776D01*
X11047413Y-14995776D01*
X11028366Y-14986252D01*
X11018842Y-14976728D01*
X11009318Y-14957681D01*
X10999794Y-14919585D01*
X10999794Y-14871966D01*
X11009318Y-14833871D01*
X11018842Y-14814824D01*
X11028366Y-14805300D01*
X11047413Y-14795776D01*
X11199794Y-14976728D02*
X11209318Y-14986252D01*
X11199794Y-14995776D01*
X11190271Y-14986252D01*
X11199794Y-14976728D01*
X11199794Y-14995776D01*
X11275985Y-14795776D02*
X11399794Y-14795776D01*
X11333128Y-14871966D01*
X11361699Y-14871966D01*
X11380747Y-14881490D01*
X11390271Y-14891014D01*
X11399794Y-14910062D01*
X11399794Y-14957681D01*
X11390271Y-14976728D01*
X11380747Y-14986252D01*
X11361699Y-14995776D01*
X11304556Y-14995776D01*
X11285509Y-14986252D01*
X11275985Y-14976728D01*
X11523604Y-14795776D02*
X11542651Y-14795776D01*
X11561699Y-14805300D01*
X11571223Y-14814824D01*
X11580747Y-14833871D01*
X11590271Y-14871966D01*
X11590271Y-14919585D01*
X11580747Y-14957681D01*
X11571223Y-14976728D01*
X11561699Y-14986252D01*
X11542651Y-14995776D01*
X11523604Y-14995776D01*
X11504556Y-14986252D01*
X11495032Y-14976728D01*
X11485509Y-14957681D01*
X11475985Y-14919585D01*
X11475985Y-14871966D01*
X11485509Y-14833871D01*
X11495032Y-14814824D01*
X11504556Y-14805300D01*
X11523604Y-14795776D01*
X11714080Y-14795776D02*
X11733128Y-14795776D01*
X11752175Y-14805300D01*
X11761699Y-14814824D01*
X11771223Y-14833871D01*
X11780747Y-14871966D01*
X11780747Y-14919585D01*
X11771223Y-14957681D01*
X11761699Y-14976728D01*
X11752175Y-14986252D01*
X11733128Y-14995776D01*
X11714080Y-14995776D01*
X11695032Y-14986252D01*
X11685509Y-14976728D01*
X11675985Y-14957681D01*
X11666461Y-14919585D01*
X11666461Y-14871966D01*
X11675985Y-14833871D01*
X11685509Y-14814824D01*
X11695032Y-14805300D01*
X11714080Y-14795776D01*
X11866461Y-14995776D02*
X11866461Y-14862443D01*
X11866461Y-14881490D02*
X11875985Y-14871966D01*
X11895032Y-14862443D01*
X11923604Y-14862443D01*
X11942651Y-14871966D01*
X11952175Y-14891014D01*
X11952175Y-14995776D01*
X11952175Y-14891014D02*
X11961699Y-14871966D01*
X11980747Y-14862443D01*
X12009318Y-14862443D01*
X12028366Y-14871966D01*
X12037890Y-14891014D01*
X12037890Y-14995776D01*
X12133128Y-14995776D02*
X12133128Y-14862443D01*
X12133128Y-14881490D02*
X12142651Y-14871966D01*
X12161699Y-14862443D01*
X12190271Y-14862443D01*
X12209318Y-14871966D01*
X12218842Y-14891014D01*
X12218842Y-14995776D01*
X12218842Y-14891014D02*
X12228366Y-14871966D01*
X12247413Y-14862443D01*
X12275985Y-14862443D01*
X12295032Y-14871966D01*
X12304556Y-14891014D01*
X12304556Y-14995776D01*
X12695032Y-14786252D02*
X12523604Y-15043395D01*
X12952175Y-14795776D02*
X12971223Y-14795776D01*
X12990271Y-14805300D01*
X12999794Y-14814824D01*
X13009318Y-14833871D01*
X13018842Y-14871966D01*
X13018842Y-14919585D01*
X13009318Y-14957681D01*
X12999794Y-14976728D01*
X12990271Y-14986252D01*
X12971223Y-14995776D01*
X12952175Y-14995776D01*
X12933128Y-14986252D01*
X12923604Y-14976728D01*
X12914080Y-14957681D01*
X12904556Y-14919585D01*
X12904556Y-14871966D01*
X12914080Y-14833871D01*
X12923604Y-14814824D01*
X12933128Y-14805300D01*
X12952175Y-14795776D01*
X13104556Y-14976728D02*
X13114080Y-14986252D01*
X13104556Y-14995776D01*
X13095032Y-14986252D01*
X13104556Y-14976728D01*
X13104556Y-14995776D01*
X13237890Y-14795776D02*
X13256937Y-14795776D01*
X13275985Y-14805300D01*
X13285509Y-14814824D01*
X13295032Y-14833871D01*
X13304556Y-14871966D01*
X13304556Y-14919585D01*
X13295032Y-14957681D01*
X13285509Y-14976728D01*
X13275985Y-14986252D01*
X13256937Y-14995776D01*
X13237890Y-14995776D01*
X13218842Y-14986252D01*
X13209318Y-14976728D01*
X13199794Y-14957681D01*
X13190271Y-14919585D01*
X13190271Y-14871966D01*
X13199794Y-14833871D01*
X13209318Y-14814824D01*
X13218842Y-14805300D01*
X13237890Y-14795776D01*
X13495032Y-14995776D02*
X13380747Y-14995776D01*
X13437890Y-14995776D02*
X13437890Y-14795776D01*
X13418842Y-14824347D01*
X13399794Y-14843395D01*
X13380747Y-14852919D01*
X13685509Y-14995776D02*
X13571223Y-14995776D01*
X13628366Y-14995776D02*
X13628366Y-14795776D01*
X13609318Y-14824347D01*
X13590271Y-14843395D01*
X13571223Y-14852919D01*
X13799794Y-14881490D02*
X13780747Y-14871966D01*
X13771223Y-14862443D01*
X13761699Y-14843395D01*
X13761699Y-14833871D01*
X13771223Y-14814824D01*
X13780747Y-14805300D01*
X13799794Y-14795776D01*
X13837890Y-14795776D01*
X13856937Y-14805300D01*
X13866461Y-14814824D01*
X13875985Y-14833871D01*
X13875985Y-14843395D01*
X13866461Y-14862443D01*
X13856937Y-14871966D01*
X13837890Y-14881490D01*
X13799794Y-14881490D01*
X13780747Y-14891014D01*
X13771223Y-14900538D01*
X13761699Y-14919585D01*
X13761699Y-14957681D01*
X13771223Y-14976728D01*
X13780747Y-14986252D01*
X13799794Y-14995776D01*
X13837890Y-14995776D01*
X13856937Y-14986252D01*
X13866461Y-14976728D01*
X13875985Y-14957681D01*
X13875985Y-14919585D01*
X13866461Y-14900538D01*
X13856937Y-14891014D01*
X13837890Y-14881490D01*
X13952175Y-14795776D02*
X13952175Y-14833871D01*
X14028366Y-14795776D02*
X14028366Y-14833871D01*
X14323604Y-15071966D02*
X14314080Y-15062443D01*
X14295032Y-15033871D01*
X14285509Y-15014824D01*
X14275985Y-14986252D01*
X14266461Y-14938633D01*
X14266461Y-14900538D01*
X14275985Y-14852919D01*
X14285509Y-14824347D01*
X14295032Y-14805300D01*
X14314080Y-14776728D01*
X14323604Y-14767204D01*
X14504556Y-14995776D02*
X14390271Y-14995776D01*
X14447413Y-14995776D02*
X14447413Y-14795776D01*
X14428366Y-14824347D01*
X14409318Y-14843395D01*
X14390271Y-14852919D01*
X14675985Y-14862443D02*
X14675985Y-14995776D01*
X14628366Y-14786252D02*
X14580747Y-14929109D01*
X14704556Y-14929109D01*
X14761699Y-14795776D02*
X14885509Y-14795776D01*
X14818842Y-14871966D01*
X14847413Y-14871966D01*
X14866461Y-14881490D01*
X14875985Y-14891014D01*
X14885509Y-14910062D01*
X14885509Y-14957681D01*
X14875985Y-14976728D01*
X14866461Y-14986252D01*
X14847413Y-14995776D01*
X14790271Y-14995776D01*
X14771223Y-14986252D01*
X14761699Y-14976728D01*
X15123604Y-14995776D02*
X15123604Y-14795776D01*
X15209318Y-14995776D02*
X15209318Y-14891014D01*
X15199794Y-14871966D01*
X15180747Y-14862443D01*
X15152175Y-14862443D01*
X15133128Y-14871966D01*
X15123604Y-14881490D01*
X15333128Y-14995776D02*
X15314080Y-14986252D01*
X15304556Y-14976728D01*
X15295032Y-14957681D01*
X15295032Y-14900538D01*
X15304556Y-14881490D01*
X15314080Y-14871966D01*
X15333128Y-14862443D01*
X15361699Y-14862443D01*
X15380747Y-14871966D01*
X15390271Y-14881490D01*
X15399794Y-14900538D01*
X15399794Y-14957681D01*
X15390271Y-14976728D01*
X15380747Y-14986252D01*
X15361699Y-14995776D01*
X15333128Y-14995776D01*
X15514080Y-14995776D02*
X15495032Y-14986252D01*
X15485509Y-14967204D01*
X15485509Y-14795776D01*
X15666461Y-14986252D02*
X15647413Y-14995776D01*
X15609318Y-14995776D01*
X15590271Y-14986252D01*
X15580747Y-14967204D01*
X15580747Y-14891014D01*
X15590271Y-14871966D01*
X15609318Y-14862443D01*
X15647413Y-14862443D01*
X15666461Y-14871966D01*
X15675985Y-14891014D01*
X15675985Y-14910062D01*
X15580747Y-14929109D01*
X15752175Y-14986252D02*
X15771223Y-14995776D01*
X15809318Y-14995776D01*
X15828366Y-14986252D01*
X15837890Y-14967204D01*
X15837890Y-14957681D01*
X15828366Y-14938633D01*
X15809318Y-14929109D01*
X15780747Y-14929109D01*
X15761699Y-14919585D01*
X15752175Y-14900538D01*
X15752175Y-14891014D01*
X15761699Y-14871966D01*
X15780747Y-14862443D01*
X15809318Y-14862443D01*
X15828366Y-14871966D01*
X15904556Y-15071966D02*
X15914080Y-15062443D01*
X15933128Y-15033871D01*
X15942651Y-15014824D01*
X15952175Y-14986252D01*
X15961699Y-14938633D01*
X15961699Y-14900538D01*
X15952175Y-14852919D01*
X15942651Y-14824347D01*
X15933128Y-14805300D01*
X15914080Y-14776728D01*
X15904556Y-14767204D01*
D13*
X10745842Y-15183442D02*
X10745842Y-15155157D01*
X10717557Y-15155157D01*
X10717557Y-15183442D01*
X10745842Y-15183442D01*
D10*
X11047413Y-15059776D02*
X11066461Y-15059776D01*
X11085509Y-15069300D01*
X11095033Y-15078824D01*
X11104556Y-15097871D01*
X11114080Y-15135966D01*
X11114080Y-15183585D01*
X11104556Y-15221681D01*
X11095033Y-15240728D01*
X11085509Y-15250252D01*
X11066461Y-15259776D01*
X11047413Y-15259776D01*
X11028366Y-15250252D01*
X11018842Y-15240728D01*
X11009318Y-15221681D01*
X10999794Y-15183585D01*
X10999794Y-15135966D01*
X11009318Y-15097871D01*
X11018842Y-15078824D01*
X11028366Y-15069300D01*
X11047413Y-15059776D01*
X11199794Y-15240728D02*
X11209318Y-15250252D01*
X11199794Y-15259776D01*
X11190271Y-15250252D01*
X11199794Y-15240728D01*
X11199794Y-15259776D01*
X11380747Y-15126443D02*
X11380747Y-15259776D01*
X11333128Y-15050252D02*
X11285509Y-15193109D01*
X11409318Y-15193109D01*
X11523604Y-15059776D02*
X11542651Y-15059776D01*
X11561699Y-15069300D01*
X11571223Y-15078824D01*
X11580747Y-15097871D01*
X11590271Y-15135966D01*
X11590271Y-15183585D01*
X11580747Y-15221681D01*
X11571223Y-15240728D01*
X11561699Y-15250252D01*
X11542651Y-15259776D01*
X11523604Y-15259776D01*
X11504556Y-15250252D01*
X11495032Y-15240728D01*
X11485509Y-15221681D01*
X11475985Y-15183585D01*
X11475985Y-15135966D01*
X11485509Y-15097871D01*
X11495032Y-15078824D01*
X11504556Y-15069300D01*
X11523604Y-15059776D01*
X11714080Y-15059776D02*
X11733128Y-15059776D01*
X11752175Y-15069300D01*
X11761699Y-15078824D01*
X11771223Y-15097871D01*
X11780747Y-15135966D01*
X11780747Y-15183585D01*
X11771223Y-15221681D01*
X11761699Y-15240728D01*
X11752175Y-15250252D01*
X11733128Y-15259776D01*
X11714080Y-15259776D01*
X11695032Y-15250252D01*
X11685509Y-15240728D01*
X11675985Y-15221681D01*
X11666461Y-15183585D01*
X11666461Y-15135966D01*
X11675985Y-15097871D01*
X11685509Y-15078824D01*
X11695032Y-15069300D01*
X11714080Y-15059776D01*
X11866461Y-15259776D02*
X11866461Y-15126443D01*
X11866461Y-15145490D02*
X11875985Y-15135966D01*
X11895032Y-15126443D01*
X11923604Y-15126443D01*
X11942651Y-15135966D01*
X11952175Y-15155014D01*
X11952175Y-15259776D01*
X11952175Y-15155014D02*
X11961699Y-15135966D01*
X11980747Y-15126443D01*
X12009318Y-15126443D01*
X12028366Y-15135966D01*
X12037890Y-15155014D01*
X12037890Y-15259776D01*
X12133128Y-15259776D02*
X12133128Y-15126443D01*
X12133128Y-15145490D02*
X12142651Y-15135966D01*
X12161699Y-15126443D01*
X12190271Y-15126443D01*
X12209318Y-15135966D01*
X12218842Y-15155014D01*
X12218842Y-15259776D01*
X12218842Y-15155014D02*
X12228366Y-15135966D01*
X12247413Y-15126443D01*
X12275985Y-15126443D01*
X12295032Y-15135966D01*
X12304556Y-15155014D01*
X12304556Y-15259776D01*
X12695032Y-15050252D02*
X12523604Y-15307395D01*
X12952175Y-15059776D02*
X12971223Y-15059776D01*
X12990271Y-15069300D01*
X12999794Y-15078824D01*
X13009318Y-15097871D01*
X13018842Y-15135966D01*
X13018842Y-15183585D01*
X13009318Y-15221681D01*
X12999794Y-15240728D01*
X12990271Y-15250252D01*
X12971223Y-15259776D01*
X12952175Y-15259776D01*
X12933128Y-15250252D01*
X12923604Y-15240728D01*
X12914080Y-15221681D01*
X12904556Y-15183585D01*
X12904556Y-15135966D01*
X12914080Y-15097871D01*
X12923604Y-15078824D01*
X12933128Y-15069300D01*
X12952175Y-15059776D01*
X13104556Y-15240728D02*
X13114080Y-15250252D01*
X13104556Y-15259776D01*
X13095032Y-15250252D01*
X13104556Y-15240728D01*
X13104556Y-15259776D01*
X13237890Y-15059776D02*
X13256937Y-15059776D01*
X13275985Y-15069300D01*
X13285509Y-15078824D01*
X13295032Y-15097871D01*
X13304556Y-15135966D01*
X13304556Y-15183585D01*
X13295032Y-15221681D01*
X13285509Y-15240728D01*
X13275985Y-15250252D01*
X13256937Y-15259776D01*
X13237890Y-15259776D01*
X13218842Y-15250252D01*
X13209318Y-15240728D01*
X13199794Y-15221681D01*
X13190271Y-15183585D01*
X13190271Y-15135966D01*
X13199794Y-15097871D01*
X13209318Y-15078824D01*
X13218842Y-15069300D01*
X13237890Y-15059776D01*
X13495032Y-15259776D02*
X13380747Y-15259776D01*
X13437890Y-15259776D02*
X13437890Y-15059776D01*
X13418842Y-15088347D01*
X13399794Y-15107395D01*
X13380747Y-15116919D01*
X13675985Y-15059776D02*
X13580747Y-15059776D01*
X13571223Y-15155014D01*
X13580747Y-15145490D01*
X13599794Y-15135966D01*
X13647413Y-15135966D01*
X13666461Y-15145490D01*
X13675985Y-15155014D01*
X13685509Y-15174062D01*
X13685509Y-15221681D01*
X13675985Y-15240728D01*
X13666461Y-15250252D01*
X13647413Y-15259776D01*
X13599794Y-15259776D01*
X13580747Y-15250252D01*
X13571223Y-15240728D01*
X13752175Y-15059776D02*
X13885509Y-15059776D01*
X13799794Y-15259776D01*
X13952175Y-15059776D02*
X13952175Y-15097871D01*
X14028366Y-15059776D02*
X14028366Y-15097871D01*
X14323604Y-15335966D02*
X14314080Y-15326443D01*
X14295032Y-15297871D01*
X14285509Y-15278824D01*
X14275985Y-15250252D01*
X14266461Y-15202633D01*
X14266461Y-15164538D01*
X14275985Y-15116919D01*
X14285509Y-15088347D01*
X14295032Y-15069300D01*
X14314080Y-15040728D01*
X14323604Y-15031204D01*
X14390271Y-15078824D02*
X14399794Y-15069300D01*
X14418842Y-15059776D01*
X14466461Y-15059776D01*
X14485509Y-15069300D01*
X14495032Y-15078824D01*
X14504556Y-15097871D01*
X14504556Y-15116919D01*
X14495032Y-15145490D01*
X14380747Y-15259776D01*
X14504556Y-15259776D01*
X14742651Y-15259776D02*
X14742651Y-15059776D01*
X14828366Y-15259776D02*
X14828366Y-15155014D01*
X14818842Y-15135966D01*
X14799794Y-15126443D01*
X14771223Y-15126443D01*
X14752175Y-15135966D01*
X14742651Y-15145490D01*
X14952175Y-15259776D02*
X14933128Y-15250252D01*
X14923604Y-15240728D01*
X14914080Y-15221681D01*
X14914080Y-15164538D01*
X14923604Y-15145490D01*
X14933128Y-15135966D01*
X14952175Y-15126443D01*
X14980747Y-15126443D01*
X14999794Y-15135966D01*
X15009318Y-15145490D01*
X15018842Y-15164538D01*
X15018842Y-15221681D01*
X15009318Y-15240728D01*
X14999794Y-15250252D01*
X14980747Y-15259776D01*
X14952175Y-15259776D01*
X15133128Y-15259776D02*
X15114080Y-15250252D01*
X15104556Y-15231204D01*
X15104556Y-15059776D01*
X15285509Y-15250252D02*
X15266461Y-15259776D01*
X15228366Y-15259776D01*
X15209318Y-15250252D01*
X15199794Y-15231204D01*
X15199794Y-15155014D01*
X15209318Y-15135966D01*
X15228366Y-15126443D01*
X15266461Y-15126443D01*
X15285509Y-15135966D01*
X15295032Y-15155014D01*
X15295032Y-15174062D01*
X15199794Y-15193109D01*
X15371223Y-15250252D02*
X15390271Y-15259776D01*
X15428366Y-15259776D01*
X15447413Y-15250252D01*
X15456937Y-15231204D01*
X15456937Y-15221681D01*
X15447413Y-15202633D01*
X15428366Y-15193109D01*
X15399794Y-15193109D01*
X15380747Y-15183585D01*
X15371223Y-15164538D01*
X15371223Y-15155014D01*
X15380747Y-15135966D01*
X15399794Y-15126443D01*
X15428366Y-15126443D01*
X15447413Y-15135966D01*
X15523604Y-15335966D02*
X15533128Y-15326443D01*
X15552175Y-15297871D01*
X15561699Y-15278824D01*
X15571223Y-15250252D01*
X15580747Y-15202633D01*
X15580747Y-15164538D01*
X15571223Y-15116919D01*
X15561699Y-15088347D01*
X15552175Y-15069300D01*
X15533128Y-15040728D01*
X15523604Y-15031204D01*
D14*
X10726699Y-15458300D02*
X10751699Y-15433300D01*
X10726699Y-15408300D01*
X10701699Y-15433300D01*
X10726699Y-15458300D01*
D10*
X11047413Y-15323776D02*
X11066461Y-15323776D01*
X11085509Y-15333300D01*
X11095033Y-15342824D01*
X11104556Y-15361871D01*
X11114080Y-15399966D01*
X11114080Y-15447585D01*
X11104556Y-15485681D01*
X11095033Y-15504728D01*
X11085509Y-15514252D01*
X11066461Y-15523776D01*
X11047413Y-15523776D01*
X11028366Y-15514252D01*
X11018842Y-15504728D01*
X11009318Y-15485681D01*
X10999794Y-15447585D01*
X10999794Y-15399966D01*
X11009318Y-15361871D01*
X11018842Y-15342824D01*
X11028366Y-15333300D01*
X11047413Y-15323776D01*
X11199794Y-15504728D02*
X11209318Y-15514252D01*
X11199794Y-15523776D01*
X11190271Y-15514252D01*
X11199794Y-15504728D01*
X11199794Y-15523776D01*
X11390271Y-15323776D02*
X11295032Y-15323776D01*
X11285509Y-15419014D01*
X11295032Y-15409490D01*
X11314080Y-15399966D01*
X11361699Y-15399966D01*
X11380747Y-15409490D01*
X11390271Y-15419014D01*
X11399794Y-15438062D01*
X11399794Y-15485681D01*
X11390271Y-15504728D01*
X11380747Y-15514252D01*
X11361699Y-15523776D01*
X11314080Y-15523776D01*
X11295032Y-15514252D01*
X11285509Y-15504728D01*
X11523604Y-15323776D02*
X11542651Y-15323776D01*
X11561699Y-15333300D01*
X11571223Y-15342824D01*
X11580747Y-15361871D01*
X11590271Y-15399966D01*
X11590271Y-15447585D01*
X11580747Y-15485681D01*
X11571223Y-15504728D01*
X11561699Y-15514252D01*
X11542651Y-15523776D01*
X11523604Y-15523776D01*
X11504556Y-15514252D01*
X11495032Y-15504728D01*
X11485509Y-15485681D01*
X11475985Y-15447585D01*
X11475985Y-15399966D01*
X11485509Y-15361871D01*
X11495032Y-15342824D01*
X11504556Y-15333300D01*
X11523604Y-15323776D01*
X11714080Y-15323776D02*
X11733128Y-15323776D01*
X11752175Y-15333300D01*
X11761699Y-15342824D01*
X11771223Y-15361871D01*
X11780747Y-15399966D01*
X11780747Y-15447585D01*
X11771223Y-15485681D01*
X11761699Y-15504728D01*
X11752175Y-15514252D01*
X11733128Y-15523776D01*
X11714080Y-15523776D01*
X11695032Y-15514252D01*
X11685509Y-15504728D01*
X11675985Y-15485681D01*
X11666461Y-15447585D01*
X11666461Y-15399966D01*
X11675985Y-15361871D01*
X11685509Y-15342824D01*
X11695032Y-15333300D01*
X11714080Y-15323776D01*
X11866461Y-15523776D02*
X11866461Y-15390443D01*
X11866461Y-15409490D02*
X11875985Y-15399966D01*
X11895032Y-15390443D01*
X11923604Y-15390443D01*
X11942651Y-15399966D01*
X11952175Y-15419014D01*
X11952175Y-15523776D01*
X11952175Y-15419014D02*
X11961699Y-15399966D01*
X11980747Y-15390443D01*
X12009318Y-15390443D01*
X12028366Y-15399966D01*
X12037890Y-15419014D01*
X12037890Y-15523776D01*
X12133128Y-15523776D02*
X12133128Y-15390443D01*
X12133128Y-15409490D02*
X12142651Y-15399966D01*
X12161699Y-15390443D01*
X12190271Y-15390443D01*
X12209318Y-15399966D01*
X12218842Y-15419014D01*
X12218842Y-15523776D01*
X12218842Y-15419014D02*
X12228366Y-15399966D01*
X12247413Y-15390443D01*
X12275985Y-15390443D01*
X12295032Y-15399966D01*
X12304556Y-15419014D01*
X12304556Y-15523776D01*
X12695032Y-15314252D02*
X12523604Y-15571395D01*
X12952175Y-15323776D02*
X12971223Y-15323776D01*
X12990271Y-15333300D01*
X12999794Y-15342824D01*
X13009318Y-15361871D01*
X13018842Y-15399966D01*
X13018842Y-15447585D01*
X13009318Y-15485681D01*
X12999794Y-15504728D01*
X12990271Y-15514252D01*
X12971223Y-15523776D01*
X12952175Y-15523776D01*
X12933128Y-15514252D01*
X12923604Y-15504728D01*
X12914080Y-15485681D01*
X12904556Y-15447585D01*
X12904556Y-15399966D01*
X12914080Y-15361871D01*
X12923604Y-15342824D01*
X12933128Y-15333300D01*
X12952175Y-15323776D01*
X13104556Y-15504728D02*
X13114080Y-15514252D01*
X13104556Y-15523776D01*
X13095032Y-15514252D01*
X13104556Y-15504728D01*
X13104556Y-15523776D01*
X13237890Y-15323776D02*
X13256937Y-15323776D01*
X13275985Y-15333300D01*
X13285509Y-15342824D01*
X13295032Y-15361871D01*
X13304556Y-15399966D01*
X13304556Y-15447585D01*
X13295032Y-15485681D01*
X13285509Y-15504728D01*
X13275985Y-15514252D01*
X13256937Y-15523776D01*
X13237890Y-15523776D01*
X13218842Y-15514252D01*
X13209318Y-15504728D01*
X13199794Y-15485681D01*
X13190271Y-15447585D01*
X13190271Y-15399966D01*
X13199794Y-15361871D01*
X13209318Y-15342824D01*
X13218842Y-15333300D01*
X13237890Y-15323776D01*
X13495032Y-15523776D02*
X13380747Y-15523776D01*
X13437890Y-15523776D02*
X13437890Y-15323776D01*
X13418842Y-15352347D01*
X13399794Y-15371395D01*
X13380747Y-15380919D01*
X13590271Y-15523776D02*
X13628366Y-15523776D01*
X13647413Y-15514252D01*
X13656937Y-15504728D01*
X13675985Y-15476157D01*
X13685509Y-15438062D01*
X13685509Y-15361871D01*
X13675985Y-15342824D01*
X13666461Y-15333300D01*
X13647413Y-15323776D01*
X13609318Y-15323776D01*
X13590271Y-15333300D01*
X13580747Y-15342824D01*
X13571223Y-15361871D01*
X13571223Y-15409490D01*
X13580747Y-15428538D01*
X13590271Y-15438062D01*
X13609318Y-15447585D01*
X13647413Y-15447585D01*
X13666461Y-15438062D01*
X13675985Y-15428538D01*
X13685509Y-15409490D01*
X13752175Y-15323776D02*
X13885509Y-15323776D01*
X13799794Y-15523776D01*
X13952175Y-15323776D02*
X13952175Y-15361871D01*
X14028366Y-15323776D02*
X14028366Y-15361871D01*
X14323604Y-15599966D02*
X14314080Y-15590443D01*
X14295032Y-15561871D01*
X14285509Y-15542824D01*
X14275985Y-15514252D01*
X14266461Y-15466633D01*
X14266461Y-15428538D01*
X14275985Y-15380919D01*
X14285509Y-15352347D01*
X14295032Y-15333300D01*
X14314080Y-15304728D01*
X14323604Y-15295204D01*
X14485509Y-15390443D02*
X14485509Y-15523776D01*
X14437890Y-15314252D02*
X14390271Y-15457109D01*
X14514080Y-15457109D01*
X14742651Y-15523776D02*
X14742651Y-15323776D01*
X14828366Y-15523776D02*
X14828366Y-15419014D01*
X14818842Y-15399966D01*
X14799794Y-15390443D01*
X14771223Y-15390443D01*
X14752175Y-15399966D01*
X14742651Y-15409490D01*
X14952175Y-15523776D02*
X14933128Y-15514252D01*
X14923604Y-15504728D01*
X14914080Y-15485681D01*
X14914080Y-15428538D01*
X14923604Y-15409490D01*
X14933128Y-15399966D01*
X14952175Y-15390443D01*
X14980747Y-15390443D01*
X14999794Y-15399966D01*
X15009318Y-15409490D01*
X15018842Y-15428538D01*
X15018842Y-15485681D01*
X15009318Y-15504728D01*
X14999794Y-15514252D01*
X14980747Y-15523776D01*
X14952175Y-15523776D01*
X15133128Y-15523776D02*
X15114080Y-15514252D01*
X15104556Y-15495204D01*
X15104556Y-15323776D01*
X15285509Y-15514252D02*
X15266461Y-15523776D01*
X15228366Y-15523776D01*
X15209318Y-15514252D01*
X15199794Y-15495204D01*
X15199794Y-15419014D01*
X15209318Y-15399966D01*
X15228366Y-15390443D01*
X15266461Y-15390443D01*
X15285509Y-15399966D01*
X15295032Y-15419014D01*
X15295032Y-15438062D01*
X15199794Y-15457109D01*
X15371223Y-15514252D02*
X15390271Y-15523776D01*
X15428366Y-15523776D01*
X15447413Y-15514252D01*
X15456937Y-15495204D01*
X15456937Y-15485681D01*
X15447413Y-15466633D01*
X15428366Y-15457109D01*
X15399794Y-15457109D01*
X15380747Y-15447585D01*
X15371223Y-15428538D01*
X15371223Y-15419014D01*
X15380747Y-15399966D01*
X15399794Y-15390443D01*
X15428366Y-15390443D01*
X15447413Y-15399966D01*
X15523604Y-15599966D02*
X15533128Y-15590443D01*
X15552175Y-15561871D01*
X15561699Y-15542824D01*
X15571223Y-15514252D01*
X15580747Y-15466633D01*
X15580747Y-15428538D01*
X15571223Y-15380919D01*
X15561699Y-15352347D01*
X15552175Y-15333300D01*
X15533128Y-15304728D01*
X15523604Y-15295204D01*
D15*
X10650099Y-15646500D02*
X10751699Y-15748100D01*
X10751699Y-15646500D02*
X10650099Y-15748100D01*
X10751699Y-15697300D02*
G75*
G03*
X10751699Y-15697300I-50800J0D01*
G01*
D10*
X11114080Y-15787776D02*
X10999794Y-15787776D01*
X11056937Y-15787776D02*
X11056937Y-15587776D01*
X11037890Y-15616347D01*
X11018842Y-15635395D01*
X10999794Y-15644919D01*
X11199794Y-15768728D02*
X11209318Y-15778252D01*
X11199794Y-15787776D01*
X11190271Y-15778252D01*
X11199794Y-15768728D01*
X11199794Y-15787776D01*
X11333128Y-15587776D02*
X11352175Y-15587776D01*
X11371223Y-15597300D01*
X11380747Y-15606824D01*
X11390271Y-15625871D01*
X11399794Y-15663966D01*
X11399794Y-15711585D01*
X11390271Y-15749681D01*
X11380747Y-15768728D01*
X11371223Y-15778252D01*
X11352175Y-15787776D01*
X11333128Y-15787776D01*
X11314080Y-15778252D01*
X11304556Y-15768728D01*
X11295032Y-15749681D01*
X11285509Y-15711585D01*
X11285509Y-15663966D01*
X11295032Y-15625871D01*
X11304556Y-15606824D01*
X11314080Y-15597300D01*
X11333128Y-15587776D01*
X11590271Y-15787776D02*
X11475985Y-15787776D01*
X11533128Y-15787776D02*
X11533128Y-15587776D01*
X11514080Y-15616347D01*
X11495032Y-15635395D01*
X11475985Y-15644919D01*
X11761699Y-15587776D02*
X11723604Y-15587776D01*
X11704556Y-15597300D01*
X11695032Y-15606824D01*
X11675985Y-15635395D01*
X11666461Y-15673490D01*
X11666461Y-15749681D01*
X11675985Y-15768728D01*
X11685509Y-15778252D01*
X11704556Y-15787776D01*
X11742651Y-15787776D01*
X11761699Y-15778252D01*
X11771223Y-15768728D01*
X11780747Y-15749681D01*
X11780747Y-15702062D01*
X11771223Y-15683014D01*
X11761699Y-15673490D01*
X11742651Y-15663966D01*
X11704556Y-15663966D01*
X11685509Y-15673490D01*
X11675985Y-15683014D01*
X11666461Y-15702062D01*
X11866461Y-15787776D02*
X11866461Y-15654443D01*
X11866461Y-15673490D02*
X11875985Y-15663966D01*
X11895032Y-15654443D01*
X11923604Y-15654443D01*
X11942651Y-15663966D01*
X11952175Y-15683014D01*
X11952175Y-15787776D01*
X11952175Y-15683014D02*
X11961699Y-15663966D01*
X11980747Y-15654443D01*
X12009318Y-15654443D01*
X12028366Y-15663966D01*
X12037890Y-15683014D01*
X12037890Y-15787776D01*
X12133128Y-15787776D02*
X12133128Y-15654443D01*
X12133128Y-15673490D02*
X12142651Y-15663966D01*
X12161699Y-15654443D01*
X12190271Y-15654443D01*
X12209318Y-15663966D01*
X12218842Y-15683014D01*
X12218842Y-15787776D01*
X12218842Y-15683014D02*
X12228366Y-15663966D01*
X12247413Y-15654443D01*
X12275985Y-15654443D01*
X12295032Y-15663966D01*
X12304556Y-15683014D01*
X12304556Y-15787776D01*
X12695032Y-15578252D02*
X12523604Y-15835395D01*
X12952175Y-15587776D02*
X12971223Y-15587776D01*
X12990271Y-15597300D01*
X12999794Y-15606824D01*
X13009318Y-15625871D01*
X13018842Y-15663966D01*
X13018842Y-15711585D01*
X13009318Y-15749681D01*
X12999794Y-15768728D01*
X12990271Y-15778252D01*
X12971223Y-15787776D01*
X12952175Y-15787776D01*
X12933128Y-15778252D01*
X12923604Y-15768728D01*
X12914080Y-15749681D01*
X12904556Y-15711585D01*
X12904556Y-15663966D01*
X12914080Y-15625871D01*
X12923604Y-15606824D01*
X12933128Y-15597300D01*
X12952175Y-15587776D01*
X13104556Y-15768728D02*
X13114080Y-15778252D01*
X13104556Y-15787776D01*
X13095032Y-15778252D01*
X13104556Y-15768728D01*
X13104556Y-15787776D01*
X13237890Y-15587776D02*
X13256937Y-15587776D01*
X13275985Y-15597300D01*
X13285509Y-15606824D01*
X13295032Y-15625871D01*
X13304556Y-15663966D01*
X13304556Y-15711585D01*
X13295032Y-15749681D01*
X13285509Y-15768728D01*
X13275985Y-15778252D01*
X13256937Y-15787776D01*
X13237890Y-15787776D01*
X13218842Y-15778252D01*
X13209318Y-15768728D01*
X13199794Y-15749681D01*
X13190271Y-15711585D01*
X13190271Y-15663966D01*
X13199794Y-15625871D01*
X13209318Y-15606824D01*
X13218842Y-15597300D01*
X13237890Y-15587776D01*
X13475985Y-15654443D02*
X13475985Y-15787776D01*
X13428366Y-15578252D02*
X13380747Y-15721109D01*
X13504556Y-15721109D01*
X13618842Y-15587776D02*
X13637890Y-15587776D01*
X13656937Y-15597300D01*
X13666461Y-15606824D01*
X13675985Y-15625871D01*
X13685509Y-15663966D01*
X13685509Y-15711585D01*
X13675985Y-15749681D01*
X13666461Y-15768728D01*
X13656937Y-15778252D01*
X13637890Y-15787776D01*
X13618842Y-15787776D01*
X13599794Y-15778252D01*
X13590271Y-15768728D01*
X13580747Y-15749681D01*
X13571223Y-15711585D01*
X13571223Y-15663966D01*
X13580747Y-15625871D01*
X13590271Y-15606824D01*
X13599794Y-15597300D01*
X13618842Y-15587776D01*
X13809318Y-15587776D02*
X13828366Y-15587776D01*
X13847413Y-15597300D01*
X13856937Y-15606824D01*
X13866461Y-15625871D01*
X13875985Y-15663966D01*
X13875985Y-15711585D01*
X13866461Y-15749681D01*
X13856937Y-15768728D01*
X13847413Y-15778252D01*
X13828366Y-15787776D01*
X13809318Y-15787776D01*
X13790271Y-15778252D01*
X13780747Y-15768728D01*
X13771223Y-15749681D01*
X13761699Y-15711585D01*
X13761699Y-15663966D01*
X13771223Y-15625871D01*
X13780747Y-15606824D01*
X13790271Y-15597300D01*
X13809318Y-15587776D01*
X13952175Y-15587776D02*
X13952175Y-15625871D01*
X14028366Y-15587776D02*
X14028366Y-15625871D01*
X14323604Y-15863966D02*
X14314080Y-15854443D01*
X14295032Y-15825871D01*
X14285509Y-15806824D01*
X14275985Y-15778252D01*
X14266461Y-15730633D01*
X14266461Y-15692538D01*
X14275985Y-15644919D01*
X14285509Y-15616347D01*
X14295032Y-15597300D01*
X14314080Y-15568728D01*
X14323604Y-15559204D01*
X14504556Y-15787776D02*
X14390271Y-15787776D01*
X14447413Y-15787776D02*
X14447413Y-15587776D01*
X14428366Y-15616347D01*
X14409318Y-15635395D01*
X14390271Y-15644919D01*
X14628366Y-15587776D02*
X14647413Y-15587776D01*
X14666461Y-15597300D01*
X14675985Y-15606824D01*
X14685509Y-15625871D01*
X14695032Y-15663966D01*
X14695032Y-15711585D01*
X14685509Y-15749681D01*
X14675985Y-15768728D01*
X14666461Y-15778252D01*
X14647413Y-15787776D01*
X14628366Y-15787776D01*
X14609318Y-15778252D01*
X14599794Y-15768728D01*
X14590271Y-15749681D01*
X14580747Y-15711585D01*
X14580747Y-15663966D01*
X14590271Y-15625871D01*
X14599794Y-15606824D01*
X14609318Y-15597300D01*
X14628366Y-15587776D01*
X14866461Y-15654443D02*
X14866461Y-15787776D01*
X14818842Y-15578252D02*
X14771223Y-15721109D01*
X14895032Y-15721109D01*
X15123604Y-15787776D02*
X15123604Y-15587776D01*
X15209318Y-15787776D02*
X15209318Y-15683014D01*
X15199794Y-15663966D01*
X15180747Y-15654443D01*
X15152175Y-15654443D01*
X15133128Y-15663966D01*
X15123604Y-15673490D01*
X15333128Y-15787776D02*
X15314080Y-15778252D01*
X15304556Y-15768728D01*
X15295032Y-15749681D01*
X15295032Y-15692538D01*
X15304556Y-15673490D01*
X15314080Y-15663966D01*
X15333128Y-15654443D01*
X15361699Y-15654443D01*
X15380747Y-15663966D01*
X15390271Y-15673490D01*
X15399794Y-15692538D01*
X15399794Y-15749681D01*
X15390271Y-15768728D01*
X15380747Y-15778252D01*
X15361699Y-15787776D01*
X15333128Y-15787776D01*
X15514080Y-15787776D02*
X15495032Y-15778252D01*
X15485509Y-15759204D01*
X15485509Y-15587776D01*
X15666461Y-15778252D02*
X15647413Y-15787776D01*
X15609318Y-15787776D01*
X15590271Y-15778252D01*
X15580747Y-15759204D01*
X15580747Y-15683014D01*
X15590271Y-15663966D01*
X15609318Y-15654443D01*
X15647413Y-15654443D01*
X15666461Y-15663966D01*
X15675985Y-15683014D01*
X15675985Y-15702062D01*
X15580747Y-15721109D01*
X15752175Y-15778252D02*
X15771223Y-15787776D01*
X15809318Y-15787776D01*
X15828366Y-15778252D01*
X15837890Y-15759204D01*
X15837890Y-15749681D01*
X15828366Y-15730633D01*
X15809318Y-15721109D01*
X15780747Y-15721109D01*
X15761699Y-15711585D01*
X15752175Y-15692538D01*
X15752175Y-15683014D01*
X15761699Y-15663966D01*
X15780747Y-15654443D01*
X15809318Y-15654443D01*
X15828366Y-15663966D01*
X15904556Y-15863966D02*
X15914080Y-15854443D01*
X15933128Y-15825871D01*
X15942651Y-15806824D01*
X15952175Y-15778252D01*
X15961699Y-15730633D01*
X15961699Y-15692538D01*
X15952175Y-15644919D01*
X15942651Y-15616347D01*
X15933128Y-15597300D01*
X15914080Y-15568728D01*
X15904556Y-15559204D01*
X10551699Y-15861300D02*
X10751699Y-16061300D01*
X10751699Y-15861300D02*
X10551699Y-16061300D01*
X10651699Y-15861300D02*
X10651699Y-16061300D01*
X10551699Y-15961300D02*
X10751699Y-15961300D01*
X10990271Y-15851776D02*
X11114080Y-15851776D01*
X11047413Y-15927966D01*
X11075985Y-15927966D01*
X11095033Y-15937490D01*
X11104556Y-15947014D01*
X11114080Y-15966062D01*
X11114080Y-16013681D01*
X11104556Y-16032728D01*
X11095033Y-16042252D01*
X11075985Y-16051776D01*
X11018842Y-16051776D01*
X10999794Y-16042252D01*
X10990271Y-16032728D01*
X11199794Y-16032728D02*
X11209318Y-16042252D01*
X11199794Y-16051776D01*
X11190271Y-16042252D01*
X11199794Y-16032728D01*
X11199794Y-16051776D01*
X11285509Y-15870824D02*
X11295032Y-15861300D01*
X11314080Y-15851776D01*
X11361699Y-15851776D01*
X11380747Y-15861300D01*
X11390271Y-15870824D01*
X11399794Y-15889871D01*
X11399794Y-15908919D01*
X11390271Y-15937490D01*
X11275985Y-16051776D01*
X11399794Y-16051776D01*
X11523604Y-15851776D02*
X11542651Y-15851776D01*
X11561699Y-15861300D01*
X11571223Y-15870824D01*
X11580747Y-15889871D01*
X11590271Y-15927966D01*
X11590271Y-15975585D01*
X11580747Y-16013681D01*
X11571223Y-16032728D01*
X11561699Y-16042252D01*
X11542651Y-16051776D01*
X11523604Y-16051776D01*
X11504556Y-16042252D01*
X11495032Y-16032728D01*
X11485509Y-16013681D01*
X11475985Y-15975585D01*
X11475985Y-15927966D01*
X11485509Y-15889871D01*
X11495032Y-15870824D01*
X11504556Y-15861300D01*
X11523604Y-15851776D01*
X11714080Y-15851776D02*
X11733128Y-15851776D01*
X11752175Y-15861300D01*
X11761699Y-15870824D01*
X11771223Y-15889871D01*
X11780747Y-15927966D01*
X11780747Y-15975585D01*
X11771223Y-16013681D01*
X11761699Y-16032728D01*
X11752175Y-16042252D01*
X11733128Y-16051776D01*
X11714080Y-16051776D01*
X11695032Y-16042252D01*
X11685509Y-16032728D01*
X11675985Y-16013681D01*
X11666461Y-15975585D01*
X11666461Y-15927966D01*
X11675985Y-15889871D01*
X11685509Y-15870824D01*
X11695032Y-15861300D01*
X11714080Y-15851776D01*
X11866461Y-16051776D02*
X11866461Y-15918443D01*
X11866461Y-15937490D02*
X11875985Y-15927966D01*
X11895032Y-15918443D01*
X11923604Y-15918443D01*
X11942651Y-15927966D01*
X11952175Y-15947014D01*
X11952175Y-16051776D01*
X11952175Y-15947014D02*
X11961699Y-15927966D01*
X11980747Y-15918443D01*
X12009318Y-15918443D01*
X12028366Y-15927966D01*
X12037890Y-15947014D01*
X12037890Y-16051776D01*
X12133128Y-16051776D02*
X12133128Y-15918443D01*
X12133128Y-15937490D02*
X12142651Y-15927966D01*
X12161699Y-15918443D01*
X12190271Y-15918443D01*
X12209318Y-15927966D01*
X12218842Y-15947014D01*
X12218842Y-16051776D01*
X12218842Y-15947014D02*
X12228366Y-15927966D01*
X12247413Y-15918443D01*
X12275985Y-15918443D01*
X12295032Y-15927966D01*
X12304556Y-15947014D01*
X12304556Y-16051776D01*
X12695032Y-15842252D02*
X12523604Y-16099395D01*
X12952175Y-15851776D02*
X12971223Y-15851776D01*
X12990271Y-15861300D01*
X12999794Y-15870824D01*
X13009318Y-15889871D01*
X13018842Y-15927966D01*
X13018842Y-15975585D01*
X13009318Y-16013681D01*
X12999794Y-16032728D01*
X12990271Y-16042252D01*
X12971223Y-16051776D01*
X12952175Y-16051776D01*
X12933128Y-16042252D01*
X12923604Y-16032728D01*
X12914080Y-16013681D01*
X12904556Y-15975585D01*
X12904556Y-15927966D01*
X12914080Y-15889871D01*
X12923604Y-15870824D01*
X12933128Y-15861300D01*
X12952175Y-15851776D01*
X13104556Y-16032728D02*
X13114080Y-16042252D01*
X13104556Y-16051776D01*
X13095032Y-16042252D01*
X13104556Y-16032728D01*
X13104556Y-16051776D01*
X13304556Y-16051776D02*
X13190271Y-16051776D01*
X13247413Y-16051776D02*
X13247413Y-15851776D01*
X13228366Y-15880347D01*
X13209318Y-15899395D01*
X13190271Y-15908919D01*
X13380747Y-15870824D02*
X13390271Y-15861300D01*
X13409318Y-15851776D01*
X13456937Y-15851776D01*
X13475985Y-15861300D01*
X13485509Y-15870824D01*
X13495032Y-15889871D01*
X13495032Y-15908919D01*
X13485509Y-15937490D01*
X13371223Y-16051776D01*
X13495032Y-16051776D01*
X13666461Y-15851776D02*
X13628366Y-15851776D01*
X13609318Y-15861300D01*
X13599794Y-15870824D01*
X13580747Y-15899395D01*
X13571223Y-15937490D01*
X13571223Y-16013681D01*
X13580747Y-16032728D01*
X13590271Y-16042252D01*
X13609318Y-16051776D01*
X13647413Y-16051776D01*
X13666461Y-16042252D01*
X13675985Y-16032728D01*
X13685509Y-16013681D01*
X13685509Y-15966062D01*
X13675985Y-15947014D01*
X13666461Y-15937490D01*
X13647413Y-15927966D01*
X13609318Y-15927966D01*
X13590271Y-15937490D01*
X13580747Y-15947014D01*
X13571223Y-15966062D01*
X13809318Y-15851776D02*
X13828366Y-15851776D01*
X13847413Y-15861300D01*
X13856937Y-15870824D01*
X13866461Y-15889871D01*
X13875985Y-15927966D01*
X13875985Y-15975585D01*
X13866461Y-16013681D01*
X13856937Y-16032728D01*
X13847413Y-16042252D01*
X13828366Y-16051776D01*
X13809318Y-16051776D01*
X13790271Y-16042252D01*
X13780747Y-16032728D01*
X13771223Y-16013681D01*
X13761699Y-15975585D01*
X13761699Y-15927966D01*
X13771223Y-15889871D01*
X13780747Y-15870824D01*
X13790271Y-15861300D01*
X13809318Y-15851776D01*
X13952175Y-15851776D02*
X13952175Y-15889871D01*
X14028366Y-15851776D02*
X14028366Y-15889871D01*
X14323604Y-16127966D02*
X14314080Y-16118443D01*
X14295032Y-16089871D01*
X14285509Y-16070824D01*
X14275985Y-16042252D01*
X14266461Y-15994633D01*
X14266461Y-15956538D01*
X14275985Y-15908919D01*
X14285509Y-15880347D01*
X14295032Y-15861300D01*
X14314080Y-15832728D01*
X14323604Y-15823204D01*
X14485509Y-15918443D02*
X14485509Y-16051776D01*
X14437890Y-15842252D02*
X14390271Y-15985109D01*
X14514080Y-15985109D01*
X14742651Y-16051776D02*
X14742651Y-15851776D01*
X14828366Y-16051776D02*
X14828366Y-15947014D01*
X14818842Y-15927966D01*
X14799794Y-15918443D01*
X14771223Y-15918443D01*
X14752175Y-15927966D01*
X14742651Y-15937490D01*
X14952175Y-16051776D02*
X14933128Y-16042252D01*
X14923604Y-16032728D01*
X14914080Y-16013681D01*
X14914080Y-15956538D01*
X14923604Y-15937490D01*
X14933128Y-15927966D01*
X14952175Y-15918443D01*
X14980747Y-15918443D01*
X14999794Y-15927966D01*
X15009318Y-15937490D01*
X15018842Y-15956538D01*
X15018842Y-16013681D01*
X15009318Y-16032728D01*
X14999794Y-16042252D01*
X14980747Y-16051776D01*
X14952175Y-16051776D01*
X15133128Y-16051776D02*
X15114080Y-16042252D01*
X15104556Y-16023204D01*
X15104556Y-15851776D01*
X15285509Y-16042252D02*
X15266461Y-16051776D01*
X15228366Y-16051776D01*
X15209318Y-16042252D01*
X15199794Y-16023204D01*
X15199794Y-15947014D01*
X15209318Y-15927966D01*
X15228366Y-15918443D01*
X15266461Y-15918443D01*
X15285509Y-15927966D01*
X15295032Y-15947014D01*
X15295032Y-15966062D01*
X15199794Y-15985109D01*
X15371223Y-16042252D02*
X15390271Y-16051776D01*
X15428366Y-16051776D01*
X15447413Y-16042252D01*
X15456937Y-16023204D01*
X15456937Y-16013681D01*
X15447413Y-15994633D01*
X15428366Y-15985109D01*
X15399794Y-15985109D01*
X15380747Y-15975585D01*
X15371223Y-15956538D01*
X15371223Y-15947014D01*
X15380747Y-15927966D01*
X15399794Y-15918443D01*
X15428366Y-15918443D01*
X15447413Y-15927966D01*
X15523604Y-16127966D02*
X15533128Y-16118443D01*
X15552175Y-16089871D01*
X15561699Y-16070824D01*
X15571223Y-16042252D01*
X15580747Y-15994633D01*
X15580747Y-15956538D01*
X15571223Y-15908919D01*
X15561699Y-15880347D01*
X15552175Y-15861300D01*
X15533128Y-15832728D01*
X15523604Y-15823204D01*
M02*
