%TF.GenerationSoftware,KiCad,Pcbnew,(6.0.7)*%
%TF.CreationDate,2022-08-22T02:23:39+08:00*%
%TF.ProjectId,cubesat_obc,63756265-7361-4745-9f6f-62632e6b6963,rev?*%
%TF.SameCoordinates,Original*%
%TF.FileFunction,Paste,Top*%
%TF.FilePolarity,Positive*%
%FSLAX46Y46*%
G04 Gerber Fmt 4.6, Leading zero omitted, Abs format (unit mm)*
G04 Created by KiCad (PCBNEW (6.0.7)) date 2022-08-22 02:23:39*
%MOMM*%
%LPD*%
G01*
G04 APERTURE LIST*
G04 Aperture macros list*
%AMRoundRect*
0 Rectangle with rounded corners*
0 $1 Rounding radius*
0 $2 $3 $4 $5 $6 $7 $8 $9 X,Y pos of 4 corners*
0 Add a 4 corners polygon primitive as box body*
4,1,4,$2,$3,$4,$5,$6,$7,$8,$9,$2,$3,0*
0 Add four circle primitives for the rounded corners*
1,1,$1+$1,$2,$3*
1,1,$1+$1,$4,$5*
1,1,$1+$1,$6,$7*
1,1,$1+$1,$8,$9*
0 Add four rect primitives between the rounded corners*
20,1,$1+$1,$2,$3,$4,$5,0*
20,1,$1+$1,$4,$5,$6,$7,0*
20,1,$1+$1,$6,$7,$8,$9,0*
20,1,$1+$1,$8,$9,$2,$3,0*%
%AMFreePoly0*
4,1,64,-0.365195,1.803750,-0.360058,1.804492,-0.348113,1.798200,-0.318515,1.788583,-0.311483,1.778904,-0.305378,1.775688,-0.297448,1.759587,-0.282188,1.738583,-0.282188,1.728602,-0.278071,1.720243,-0.279934,1.709432,-0.226712,1.449367,-0.140277,1.187348,-0.023902,0.937185,0.120828,0.702285,0.291941,0.485847,0.487107,0.290821,0.703666,0.119862,0.938669,-0.024700,1.188915,-0.140897,
1.450995,-0.227145,1.711100,-0.280182,1.721909,-0.278311,1.729795,-0.282188,1.738583,-0.282188,1.756974,-0.295550,1.777372,-0.305578,1.781473,-0.313349,1.788583,-0.318515,1.795607,-0.340135,1.806216,-0.360238,1.804966,-0.368937,1.807681,-0.377294,1.807681,-1.284040,1.801227,-1.303903,1.799051,-1.324681,1.791890,-1.332639,1.788583,-1.342819,1.771685,-1.355096,1.757713,-1.370625,
1.747243,-1.372854,1.738583,-1.379146,1.717694,-1.379146,1.697264,-1.383496,1.365298,-1.332334,1.039856,-1.249225,0.724006,-1.134952,0.420724,-0.990592,0.132870,-0.817505,-0.136846,-0.617323,-0.385881,-0.391932,-0.611887,-0.143455,-0.812736,0.125764,-0.986534,0.413190,-1.131644,0.716114,-1.246697,1.031680,-1.330611,1.356915,-1.382594,1.688754,-1.379146,1.705146,-1.379146,1.738583,
-1.342819,1.788583,-1.284040,1.807681,-0.377294,1.807681,-0.365195,1.803750,-0.365195,1.803750,$1*%
%AMFreePoly1*
4,1,65,1.303903,1.801227,1.324681,1.799051,1.332639,1.791890,1.342819,1.788583,1.355096,1.771685,1.370625,1.757713,1.372854,1.747243,1.379146,1.738583,1.379146,1.717694,1.383496,1.697264,1.332765,1.367411,1.250491,1.043979,1.137440,0.729979,0.994663,0.428330,0.823489,0.141841,0.625511,-0.126825,0.402569,-0.375168,0.156739,-0.600876,-0.109693,-0.801851,-0.394248,-0.976222,
-0.694279,-1.122368,-1.006994,-1.238928,-1.329484,-1.324818,-1.658748,-1.379240,-1.672969,-1.376378,-1.676779,-1.379146,-1.738583,-1.379146,-1.788583,-1.342819,-1.807681,-1.284040,-1.807681,-0.377294,-1.803751,-0.365199,-1.804494,-0.360058,-1.798197,-0.348103,-1.788583,-0.318515,-1.778907,-0.311485,-1.775690,-0.305378,-1.759582,-0.297445,-1.738583,-0.282188,-1.728604,-0.282188,-1.720245,-0.278071,
-1.709434,-0.279934,-1.449368,-0.226712,-1.187350,-0.140277,-0.937186,-0.023902,-0.702286,0.120828,-0.485848,0.291941,-0.290822,0.487106,-0.119863,0.703666,0.024699,0.938669,0.140896,1.188915,0.227145,1.450995,0.280182,1.711100,0.278311,1.721909,0.282188,1.729795,0.282188,1.738583,0.295550,1.756974,0.305578,1.777372,0.313349,1.781473,0.318515,1.788583,0.340135,1.795607,
0.360238,1.806216,0.368937,1.804966,0.377294,1.807681,1.284040,1.807681,1.303903,1.801227,1.303903,1.801227,$1*%
%AMFreePoly2*
4,1,64,1.677892,1.379146,1.738583,1.379146,1.788583,1.342819,1.807681,1.284040,1.807681,0.377294,1.803750,0.365195,1.804492,0.360058,1.798200,0.348113,1.788583,0.318515,1.778904,0.311483,1.775688,0.305378,1.759587,0.297448,1.738583,0.282188,1.728602,0.282188,1.720243,0.278071,1.709432,0.279934,1.449367,0.226712,1.187348,0.140277,0.937185,0.023902,0.702285,-0.120828,
0.485847,-0.291941,0.290821,-0.487107,0.119862,-0.703666,-0.024700,-0.938669,-0.140897,-1.188915,-0.227145,-1.450995,-0.280182,-1.711100,-0.278311,-1.721909,-0.282188,-1.729795,-0.282188,-1.738583,-0.295550,-1.756974,-0.305578,-1.777372,-0.313349,-1.781473,-0.318515,-1.788583,-0.340135,-1.795607,-0.360238,-1.806216,-0.368937,-1.804966,-0.377294,-1.807681,-1.284040,-1.807681,-1.303903,-1.801227,
-1.324681,-1.799051,-1.332639,-1.791890,-1.342819,-1.788583,-1.355096,-1.771685,-1.370625,-1.757713,-1.372854,-1.747243,-1.379146,-1.738583,-1.379146,-1.717694,-1.383496,-1.697263,-1.332593,-1.366566,-1.249987,-1.042331,-1.136448,-0.727591,-0.993040,-0.425289,-0.821103,-0.138252,-0.622245,0.130835,-0.398325,0.379456,-0.151438,0.605286,0.116107,0.806214,0.401810,0.980359,0.702997,1.126094,
1.016852,1.242056,1.340441,1.327161,1.670737,1.380612,1.677892,1.379146,1.677892,1.379146,$1*%
%AMFreePoly3*
4,1,65,-1.367411,1.332765,-1.043979,1.250491,-0.729979,1.137440,-0.428330,0.994663,-0.141841,0.823489,0.126825,0.625511,0.375168,0.402569,0.600876,0.156739,0.801851,-0.109693,0.976222,-0.394248,1.122368,-0.694279,1.238928,-1.006994,1.324818,-1.329484,1.379240,-1.658748,1.376378,-1.672969,1.379146,-1.676779,1.379146,-1.738583,1.342819,-1.788583,1.284040,-1.807681,0.377294,-1.807681,
0.365199,-1.803751,0.360058,-1.804494,0.348103,-1.798197,0.318515,-1.788583,0.311485,-1.778907,0.305378,-1.775690,0.297445,-1.759582,0.282188,-1.738583,0.282188,-1.728604,0.278071,-1.720245,0.279934,-1.709434,0.226712,-1.449368,0.140277,-1.187350,0.023902,-0.937186,-0.120828,-0.702286,-0.291941,-0.485848,-0.487106,-0.290822,-0.703666,-0.119863,-0.938669,0.024699,-1.188915,0.140896,
-1.450995,0.227145,-1.711100,0.280182,-1.721909,0.278311,-1.729795,0.282188,-1.738583,0.282188,-1.756974,0.295550,-1.777372,0.305578,-1.781473,0.313349,-1.788583,0.318515,-1.795607,0.340135,-1.806216,0.360238,-1.804966,0.368937,-1.807681,0.377294,-1.807681,1.284040,-1.801227,1.303903,-1.799051,1.324681,-1.791890,1.332639,-1.788583,1.342819,-1.771685,1.355096,-1.757713,1.370625,
-1.747243,1.372854,-1.738583,1.379146,-1.717694,1.379146,-1.697264,1.383496,-1.367411,1.332765,-1.367411,1.332765,$1*%
G04 Aperture macros list end*
%ADD10R,1.260000X0.610000*%
%ADD11RoundRect,0.135000X-0.135000X-0.185000X0.135000X-0.185000X0.135000X0.185000X-0.135000X0.185000X0*%
%ADD12RoundRect,0.200000X0.200000X0.275000X-0.200000X0.275000X-0.200000X-0.275000X0.200000X-0.275000X0*%
%ADD13RoundRect,0.135000X0.185000X-0.135000X0.185000X0.135000X-0.185000X0.135000X-0.185000X-0.135000X0*%
%ADD14RoundRect,0.135000X0.135000X0.185000X-0.135000X0.185000X-0.135000X-0.185000X0.135000X-0.185000X0*%
%ADD15R,1.400000X0.300000*%
%ADD16FreePoly0,0.000000*%
%ADD17FreePoly1,0.000000*%
%ADD18FreePoly2,0.000000*%
%ADD19FreePoly3,0.000000*%
%ADD20RoundRect,0.200000X0.600000X-0.200000X0.600000X0.200000X-0.600000X0.200000X-0.600000X-0.200000X0*%
%ADD21RoundRect,0.250001X1.249999X-0.799999X1.249999X0.799999X-1.249999X0.799999X-1.249999X-0.799999X0*%
%ADD22RoundRect,0.140000X0.170000X-0.140000X0.170000X0.140000X-0.170000X0.140000X-0.170000X-0.140000X0*%
%ADD23RoundRect,0.140000X-0.140000X-0.170000X0.140000X-0.170000X0.140000X0.170000X-0.140000X0.170000X0*%
%ADD24RoundRect,0.225000X-0.225000X-0.250000X0.225000X-0.250000X0.225000X0.250000X-0.225000X0.250000X0*%
%ADD25R,0.450000X0.600000*%
%ADD26R,0.580000X0.350000*%
%ADD27R,0.350000X0.580000*%
%ADD28R,0.450000X0.300000*%
%ADD29R,0.300000X0.450000*%
%ADD30RoundRect,0.140000X-0.170000X0.140000X-0.170000X-0.140000X0.170000X-0.140000X0.170000X0.140000X0*%
%ADD31RoundRect,0.200000X-0.275000X0.200000X-0.275000X-0.200000X0.275000X-0.200000X0.275000X0.200000X0*%
G04 APERTURE END LIST*
D10*
X125821220Y-125437020D03*
X135001220Y-125437020D03*
X125821220Y-124437020D03*
X135001220Y-124437020D03*
X125821220Y-123437020D03*
X135001220Y-123437020D03*
X125821220Y-122437020D03*
X135001220Y-122437020D03*
X125821220Y-121437020D03*
X135001220Y-121437020D03*
X125821220Y-120437020D03*
X135001220Y-120437020D03*
X125821220Y-119437020D03*
X135001220Y-119437020D03*
X125821220Y-118437020D03*
X135001220Y-118437020D03*
X125821220Y-117437020D03*
X135001220Y-117437020D03*
X125821220Y-116437020D03*
X135001220Y-116437020D03*
X125826300Y-81751560D03*
X135006300Y-81751560D03*
X125826300Y-80751560D03*
X135006300Y-80751560D03*
X125826300Y-79751560D03*
X135006300Y-79751560D03*
X125826300Y-78751560D03*
X135006300Y-78751560D03*
X125826300Y-77751560D03*
X135006300Y-77751560D03*
X125826300Y-76751560D03*
X135006300Y-76751560D03*
X125826300Y-75751560D03*
X135006300Y-75751560D03*
X125826300Y-74751560D03*
X135006300Y-74751560D03*
X125826300Y-73751560D03*
X135006300Y-73751560D03*
X125826300Y-72751560D03*
X135006300Y-72751560D03*
D11*
X121981500Y-81216500D03*
X123001500Y-81216500D03*
D12*
X123380000Y-78613000D03*
X121730000Y-78613000D03*
D13*
X152908000Y-98935000D03*
X152908000Y-97915000D03*
X154178000Y-98935000D03*
X154178000Y-97915000D03*
X145542000Y-105539000D03*
X145542000Y-104519000D03*
X147193000Y-105539000D03*
X147193000Y-104519000D03*
D11*
X139190000Y-119380000D03*
X140210000Y-119380000D03*
X139190000Y-117094000D03*
X140210000Y-117094000D03*
X139190000Y-114808000D03*
X140210000Y-114808000D03*
D14*
X151386000Y-117729000D03*
X150366000Y-117729000D03*
X151386000Y-120142000D03*
X150366000Y-120142000D03*
D11*
X139063000Y-77089000D03*
X140083000Y-77089000D03*
X139063000Y-74803000D03*
X140083000Y-74803000D03*
X139063000Y-72263000D03*
X140083000Y-72263000D03*
D14*
X151259000Y-74803000D03*
X150239000Y-74803000D03*
X151259000Y-77343000D03*
X150239000Y-77343000D03*
D15*
X142072000Y-117618000D03*
X142072000Y-118118000D03*
X142072000Y-118618000D03*
X142072000Y-119118000D03*
X142072000Y-119618000D03*
X146472000Y-119618000D03*
X146472000Y-119118000D03*
X146472000Y-118618000D03*
X146472000Y-118118000D03*
X146472000Y-117618000D03*
X142041520Y-74854560D03*
X142041520Y-75354560D03*
X142041520Y-75854560D03*
X142041520Y-76354560D03*
X142041520Y-76854560D03*
X146441520Y-76854560D03*
X146441520Y-76354560D03*
X146441520Y-75854560D03*
X146441520Y-75354560D03*
X146441520Y-74854560D03*
D16*
X125676321Y-90310681D03*
D17*
X129791683Y-90310681D03*
D18*
X125676321Y-86195319D03*
D19*
X129791683Y-86195319D03*
D18*
X125676321Y-96195316D03*
D16*
X125676321Y-100310678D03*
D19*
X129791683Y-96195316D03*
D17*
X129791683Y-100310678D03*
D19*
X129791683Y-52465317D03*
D16*
X125676321Y-56580679D03*
D18*
X125676321Y-52465317D03*
D17*
X129791683Y-56580679D03*
D18*
X184406320Y-52465317D03*
D17*
X188521682Y-56580679D03*
D19*
X188521682Y-52465317D03*
D16*
X184406320Y-56580679D03*
D18*
X125676321Y-129925317D03*
D16*
X125676321Y-134040679D03*
D17*
X129791683Y-134040679D03*
D19*
X129791683Y-129925317D03*
X188521682Y-129925317D03*
D18*
X184406320Y-129925317D03*
D16*
X184406320Y-134040679D03*
D17*
X188521682Y-134040679D03*
D19*
X188521682Y-96195316D03*
D16*
X184406320Y-100310678D03*
D18*
X184406320Y-96195316D03*
D17*
X188521682Y-100310678D03*
D19*
X188521682Y-86195319D03*
D18*
X184406320Y-86195319D03*
D16*
X184406320Y-90310681D03*
D17*
X188521682Y-90310681D03*
D20*
X194132500Y-65462000D03*
X194132500Y-64212000D03*
X194132500Y-62962000D03*
X194132500Y-61712000D03*
X194132500Y-60462000D03*
D21*
X197032500Y-68012000D03*
X197032500Y-57912000D03*
D14*
X123850000Y-68326000D03*
X122830000Y-68326000D03*
X135130000Y-68326000D03*
X134110000Y-68326000D03*
X123850000Y-66555620D03*
X122830000Y-66555620D03*
X135130000Y-66555620D03*
X134110000Y-66555620D03*
X123850000Y-64785240D03*
X122830000Y-64785240D03*
X135130000Y-64785240D03*
X134110000Y-64785240D03*
X123850000Y-63014860D03*
X122830000Y-63014860D03*
X135130000Y-63014860D03*
X134110000Y-63014860D03*
X123850000Y-61244480D03*
X122830000Y-61244480D03*
X135130000Y-61244480D03*
X134110000Y-61244480D03*
X123850000Y-59474100D03*
X122830000Y-59474100D03*
X135130000Y-59474100D03*
X134110000Y-59474100D03*
X129415000Y-68326000D03*
X128395000Y-68326000D03*
X141353000Y-68326000D03*
X140333000Y-68326000D03*
X129415000Y-66555620D03*
X128395000Y-66555620D03*
X141353000Y-66555620D03*
X140333000Y-66555620D03*
X129415000Y-64785240D03*
X128395000Y-64785240D03*
X141353000Y-64785240D03*
X140333000Y-64785240D03*
X129415000Y-63014860D03*
X128395000Y-63014860D03*
X141353000Y-63014860D03*
X140333000Y-63014860D03*
X129415000Y-61244480D03*
X128395000Y-61244480D03*
X141353000Y-61244480D03*
X140333000Y-61244480D03*
X129415000Y-59474100D03*
X128395000Y-59474100D03*
X141353000Y-59474100D03*
X140333000Y-59474100D03*
D11*
X139190000Y-109474000D03*
X140210000Y-109474000D03*
X139190000Y-107188000D03*
X140210000Y-107188000D03*
X139190000Y-104902000D03*
X140210000Y-104902000D03*
D14*
X151386000Y-107950000D03*
X150366000Y-107950000D03*
X151386000Y-110236000D03*
X150366000Y-110236000D03*
D11*
X139063000Y-88392000D03*
X140083000Y-88392000D03*
X139063000Y-86106000D03*
X140083000Y-86106000D03*
X139063000Y-83820000D03*
X140083000Y-83820000D03*
D14*
X151259000Y-87122000D03*
X150239000Y-87122000D03*
X151259000Y-89408000D03*
X150239000Y-89408000D03*
D15*
X142072000Y-107712000D03*
X142072000Y-108212000D03*
X142072000Y-108712000D03*
X142072000Y-109212000D03*
X142072000Y-109712000D03*
X146472000Y-109712000D03*
X146472000Y-109212000D03*
X146472000Y-108712000D03*
X146472000Y-108212000D03*
X146472000Y-107712000D03*
X141945000Y-86630000D03*
X141945000Y-87130000D03*
X141945000Y-87630000D03*
X141945000Y-88130000D03*
X141945000Y-88630000D03*
X146345000Y-88630000D03*
X146345000Y-88130000D03*
X146345000Y-87630000D03*
X146345000Y-87130000D03*
X146345000Y-86630000D03*
D22*
X155956000Y-96238000D03*
X155956000Y-95278000D03*
D23*
X158404000Y-88643000D03*
X159364000Y-88643000D03*
D22*
X163068000Y-94841000D03*
X163068000Y-93881000D03*
X163068000Y-92682000D03*
X163068000Y-91722000D03*
D24*
X177025000Y-64706500D03*
X178575000Y-64706500D03*
X127050500Y-111506000D03*
X128600500Y-111506000D03*
X176898000Y-111633000D03*
X178448000Y-111633000D03*
D25*
X187325000Y-110583000D03*
X187325000Y-112683000D03*
X187325000Y-114012000D03*
X187325000Y-116112000D03*
X190373000Y-110583000D03*
X190373000Y-112683000D03*
X190373000Y-114012000D03*
X190373000Y-116112000D03*
X190373000Y-109000000D03*
X190373000Y-106900000D03*
X190373000Y-105571000D03*
X190373000Y-103471000D03*
X187325000Y-109000000D03*
X187325000Y-106900000D03*
X187325000Y-105571000D03*
X187325000Y-103471000D03*
X178562000Y-90644000D03*
X178562000Y-92744000D03*
X178562000Y-94073000D03*
X178562000Y-96173000D03*
X181610000Y-90644000D03*
X181610000Y-92744000D03*
X181610000Y-94073000D03*
X181610000Y-96173000D03*
D20*
X194132500Y-84699000D03*
X194132500Y-83449000D03*
D21*
X197032500Y-87249000D03*
X197032500Y-80899000D03*
D20*
X194132500Y-75047000D03*
X194132500Y-73797000D03*
D21*
X197032500Y-71247000D03*
X197032500Y-77597000D03*
D26*
X157209000Y-97258000D03*
X157209000Y-96758000D03*
X157209000Y-96258000D03*
X157209000Y-95758000D03*
X157209000Y-95258000D03*
X157209000Y-94758000D03*
X157209000Y-94258000D03*
D27*
X158369000Y-93848000D03*
D26*
X159529000Y-94258000D03*
X159529000Y-94758000D03*
X159529000Y-95258000D03*
X159529000Y-95758000D03*
X159529000Y-96258000D03*
X159529000Y-96758000D03*
X159529000Y-97258000D03*
D27*
X158369000Y-97668000D03*
X157631000Y-89899000D03*
X158131000Y-89899000D03*
X158631000Y-89899000D03*
X159131000Y-89899000D03*
X159631000Y-89899000D03*
X160131000Y-89899000D03*
X160631000Y-89899000D03*
D26*
X161041000Y-91059000D03*
D27*
X160631000Y-92219000D03*
X160131000Y-92219000D03*
X159631000Y-92219000D03*
X159131000Y-92219000D03*
X158631000Y-92219000D03*
X158131000Y-92219000D03*
X157631000Y-92219000D03*
D26*
X157221000Y-91059000D03*
D28*
X176779000Y-60146500D03*
X176779000Y-60646500D03*
X176779000Y-61146500D03*
X176779000Y-61646500D03*
D29*
X177304000Y-62171500D03*
X177804000Y-62171500D03*
X178304000Y-62171500D03*
X178804000Y-62171500D03*
D28*
X179329000Y-61646500D03*
X179329000Y-61146500D03*
X179329000Y-60646500D03*
X179329000Y-60146500D03*
D29*
X178804000Y-59621500D03*
X178304000Y-59621500D03*
X177804000Y-59621500D03*
X177304000Y-59621500D03*
D28*
X176748000Y-107112000D03*
X176748000Y-107612000D03*
X176748000Y-108112000D03*
X176748000Y-108612000D03*
D29*
X177273000Y-109137000D03*
X177773000Y-109137000D03*
X178273000Y-109137000D03*
X178773000Y-109137000D03*
D28*
X179298000Y-108612000D03*
X179298000Y-108112000D03*
X179298000Y-107612000D03*
X179298000Y-107112000D03*
D29*
X178773000Y-106587000D03*
X178273000Y-106587000D03*
X177773000Y-106587000D03*
X177273000Y-106587000D03*
D28*
X126838500Y-107096500D03*
X126838500Y-107596500D03*
X126838500Y-108096500D03*
X126838500Y-108596500D03*
D29*
X127363500Y-109121500D03*
X127863500Y-109121500D03*
X128363500Y-109121500D03*
X128863500Y-109121500D03*
D28*
X129388500Y-108596500D03*
X129388500Y-108096500D03*
X129388500Y-107596500D03*
X129388500Y-107096500D03*
D29*
X128863500Y-106571500D03*
X128363500Y-106571500D03*
X127863500Y-106571500D03*
X127363500Y-106571500D03*
D11*
X191065000Y-98325000D03*
X192085000Y-98325000D03*
D30*
X171700000Y-98945000D03*
X171700000Y-99905000D03*
D11*
X191040000Y-100300000D03*
X192060000Y-100300000D03*
D31*
X178750000Y-113075000D03*
X178750000Y-114725000D03*
D20*
X194100000Y-94325000D03*
X194100000Y-93075000D03*
D21*
X197000000Y-96875000D03*
X197000000Y-90525000D03*
D20*
X194100000Y-113625000D03*
X194100000Y-112375000D03*
D21*
X197000000Y-116175000D03*
X197000000Y-109825000D03*
D20*
X194100000Y-103975000D03*
X194100000Y-102725000D03*
D21*
X197000000Y-100175000D03*
X197000000Y-106525000D03*
D11*
X182090000Y-110950000D03*
X183110000Y-110950000D03*
X182065000Y-117000000D03*
X183085000Y-117000000D03*
D14*
X185085000Y-110950000D03*
X184065000Y-110950000D03*
X185085000Y-117000000D03*
X184065000Y-117000000D03*
D11*
X178315000Y-76125000D03*
X179335000Y-76125000D03*
M02*
