%TF.GenerationSoftware,KiCad,Pcbnew,(6.0.7)*%
%TF.CreationDate,2022-10-25T19:15:29+08:00*%
%TF.ProjectId,cubesat_obc,63756265-7361-4745-9f6f-62632e6b6963,rev?*%
%TF.SameCoordinates,Original*%
%TF.FileFunction,Drillmap*%
%TF.FilePolarity,Positive*%
%FSLAX45Y45*%
G04 Gerber Fmt 4.5, Leading zero omitted, Abs format (unit mm)*
G04 Created by KiCad (PCBNEW (6.0.7)) date 2022-10-25 19:15:29*
%MOMM*%
%LPD*%
G01*
G04 APERTURE LIST*
%ADD10C,0.200000*%
%ADD11C,0.119000*%
%ADD12C,0.440000*%
G04 APERTURE END LIST*
D10*
X11924795Y-13547695D02*
X11814005Y-13436905D01*
X12028400Y-4839800D02*
G75*
G03*
X11594795Y-5019405I0J-613210D01*
G01*
X19392464Y-5012300D02*
X19644400Y-5012300D01*
X19646900Y-13639800D02*
X18641900Y-13639800D01*
X19959400Y-5322300D02*
G75*
G03*
X19644400Y-5012300I-312500J-2500D01*
G01*
X10761901Y-12937300D02*
G75*
G03*
X11061901Y-13257300I310000J-10000D01*
G01*
X11814005Y-13436905D02*
G75*
G03*
X11380400Y-13257300I-433605J-433605D01*
G01*
X19959400Y-5322300D02*
X19959400Y-13322300D01*
X11064400Y-5267300D02*
X11092900Y-5267300D01*
X19646900Y-13639800D02*
G75*
G03*
X19959400Y-13322300I-2500J315000D01*
G01*
X11924795Y-13547695D02*
G75*
G03*
X12358400Y-13727300I433605J433605D01*
G01*
X11064400Y-5267301D02*
G75*
G03*
X10761901Y-5592300I11250J-313749D01*
G01*
X19126900Y-4902300D02*
G75*
G03*
X18976012Y-4839800I-150890J-150890D01*
G01*
X18554400Y-13727300D02*
X12358400Y-13727300D01*
X10761901Y-12937300D02*
X10761901Y-5592300D01*
X11526505Y-5087695D02*
X11594795Y-5019405D01*
X12028400Y-4839800D02*
X18976012Y-4839800D01*
X11380400Y-13257300D02*
X11061901Y-13257299D01*
X19126899Y-4902301D02*
G75*
G03*
X19392464Y-5012300I265561J265561D01*
G01*
X18641900Y-13639800D02*
X18554400Y-13727300D01*
X11092900Y-5267300D02*
G75*
G03*
X11526505Y-5087695I0J613210D01*
G01*
D11*
X12981622Y-11584202D02*
X13100622Y-11703202D01*
X13100622Y-11584202D02*
X12981622Y-11703202D01*
X12981622Y-12484202D02*
X13100622Y-12603202D01*
X13100622Y-12484202D02*
X12981622Y-12603202D01*
X12982130Y-7215656D02*
X13101130Y-7334656D01*
X13101130Y-7215656D02*
X12982130Y-7334656D01*
X12982130Y-8115656D02*
X13101130Y-8234656D01*
X13101130Y-8115656D02*
X12982130Y-8234656D01*
D12*
X12993400Y-5452300D02*
G75*
G03*
X12993400Y-5452300I-220000J0D01*
G01*
X12993400Y-8825300D02*
G75*
G03*
X12993400Y-8825300I-220000J0D01*
G01*
X12993400Y-9825300D02*
G75*
G03*
X12993400Y-9825300I-220000J0D01*
G01*
X12993400Y-13198300D02*
G75*
G03*
X12993400Y-13198300I-220000J0D01*
G01*
X18866400Y-5452300D02*
G75*
G03*
X18866400Y-5452300I-220000J0D01*
G01*
X18866400Y-8825300D02*
G75*
G03*
X18866400Y-8825300I-220000J0D01*
G01*
X18866400Y-9825300D02*
G75*
G03*
X18866400Y-9825300I-220000J0D01*
G01*
X18866400Y-13198300D02*
G75*
G03*
X18866400Y-13198300I-220000J0D01*
G01*
D10*
X11009318Y-14047776D02*
X11009318Y-13847776D01*
X11056937Y-13847776D01*
X11085509Y-13857300D01*
X11104556Y-13876347D01*
X11114080Y-13895395D01*
X11123604Y-13933490D01*
X11123604Y-13962062D01*
X11114080Y-14000157D01*
X11104556Y-14019204D01*
X11085509Y-14038252D01*
X11056937Y-14047776D01*
X11009318Y-14047776D01*
X11209318Y-14047776D02*
X11209318Y-13914443D01*
X11209318Y-13952538D02*
X11218842Y-13933490D01*
X11228366Y-13923966D01*
X11247413Y-13914443D01*
X11266461Y-13914443D01*
X11333128Y-14047776D02*
X11333128Y-13914443D01*
X11333128Y-13847776D02*
X11323604Y-13857300D01*
X11333128Y-13866824D01*
X11342651Y-13857300D01*
X11333128Y-13847776D01*
X11333128Y-13866824D01*
X11456937Y-14047776D02*
X11437890Y-14038252D01*
X11428366Y-14019204D01*
X11428366Y-13847776D01*
X11561699Y-14047776D02*
X11542651Y-14038252D01*
X11533128Y-14019204D01*
X11533128Y-13847776D01*
X11790271Y-14047776D02*
X11790271Y-13847776D01*
X11856937Y-13990633D01*
X11923604Y-13847776D01*
X11923604Y-14047776D01*
X12104556Y-14047776D02*
X12104556Y-13943014D01*
X12095032Y-13923966D01*
X12075985Y-13914443D01*
X12037890Y-13914443D01*
X12018842Y-13923966D01*
X12104556Y-14038252D02*
X12085509Y-14047776D01*
X12037890Y-14047776D01*
X12018842Y-14038252D01*
X12009318Y-14019204D01*
X12009318Y-14000157D01*
X12018842Y-13981109D01*
X12037890Y-13971585D01*
X12085509Y-13971585D01*
X12104556Y-13962062D01*
X12199794Y-13914443D02*
X12199794Y-14114443D01*
X12199794Y-13923966D02*
X12218842Y-13914443D01*
X12256937Y-13914443D01*
X12275985Y-13923966D01*
X12285509Y-13933490D01*
X12295032Y-13952538D01*
X12295032Y-14009681D01*
X12285509Y-14028728D01*
X12275985Y-14038252D01*
X12256937Y-14047776D01*
X12218842Y-14047776D01*
X12199794Y-14038252D01*
X12380747Y-14028728D02*
X12390271Y-14038252D01*
X12380747Y-14047776D01*
X12371223Y-14038252D01*
X12380747Y-14028728D01*
X12380747Y-14047776D01*
X12380747Y-13923966D02*
X12390271Y-13933490D01*
X12380747Y-13943014D01*
X12371223Y-13933490D01*
X12380747Y-13923966D01*
X12380747Y-13943014D01*
D11*
X10632699Y-14317800D02*
X10751699Y-14436800D01*
X10751699Y-14317800D02*
X10632699Y-14436800D01*
D10*
X11114080Y-14467776D02*
X10999794Y-14467776D01*
X11056937Y-14467776D02*
X11056937Y-14267776D01*
X11037890Y-14296347D01*
X11018842Y-14315395D01*
X10999794Y-14324919D01*
X11199794Y-14448728D02*
X11209318Y-14458252D01*
X11199794Y-14467776D01*
X11190271Y-14458252D01*
X11199794Y-14448728D01*
X11199794Y-14467776D01*
X11399794Y-14467776D02*
X11285509Y-14467776D01*
X11342651Y-14467776D02*
X11342651Y-14267776D01*
X11323604Y-14296347D01*
X11304556Y-14315395D01*
X11285509Y-14324919D01*
X11495032Y-14467776D02*
X11533128Y-14467776D01*
X11552175Y-14458252D01*
X11561699Y-14448728D01*
X11580747Y-14420157D01*
X11590271Y-14382062D01*
X11590271Y-14305871D01*
X11580747Y-14286824D01*
X11571223Y-14277300D01*
X11552175Y-14267776D01*
X11514080Y-14267776D01*
X11495032Y-14277300D01*
X11485509Y-14286824D01*
X11475985Y-14305871D01*
X11475985Y-14353490D01*
X11485509Y-14372538D01*
X11495032Y-14382062D01*
X11514080Y-14391585D01*
X11552175Y-14391585D01*
X11571223Y-14382062D01*
X11580747Y-14372538D01*
X11590271Y-14353490D01*
X11714080Y-14267776D02*
X11733128Y-14267776D01*
X11752175Y-14277300D01*
X11761699Y-14286824D01*
X11771223Y-14305871D01*
X11780747Y-14343966D01*
X11780747Y-14391585D01*
X11771223Y-14429681D01*
X11761699Y-14448728D01*
X11752175Y-14458252D01*
X11733128Y-14467776D01*
X11714080Y-14467776D01*
X11695032Y-14458252D01*
X11685509Y-14448728D01*
X11675985Y-14429681D01*
X11666461Y-14391585D01*
X11666461Y-14343966D01*
X11675985Y-14305871D01*
X11685509Y-14286824D01*
X11695032Y-14277300D01*
X11714080Y-14267776D01*
X11866461Y-14467776D02*
X11866461Y-14334443D01*
X11866461Y-14353490D02*
X11875985Y-14343966D01*
X11895032Y-14334443D01*
X11923604Y-14334443D01*
X11942651Y-14343966D01*
X11952175Y-14363014D01*
X11952175Y-14467776D01*
X11952175Y-14363014D02*
X11961699Y-14343966D01*
X11980747Y-14334443D01*
X12009318Y-14334443D01*
X12028366Y-14343966D01*
X12037890Y-14363014D01*
X12037890Y-14467776D01*
X12133128Y-14467776D02*
X12133128Y-14334443D01*
X12133128Y-14353490D02*
X12142651Y-14343966D01*
X12161699Y-14334443D01*
X12190271Y-14334443D01*
X12209318Y-14343966D01*
X12218842Y-14363014D01*
X12218842Y-14467776D01*
X12218842Y-14363014D02*
X12228366Y-14343966D01*
X12247413Y-14334443D01*
X12275985Y-14334443D01*
X12295032Y-14343966D01*
X12304556Y-14363014D01*
X12304556Y-14467776D01*
X12695032Y-14258252D02*
X12523604Y-14515395D01*
X12952175Y-14267776D02*
X12971223Y-14267776D01*
X12990271Y-14277300D01*
X12999794Y-14286824D01*
X13009318Y-14305871D01*
X13018842Y-14343966D01*
X13018842Y-14391585D01*
X13009318Y-14429681D01*
X12999794Y-14448728D01*
X12990271Y-14458252D01*
X12971223Y-14467776D01*
X12952175Y-14467776D01*
X12933128Y-14458252D01*
X12923604Y-14448728D01*
X12914080Y-14429681D01*
X12904556Y-14391585D01*
X12904556Y-14343966D01*
X12914080Y-14305871D01*
X12923604Y-14286824D01*
X12933128Y-14277300D01*
X12952175Y-14267776D01*
X13104556Y-14448728D02*
X13114080Y-14458252D01*
X13104556Y-14467776D01*
X13095032Y-14458252D01*
X13104556Y-14448728D01*
X13104556Y-14467776D01*
X13237890Y-14267776D02*
X13256937Y-14267776D01*
X13275985Y-14277300D01*
X13285509Y-14286824D01*
X13295032Y-14305871D01*
X13304556Y-14343966D01*
X13304556Y-14391585D01*
X13295032Y-14429681D01*
X13285509Y-14448728D01*
X13275985Y-14458252D01*
X13256937Y-14467776D01*
X13237890Y-14467776D01*
X13218842Y-14458252D01*
X13209318Y-14448728D01*
X13199794Y-14429681D01*
X13190271Y-14391585D01*
X13190271Y-14343966D01*
X13199794Y-14305871D01*
X13209318Y-14286824D01*
X13218842Y-14277300D01*
X13237890Y-14267776D01*
X13475985Y-14334443D02*
X13475985Y-14467776D01*
X13428366Y-14258252D02*
X13380747Y-14401109D01*
X13504556Y-14401109D01*
X13666461Y-14267776D02*
X13628366Y-14267776D01*
X13609318Y-14277300D01*
X13599794Y-14286824D01*
X13580747Y-14315395D01*
X13571223Y-14353490D01*
X13571223Y-14429681D01*
X13580747Y-14448728D01*
X13590271Y-14458252D01*
X13609318Y-14467776D01*
X13647413Y-14467776D01*
X13666461Y-14458252D01*
X13675985Y-14448728D01*
X13685509Y-14429681D01*
X13685509Y-14382062D01*
X13675985Y-14363014D01*
X13666461Y-14353490D01*
X13647413Y-14343966D01*
X13609318Y-14343966D01*
X13590271Y-14353490D01*
X13580747Y-14363014D01*
X13571223Y-14382062D01*
X13780747Y-14467776D02*
X13818842Y-14467776D01*
X13837890Y-14458252D01*
X13847413Y-14448728D01*
X13866461Y-14420157D01*
X13875985Y-14382062D01*
X13875985Y-14305871D01*
X13866461Y-14286824D01*
X13856937Y-14277300D01*
X13837890Y-14267776D01*
X13799794Y-14267776D01*
X13780747Y-14277300D01*
X13771223Y-14286824D01*
X13761699Y-14305871D01*
X13761699Y-14353490D01*
X13771223Y-14372538D01*
X13780747Y-14382062D01*
X13799794Y-14391585D01*
X13837890Y-14391585D01*
X13856937Y-14382062D01*
X13866461Y-14372538D01*
X13875985Y-14353490D01*
X13952175Y-14267776D02*
X13952175Y-14305871D01*
X14028366Y-14267776D02*
X14028366Y-14305871D01*
X14323604Y-14543966D02*
X14314080Y-14534443D01*
X14295032Y-14505871D01*
X14285509Y-14486824D01*
X14275985Y-14458252D01*
X14266461Y-14410633D01*
X14266461Y-14372538D01*
X14275985Y-14324919D01*
X14285509Y-14296347D01*
X14295032Y-14277300D01*
X14314080Y-14248728D01*
X14323604Y-14239204D01*
X14485509Y-14334443D02*
X14485509Y-14467776D01*
X14437890Y-14258252D02*
X14390271Y-14401109D01*
X14514080Y-14401109D01*
X14742651Y-14467776D02*
X14742651Y-14267776D01*
X14828366Y-14467776D02*
X14828366Y-14363014D01*
X14818842Y-14343966D01*
X14799794Y-14334443D01*
X14771223Y-14334443D01*
X14752175Y-14343966D01*
X14742651Y-14353490D01*
X14952175Y-14467776D02*
X14933128Y-14458252D01*
X14923604Y-14448728D01*
X14914080Y-14429681D01*
X14914080Y-14372538D01*
X14923604Y-14353490D01*
X14933128Y-14343966D01*
X14952175Y-14334443D01*
X14980747Y-14334443D01*
X14999794Y-14343966D01*
X15009318Y-14353490D01*
X15018842Y-14372538D01*
X15018842Y-14429681D01*
X15009318Y-14448728D01*
X14999794Y-14458252D01*
X14980747Y-14467776D01*
X14952175Y-14467776D01*
X15133128Y-14467776D02*
X15114080Y-14458252D01*
X15104556Y-14439204D01*
X15104556Y-14267776D01*
X15285509Y-14458252D02*
X15266461Y-14467776D01*
X15228366Y-14467776D01*
X15209318Y-14458252D01*
X15199794Y-14439204D01*
X15199794Y-14363014D01*
X15209318Y-14343966D01*
X15228366Y-14334443D01*
X15266461Y-14334443D01*
X15285509Y-14343966D01*
X15295032Y-14363014D01*
X15295032Y-14382062D01*
X15199794Y-14401109D01*
X15371223Y-14458252D02*
X15390271Y-14467776D01*
X15428366Y-14467776D01*
X15447413Y-14458252D01*
X15456937Y-14439204D01*
X15456937Y-14429681D01*
X15447413Y-14410633D01*
X15428366Y-14401109D01*
X15399794Y-14401109D01*
X15380747Y-14391585D01*
X15371223Y-14372538D01*
X15371223Y-14363014D01*
X15380747Y-14343966D01*
X15399794Y-14334443D01*
X15428366Y-14334443D01*
X15447413Y-14343966D01*
X15523604Y-14543966D02*
X15533128Y-14534443D01*
X15552175Y-14505871D01*
X15561699Y-14486824D01*
X15571223Y-14458252D01*
X15580747Y-14410633D01*
X15580747Y-14372538D01*
X15571223Y-14324919D01*
X15561699Y-14296347D01*
X15552175Y-14277300D01*
X15533128Y-14248728D01*
X15523604Y-14239204D01*
X15885509Y-14543966D02*
X15875985Y-14534443D01*
X15856937Y-14505871D01*
X15847413Y-14486824D01*
X15837890Y-14458252D01*
X15828366Y-14410633D01*
X15828366Y-14372538D01*
X15837890Y-14324919D01*
X15847413Y-14296347D01*
X15856937Y-14277300D01*
X15875985Y-14248728D01*
X15885509Y-14239204D01*
X15961699Y-14334443D02*
X15961699Y-14467776D01*
X15961699Y-14353490D02*
X15971223Y-14343966D01*
X15990271Y-14334443D01*
X16018842Y-14334443D01*
X16037890Y-14343966D01*
X16047413Y-14363014D01*
X16047413Y-14467776D01*
X16171223Y-14467776D02*
X16152175Y-14458252D01*
X16142651Y-14448728D01*
X16133128Y-14429681D01*
X16133128Y-14372538D01*
X16142651Y-14353490D01*
X16152175Y-14343966D01*
X16171223Y-14334443D01*
X16199794Y-14334443D01*
X16218842Y-14343966D01*
X16228366Y-14353490D01*
X16237890Y-14372538D01*
X16237890Y-14429681D01*
X16228366Y-14448728D01*
X16218842Y-14458252D01*
X16199794Y-14467776D01*
X16171223Y-14467776D01*
X16295032Y-14334443D02*
X16371223Y-14334443D01*
X16323604Y-14267776D02*
X16323604Y-14439204D01*
X16333128Y-14458252D01*
X16352175Y-14467776D01*
X16371223Y-14467776D01*
X16590271Y-14334443D02*
X16590271Y-14534443D01*
X16590271Y-14343966D02*
X16609318Y-14334443D01*
X16647413Y-14334443D01*
X16666461Y-14343966D01*
X16675985Y-14353490D01*
X16685509Y-14372538D01*
X16685509Y-14429681D01*
X16675985Y-14448728D01*
X16666461Y-14458252D01*
X16647413Y-14467776D01*
X16609318Y-14467776D01*
X16590271Y-14458252D01*
X16799794Y-14467776D02*
X16780747Y-14458252D01*
X16771223Y-14439204D01*
X16771223Y-14267776D01*
X16961699Y-14467776D02*
X16961699Y-14363014D01*
X16952175Y-14343966D01*
X16933128Y-14334443D01*
X16895033Y-14334443D01*
X16875985Y-14343966D01*
X16961699Y-14458252D02*
X16942652Y-14467776D01*
X16895033Y-14467776D01*
X16875985Y-14458252D01*
X16866461Y-14439204D01*
X16866461Y-14420157D01*
X16875985Y-14401109D01*
X16895033Y-14391585D01*
X16942652Y-14391585D01*
X16961699Y-14382062D01*
X17028366Y-14334443D02*
X17104556Y-14334443D01*
X17056937Y-14267776D02*
X17056937Y-14439204D01*
X17066461Y-14458252D01*
X17085509Y-14467776D01*
X17104556Y-14467776D01*
X17247413Y-14458252D02*
X17228366Y-14467776D01*
X17190271Y-14467776D01*
X17171223Y-14458252D01*
X17161699Y-14439204D01*
X17161699Y-14363014D01*
X17171223Y-14343966D01*
X17190271Y-14334443D01*
X17228366Y-14334443D01*
X17247413Y-14343966D01*
X17256937Y-14363014D01*
X17256937Y-14382062D01*
X17161699Y-14401109D01*
X17428366Y-14467776D02*
X17428366Y-14267776D01*
X17428366Y-14458252D02*
X17409318Y-14467776D01*
X17371223Y-14467776D01*
X17352175Y-14458252D01*
X17342652Y-14448728D01*
X17333128Y-14429681D01*
X17333128Y-14372538D01*
X17342652Y-14353490D01*
X17352175Y-14343966D01*
X17371223Y-14334443D01*
X17409318Y-14334443D01*
X17428366Y-14343966D01*
X17504556Y-14543966D02*
X17514080Y-14534443D01*
X17533128Y-14505871D01*
X17542652Y-14486824D01*
X17552175Y-14458252D01*
X17561699Y-14410633D01*
X17561699Y-14372538D01*
X17552175Y-14324919D01*
X17542652Y-14296347D01*
X17533128Y-14277300D01*
X17514080Y-14248728D01*
X17504556Y-14239204D01*
X10751699Y-14641300D02*
G75*
G03*
X10751699Y-14641300I-100000J0D01*
G01*
X11095033Y-14598443D02*
X11095033Y-14731776D01*
X11047413Y-14522252D02*
X10999794Y-14665109D01*
X11123604Y-14665109D01*
X11199794Y-14712728D02*
X11209318Y-14722252D01*
X11199794Y-14731776D01*
X11190271Y-14722252D01*
X11199794Y-14712728D01*
X11199794Y-14731776D01*
X11380747Y-14598443D02*
X11380747Y-14731776D01*
X11333128Y-14522252D02*
X11285509Y-14665109D01*
X11409318Y-14665109D01*
X11523604Y-14531776D02*
X11542651Y-14531776D01*
X11561699Y-14541300D01*
X11571223Y-14550824D01*
X11580747Y-14569871D01*
X11590271Y-14607966D01*
X11590271Y-14655585D01*
X11580747Y-14693681D01*
X11571223Y-14712728D01*
X11561699Y-14722252D01*
X11542651Y-14731776D01*
X11523604Y-14731776D01*
X11504556Y-14722252D01*
X11495032Y-14712728D01*
X11485509Y-14693681D01*
X11475985Y-14655585D01*
X11475985Y-14607966D01*
X11485509Y-14569871D01*
X11495032Y-14550824D01*
X11504556Y-14541300D01*
X11523604Y-14531776D01*
X11714080Y-14531776D02*
X11733128Y-14531776D01*
X11752175Y-14541300D01*
X11761699Y-14550824D01*
X11771223Y-14569871D01*
X11780747Y-14607966D01*
X11780747Y-14655585D01*
X11771223Y-14693681D01*
X11761699Y-14712728D01*
X11752175Y-14722252D01*
X11733128Y-14731776D01*
X11714080Y-14731776D01*
X11695032Y-14722252D01*
X11685509Y-14712728D01*
X11675985Y-14693681D01*
X11666461Y-14655585D01*
X11666461Y-14607966D01*
X11675985Y-14569871D01*
X11685509Y-14550824D01*
X11695032Y-14541300D01*
X11714080Y-14531776D01*
X11866461Y-14731776D02*
X11866461Y-14598443D01*
X11866461Y-14617490D02*
X11875985Y-14607966D01*
X11895032Y-14598443D01*
X11923604Y-14598443D01*
X11942651Y-14607966D01*
X11952175Y-14627014D01*
X11952175Y-14731776D01*
X11952175Y-14627014D02*
X11961699Y-14607966D01*
X11980747Y-14598443D01*
X12009318Y-14598443D01*
X12028366Y-14607966D01*
X12037890Y-14627014D01*
X12037890Y-14731776D01*
X12133128Y-14731776D02*
X12133128Y-14598443D01*
X12133128Y-14617490D02*
X12142651Y-14607966D01*
X12161699Y-14598443D01*
X12190271Y-14598443D01*
X12209318Y-14607966D01*
X12218842Y-14627014D01*
X12218842Y-14731776D01*
X12218842Y-14627014D02*
X12228366Y-14607966D01*
X12247413Y-14598443D01*
X12275985Y-14598443D01*
X12295032Y-14607966D01*
X12304556Y-14627014D01*
X12304556Y-14731776D01*
X12695032Y-14522252D02*
X12523604Y-14779395D01*
X12952175Y-14531776D02*
X12971223Y-14531776D01*
X12990271Y-14541300D01*
X12999794Y-14550824D01*
X13009318Y-14569871D01*
X13018842Y-14607966D01*
X13018842Y-14655585D01*
X13009318Y-14693681D01*
X12999794Y-14712728D01*
X12990271Y-14722252D01*
X12971223Y-14731776D01*
X12952175Y-14731776D01*
X12933128Y-14722252D01*
X12923604Y-14712728D01*
X12914080Y-14693681D01*
X12904556Y-14655585D01*
X12904556Y-14607966D01*
X12914080Y-14569871D01*
X12923604Y-14550824D01*
X12933128Y-14541300D01*
X12952175Y-14531776D01*
X13104556Y-14712728D02*
X13114080Y-14722252D01*
X13104556Y-14731776D01*
X13095032Y-14722252D01*
X13104556Y-14712728D01*
X13104556Y-14731776D01*
X13304556Y-14731776D02*
X13190271Y-14731776D01*
X13247413Y-14731776D02*
X13247413Y-14531776D01*
X13228366Y-14560347D01*
X13209318Y-14579395D01*
X13190271Y-14588919D01*
X13371223Y-14531776D02*
X13504556Y-14531776D01*
X13418842Y-14731776D01*
X13561699Y-14531776D02*
X13685509Y-14531776D01*
X13618842Y-14607966D01*
X13647413Y-14607966D01*
X13666461Y-14617490D01*
X13675985Y-14627014D01*
X13685509Y-14646062D01*
X13685509Y-14693681D01*
X13675985Y-14712728D01*
X13666461Y-14722252D01*
X13647413Y-14731776D01*
X13590271Y-14731776D01*
X13571223Y-14722252D01*
X13561699Y-14712728D01*
X13761699Y-14550824D02*
X13771223Y-14541300D01*
X13790271Y-14531776D01*
X13837890Y-14531776D01*
X13856937Y-14541300D01*
X13866461Y-14550824D01*
X13875985Y-14569871D01*
X13875985Y-14588919D01*
X13866461Y-14617490D01*
X13752175Y-14731776D01*
X13875985Y-14731776D01*
X13952175Y-14531776D02*
X13952175Y-14569871D01*
X14028366Y-14531776D02*
X14028366Y-14569871D01*
X14323604Y-14807966D02*
X14314080Y-14798443D01*
X14295032Y-14769871D01*
X14285509Y-14750824D01*
X14275985Y-14722252D01*
X14266461Y-14674633D01*
X14266461Y-14636538D01*
X14275985Y-14588919D01*
X14285509Y-14560347D01*
X14295032Y-14541300D01*
X14314080Y-14512728D01*
X14323604Y-14503204D01*
X14428366Y-14617490D02*
X14409318Y-14607966D01*
X14399794Y-14598443D01*
X14390271Y-14579395D01*
X14390271Y-14569871D01*
X14399794Y-14550824D01*
X14409318Y-14541300D01*
X14428366Y-14531776D01*
X14466461Y-14531776D01*
X14485509Y-14541300D01*
X14495032Y-14550824D01*
X14504556Y-14569871D01*
X14504556Y-14579395D01*
X14495032Y-14598443D01*
X14485509Y-14607966D01*
X14466461Y-14617490D01*
X14428366Y-14617490D01*
X14409318Y-14627014D01*
X14399794Y-14636538D01*
X14390271Y-14655585D01*
X14390271Y-14693681D01*
X14399794Y-14712728D01*
X14409318Y-14722252D01*
X14428366Y-14731776D01*
X14466461Y-14731776D01*
X14485509Y-14722252D01*
X14495032Y-14712728D01*
X14504556Y-14693681D01*
X14504556Y-14655585D01*
X14495032Y-14636538D01*
X14485509Y-14627014D01*
X14466461Y-14617490D01*
X14742651Y-14731776D02*
X14742651Y-14531776D01*
X14828366Y-14731776D02*
X14828366Y-14627014D01*
X14818842Y-14607966D01*
X14799794Y-14598443D01*
X14771223Y-14598443D01*
X14752175Y-14607966D01*
X14742651Y-14617490D01*
X14952175Y-14731776D02*
X14933128Y-14722252D01*
X14923604Y-14712728D01*
X14914080Y-14693681D01*
X14914080Y-14636538D01*
X14923604Y-14617490D01*
X14933128Y-14607966D01*
X14952175Y-14598443D01*
X14980747Y-14598443D01*
X14999794Y-14607966D01*
X15009318Y-14617490D01*
X15018842Y-14636538D01*
X15018842Y-14693681D01*
X15009318Y-14712728D01*
X14999794Y-14722252D01*
X14980747Y-14731776D01*
X14952175Y-14731776D01*
X15133128Y-14731776D02*
X15114080Y-14722252D01*
X15104556Y-14703204D01*
X15104556Y-14531776D01*
X15285509Y-14722252D02*
X15266461Y-14731776D01*
X15228366Y-14731776D01*
X15209318Y-14722252D01*
X15199794Y-14703204D01*
X15199794Y-14627014D01*
X15209318Y-14607966D01*
X15228366Y-14598443D01*
X15266461Y-14598443D01*
X15285509Y-14607966D01*
X15295032Y-14627014D01*
X15295032Y-14646062D01*
X15199794Y-14665109D01*
X15371223Y-14722252D02*
X15390271Y-14731776D01*
X15428366Y-14731776D01*
X15447413Y-14722252D01*
X15456937Y-14703204D01*
X15456937Y-14693681D01*
X15447413Y-14674633D01*
X15428366Y-14665109D01*
X15399794Y-14665109D01*
X15380747Y-14655585D01*
X15371223Y-14636538D01*
X15371223Y-14627014D01*
X15380747Y-14607966D01*
X15399794Y-14598443D01*
X15428366Y-14598443D01*
X15447413Y-14607966D01*
X15523604Y-14807966D02*
X15533128Y-14798443D01*
X15552175Y-14769871D01*
X15561699Y-14750824D01*
X15571223Y-14722252D01*
X15580747Y-14674633D01*
X15580747Y-14636538D01*
X15571223Y-14588919D01*
X15561699Y-14560347D01*
X15552175Y-14541300D01*
X15533128Y-14512728D01*
X15523604Y-14503204D01*
X15885509Y-14807966D02*
X15875985Y-14798443D01*
X15856937Y-14769871D01*
X15847413Y-14750824D01*
X15837890Y-14722252D01*
X15828366Y-14674633D01*
X15828366Y-14636538D01*
X15837890Y-14588919D01*
X15847413Y-14560347D01*
X15856937Y-14541300D01*
X15875985Y-14512728D01*
X15885509Y-14503204D01*
X15961699Y-14598443D02*
X15961699Y-14731776D01*
X15961699Y-14617490D02*
X15971223Y-14607966D01*
X15990271Y-14598443D01*
X16018842Y-14598443D01*
X16037890Y-14607966D01*
X16047413Y-14627014D01*
X16047413Y-14731776D01*
X16171223Y-14731776D02*
X16152175Y-14722252D01*
X16142651Y-14712728D01*
X16133128Y-14693681D01*
X16133128Y-14636538D01*
X16142651Y-14617490D01*
X16152175Y-14607966D01*
X16171223Y-14598443D01*
X16199794Y-14598443D01*
X16218842Y-14607966D01*
X16228366Y-14617490D01*
X16237890Y-14636538D01*
X16237890Y-14693681D01*
X16228366Y-14712728D01*
X16218842Y-14722252D01*
X16199794Y-14731776D01*
X16171223Y-14731776D01*
X16295032Y-14598443D02*
X16371223Y-14598443D01*
X16323604Y-14531776D02*
X16323604Y-14703204D01*
X16333128Y-14722252D01*
X16352175Y-14731776D01*
X16371223Y-14731776D01*
X16590271Y-14598443D02*
X16590271Y-14798443D01*
X16590271Y-14607966D02*
X16609318Y-14598443D01*
X16647413Y-14598443D01*
X16666461Y-14607966D01*
X16675985Y-14617490D01*
X16685509Y-14636538D01*
X16685509Y-14693681D01*
X16675985Y-14712728D01*
X16666461Y-14722252D01*
X16647413Y-14731776D01*
X16609318Y-14731776D01*
X16590271Y-14722252D01*
X16799794Y-14731776D02*
X16780747Y-14722252D01*
X16771223Y-14703204D01*
X16771223Y-14531776D01*
X16961699Y-14731776D02*
X16961699Y-14627014D01*
X16952175Y-14607966D01*
X16933128Y-14598443D01*
X16895033Y-14598443D01*
X16875985Y-14607966D01*
X16961699Y-14722252D02*
X16942652Y-14731776D01*
X16895033Y-14731776D01*
X16875985Y-14722252D01*
X16866461Y-14703204D01*
X16866461Y-14684157D01*
X16875985Y-14665109D01*
X16895033Y-14655585D01*
X16942652Y-14655585D01*
X16961699Y-14646062D01*
X17028366Y-14598443D02*
X17104556Y-14598443D01*
X17056937Y-14531776D02*
X17056937Y-14703204D01*
X17066461Y-14722252D01*
X17085509Y-14731776D01*
X17104556Y-14731776D01*
X17247413Y-14722252D02*
X17228366Y-14731776D01*
X17190271Y-14731776D01*
X17171223Y-14722252D01*
X17161699Y-14703204D01*
X17161699Y-14627014D01*
X17171223Y-14607966D01*
X17190271Y-14598443D01*
X17228366Y-14598443D01*
X17247413Y-14607966D01*
X17256937Y-14627014D01*
X17256937Y-14646062D01*
X17161699Y-14665109D01*
X17428366Y-14731776D02*
X17428366Y-14531776D01*
X17428366Y-14722252D02*
X17409318Y-14731776D01*
X17371223Y-14731776D01*
X17352175Y-14722252D01*
X17342652Y-14712728D01*
X17333128Y-14693681D01*
X17333128Y-14636538D01*
X17342652Y-14617490D01*
X17352175Y-14607966D01*
X17371223Y-14598443D01*
X17409318Y-14598443D01*
X17428366Y-14607966D01*
X17504556Y-14807966D02*
X17514080Y-14798443D01*
X17533128Y-14769871D01*
X17542652Y-14750824D01*
X17552175Y-14722252D01*
X17561699Y-14674633D01*
X17561699Y-14636538D01*
X17552175Y-14588919D01*
X17542652Y-14560347D01*
X17533128Y-14541300D01*
X17514080Y-14512728D01*
X17504556Y-14503204D01*
M02*
