%TF.GenerationSoftware,KiCad,Pcbnew,(6.0.7)*%
%TF.CreationDate,2022-10-25T19:15:26+08:00*%
%TF.ProjectId,cubesat_obc,63756265-7361-4745-9f6f-62632e6b6963,rev?*%
%TF.SameCoordinates,Original*%
%TF.FileFunction,Soldermask,Bot*%
%TF.FilePolarity,Negative*%
%FSLAX46Y46*%
G04 Gerber Fmt 4.6, Leading zero omitted, Abs format (unit mm)*
G04 Created by KiCad (PCBNEW (6.0.7)) date 2022-10-25 19:15:26*
%MOMM*%
%LPD*%
G01*
G04 APERTURE LIST*
G04 Aperture macros list*
%AMRoundRect*
0 Rectangle with rounded corners*
0 $1 Rounding radius*
0 $2 $3 $4 $5 $6 $7 $8 $9 X,Y pos of 4 corners*
0 Add a 4 corners polygon primitive as box body*
4,1,4,$2,$3,$4,$5,$6,$7,$8,$9,$2,$3,0*
0 Add four circle primitives for the rounded corners*
1,1,$1+$1,$2,$3*
1,1,$1+$1,$4,$5*
1,1,$1+$1,$6,$7*
1,1,$1+$1,$8,$9*
0 Add four rect primitives between the rounded corners*
20,1,$1+$1,$2,$3,$4,$5,0*
20,1,$1+$1,$4,$5,$6,$7,0*
20,1,$1+$1,$6,$7,$8,$9,0*
20,1,$1+$1,$8,$9,$2,$3,0*%
%AMFreePoly0*
4,1,37,0.535355,0.785355,0.550000,0.750000,0.550000,-0.750000,0.535355,-0.785355,0.500000,-0.800000,0.000000,-0.800000,-0.012524,-0.794812,-0.080857,-0.793560,-0.094851,-0.791293,-0.230166,-0.749018,-0.242962,-0.742915,-0.360972,-0.664360,-0.371540,-0.654911,-0.462760,-0.546392,-0.470252,-0.534356,-0.527347,-0.404597,-0.531159,-0.390943,-0.548742,-0.256483,-0.547388,-0.256306,-0.550000,-0.250000,
-0.550000,0.250000,-0.549522,0.251153,-0.549368,0.263802,-0.527557,0.403879,-0.523412,0.417435,-0.463164,0.545760,-0.455381,0.557609,-0.361537,0.663867,-0.350741,0.673055,-0.230846,0.748703,-0.217905,0.754492,-0.081598,0.793449,-0.067552,0.795373,-0.011991,0.795033,0.000000,0.800000,0.500000,0.800000,0.535355,0.785355,0.535355,0.785355,$1*%
%AMFreePoly1*
4,1,37,0.012350,0.794884,0.074210,0.794507,0.088231,0.792412,0.224052,0.751793,0.236921,0.745846,0.355883,0.668739,0.366566,0.659420,0.459104,0.552023,0.466742,0.540080,0.525419,0.411028,0.529398,0.397421,0.549495,0.257088,0.550000,0.250000,0.550000,-0.250000,0.549996,-0.250610,0.549847,-0.262826,0.549158,-0.270511,0.525638,-0.410312,0.521328,-0.423818,0.459516,-0.551397,
0.451589,-0.563150,0.356454,-0.668254,0.345546,-0.677309,0.224736,-0.751486,0.211726,-0.757116,0.074953,-0.794405,0.060885,-0.796158,0.011462,-0.795252,0.000000,-0.800000,-0.500000,-0.800000,-0.535355,-0.785355,-0.550000,-0.750000,-0.550000,0.750000,-0.535355,0.785355,-0.500000,0.800000,0.000000,0.800000,0.012350,0.794884,0.012350,0.794884,$1*%
G04 Aperture macros list end*
%ADD10C,1.290000*%
%ADD11C,5.700000*%
%ADD12C,4.500000*%
%ADD13RoundRect,0.050000X-0.800000X-0.800000X0.800000X-0.800000X0.800000X0.800000X-0.800000X0.800000X0*%
%ADD14C,1.700000*%
%ADD15RoundRect,0.190000X-0.140000X-0.170000X0.140000X-0.170000X0.140000X0.170000X-0.140000X0.170000X0*%
%ADD16RoundRect,0.190000X-0.170000X0.140000X-0.170000X-0.140000X0.170000X-0.140000X0.170000X0.140000X0*%
%ADD17RoundRect,0.190000X0.170000X-0.140000X0.170000X0.140000X-0.170000X0.140000X-0.170000X-0.140000X0*%
%ADD18RoundRect,0.300000X-0.250000X-0.475000X0.250000X-0.475000X0.250000X0.475000X-0.250000X0.475000X0*%
%ADD19RoundRect,0.190000X0.140000X0.170000X-0.140000X0.170000X-0.140000X-0.170000X0.140000X-0.170000X0*%
%ADD20RoundRect,0.300000X0.650000X-0.325000X0.650000X0.325000X-0.650000X0.325000X-0.650000X-0.325000X0*%
%ADD21RoundRect,0.050000X-1.150000X-0.550000X1.150000X-0.550000X1.150000X0.550000X-1.150000X0.550000X0*%
%ADD22RoundRect,0.250000X-0.600000X0.200000X-0.600000X-0.200000X0.600000X-0.200000X0.600000X0.200000X0*%
%ADD23RoundRect,0.300001X-1.249999X0.799999X-1.249999X-0.799999X1.249999X-0.799999X1.249999X0.799999X0*%
%ADD24RoundRect,0.050000X-1.350000X0.400000X-1.350000X-0.400000X1.350000X-0.400000X1.350000X0.400000X0*%
%ADD25RoundRect,0.050000X1.350000X-0.400000X1.350000X0.400000X-1.350000X0.400000X-1.350000X-0.400000X0*%
%ADD26RoundRect,0.185000X0.135000X0.185000X-0.135000X0.185000X-0.135000X-0.185000X0.135000X-0.185000X0*%
%ADD27RoundRect,0.185000X-0.135000X-0.185000X0.135000X-0.185000X0.135000X0.185000X-0.135000X0.185000X0*%
%ADD28RoundRect,0.185000X-0.185000X0.135000X-0.185000X-0.135000X0.185000X-0.135000X0.185000X0.135000X0*%
%ADD29RoundRect,0.185000X0.185000X-0.135000X0.185000X0.135000X-0.185000X0.135000X-0.185000X-0.135000X0*%
%ADD30RoundRect,0.050000X0.700000X0.150000X-0.700000X0.150000X-0.700000X-0.150000X0.700000X-0.150000X0*%
%ADD31RoundRect,0.125000X0.325000X0.075000X-0.325000X0.075000X-0.325000X-0.075000X0.325000X-0.075000X0*%
%ADD32RoundRect,0.125000X0.075000X0.325000X-0.075000X0.325000X-0.075000X-0.325000X0.075000X-0.325000X0*%
%ADD33RoundRect,0.050000X1.675000X1.675000X-1.675000X1.675000X-1.675000X-1.675000X1.675000X-1.675000X0*%
%ADD34RoundRect,0.050000X-0.750000X0.400000X-0.750000X-0.400000X0.750000X-0.400000X0.750000X0.400000X0*%
%ADD35RoundRect,0.050000X-1.000000X0.725000X-1.000000X-0.725000X1.000000X-0.725000X1.000000X0.725000X0*%
%ADD36RoundRect,0.050000X0.500000X0.900000X-0.500000X0.900000X-0.500000X-0.900000X0.500000X-0.900000X0*%
%ADD37RoundRect,0.250000X-0.275000X0.200000X-0.275000X-0.200000X0.275000X-0.200000X0.275000X0.200000X0*%
%ADD38RoundRect,0.250000X0.200000X0.275000X-0.200000X0.275000X-0.200000X-0.275000X0.200000X-0.275000X0*%
%ADD39RoundRect,0.250000X0.275000X-0.200000X0.275000X0.200000X-0.275000X0.200000X-0.275000X-0.200000X0*%
%ADD40RoundRect,0.050000X0.450000X0.600000X-0.450000X0.600000X-0.450000X-0.600000X0.450000X-0.600000X0*%
%ADD41RoundRect,0.050000X-0.450000X-0.600000X0.450000X-0.600000X0.450000X0.600000X-0.450000X0.600000X0*%
%ADD42RoundRect,0.275000X-0.225000X-0.250000X0.225000X-0.250000X0.225000X0.250000X-0.225000X0.250000X0*%
%ADD43RoundRect,0.050000X0.400000X1.350000X-0.400000X1.350000X-0.400000X-1.350000X0.400000X-1.350000X0*%
%ADD44RoundRect,0.200000X0.587500X0.150000X-0.587500X0.150000X-0.587500X-0.150000X0.587500X-0.150000X0*%
%ADD45RoundRect,0.112500X-0.375000X-0.062500X0.375000X-0.062500X0.375000X0.062500X-0.375000X0.062500X0*%
%ADD46RoundRect,0.112500X-0.062500X-0.375000X0.062500X-0.375000X0.062500X0.375000X-0.062500X0.375000X0*%
%ADD47RoundRect,0.050000X-2.950000X-2.950000X2.950000X-2.950000X2.950000X2.950000X-2.950000X2.950000X0*%
%ADD48RoundRect,0.150000X0.130000X0.100000X-0.130000X0.100000X-0.130000X-0.100000X0.130000X-0.100000X0*%
%ADD49RoundRect,0.275000X0.225000X0.250000X-0.225000X0.250000X-0.225000X-0.250000X0.225000X-0.250000X0*%
%ADD50RoundRect,0.050000X-1.395000X0.951500X-1.395000X-0.951500X1.395000X-0.951500X1.395000X0.951500X0*%
%ADD51RoundRect,0.125000X0.075000X-0.662500X0.075000X0.662500X-0.075000X0.662500X-0.075000X-0.662500X0*%
%ADD52RoundRect,0.125000X0.662500X-0.075000X0.662500X0.075000X-0.662500X0.075000X-0.662500X-0.075000X0*%
%ADD53RoundRect,0.300000X0.325000X0.650000X-0.325000X0.650000X-0.325000X-0.650000X0.325000X-0.650000X0*%
%ADD54RoundRect,0.300000X0.325000X1.100000X-0.325000X1.100000X-0.325000X-1.100000X0.325000X-1.100000X0*%
%ADD55RoundRect,0.300000X-0.325000X-1.100000X0.325000X-1.100000X0.325000X1.100000X-0.325000X1.100000X0*%
%ADD56RoundRect,0.300000X1.100000X-0.325000X1.100000X0.325000X-1.100000X0.325000X-1.100000X-0.325000X0*%
%ADD57RoundRect,0.300000X-1.100000X0.325000X-1.100000X-0.325000X1.100000X-0.325000X1.100000X0.325000X0*%
%ADD58RoundRect,0.050000X1.395000X-0.951500X1.395000X0.951500X-1.395000X0.951500X-1.395000X-0.951500X0*%
%ADD59RoundRect,0.050000X-0.951500X-1.395000X0.951500X-1.395000X0.951500X1.395000X-0.951500X1.395000X0*%
%ADD60RoundRect,0.112500X0.350000X0.062500X-0.350000X0.062500X-0.350000X-0.062500X0.350000X-0.062500X0*%
%ADD61RoundRect,0.112500X0.062500X0.350000X-0.062500X0.350000X-0.062500X-0.350000X0.062500X-0.350000X0*%
%ADD62RoundRect,0.050000X1.550000X1.550000X-1.550000X1.550000X-1.550000X-1.550000X1.550000X-1.550000X0*%
%ADD63RoundRect,0.050000X-0.125000X0.350000X-0.125000X-0.350000X0.125000X-0.350000X0.125000X0.350000X0*%
%ADD64RoundRect,0.050000X-0.690000X0.320000X-0.690000X-0.320000X0.690000X-0.320000X0.690000X0.320000X0*%
%ADD65C,1.100000*%
%ADD66RoundRect,0.050000X0.325000X0.175000X-0.325000X0.175000X-0.325000X-0.175000X0.325000X-0.175000X0*%
%ADD67RoundRect,0.050000X0.775000X1.200000X-0.775000X1.200000X-0.775000X-1.200000X0.775000X-1.200000X0*%
%ADD68RoundRect,0.250000X0.200000X0.600000X-0.200000X0.600000X-0.200000X-0.600000X0.200000X-0.600000X0*%
%ADD69RoundRect,0.300001X0.799999X1.249999X-0.799999X1.249999X-0.799999X-1.249999X0.799999X-1.249999X0*%
%ADD70RoundRect,0.050000X0.700000X0.600000X-0.700000X0.600000X-0.700000X-0.600000X0.700000X-0.600000X0*%
%ADD71C,1.600000*%
%ADD72RoundRect,0.275000X0.250000X-0.225000X0.250000X0.225000X-0.250000X0.225000X-0.250000X-0.225000X0*%
%ADD73RoundRect,0.050000X0.400000X-1.000000X0.400000X1.000000X-0.400000X1.000000X-0.400000X-1.000000X0*%
%ADD74RoundRect,0.300000X-0.262500X-0.450000X0.262500X-0.450000X0.262500X0.450000X-0.262500X0.450000X0*%
%ADD75RoundRect,0.150000X0.712500X0.100000X-0.712500X0.100000X-0.712500X-0.100000X0.712500X-0.100000X0*%
%ADD76RoundRect,0.050000X-0.650000X0.800000X-0.650000X-0.800000X0.650000X-0.800000X0.650000X0.800000X0*%
%ADD77RoundRect,0.250000X-0.200000X-0.600000X0.200000X-0.600000X0.200000X0.600000X-0.200000X0.600000X0*%
%ADD78RoundRect,0.300001X-0.799999X-1.249999X0.799999X-1.249999X0.799999X1.249999X-0.799999X1.249999X0*%
%ADD79RoundRect,0.200000X-0.150000X0.512500X-0.150000X-0.512500X0.150000X-0.512500X0.150000X0.512500X0*%
%ADD80RoundRect,0.112500X-0.062500X0.350000X-0.062500X-0.350000X0.062500X-0.350000X0.062500X0.350000X0*%
%ADD81RoundRect,0.112500X-0.350000X0.062500X-0.350000X-0.062500X0.350000X-0.062500X0.350000X0.062500X0*%
%ADD82RoundRect,0.050000X-0.840000X0.840000X-0.840000X-0.840000X0.840000X-0.840000X0.840000X0.840000X0*%
%ADD83RoundRect,0.050000X0.500000X-0.525000X0.500000X0.525000X-0.500000X0.525000X-0.500000X-0.525000X0*%
%ADD84RoundRect,0.050000X0.525000X-1.100000X0.525000X1.100000X-0.525000X1.100000X-0.525000X-1.100000X0*%
%ADD85FreePoly0,90.000000*%
%ADD86FreePoly1,90.000000*%
%ADD87RoundRect,0.200000X0.512500X0.150000X-0.512500X0.150000X-0.512500X-0.150000X0.512500X-0.150000X0*%
%ADD88RoundRect,0.050000X-0.550000X0.250000X-0.550000X-0.250000X0.550000X-0.250000X0.550000X0.250000X0*%
%ADD89RoundRect,0.050000X-1.000000X1.000000X-1.000000X-1.000000X1.000000X-1.000000X1.000000X1.000000X0*%
%ADD90C,0.557200*%
%ADD91RoundRect,0.300000X-0.325000X-0.650000X0.325000X-0.650000X0.325000X0.650000X-0.325000X0.650000X0*%
%ADD92RoundRect,0.275000X-0.250000X0.225000X-0.250000X-0.225000X0.250000X-0.225000X0.250000X0.225000X0*%
%ADD93RoundRect,0.300000X0.475000X-0.250000X0.475000X0.250000X-0.475000X0.250000X-0.475000X-0.250000X0*%
%ADD94RoundRect,0.300000X-0.650000X0.325000X-0.650000X-0.325000X0.650000X-0.325000X0.650000X0.325000X0*%
G04 APERTURE END LIST*
D10*
X130411220Y-116437020D03*
X130411220Y-125437020D03*
X130416300Y-72751560D03*
X130416300Y-81751560D03*
D11*
X110734001Y-55792998D03*
X196464001Y-133262997D03*
X196464001Y-53252998D03*
X110734001Y-129452998D03*
D12*
X127734002Y-88253000D03*
X127734002Y-98252997D03*
X127734002Y-54522998D03*
X186464001Y-54522998D03*
X127734002Y-131982998D03*
X186464001Y-131982998D03*
X186464001Y-98252997D03*
X186464001Y-88253000D03*
D13*
X118225000Y-124300000D03*
D14*
X115685000Y-124300000D03*
X118225000Y-121760000D03*
X115685000Y-121760000D03*
X118225000Y-119220000D03*
X115685000Y-119220000D03*
X118225000Y-116680000D03*
X115685000Y-116680000D03*
X118225000Y-114140000D03*
X115685000Y-114140000D03*
X118225000Y-111600000D03*
X115685000Y-111600000D03*
X118225000Y-109060000D03*
X115685000Y-109060000D03*
X118225000Y-106520000D03*
X115685000Y-106520000D03*
X118225000Y-103980000D03*
X115685000Y-103980000D03*
X118225000Y-101440000D03*
X115685000Y-101440000D03*
X118225000Y-98900000D03*
X115685000Y-98900000D03*
X118225000Y-96360000D03*
X115685000Y-96360000D03*
X118225000Y-93820000D03*
X115685000Y-93820000D03*
X118225000Y-91280000D03*
X115685000Y-91280000D03*
X118225000Y-88740000D03*
X115685000Y-88740000D03*
X118225000Y-86200000D03*
X115685000Y-86200000D03*
X118225000Y-83660000D03*
X115685000Y-83660000D03*
X118225000Y-81120000D03*
X115685000Y-81120000D03*
X118225000Y-78580000D03*
X115685000Y-78580000D03*
X118225000Y-76040000D03*
X115685000Y-76040000D03*
X118225000Y-73500000D03*
X115685000Y-73500000D03*
X118225000Y-70960000D03*
X115685000Y-70960000D03*
X118225000Y-68420000D03*
X115685000Y-68420000D03*
X118225000Y-65880000D03*
X115685000Y-65880000D03*
X118225000Y-63340000D03*
X115685000Y-63340000D03*
X118225000Y-60800000D03*
X115685000Y-60800000D03*
X113145000Y-124300000D03*
X110605000Y-124300000D03*
X113145000Y-121760000D03*
X110605000Y-121760000D03*
X113145000Y-119220000D03*
X110605000Y-119220000D03*
X113145000Y-116680000D03*
X110605000Y-116680000D03*
X113145000Y-114140000D03*
X110605000Y-114140000D03*
X113145000Y-111600000D03*
X110605000Y-111600000D03*
X113145000Y-109060000D03*
X110605000Y-109060000D03*
X113145000Y-106520000D03*
X110605000Y-106520000D03*
X113145000Y-103980000D03*
X110605000Y-103980000D03*
X113145000Y-101440000D03*
X110605000Y-101440000D03*
X113145000Y-98900000D03*
X110605000Y-98900000D03*
X113145000Y-96360000D03*
X110605000Y-96360000D03*
X113145000Y-93820000D03*
X110605000Y-93820000D03*
X113145000Y-91280000D03*
X110605000Y-91280000D03*
X113145000Y-88740000D03*
X110605000Y-88740000D03*
X113145000Y-86200000D03*
X110605000Y-86200000D03*
X113145000Y-83660000D03*
X110605000Y-83660000D03*
X113145000Y-81120000D03*
X110605000Y-81120000D03*
X113145000Y-78580000D03*
X110605000Y-78580000D03*
X113145000Y-76040000D03*
X110605000Y-76040000D03*
X113145000Y-73500000D03*
X110605000Y-73500000D03*
X113145000Y-70960000D03*
X110605000Y-70960000D03*
X113145000Y-68420000D03*
X110605000Y-68420000D03*
X113145000Y-65880000D03*
X110605000Y-65880000D03*
X113145000Y-63340000D03*
X110605000Y-63340000D03*
X113145000Y-60800000D03*
X110605000Y-60800000D03*
D15*
X148620000Y-81725000D03*
X149580000Y-81725000D03*
D16*
X142825000Y-92695000D03*
X142825000Y-93655000D03*
D17*
X139128500Y-104580000D03*
X139128500Y-103620000D03*
D18*
X141075000Y-80875000D03*
X142975000Y-80875000D03*
D15*
X159345000Y-92575000D03*
X160305000Y-92575000D03*
D19*
X154705000Y-118575000D03*
X153745000Y-118575000D03*
D16*
X164000000Y-113670000D03*
X164000000Y-114630000D03*
D15*
X147670000Y-93575000D03*
X148630000Y-93575000D03*
D17*
X184810400Y-65656400D03*
X184810400Y-64696400D03*
D20*
X122047000Y-122379000D03*
X122047000Y-119429000D03*
X122047000Y-78691000D03*
X122047000Y-75741000D03*
D21*
X126174000Y-118646000D03*
X130874000Y-118646000D03*
X130874000Y-122146000D03*
X126174000Y-122146000D03*
X126174000Y-74958000D03*
X130874000Y-74958000D03*
X130874000Y-78458000D03*
X126174000Y-78458000D03*
D22*
X194132500Y-70749000D03*
X194132500Y-71999000D03*
D23*
X197032500Y-68199000D03*
X197032500Y-74549000D03*
D22*
X194132500Y-80401000D03*
X194132500Y-81651000D03*
D23*
X197032500Y-84201000D03*
X197032500Y-77851000D03*
D22*
X194132500Y-61097000D03*
X194132500Y-62347000D03*
D23*
X197032500Y-64897000D03*
X197032500Y-58547000D03*
D22*
X194132500Y-90053000D03*
X194132500Y-91303000D03*
D23*
X197032500Y-93853000D03*
X197032500Y-87503000D03*
D24*
X187960000Y-66464000D03*
X187960000Y-68664000D03*
D25*
X187896500Y-63901500D03*
X187896500Y-61701500D03*
D26*
X153935000Y-84250000D03*
X152915000Y-84250000D03*
D27*
X147640000Y-91600000D03*
X148660000Y-91600000D03*
D28*
X147600000Y-80740000D03*
X147600000Y-81760000D03*
D26*
X137225500Y-105156000D03*
X136205500Y-105156000D03*
X137225500Y-106426000D03*
X136205500Y-106426000D03*
D28*
X184785000Y-67181000D03*
X184785000Y-68201000D03*
D29*
X184785000Y-63121000D03*
X184785000Y-62101000D03*
X173926500Y-84330000D03*
X173926500Y-83310000D03*
D28*
X164274500Y-84580000D03*
X164274500Y-85600000D03*
D30*
X171351300Y-84471000D03*
X171351300Y-84971000D03*
X171351300Y-85471000D03*
X171351300Y-85971000D03*
X171351300Y-86471000D03*
X166951300Y-86471000D03*
X166951300Y-85971000D03*
X166951300Y-85471000D03*
X166951300Y-84971000D03*
X166951300Y-84471000D03*
D31*
X169493100Y-61819000D03*
X169493100Y-62469000D03*
X169493100Y-63119000D03*
X169493100Y-63769000D03*
X169493100Y-64419000D03*
D32*
X168343100Y-65569000D03*
X167693100Y-65569000D03*
X167043100Y-65569000D03*
X166393100Y-65569000D03*
X165743100Y-65569000D03*
D31*
X164593100Y-64419000D03*
X164593100Y-63769000D03*
X164593100Y-63119000D03*
X164593100Y-62469000D03*
X164593100Y-61819000D03*
D32*
X165743100Y-60669000D03*
X166393100Y-60669000D03*
X167043100Y-60669000D03*
X167693100Y-60669000D03*
X168343100Y-60669000D03*
D33*
X167043100Y-63119000D03*
D34*
X172694000Y-95034500D03*
X172694000Y-96134500D03*
X172694000Y-97234500D03*
X172694000Y-98334500D03*
X172694000Y-99434500D03*
X172694000Y-100534500D03*
X172694000Y-101634500D03*
X172694000Y-102734500D03*
D35*
X178394000Y-91359500D03*
X170094000Y-105109500D03*
X178394000Y-105109500D03*
X170094000Y-91359500D03*
D36*
X156514500Y-122159000D03*
X159014500Y-122159000D03*
D15*
X166906000Y-67437000D03*
X167866000Y-67437000D03*
D27*
X167447500Y-81661000D03*
X168467500Y-81661000D03*
D29*
X164274500Y-83441000D03*
X164274500Y-82421000D03*
D37*
X172847000Y-63564000D03*
X172847000Y-65214000D03*
D38*
X174688000Y-66929000D03*
X173038000Y-66929000D03*
D39*
X174625000Y-65214000D03*
X174625000Y-63564000D03*
D40*
X182117000Y-62103000D03*
X178817000Y-62103000D03*
D41*
X178817000Y-64643000D03*
X182117000Y-64643000D03*
D40*
X175767000Y-61341000D03*
X172467000Y-61341000D03*
X182117000Y-67183000D03*
X178817000Y-67183000D03*
D15*
X189480000Y-125510000D03*
X190440000Y-125510000D03*
D42*
X164806000Y-124316500D03*
X166356000Y-124316500D03*
X164806000Y-121014500D03*
X166356000Y-121014500D03*
D15*
X191220000Y-130050000D03*
X192180000Y-130050000D03*
D42*
X189995000Y-135300000D03*
X191545000Y-135300000D03*
D16*
X186753500Y-120678000D03*
X186753500Y-121638000D03*
D15*
X180940000Y-129000000D03*
X181900000Y-129000000D03*
D17*
X186817000Y-126718000D03*
X186817000Y-125758000D03*
D19*
X183880000Y-129000000D03*
X182920000Y-129000000D03*
D15*
X178470000Y-117550000D03*
X179430000Y-117550000D03*
D19*
X174510000Y-125120000D03*
X173550000Y-125120000D03*
D43*
X192030000Y-132450000D03*
X189830000Y-132450000D03*
D44*
X191407500Y-126780000D03*
X191407500Y-128680000D03*
X189532500Y-127730000D03*
D45*
X176529500Y-126186000D03*
X176529500Y-125686000D03*
X176529500Y-125186000D03*
X176529500Y-124686000D03*
X176529500Y-124186000D03*
X176529500Y-123686000D03*
X176529500Y-123186000D03*
X176529500Y-122686000D03*
X176529500Y-122186000D03*
X176529500Y-121686000D03*
X176529500Y-121186000D03*
X176529500Y-120686000D03*
X176529500Y-120186000D03*
X176529500Y-119686000D03*
D46*
X177217000Y-118998500D03*
X177717000Y-118998500D03*
X178217000Y-118998500D03*
X178717000Y-118998500D03*
X179217000Y-118998500D03*
X179717000Y-118998500D03*
X180217000Y-118998500D03*
X180717000Y-118998500D03*
X181217000Y-118998500D03*
X181717000Y-118998500D03*
X182217000Y-118998500D03*
X182717000Y-118998500D03*
X183217000Y-118998500D03*
X183717000Y-118998500D03*
D45*
X184404500Y-119686000D03*
X184404500Y-120186000D03*
X184404500Y-120686000D03*
X184404500Y-121186000D03*
X184404500Y-121686000D03*
X184404500Y-122186000D03*
X184404500Y-122686000D03*
X184404500Y-123186000D03*
X184404500Y-123686000D03*
X184404500Y-124186000D03*
X184404500Y-124686000D03*
X184404500Y-125186000D03*
X184404500Y-125686000D03*
X184404500Y-126186000D03*
D46*
X183717000Y-126873500D03*
X183217000Y-126873500D03*
X182717000Y-126873500D03*
X182217000Y-126873500D03*
X181717000Y-126873500D03*
X181217000Y-126873500D03*
X180717000Y-126873500D03*
X180217000Y-126873500D03*
X179717000Y-126873500D03*
X179217000Y-126873500D03*
X178717000Y-126873500D03*
X178217000Y-126873500D03*
X177717000Y-126873500D03*
X177217000Y-126873500D03*
D47*
X180467000Y-122936000D03*
D28*
X170180000Y-118164500D03*
X170180000Y-119184500D03*
X168973500Y-118164500D03*
X168973500Y-119184500D03*
D48*
X174056000Y-123100000D03*
X173416000Y-123100000D03*
D22*
X194132500Y-117037000D03*
X194132500Y-118287000D03*
X194132500Y-119537000D03*
X194132500Y-120787000D03*
X194132500Y-122037000D03*
X194132500Y-123287000D03*
X194132500Y-124537000D03*
X194132500Y-125787000D03*
D23*
X197032500Y-128337000D03*
X197032500Y-114487000D03*
D17*
X139230000Y-115420000D03*
X139230000Y-114460000D03*
D18*
X141100000Y-78800000D03*
X143000000Y-78800000D03*
D16*
X136080500Y-108486000D03*
X136080500Y-109446000D03*
D17*
X151875000Y-121380000D03*
X151875000Y-120420000D03*
D19*
X160246000Y-89916000D03*
X159286000Y-89916000D03*
D16*
X146325000Y-120570000D03*
X146325000Y-121530000D03*
D49*
X144225000Y-124375000D03*
X142675000Y-124375000D03*
D16*
X135900000Y-127240000D03*
X135900000Y-128200000D03*
D15*
X153088400Y-93472000D03*
X154048400Y-93472000D03*
D16*
X164020500Y-102390000D03*
X164020500Y-103350000D03*
X164020500Y-106962000D03*
X164020500Y-107922000D03*
D17*
X139128500Y-109446000D03*
X139128500Y-108486000D03*
D16*
X160400000Y-121940000D03*
X160400000Y-122900000D03*
X155130000Y-121920000D03*
X155130000Y-122880000D03*
D19*
X158404500Y-92583000D03*
X157444500Y-92583000D03*
D16*
X142825000Y-86695000D03*
X142825000Y-87655000D03*
D19*
X139355000Y-81775000D03*
X138395000Y-81775000D03*
D50*
X135000000Y-94848500D03*
X135000000Y-99701500D03*
D51*
X160324500Y-116580500D03*
X159824500Y-116580500D03*
X159324500Y-116580500D03*
X158824500Y-116580500D03*
X158324500Y-116580500D03*
X157824500Y-116580500D03*
X157324500Y-116580500D03*
X156824500Y-116580500D03*
X156324500Y-116580500D03*
X155824500Y-116580500D03*
X155324500Y-116580500D03*
X154824500Y-116580500D03*
X154324500Y-116580500D03*
X153824500Y-116580500D03*
X153324500Y-116580500D03*
X152824500Y-116580500D03*
X152324500Y-116580500D03*
X151824500Y-116580500D03*
X151324500Y-116580500D03*
X150824500Y-116580500D03*
X150324500Y-116580500D03*
X149824500Y-116580500D03*
X149324500Y-116580500D03*
X148824500Y-116580500D03*
X148324500Y-116580500D03*
X147824500Y-116580500D03*
X147324500Y-116580500D03*
X146824500Y-116580500D03*
X146324500Y-116580500D03*
X145824500Y-116580500D03*
X145324500Y-116580500D03*
X144824500Y-116580500D03*
X144324500Y-116580500D03*
X143824500Y-116580500D03*
X143324500Y-116580500D03*
X142824500Y-116580500D03*
D52*
X140912000Y-114668000D03*
X140912000Y-114168000D03*
X140912000Y-113668000D03*
X140912000Y-113168000D03*
X140912000Y-112668000D03*
X140912000Y-112168000D03*
X140912000Y-111668000D03*
X140912000Y-111168000D03*
X140912000Y-110668000D03*
X140912000Y-110168000D03*
X140912000Y-109668000D03*
X140912000Y-109168000D03*
X140912000Y-108668000D03*
X140912000Y-108168000D03*
X140912000Y-107668000D03*
X140912000Y-107168000D03*
X140912000Y-106668000D03*
X140912000Y-106168000D03*
X140912000Y-105668000D03*
X140912000Y-105168000D03*
X140912000Y-104668000D03*
X140912000Y-104168000D03*
X140912000Y-103668000D03*
X140912000Y-103168000D03*
X140912000Y-102668000D03*
X140912000Y-102168000D03*
X140912000Y-101668000D03*
X140912000Y-101168000D03*
X140912000Y-100668000D03*
X140912000Y-100168000D03*
X140912000Y-99668000D03*
X140912000Y-99168000D03*
X140912000Y-98668000D03*
X140912000Y-98168000D03*
X140912000Y-97668000D03*
X140912000Y-97168000D03*
D51*
X142824500Y-95255500D03*
X143324500Y-95255500D03*
X143824500Y-95255500D03*
X144324500Y-95255500D03*
X144824500Y-95255500D03*
X145324500Y-95255500D03*
X145824500Y-95255500D03*
X146324500Y-95255500D03*
X146824500Y-95255500D03*
X147324500Y-95255500D03*
X147824500Y-95255500D03*
X148324500Y-95255500D03*
X148824500Y-95255500D03*
X149324500Y-95255500D03*
X149824500Y-95255500D03*
X150324500Y-95255500D03*
X150824500Y-95255500D03*
X151324500Y-95255500D03*
X151824500Y-95255500D03*
X152324500Y-95255500D03*
X152824500Y-95255500D03*
X153324500Y-95255500D03*
X153824500Y-95255500D03*
X154324500Y-95255500D03*
X154824500Y-95255500D03*
X155324500Y-95255500D03*
X155824500Y-95255500D03*
X156324500Y-95255500D03*
X156824500Y-95255500D03*
X157324500Y-95255500D03*
X157824500Y-95255500D03*
X158324500Y-95255500D03*
X158824500Y-95255500D03*
X159324500Y-95255500D03*
X159824500Y-95255500D03*
X160324500Y-95255500D03*
D52*
X162237000Y-97168000D03*
X162237000Y-97668000D03*
X162237000Y-98168000D03*
X162237000Y-98668000D03*
X162237000Y-99168000D03*
X162237000Y-99668000D03*
X162237000Y-100168000D03*
X162237000Y-100668000D03*
X162237000Y-101168000D03*
X162237000Y-101668000D03*
X162237000Y-102168000D03*
X162237000Y-102668000D03*
X162237000Y-103168000D03*
X162237000Y-103668000D03*
X162237000Y-104168000D03*
X162237000Y-104668000D03*
X162237000Y-105168000D03*
X162237000Y-105668000D03*
X162237000Y-106168000D03*
X162237000Y-106668000D03*
X162237000Y-107168000D03*
X162237000Y-107668000D03*
X162237000Y-108168000D03*
X162237000Y-108668000D03*
X162237000Y-109168000D03*
X162237000Y-109668000D03*
X162237000Y-110168000D03*
X162237000Y-110668000D03*
X162237000Y-111168000D03*
X162237000Y-111668000D03*
X162237000Y-112168000D03*
X162237000Y-112668000D03*
X162237000Y-113168000D03*
X162237000Y-113668000D03*
X162237000Y-114168000D03*
X162237000Y-114668000D03*
D27*
X165946500Y-105791000D03*
X166966500Y-105791000D03*
X165923500Y-106934000D03*
X166943500Y-106934000D03*
D53*
X171655000Y-72898000D03*
X168705000Y-72898000D03*
D19*
X171930000Y-75057000D03*
X170970000Y-75057000D03*
D18*
X163515000Y-72898000D03*
X165415000Y-72898000D03*
D54*
X182323000Y-58420000D03*
X179373000Y-58420000D03*
X175325000Y-108400000D03*
X172375000Y-108400000D03*
D55*
X127176000Y-105029000D03*
X130126000Y-105029000D03*
D56*
X189575000Y-109325000D03*
X189575000Y-106375000D03*
D57*
X189738000Y-91870000D03*
X189738000Y-94820000D03*
X191000000Y-111275000D03*
X191000000Y-114225000D03*
D58*
X175514000Y-77864500D03*
X175514000Y-73011500D03*
D59*
X163054500Y-77089000D03*
X167907500Y-77089000D03*
D26*
X171960000Y-70612000D03*
X170940000Y-70612000D03*
D60*
X186841500Y-75593000D03*
X186841500Y-76093000D03*
X186841500Y-76593000D03*
X186841500Y-77093000D03*
X186841500Y-77593000D03*
X186841500Y-78093000D03*
X186841500Y-78593000D03*
X186841500Y-79093000D03*
D61*
X186154000Y-79780500D03*
X185654000Y-79780500D03*
X185154000Y-79780500D03*
X184654000Y-79780500D03*
X184154000Y-79780500D03*
X183654000Y-79780500D03*
X183154000Y-79780500D03*
X182654000Y-79780500D03*
D60*
X181966500Y-79093000D03*
X181966500Y-78593000D03*
X181966500Y-78093000D03*
X181966500Y-77593000D03*
X181966500Y-77093000D03*
X181966500Y-76593000D03*
X181966500Y-76093000D03*
X181966500Y-75593000D03*
D61*
X182654000Y-74905500D03*
X183154000Y-74905500D03*
X183654000Y-74905500D03*
X184154000Y-74905500D03*
X184654000Y-74905500D03*
X185154000Y-74905500D03*
X185654000Y-74905500D03*
X186154000Y-74905500D03*
D62*
X184404000Y-77343000D03*
D63*
X170140000Y-76672000D03*
X170590000Y-76672000D03*
X171040000Y-76672000D03*
X171490000Y-76672000D03*
X171490000Y-78522000D03*
X171040000Y-78522000D03*
X170590000Y-78522000D03*
X170140000Y-78522000D03*
D64*
X170815000Y-77597000D03*
D65*
X134800000Y-107112500D03*
D66*
X134650000Y-126625000D03*
X134650000Y-127275000D03*
X134650000Y-127925000D03*
X134650000Y-128575000D03*
X131550000Y-128575000D03*
X131550000Y-127925000D03*
X131550000Y-127275000D03*
X131550000Y-126625000D03*
D67*
X133100000Y-127600000D03*
D68*
X144285000Y-131000000D03*
X143035000Y-131000000D03*
D69*
X140485000Y-133900000D03*
X146835000Y-133900000D03*
D27*
X119250000Y-56110000D03*
X120270000Y-56110000D03*
D19*
X175830000Y-129150000D03*
X174870000Y-129150000D03*
D70*
X150200000Y-121950000D03*
X148000000Y-121950000D03*
X148000000Y-120250000D03*
X150200000Y-120250000D03*
D29*
X148100000Y-127080000D03*
X148100000Y-126060000D03*
D71*
X156650000Y-85150000D03*
D17*
X165450000Y-128880000D03*
X165450000Y-127920000D03*
D72*
X177450000Y-111425000D03*
X177450000Y-109875000D03*
D17*
X178150000Y-129180000D03*
X178150000Y-128220000D03*
D26*
X120970000Y-51470000D03*
X119950000Y-51470000D03*
D15*
X139070000Y-129125000D03*
X140030000Y-129125000D03*
D17*
X149120000Y-127030000D03*
X149120000Y-126070000D03*
D72*
X172100000Y-115775000D03*
X172100000Y-114225000D03*
D42*
X142725000Y-121550000D03*
X144275000Y-121550000D03*
D26*
X187520000Y-102580000D03*
X186500000Y-102580000D03*
D65*
X134800000Y-105337500D03*
D19*
X152630000Y-71925000D03*
X151670000Y-71925000D03*
D29*
X139410000Y-127620000D03*
X139410000Y-126600000D03*
D73*
X147432000Y-55014000D03*
X148532000Y-55014000D03*
X149632000Y-55014000D03*
X150732000Y-55014000D03*
X151832000Y-55014000D03*
X152932000Y-55014000D03*
X154032000Y-55014000D03*
X157032000Y-55014000D03*
X158132000Y-55014000D03*
X159232000Y-55014000D03*
X160332000Y-55014000D03*
X161432000Y-55014000D03*
X161432000Y-67414000D03*
X160332000Y-67414000D03*
X159232000Y-67414000D03*
X158132000Y-67414000D03*
X157032000Y-67414000D03*
X154032000Y-67414000D03*
X152932000Y-67414000D03*
X151832000Y-67414000D03*
X150732000Y-67414000D03*
X149632000Y-67414000D03*
X148532000Y-67414000D03*
X147432000Y-67414000D03*
D16*
X174950000Y-115120000D03*
X174950000Y-116080000D03*
D68*
X162205000Y-131000000D03*
X160955000Y-131000000D03*
D69*
X164755000Y-133900000D03*
X158405000Y-133900000D03*
D27*
X169690000Y-110350000D03*
X170710000Y-110350000D03*
D29*
X166560000Y-128880000D03*
X166560000Y-127860000D03*
D68*
X171165000Y-131000000D03*
X169915000Y-131000000D03*
D69*
X173715000Y-133900000D03*
X167365000Y-133900000D03*
D17*
X138360000Y-127570000D03*
X138360000Y-126610000D03*
D42*
X141075000Y-76575000D03*
X142625000Y-76575000D03*
D74*
X184837500Y-104950000D03*
X186662500Y-104950000D03*
D75*
X159562500Y-126425000D03*
X159562500Y-127075000D03*
X159562500Y-127725000D03*
X159562500Y-128375000D03*
X155337500Y-128375000D03*
X155337500Y-127725000D03*
X155337500Y-127075000D03*
X155337500Y-126425000D03*
D76*
X170200000Y-121100000D03*
X170200000Y-124400000D03*
X168200000Y-124400000D03*
X168200000Y-121100000D03*
D28*
X165575000Y-95465000D03*
X165575000Y-96485000D03*
D77*
X135422000Y-54216000D03*
X136672000Y-54216000D03*
X137922000Y-54216000D03*
X139172000Y-54216000D03*
X140422000Y-54216000D03*
D78*
X142972000Y-51316000D03*
X132872000Y-51316000D03*
D27*
X152915000Y-85275000D03*
X153935000Y-85275000D03*
D29*
X122770000Y-55330000D03*
X122770000Y-54310000D03*
X150300000Y-78935000D03*
X150300000Y-77915000D03*
D19*
X145505000Y-118125000D03*
X144545000Y-118125000D03*
D79*
X188850000Y-100712500D03*
X189800000Y-100712500D03*
X190750000Y-100712500D03*
X190750000Y-102987500D03*
X189800000Y-102987500D03*
X188850000Y-102987500D03*
D80*
X182600000Y-112887500D03*
X183100000Y-112887500D03*
X183600000Y-112887500D03*
X184100000Y-112887500D03*
D81*
X184812500Y-113600000D03*
X184812500Y-114100000D03*
X184812500Y-114600000D03*
X184812500Y-115100000D03*
D80*
X184100000Y-115812500D03*
X183600000Y-115812500D03*
X183100000Y-115812500D03*
X182600000Y-115812500D03*
D81*
X181887500Y-115100000D03*
X181887500Y-114600000D03*
X181887500Y-114100000D03*
X181887500Y-113600000D03*
D82*
X183350000Y-114350000D03*
D83*
X160350000Y-52612000D03*
D84*
X161825000Y-51087000D03*
X158875000Y-51087000D03*
D85*
X162460000Y-122740000D03*
D86*
X162460000Y-121440000D03*
D71*
X116100000Y-130650000D03*
D38*
X182775000Y-111425000D03*
X181125000Y-111425000D03*
D29*
X162170000Y-126860000D03*
X162170000Y-125840000D03*
X154940000Y-91696000D03*
X154940000Y-90676000D03*
D15*
X136895000Y-91550000D03*
X137855000Y-91550000D03*
X190095000Y-104500000D03*
X191055000Y-104500000D03*
D87*
X120967500Y-52830000D03*
X120967500Y-53780000D03*
X120967500Y-54730000D03*
X118692500Y-54730000D03*
X118692500Y-53780000D03*
X118692500Y-52830000D03*
D88*
X160800000Y-78145000D03*
X160800000Y-79415000D03*
X160800000Y-80685000D03*
X160800000Y-81955000D03*
X155000000Y-81955000D03*
X155000000Y-80685000D03*
X155000000Y-79415000D03*
X155000000Y-78145000D03*
D89*
X157900000Y-80050000D03*
D29*
X152700000Y-78960000D03*
X152700000Y-77940000D03*
D26*
X168810000Y-89075000D03*
X167790000Y-89075000D03*
X148560000Y-73450000D03*
X147540000Y-73450000D03*
D15*
X189500000Y-99000000D03*
X190460000Y-99000000D03*
D65*
X135125000Y-118200000D03*
D38*
X179875000Y-116200000D03*
X178225000Y-116200000D03*
D90*
X150178100Y-84625000D03*
X149178100Y-84625000D03*
X148178100Y-84625000D03*
X147178100Y-84625000D03*
X151178100Y-85625000D03*
X150178100Y-85625000D03*
X149178100Y-85625000D03*
X148178100Y-85625000D03*
X147178100Y-85625000D03*
X151178100Y-86625000D03*
X150178100Y-86625000D03*
X149178100Y-86625000D03*
X148178100Y-86625000D03*
X147178100Y-86625000D03*
X151178100Y-87625000D03*
X150178100Y-87625000D03*
X149178100Y-87625000D03*
X148178100Y-87625000D03*
X147178100Y-87625000D03*
X151178100Y-88625000D03*
X150178100Y-88625000D03*
X149178100Y-88625000D03*
X148178100Y-88625000D03*
X147178100Y-88625000D03*
D87*
X152662500Y-73250000D03*
X152662500Y-74200000D03*
X152662500Y-75150000D03*
X150387500Y-75150000D03*
X150387500Y-74200000D03*
X150387500Y-73250000D03*
D16*
X161225000Y-128140000D03*
X161225000Y-129100000D03*
D68*
X180125000Y-131000000D03*
X178875000Y-131000000D03*
D69*
X176325000Y-133900000D03*
X182675000Y-133900000D03*
D75*
X145812500Y-126425000D03*
X145812500Y-127075000D03*
X145812500Y-127725000D03*
X145812500Y-128375000D03*
X141587500Y-128375000D03*
X141587500Y-127725000D03*
X141587500Y-127075000D03*
X141587500Y-126425000D03*
D91*
X190000000Y-97150000D03*
X192950000Y-97150000D03*
D26*
X161160000Y-83870000D03*
X160140000Y-83870000D03*
X159830000Y-124060000D03*
X158810000Y-124060000D03*
D16*
X122760000Y-52010000D03*
X122760000Y-52970000D03*
D68*
X153245000Y-131000000D03*
X151995000Y-131000000D03*
D69*
X149445000Y-133900000D03*
X155795000Y-133900000D03*
D17*
X151280000Y-127990000D03*
X151280000Y-127030000D03*
D75*
X173312500Y-126425000D03*
X173312500Y-127075000D03*
X173312500Y-127725000D03*
X173312500Y-128375000D03*
X169087500Y-128375000D03*
X169087500Y-127725000D03*
X169087500Y-127075000D03*
X169087500Y-126425000D03*
D77*
X169458000Y-54216000D03*
X170708000Y-54216000D03*
X171958000Y-54216000D03*
X173208000Y-54216000D03*
X174458000Y-54216000D03*
D78*
X166908000Y-51316000D03*
X177008000Y-51316000D03*
D17*
X163340000Y-126810000D03*
X163340000Y-125850000D03*
D29*
X152400000Y-128020000D03*
X152400000Y-127000000D03*
D42*
X186450000Y-114400000D03*
X188000000Y-114400000D03*
D65*
X174375000Y-81325000D03*
D19*
X148480000Y-69342000D03*
X147520000Y-69342000D03*
D53*
X149303000Y-71120000D03*
X146353000Y-71120000D03*
D65*
X135125000Y-119925000D03*
D29*
X177100000Y-129210000D03*
X177100000Y-128190000D03*
D27*
X169690000Y-115050000D03*
X170710000Y-115050000D03*
D26*
X179110000Y-114900000D03*
X178090000Y-114900000D03*
D74*
X186487500Y-112450000D03*
X188312500Y-112450000D03*
X186675000Y-117650000D03*
X188500000Y-117650000D03*
D65*
X128850000Y-81150000D03*
D90*
X139903100Y-84650000D03*
X138903100Y-84650000D03*
X137903100Y-84650000D03*
X136903100Y-84650000D03*
X140903100Y-85650000D03*
X139903100Y-85650000D03*
X138903100Y-85650000D03*
X137903100Y-85650000D03*
X136903100Y-85650000D03*
X140903100Y-86650000D03*
X139903100Y-86650000D03*
X138903100Y-86650000D03*
X137903100Y-86650000D03*
X136903100Y-86650000D03*
X140903100Y-87650000D03*
X139903100Y-87650000D03*
X138903100Y-87650000D03*
X137903100Y-87650000D03*
X136903100Y-87650000D03*
X140903100Y-88650000D03*
X139903100Y-88650000D03*
X138903100Y-88650000D03*
X137903100Y-88650000D03*
X136903100Y-88650000D03*
D65*
X172150000Y-81325000D03*
D92*
X187125000Y-107275000D03*
X187125000Y-108825000D03*
D93*
X138850000Y-98750000D03*
X138850000Y-96850000D03*
D65*
X128850000Y-82875000D03*
D80*
X182600000Y-107037500D03*
X183100000Y-107037500D03*
X183600000Y-107037500D03*
X184100000Y-107037500D03*
D81*
X184812500Y-107750000D03*
X184812500Y-108250000D03*
X184812500Y-108750000D03*
X184812500Y-109250000D03*
D80*
X184100000Y-109962500D03*
X183600000Y-109962500D03*
X183100000Y-109962500D03*
X182600000Y-109962500D03*
D81*
X181887500Y-109250000D03*
X181887500Y-108750000D03*
X181887500Y-108250000D03*
X181887500Y-107750000D03*
D82*
X183350000Y-108500000D03*
D94*
X154875000Y-73300000D03*
X154875000Y-76250000D03*
D26*
X176200000Y-110600000D03*
X175180000Y-110600000D03*
D72*
X173650000Y-116925000D03*
X173650000Y-115375000D03*
D15*
X175160000Y-111675000D03*
X176120000Y-111675000D03*
X158524000Y-75184000D03*
X159484000Y-75184000D03*
D22*
X194125000Y-99425000D03*
X194125000Y-100675000D03*
X194125000Y-101925000D03*
X194125000Y-103175000D03*
X194125000Y-104425000D03*
X194125000Y-105675000D03*
X194125000Y-106925000D03*
X194125000Y-108175000D03*
D23*
X197025000Y-96875000D03*
X197025000Y-110725000D03*
D68*
X135325000Y-131000000D03*
X134075000Y-131000000D03*
D69*
X137875000Y-133900000D03*
X131525000Y-133900000D03*
M02*
