%TF.GenerationSoftware,KiCad,Pcbnew,(6.0.7)*%
%TF.CreationDate,2022-08-16T23:53:48+08:00*%
%TF.ProjectId,adapter_board,61646170-7465-4725-9f62-6f6172642e6b,rev?*%
%TF.SameCoordinates,Original*%
%TF.FileFunction,Legend,Bot*%
%TF.FilePolarity,Positive*%
%FSLAX46Y46*%
G04 Gerber Fmt 4.6, Leading zero omitted, Abs format (unit mm)*
G04 Created by KiCad (PCBNEW (6.0.7)) date 2022-08-16 23:53:48*
%MOMM*%
%LPD*%
G01*
G04 APERTURE LIST*
%ADD10C,0.160000*%
%ADD11C,0.400000*%
%ADD12C,0.330000*%
%ADD13C,0.010000*%
%ADD14C,5.600000*%
%ADD15R,1.600000X1.600000*%
%ADD16C,1.600000*%
G04 APERTURE END LIST*
D10*
X177642857Y-127352380D02*
X178119047Y-127352380D01*
X178119047Y-126352380D01*
X177309523Y-127352380D02*
X177309523Y-126685714D01*
X177309523Y-126352380D02*
X177357142Y-126400000D01*
X177309523Y-126447619D01*
X177261904Y-126400000D01*
X177309523Y-126352380D01*
X177309523Y-126447619D01*
X176833333Y-126685714D02*
X176833333Y-127352380D01*
X176833333Y-126780952D02*
X176785714Y-126733333D01*
X176690476Y-126685714D01*
X176547619Y-126685714D01*
X176452380Y-126733333D01*
X176404761Y-126828571D01*
X176404761Y-127352380D01*
X174976190Y-126876190D02*
X174976190Y-127352380D01*
X175309523Y-126352380D02*
X174976190Y-126876190D01*
X174642857Y-126352380D01*
X174309523Y-127352380D02*
X174309523Y-126685714D01*
X174309523Y-126352380D02*
X174357142Y-126400000D01*
X174309523Y-126447619D01*
X174261904Y-126400000D01*
X174309523Y-126352380D01*
X174309523Y-126447619D01*
X173404761Y-127304761D02*
X173500000Y-127352380D01*
X173690476Y-127352380D01*
X173785714Y-127304761D01*
X173833333Y-127257142D01*
X173880952Y-127161904D01*
X173880952Y-126876190D01*
X173833333Y-126780952D01*
X173785714Y-126733333D01*
X173690476Y-126685714D01*
X173500000Y-126685714D01*
X173404761Y-126733333D01*
X172976190Y-127352380D02*
X172976190Y-126352380D01*
X172547619Y-127352380D02*
X172547619Y-126828571D01*
X172595238Y-126733333D01*
X172690476Y-126685714D01*
X172833333Y-126685714D01*
X172928571Y-126733333D01*
X172976190Y-126780952D01*
X171690476Y-127304761D02*
X171785714Y-127352380D01*
X171976190Y-127352380D01*
X172071428Y-127304761D01*
X172119047Y-127209523D01*
X172119047Y-126828571D01*
X172071428Y-126733333D01*
X171976190Y-126685714D01*
X171785714Y-126685714D01*
X171690476Y-126733333D01*
X171642857Y-126828571D01*
X171642857Y-126923809D01*
X172119047Y-127019047D01*
X171214285Y-126685714D02*
X171214285Y-127352380D01*
X171214285Y-126780952D02*
X171166666Y-126733333D01*
X171071428Y-126685714D01*
X170928571Y-126685714D01*
X170833333Y-126733333D01*
X170785714Y-126828571D01*
X170785714Y-127352380D01*
X169880952Y-126685714D02*
X169880952Y-127495238D01*
X169928571Y-127590476D01*
X169976190Y-127638095D01*
X170071428Y-127685714D01*
X170214285Y-127685714D01*
X170309523Y-127638095D01*
X169880952Y-127304761D02*
X169976190Y-127352380D01*
X170166666Y-127352380D01*
X170261904Y-127304761D01*
X170309523Y-127257142D01*
X170357142Y-127161904D01*
X170357142Y-126876190D01*
X170309523Y-126780952D01*
X170261904Y-126733333D01*
X170166666Y-126685714D01*
X169976190Y-126685714D01*
X169880952Y-126733333D01*
D11*
X134800000Y-125600000D02*
X178400000Y-125600000D01*
D12*
X178023809Y-124304761D02*
X178023809Y-122304761D01*
X176880952Y-124304761D01*
X176880952Y-122304761D01*
X175928571Y-122304761D02*
X175928571Y-123923809D01*
X175833333Y-124114285D01*
X175738095Y-124209523D01*
X175547619Y-124304761D01*
X175166666Y-124304761D01*
X174976190Y-124209523D01*
X174880952Y-124114285D01*
X174785714Y-123923809D01*
X174785714Y-122304761D01*
X173928571Y-124209523D02*
X173642857Y-124304761D01*
X173166666Y-124304761D01*
X172976190Y-124209523D01*
X172880952Y-124114285D01*
X172785714Y-123923809D01*
X172785714Y-123733333D01*
X172880952Y-123542857D01*
X172976190Y-123447619D01*
X173166666Y-123352380D01*
X173547619Y-123257142D01*
X173738095Y-123161904D01*
X173833333Y-123066666D01*
X173928571Y-122876190D01*
X173928571Y-122685714D01*
X173833333Y-122495238D01*
X173738095Y-122400000D01*
X173547619Y-122304761D01*
X173071428Y-122304761D01*
X172785714Y-122400000D01*
X171928571Y-124304761D02*
X171928571Y-122304761D01*
X171928571Y-123257142D02*
X170785714Y-123257142D01*
X170785714Y-124304761D02*
X170785714Y-122304761D01*
X169928571Y-124209523D02*
X169642857Y-124304761D01*
X169166666Y-124304761D01*
X168976190Y-124209523D01*
X168880952Y-124114285D01*
X168785714Y-123923809D01*
X168785714Y-123733333D01*
X168880952Y-123542857D01*
X168976190Y-123447619D01*
X169166666Y-123352380D01*
X169547619Y-123257142D01*
X169738095Y-123161904D01*
X169833333Y-123066666D01*
X169928571Y-122876190D01*
X169928571Y-122685714D01*
X169833333Y-122495238D01*
X169738095Y-122400000D01*
X169547619Y-122304761D01*
X169071428Y-122304761D01*
X168785714Y-122400000D01*
X167071428Y-124304761D02*
X167071428Y-123257142D01*
X167166666Y-123066666D01*
X167357142Y-122971428D01*
X167738095Y-122971428D01*
X167928571Y-123066666D01*
X167071428Y-124209523D02*
X167261904Y-124304761D01*
X167738095Y-124304761D01*
X167928571Y-124209523D01*
X168023809Y-124019047D01*
X168023809Y-123828571D01*
X167928571Y-123638095D01*
X167738095Y-123542857D01*
X167261904Y-123542857D01*
X167071428Y-123447619D01*
X166404761Y-122971428D02*
X165642857Y-122971428D01*
X166119047Y-122304761D02*
X166119047Y-124019047D01*
X166023809Y-124209523D01*
X165833333Y-124304761D01*
X165642857Y-124304761D01*
X163547619Y-123733333D02*
X162595238Y-123733333D01*
X163738095Y-124304761D02*
X163071428Y-122304761D01*
X162404761Y-124304761D01*
X160880952Y-124304761D02*
X160880952Y-122304761D01*
X160880952Y-124209523D02*
X161071428Y-124304761D01*
X161452380Y-124304761D01*
X161642857Y-124209523D01*
X161738095Y-124114285D01*
X161833333Y-123923809D01*
X161833333Y-123352380D01*
X161738095Y-123161904D01*
X161642857Y-123066666D01*
X161452380Y-122971428D01*
X161071428Y-122971428D01*
X160880952Y-123066666D01*
X159071428Y-124304761D02*
X159071428Y-123257142D01*
X159166666Y-123066666D01*
X159357142Y-122971428D01*
X159738095Y-122971428D01*
X159928571Y-123066666D01*
X159071428Y-124209523D02*
X159261904Y-124304761D01*
X159738095Y-124304761D01*
X159928571Y-124209523D01*
X160023809Y-124019047D01*
X160023809Y-123828571D01*
X159928571Y-123638095D01*
X159738095Y-123542857D01*
X159261904Y-123542857D01*
X159071428Y-123447619D01*
X158119047Y-122971428D02*
X158119047Y-124971428D01*
X158119047Y-123066666D02*
X157928571Y-122971428D01*
X157547619Y-122971428D01*
X157357142Y-123066666D01*
X157261904Y-123161904D01*
X157166666Y-123352380D01*
X157166666Y-123923809D01*
X157261904Y-124114285D01*
X157357142Y-124209523D01*
X157547619Y-124304761D01*
X157928571Y-124304761D01*
X158119047Y-124209523D01*
X156595238Y-122971428D02*
X155833333Y-122971428D01*
X156309523Y-122304761D02*
X156309523Y-124019047D01*
X156214285Y-124209523D01*
X156023809Y-124304761D01*
X155833333Y-124304761D01*
X154404761Y-124209523D02*
X154595238Y-124304761D01*
X154976190Y-124304761D01*
X155166666Y-124209523D01*
X155261904Y-124019047D01*
X155261904Y-123257142D01*
X155166666Y-123066666D01*
X154976190Y-122971428D01*
X154595238Y-122971428D01*
X154404761Y-123066666D01*
X154309523Y-123257142D01*
X154309523Y-123447619D01*
X155261904Y-123638095D01*
X153452380Y-124304761D02*
X153452380Y-122971428D01*
X153452380Y-123352380D02*
X153357142Y-123161904D01*
X153261904Y-123066666D01*
X153071428Y-122971428D01*
X152880952Y-122971428D01*
X150023809Y-123257142D02*
X149738095Y-123352380D01*
X149642857Y-123447619D01*
X149547619Y-123638095D01*
X149547619Y-123923809D01*
X149642857Y-124114285D01*
X149738095Y-124209523D01*
X149928571Y-124304761D01*
X150690476Y-124304761D01*
X150690476Y-122304761D01*
X150023809Y-122304761D01*
X149833333Y-122400000D01*
X149738095Y-122495238D01*
X149642857Y-122685714D01*
X149642857Y-122876190D01*
X149738095Y-123066666D01*
X149833333Y-123161904D01*
X150023809Y-123257142D01*
X150690476Y-123257142D01*
X148404761Y-124304761D02*
X148595238Y-124209523D01*
X148690476Y-124114285D01*
X148785714Y-123923809D01*
X148785714Y-123352380D01*
X148690476Y-123161904D01*
X148595238Y-123066666D01*
X148404761Y-122971428D01*
X148119047Y-122971428D01*
X147928571Y-123066666D01*
X147833333Y-123161904D01*
X147738095Y-123352380D01*
X147738095Y-123923809D01*
X147833333Y-124114285D01*
X147928571Y-124209523D01*
X148119047Y-124304761D01*
X148404761Y-124304761D01*
X146023809Y-124304761D02*
X146023809Y-123257142D01*
X146119047Y-123066666D01*
X146309523Y-122971428D01*
X146690476Y-122971428D01*
X146880952Y-123066666D01*
X146023809Y-124209523D02*
X146214285Y-124304761D01*
X146690476Y-124304761D01*
X146880952Y-124209523D01*
X146976190Y-124019047D01*
X146976190Y-123828571D01*
X146880952Y-123638095D01*
X146690476Y-123542857D01*
X146214285Y-123542857D01*
X146023809Y-123447619D01*
X145071428Y-124304761D02*
X145071428Y-122971428D01*
X145071428Y-123352380D02*
X144976190Y-123161904D01*
X144880952Y-123066666D01*
X144690476Y-122971428D01*
X144500000Y-122971428D01*
X142976190Y-124304761D02*
X142976190Y-122304761D01*
X142976190Y-124209523D02*
X143166666Y-124304761D01*
X143547619Y-124304761D01*
X143738095Y-124209523D01*
X143833333Y-124114285D01*
X143928571Y-123923809D01*
X143928571Y-123352380D01*
X143833333Y-123161904D01*
X143738095Y-123066666D01*
X143547619Y-122971428D01*
X143166666Y-122971428D01*
X142976190Y-123066666D01*
X140785714Y-122304761D02*
X140119047Y-124304761D01*
X139452380Y-122304761D01*
X137738095Y-124304761D02*
X138880952Y-124304761D01*
X138309523Y-124304761D02*
X138309523Y-122304761D01*
X138500000Y-122590476D01*
X138690476Y-122780952D01*
X138880952Y-122876190D01*
X136880952Y-124114285D02*
X136785714Y-124209523D01*
X136880952Y-124304761D01*
X136976190Y-124209523D01*
X136880952Y-124114285D01*
X136880952Y-124304761D01*
X135547619Y-122304761D02*
X135357142Y-122304761D01*
X135166666Y-122400000D01*
X135071428Y-122495238D01*
X134976190Y-122685714D01*
X134880952Y-123066666D01*
X134880952Y-123542857D01*
X134976190Y-123923809D01*
X135071428Y-124114285D01*
X135166666Y-124209523D01*
X135357142Y-124304761D01*
X135547619Y-124304761D01*
X135738095Y-124209523D01*
X135833333Y-124114285D01*
X135928571Y-123923809D01*
X136023809Y-123542857D01*
X136023809Y-123066666D01*
X135928571Y-122685714D01*
X135833333Y-122495238D01*
X135738095Y-122400000D01*
X135547619Y-122304761D01*
%TO.C,G\u002A\u002A\u002A*%
G36*
X193418125Y-122329222D02*
G01*
X193459588Y-122329017D01*
X193499974Y-122330919D01*
X193534420Y-122339302D01*
X193563397Y-122358554D01*
X193587379Y-122393060D01*
X193606836Y-122447205D01*
X193622242Y-122525376D01*
X193634067Y-122631959D01*
X193642785Y-122771339D01*
X193648866Y-122947904D01*
X193652783Y-123166038D01*
X193655008Y-123430128D01*
X193656013Y-123744559D01*
X193656269Y-124113719D01*
X193656250Y-124541992D01*
X193656244Y-124791035D01*
X193656040Y-125186060D01*
X193655260Y-125525573D01*
X193653514Y-125814684D01*
X193650414Y-126058502D01*
X193645571Y-126262135D01*
X193638597Y-126430693D01*
X193629103Y-126569285D01*
X193616700Y-126683019D01*
X193601001Y-126777005D01*
X193581615Y-126856351D01*
X193558156Y-126926167D01*
X193530233Y-126991561D01*
X193497460Y-127057643D01*
X193459446Y-127129522D01*
X193384871Y-127249101D01*
X193214067Y-127444077D01*
X193004483Y-127612239D01*
X192771436Y-127742165D01*
X192530237Y-127822435D01*
X192503821Y-127827608D01*
X192307921Y-127843958D01*
X192086431Y-127832710D01*
X191865385Y-127796432D01*
X191670816Y-127737690D01*
X191440032Y-127613745D01*
X191230811Y-127438559D01*
X191054588Y-127224746D01*
X190918924Y-126983375D01*
X190831383Y-126725518D01*
X190799527Y-126462244D01*
X190814774Y-126350347D01*
X190869244Y-126248424D01*
X190954607Y-126189398D01*
X191061800Y-126182922D01*
X191114665Y-126195146D01*
X191169226Y-126220109D01*
X191205321Y-126265989D01*
X191232358Y-126346730D01*
X191259745Y-126476274D01*
X191285012Y-126590430D01*
X191320008Y-126718983D01*
X191353254Y-126815080D01*
X191383269Y-126876421D01*
X191503332Y-127041494D01*
X191664746Y-127186830D01*
X191851250Y-127296700D01*
X191936572Y-127332941D01*
X192036939Y-127363763D01*
X192138431Y-127374159D01*
X192271857Y-127369458D01*
X192354564Y-127361296D01*
X192594583Y-127300574D01*
X192799006Y-127187313D01*
X192967164Y-127021969D01*
X193098388Y-126805000D01*
X193179380Y-126630375D01*
X193179690Y-124572475D01*
X193179691Y-124568628D01*
X193179734Y-124137706D01*
X193180035Y-123765891D01*
X193181058Y-123448828D01*
X193183265Y-123182161D01*
X193187120Y-122961534D01*
X193193085Y-122782592D01*
X193201623Y-122640979D01*
X193213197Y-122532339D01*
X193228271Y-122452316D01*
X193247307Y-122396555D01*
X193270769Y-122360700D01*
X193299118Y-122340394D01*
X193332819Y-122331284D01*
X193372334Y-122329011D01*
X193418125Y-122329222D01*
G37*
D13*
X193418125Y-122329222D02*
X193459588Y-122329017D01*
X193499974Y-122330919D01*
X193534420Y-122339302D01*
X193563397Y-122358554D01*
X193587379Y-122393060D01*
X193606836Y-122447205D01*
X193622242Y-122525376D01*
X193634067Y-122631959D01*
X193642785Y-122771339D01*
X193648866Y-122947904D01*
X193652783Y-123166038D01*
X193655008Y-123430128D01*
X193656013Y-123744559D01*
X193656269Y-124113719D01*
X193656250Y-124541992D01*
X193656244Y-124791035D01*
X193656040Y-125186060D01*
X193655260Y-125525573D01*
X193653514Y-125814684D01*
X193650414Y-126058502D01*
X193645571Y-126262135D01*
X193638597Y-126430693D01*
X193629103Y-126569285D01*
X193616700Y-126683019D01*
X193601001Y-126777005D01*
X193581615Y-126856351D01*
X193558156Y-126926167D01*
X193530233Y-126991561D01*
X193497460Y-127057643D01*
X193459446Y-127129522D01*
X193384871Y-127249101D01*
X193214067Y-127444077D01*
X193004483Y-127612239D01*
X192771436Y-127742165D01*
X192530237Y-127822435D01*
X192503821Y-127827608D01*
X192307921Y-127843958D01*
X192086431Y-127832710D01*
X191865385Y-127796432D01*
X191670816Y-127737690D01*
X191440032Y-127613745D01*
X191230811Y-127438559D01*
X191054588Y-127224746D01*
X190918924Y-126983375D01*
X190831383Y-126725518D01*
X190799527Y-126462244D01*
X190814774Y-126350347D01*
X190869244Y-126248424D01*
X190954607Y-126189398D01*
X191061800Y-126182922D01*
X191114665Y-126195146D01*
X191169226Y-126220109D01*
X191205321Y-126265989D01*
X191232358Y-126346730D01*
X191259745Y-126476274D01*
X191285012Y-126590430D01*
X191320008Y-126718983D01*
X191353254Y-126815080D01*
X191383269Y-126876421D01*
X191503332Y-127041494D01*
X191664746Y-127186830D01*
X191851250Y-127296700D01*
X191936572Y-127332941D01*
X192036939Y-127363763D01*
X192138431Y-127374159D01*
X192271857Y-127369458D01*
X192354564Y-127361296D01*
X192594583Y-127300574D01*
X192799006Y-127187313D01*
X192967164Y-127021969D01*
X193098388Y-126805000D01*
X193179380Y-126630375D01*
X193179690Y-124572475D01*
X193179691Y-124568628D01*
X193179734Y-124137706D01*
X193180035Y-123765891D01*
X193181058Y-123448828D01*
X193183265Y-123182161D01*
X193187120Y-122961534D01*
X193193085Y-122782592D01*
X193201623Y-122640979D01*
X193213197Y-122532339D01*
X193228271Y-122452316D01*
X193247307Y-122396555D01*
X193270769Y-122360700D01*
X193299118Y-122340394D01*
X193332819Y-122331284D01*
X193372334Y-122329011D01*
X193418125Y-122329222D01*
G36*
X187058586Y-127318531D02*
G01*
X187084000Y-127360625D01*
X187089532Y-127382835D01*
X187131625Y-127408250D01*
X187153836Y-127413781D01*
X187179250Y-127455875D01*
X187173940Y-127478046D01*
X187133365Y-127503500D01*
X187118642Y-127507253D01*
X187091844Y-127552133D01*
X187077803Y-127653034D01*
X187076334Y-127674046D01*
X187064287Y-127758222D01*
X187038409Y-127801181D01*
X186988750Y-127821774D01*
X186967120Y-127825856D01*
X186910238Y-127819728D01*
X186896897Y-127790467D01*
X186937020Y-127751544D01*
X186959769Y-127729723D01*
X186984427Y-127666562D01*
X186989803Y-127591888D01*
X186975501Y-127529576D01*
X186941125Y-127503500D01*
X186918915Y-127497968D01*
X186893500Y-127455875D01*
X186899032Y-127433664D01*
X186941125Y-127408250D01*
X186963336Y-127402718D01*
X186988750Y-127360625D01*
X186994282Y-127338414D01*
X187036375Y-127313000D01*
X187058586Y-127318531D01*
G37*
X187058586Y-127318531D02*
X187084000Y-127360625D01*
X187089532Y-127382835D01*
X187131625Y-127408250D01*
X187153836Y-127413781D01*
X187179250Y-127455875D01*
X187173940Y-127478046D01*
X187133365Y-127503500D01*
X187118642Y-127507253D01*
X187091844Y-127552133D01*
X187077803Y-127653034D01*
X187076334Y-127674046D01*
X187064287Y-127758222D01*
X187038409Y-127801181D01*
X186988750Y-127821774D01*
X186967120Y-127825856D01*
X186910238Y-127819728D01*
X186896897Y-127790467D01*
X186937020Y-127751544D01*
X186959769Y-127729723D01*
X186984427Y-127666562D01*
X186989803Y-127591888D01*
X186975501Y-127529576D01*
X186941125Y-127503500D01*
X186918915Y-127497968D01*
X186893500Y-127455875D01*
X186899032Y-127433664D01*
X186941125Y-127408250D01*
X186963336Y-127402718D01*
X186988750Y-127360625D01*
X186994282Y-127338414D01*
X187036375Y-127313000D01*
X187058586Y-127318531D01*
G36*
X189363688Y-127713638D02*
G01*
X189331900Y-127782900D01*
X189266959Y-127812268D01*
X189171542Y-127819580D01*
X189075211Y-127805507D01*
X189007143Y-127771107D01*
X188987672Y-127745570D01*
X188960450Y-127653938D01*
X188963669Y-127609459D01*
X189058328Y-127609459D01*
X189077860Y-127676779D01*
X189111608Y-127729459D01*
X189170728Y-127755463D01*
X189236650Y-127719400D01*
X189262258Y-127682553D01*
X189269265Y-127600122D01*
X189222464Y-127519249D01*
X189190605Y-127491229D01*
X189155350Y-127488889D01*
X189105629Y-127531510D01*
X189082614Y-127556235D01*
X189058328Y-127609459D01*
X188963669Y-127609459D01*
X188967912Y-127550831D01*
X189009796Y-127466312D01*
X189031492Y-127447117D01*
X189121699Y-127413109D01*
X189224797Y-127417493D01*
X189311938Y-127460795D01*
X189349012Y-127521132D01*
X189365362Y-127600122D01*
X189368791Y-127616693D01*
X189363688Y-127713638D01*
G37*
X189363688Y-127713638D02*
X189331900Y-127782900D01*
X189266959Y-127812268D01*
X189171542Y-127819580D01*
X189075211Y-127805507D01*
X189007143Y-127771107D01*
X188987672Y-127745570D01*
X188960450Y-127653938D01*
X188963669Y-127609459D01*
X189058328Y-127609459D01*
X189077860Y-127676779D01*
X189111608Y-127729459D01*
X189170728Y-127755463D01*
X189236650Y-127719400D01*
X189262258Y-127682553D01*
X189269265Y-127600122D01*
X189222464Y-127519249D01*
X189190605Y-127491229D01*
X189155350Y-127488889D01*
X189105629Y-127531510D01*
X189082614Y-127556235D01*
X189058328Y-127609459D01*
X188963669Y-127609459D01*
X188967912Y-127550831D01*
X189009796Y-127466312D01*
X189031492Y-127447117D01*
X189121699Y-127413109D01*
X189224797Y-127417493D01*
X189311938Y-127460795D01*
X189349012Y-127521132D01*
X189365362Y-127600122D01*
X189368791Y-127616693D01*
X189363688Y-127713638D01*
G36*
X188734060Y-127224326D02*
G01*
X188792150Y-127255850D01*
X188810149Y-127280671D01*
X188830250Y-127351100D01*
X188837961Y-127382179D01*
X188877875Y-127408250D01*
X188899800Y-127411950D01*
X188925500Y-127440996D01*
X188919946Y-127458428D01*
X188877875Y-127492018D01*
X188864169Y-127500457D01*
X188838360Y-127556306D01*
X188830250Y-127665646D01*
X188830049Y-127696885D01*
X188824118Y-127776320D01*
X188805160Y-127812450D01*
X188766750Y-127821000D01*
X188752063Y-127820320D01*
X188720784Y-127804958D01*
X188706594Y-127757468D01*
X188703250Y-127662250D01*
X188700203Y-127579335D01*
X188685575Y-127520494D01*
X188655625Y-127503500D01*
X188633415Y-127497968D01*
X188608000Y-127455875D01*
X188613532Y-127433664D01*
X188655625Y-127408250D01*
X188677836Y-127402718D01*
X188703250Y-127360625D01*
X188697719Y-127338414D01*
X188655625Y-127313000D01*
X188633415Y-127307468D01*
X188608000Y-127265375D01*
X188618479Y-127240185D01*
X188667602Y-127219548D01*
X188734060Y-127224326D01*
G37*
X188734060Y-127224326D02*
X188792150Y-127255850D01*
X188810149Y-127280671D01*
X188830250Y-127351100D01*
X188837961Y-127382179D01*
X188877875Y-127408250D01*
X188899800Y-127411950D01*
X188925500Y-127440996D01*
X188919946Y-127458428D01*
X188877875Y-127492018D01*
X188864169Y-127500457D01*
X188838360Y-127556306D01*
X188830250Y-127665646D01*
X188830049Y-127696885D01*
X188824118Y-127776320D01*
X188805160Y-127812450D01*
X188766750Y-127821000D01*
X188752063Y-127820320D01*
X188720784Y-127804958D01*
X188706594Y-127757468D01*
X188703250Y-127662250D01*
X188700203Y-127579335D01*
X188685575Y-127520494D01*
X188655625Y-127503500D01*
X188633415Y-127497968D01*
X188608000Y-127455875D01*
X188613532Y-127433664D01*
X188655625Y-127408250D01*
X188677836Y-127402718D01*
X188703250Y-127360625D01*
X188697719Y-127338414D01*
X188655625Y-127313000D01*
X188633415Y-127307468D01*
X188608000Y-127265375D01*
X188618479Y-127240185D01*
X188667602Y-127219548D01*
X188734060Y-127224326D01*
G36*
X188239672Y-127272866D02*
G01*
X188277405Y-127282236D01*
X188302924Y-127302133D01*
X188316283Y-127345244D01*
X188321414Y-127425000D01*
X188322250Y-127554826D01*
X188322111Y-127604753D01*
X188319249Y-127717590D01*
X188310748Y-127783151D01*
X188294074Y-127813589D01*
X188266688Y-127821057D01*
X188243356Y-127817269D01*
X188224302Y-127792402D01*
X188218145Y-127732146D01*
X188221738Y-127622620D01*
X188223890Y-127526543D01*
X188215400Y-127465156D01*
X188194732Y-127466007D01*
X188161977Y-127529068D01*
X188117227Y-127654312D01*
X188085338Y-127740329D01*
X188046338Y-127802615D01*
X188002604Y-127821000D01*
X187996658Y-127820748D01*
X187958035Y-127800946D01*
X187923519Y-127741369D01*
X187886093Y-127630544D01*
X187856600Y-127540906D01*
X187825556Y-127468024D01*
X187803493Y-127440044D01*
X187792523Y-127461203D01*
X187785972Y-127530221D01*
X187787618Y-127630557D01*
X187790911Y-127703955D01*
X187788420Y-127778447D01*
X187773494Y-127812777D01*
X187742813Y-127821057D01*
X187731409Y-127820221D01*
X187708359Y-127805854D01*
X187694974Y-127764270D01*
X187688767Y-127683388D01*
X187687250Y-127551125D01*
X187687250Y-127281250D01*
X187779949Y-127281250D01*
X187817615Y-127283286D01*
X187860035Y-127301593D01*
X187892019Y-127351496D01*
X187926727Y-127447937D01*
X187938178Y-127482670D01*
X187977713Y-127588690D01*
X188006985Y-127636629D01*
X188029029Y-127629590D01*
X188046879Y-127570672D01*
X188047374Y-127568231D01*
X188074295Y-127469463D01*
X188111540Y-127366103D01*
X188140914Y-127305761D01*
X188180284Y-127271398D01*
X188239672Y-127272866D01*
G37*
X188239672Y-127272866D02*
X188277405Y-127282236D01*
X188302924Y-127302133D01*
X188316283Y-127345244D01*
X188321414Y-127425000D01*
X188322250Y-127554826D01*
X188322111Y-127604753D01*
X188319249Y-127717590D01*
X188310748Y-127783151D01*
X188294074Y-127813589D01*
X188266688Y-127821057D01*
X188243356Y-127817269D01*
X188224302Y-127792402D01*
X188218145Y-127732146D01*
X188221738Y-127622620D01*
X188223890Y-127526543D01*
X188215400Y-127465156D01*
X188194732Y-127466007D01*
X188161977Y-127529068D01*
X188117227Y-127654312D01*
X188085338Y-127740329D01*
X188046338Y-127802615D01*
X188002604Y-127821000D01*
X187996658Y-127820748D01*
X187958035Y-127800946D01*
X187923519Y-127741369D01*
X187886093Y-127630544D01*
X187856600Y-127540906D01*
X187825556Y-127468024D01*
X187803493Y-127440044D01*
X187792523Y-127461203D01*
X187785972Y-127530221D01*
X187787618Y-127630557D01*
X187790911Y-127703955D01*
X187788420Y-127778447D01*
X187773494Y-127812777D01*
X187742813Y-127821057D01*
X187731409Y-127820221D01*
X187708359Y-127805854D01*
X187694974Y-127764270D01*
X187688767Y-127683388D01*
X187687250Y-127551125D01*
X187687250Y-127281250D01*
X187779949Y-127281250D01*
X187817615Y-127283286D01*
X187860035Y-127301593D01*
X187892019Y-127351496D01*
X187926727Y-127447937D01*
X187938178Y-127482670D01*
X187977713Y-127588690D01*
X188006985Y-127636629D01*
X188029029Y-127629590D01*
X188046879Y-127570672D01*
X188047374Y-127568231D01*
X188074295Y-127469463D01*
X188111540Y-127366103D01*
X188140914Y-127305761D01*
X188180284Y-127271398D01*
X188239672Y-127272866D01*
G36*
X187587870Y-127754183D02*
G01*
X187572080Y-127798587D01*
X187552197Y-127805931D01*
X187482387Y-127814145D01*
X187384326Y-127816502D01*
X187216492Y-127814498D01*
X187224203Y-127685697D01*
X187343975Y-127685697D01*
X187344762Y-127689314D01*
X187379989Y-127737706D01*
X187435544Y-127751975D01*
X187481983Y-127723958D01*
X187487531Y-127701643D01*
X187461131Y-127659186D01*
X187405034Y-127634372D01*
X187355590Y-127640576D01*
X187343975Y-127685697D01*
X187224203Y-127685697D01*
X187227018Y-127638669D01*
X187240558Y-127523095D01*
X187272756Y-127449907D01*
X187333433Y-127417904D01*
X187432986Y-127415838D01*
X187439119Y-127416332D01*
X187521927Y-127436722D01*
X187554884Y-127482322D01*
X187557642Y-127499793D01*
X187548703Y-127524521D01*
X187501886Y-127506248D01*
X187495490Y-127503034D01*
X187425138Y-127487819D01*
X187364070Y-127501384D01*
X187338000Y-127538646D01*
X187350851Y-127555453D01*
X187403588Y-127567000D01*
X187488593Y-127581217D01*
X187563562Y-127631001D01*
X187590456Y-127701643D01*
X187592000Y-127705700D01*
X187587870Y-127754183D01*
G37*
X187587870Y-127754183D02*
X187572080Y-127798587D01*
X187552197Y-127805931D01*
X187482387Y-127814145D01*
X187384326Y-127816502D01*
X187216492Y-127814498D01*
X187224203Y-127685697D01*
X187343975Y-127685697D01*
X187344762Y-127689314D01*
X187379989Y-127737706D01*
X187435544Y-127751975D01*
X187481983Y-127723958D01*
X187487531Y-127701643D01*
X187461131Y-127659186D01*
X187405034Y-127634372D01*
X187355590Y-127640576D01*
X187343975Y-127685697D01*
X187224203Y-127685697D01*
X187227018Y-127638669D01*
X187240558Y-127523095D01*
X187272756Y-127449907D01*
X187333433Y-127417904D01*
X187432986Y-127415838D01*
X187439119Y-127416332D01*
X187521927Y-127436722D01*
X187554884Y-127482322D01*
X187557642Y-127499793D01*
X187548703Y-127524521D01*
X187501886Y-127506248D01*
X187495490Y-127503034D01*
X187425138Y-127487819D01*
X187364070Y-127501384D01*
X187338000Y-127538646D01*
X187350851Y-127555453D01*
X187403588Y-127567000D01*
X187488593Y-127581217D01*
X187563562Y-127631001D01*
X187590456Y-127701643D01*
X187592000Y-127705700D01*
X187587870Y-127754183D01*
G36*
X186757533Y-127218413D02*
G01*
X186777868Y-127235757D01*
X186790312Y-127284602D01*
X186796546Y-127375593D01*
X186798250Y-127519375D01*
X186798146Y-127563121D01*
X186795407Y-127691910D01*
X186787695Y-127770723D01*
X186773328Y-127810205D01*
X186750625Y-127821000D01*
X186738066Y-127819100D01*
X186711155Y-127783718D01*
X186703000Y-127696267D01*
X186701637Y-127665186D01*
X186682785Y-127577931D01*
X186648832Y-127514205D01*
X186608841Y-127486947D01*
X186571873Y-127509091D01*
X186566096Y-127521386D01*
X186551018Y-127591731D01*
X186544737Y-127686062D01*
X186540121Y-127769942D01*
X186521381Y-127810968D01*
X186480750Y-127821000D01*
X186444966Y-127814311D01*
X186422765Y-127778326D01*
X186417250Y-127696066D01*
X186417400Y-127683701D01*
X186427858Y-127576032D01*
X186449748Y-127485658D01*
X186474465Y-127435011D01*
X186515452Y-127411961D01*
X186592623Y-127418095D01*
X186610623Y-127420972D01*
X186674720Y-127425178D01*
X186699125Y-127399093D01*
X186703000Y-127326878D01*
X186703039Y-127320251D01*
X186715103Y-127242318D01*
X186750625Y-127217750D01*
X186757533Y-127218413D01*
G37*
X186757533Y-127218413D02*
X186777868Y-127235757D01*
X186790312Y-127284602D01*
X186796546Y-127375593D01*
X186798250Y-127519375D01*
X186798146Y-127563121D01*
X186795407Y-127691910D01*
X186787695Y-127770723D01*
X186773328Y-127810205D01*
X186750625Y-127821000D01*
X186738066Y-127819100D01*
X186711155Y-127783718D01*
X186703000Y-127696267D01*
X186701637Y-127665186D01*
X186682785Y-127577931D01*
X186648832Y-127514205D01*
X186608841Y-127486947D01*
X186571873Y-127509091D01*
X186566096Y-127521386D01*
X186551018Y-127591731D01*
X186544737Y-127686062D01*
X186540121Y-127769942D01*
X186521381Y-127810968D01*
X186480750Y-127821000D01*
X186444966Y-127814311D01*
X186422765Y-127778326D01*
X186417250Y-127696066D01*
X186417400Y-127683701D01*
X186427858Y-127576032D01*
X186449748Y-127485658D01*
X186474465Y-127435011D01*
X186515452Y-127411961D01*
X186592623Y-127418095D01*
X186610623Y-127420972D01*
X186674720Y-127425178D01*
X186699125Y-127399093D01*
X186703000Y-127326878D01*
X186703039Y-127320251D01*
X186715103Y-127242318D01*
X186750625Y-127217750D01*
X186757533Y-127218413D01*
G36*
X186062503Y-127782047D02*
G01*
X186022946Y-127799171D01*
X185931199Y-127812976D01*
X185807019Y-127817251D01*
X185711343Y-127815180D01*
X185640747Y-127808399D01*
X185615448Y-127794574D01*
X185625353Y-127771142D01*
X185641231Y-127729993D01*
X185832498Y-127729993D01*
X185855282Y-127750534D01*
X185913863Y-127751254D01*
X185973867Y-127708529D01*
X185997814Y-127662360D01*
X185985298Y-127621887D01*
X185940113Y-127612370D01*
X185878999Y-127645018D01*
X185840566Y-127691160D01*
X185832498Y-127729993D01*
X185641231Y-127729993D01*
X185645854Y-127718012D01*
X185628734Y-127631865D01*
X185612643Y-127560824D01*
X185625397Y-127518203D01*
X185648871Y-127510178D01*
X185697022Y-127529364D01*
X185718750Y-127584748D01*
X185729239Y-127621173D01*
X185761534Y-127624842D01*
X185794371Y-127581211D01*
X185793243Y-127525872D01*
X185761833Y-127453397D01*
X185733736Y-127405914D01*
X185732391Y-127389781D01*
X185830270Y-127389781D01*
X185856067Y-127435387D01*
X185896798Y-127455040D01*
X185940364Y-127424892D01*
X185941794Y-127423158D01*
X185961781Y-127382072D01*
X185926567Y-127356784D01*
X185894873Y-127350701D01*
X185842271Y-127367279D01*
X185830270Y-127389781D01*
X185732391Y-127389781D01*
X185730084Y-127362113D01*
X185767112Y-127312186D01*
X185823218Y-127269338D01*
X185921296Y-127252975D01*
X186022236Y-127294559D01*
X186048117Y-127316110D01*
X186067615Y-127360448D01*
X186062027Y-127382072D01*
X186049424Y-127430846D01*
X186043921Y-127446033D01*
X186031568Y-127515640D01*
X186057370Y-127561664D01*
X186091658Y-127623703D01*
X186093393Y-127662360D01*
X186095558Y-127710638D01*
X186062503Y-127782047D01*
G37*
X186062503Y-127782047D02*
X186022946Y-127799171D01*
X185931199Y-127812976D01*
X185807019Y-127817251D01*
X185711343Y-127815180D01*
X185640747Y-127808399D01*
X185615448Y-127794574D01*
X185625353Y-127771142D01*
X185641231Y-127729993D01*
X185832498Y-127729993D01*
X185855282Y-127750534D01*
X185913863Y-127751254D01*
X185973867Y-127708529D01*
X185997814Y-127662360D01*
X185985298Y-127621887D01*
X185940113Y-127612370D01*
X185878999Y-127645018D01*
X185840566Y-127691160D01*
X185832498Y-127729993D01*
X185641231Y-127729993D01*
X185645854Y-127718012D01*
X185628734Y-127631865D01*
X185612643Y-127560824D01*
X185625397Y-127518203D01*
X185648871Y-127510178D01*
X185697022Y-127529364D01*
X185718750Y-127584748D01*
X185729239Y-127621173D01*
X185761534Y-127624842D01*
X185794371Y-127581211D01*
X185793243Y-127525872D01*
X185761833Y-127453397D01*
X185733736Y-127405914D01*
X185732391Y-127389781D01*
X185830270Y-127389781D01*
X185856067Y-127435387D01*
X185896798Y-127455040D01*
X185940364Y-127424892D01*
X185941794Y-127423158D01*
X185961781Y-127382072D01*
X185926567Y-127356784D01*
X185894873Y-127350701D01*
X185842271Y-127367279D01*
X185830270Y-127389781D01*
X185732391Y-127389781D01*
X185730084Y-127362113D01*
X185767112Y-127312186D01*
X185823218Y-127269338D01*
X185921296Y-127252975D01*
X186022236Y-127294559D01*
X186048117Y-127316110D01*
X186067615Y-127360448D01*
X186062027Y-127382072D01*
X186049424Y-127430846D01*
X186043921Y-127446033D01*
X186031568Y-127515640D01*
X186057370Y-127561664D01*
X186091658Y-127623703D01*
X186093393Y-127662360D01*
X186095558Y-127710638D01*
X186062503Y-127782047D01*
G36*
X185143977Y-127260649D02*
G01*
X185228461Y-127295408D01*
X185283096Y-127344560D01*
X185307648Y-127421769D01*
X185271849Y-127503492D01*
X185176666Y-127584348D01*
X185166989Y-127590494D01*
X185095532Y-127641684D01*
X185071368Y-127678170D01*
X185085739Y-127712270D01*
X185128016Y-127739586D01*
X185203805Y-127750086D01*
X185259212Y-127754250D01*
X185297379Y-127781312D01*
X185298133Y-127788455D01*
X185268659Y-127810223D01*
X185202726Y-127820661D01*
X185121202Y-127819659D01*
X185044954Y-127807109D01*
X184994850Y-127782900D01*
X184969542Y-127734872D01*
X184956750Y-127655386D01*
X184960136Y-127615897D01*
X184991466Y-127560166D01*
X185068971Y-127512458D01*
X185141623Y-127464891D01*
X185171148Y-127414333D01*
X185148693Y-127376195D01*
X185073885Y-127361958D01*
X185009123Y-127351596D01*
X184995706Y-127314333D01*
X185007429Y-127289002D01*
X185063215Y-127259090D01*
X185143977Y-127260649D01*
G37*
X185143977Y-127260649D02*
X185228461Y-127295408D01*
X185283096Y-127344560D01*
X185307648Y-127421769D01*
X185271849Y-127503492D01*
X185176666Y-127584348D01*
X185166989Y-127590494D01*
X185095532Y-127641684D01*
X185071368Y-127678170D01*
X185085739Y-127712270D01*
X185128016Y-127739586D01*
X185203805Y-127750086D01*
X185259212Y-127754250D01*
X185297379Y-127781312D01*
X185298133Y-127788455D01*
X185268659Y-127810223D01*
X185202726Y-127820661D01*
X185121202Y-127819659D01*
X185044954Y-127807109D01*
X184994850Y-127782900D01*
X184969542Y-127734872D01*
X184956750Y-127655386D01*
X184960136Y-127615897D01*
X184991466Y-127560166D01*
X185068971Y-127512458D01*
X185141623Y-127464891D01*
X185171148Y-127414333D01*
X185148693Y-127376195D01*
X185073885Y-127361958D01*
X185009123Y-127351596D01*
X184995706Y-127314333D01*
X185007429Y-127289002D01*
X185063215Y-127259090D01*
X185143977Y-127260649D01*
G36*
X184750507Y-127422463D02*
G01*
X184811608Y-127458142D01*
X184833516Y-127486621D01*
X184865043Y-127583450D01*
X184861809Y-127691829D01*
X184822765Y-127781312D01*
X184805454Y-127796018D01*
X184741695Y-127817491D01*
X184665831Y-127820582D01*
X184602352Y-127805979D01*
X184575750Y-127774371D01*
X184583673Y-127748908D01*
X184627967Y-127747780D01*
X184638602Y-127750490D01*
X184695541Y-127732954D01*
X184745079Y-127679477D01*
X184766250Y-127610824D01*
X184764132Y-127594634D01*
X184730012Y-127536515D01*
X184673396Y-127492759D01*
X184619282Y-127484802D01*
X184597548Y-127487252D01*
X184575750Y-127454878D01*
X184576541Y-127447621D01*
X184609880Y-127416882D01*
X184675567Y-127408603D01*
X184750507Y-127422463D01*
G37*
X184750507Y-127422463D02*
X184811608Y-127458142D01*
X184833516Y-127486621D01*
X184865043Y-127583450D01*
X184861809Y-127691829D01*
X184822765Y-127781312D01*
X184805454Y-127796018D01*
X184741695Y-127817491D01*
X184665831Y-127820582D01*
X184602352Y-127805979D01*
X184575750Y-127774371D01*
X184583673Y-127748908D01*
X184627967Y-127747780D01*
X184638602Y-127750490D01*
X184695541Y-127732954D01*
X184745079Y-127679477D01*
X184766250Y-127610824D01*
X184764132Y-127594634D01*
X184730012Y-127536515D01*
X184673396Y-127492759D01*
X184619282Y-127484802D01*
X184597548Y-127487252D01*
X184575750Y-127454878D01*
X184576541Y-127447621D01*
X184609880Y-127416882D01*
X184675567Y-127408603D01*
X184750507Y-127422463D01*
G36*
X184443684Y-127409761D02*
G01*
X184465960Y-127434526D01*
X184477321Y-127498866D01*
X184480500Y-127614625D01*
X184480152Y-127661461D01*
X184474437Y-127757991D01*
X184459589Y-127807222D01*
X184432875Y-127821000D01*
X184422067Y-127819488D01*
X184399791Y-127794723D01*
X184388430Y-127730383D01*
X184385250Y-127614625D01*
X184385599Y-127567788D01*
X184391314Y-127471258D01*
X184406162Y-127422027D01*
X184432875Y-127408250D01*
X184443684Y-127409761D01*
G37*
X184443684Y-127409761D02*
X184465960Y-127434526D01*
X184477321Y-127498866D01*
X184480500Y-127614625D01*
X184480152Y-127661461D01*
X184474437Y-127757991D01*
X184459589Y-127807222D01*
X184432875Y-127821000D01*
X184422067Y-127819488D01*
X184399791Y-127794723D01*
X184388430Y-127730383D01*
X184385250Y-127614625D01*
X184385599Y-127567788D01*
X184391314Y-127471258D01*
X184406162Y-127422027D01*
X184432875Y-127408250D01*
X184443684Y-127409761D01*
G36*
X184257133Y-127759587D02*
G01*
X184250582Y-127769203D01*
X184196014Y-127803522D01*
X184116383Y-127822162D01*
X184033052Y-127824140D01*
X183967387Y-127808470D01*
X183940750Y-127774168D01*
X183940910Y-127769490D01*
X183962813Y-127741254D01*
X184029841Y-127745155D01*
X184092059Y-127748829D01*
X184160729Y-127712611D01*
X184170708Y-127699805D01*
X184177254Y-127675377D01*
X184142653Y-127664641D01*
X184055763Y-127662250D01*
X184026929Y-127662072D01*
X183950459Y-127656038D01*
X183916626Y-127635690D01*
X183909000Y-127593312D01*
X183916847Y-127552998D01*
X184036000Y-127552998D01*
X184039198Y-127566833D01*
X184077371Y-127593871D01*
X184133758Y-127596448D01*
X184176652Y-127570597D01*
X184180584Y-127557635D01*
X184160601Y-127516732D01*
X184114732Y-127486308D01*
X184069141Y-127486765D01*
X184056255Y-127498349D01*
X184036000Y-127552998D01*
X183916847Y-127552998D01*
X183921128Y-127531002D01*
X183977433Y-127456776D01*
X184062273Y-127414622D01*
X184156285Y-127412442D01*
X184240108Y-127458142D01*
X184250067Y-127469714D01*
X184283288Y-127554394D01*
X184283377Y-127557635D01*
X184286195Y-127660798D01*
X184257133Y-127759587D01*
G37*
X184257133Y-127759587D02*
X184250582Y-127769203D01*
X184196014Y-127803522D01*
X184116383Y-127822162D01*
X184033052Y-127824140D01*
X183967387Y-127808470D01*
X183940750Y-127774168D01*
X183940910Y-127769490D01*
X183962813Y-127741254D01*
X184029841Y-127745155D01*
X184092059Y-127748829D01*
X184160729Y-127712611D01*
X184170708Y-127699805D01*
X184177254Y-127675377D01*
X184142653Y-127664641D01*
X184055763Y-127662250D01*
X184026929Y-127662072D01*
X183950459Y-127656038D01*
X183916626Y-127635690D01*
X183909000Y-127593312D01*
X183916847Y-127552998D01*
X184036000Y-127552998D01*
X184039198Y-127566833D01*
X184077371Y-127593871D01*
X184133758Y-127596448D01*
X184176652Y-127570597D01*
X184180584Y-127557635D01*
X184160601Y-127516732D01*
X184114732Y-127486308D01*
X184069141Y-127486765D01*
X184056255Y-127498349D01*
X184036000Y-127552998D01*
X183916847Y-127552998D01*
X183921128Y-127531002D01*
X183977433Y-127456776D01*
X184062273Y-127414622D01*
X184156285Y-127412442D01*
X184240108Y-127458142D01*
X184250067Y-127469714D01*
X184283288Y-127554394D01*
X184283377Y-127557635D01*
X184286195Y-127660798D01*
X184257133Y-127759587D01*
G36*
X183813750Y-127416546D02*
G01*
X183813750Y-127618773D01*
X183813479Y-127659490D01*
X183807926Y-127757139D01*
X183793074Y-127807015D01*
X183766125Y-127821000D01*
X183753566Y-127819100D01*
X183726655Y-127783718D01*
X183718500Y-127696267D01*
X183709617Y-127619838D01*
X183678805Y-127539435D01*
X183635295Y-127490641D01*
X183588941Y-127489206D01*
X183579054Y-127504634D01*
X183565192Y-127569820D01*
X183559750Y-127664123D01*
X183559518Y-127697830D01*
X183553490Y-127776704D01*
X183534515Y-127812537D01*
X183496250Y-127821000D01*
X183460466Y-127814311D01*
X183438265Y-127778326D01*
X183432750Y-127696066D01*
X183432913Y-127682789D01*
X183442865Y-127577045D01*
X183463506Y-127490240D01*
X183473811Y-127465771D01*
X183503390Y-127429223D01*
X183556903Y-127414273D01*
X183654006Y-127412947D01*
X183813750Y-127416546D01*
G37*
X183813750Y-127416546D02*
X183813750Y-127618773D01*
X183813479Y-127659490D01*
X183807926Y-127757139D01*
X183793074Y-127807015D01*
X183766125Y-127821000D01*
X183753566Y-127819100D01*
X183726655Y-127783718D01*
X183718500Y-127696267D01*
X183709617Y-127619838D01*
X183678805Y-127539435D01*
X183635295Y-127490641D01*
X183588941Y-127489206D01*
X183579054Y-127504634D01*
X183565192Y-127569820D01*
X183559750Y-127664123D01*
X183559518Y-127697830D01*
X183553490Y-127776704D01*
X183534515Y-127812537D01*
X183496250Y-127821000D01*
X183460466Y-127814311D01*
X183438265Y-127778326D01*
X183432750Y-127696066D01*
X183432913Y-127682789D01*
X183442865Y-127577045D01*
X183463506Y-127490240D01*
X183473811Y-127465771D01*
X183503390Y-127429223D01*
X183556903Y-127414273D01*
X183654006Y-127412947D01*
X183813750Y-127416546D01*
G36*
X183191060Y-127411916D02*
G01*
X183273507Y-127439735D01*
X183306873Y-127466275D01*
X183349099Y-127548593D01*
X183356108Y-127649266D01*
X183323700Y-127742915D01*
X183319517Y-127749124D01*
X183256672Y-127805080D01*
X183162144Y-127821000D01*
X183158043Y-127820985D01*
X183077501Y-127809288D01*
X183051750Y-127774371D01*
X183058529Y-127750697D01*
X183099780Y-127746173D01*
X183101867Y-127746942D01*
X183167790Y-127741876D01*
X183220619Y-127691158D01*
X183242250Y-127611854D01*
X183220922Y-127545163D01*
X183162900Y-127497641D01*
X183091438Y-127494561D01*
X183071043Y-127494680D01*
X183051750Y-127458520D01*
X183061587Y-127433727D01*
X183113371Y-127410510D01*
X183191060Y-127411916D01*
G37*
X183191060Y-127411916D02*
X183273507Y-127439735D01*
X183306873Y-127466275D01*
X183349099Y-127548593D01*
X183356108Y-127649266D01*
X183323700Y-127742915D01*
X183319517Y-127749124D01*
X183256672Y-127805080D01*
X183162144Y-127821000D01*
X183158043Y-127820985D01*
X183077501Y-127809288D01*
X183051750Y-127774371D01*
X183058529Y-127750697D01*
X183099780Y-127746173D01*
X183101867Y-127746942D01*
X183167790Y-127741876D01*
X183220619Y-127691158D01*
X183242250Y-127611854D01*
X183220922Y-127545163D01*
X183162900Y-127497641D01*
X183091438Y-127494561D01*
X183071043Y-127494680D01*
X183051750Y-127458520D01*
X183061587Y-127433727D01*
X183113371Y-127410510D01*
X183191060Y-127411916D01*
G36*
X182991208Y-127693689D02*
G01*
X182958826Y-127770573D01*
X182956140Y-127773596D01*
X182899565Y-127804884D01*
X182817965Y-127820828D01*
X182732939Y-127821185D01*
X182666085Y-127805713D01*
X182639000Y-127774168D01*
X182639160Y-127769490D01*
X182661063Y-127741254D01*
X182728091Y-127745155D01*
X182790309Y-127748829D01*
X182858979Y-127712611D01*
X182869747Y-127698654D01*
X182874893Y-127674980D01*
X182838880Y-127664570D01*
X182750571Y-127662250D01*
X182680562Y-127661512D01*
X182626996Y-127653230D01*
X182612336Y-127627678D01*
X182622236Y-127575115D01*
X182629672Y-127552998D01*
X182734250Y-127552998D01*
X182737448Y-127566833D01*
X182775621Y-127593871D01*
X182832008Y-127596448D01*
X182874902Y-127570597D01*
X182878834Y-127557635D01*
X182858851Y-127516732D01*
X182812982Y-127486308D01*
X182767391Y-127486765D01*
X182754505Y-127498349D01*
X182734250Y-127552998D01*
X182629672Y-127552998D01*
X182644818Y-127507947D01*
X182677191Y-127448115D01*
X182691124Y-127435412D01*
X182764721Y-127411264D01*
X182856648Y-127416079D01*
X182937524Y-127449681D01*
X182974972Y-127502459D01*
X182987508Y-127557635D01*
X182995961Y-127594841D01*
X182991208Y-127693689D01*
G37*
X182991208Y-127693689D02*
X182958826Y-127770573D01*
X182956140Y-127773596D01*
X182899565Y-127804884D01*
X182817965Y-127820828D01*
X182732939Y-127821185D01*
X182666085Y-127805713D01*
X182639000Y-127774168D01*
X182639160Y-127769490D01*
X182661063Y-127741254D01*
X182728091Y-127745155D01*
X182790309Y-127748829D01*
X182858979Y-127712611D01*
X182869747Y-127698654D01*
X182874893Y-127674980D01*
X182838880Y-127664570D01*
X182750571Y-127662250D01*
X182680562Y-127661512D01*
X182626996Y-127653230D01*
X182612336Y-127627678D01*
X182622236Y-127575115D01*
X182629672Y-127552998D01*
X182734250Y-127552998D01*
X182737448Y-127566833D01*
X182775621Y-127593871D01*
X182832008Y-127596448D01*
X182874902Y-127570597D01*
X182878834Y-127557635D01*
X182858851Y-127516732D01*
X182812982Y-127486308D01*
X182767391Y-127486765D01*
X182754505Y-127498349D01*
X182734250Y-127552998D01*
X182629672Y-127552998D01*
X182644818Y-127507947D01*
X182677191Y-127448115D01*
X182691124Y-127435412D01*
X182764721Y-127411264D01*
X182856648Y-127416079D01*
X182937524Y-127449681D01*
X182974972Y-127502459D01*
X182987508Y-127557635D01*
X182995961Y-127594841D01*
X182991208Y-127693689D01*
G36*
X184460648Y-127229535D02*
G01*
X184480500Y-127281250D01*
X184471661Y-127318280D01*
X184432875Y-127344750D01*
X184405103Y-127332964D01*
X184385250Y-127281250D01*
X184394090Y-127244219D01*
X184432875Y-127217750D01*
X184460648Y-127229535D01*
G37*
X184460648Y-127229535D02*
X184480500Y-127281250D01*
X184471661Y-127318280D01*
X184432875Y-127344750D01*
X184405103Y-127332964D01*
X184385250Y-127281250D01*
X184394090Y-127244219D01*
X184432875Y-127217750D01*
X184460648Y-127229535D01*
G36*
X189240193Y-125642636D02*
G01*
X189358446Y-125715376D01*
X189436855Y-125818821D01*
X189465250Y-125947750D01*
X189445575Y-126063125D01*
X189377917Y-126165626D01*
X189257171Y-126251432D01*
X189078318Y-126325441D01*
X189019914Y-126345559D01*
X188898318Y-126396318D01*
X188829654Y-126445140D01*
X188806852Y-126498606D01*
X188822844Y-126563298D01*
X188838842Y-126589778D01*
X188915320Y-126644478D01*
X189022294Y-126664275D01*
X189142165Y-126647919D01*
X189257330Y-126594160D01*
X189290187Y-126575251D01*
X189334936Y-126575903D01*
X189392268Y-126620505D01*
X189393694Y-126621850D01*
X189444281Y-126677020D01*
X189465250Y-126714552D01*
X189465221Y-126715847D01*
X189434576Y-126760254D01*
X189356919Y-126804741D01*
X189247846Y-126842394D01*
X189122953Y-126866298D01*
X189016779Y-126873778D01*
X188841068Y-126856132D01*
X188711006Y-126794899D01*
X188625789Y-126689591D01*
X188584614Y-126539719D01*
X188580766Y-126501859D01*
X188581904Y-126420889D01*
X188609833Y-126359345D01*
X188675405Y-126287018D01*
X188700356Y-126264214D01*
X188819817Y-126183852D01*
X188957250Y-126123331D01*
X189062703Y-126084248D01*
X189176426Y-126023132D01*
X189234900Y-125961720D01*
X189235595Y-125903164D01*
X189175983Y-125850617D01*
X189102873Y-125831043D01*
X188968259Y-125834872D01*
X188791488Y-125869342D01*
X188755632Y-125876596D01*
X188704119Y-125865453D01*
X188666293Y-125806125D01*
X188663523Y-125799941D01*
X188646756Y-125740778D01*
X188664846Y-125698599D01*
X188727020Y-125664069D01*
X188842504Y-125627855D01*
X188924829Y-125610171D01*
X189092264Y-125605827D01*
X189240193Y-125642636D01*
G37*
X189240193Y-125642636D02*
X189358446Y-125715376D01*
X189436855Y-125818821D01*
X189465250Y-125947750D01*
X189445575Y-126063125D01*
X189377917Y-126165626D01*
X189257171Y-126251432D01*
X189078318Y-126325441D01*
X189019914Y-126345559D01*
X188898318Y-126396318D01*
X188829654Y-126445140D01*
X188806852Y-126498606D01*
X188822844Y-126563298D01*
X188838842Y-126589778D01*
X188915320Y-126644478D01*
X189022294Y-126664275D01*
X189142165Y-126647919D01*
X189257330Y-126594160D01*
X189290187Y-126575251D01*
X189334936Y-126575903D01*
X189392268Y-126620505D01*
X189393694Y-126621850D01*
X189444281Y-126677020D01*
X189465250Y-126714552D01*
X189465221Y-126715847D01*
X189434576Y-126760254D01*
X189356919Y-126804741D01*
X189247846Y-126842394D01*
X189122953Y-126866298D01*
X189016779Y-126873778D01*
X188841068Y-126856132D01*
X188711006Y-126794899D01*
X188625789Y-126689591D01*
X188584614Y-126539719D01*
X188580766Y-126501859D01*
X188581904Y-126420889D01*
X188609833Y-126359345D01*
X188675405Y-126287018D01*
X188700356Y-126264214D01*
X188819817Y-126183852D01*
X188957250Y-126123331D01*
X189062703Y-126084248D01*
X189176426Y-126023132D01*
X189234900Y-125961720D01*
X189235595Y-125903164D01*
X189175983Y-125850617D01*
X189102873Y-125831043D01*
X188968259Y-125834872D01*
X188791488Y-125869342D01*
X188755632Y-125876596D01*
X188704119Y-125865453D01*
X188666293Y-125806125D01*
X188663523Y-125799941D01*
X188646756Y-125740778D01*
X188664846Y-125698599D01*
X188727020Y-125664069D01*
X188842504Y-125627855D01*
X188924829Y-125610171D01*
X189092264Y-125605827D01*
X189240193Y-125642636D01*
G36*
X185988641Y-126632425D02*
G01*
X185851859Y-126765730D01*
X185683967Y-126853646D01*
X185577146Y-126871652D01*
X185430594Y-126867378D01*
X185281069Y-126840889D01*
X185156829Y-126795311D01*
X185027937Y-126698580D01*
X184921807Y-126553767D01*
X184857337Y-126383118D01*
X184851168Y-126318024D01*
X185066747Y-126318024D01*
X185078208Y-126358994D01*
X185130417Y-126458773D01*
X185205820Y-126551418D01*
X185288797Y-126619664D01*
X185363729Y-126646250D01*
X185403140Y-126648144D01*
X185470091Y-126659227D01*
X185497530Y-126663857D01*
X185593336Y-126648190D01*
X185699844Y-126598220D01*
X185793927Y-126523632D01*
X185862695Y-126427774D01*
X185903282Y-126292198D01*
X185894456Y-126154473D01*
X185841655Y-126026539D01*
X185750319Y-125920334D01*
X185625885Y-125847797D01*
X185473793Y-125820868D01*
X185340127Y-125846894D01*
X185216535Y-125923065D01*
X185122402Y-126035983D01*
X185068786Y-126172138D01*
X185066747Y-126318024D01*
X184851168Y-126318024D01*
X184840185Y-126202126D01*
X184876008Y-126026285D01*
X184890757Y-125991236D01*
X184995791Y-125833310D01*
X185143598Y-125709121D01*
X185320389Y-125627927D01*
X185512375Y-125598987D01*
X185547431Y-125602020D01*
X185659248Y-125631769D01*
X185785595Y-125683952D01*
X185900873Y-125747032D01*
X185979477Y-125809474D01*
X186054277Y-125925379D01*
X186110282Y-126081345D01*
X186130803Y-126240417D01*
X186128838Y-126284590D01*
X186126985Y-126292198D01*
X186084304Y-126467466D01*
X185988641Y-126632425D01*
G37*
X185988641Y-126632425D02*
X185851859Y-126765730D01*
X185683967Y-126853646D01*
X185577146Y-126871652D01*
X185430594Y-126867378D01*
X185281069Y-126840889D01*
X185156829Y-126795311D01*
X185027937Y-126698580D01*
X184921807Y-126553767D01*
X184857337Y-126383118D01*
X184851168Y-126318024D01*
X185066747Y-126318024D01*
X185078208Y-126358994D01*
X185130417Y-126458773D01*
X185205820Y-126551418D01*
X185288797Y-126619664D01*
X185363729Y-126646250D01*
X185403140Y-126648144D01*
X185470091Y-126659227D01*
X185497530Y-126663857D01*
X185593336Y-126648190D01*
X185699844Y-126598220D01*
X185793927Y-126523632D01*
X185862695Y-126427774D01*
X185903282Y-126292198D01*
X185894456Y-126154473D01*
X185841655Y-126026539D01*
X185750319Y-125920334D01*
X185625885Y-125847797D01*
X185473793Y-125820868D01*
X185340127Y-125846894D01*
X185216535Y-125923065D01*
X185122402Y-126035983D01*
X185068786Y-126172138D01*
X185066747Y-126318024D01*
X184851168Y-126318024D01*
X184840185Y-126202126D01*
X184876008Y-126026285D01*
X184890757Y-125991236D01*
X184995791Y-125833310D01*
X185143598Y-125709121D01*
X185320389Y-125627927D01*
X185512375Y-125598987D01*
X185547431Y-125602020D01*
X185659248Y-125631769D01*
X185785595Y-125683952D01*
X185900873Y-125747032D01*
X185979477Y-125809474D01*
X186054277Y-125925379D01*
X186110282Y-126081345D01*
X186130803Y-126240417D01*
X186128838Y-126284590D01*
X186126985Y-126292198D01*
X186084304Y-126467466D01*
X185988641Y-126632425D01*
G36*
X187970244Y-125617219D02*
G01*
X188135589Y-125671742D01*
X188280138Y-125766133D01*
X188395415Y-125893705D01*
X188472944Y-126047770D01*
X188504251Y-126221640D01*
X188480859Y-126408628D01*
X188470024Y-126442358D01*
X188391656Y-126592358D01*
X188277809Y-126726210D01*
X188147625Y-126820270D01*
X188071400Y-126848068D01*
X187947090Y-126867249D01*
X187812565Y-126866902D01*
X187682458Y-126849277D01*
X187571405Y-126816628D01*
X187494041Y-126771204D01*
X187465000Y-126715257D01*
X187465013Y-126713167D01*
X187490583Y-126633377D01*
X187554729Y-126595878D01*
X187642060Y-126609832D01*
X187670677Y-126620019D01*
X187767468Y-126638802D01*
X187878186Y-126646250D01*
X187891171Y-126646201D01*
X187991794Y-126637853D01*
X188065169Y-126605890D01*
X188143632Y-126537001D01*
X188237331Y-126415044D01*
X188280011Y-126275506D01*
X188260515Y-126127721D01*
X188212723Y-126026159D01*
X188108607Y-125912681D01*
X187975123Y-125845148D01*
X187825145Y-125829186D01*
X187671551Y-125870419D01*
X187633949Y-125888017D01*
X187573989Y-125910237D01*
X187539517Y-125903656D01*
X187508380Y-125867938D01*
X187470272Y-125795211D01*
X187483420Y-125733617D01*
X187556918Y-125679598D01*
X187611064Y-125654525D01*
X187792577Y-125609251D01*
X187970244Y-125617219D01*
G37*
X187970244Y-125617219D02*
X188135589Y-125671742D01*
X188280138Y-125766133D01*
X188395415Y-125893705D01*
X188472944Y-126047770D01*
X188504251Y-126221640D01*
X188480859Y-126408628D01*
X188470024Y-126442358D01*
X188391656Y-126592358D01*
X188277809Y-126726210D01*
X188147625Y-126820270D01*
X188071400Y-126848068D01*
X187947090Y-126867249D01*
X187812565Y-126866902D01*
X187682458Y-126849277D01*
X187571405Y-126816628D01*
X187494041Y-126771204D01*
X187465000Y-126715257D01*
X187465013Y-126713167D01*
X187490583Y-126633377D01*
X187554729Y-126595878D01*
X187642060Y-126609832D01*
X187670677Y-126620019D01*
X187767468Y-126638802D01*
X187878186Y-126646250D01*
X187891171Y-126646201D01*
X187991794Y-126637853D01*
X188065169Y-126605890D01*
X188143632Y-126537001D01*
X188237331Y-126415044D01*
X188280011Y-126275506D01*
X188260515Y-126127721D01*
X188212723Y-126026159D01*
X188108607Y-125912681D01*
X187975123Y-125845148D01*
X187825145Y-125829186D01*
X187671551Y-125870419D01*
X187633949Y-125888017D01*
X187573989Y-125910237D01*
X187539517Y-125903656D01*
X187508380Y-125867938D01*
X187470272Y-125795211D01*
X187483420Y-125733617D01*
X187556918Y-125679598D01*
X187611064Y-125654525D01*
X187792577Y-125609251D01*
X187970244Y-125617219D01*
G36*
X187306250Y-126872523D02*
G01*
X187203063Y-126862574D01*
X187099875Y-126852625D01*
X187090654Y-126590687D01*
X187081432Y-126328750D01*
X186512500Y-126328750D01*
X186512500Y-126868500D01*
X186290250Y-126868500D01*
X186290250Y-125630250D01*
X186512500Y-125630250D01*
X186512500Y-126138250D01*
X187081329Y-126138250D01*
X187090602Y-125892187D01*
X187099875Y-125646125D01*
X187203063Y-125636175D01*
X187306250Y-125626226D01*
X187306250Y-126872523D01*
G37*
X187306250Y-126872523D02*
X187203063Y-126862574D01*
X187099875Y-126852625D01*
X187090654Y-126590687D01*
X187081432Y-126328750D01*
X186512500Y-126328750D01*
X186512500Y-126868500D01*
X186290250Y-126868500D01*
X186290250Y-125630250D01*
X186512500Y-125630250D01*
X186512500Y-126138250D01*
X187081329Y-126138250D01*
X187090602Y-125892187D01*
X187099875Y-125646125D01*
X187203063Y-125636175D01*
X187306250Y-125626226D01*
X187306250Y-126872523D01*
G36*
X184664745Y-126544618D02*
G01*
X184550141Y-126701626D01*
X184401125Y-126815153D01*
X184369177Y-126829084D01*
X184249665Y-126856592D01*
X184097006Y-126867228D01*
X184020735Y-126866494D01*
X183918141Y-126855857D01*
X183834606Y-126826765D01*
X183741856Y-126771607D01*
X183636076Y-126683765D01*
X183529521Y-126533992D01*
X183472052Y-126364029D01*
X183467504Y-126266363D01*
X183691880Y-126266363D01*
X183719706Y-126406195D01*
X183785151Y-126525375D01*
X183884103Y-126606084D01*
X184006219Y-126649557D01*
X184163239Y-126658864D01*
X184301784Y-126616150D01*
X184412422Y-126527030D01*
X184485721Y-126397121D01*
X184512250Y-126232040D01*
X184503213Y-126143209D01*
X184449156Y-126011419D01*
X184356880Y-125912101D01*
X184238578Y-125848630D01*
X184106443Y-125824382D01*
X183972667Y-125842732D01*
X183849444Y-125907055D01*
X183748965Y-126020728D01*
X183705787Y-126123693D01*
X183691880Y-126266363D01*
X183467504Y-126266363D01*
X183463748Y-126185712D01*
X183504692Y-126010877D01*
X183594964Y-125851358D01*
X183734645Y-125718991D01*
X183887522Y-125639129D01*
X184062639Y-125603109D01*
X184234461Y-125617151D01*
X184394455Y-125675223D01*
X184534090Y-125771288D01*
X184644836Y-125899313D01*
X184718159Y-126053263D01*
X184745529Y-126227105D01*
X184744816Y-126232040D01*
X184718415Y-126414804D01*
X184664745Y-126544618D01*
G37*
X184664745Y-126544618D02*
X184550141Y-126701626D01*
X184401125Y-126815153D01*
X184369177Y-126829084D01*
X184249665Y-126856592D01*
X184097006Y-126867228D01*
X184020735Y-126866494D01*
X183918141Y-126855857D01*
X183834606Y-126826765D01*
X183741856Y-126771607D01*
X183636076Y-126683765D01*
X183529521Y-126533992D01*
X183472052Y-126364029D01*
X183467504Y-126266363D01*
X183691880Y-126266363D01*
X183719706Y-126406195D01*
X183785151Y-126525375D01*
X183884103Y-126606084D01*
X184006219Y-126649557D01*
X184163239Y-126658864D01*
X184301784Y-126616150D01*
X184412422Y-126527030D01*
X184485721Y-126397121D01*
X184512250Y-126232040D01*
X184503213Y-126143209D01*
X184449156Y-126011419D01*
X184356880Y-125912101D01*
X184238578Y-125848630D01*
X184106443Y-125824382D01*
X183972667Y-125842732D01*
X183849444Y-125907055D01*
X183748965Y-126020728D01*
X183705787Y-126123693D01*
X183691880Y-126266363D01*
X183467504Y-126266363D01*
X183463748Y-126185712D01*
X183504692Y-126010877D01*
X183594964Y-125851358D01*
X183734645Y-125718991D01*
X183887522Y-125639129D01*
X184062639Y-125603109D01*
X184234461Y-125617151D01*
X184394455Y-125675223D01*
X184534090Y-125771288D01*
X184644836Y-125899313D01*
X184718159Y-126053263D01*
X184745529Y-126227105D01*
X184744816Y-126232040D01*
X184718415Y-126414804D01*
X184664745Y-126544618D01*
G36*
X183305750Y-126232630D02*
G01*
X183304629Y-126420995D01*
X183301601Y-126586910D01*
X183297016Y-126720112D01*
X183291227Y-126810340D01*
X183284584Y-126847333D01*
X183252634Y-126854945D01*
X183168796Y-126861975D01*
X183047246Y-126866743D01*
X182901572Y-126868500D01*
X182539727Y-126868500D01*
X182549676Y-126765312D01*
X182559625Y-126662125D01*
X182821563Y-126652903D01*
X183083500Y-126643681D01*
X183083500Y-125630250D01*
X183305750Y-125630250D01*
X183305750Y-126232630D01*
G37*
X183305750Y-126232630D02*
X183304629Y-126420995D01*
X183301601Y-126586910D01*
X183297016Y-126720112D01*
X183291227Y-126810340D01*
X183284584Y-126847333D01*
X183252634Y-126854945D01*
X183168796Y-126861975D01*
X183047246Y-126866743D01*
X182901572Y-126868500D01*
X182539727Y-126868500D01*
X182549676Y-126765312D01*
X182559625Y-126662125D01*
X182821563Y-126652903D01*
X183083500Y-126643681D01*
X183083500Y-125630250D01*
X183305750Y-125630250D01*
X183305750Y-126232630D01*
G36*
X191650659Y-124494817D02*
G01*
X192878375Y-124503125D01*
X192878375Y-124915875D01*
X192704713Y-124925713D01*
X192635691Y-124931992D01*
X192543447Y-124948622D01*
X192490400Y-124969288D01*
X192489077Y-124970468D01*
X192471000Y-125010566D01*
X192458807Y-125094667D01*
X192451918Y-125229227D01*
X192449750Y-125420698D01*
X192449224Y-125532086D01*
X192445265Y-125685749D01*
X192436516Y-125792669D01*
X192421895Y-125863510D01*
X192400325Y-125908935D01*
X192335568Y-125957717D01*
X192237168Y-125980321D01*
X192134667Y-125971510D01*
X192055191Y-125929654D01*
X192024848Y-125893184D01*
X192002577Y-125846284D01*
X191987138Y-125778659D01*
X191976888Y-125679616D01*
X191970188Y-125538460D01*
X191965397Y-125344500D01*
X191957625Y-124947625D01*
X191640606Y-124938447D01*
X191551963Y-124936293D01*
X191432260Y-124936508D01*
X191356127Y-124943473D01*
X191310775Y-124958825D01*
X191283419Y-124984203D01*
X191270150Y-125014875D01*
X191255002Y-125105836D01*
X191246138Y-125252814D01*
X191243250Y-125459425D01*
X191242238Y-125617255D01*
X191237866Y-125750916D01*
X191229002Y-125840557D01*
X191214535Y-125896635D01*
X191193358Y-125929607D01*
X191149770Y-125958481D01*
X191051631Y-125978478D01*
X190946407Y-125963931D01*
X190862250Y-125916000D01*
X190845691Y-125897649D01*
X190824736Y-125861323D01*
X190811086Y-125808054D01*
X190803219Y-125726205D01*
X190799614Y-125604141D01*
X190798750Y-125430225D01*
X190797682Y-125296328D01*
X190791291Y-125127967D01*
X190779000Y-125019776D01*
X190760651Y-124969850D01*
X190747651Y-124960804D01*
X190678558Y-124940042D01*
X190584582Y-124931750D01*
X190549175Y-124930887D01*
X190447763Y-124910152D01*
X190368682Y-124853818D01*
X190368115Y-124853249D01*
X190303860Y-124762163D01*
X190300257Y-124671605D01*
X190356846Y-124570536D01*
X190422942Y-124486509D01*
X191650659Y-124494817D01*
G37*
X191650659Y-124494817D02*
X192878375Y-124503125D01*
X192878375Y-124915875D01*
X192704713Y-124925713D01*
X192635691Y-124931992D01*
X192543447Y-124948622D01*
X192490400Y-124969288D01*
X192489077Y-124970468D01*
X192471000Y-125010566D01*
X192458807Y-125094667D01*
X192451918Y-125229227D01*
X192449750Y-125420698D01*
X192449224Y-125532086D01*
X192445265Y-125685749D01*
X192436516Y-125792669D01*
X192421895Y-125863510D01*
X192400325Y-125908935D01*
X192335568Y-125957717D01*
X192237168Y-125980321D01*
X192134667Y-125971510D01*
X192055191Y-125929654D01*
X192024848Y-125893184D01*
X192002577Y-125846284D01*
X191987138Y-125778659D01*
X191976888Y-125679616D01*
X191970188Y-125538460D01*
X191965397Y-125344500D01*
X191957625Y-124947625D01*
X191640606Y-124938447D01*
X191551963Y-124936293D01*
X191432260Y-124936508D01*
X191356127Y-124943473D01*
X191310775Y-124958825D01*
X191283419Y-124984203D01*
X191270150Y-125014875D01*
X191255002Y-125105836D01*
X191246138Y-125252814D01*
X191243250Y-125459425D01*
X191242238Y-125617255D01*
X191237866Y-125750916D01*
X191229002Y-125840557D01*
X191214535Y-125896635D01*
X191193358Y-125929607D01*
X191149770Y-125958481D01*
X191051631Y-125978478D01*
X190946407Y-125963931D01*
X190862250Y-125916000D01*
X190845691Y-125897649D01*
X190824736Y-125861323D01*
X190811086Y-125808054D01*
X190803219Y-125726205D01*
X190799614Y-125604141D01*
X190798750Y-125430225D01*
X190797682Y-125296328D01*
X190791291Y-125127967D01*
X190779000Y-125019776D01*
X190760651Y-124969850D01*
X190747651Y-124960804D01*
X190678558Y-124940042D01*
X190584582Y-124931750D01*
X190549175Y-124930887D01*
X190447763Y-124910152D01*
X190368682Y-124853818D01*
X190368115Y-124853249D01*
X190303860Y-124762163D01*
X190300257Y-124671605D01*
X190356846Y-124570536D01*
X190422942Y-124486509D01*
X191650659Y-124494817D01*
G36*
X187234730Y-123984877D02*
G01*
X187359746Y-124013019D01*
X187398678Y-124030043D01*
X187534871Y-124128128D01*
X187646372Y-124267050D01*
X187721696Y-124429551D01*
X187749356Y-124598375D01*
X187725172Y-124750284D01*
X187658240Y-124904062D01*
X187559820Y-125041374D01*
X187441185Y-125146555D01*
X187313606Y-125203943D01*
X187247947Y-125219745D01*
X187195125Y-125235304D01*
X187180889Y-125237933D01*
X187113657Y-125237520D01*
X187020500Y-125228482D01*
X186992055Y-125225113D01*
X186857304Y-125215914D01*
X186726813Y-125215057D01*
X186576000Y-125220704D01*
X186576000Y-124582500D01*
X187151718Y-124582500D01*
X187141672Y-124669812D01*
X187135294Y-124707901D01*
X187113777Y-124741909D01*
X187062636Y-124758421D01*
X186964938Y-124766721D01*
X186894956Y-124771684D01*
X186830686Y-124783845D01*
X186803723Y-124809022D01*
X186798250Y-124855654D01*
X186800034Y-124880395D01*
X186829983Y-124936192D01*
X186908356Y-124980995D01*
X187029929Y-125018116D01*
X187173682Y-125015900D01*
X187309493Y-124955143D01*
X187424969Y-124850712D01*
X187497497Y-124718122D01*
X187515372Y-124575659D01*
X187477304Y-124434833D01*
X187382005Y-124307154D01*
X187371307Y-124297275D01*
X187234943Y-124207589D01*
X187092199Y-124180642D01*
X186939999Y-124215799D01*
X186907266Y-124228851D01*
X186814123Y-124252091D01*
X186751757Y-124234046D01*
X186704046Y-124171703D01*
X186688512Y-124127833D01*
X186707297Y-124089487D01*
X186773407Y-124043029D01*
X186811008Y-124024506D01*
X186935111Y-123991913D01*
X187084768Y-123978272D01*
X187234730Y-123984877D01*
G37*
X187234730Y-123984877D02*
X187359746Y-124013019D01*
X187398678Y-124030043D01*
X187534871Y-124128128D01*
X187646372Y-124267050D01*
X187721696Y-124429551D01*
X187749356Y-124598375D01*
X187725172Y-124750284D01*
X187658240Y-124904062D01*
X187559820Y-125041374D01*
X187441185Y-125146555D01*
X187313606Y-125203943D01*
X187247947Y-125219745D01*
X187195125Y-125235304D01*
X187180889Y-125237933D01*
X187113657Y-125237520D01*
X187020500Y-125228482D01*
X186992055Y-125225113D01*
X186857304Y-125215914D01*
X186726813Y-125215057D01*
X186576000Y-125220704D01*
X186576000Y-124582500D01*
X187151718Y-124582500D01*
X187141672Y-124669812D01*
X187135294Y-124707901D01*
X187113777Y-124741909D01*
X187062636Y-124758421D01*
X186964938Y-124766721D01*
X186894956Y-124771684D01*
X186830686Y-124783845D01*
X186803723Y-124809022D01*
X186798250Y-124855654D01*
X186800034Y-124880395D01*
X186829983Y-124936192D01*
X186908356Y-124980995D01*
X187029929Y-125018116D01*
X187173682Y-125015900D01*
X187309493Y-124955143D01*
X187424969Y-124850712D01*
X187497497Y-124718122D01*
X187515372Y-124575659D01*
X187477304Y-124434833D01*
X187382005Y-124307154D01*
X187371307Y-124297275D01*
X187234943Y-124207589D01*
X187092199Y-124180642D01*
X186939999Y-124215799D01*
X186907266Y-124228851D01*
X186814123Y-124252091D01*
X186751757Y-124234046D01*
X186704046Y-124171703D01*
X186688512Y-124127833D01*
X186707297Y-124089487D01*
X186773407Y-124043029D01*
X186811008Y-124024506D01*
X186935111Y-123991913D01*
X187084768Y-123978272D01*
X187234730Y-123984877D01*
G36*
X188576250Y-124487250D02*
G01*
X189147750Y-124487250D01*
X189147750Y-123979250D01*
X189370000Y-123979250D01*
X189370000Y-125217500D01*
X189147750Y-125217500D01*
X189147750Y-124709500D01*
X188576250Y-124709500D01*
X188576250Y-125217500D01*
X188354000Y-125217500D01*
X188354000Y-123979250D01*
X188576250Y-123979250D01*
X188576250Y-124487250D01*
G37*
X188576250Y-124487250D02*
X189147750Y-124487250D01*
X189147750Y-123979250D01*
X189370000Y-123979250D01*
X189370000Y-125217500D01*
X189147750Y-125217500D01*
X189147750Y-124709500D01*
X188576250Y-124709500D01*
X188576250Y-125217500D01*
X188354000Y-125217500D01*
X188354000Y-123979250D01*
X188576250Y-123979250D01*
X188576250Y-124487250D01*
G36*
X188124574Y-124565557D02*
G01*
X188126376Y-124730970D01*
X188126578Y-124899466D01*
X188124966Y-125037633D01*
X188121679Y-125134419D01*
X188116854Y-125178773D01*
X188083384Y-125205904D01*
X188003255Y-125211590D01*
X187906074Y-125201625D01*
X187906275Y-124598375D01*
X187906477Y-123995125D01*
X188115875Y-123995125D01*
X188124574Y-124565557D01*
G37*
X188124574Y-124565557D02*
X188126376Y-124730970D01*
X188126578Y-124899466D01*
X188124966Y-125037633D01*
X188121679Y-125134419D01*
X188116854Y-125178773D01*
X188083384Y-125205904D01*
X188003255Y-125211590D01*
X187906074Y-125201625D01*
X187906275Y-124598375D01*
X187906477Y-123995125D01*
X188115875Y-123995125D01*
X188124574Y-124565557D01*
G36*
X185440938Y-123985175D02*
G01*
X185544125Y-123995125D01*
X185553399Y-124241187D01*
X185562672Y-124487250D01*
X186131500Y-124487250D01*
X186131500Y-123975416D01*
X186244323Y-123985270D01*
X186357146Y-123995125D01*
X186356204Y-124590437D01*
X186356199Y-124593613D01*
X186355864Y-124781203D01*
X186355499Y-124945968D01*
X186355132Y-125077739D01*
X186354792Y-125166347D01*
X186354506Y-125201625D01*
X186353481Y-125203673D01*
X186316355Y-125213501D01*
X186242625Y-125217500D01*
X186131500Y-125217500D01*
X186131573Y-124955562D01*
X186131646Y-124693625D01*
X185845823Y-124703815D01*
X185560000Y-124714006D01*
X185560000Y-125217500D01*
X185337750Y-125217500D01*
X185337750Y-123975226D01*
X185440938Y-123985175D01*
G37*
X185440938Y-123985175D02*
X185544125Y-123995125D01*
X185553399Y-124241187D01*
X185562672Y-124487250D01*
X186131500Y-124487250D01*
X186131500Y-123975416D01*
X186244323Y-123985270D01*
X186357146Y-123995125D01*
X186356204Y-124590437D01*
X186356199Y-124593613D01*
X186355864Y-124781203D01*
X186355499Y-124945968D01*
X186355132Y-125077739D01*
X186354792Y-125166347D01*
X186354506Y-125201625D01*
X186353481Y-125203673D01*
X186316355Y-125213501D01*
X186242625Y-125217500D01*
X186131500Y-125217500D01*
X186131573Y-124955562D01*
X186131646Y-124693625D01*
X185845823Y-124703815D01*
X185560000Y-124714006D01*
X185560000Y-125217500D01*
X185337750Y-125217500D01*
X185337750Y-123975226D01*
X185440938Y-123985175D01*
G36*
X191243250Y-122296500D02*
G01*
X191249289Y-122408323D01*
X191261290Y-122543452D01*
X191275800Y-122628189D01*
X191291931Y-122655981D01*
X191311749Y-122648100D01*
X191379213Y-122613484D01*
X191479218Y-122558117D01*
X191598357Y-122489294D01*
X191675633Y-122444619D01*
X191784538Y-122384661D01*
X191866089Y-122343525D01*
X191906806Y-122328250D01*
X191920273Y-122333853D01*
X191964679Y-122379205D01*
X192019767Y-122454919D01*
X192073789Y-122542602D01*
X192114998Y-122623860D01*
X192131647Y-122680299D01*
X192124794Y-122696744D01*
X192071453Y-122747366D01*
X191971074Y-122817294D01*
X191830625Y-122901407D01*
X191728232Y-122960365D01*
X191625075Y-123022317D01*
X191554905Y-123067572D01*
X191529009Y-123089107D01*
X191546921Y-123104946D01*
X191610277Y-123146415D01*
X191708618Y-123205704D01*
X191830634Y-123275812D01*
X191931507Y-123334914D01*
X192035408Y-123401881D01*
X192106134Y-123454943D01*
X192132250Y-123486126D01*
X192132099Y-123489084D01*
X192113796Y-123544855D01*
X192073314Y-123629398D01*
X192022608Y-123720997D01*
X191973628Y-123797934D01*
X191938327Y-123838491D01*
X191905680Y-123833101D01*
X191828357Y-123801607D01*
X191719491Y-123748729D01*
X191591288Y-123680040D01*
X191474809Y-123615578D01*
X191366939Y-123557173D01*
X191291047Y-123517577D01*
X191258790Y-123503000D01*
X191254501Y-123515091D01*
X191248705Y-123577667D01*
X191244728Y-123681552D01*
X191243250Y-123813146D01*
X191243220Y-123860896D01*
X191241739Y-123987732D01*
X191235589Y-124069006D01*
X191221451Y-124118594D01*
X191196007Y-124150370D01*
X191155938Y-124178212D01*
X191061262Y-124214629D01*
X190949960Y-124202882D01*
X190854313Y-124133128D01*
X190831514Y-124098033D01*
X190811780Y-124033090D01*
X190801625Y-123933619D01*
X190798750Y-123785232D01*
X190798463Y-123724584D01*
X190796109Y-123610985D01*
X190791898Y-123532372D01*
X190786451Y-123503000D01*
X190765039Y-123513136D01*
X190698482Y-123549676D01*
X190598529Y-123606589D01*
X190476889Y-123677281D01*
X190377034Y-123735029D01*
X190269038Y-123795411D01*
X190190965Y-123836595D01*
X190155114Y-123851906D01*
X190140973Y-123844662D01*
X190099013Y-123796731D01*
X190046892Y-123719623D01*
X189995803Y-123631860D01*
X189956942Y-123551962D01*
X189941500Y-123498452D01*
X189942786Y-123490645D01*
X189984065Y-123440534D01*
X190083793Y-123368594D01*
X190242432Y-123274480D01*
X190343778Y-123216850D01*
X190447098Y-123155717D01*
X190517407Y-123111202D01*
X190543364Y-123090250D01*
X190525700Y-123075021D01*
X190462555Y-123034244D01*
X190364352Y-122975596D01*
X190242432Y-122906019D01*
X190147600Y-122850693D01*
X190040227Y-122781038D01*
X189967964Y-122725068D01*
X189941500Y-122690442D01*
X189942221Y-122680445D01*
X189964847Y-122606378D01*
X190009441Y-122511914D01*
X190062715Y-122422588D01*
X190111385Y-122363933D01*
X190128490Y-122353034D01*
X190167302Y-122347271D01*
X190224411Y-122361928D01*
X190308503Y-122400628D01*
X190428263Y-122466996D01*
X190592375Y-122564657D01*
X190782875Y-122679968D01*
X190798750Y-122305671D01*
X190814625Y-121931375D01*
X191227375Y-121931375D01*
X191243250Y-122296500D01*
G37*
X191243250Y-122296500D02*
X191249289Y-122408323D01*
X191261290Y-122543452D01*
X191275800Y-122628189D01*
X191291931Y-122655981D01*
X191311749Y-122648100D01*
X191379213Y-122613484D01*
X191479218Y-122558117D01*
X191598357Y-122489294D01*
X191675633Y-122444619D01*
X191784538Y-122384661D01*
X191866089Y-122343525D01*
X191906806Y-122328250D01*
X191920273Y-122333853D01*
X191964679Y-122379205D01*
X192019767Y-122454919D01*
X192073789Y-122542602D01*
X192114998Y-122623860D01*
X192131647Y-122680299D01*
X192124794Y-122696744D01*
X192071453Y-122747366D01*
X191971074Y-122817294D01*
X191830625Y-122901407D01*
X191728232Y-122960365D01*
X191625075Y-123022317D01*
X191554905Y-123067572D01*
X191529009Y-123089107D01*
X191546921Y-123104946D01*
X191610277Y-123146415D01*
X191708618Y-123205704D01*
X191830634Y-123275812D01*
X191931507Y-123334914D01*
X192035408Y-123401881D01*
X192106134Y-123454943D01*
X192132250Y-123486126D01*
X192132099Y-123489084D01*
X192113796Y-123544855D01*
X192073314Y-123629398D01*
X192022608Y-123720997D01*
X191973628Y-123797934D01*
X191938327Y-123838491D01*
X191905680Y-123833101D01*
X191828357Y-123801607D01*
X191719491Y-123748729D01*
X191591288Y-123680040D01*
X191474809Y-123615578D01*
X191366939Y-123557173D01*
X191291047Y-123517577D01*
X191258790Y-123503000D01*
X191254501Y-123515091D01*
X191248705Y-123577667D01*
X191244728Y-123681552D01*
X191243250Y-123813146D01*
X191243220Y-123860896D01*
X191241739Y-123987732D01*
X191235589Y-124069006D01*
X191221451Y-124118594D01*
X191196007Y-124150370D01*
X191155938Y-124178212D01*
X191061262Y-124214629D01*
X190949960Y-124202882D01*
X190854313Y-124133128D01*
X190831514Y-124098033D01*
X190811780Y-124033090D01*
X190801625Y-123933619D01*
X190798750Y-123785232D01*
X190798463Y-123724584D01*
X190796109Y-123610985D01*
X190791898Y-123532372D01*
X190786451Y-123503000D01*
X190765039Y-123513136D01*
X190698482Y-123549676D01*
X190598529Y-123606589D01*
X190476889Y-123677281D01*
X190377034Y-123735029D01*
X190269038Y-123795411D01*
X190190965Y-123836595D01*
X190155114Y-123851906D01*
X190140973Y-123844662D01*
X190099013Y-123796731D01*
X190046892Y-123719623D01*
X189995803Y-123631860D01*
X189956942Y-123551962D01*
X189941500Y-123498452D01*
X189942786Y-123490645D01*
X189984065Y-123440534D01*
X190083793Y-123368594D01*
X190242432Y-123274480D01*
X190343778Y-123216850D01*
X190447098Y-123155717D01*
X190517407Y-123111202D01*
X190543364Y-123090250D01*
X190525700Y-123075021D01*
X190462555Y-123034244D01*
X190364352Y-122975596D01*
X190242432Y-122906019D01*
X190147600Y-122850693D01*
X190040227Y-122781038D01*
X189967964Y-122725068D01*
X189941500Y-122690442D01*
X189942221Y-122680445D01*
X189964847Y-122606378D01*
X190009441Y-122511914D01*
X190062715Y-122422588D01*
X190111385Y-122363933D01*
X190128490Y-122353034D01*
X190167302Y-122347271D01*
X190224411Y-122361928D01*
X190308503Y-122400628D01*
X190428263Y-122466996D01*
X190592375Y-122564657D01*
X190782875Y-122679968D01*
X190798750Y-122305671D01*
X190814625Y-121931375D01*
X191227375Y-121931375D01*
X191243250Y-122296500D01*
G36*
X188062528Y-122831608D02*
G01*
X188059692Y-122965936D01*
X188055172Y-123120136D01*
X188048851Y-123228881D01*
X188039102Y-123302966D01*
X188024296Y-123353185D01*
X188002805Y-123390334D01*
X187973000Y-123425208D01*
X187971804Y-123426495D01*
X187888101Y-123499454D01*
X187798375Y-123555175D01*
X187761365Y-123569071D01*
X187633252Y-123589902D01*
X187488076Y-123586270D01*
X187351769Y-123560145D01*
X187250261Y-123513499D01*
X187244535Y-123509205D01*
X187166841Y-123442353D01*
X187110856Y-123369484D01*
X187073199Y-123279136D01*
X187050487Y-123159850D01*
X187039340Y-123000167D01*
X187036375Y-122788625D01*
X187036375Y-122344125D01*
X187258625Y-122344125D01*
X187274500Y-122799468D01*
X187275733Y-122834526D01*
X187282482Y-123004236D01*
X187289913Y-123123401D01*
X187299970Y-123203062D01*
X187314596Y-123254257D01*
X187335735Y-123288025D01*
X187365330Y-123315406D01*
X187446405Y-123357027D01*
X187560250Y-123376000D01*
X187661140Y-123361054D01*
X187755171Y-123315406D01*
X187760942Y-123310676D01*
X187788946Y-123282983D01*
X187808827Y-123247006D01*
X187822530Y-123191705D01*
X187831998Y-123106041D01*
X187839173Y-122978975D01*
X187846000Y-122799468D01*
X187861875Y-122344125D01*
X187967278Y-122334010D01*
X188072680Y-122323896D01*
X188062528Y-122831608D01*
G37*
X188062528Y-122831608D02*
X188059692Y-122965936D01*
X188055172Y-123120136D01*
X188048851Y-123228881D01*
X188039102Y-123302966D01*
X188024296Y-123353185D01*
X188002805Y-123390334D01*
X187973000Y-123425208D01*
X187971804Y-123426495D01*
X187888101Y-123499454D01*
X187798375Y-123555175D01*
X187761365Y-123569071D01*
X187633252Y-123589902D01*
X187488076Y-123586270D01*
X187351769Y-123560145D01*
X187250261Y-123513499D01*
X187244535Y-123509205D01*
X187166841Y-123442353D01*
X187110856Y-123369484D01*
X187073199Y-123279136D01*
X187050487Y-123159850D01*
X187039340Y-123000167D01*
X187036375Y-122788625D01*
X187036375Y-122344125D01*
X187258625Y-122344125D01*
X187274500Y-122799468D01*
X187275733Y-122834526D01*
X187282482Y-123004236D01*
X187289913Y-123123401D01*
X187299970Y-123203062D01*
X187314596Y-123254257D01*
X187335735Y-123288025D01*
X187365330Y-123315406D01*
X187446405Y-123357027D01*
X187560250Y-123376000D01*
X187661140Y-123361054D01*
X187755171Y-123315406D01*
X187760942Y-123310676D01*
X187788946Y-123282983D01*
X187808827Y-123247006D01*
X187822530Y-123191705D01*
X187831998Y-123106041D01*
X187839173Y-122978975D01*
X187846000Y-122799468D01*
X187861875Y-122344125D01*
X187967278Y-122334010D01*
X188072680Y-122323896D01*
X188062528Y-122831608D01*
G36*
X186628630Y-122332036D02*
G01*
X186699544Y-122346250D01*
X186755154Y-122378567D01*
X186817300Y-122436199D01*
X186857148Y-122478982D01*
X186910300Y-122564091D01*
X186925250Y-122656679D01*
X186924993Y-122670419D01*
X186899414Y-122780587D01*
X186827853Y-122875759D01*
X186704479Y-122961548D01*
X186523463Y-123043569D01*
X186430798Y-123081668D01*
X186322205Y-123139096D01*
X186268622Y-123193276D01*
X186265493Y-123249951D01*
X186308263Y-123314862D01*
X186355617Y-123349048D01*
X186459957Y-123374205D01*
X186582432Y-123364770D01*
X186701450Y-123320437D01*
X186720593Y-123309736D01*
X186779668Y-123283037D01*
X186817156Y-123292936D01*
X186860290Y-123343362D01*
X186897102Y-123400861D01*
X186898256Y-123446522D01*
X186853047Y-123487841D01*
X186754646Y-123537358D01*
X186619336Y-123581652D01*
X186426127Y-123589810D01*
X186234452Y-123535499D01*
X186206229Y-123521806D01*
X186106469Y-123446820D01*
X186052473Y-123343057D01*
X186036250Y-123196865D01*
X186047731Y-123119421D01*
X186113164Y-123010997D01*
X186237821Y-122918165D01*
X186423183Y-122839558D01*
X186547851Y-122793351D01*
X186646973Y-122740462D01*
X186693025Y-122687374D01*
X186691491Y-122629802D01*
X186670064Y-122593709D01*
X186592029Y-122545961D01*
X186478114Y-122536134D01*
X186339932Y-122566327D01*
X186263634Y-122591894D01*
X186203981Y-122604867D01*
X186169422Y-122595177D01*
X186140577Y-122562446D01*
X186107931Y-122494423D01*
X186122099Y-122425262D01*
X186192823Y-122373251D01*
X186317084Y-122340400D01*
X186491863Y-122328718D01*
X186520569Y-122328709D01*
X186628630Y-122332036D01*
G37*
X186628630Y-122332036D02*
X186699544Y-122346250D01*
X186755154Y-122378567D01*
X186817300Y-122436199D01*
X186857148Y-122478982D01*
X186910300Y-122564091D01*
X186925250Y-122656679D01*
X186924993Y-122670419D01*
X186899414Y-122780587D01*
X186827853Y-122875759D01*
X186704479Y-122961548D01*
X186523463Y-123043569D01*
X186430798Y-123081668D01*
X186322205Y-123139096D01*
X186268622Y-123193276D01*
X186265493Y-123249951D01*
X186308263Y-123314862D01*
X186355617Y-123349048D01*
X186459957Y-123374205D01*
X186582432Y-123364770D01*
X186701450Y-123320437D01*
X186720593Y-123309736D01*
X186779668Y-123283037D01*
X186817156Y-123292936D01*
X186860290Y-123343362D01*
X186897102Y-123400861D01*
X186898256Y-123446522D01*
X186853047Y-123487841D01*
X186754646Y-123537358D01*
X186619336Y-123581652D01*
X186426127Y-123589810D01*
X186234452Y-123535499D01*
X186206229Y-123521806D01*
X186106469Y-123446820D01*
X186052473Y-123343057D01*
X186036250Y-123196865D01*
X186047731Y-123119421D01*
X186113164Y-123010997D01*
X186237821Y-122918165D01*
X186423183Y-122839558D01*
X186547851Y-122793351D01*
X186646973Y-122740462D01*
X186693025Y-122687374D01*
X186691491Y-122629802D01*
X186670064Y-122593709D01*
X186592029Y-122545961D01*
X186478114Y-122536134D01*
X186339932Y-122566327D01*
X186263634Y-122591894D01*
X186203981Y-122604867D01*
X186169422Y-122595177D01*
X186140577Y-122562446D01*
X186107931Y-122494423D01*
X186122099Y-122425262D01*
X186192823Y-122373251D01*
X186317084Y-122340400D01*
X186491863Y-122328718D01*
X186520569Y-122328709D01*
X186628630Y-122332036D01*
G36*
X188393688Y-122334175D02*
G01*
X188496875Y-122344125D01*
X188528625Y-123155795D01*
X188856494Y-122742022D01*
X188863255Y-122733492D01*
X188985712Y-122580661D01*
X189077344Y-122471229D01*
X189145229Y-122398233D01*
X189196445Y-122354712D01*
X189238070Y-122333705D01*
X189277182Y-122328250D01*
X189370000Y-122328250D01*
X189370000Y-123570523D01*
X189270942Y-123560574D01*
X189171883Y-123550625D01*
X189177328Y-123142927D01*
X189177605Y-122984574D01*
X189173446Y-122854769D01*
X189165020Y-122775739D01*
X189152729Y-122753798D01*
X189139461Y-122766541D01*
X189090510Y-122822583D01*
X189014379Y-122914384D01*
X188918451Y-123032987D01*
X188810113Y-123169433D01*
X188776803Y-123211687D01*
X188666036Y-123350322D01*
X188584191Y-123447487D01*
X188523667Y-123510435D01*
X188476865Y-123546417D01*
X188436183Y-123562688D01*
X188394021Y-123566500D01*
X188290500Y-123566500D01*
X188290500Y-122324226D01*
X188393688Y-122334175D01*
G37*
X188393688Y-122334175D02*
X188496875Y-122344125D01*
X188528625Y-123155795D01*
X188856494Y-122742022D01*
X188863255Y-122733492D01*
X188985712Y-122580661D01*
X189077344Y-122471229D01*
X189145229Y-122398233D01*
X189196445Y-122354712D01*
X189238070Y-122333705D01*
X189277182Y-122328250D01*
X189370000Y-122328250D01*
X189370000Y-123570523D01*
X189270942Y-123560574D01*
X189171883Y-123550625D01*
X189177328Y-123142927D01*
X189177605Y-122984574D01*
X189173446Y-122854769D01*
X189165020Y-122775739D01*
X189152729Y-122753798D01*
X189139461Y-122766541D01*
X189090510Y-122822583D01*
X189014379Y-122914384D01*
X188918451Y-123032987D01*
X188810113Y-123169433D01*
X188776803Y-123211687D01*
X188666036Y-123350322D01*
X188584191Y-123447487D01*
X188523667Y-123510435D01*
X188476865Y-123546417D01*
X188436183Y-123562688D01*
X188394021Y-123566500D01*
X188290500Y-123566500D01*
X188290500Y-122324226D01*
X188393688Y-122334175D01*
%TD*%
%LPC*%
D14*
%TO.C,H3*%
X198913344Y-52813223D03*
%TD*%
D15*
%TO.C,U1*%
X120670000Y-123950000D03*
D16*
X118130000Y-123950000D03*
X120670000Y-121410000D03*
X118130000Y-121410000D03*
X120670000Y-118870000D03*
X118130000Y-118870000D03*
X120670000Y-116330000D03*
X118130000Y-116330000D03*
X120670000Y-113790000D03*
X118130000Y-113790000D03*
X120670000Y-111250000D03*
X118130000Y-111250000D03*
X120670000Y-108710000D03*
X118130000Y-108710000D03*
X120670000Y-106170000D03*
X118130000Y-106170000D03*
X120670000Y-103630000D03*
X118130000Y-103630000D03*
X120670000Y-101090000D03*
X118130000Y-101090000D03*
X120670000Y-98550000D03*
X118130000Y-98550000D03*
X120670000Y-96010000D03*
X118130000Y-96010000D03*
X120670000Y-93470000D03*
X118130000Y-93470000D03*
X120670000Y-90930000D03*
X118130000Y-90930000D03*
X120670000Y-88390000D03*
X118130000Y-88390000D03*
X120670000Y-85850000D03*
X118130000Y-85850000D03*
X120670000Y-83310000D03*
X118130000Y-83310000D03*
X120670000Y-80770000D03*
X118130000Y-80770000D03*
X120670000Y-78230000D03*
X118130000Y-78230000D03*
X120670000Y-75690000D03*
X118130000Y-75690000D03*
X120670000Y-73150000D03*
X118130000Y-73150000D03*
X120670000Y-70610000D03*
X118130000Y-70610000D03*
X120670000Y-68070000D03*
X118130000Y-68070000D03*
X120670000Y-65530000D03*
X118130000Y-65530000D03*
X120670000Y-62990000D03*
X118130000Y-62990000D03*
X120670000Y-60450000D03*
X118130000Y-60450000D03*
X115590000Y-123950000D03*
X113050000Y-123950000D03*
X115590000Y-121410000D03*
X113050000Y-121410000D03*
X115590000Y-118870000D03*
X113050000Y-118870000D03*
X115590000Y-116330000D03*
X113050000Y-116330000D03*
X115590000Y-113790000D03*
X113050000Y-113790000D03*
X115590000Y-111250000D03*
X113050000Y-111250000D03*
X115590000Y-108710000D03*
X113050000Y-108710000D03*
X115590000Y-106170000D03*
X113050000Y-106170000D03*
X115590000Y-103630000D03*
X113050000Y-103630000D03*
X115590000Y-101090000D03*
X113050000Y-101090000D03*
X115590000Y-98550000D03*
X113050000Y-98550000D03*
X115590000Y-96010000D03*
X113050000Y-96010000D03*
X115590000Y-93470000D03*
X113050000Y-93470000D03*
X115590000Y-90930000D03*
X113050000Y-90930000D03*
X115590000Y-88390000D03*
X113050000Y-88390000D03*
X115590000Y-85850000D03*
X113050000Y-85850000D03*
X115590000Y-83310000D03*
X113050000Y-83310000D03*
X115590000Y-80770000D03*
X113050000Y-80770000D03*
X115590000Y-78230000D03*
X113050000Y-78230000D03*
X115590000Y-75690000D03*
X113050000Y-75690000D03*
X115590000Y-73150000D03*
X113050000Y-73150000D03*
X115590000Y-70610000D03*
X113050000Y-70610000D03*
X115590000Y-68070000D03*
X113050000Y-68070000D03*
X115590000Y-65530000D03*
X113050000Y-65530000D03*
X115590000Y-62990000D03*
X113050000Y-62990000D03*
X115590000Y-60450000D03*
X113050000Y-60450000D03*
%TD*%
D14*
%TO.C,H2*%
X113183344Y-129013223D03*
%TD*%
%TO.C,H1*%
X113183344Y-55353223D03*
%TD*%
%TO.C,H4*%
X198913344Y-132823222D03*
%TD*%
M02*
