%TF.GenerationSoftware,KiCad,Pcbnew,(6.0.7)*%
%TF.CreationDate,2022-08-26T15:30:49+08:00*%
%TF.ProjectId,adapter_board,61646170-7465-4725-9f62-6f6172642e6b,rev?*%
%TF.SameCoordinates,Original*%
%TF.FileFunction,Soldermask,Top*%
%TF.FilePolarity,Negative*%
%FSLAX46Y46*%
G04 Gerber Fmt 4.6, Leading zero omitted, Abs format (unit mm)*
G04 Created by KiCad (PCBNEW (6.0.7)) date 2022-08-26 15:30:49*
%MOMM*%
%LPD*%
G01*
G04 APERTURE LIST*
G04 Aperture macros list*
%AMRoundRect*
0 Rectangle with rounded corners*
0 $1 Rounding radius*
0 $2 $3 $4 $5 $6 $7 $8 $9 X,Y pos of 4 corners*
0 Add a 4 corners polygon primitive as box body*
4,1,4,$2,$3,$4,$5,$6,$7,$8,$9,$2,$3,0*
0 Add four circle primitives for the rounded corners*
1,1,$1+$1,$2,$3*
1,1,$1+$1,$4,$5*
1,1,$1+$1,$6,$7*
1,1,$1+$1,$8,$9*
0 Add four rect primitives between the rounded corners*
20,1,$1+$1,$2,$3,$4,$5,0*
20,1,$1+$1,$4,$5,$6,$7,0*
20,1,$1+$1,$6,$7,$8,$9,0*
20,1,$1+$1,$8,$9,$2,$3,0*%
G04 Aperture macros list end*
%ADD10RoundRect,0.200000X0.450000X-0.200000X0.450000X0.200000X-0.450000X0.200000X-0.450000X-0.200000X0*%
%ADD11RoundRect,0.250001X1.249999X-0.799999X1.249999X0.799999X-1.249999X0.799999X-1.249999X-0.799999X0*%
%ADD12RoundRect,0.200000X-0.200000X-0.600000X0.200000X-0.600000X0.200000X0.600000X-0.200000X0.600000X0*%
%ADD13RoundRect,0.250001X-0.799999X-1.249999X0.799999X-1.249999X0.799999X1.249999X-0.799999X1.249999X0*%
%ADD14RoundRect,0.200000X0.200000X0.600000X-0.200000X0.600000X-0.200000X-0.600000X0.200000X-0.600000X0*%
%ADD15RoundRect,0.250001X0.799999X1.249999X-0.799999X1.249999X-0.799999X-1.249999X0.799999X-1.249999X0*%
%ADD16C,5.600000*%
%ADD17R,1.600000X1.600000*%
%ADD18C,1.600000*%
G04 APERTURE END LIST*
D10*
%TO.C,J9*%
X161750000Y-126175000D03*
X161750000Y-124925000D03*
X161750000Y-123675000D03*
X161750000Y-122425000D03*
D11*
X164500000Y-119875000D03*
X164500000Y-128725000D03*
%TD*%
D10*
%TO.C,J14*%
X180350000Y-126175000D03*
X180350000Y-124925000D03*
X180350000Y-123675000D03*
X180350000Y-122425000D03*
D11*
X183100000Y-128725000D03*
X183100000Y-119875000D03*
%TD*%
D12*
%TO.C,J7*%
X136800000Y-126600000D03*
X138050000Y-126600000D03*
X139300000Y-126600000D03*
X140550000Y-126600000D03*
X141800000Y-126600000D03*
X143050000Y-126600000D03*
D13*
X134250000Y-129500000D03*
X145600000Y-129500000D03*
%TD*%
D14*
%TO.C,J1*%
X187200000Y-57700000D03*
X185950000Y-57700000D03*
X184700000Y-57700000D03*
X183450000Y-57700000D03*
X182200000Y-57700000D03*
D15*
X189750000Y-54800000D03*
X179650000Y-54800000D03*
%TD*%
D14*
%TO.C,J2*%
X137475000Y-57700000D03*
X136225000Y-57700000D03*
X134975000Y-57700000D03*
X133725000Y-57700000D03*
X132475000Y-57700000D03*
X131225000Y-57700000D03*
X129975000Y-57700000D03*
X128725000Y-57700000D03*
X127475000Y-57700000D03*
X126225000Y-57700000D03*
X124975000Y-57700000D03*
X123725000Y-57700000D03*
D15*
X140025000Y-54800000D03*
X121175000Y-54800000D03*
%TD*%
D16*
%TO.C,H3*%
X198913344Y-52813223D03*
%TD*%
D14*
%TO.C,J4*%
X159225000Y-57700000D03*
X157975000Y-57700000D03*
D15*
X155425000Y-54800000D03*
X161775000Y-54800000D03*
%TD*%
D14*
%TO.C,J8*%
X173825000Y-57700000D03*
X172575000Y-57700000D03*
X171325000Y-57700000D03*
X170075000Y-57700000D03*
X168825000Y-57700000D03*
X167575000Y-57700000D03*
D15*
X165025000Y-54800000D03*
X176375000Y-54800000D03*
%TD*%
D12*
%TO.C,J3*%
X124725000Y-126600000D03*
X125975000Y-126600000D03*
X127225000Y-126600000D03*
X128475000Y-126600000D03*
D13*
X131025000Y-129500000D03*
X122175000Y-129500000D03*
%TD*%
D17*
%TO.C,U1*%
X120670000Y-123950000D03*
D18*
X118130000Y-123950000D03*
X120670000Y-121410000D03*
X118130000Y-121410000D03*
X120670000Y-118870000D03*
X118130000Y-118870000D03*
X120670000Y-116330000D03*
X118130000Y-116330000D03*
X120670000Y-113790000D03*
X118130000Y-113790000D03*
X120670000Y-111250000D03*
X118130000Y-111250000D03*
X120670000Y-108710000D03*
X118130000Y-108710000D03*
X120670000Y-106170000D03*
X118130000Y-106170000D03*
X120670000Y-103630000D03*
X118130000Y-103630000D03*
X120670000Y-101090000D03*
X118130000Y-101090000D03*
X120670000Y-98550000D03*
X118130000Y-98550000D03*
X120670000Y-96010000D03*
X118130000Y-96010000D03*
X120670000Y-93470000D03*
X118130000Y-93470000D03*
X120670000Y-90930000D03*
X118130000Y-90930000D03*
X120670000Y-88390000D03*
X118130000Y-88390000D03*
X120670000Y-85850000D03*
X118130000Y-85850000D03*
X120670000Y-83310000D03*
X118130000Y-83310000D03*
X120670000Y-80770000D03*
X118130000Y-80770000D03*
X120670000Y-78230000D03*
X118130000Y-78230000D03*
X120670000Y-75690000D03*
X118130000Y-75690000D03*
X120670000Y-73150000D03*
X118130000Y-73150000D03*
X120670000Y-70610000D03*
X118130000Y-70610000D03*
X120670000Y-68070000D03*
X118130000Y-68070000D03*
X120670000Y-65530000D03*
X118130000Y-65530000D03*
X120670000Y-62990000D03*
X118130000Y-62990000D03*
X120670000Y-60450000D03*
X118130000Y-60450000D03*
X115590000Y-123950000D03*
X113050000Y-123950000D03*
X115590000Y-121410000D03*
X113050000Y-121410000D03*
X115590000Y-118870000D03*
X113050000Y-118870000D03*
X115590000Y-116330000D03*
X113050000Y-116330000D03*
X115590000Y-113790000D03*
X113050000Y-113790000D03*
X115590000Y-111250000D03*
X113050000Y-111250000D03*
X115590000Y-108710000D03*
X113050000Y-108710000D03*
X115590000Y-106170000D03*
X113050000Y-106170000D03*
X115590000Y-103630000D03*
X113050000Y-103630000D03*
X115590000Y-101090000D03*
X113050000Y-101090000D03*
X115590000Y-98550000D03*
X113050000Y-98550000D03*
X115590000Y-96010000D03*
X113050000Y-96010000D03*
X115590000Y-93470000D03*
X113050000Y-93470000D03*
X115590000Y-90930000D03*
X113050000Y-90930000D03*
X115590000Y-88390000D03*
X113050000Y-88390000D03*
X115590000Y-85850000D03*
X113050000Y-85850000D03*
X115590000Y-83310000D03*
X113050000Y-83310000D03*
X115590000Y-80770000D03*
X113050000Y-80770000D03*
X115590000Y-78230000D03*
X113050000Y-78230000D03*
X115590000Y-75690000D03*
X113050000Y-75690000D03*
X115590000Y-73150000D03*
X113050000Y-73150000D03*
X115590000Y-70610000D03*
X113050000Y-70610000D03*
X115590000Y-68070000D03*
X113050000Y-68070000D03*
X115590000Y-65530000D03*
X113050000Y-65530000D03*
X115590000Y-62990000D03*
X113050000Y-62990000D03*
X115590000Y-60450000D03*
X113050000Y-60450000D03*
%TD*%
D10*
%TO.C,J13*%
X192750000Y-126175000D03*
X192750000Y-124925000D03*
X192750000Y-123675000D03*
X192750000Y-122425000D03*
D11*
X195500000Y-128725000D03*
X195500000Y-119875000D03*
%TD*%
D16*
%TO.C,H2*%
X113183344Y-129013223D03*
%TD*%
D14*
%TO.C,J6*%
X149675000Y-57700000D03*
X148425000Y-57700000D03*
X147175000Y-57700000D03*
X145925000Y-57700000D03*
D15*
X152225000Y-54800000D03*
X143375000Y-54800000D03*
%TD*%
D16*
%TO.C,H1*%
X113183344Y-55353223D03*
%TD*%
D10*
%TO.C,J10*%
X167950000Y-126175000D03*
X167950000Y-124925000D03*
X167950000Y-123675000D03*
X167950000Y-122425000D03*
D11*
X170700000Y-119875000D03*
X170700000Y-128725000D03*
%TD*%
D10*
%TO.C,J11*%
X174150000Y-126175000D03*
X174150000Y-124925000D03*
X174150000Y-123675000D03*
X174150000Y-122425000D03*
D11*
X176900000Y-128725000D03*
X176900000Y-119875000D03*
%TD*%
D12*
%TO.C,J5*%
X151400000Y-126600000D03*
X152650000Y-126600000D03*
X153900000Y-126600000D03*
X155150000Y-126600000D03*
X156400000Y-126600000D03*
D13*
X158950000Y-129500000D03*
X148850000Y-129500000D03*
%TD*%
D16*
%TO.C,H4*%
X198913344Y-132823222D03*
%TD*%
D10*
%TO.C,J12*%
X186550000Y-126175000D03*
X186550000Y-124925000D03*
X186550000Y-123675000D03*
X186550000Y-122425000D03*
D11*
X189300000Y-119875000D03*
X189300000Y-128725000D03*
%TD*%
M02*
