%TF.GenerationSoftware,KiCad,Pcbnew,(6.0.7)*%
%TF.CreationDate,2022-08-16T23:53:45+08:00*%
%TF.ProjectId,adapter_board,61646170-7465-4725-9f62-6f6172642e6b,rev?*%
%TF.SameCoordinates,Original*%
%TF.FileFunction,Drillmap*%
%TF.FilePolarity,Positive*%
%FSLAX45Y45*%
G04 Gerber Fmt 4.5, Leading zero omitted, Abs format (unit mm)*
G04 Created by KiCad (PCBNEW (6.0.7)) date 2022-08-16 23:53:45*
%MOMM*%
%LPD*%
G01*
G04 APERTURE LIST*
%ADD10C,0.100000*%
%ADD11C,0.200000*%
%ADD12C,0.040000*%
%ADD13C,0.101600*%
%ADD14C,0.320000*%
G04 APERTURE END LIST*
D10*
X11337834Y-5223323D02*
X16323584Y-5223323D01*
X12821421Y-6486447D02*
X19907868Y-6487868D01*
D11*
X11309334Y-5223323D02*
X11337834Y-5223323D01*
D10*
X19903947Y-11820000D02*
X12820000Y-11820000D01*
D11*
X19891834Y-13595824D02*
G75*
G03*
X20204334Y-13278322I-2504J315004D01*
G01*
D10*
X12409289Y-11407868D02*
X12409289Y-6898579D01*
X19891834Y-13595822D02*
X19200000Y-13595822D01*
D11*
X11006828Y-12893322D02*
G75*
G03*
X11306835Y-13213322I310002J-9998D01*
G01*
D10*
X19350000Y-4968323D02*
G75*
G03*
X19223323Y-5100000I2500J-129177D01*
G01*
X20202920Y-12121789D02*
G75*
G03*
X19903947Y-11820000I-300380J1409D01*
G01*
D11*
X11309334Y-5223325D02*
G75*
G03*
X11006835Y-5548322I11246J-313745D01*
G01*
D10*
X19006678Y-13400000D02*
G75*
G03*
X19200000Y-13595822I194573J-1250D01*
G01*
X16323584Y-5223323D02*
X19100000Y-5223323D01*
X11306835Y-13213322D02*
X18820000Y-13213322D01*
D11*
X20204328Y-5278323D02*
G75*
G03*
X19889334Y-4968322I-312498J-2498D01*
G01*
D10*
X19889334Y-4968322D02*
X19350000Y-4968322D01*
X19907868Y-6487865D02*
G75*
G03*
X20204335Y-6187868I-1768J298235D01*
G01*
X19100000Y-5223323D02*
G75*
G03*
X19223323Y-5100000I0J123323D01*
G01*
X12821421Y-6486449D02*
G75*
G03*
X12409289Y-6898579I-1J-412131D01*
G01*
D11*
X11006835Y-12893322D02*
X11006835Y-5548323D01*
D10*
X12409290Y-11407868D02*
G75*
G03*
X12820000Y-11820000I411420J-712D01*
G01*
X19006678Y-13400000D02*
G75*
G03*
X18820000Y-13213322I-186678J0D01*
G01*
X20204334Y-13278322D02*
X20202913Y-12121789D01*
X20204335Y-5278322D02*
X20204335Y-6187868D01*
D11*
D12*
X11080000Y-9280000D02*
X11120000Y-9320000D01*
X11120000Y-9280000D02*
X11080000Y-9320000D01*
X11590000Y-5770000D02*
X11630000Y-5810000D01*
X11630000Y-5770000D02*
X11590000Y-5810000D01*
X11670000Y-8470000D02*
X11710000Y-8510000D01*
X11710000Y-8470000D02*
X11670000Y-8510000D01*
X11940000Y-8430000D02*
X11980000Y-8470000D01*
X11980000Y-8430000D02*
X11940000Y-8470000D01*
X12220000Y-8690000D02*
X12260000Y-8730000D01*
X12260000Y-8690000D02*
X12220000Y-8730000D01*
X12220000Y-8950000D02*
X12260000Y-8990000D01*
X12260000Y-8950000D02*
X12220000Y-8990000D01*
X12220000Y-9200000D02*
X12260000Y-9240000D01*
X12260000Y-9200000D02*
X12220000Y-9240000D01*
X13790000Y-12790000D02*
X13830000Y-12830000D01*
X13830000Y-12790000D02*
X13790000Y-12830000D01*
X13910000Y-12477450D02*
X13950000Y-12517450D01*
X13950000Y-12477450D02*
X13910000Y-12517450D01*
X15250000Y-12430000D02*
X15290000Y-12470000D01*
X15290000Y-12430000D02*
X15250000Y-12470000D01*
X15490000Y-12410000D02*
X15530000Y-12450000D01*
X15530000Y-12410000D02*
X15490000Y-12450000D01*
X15780000Y-6100000D02*
X15820000Y-6140000D01*
X15820000Y-6100000D02*
X15780000Y-6140000D01*
X16140000Y-11950000D02*
X16180000Y-11990000D01*
X16180000Y-11950000D02*
X16140000Y-11990000D01*
X16740000Y-5580000D02*
X16780000Y-5620000D01*
X16780000Y-5580000D02*
X16740000Y-5620000D01*
X16990000Y-5890000D02*
X17030000Y-5930000D01*
X17030000Y-5890000D02*
X16990000Y-5930000D01*
X17230000Y-5910000D02*
X17270000Y-5950000D01*
X17270000Y-5910000D02*
X17230000Y-5950000D01*
X18200000Y-5960000D02*
X18240000Y-6000000D01*
X18240000Y-5960000D02*
X18200000Y-6000000D01*
X18440000Y-5980000D02*
X18480000Y-6020000D01*
X18480000Y-5980000D02*
X18440000Y-6020000D01*
D13*
X11355800Y-6045000D02*
G75*
G03*
X11355800Y-6045000I-50800J0D01*
G01*
X11355800Y-6299000D02*
G75*
G03*
X11355800Y-6299000I-50800J0D01*
G01*
X11355800Y-6553000D02*
G75*
G03*
X11355800Y-6553000I-50800J0D01*
G01*
X11355800Y-6807000D02*
G75*
G03*
X11355800Y-6807000I-50800J0D01*
G01*
X11355800Y-7061000D02*
G75*
G03*
X11355800Y-7061000I-50800J0D01*
G01*
X11355800Y-7315000D02*
G75*
G03*
X11355800Y-7315000I-50800J0D01*
G01*
X11355800Y-7569000D02*
G75*
G03*
X11355800Y-7569000I-50800J0D01*
G01*
X11355800Y-7823000D02*
G75*
G03*
X11355800Y-7823000I-50800J0D01*
G01*
X11355800Y-8077000D02*
G75*
G03*
X11355800Y-8077000I-50800J0D01*
G01*
X11355800Y-8331000D02*
G75*
G03*
X11355800Y-8331000I-50800J0D01*
G01*
X11355800Y-8585000D02*
G75*
G03*
X11355800Y-8585000I-50800J0D01*
G01*
X11355800Y-8839000D02*
G75*
G03*
X11355800Y-8839000I-50800J0D01*
G01*
X11355800Y-9093000D02*
G75*
G03*
X11355800Y-9093000I-50800J0D01*
G01*
X11355800Y-9347000D02*
G75*
G03*
X11355800Y-9347000I-50800J0D01*
G01*
X11355800Y-9601000D02*
G75*
G03*
X11355800Y-9601000I-50800J0D01*
G01*
X11355800Y-9855000D02*
G75*
G03*
X11355800Y-9855000I-50800J0D01*
G01*
X11355800Y-10109000D02*
G75*
G03*
X11355800Y-10109000I-50800J0D01*
G01*
X11355800Y-10363000D02*
G75*
G03*
X11355800Y-10363000I-50800J0D01*
G01*
X11355800Y-10617000D02*
G75*
G03*
X11355800Y-10617000I-50800J0D01*
G01*
X11355800Y-10871000D02*
G75*
G03*
X11355800Y-10871000I-50800J0D01*
G01*
X11355800Y-11125000D02*
G75*
G03*
X11355800Y-11125000I-50800J0D01*
G01*
X11355800Y-11379000D02*
G75*
G03*
X11355800Y-11379000I-50800J0D01*
G01*
X11355800Y-11633000D02*
G75*
G03*
X11355800Y-11633000I-50800J0D01*
G01*
X11355800Y-11887000D02*
G75*
G03*
X11355800Y-11887000I-50800J0D01*
G01*
X11355800Y-12141000D02*
G75*
G03*
X11355800Y-12141000I-50800J0D01*
G01*
X11355800Y-12395000D02*
G75*
G03*
X11355800Y-12395000I-50800J0D01*
G01*
X11609800Y-6045000D02*
G75*
G03*
X11609800Y-6045000I-50800J0D01*
G01*
X11609800Y-6299000D02*
G75*
G03*
X11609800Y-6299000I-50800J0D01*
G01*
X11609800Y-6553000D02*
G75*
G03*
X11609800Y-6553000I-50800J0D01*
G01*
X11609800Y-6807000D02*
G75*
G03*
X11609800Y-6807000I-50800J0D01*
G01*
X11609800Y-7061000D02*
G75*
G03*
X11609800Y-7061000I-50800J0D01*
G01*
X11609800Y-7315000D02*
G75*
G03*
X11609800Y-7315000I-50800J0D01*
G01*
X11609800Y-7569000D02*
G75*
G03*
X11609800Y-7569000I-50800J0D01*
G01*
X11609800Y-7823000D02*
G75*
G03*
X11609800Y-7823000I-50800J0D01*
G01*
X11609800Y-8077000D02*
G75*
G03*
X11609800Y-8077000I-50800J0D01*
G01*
X11609800Y-8331000D02*
G75*
G03*
X11609800Y-8331000I-50800J0D01*
G01*
X11609800Y-8585000D02*
G75*
G03*
X11609800Y-8585000I-50800J0D01*
G01*
X11609800Y-8839000D02*
G75*
G03*
X11609800Y-8839000I-50800J0D01*
G01*
X11609800Y-9093000D02*
G75*
G03*
X11609800Y-9093000I-50800J0D01*
G01*
X11609800Y-9347000D02*
G75*
G03*
X11609800Y-9347000I-50800J0D01*
G01*
X11609800Y-9601000D02*
G75*
G03*
X11609800Y-9601000I-50800J0D01*
G01*
X11609800Y-9855000D02*
G75*
G03*
X11609800Y-9855000I-50800J0D01*
G01*
X11609800Y-10109000D02*
G75*
G03*
X11609800Y-10109000I-50800J0D01*
G01*
X11609800Y-10363000D02*
G75*
G03*
X11609800Y-10363000I-50800J0D01*
G01*
X11609800Y-10617000D02*
G75*
G03*
X11609800Y-10617000I-50800J0D01*
G01*
X11609800Y-10871000D02*
G75*
G03*
X11609800Y-10871000I-50800J0D01*
G01*
X11609800Y-11125000D02*
G75*
G03*
X11609800Y-11125000I-50800J0D01*
G01*
X11609800Y-11379000D02*
G75*
G03*
X11609800Y-11379000I-50800J0D01*
G01*
X11609800Y-11633000D02*
G75*
G03*
X11609800Y-11633000I-50800J0D01*
G01*
X11609800Y-11887000D02*
G75*
G03*
X11609800Y-11887000I-50800J0D01*
G01*
X11609800Y-12141000D02*
G75*
G03*
X11609800Y-12141000I-50800J0D01*
G01*
X11609800Y-12395000D02*
G75*
G03*
X11609800Y-12395000I-50800J0D01*
G01*
X11863800Y-6045000D02*
G75*
G03*
X11863800Y-6045000I-50800J0D01*
G01*
X11863800Y-6299000D02*
G75*
G03*
X11863800Y-6299000I-50800J0D01*
G01*
X11863800Y-6553000D02*
G75*
G03*
X11863800Y-6553000I-50800J0D01*
G01*
X11863800Y-6807000D02*
G75*
G03*
X11863800Y-6807000I-50800J0D01*
G01*
X11863800Y-7061000D02*
G75*
G03*
X11863800Y-7061000I-50800J0D01*
G01*
X11863800Y-7315000D02*
G75*
G03*
X11863800Y-7315000I-50800J0D01*
G01*
X11863800Y-7569000D02*
G75*
G03*
X11863800Y-7569000I-50800J0D01*
G01*
X11863800Y-7823000D02*
G75*
G03*
X11863800Y-7823000I-50800J0D01*
G01*
X11863800Y-8077000D02*
G75*
G03*
X11863800Y-8077000I-50800J0D01*
G01*
X11863800Y-8331000D02*
G75*
G03*
X11863800Y-8331000I-50800J0D01*
G01*
X11863800Y-8585000D02*
G75*
G03*
X11863800Y-8585000I-50800J0D01*
G01*
X11863800Y-8839000D02*
G75*
G03*
X11863800Y-8839000I-50800J0D01*
G01*
X11863800Y-9093000D02*
G75*
G03*
X11863800Y-9093000I-50800J0D01*
G01*
X11863800Y-9347000D02*
G75*
G03*
X11863800Y-9347000I-50800J0D01*
G01*
X11863800Y-9601000D02*
G75*
G03*
X11863800Y-9601000I-50800J0D01*
G01*
X11863800Y-9855000D02*
G75*
G03*
X11863800Y-9855000I-50800J0D01*
G01*
X11863800Y-10109000D02*
G75*
G03*
X11863800Y-10109000I-50800J0D01*
G01*
X11863800Y-10363000D02*
G75*
G03*
X11863800Y-10363000I-50800J0D01*
G01*
X11863800Y-10617000D02*
G75*
G03*
X11863800Y-10617000I-50800J0D01*
G01*
X11863800Y-10871000D02*
G75*
G03*
X11863800Y-10871000I-50800J0D01*
G01*
X11863800Y-11125000D02*
G75*
G03*
X11863800Y-11125000I-50800J0D01*
G01*
X11863800Y-11379000D02*
G75*
G03*
X11863800Y-11379000I-50800J0D01*
G01*
X11863800Y-11633000D02*
G75*
G03*
X11863800Y-11633000I-50800J0D01*
G01*
X11863800Y-11887000D02*
G75*
G03*
X11863800Y-11887000I-50800J0D01*
G01*
X11863800Y-12141000D02*
G75*
G03*
X11863800Y-12141000I-50800J0D01*
G01*
X11863800Y-12395000D02*
G75*
G03*
X11863800Y-12395000I-50800J0D01*
G01*
X12117800Y-6045000D02*
G75*
G03*
X12117800Y-6045000I-50800J0D01*
G01*
X12117800Y-6299000D02*
G75*
G03*
X12117800Y-6299000I-50800J0D01*
G01*
X12117800Y-6553000D02*
G75*
G03*
X12117800Y-6553000I-50800J0D01*
G01*
X12117800Y-6807000D02*
G75*
G03*
X12117800Y-6807000I-50800J0D01*
G01*
X12117800Y-7061000D02*
G75*
G03*
X12117800Y-7061000I-50800J0D01*
G01*
X12117800Y-7315000D02*
G75*
G03*
X12117800Y-7315000I-50800J0D01*
G01*
X12117800Y-7569000D02*
G75*
G03*
X12117800Y-7569000I-50800J0D01*
G01*
X12117800Y-7823000D02*
G75*
G03*
X12117800Y-7823000I-50800J0D01*
G01*
X12117800Y-8077000D02*
G75*
G03*
X12117800Y-8077000I-50800J0D01*
G01*
X12117800Y-8331000D02*
G75*
G03*
X12117800Y-8331000I-50800J0D01*
G01*
X12117800Y-8585000D02*
G75*
G03*
X12117800Y-8585000I-50800J0D01*
G01*
X12117800Y-8839000D02*
G75*
G03*
X12117800Y-8839000I-50800J0D01*
G01*
X12117800Y-9093000D02*
G75*
G03*
X12117800Y-9093000I-50800J0D01*
G01*
X12117800Y-9347000D02*
G75*
G03*
X12117800Y-9347000I-50800J0D01*
G01*
X12117800Y-9601000D02*
G75*
G03*
X12117800Y-9601000I-50800J0D01*
G01*
X12117800Y-9855000D02*
G75*
G03*
X12117800Y-9855000I-50800J0D01*
G01*
X12117800Y-10109000D02*
G75*
G03*
X12117800Y-10109000I-50800J0D01*
G01*
X12117800Y-10363000D02*
G75*
G03*
X12117800Y-10363000I-50800J0D01*
G01*
X12117800Y-10617000D02*
G75*
G03*
X12117800Y-10617000I-50800J0D01*
G01*
X12117800Y-10871000D02*
G75*
G03*
X12117800Y-10871000I-50800J0D01*
G01*
X12117800Y-11125000D02*
G75*
G03*
X12117800Y-11125000I-50800J0D01*
G01*
X12117800Y-11379000D02*
G75*
G03*
X12117800Y-11379000I-50800J0D01*
G01*
X12117800Y-11633000D02*
G75*
G03*
X12117800Y-11633000I-50800J0D01*
G01*
X12117800Y-11887000D02*
G75*
G03*
X12117800Y-11887000I-50800J0D01*
G01*
X12117800Y-12141000D02*
G75*
G03*
X12117800Y-12141000I-50800J0D01*
G01*
X12117800Y-12395000D02*
G75*
G03*
X12117800Y-12395000I-50800J0D01*
G01*
D14*
X11318334Y-5375322D02*
X11318334Y-5695322D01*
X11158334Y-5535322D02*
X11478334Y-5535322D01*
X11318334Y-12741322D02*
X11318334Y-13061322D01*
X11158334Y-12901322D02*
X11478334Y-12901322D01*
X19891334Y-5121322D02*
X19891334Y-5441322D01*
X19731334Y-5281322D02*
X20051334Y-5281322D01*
X19891334Y-13122322D02*
X19891334Y-13442322D01*
X19731334Y-13282322D02*
X20051334Y-13282322D01*
D11*
X11254252Y-13916299D02*
X11254252Y-13716299D01*
X11301871Y-13716299D01*
X11330443Y-13725822D01*
X11349490Y-13744870D01*
X11359014Y-13763918D01*
X11368538Y-13802013D01*
X11368538Y-13830584D01*
X11359014Y-13868680D01*
X11349490Y-13887727D01*
X11330443Y-13906775D01*
X11301871Y-13916299D01*
X11254252Y-13916299D01*
X11454252Y-13916299D02*
X11454252Y-13782965D01*
X11454252Y-13821060D02*
X11463776Y-13802013D01*
X11473300Y-13792489D01*
X11492348Y-13782965D01*
X11511395Y-13782965D01*
X11578062Y-13916299D02*
X11578062Y-13782965D01*
X11578062Y-13716299D02*
X11568538Y-13725822D01*
X11578062Y-13735346D01*
X11587586Y-13725822D01*
X11578062Y-13716299D01*
X11578062Y-13735346D01*
X11701871Y-13916299D02*
X11682824Y-13906775D01*
X11673300Y-13887727D01*
X11673300Y-13716299D01*
X11806633Y-13916299D02*
X11787586Y-13906775D01*
X11778062Y-13887727D01*
X11778062Y-13716299D01*
X12035205Y-13916299D02*
X12035205Y-13716299D01*
X12101871Y-13859156D01*
X12168538Y-13716299D01*
X12168538Y-13916299D01*
X12349490Y-13916299D02*
X12349490Y-13811537D01*
X12339967Y-13792489D01*
X12320919Y-13782965D01*
X12282824Y-13782965D01*
X12263776Y-13792489D01*
X12349490Y-13906775D02*
X12330443Y-13916299D01*
X12282824Y-13916299D01*
X12263776Y-13906775D01*
X12254252Y-13887727D01*
X12254252Y-13868680D01*
X12263776Y-13849632D01*
X12282824Y-13840108D01*
X12330443Y-13840108D01*
X12349490Y-13830584D01*
X12444729Y-13782965D02*
X12444729Y-13982965D01*
X12444729Y-13792489D02*
X12463776Y-13782965D01*
X12501871Y-13782965D01*
X12520919Y-13792489D01*
X12530443Y-13802013D01*
X12539967Y-13821060D01*
X12539967Y-13878203D01*
X12530443Y-13897251D01*
X12520919Y-13906775D01*
X12501871Y-13916299D01*
X12463776Y-13916299D01*
X12444729Y-13906775D01*
X12625681Y-13897251D02*
X12635205Y-13906775D01*
X12625681Y-13916299D01*
X12616157Y-13906775D01*
X12625681Y-13897251D01*
X12625681Y-13916299D01*
X12625681Y-13792489D02*
X12635205Y-13802013D01*
X12625681Y-13811537D01*
X12616157Y-13802013D01*
X12625681Y-13792489D01*
X12625681Y-13811537D01*
D12*
X10956633Y-14225822D02*
X10996633Y-14265822D01*
X10996633Y-14225822D02*
X10956633Y-14265822D01*
D11*
X11292348Y-14136299D02*
X11311395Y-14136299D01*
X11330443Y-14145822D01*
X11339967Y-14155346D01*
X11349490Y-14174394D01*
X11359014Y-14212489D01*
X11359014Y-14260108D01*
X11349490Y-14298203D01*
X11339967Y-14317251D01*
X11330443Y-14326775D01*
X11311395Y-14336299D01*
X11292348Y-14336299D01*
X11273300Y-14326775D01*
X11263776Y-14317251D01*
X11254252Y-14298203D01*
X11244729Y-14260108D01*
X11244729Y-14212489D01*
X11254252Y-14174394D01*
X11263776Y-14155346D01*
X11273300Y-14145822D01*
X11292348Y-14136299D01*
X11444729Y-14317251D02*
X11454252Y-14326775D01*
X11444729Y-14336299D01*
X11435205Y-14326775D01*
X11444729Y-14317251D01*
X11444729Y-14336299D01*
X11625681Y-14202965D02*
X11625681Y-14336299D01*
X11578062Y-14126775D02*
X11530443Y-14269632D01*
X11654252Y-14269632D01*
X11768538Y-14136299D02*
X11787586Y-14136299D01*
X11806633Y-14145822D01*
X11816157Y-14155346D01*
X11825681Y-14174394D01*
X11835205Y-14212489D01*
X11835205Y-14260108D01*
X11825681Y-14298203D01*
X11816157Y-14317251D01*
X11806633Y-14326775D01*
X11787586Y-14336299D01*
X11768538Y-14336299D01*
X11749490Y-14326775D01*
X11739967Y-14317251D01*
X11730443Y-14298203D01*
X11720919Y-14260108D01*
X11720919Y-14212489D01*
X11730443Y-14174394D01*
X11739967Y-14155346D01*
X11749490Y-14145822D01*
X11768538Y-14136299D01*
X11959014Y-14136299D02*
X11978062Y-14136299D01*
X11997109Y-14145822D01*
X12006633Y-14155346D01*
X12016157Y-14174394D01*
X12025681Y-14212489D01*
X12025681Y-14260108D01*
X12016157Y-14298203D01*
X12006633Y-14317251D01*
X11997109Y-14326775D01*
X11978062Y-14336299D01*
X11959014Y-14336299D01*
X11939967Y-14326775D01*
X11930443Y-14317251D01*
X11920919Y-14298203D01*
X11911395Y-14260108D01*
X11911395Y-14212489D01*
X11920919Y-14174394D01*
X11930443Y-14155346D01*
X11939967Y-14145822D01*
X11959014Y-14136299D01*
X12111395Y-14336299D02*
X12111395Y-14202965D01*
X12111395Y-14222013D02*
X12120919Y-14212489D01*
X12139967Y-14202965D01*
X12168538Y-14202965D01*
X12187586Y-14212489D01*
X12197109Y-14231537D01*
X12197109Y-14336299D01*
X12197109Y-14231537D02*
X12206633Y-14212489D01*
X12225681Y-14202965D01*
X12254252Y-14202965D01*
X12273300Y-14212489D01*
X12282824Y-14231537D01*
X12282824Y-14336299D01*
X12378062Y-14336299D02*
X12378062Y-14202965D01*
X12378062Y-14222013D02*
X12387586Y-14212489D01*
X12406633Y-14202965D01*
X12435205Y-14202965D01*
X12454252Y-14212489D01*
X12463776Y-14231537D01*
X12463776Y-14336299D01*
X12463776Y-14231537D02*
X12473300Y-14212489D01*
X12492348Y-14202965D01*
X12520919Y-14202965D01*
X12539967Y-14212489D01*
X12549490Y-14231537D01*
X12549490Y-14336299D01*
X12939967Y-14126775D02*
X12768538Y-14383918D01*
X13197109Y-14136299D02*
X13216157Y-14136299D01*
X13235205Y-14145822D01*
X13244729Y-14155346D01*
X13254252Y-14174394D01*
X13263776Y-14212489D01*
X13263776Y-14260108D01*
X13254252Y-14298203D01*
X13244729Y-14317251D01*
X13235205Y-14326775D01*
X13216157Y-14336299D01*
X13197109Y-14336299D01*
X13178062Y-14326775D01*
X13168538Y-14317251D01*
X13159014Y-14298203D01*
X13149490Y-14260108D01*
X13149490Y-14212489D01*
X13159014Y-14174394D01*
X13168538Y-14155346D01*
X13178062Y-14145822D01*
X13197109Y-14136299D01*
X13349490Y-14317251D02*
X13359014Y-14326775D01*
X13349490Y-14336299D01*
X13339967Y-14326775D01*
X13349490Y-14317251D01*
X13349490Y-14336299D01*
X13482824Y-14136299D02*
X13501871Y-14136299D01*
X13520919Y-14145822D01*
X13530443Y-14155346D01*
X13539967Y-14174394D01*
X13549490Y-14212489D01*
X13549490Y-14260108D01*
X13539967Y-14298203D01*
X13530443Y-14317251D01*
X13520919Y-14326775D01*
X13501871Y-14336299D01*
X13482824Y-14336299D01*
X13463776Y-14326775D01*
X13454252Y-14317251D01*
X13444729Y-14298203D01*
X13435205Y-14260108D01*
X13435205Y-14212489D01*
X13444729Y-14174394D01*
X13454252Y-14155346D01*
X13463776Y-14145822D01*
X13482824Y-14136299D01*
X13739967Y-14336299D02*
X13625681Y-14336299D01*
X13682824Y-14336299D02*
X13682824Y-14136299D01*
X13663776Y-14164870D01*
X13644729Y-14183918D01*
X13625681Y-14193441D01*
X13920919Y-14136299D02*
X13825681Y-14136299D01*
X13816157Y-14231537D01*
X13825681Y-14222013D01*
X13844729Y-14212489D01*
X13892348Y-14212489D01*
X13911395Y-14222013D01*
X13920919Y-14231537D01*
X13930443Y-14250584D01*
X13930443Y-14298203D01*
X13920919Y-14317251D01*
X13911395Y-14326775D01*
X13892348Y-14336299D01*
X13844729Y-14336299D01*
X13825681Y-14326775D01*
X13816157Y-14317251D01*
X13997109Y-14136299D02*
X14130443Y-14136299D01*
X14044729Y-14336299D01*
X14197109Y-14136299D02*
X14197109Y-14174394D01*
X14273300Y-14136299D02*
X14273300Y-14174394D01*
X14568538Y-14412489D02*
X14559014Y-14402965D01*
X14539967Y-14374394D01*
X14530443Y-14355346D01*
X14520919Y-14326775D01*
X14511395Y-14279156D01*
X14511395Y-14241060D01*
X14520919Y-14193441D01*
X14530443Y-14164870D01*
X14539967Y-14145822D01*
X14559014Y-14117251D01*
X14568538Y-14107727D01*
X14749490Y-14336299D02*
X14635205Y-14336299D01*
X14692348Y-14336299D02*
X14692348Y-14136299D01*
X14673300Y-14164870D01*
X14654252Y-14183918D01*
X14635205Y-14193441D01*
X14863776Y-14222013D02*
X14844729Y-14212489D01*
X14835205Y-14202965D01*
X14825681Y-14183918D01*
X14825681Y-14174394D01*
X14835205Y-14155346D01*
X14844729Y-14145822D01*
X14863776Y-14136299D01*
X14901871Y-14136299D01*
X14920919Y-14145822D01*
X14930443Y-14155346D01*
X14939967Y-14174394D01*
X14939967Y-14183918D01*
X14930443Y-14202965D01*
X14920919Y-14212489D01*
X14901871Y-14222013D01*
X14863776Y-14222013D01*
X14844729Y-14231537D01*
X14835205Y-14241060D01*
X14825681Y-14260108D01*
X14825681Y-14298203D01*
X14835205Y-14317251D01*
X14844729Y-14326775D01*
X14863776Y-14336299D01*
X14901871Y-14336299D01*
X14920919Y-14326775D01*
X14930443Y-14317251D01*
X14939967Y-14298203D01*
X14939967Y-14260108D01*
X14930443Y-14241060D01*
X14920919Y-14231537D01*
X14901871Y-14222013D01*
X15178062Y-14336299D02*
X15178062Y-14136299D01*
X15263776Y-14336299D02*
X15263776Y-14231537D01*
X15254252Y-14212489D01*
X15235205Y-14202965D01*
X15206633Y-14202965D01*
X15187586Y-14212489D01*
X15178062Y-14222013D01*
X15387586Y-14336299D02*
X15368538Y-14326775D01*
X15359014Y-14317251D01*
X15349490Y-14298203D01*
X15349490Y-14241060D01*
X15359014Y-14222013D01*
X15368538Y-14212489D01*
X15387586Y-14202965D01*
X15416157Y-14202965D01*
X15435205Y-14212489D01*
X15444729Y-14222013D01*
X15454252Y-14241060D01*
X15454252Y-14298203D01*
X15444729Y-14317251D01*
X15435205Y-14326775D01*
X15416157Y-14336299D01*
X15387586Y-14336299D01*
X15568538Y-14336299D02*
X15549490Y-14326775D01*
X15539967Y-14307727D01*
X15539967Y-14136299D01*
X15720919Y-14326775D02*
X15701871Y-14336299D01*
X15663776Y-14336299D01*
X15644729Y-14326775D01*
X15635205Y-14307727D01*
X15635205Y-14231537D01*
X15644729Y-14212489D01*
X15663776Y-14202965D01*
X15701871Y-14202965D01*
X15720919Y-14212489D01*
X15730443Y-14231537D01*
X15730443Y-14250584D01*
X15635205Y-14269632D01*
X15806633Y-14326775D02*
X15825681Y-14336299D01*
X15863776Y-14336299D01*
X15882824Y-14326775D01*
X15892348Y-14307727D01*
X15892348Y-14298203D01*
X15882824Y-14279156D01*
X15863776Y-14269632D01*
X15835205Y-14269632D01*
X15816157Y-14260108D01*
X15806633Y-14241060D01*
X15806633Y-14231537D01*
X15816157Y-14212489D01*
X15835205Y-14202965D01*
X15863776Y-14202965D01*
X15882824Y-14212489D01*
X15959014Y-14412489D02*
X15968538Y-14402965D01*
X15987586Y-14374394D01*
X15997109Y-14355346D01*
X16006633Y-14326775D01*
X16016157Y-14279156D01*
X16016157Y-14241060D01*
X16006633Y-14193441D01*
X15997109Y-14164870D01*
X15987586Y-14145822D01*
X15968538Y-14117251D01*
X15959014Y-14107727D01*
D13*
X10996633Y-14509822D02*
G75*
G03*
X10996633Y-14509822I-50800J0D01*
G01*
D11*
X11359014Y-14600299D02*
X11244729Y-14600299D01*
X11301871Y-14600299D02*
X11301871Y-14400299D01*
X11282824Y-14428870D01*
X11263776Y-14447918D01*
X11244729Y-14457441D01*
X11444729Y-14581251D02*
X11454252Y-14590775D01*
X11444729Y-14600299D01*
X11435205Y-14590775D01*
X11444729Y-14581251D01*
X11444729Y-14600299D01*
X11578062Y-14400299D02*
X11597109Y-14400299D01*
X11616157Y-14409822D01*
X11625681Y-14419346D01*
X11635205Y-14438394D01*
X11644729Y-14476489D01*
X11644729Y-14524108D01*
X11635205Y-14562203D01*
X11625681Y-14581251D01*
X11616157Y-14590775D01*
X11597109Y-14600299D01*
X11578062Y-14600299D01*
X11559014Y-14590775D01*
X11549490Y-14581251D01*
X11539967Y-14562203D01*
X11530443Y-14524108D01*
X11530443Y-14476489D01*
X11539967Y-14438394D01*
X11549490Y-14419346D01*
X11559014Y-14409822D01*
X11578062Y-14400299D01*
X11835205Y-14600299D02*
X11720919Y-14600299D01*
X11778062Y-14600299D02*
X11778062Y-14400299D01*
X11759014Y-14428870D01*
X11739967Y-14447918D01*
X11720919Y-14457441D01*
X12006633Y-14400299D02*
X11968538Y-14400299D01*
X11949490Y-14409822D01*
X11939967Y-14419346D01*
X11920919Y-14447918D01*
X11911395Y-14486013D01*
X11911395Y-14562203D01*
X11920919Y-14581251D01*
X11930443Y-14590775D01*
X11949490Y-14600299D01*
X11987586Y-14600299D01*
X12006633Y-14590775D01*
X12016157Y-14581251D01*
X12025681Y-14562203D01*
X12025681Y-14514584D01*
X12016157Y-14495537D01*
X12006633Y-14486013D01*
X11987586Y-14476489D01*
X11949490Y-14476489D01*
X11930443Y-14486013D01*
X11920919Y-14495537D01*
X11911395Y-14514584D01*
X12111395Y-14600299D02*
X12111395Y-14466965D01*
X12111395Y-14486013D02*
X12120919Y-14476489D01*
X12139967Y-14466965D01*
X12168538Y-14466965D01*
X12187586Y-14476489D01*
X12197109Y-14495537D01*
X12197109Y-14600299D01*
X12197109Y-14495537D02*
X12206633Y-14476489D01*
X12225681Y-14466965D01*
X12254252Y-14466965D01*
X12273300Y-14476489D01*
X12282824Y-14495537D01*
X12282824Y-14600299D01*
X12378062Y-14600299D02*
X12378062Y-14466965D01*
X12378062Y-14486013D02*
X12387586Y-14476489D01*
X12406633Y-14466965D01*
X12435205Y-14466965D01*
X12454252Y-14476489D01*
X12463776Y-14495537D01*
X12463776Y-14600299D01*
X12463776Y-14495537D02*
X12473300Y-14476489D01*
X12492348Y-14466965D01*
X12520919Y-14466965D01*
X12539967Y-14476489D01*
X12549490Y-14495537D01*
X12549490Y-14600299D01*
X12939967Y-14390775D02*
X12768538Y-14647918D01*
X13197109Y-14400299D02*
X13216157Y-14400299D01*
X13235205Y-14409822D01*
X13244729Y-14419346D01*
X13254252Y-14438394D01*
X13263776Y-14476489D01*
X13263776Y-14524108D01*
X13254252Y-14562203D01*
X13244729Y-14581251D01*
X13235205Y-14590775D01*
X13216157Y-14600299D01*
X13197109Y-14600299D01*
X13178062Y-14590775D01*
X13168538Y-14581251D01*
X13159014Y-14562203D01*
X13149490Y-14524108D01*
X13149490Y-14476489D01*
X13159014Y-14438394D01*
X13168538Y-14419346D01*
X13178062Y-14409822D01*
X13197109Y-14400299D01*
X13349490Y-14581251D02*
X13359014Y-14590775D01*
X13349490Y-14600299D01*
X13339967Y-14590775D01*
X13349490Y-14581251D01*
X13349490Y-14600299D01*
X13482824Y-14400299D02*
X13501871Y-14400299D01*
X13520919Y-14409822D01*
X13530443Y-14419346D01*
X13539967Y-14438394D01*
X13549490Y-14476489D01*
X13549490Y-14524108D01*
X13539967Y-14562203D01*
X13530443Y-14581251D01*
X13520919Y-14590775D01*
X13501871Y-14600299D01*
X13482824Y-14600299D01*
X13463776Y-14590775D01*
X13454252Y-14581251D01*
X13444729Y-14562203D01*
X13435205Y-14524108D01*
X13435205Y-14476489D01*
X13444729Y-14438394D01*
X13454252Y-14419346D01*
X13463776Y-14409822D01*
X13482824Y-14400299D01*
X13720919Y-14466965D02*
X13720919Y-14600299D01*
X13673300Y-14390775D02*
X13625681Y-14533632D01*
X13749490Y-14533632D01*
X13863776Y-14400299D02*
X13882824Y-14400299D01*
X13901871Y-14409822D01*
X13911395Y-14419346D01*
X13920919Y-14438394D01*
X13930443Y-14476489D01*
X13930443Y-14524108D01*
X13920919Y-14562203D01*
X13911395Y-14581251D01*
X13901871Y-14590775D01*
X13882824Y-14600299D01*
X13863776Y-14600299D01*
X13844729Y-14590775D01*
X13835205Y-14581251D01*
X13825681Y-14562203D01*
X13816157Y-14524108D01*
X13816157Y-14476489D01*
X13825681Y-14438394D01*
X13835205Y-14419346D01*
X13844729Y-14409822D01*
X13863776Y-14400299D01*
X14054252Y-14400299D02*
X14073300Y-14400299D01*
X14092348Y-14409822D01*
X14101871Y-14419346D01*
X14111395Y-14438394D01*
X14120919Y-14476489D01*
X14120919Y-14524108D01*
X14111395Y-14562203D01*
X14101871Y-14581251D01*
X14092348Y-14590775D01*
X14073300Y-14600299D01*
X14054252Y-14600299D01*
X14035205Y-14590775D01*
X14025681Y-14581251D01*
X14016157Y-14562203D01*
X14006633Y-14524108D01*
X14006633Y-14476489D01*
X14016157Y-14438394D01*
X14025681Y-14419346D01*
X14035205Y-14409822D01*
X14054252Y-14400299D01*
X14197109Y-14400299D02*
X14197109Y-14438394D01*
X14273300Y-14400299D02*
X14273300Y-14438394D01*
X14568538Y-14676489D02*
X14559014Y-14666965D01*
X14539967Y-14638394D01*
X14530443Y-14619346D01*
X14520919Y-14590775D01*
X14511395Y-14543156D01*
X14511395Y-14505060D01*
X14520919Y-14457441D01*
X14530443Y-14428870D01*
X14539967Y-14409822D01*
X14559014Y-14381251D01*
X14568538Y-14371727D01*
X14749490Y-14600299D02*
X14635205Y-14600299D01*
X14692348Y-14600299D02*
X14692348Y-14400299D01*
X14673300Y-14428870D01*
X14654252Y-14447918D01*
X14635205Y-14457441D01*
X14873300Y-14400299D02*
X14892348Y-14400299D01*
X14911395Y-14409822D01*
X14920919Y-14419346D01*
X14930443Y-14438394D01*
X14939967Y-14476489D01*
X14939967Y-14524108D01*
X14930443Y-14562203D01*
X14920919Y-14581251D01*
X14911395Y-14590775D01*
X14892348Y-14600299D01*
X14873300Y-14600299D01*
X14854252Y-14590775D01*
X14844729Y-14581251D01*
X14835205Y-14562203D01*
X14825681Y-14524108D01*
X14825681Y-14476489D01*
X14835205Y-14438394D01*
X14844729Y-14419346D01*
X14854252Y-14409822D01*
X14873300Y-14400299D01*
X15111395Y-14466965D02*
X15111395Y-14600299D01*
X15063776Y-14390775D02*
X15016157Y-14533632D01*
X15139967Y-14533632D01*
X15368538Y-14600299D02*
X15368538Y-14400299D01*
X15454252Y-14600299D02*
X15454252Y-14495537D01*
X15444729Y-14476489D01*
X15425681Y-14466965D01*
X15397109Y-14466965D01*
X15378062Y-14476489D01*
X15368538Y-14486013D01*
X15578062Y-14600299D02*
X15559014Y-14590775D01*
X15549490Y-14581251D01*
X15539967Y-14562203D01*
X15539967Y-14505060D01*
X15549490Y-14486013D01*
X15559014Y-14476489D01*
X15578062Y-14466965D01*
X15606633Y-14466965D01*
X15625681Y-14476489D01*
X15635205Y-14486013D01*
X15644729Y-14505060D01*
X15644729Y-14562203D01*
X15635205Y-14581251D01*
X15625681Y-14590775D01*
X15606633Y-14600299D01*
X15578062Y-14600299D01*
X15759014Y-14600299D02*
X15739967Y-14590775D01*
X15730443Y-14571727D01*
X15730443Y-14400299D01*
X15911395Y-14590775D02*
X15892348Y-14600299D01*
X15854252Y-14600299D01*
X15835205Y-14590775D01*
X15825681Y-14571727D01*
X15825681Y-14495537D01*
X15835205Y-14476489D01*
X15854252Y-14466965D01*
X15892348Y-14466965D01*
X15911395Y-14476489D01*
X15920919Y-14495537D01*
X15920919Y-14514584D01*
X15825681Y-14533632D01*
X15997109Y-14590775D02*
X16016157Y-14600299D01*
X16054252Y-14600299D01*
X16073300Y-14590775D01*
X16082824Y-14571727D01*
X16082824Y-14562203D01*
X16073300Y-14543156D01*
X16054252Y-14533632D01*
X16025681Y-14533632D01*
X16006633Y-14524108D01*
X15997109Y-14505060D01*
X15997109Y-14495537D01*
X16006633Y-14476489D01*
X16025681Y-14466965D01*
X16054252Y-14466965D01*
X16073300Y-14476489D01*
X16149490Y-14676489D02*
X16159014Y-14666965D01*
X16178062Y-14638394D01*
X16187586Y-14619346D01*
X16197109Y-14590775D01*
X16206633Y-14543156D01*
X16206633Y-14505060D01*
X16197109Y-14457441D01*
X16187586Y-14428870D01*
X16178062Y-14409822D01*
X16159014Y-14381251D01*
X16149490Y-14371727D01*
X10896633Y-14673822D02*
X10896633Y-14873822D01*
X10796633Y-14773822D02*
X10996633Y-14773822D01*
X11235205Y-14664299D02*
X11359014Y-14664299D01*
X11292348Y-14740489D01*
X11320919Y-14740489D01*
X11339967Y-14750013D01*
X11349490Y-14759537D01*
X11359014Y-14778584D01*
X11359014Y-14826203D01*
X11349490Y-14845251D01*
X11339967Y-14854775D01*
X11320919Y-14864299D01*
X11263776Y-14864299D01*
X11244729Y-14854775D01*
X11235205Y-14845251D01*
X11444729Y-14845251D02*
X11454252Y-14854775D01*
X11444729Y-14864299D01*
X11435205Y-14854775D01*
X11444729Y-14845251D01*
X11444729Y-14864299D01*
X11530443Y-14683346D02*
X11539967Y-14673822D01*
X11559014Y-14664299D01*
X11606633Y-14664299D01*
X11625681Y-14673822D01*
X11635205Y-14683346D01*
X11644729Y-14702394D01*
X11644729Y-14721441D01*
X11635205Y-14750013D01*
X11520919Y-14864299D01*
X11644729Y-14864299D01*
X11768538Y-14664299D02*
X11787586Y-14664299D01*
X11806633Y-14673822D01*
X11816157Y-14683346D01*
X11825681Y-14702394D01*
X11835205Y-14740489D01*
X11835205Y-14788108D01*
X11825681Y-14826203D01*
X11816157Y-14845251D01*
X11806633Y-14854775D01*
X11787586Y-14864299D01*
X11768538Y-14864299D01*
X11749490Y-14854775D01*
X11739967Y-14845251D01*
X11730443Y-14826203D01*
X11720919Y-14788108D01*
X11720919Y-14740489D01*
X11730443Y-14702394D01*
X11739967Y-14683346D01*
X11749490Y-14673822D01*
X11768538Y-14664299D01*
X11959014Y-14664299D02*
X11978062Y-14664299D01*
X11997109Y-14673822D01*
X12006633Y-14683346D01*
X12016157Y-14702394D01*
X12025681Y-14740489D01*
X12025681Y-14788108D01*
X12016157Y-14826203D01*
X12006633Y-14845251D01*
X11997109Y-14854775D01*
X11978062Y-14864299D01*
X11959014Y-14864299D01*
X11939967Y-14854775D01*
X11930443Y-14845251D01*
X11920919Y-14826203D01*
X11911395Y-14788108D01*
X11911395Y-14740489D01*
X11920919Y-14702394D01*
X11930443Y-14683346D01*
X11939967Y-14673822D01*
X11959014Y-14664299D01*
X12111395Y-14864299D02*
X12111395Y-14730965D01*
X12111395Y-14750013D02*
X12120919Y-14740489D01*
X12139967Y-14730965D01*
X12168538Y-14730965D01*
X12187586Y-14740489D01*
X12197109Y-14759537D01*
X12197109Y-14864299D01*
X12197109Y-14759537D02*
X12206633Y-14740489D01*
X12225681Y-14730965D01*
X12254252Y-14730965D01*
X12273300Y-14740489D01*
X12282824Y-14759537D01*
X12282824Y-14864299D01*
X12378062Y-14864299D02*
X12378062Y-14730965D01*
X12378062Y-14750013D02*
X12387586Y-14740489D01*
X12406633Y-14730965D01*
X12435205Y-14730965D01*
X12454252Y-14740489D01*
X12463776Y-14759537D01*
X12463776Y-14864299D01*
X12463776Y-14759537D02*
X12473300Y-14740489D01*
X12492348Y-14730965D01*
X12520919Y-14730965D01*
X12539967Y-14740489D01*
X12549490Y-14759537D01*
X12549490Y-14864299D01*
X12939967Y-14654775D02*
X12768538Y-14911918D01*
X13197109Y-14664299D02*
X13216157Y-14664299D01*
X13235205Y-14673822D01*
X13244729Y-14683346D01*
X13254252Y-14702394D01*
X13263776Y-14740489D01*
X13263776Y-14788108D01*
X13254252Y-14826203D01*
X13244729Y-14845251D01*
X13235205Y-14854775D01*
X13216157Y-14864299D01*
X13197109Y-14864299D01*
X13178062Y-14854775D01*
X13168538Y-14845251D01*
X13159014Y-14826203D01*
X13149490Y-14788108D01*
X13149490Y-14740489D01*
X13159014Y-14702394D01*
X13168538Y-14683346D01*
X13178062Y-14673822D01*
X13197109Y-14664299D01*
X13349490Y-14845251D02*
X13359014Y-14854775D01*
X13349490Y-14864299D01*
X13339967Y-14854775D01*
X13349490Y-14845251D01*
X13349490Y-14864299D01*
X13549490Y-14864299D02*
X13435205Y-14864299D01*
X13492348Y-14864299D02*
X13492348Y-14664299D01*
X13473300Y-14692870D01*
X13454252Y-14711918D01*
X13435205Y-14721441D01*
X13625681Y-14683346D02*
X13635205Y-14673822D01*
X13654252Y-14664299D01*
X13701871Y-14664299D01*
X13720919Y-14673822D01*
X13730443Y-14683346D01*
X13739967Y-14702394D01*
X13739967Y-14721441D01*
X13730443Y-14750013D01*
X13616157Y-14864299D01*
X13739967Y-14864299D01*
X13911395Y-14664299D02*
X13873300Y-14664299D01*
X13854252Y-14673822D01*
X13844729Y-14683346D01*
X13825681Y-14711918D01*
X13816157Y-14750013D01*
X13816157Y-14826203D01*
X13825681Y-14845251D01*
X13835205Y-14854775D01*
X13854252Y-14864299D01*
X13892348Y-14864299D01*
X13911395Y-14854775D01*
X13920919Y-14845251D01*
X13930443Y-14826203D01*
X13930443Y-14778584D01*
X13920919Y-14759537D01*
X13911395Y-14750013D01*
X13892348Y-14740489D01*
X13854252Y-14740489D01*
X13835205Y-14750013D01*
X13825681Y-14759537D01*
X13816157Y-14778584D01*
X14054252Y-14664299D02*
X14073300Y-14664299D01*
X14092348Y-14673822D01*
X14101871Y-14683346D01*
X14111395Y-14702394D01*
X14120919Y-14740489D01*
X14120919Y-14788108D01*
X14111395Y-14826203D01*
X14101871Y-14845251D01*
X14092348Y-14854775D01*
X14073300Y-14864299D01*
X14054252Y-14864299D01*
X14035205Y-14854775D01*
X14025681Y-14845251D01*
X14016157Y-14826203D01*
X14006633Y-14788108D01*
X14006633Y-14740489D01*
X14016157Y-14702394D01*
X14025681Y-14683346D01*
X14035205Y-14673822D01*
X14054252Y-14664299D01*
X14197109Y-14664299D02*
X14197109Y-14702394D01*
X14273300Y-14664299D02*
X14273300Y-14702394D01*
X14568538Y-14940489D02*
X14559014Y-14930965D01*
X14539967Y-14902394D01*
X14530443Y-14883346D01*
X14520919Y-14854775D01*
X14511395Y-14807156D01*
X14511395Y-14769060D01*
X14520919Y-14721441D01*
X14530443Y-14692870D01*
X14539967Y-14673822D01*
X14559014Y-14645251D01*
X14568538Y-14635727D01*
X14730443Y-14730965D02*
X14730443Y-14864299D01*
X14682824Y-14654775D02*
X14635205Y-14797632D01*
X14759014Y-14797632D01*
X14987586Y-14864299D02*
X14987586Y-14664299D01*
X15073300Y-14864299D02*
X15073300Y-14759537D01*
X15063776Y-14740489D01*
X15044729Y-14730965D01*
X15016157Y-14730965D01*
X14997109Y-14740489D01*
X14987586Y-14750013D01*
X15197109Y-14864299D02*
X15178062Y-14854775D01*
X15168538Y-14845251D01*
X15159014Y-14826203D01*
X15159014Y-14769060D01*
X15168538Y-14750013D01*
X15178062Y-14740489D01*
X15197109Y-14730965D01*
X15225681Y-14730965D01*
X15244729Y-14740489D01*
X15254252Y-14750013D01*
X15263776Y-14769060D01*
X15263776Y-14826203D01*
X15254252Y-14845251D01*
X15244729Y-14854775D01*
X15225681Y-14864299D01*
X15197109Y-14864299D01*
X15378062Y-14864299D02*
X15359014Y-14854775D01*
X15349490Y-14835727D01*
X15349490Y-14664299D01*
X15530443Y-14854775D02*
X15511395Y-14864299D01*
X15473300Y-14864299D01*
X15454252Y-14854775D01*
X15444729Y-14835727D01*
X15444729Y-14759537D01*
X15454252Y-14740489D01*
X15473300Y-14730965D01*
X15511395Y-14730965D01*
X15530443Y-14740489D01*
X15539967Y-14759537D01*
X15539967Y-14778584D01*
X15444729Y-14797632D01*
X15616157Y-14854775D02*
X15635205Y-14864299D01*
X15673300Y-14864299D01*
X15692348Y-14854775D01*
X15701871Y-14835727D01*
X15701871Y-14826203D01*
X15692348Y-14807156D01*
X15673300Y-14797632D01*
X15644729Y-14797632D01*
X15625681Y-14788108D01*
X15616157Y-14769060D01*
X15616157Y-14759537D01*
X15625681Y-14740489D01*
X15644729Y-14730965D01*
X15673300Y-14730965D01*
X15692348Y-14740489D01*
X15768538Y-14940489D02*
X15778062Y-14930965D01*
X15797109Y-14902394D01*
X15806633Y-14883346D01*
X15816157Y-14854775D01*
X15825681Y-14807156D01*
X15825681Y-14769060D01*
X15816157Y-14721441D01*
X15806633Y-14692870D01*
X15797109Y-14673822D01*
X15778062Y-14645251D01*
X15768538Y-14635727D01*
M02*
