M48
; DRILL file {KiCad (6.0.7)} date Fri Aug 26 15:30:51 2022
; FORMAT={-:-/ absolute / metric / decimal}
; #@! TF.CreationDate,2022-08-26T15:30:51+08:00
; #@! TF.GenerationSoftware,Kicad,Pcbnew,(6.0.7)
; #@! TF.FileFunction,Plated,1,2,PTH
FMAT,2
METRIC
; #@! TA.AperFunction,Plated,PTH,ViaDrill
T1C0.400
; #@! TA.AperFunction,Plated,PTH,ComponentDrill
T2C1.016
; #@! TA.AperFunction,Plated,PTH,ComponentDrill
T3C3.200
%
G90
G05
T1
X111.0Y-93.0
X116.1Y-57.9
X116.9Y-84.9
X119.6Y-84.5
X122.4Y-87.1
X122.4Y-89.7
X122.4Y-92.2
X138.1Y-128.1
X139.3Y-124.974
X152.7Y-124.5
X155.1Y-124.3
X158.0Y-61.2
X161.6Y-119.7
X167.6Y-56.0
X170.1Y-59.1
X172.5Y-59.3
X182.2Y-59.8
X184.6Y-60.0
T2
X113.05Y-60.45
X113.05Y-62.99
X113.05Y-65.53
X113.05Y-68.07
X113.05Y-70.61
X113.05Y-73.15
X113.05Y-75.69
X113.05Y-78.23
X113.05Y-80.77
X113.05Y-83.31
X113.05Y-85.85
X113.05Y-88.39
X113.05Y-90.93
X113.05Y-93.47
X113.05Y-96.01
X113.05Y-98.55
X113.05Y-101.09
X113.05Y-103.63
X113.05Y-106.17
X113.05Y-108.71
X113.05Y-111.25
X113.05Y-113.79
X113.05Y-116.33
X113.05Y-118.87
X113.05Y-121.41
X113.05Y-123.95
X115.59Y-60.45
X115.59Y-62.99
X115.59Y-65.53
X115.59Y-68.07
X115.59Y-70.61
X115.59Y-73.15
X115.59Y-75.69
X115.59Y-78.23
X115.59Y-80.77
X115.59Y-83.31
X115.59Y-85.85
X115.59Y-88.39
X115.59Y-90.93
X115.59Y-93.47
X115.59Y-96.01
X115.59Y-98.55
X115.59Y-101.09
X115.59Y-103.63
X115.59Y-106.17
X115.59Y-108.71
X115.59Y-111.25
X115.59Y-113.79
X115.59Y-116.33
X115.59Y-118.87
X115.59Y-121.41
X115.59Y-123.95
X118.13Y-60.45
X118.13Y-62.99
X118.13Y-65.53
X118.13Y-68.07
X118.13Y-70.61
X118.13Y-73.15
X118.13Y-75.69
X118.13Y-78.23
X118.13Y-80.77
X118.13Y-83.31
X118.13Y-85.85
X118.13Y-88.39
X118.13Y-90.93
X118.13Y-93.47
X118.13Y-96.01
X118.13Y-98.55
X118.13Y-101.09
X118.13Y-103.63
X118.13Y-106.17
X118.13Y-108.71
X118.13Y-111.25
X118.13Y-113.79
X118.13Y-116.33
X118.13Y-118.87
X118.13Y-121.41
X118.13Y-123.95
X120.67Y-60.45
X120.67Y-62.99
X120.67Y-65.53
X120.67Y-68.07
X120.67Y-70.61
X120.67Y-73.15
X120.67Y-75.69
X120.67Y-78.23
X120.67Y-80.77
X120.67Y-83.31
X120.67Y-85.85
X120.67Y-88.39
X120.67Y-90.93
X120.67Y-93.47
X120.67Y-96.01
X120.67Y-98.55
X120.67Y-101.09
X120.67Y-103.63
X120.67Y-106.17
X120.67Y-108.71
X120.67Y-111.25
X120.67Y-113.79
X120.67Y-116.33
X120.67Y-118.87
X120.67Y-121.41
X120.67Y-123.95
T3
X113.183Y-55.353
X113.183Y-129.013
X198.913Y-52.813
X198.913Y-132.823
T0
M30
