%TF.GenerationSoftware,KiCad,Pcbnew,(6.0.7)*%
%TF.CreationDate,2022-08-16T23:53:48+08:00*%
%TF.ProjectId,adapter_board,61646170-7465-4725-9f62-6f6172642e6b,rev?*%
%TF.SameCoordinates,Original*%
%TF.FileFunction,Profile,NP*%
%FSLAX46Y46*%
G04 Gerber Fmt 4.6, Leading zero omitted, Abs format (unit mm)*
G04 Created by KiCad (PCBNEW (6.0.7)) date 2022-08-16 23:53:48*
%MOMM*%
%LPD*%
G01*
G04 APERTURE LIST*
%TA.AperFunction,Profile*%
%ADD10C,0.100000*%
%TD*%
%TA.AperFunction,Profile*%
%ADD11C,0.200000*%
%TD*%
G04 APERTURE END LIST*
D10*
X113378340Y-52233226D02*
X163235842Y-52233226D01*
X128214213Y-64864467D02*
X199078680Y-64878680D01*
D11*
X113093344Y-52233226D02*
X113378340Y-52233226D01*
D10*
X199039467Y-118200000D02*
X128200000Y-118200000D01*
D11*
X198918343Y-135958242D02*
G75*
G03*
X202043343Y-132783223I-25043J3150042D01*
G01*
D10*
X124092893Y-114078680D02*
X124092893Y-68985787D01*
X198918343Y-135958225D02*
X192000000Y-135958225D01*
D11*
X110068280Y-128933221D02*
G75*
G03*
X113068348Y-132133221I3100020J-99979D01*
G01*
D10*
X193500000Y-49683226D02*
G75*
G03*
X192233226Y-51000000I25000J-1291774D01*
G01*
X202029200Y-121217893D02*
G75*
G03*
X199039467Y-118200000I-3003800J14093D01*
G01*
D11*
X113093345Y-52233249D02*
G75*
G03*
X110068351Y-55483224I112455J-3137451D01*
G01*
D10*
X190066775Y-134000000D02*
G75*
G03*
X192000000Y-135958225I1945725J-12500D01*
G01*
X163235842Y-52233226D02*
X191000000Y-52233226D01*
X113068348Y-132133221D02*
X188200000Y-132133221D01*
D11*
X202043276Y-52783225D02*
G75*
G03*
X198893344Y-49683224I-3124976J-24975D01*
G01*
D10*
X198893344Y-49683224D02*
X193500000Y-49683224D01*
X199078680Y-64878646D02*
G75*
G03*
X202043346Y-61878680I-17680J2982346D01*
G01*
X191000000Y-52233226D02*
G75*
G03*
X192233226Y-51000000I0J1233226D01*
G01*
X128214213Y-64864493D02*
G75*
G03*
X124092893Y-68985787I-13J-4121307D01*
G01*
D11*
X110068349Y-128933223D02*
X110068351Y-55483225D01*
D10*
X124092900Y-114078680D02*
G75*
G03*
X128200000Y-118200000I4114200J-7120D01*
G01*
X190066779Y-134000000D02*
G75*
G03*
X188200000Y-132133221I-1866779J0D01*
G01*
X202043343Y-132783223D02*
X202029130Y-121217893D01*
X202043346Y-52783224D02*
X202043346Y-61878680D01*
M02*
