%TF.GenerationSoftware,KiCad,Pcbnew,(6.0.7)*%
%TF.CreationDate,2022-08-16T23:53:48+08:00*%
%TF.ProjectId,adapter_board,61646170-7465-4725-9f62-6f6172642e6b,rev?*%
%TF.SameCoordinates,Original*%
%TF.FileFunction,Legend,Top*%
%TF.FilePolarity,Positive*%
%FSLAX46Y46*%
G04 Gerber Fmt 4.6, Leading zero omitted, Abs format (unit mm)*
G04 Created by KiCad (PCBNEW (6.0.7)) date 2022-08-16 23:53:48*
%MOMM*%
%LPD*%
G01*
G04 APERTURE LIST*
G04 Aperture macros list*
%AMRoundRect*
0 Rectangle with rounded corners*
0 $1 Rounding radius*
0 $2 $3 $4 $5 $6 $7 $8 $9 X,Y pos of 4 corners*
0 Add a 4 corners polygon primitive as box body*
4,1,4,$2,$3,$4,$5,$6,$7,$8,$9,$2,$3,0*
0 Add four circle primitives for the rounded corners*
1,1,$1+$1,$2,$3*
1,1,$1+$1,$4,$5*
1,1,$1+$1,$6,$7*
1,1,$1+$1,$8,$9*
0 Add four rect primitives between the rounded corners*
20,1,$1+$1,$2,$3,$4,$5,0*
20,1,$1+$1,$4,$5,$6,$7,0*
20,1,$1+$1,$6,$7,$8,$9,0*
20,1,$1+$1,$8,$9,$2,$3,0*%
G04 Aperture macros list end*
%ADD10C,0.160000*%
%ADD11C,0.220000*%
%ADD12C,0.300000*%
%ADD13C,0.150000*%
%ADD14C,0.120000*%
%ADD15C,0.200000*%
%ADD16RoundRect,0.200000X0.450000X-0.200000X0.450000X0.200000X-0.450000X0.200000X-0.450000X-0.200000X0*%
%ADD17RoundRect,0.250001X1.249999X-0.799999X1.249999X0.799999X-1.249999X0.799999X-1.249999X-0.799999X0*%
%ADD18RoundRect,0.200000X-0.200000X-0.600000X0.200000X-0.600000X0.200000X0.600000X-0.200000X0.600000X0*%
%ADD19RoundRect,0.250001X-0.799999X-1.249999X0.799999X-1.249999X0.799999X1.249999X-0.799999X1.249999X0*%
%ADD20RoundRect,0.200000X0.200000X0.600000X-0.200000X0.600000X-0.200000X-0.600000X0.200000X-0.600000X0*%
%ADD21RoundRect,0.250001X0.799999X1.249999X-0.799999X1.249999X-0.799999X-1.249999X0.799999X-1.249999X0*%
%ADD22C,5.600000*%
%ADD23R,1.600000X1.600000*%
%ADD24C,1.600000*%
G04 APERTURE END LIST*
D10*
X125000000Y-119000000D02*
X156100000Y-119000000D01*
X156100000Y-119000000D02*
X156100000Y-121300000D01*
X156100000Y-121300000D02*
X125000000Y-121300000D01*
X125000000Y-121300000D02*
X125000000Y-119000000D01*
D11*
X125433333Y-120833333D02*
X125433333Y-119433333D01*
X126233333Y-120833333D01*
X126233333Y-119433333D01*
X126900000Y-119433333D02*
X126900000Y-120566666D01*
X126966666Y-120700000D01*
X127033333Y-120766666D01*
X127166666Y-120833333D01*
X127433333Y-120833333D01*
X127566666Y-120766666D01*
X127633333Y-120700000D01*
X127700000Y-120566666D01*
X127700000Y-119433333D01*
X128300000Y-120766666D02*
X128500000Y-120833333D01*
X128833333Y-120833333D01*
X128966666Y-120766666D01*
X129033333Y-120700000D01*
X129100000Y-120566666D01*
X129100000Y-120433333D01*
X129033333Y-120300000D01*
X128966666Y-120233333D01*
X128833333Y-120166666D01*
X128566666Y-120100000D01*
X128433333Y-120033333D01*
X128366666Y-119966666D01*
X128300000Y-119833333D01*
X128300000Y-119700000D01*
X128366666Y-119566666D01*
X128433333Y-119500000D01*
X128566666Y-119433333D01*
X128900000Y-119433333D01*
X129100000Y-119500000D01*
X129700000Y-120833333D02*
X129700000Y-119433333D01*
X129700000Y-120100000D02*
X130500000Y-120100000D01*
X130500000Y-120833333D02*
X130500000Y-119433333D01*
X131100000Y-120766666D02*
X131300000Y-120833333D01*
X131633333Y-120833333D01*
X131766666Y-120766666D01*
X131833333Y-120700000D01*
X131900000Y-120566666D01*
X131900000Y-120433333D01*
X131833333Y-120300000D01*
X131766666Y-120233333D01*
X131633333Y-120166666D01*
X131366666Y-120100000D01*
X131233333Y-120033333D01*
X131166666Y-119966666D01*
X131100000Y-119833333D01*
X131100000Y-119700000D01*
X131166666Y-119566666D01*
X131233333Y-119500000D01*
X131366666Y-119433333D01*
X131700000Y-119433333D01*
X131900000Y-119500000D01*
X133100000Y-120833333D02*
X133100000Y-120100000D01*
X133033333Y-119966666D01*
X132900000Y-119900000D01*
X132633333Y-119900000D01*
X132500000Y-119966666D01*
X133100000Y-120766666D02*
X132966666Y-120833333D01*
X132633333Y-120833333D01*
X132500000Y-120766666D01*
X132433333Y-120633333D01*
X132433333Y-120500000D01*
X132500000Y-120366666D01*
X132633333Y-120300000D01*
X132966666Y-120300000D01*
X133100000Y-120233333D01*
X133566666Y-119900000D02*
X134100000Y-119900000D01*
X133766666Y-119433333D02*
X133766666Y-120633333D01*
X133833333Y-120766666D01*
X133966666Y-120833333D01*
X134100000Y-120833333D01*
X135566666Y-120433333D02*
X136233333Y-120433333D01*
X135433333Y-120833333D02*
X135900000Y-119433333D01*
X136366666Y-120833333D01*
X137433333Y-120833333D02*
X137433333Y-119433333D01*
X137433333Y-120766666D02*
X137300000Y-120833333D01*
X137033333Y-120833333D01*
X136900000Y-120766666D01*
X136833333Y-120700000D01*
X136766666Y-120566666D01*
X136766666Y-120166666D01*
X136833333Y-120033333D01*
X136900000Y-119966666D01*
X137033333Y-119900000D01*
X137300000Y-119900000D01*
X137433333Y-119966666D01*
X138700000Y-120833333D02*
X138700000Y-120100000D01*
X138633333Y-119966666D01*
X138500000Y-119900000D01*
X138233333Y-119900000D01*
X138100000Y-119966666D01*
X138700000Y-120766666D02*
X138566666Y-120833333D01*
X138233333Y-120833333D01*
X138100000Y-120766666D01*
X138033333Y-120633333D01*
X138033333Y-120500000D01*
X138100000Y-120366666D01*
X138233333Y-120300000D01*
X138566666Y-120300000D01*
X138700000Y-120233333D01*
X139366666Y-119900000D02*
X139366666Y-121300000D01*
X139366666Y-119966666D02*
X139500000Y-119900000D01*
X139766666Y-119900000D01*
X139900000Y-119966666D01*
X139966666Y-120033333D01*
X140033333Y-120166666D01*
X140033333Y-120566666D01*
X139966666Y-120700000D01*
X139900000Y-120766666D01*
X139766666Y-120833333D01*
X139500000Y-120833333D01*
X139366666Y-120766666D01*
X140433333Y-119900000D02*
X140966666Y-119900000D01*
X140633333Y-119433333D02*
X140633333Y-120633333D01*
X140700000Y-120766666D01*
X140833333Y-120833333D01*
X140966666Y-120833333D01*
X141966666Y-120766666D02*
X141833333Y-120833333D01*
X141566666Y-120833333D01*
X141433333Y-120766666D01*
X141366666Y-120633333D01*
X141366666Y-120100000D01*
X141433333Y-119966666D01*
X141566666Y-119900000D01*
X141833333Y-119900000D01*
X141966666Y-119966666D01*
X142033333Y-120100000D01*
X142033333Y-120233333D01*
X141366666Y-120366666D01*
X142633333Y-120833333D02*
X142633333Y-119900000D01*
X142633333Y-120166666D02*
X142700000Y-120033333D01*
X142766666Y-119966666D01*
X142900000Y-119900000D01*
X143033333Y-119900000D01*
X145033333Y-120100000D02*
X145233333Y-120166666D01*
X145300000Y-120233333D01*
X145366666Y-120366666D01*
X145366666Y-120566666D01*
X145300000Y-120700000D01*
X145233333Y-120766666D01*
X145100000Y-120833333D01*
X144566666Y-120833333D01*
X144566666Y-119433333D01*
X145033333Y-119433333D01*
X145166666Y-119500000D01*
X145233333Y-119566666D01*
X145300000Y-119700000D01*
X145300000Y-119833333D01*
X145233333Y-119966666D01*
X145166666Y-120033333D01*
X145033333Y-120100000D01*
X144566666Y-120100000D01*
X146166666Y-120833333D02*
X146033333Y-120766666D01*
X145966666Y-120700000D01*
X145900000Y-120566666D01*
X145900000Y-120166666D01*
X145966666Y-120033333D01*
X146033333Y-119966666D01*
X146166666Y-119900000D01*
X146366666Y-119900000D01*
X146500000Y-119966666D01*
X146566666Y-120033333D01*
X146633333Y-120166666D01*
X146633333Y-120566666D01*
X146566666Y-120700000D01*
X146500000Y-120766666D01*
X146366666Y-120833333D01*
X146166666Y-120833333D01*
X147833333Y-120833333D02*
X147833333Y-120100000D01*
X147766666Y-119966666D01*
X147633333Y-119900000D01*
X147366666Y-119900000D01*
X147233333Y-119966666D01*
X147833333Y-120766666D02*
X147700000Y-120833333D01*
X147366666Y-120833333D01*
X147233333Y-120766666D01*
X147166666Y-120633333D01*
X147166666Y-120500000D01*
X147233333Y-120366666D01*
X147366666Y-120300000D01*
X147700000Y-120300000D01*
X147833333Y-120233333D01*
X148500000Y-120833333D02*
X148500000Y-119900000D01*
X148500000Y-120166666D02*
X148566666Y-120033333D01*
X148633333Y-119966666D01*
X148766666Y-119900000D01*
X148900000Y-119900000D01*
X149966666Y-120833333D02*
X149966666Y-119433333D01*
X149966666Y-120766666D02*
X149833333Y-120833333D01*
X149566666Y-120833333D01*
X149433333Y-120766666D01*
X149366666Y-120700000D01*
X149300000Y-120566666D01*
X149300000Y-120166666D01*
X149366666Y-120033333D01*
X149433333Y-119966666D01*
X149566666Y-119900000D01*
X149833333Y-119900000D01*
X149966666Y-119966666D01*
X151500000Y-119433333D02*
X151966666Y-120833333D01*
X152433333Y-119433333D01*
X153633333Y-120833333D02*
X152833333Y-120833333D01*
X153233333Y-120833333D02*
X153233333Y-119433333D01*
X153100000Y-119633333D01*
X152966666Y-119766666D01*
X152833333Y-119833333D01*
X154233333Y-120700000D02*
X154300000Y-120766666D01*
X154233333Y-120833333D01*
X154166666Y-120766666D01*
X154233333Y-120700000D01*
X154233333Y-120833333D01*
X155166666Y-119433333D02*
X155300000Y-119433333D01*
X155433333Y-119500000D01*
X155500000Y-119566666D01*
X155566666Y-119700000D01*
X155633333Y-119966666D01*
X155633333Y-120300000D01*
X155566666Y-120566666D01*
X155500000Y-120700000D01*
X155433333Y-120766666D01*
X155300000Y-120833333D01*
X155166666Y-120833333D01*
X155033333Y-120766666D01*
X154966666Y-120700000D01*
X154900000Y-120566666D01*
X154833333Y-120300000D01*
X154833333Y-119966666D01*
X154900000Y-119700000D01*
X154966666Y-119566666D01*
X155033333Y-119500000D01*
X155166666Y-119433333D01*
D12*
X187169047Y-59330952D02*
X187169047Y-61030952D01*
X186440476Y-60869047D02*
X186359523Y-60950000D01*
X186197619Y-61030952D01*
X185792857Y-61030952D01*
X185630952Y-60950000D01*
X185550000Y-60869047D01*
X185469047Y-60707142D01*
X185469047Y-60545238D01*
X185550000Y-60302380D01*
X186521428Y-59330952D01*
X185469047Y-59330952D01*
X183769047Y-59492857D02*
X183850000Y-59411904D01*
X184092857Y-59330952D01*
X184254761Y-59330952D01*
X184497619Y-59411904D01*
X184659523Y-59573809D01*
X184740476Y-59735714D01*
X184821428Y-60059523D01*
X184821428Y-60302380D01*
X184740476Y-60626190D01*
X184659523Y-60788095D01*
X184497619Y-60950000D01*
X184254761Y-61030952D01*
X184092857Y-61030952D01*
X183850000Y-60950000D01*
X183769047Y-60869047D01*
X182150000Y-59330952D02*
X183121428Y-59330952D01*
X182635714Y-59330952D02*
X182635714Y-61030952D01*
X182797619Y-60788095D01*
X182959523Y-60626190D01*
X183121428Y-60545238D01*
X172966666Y-59330952D02*
X172966666Y-61030952D01*
X172319047Y-61030952D01*
X172157142Y-60950000D01*
X172076190Y-60869047D01*
X171995238Y-60707142D01*
X171995238Y-60464285D01*
X172076190Y-60302380D01*
X172157142Y-60221428D01*
X172319047Y-60140476D01*
X172966666Y-60140476D01*
X171428571Y-61030952D02*
X171023809Y-59330952D01*
X170700000Y-60545238D01*
X170376190Y-59330952D01*
X169971428Y-61030952D01*
X168352380Y-59330952D02*
X168919047Y-60140476D01*
X169323809Y-59330952D02*
X169323809Y-61030952D01*
X168676190Y-61030952D01*
X168514285Y-60950000D01*
X168433333Y-60869047D01*
X168352380Y-60707142D01*
X168352380Y-60464285D01*
X168433333Y-60302380D01*
X168514285Y-60221428D01*
X168676190Y-60140476D01*
X169323809Y-60140476D01*
X160866666Y-61030952D02*
X161676190Y-61030952D01*
X161757142Y-60221428D01*
X161676190Y-60302380D01*
X161514285Y-60383333D01*
X161109523Y-60383333D01*
X160947619Y-60302380D01*
X160866666Y-60221428D01*
X160785714Y-60059523D01*
X160785714Y-59654761D01*
X160866666Y-59492857D01*
X160947619Y-59411904D01*
X161109523Y-59330952D01*
X161514285Y-59330952D01*
X161676190Y-59411904D01*
X161757142Y-59492857D01*
X160300000Y-61030952D02*
X159733333Y-59330952D01*
X159166666Y-61030952D01*
X157304761Y-59330952D02*
X157304761Y-61030952D01*
X156495238Y-59330952D02*
X156495238Y-61030952D01*
X155523809Y-59330952D01*
X155523809Y-61030952D01*
X149095237Y-60950000D02*
X149257141Y-61030952D01*
X149499999Y-61030952D01*
X149742856Y-60950000D01*
X149904760Y-60788095D01*
X149985713Y-60626190D01*
X150066665Y-60302380D01*
X150066665Y-60059523D01*
X149985713Y-59735714D01*
X149904760Y-59573809D01*
X149742856Y-59411904D01*
X149499999Y-59330952D01*
X149338094Y-59330952D01*
X149095237Y-59411904D01*
X149014284Y-59492857D01*
X149014284Y-60059523D01*
X149338094Y-60059523D01*
X148285713Y-59330952D02*
X148285713Y-61030952D01*
X147314284Y-59330952D01*
X147314284Y-61030952D01*
X146504760Y-59330952D02*
X146504760Y-61030952D01*
X146099999Y-61030952D01*
X145857141Y-60950000D01*
X145695237Y-60788095D01*
X145614284Y-60626190D01*
X145533332Y-60302380D01*
X145533332Y-60059523D01*
X145614284Y-59735714D01*
X145695237Y-59573809D01*
X145857141Y-59411904D01*
X146099999Y-59330952D01*
X146504760Y-59330952D01*
X137885713Y-59330952D02*
X137885713Y-61030952D01*
X137480951Y-61030952D01*
X137238094Y-60950000D01*
X137076189Y-60788095D01*
X136995237Y-60626190D01*
X136914284Y-60302380D01*
X136914284Y-60059523D01*
X136995237Y-59735714D01*
X137076189Y-59573809D01*
X137238094Y-59411904D01*
X137480951Y-59330952D01*
X137885713Y-59330952D01*
X136185713Y-60221428D02*
X135619046Y-60221428D01*
X135376189Y-59330952D02*
X136185713Y-59330952D01*
X136185713Y-61030952D01*
X135376189Y-61030952D01*
X134890475Y-61030952D02*
X134323808Y-59330952D01*
X133757141Y-61030952D01*
X133190475Y-59330952D02*
X133190475Y-61030952D01*
X131409522Y-59492857D02*
X131490475Y-59411904D01*
X131733332Y-59330952D01*
X131895237Y-59330952D01*
X132138094Y-59411904D01*
X132299999Y-59573809D01*
X132380951Y-59735714D01*
X132461903Y-60059523D01*
X132461903Y-60302380D01*
X132380951Y-60626190D01*
X132299999Y-60788095D01*
X132138094Y-60950000D01*
X131895237Y-61030952D01*
X131733332Y-61030952D01*
X131490475Y-60950000D01*
X131409522Y-60869047D01*
X130680951Y-60221428D02*
X130114284Y-60221428D01*
X129871427Y-59330952D02*
X130680951Y-59330952D01*
X130680951Y-61030952D01*
X129871427Y-61030952D01*
X127847618Y-59330952D02*
X127847618Y-61030952D01*
X127199999Y-61030952D01*
X127038094Y-60950000D01*
X126957141Y-60869047D01*
X126876189Y-60707142D01*
X126876189Y-60464285D01*
X126957141Y-60302380D01*
X127038094Y-60221428D01*
X127199999Y-60140476D01*
X127847618Y-60140476D01*
X126309522Y-61030952D02*
X125904760Y-59330952D01*
X125580951Y-60545238D01*
X125257141Y-59330952D01*
X124852379Y-61030952D01*
X123233332Y-59330952D02*
X123799999Y-60140476D01*
X124204760Y-59330952D02*
X124204760Y-61030952D01*
X123557141Y-61030952D01*
X123395237Y-60950000D01*
X123314284Y-60869047D01*
X123233332Y-60707142D01*
X123233332Y-60464285D01*
X123314284Y-60302380D01*
X123395237Y-60221428D01*
X123557141Y-60140476D01*
X124204760Y-60140476D01*
X151430952Y-124669047D02*
X151430952Y-122969047D01*
X152159523Y-123130952D02*
X152240476Y-123050000D01*
X152402380Y-122969047D01*
X152807142Y-122969047D01*
X152969047Y-123050000D01*
X153050000Y-123130952D01*
X153130952Y-123292857D01*
X153130952Y-123454761D01*
X153050000Y-123697619D01*
X152078571Y-124669047D01*
X153130952Y-124669047D01*
X154830952Y-124507142D02*
X154750000Y-124588095D01*
X154507142Y-124669047D01*
X154345238Y-124669047D01*
X154102380Y-124588095D01*
X153940476Y-124426190D01*
X153859523Y-124264285D01*
X153778571Y-123940476D01*
X153778571Y-123697619D01*
X153859523Y-123373809D01*
X153940476Y-123211904D01*
X154102380Y-123050000D01*
X154345238Y-122969047D01*
X154507142Y-122969047D01*
X154750000Y-123050000D01*
X154830952Y-123130952D01*
X155478571Y-123130952D02*
X155559523Y-123050000D01*
X155721428Y-122969047D01*
X156126190Y-122969047D01*
X156288095Y-123050000D01*
X156369047Y-123130952D01*
X156450000Y-123292857D01*
X156450000Y-123454761D01*
X156369047Y-123697619D01*
X155397619Y-124669047D01*
X156450000Y-124669047D01*
X138184523Y-124588095D02*
X138427380Y-124669047D01*
X138832142Y-124669047D01*
X138994047Y-124588095D01*
X139075000Y-124507142D01*
X139155952Y-124345238D01*
X139155952Y-124183333D01*
X139075000Y-124021428D01*
X138994047Y-123940476D01*
X138832142Y-123859523D01*
X138508333Y-123778571D01*
X138346428Y-123697619D01*
X138265476Y-123616666D01*
X138184523Y-123454761D01*
X138184523Y-123292857D01*
X138265476Y-123130952D01*
X138346428Y-123050000D01*
X138508333Y-122969047D01*
X138913095Y-122969047D01*
X139155952Y-123050000D01*
X139884523Y-124669047D02*
X139884523Y-122969047D01*
X140532142Y-122969047D01*
X140694047Y-123050000D01*
X140775000Y-123130952D01*
X140855952Y-123292857D01*
X140855952Y-123535714D01*
X140775000Y-123697619D01*
X140694047Y-123778571D01*
X140532142Y-123859523D01*
X139884523Y-123859523D01*
X141584523Y-124669047D02*
X141584523Y-122969047D01*
X125507142Y-124507142D02*
X125426190Y-124588095D01*
X125183333Y-124669047D01*
X125021428Y-124669047D01*
X124778571Y-124588095D01*
X124616666Y-124426190D01*
X124535714Y-124264285D01*
X124454761Y-123940476D01*
X124454761Y-123697619D01*
X124535714Y-123373809D01*
X124616666Y-123211904D01*
X124778571Y-123050000D01*
X125021428Y-122969047D01*
X125183333Y-122969047D01*
X125426190Y-123050000D01*
X125507142Y-123130952D01*
X126154761Y-124183333D02*
X126964285Y-124183333D01*
X125992857Y-124669047D02*
X126559523Y-122969047D01*
X127126190Y-124669047D01*
X127692857Y-124669047D02*
X127692857Y-122969047D01*
X128664285Y-124669047D01*
X128664285Y-122969047D01*
D13*
%TO.C,J9*%
X161352380Y-130833333D02*
X162066666Y-130833333D01*
X162209523Y-130880952D01*
X162304761Y-130976190D01*
X162352380Y-131119047D01*
X162352380Y-131214285D01*
X162352380Y-130309523D02*
X162352380Y-130119047D01*
X162304761Y-130023809D01*
X162257142Y-129976190D01*
X162114285Y-129880952D01*
X161923809Y-129833333D01*
X161542857Y-129833333D01*
X161447619Y-129880952D01*
X161400000Y-129928571D01*
X161352380Y-130023809D01*
X161352380Y-130214285D01*
X161400000Y-130309523D01*
X161447619Y-130357142D01*
X161542857Y-130404761D01*
X161780952Y-130404761D01*
X161876190Y-130357142D01*
X161923809Y-130309523D01*
X161971428Y-130214285D01*
X161971428Y-130023809D01*
X161923809Y-129928571D01*
X161876190Y-129880952D01*
X161780952Y-129833333D01*
%TO.C,J14*%
X179952380Y-131309523D02*
X180666666Y-131309523D01*
X180809523Y-131357142D01*
X180904761Y-131452380D01*
X180952380Y-131595238D01*
X180952380Y-131690476D01*
X180952380Y-130309523D02*
X180952380Y-130880952D01*
X180952380Y-130595238D02*
X179952380Y-130595238D01*
X180095238Y-130690476D01*
X180190476Y-130785714D01*
X180238095Y-130880952D01*
X180285714Y-129452380D02*
X180952380Y-129452380D01*
X179904761Y-129690476D02*
X180619047Y-129928571D01*
X180619047Y-129309523D01*
%TO.C,J7*%
X134266666Y-125852380D02*
X134266666Y-126566666D01*
X134219047Y-126709523D01*
X134123809Y-126804761D01*
X133980952Y-126852380D01*
X133885714Y-126852380D01*
X134647619Y-125852380D02*
X135314285Y-125852380D01*
X134885714Y-126852380D01*
%TO.C,J1*%
X188966666Y-57452380D02*
X188966666Y-58166666D01*
X188919047Y-58309523D01*
X188823809Y-58404761D01*
X188680952Y-58452380D01*
X188585714Y-58452380D01*
X189966666Y-58452380D02*
X189395238Y-58452380D01*
X189680952Y-58452380D02*
X189680952Y-57452380D01*
X189585714Y-57595238D01*
X189490476Y-57690476D01*
X189395238Y-57738095D01*
%TO.C,J2*%
X139266666Y-57452380D02*
X139266666Y-58166666D01*
X139219047Y-58309523D01*
X139123809Y-58404761D01*
X138980952Y-58452380D01*
X138885714Y-58452380D01*
X139695238Y-57547619D02*
X139742857Y-57500000D01*
X139838095Y-57452380D01*
X140076190Y-57452380D01*
X140171428Y-57500000D01*
X140219047Y-57547619D01*
X140266666Y-57642857D01*
X140266666Y-57738095D01*
X140219047Y-57880952D01*
X139647619Y-58452380D01*
X140266666Y-58452380D01*
%TO.C,H3*%
X198151439Y-49465603D02*
X198151439Y-48465603D01*
X198151439Y-48941794D02*
X198722867Y-48941794D01*
X198722867Y-49465603D02*
X198722867Y-48465603D01*
X199103820Y-48465603D02*
X199722867Y-48465603D01*
X199389534Y-48846556D01*
X199532391Y-48846556D01*
X199627629Y-48894175D01*
X199675248Y-48941794D01*
X199722867Y-49037032D01*
X199722867Y-49275127D01*
X199675248Y-49370365D01*
X199627629Y-49417984D01*
X199532391Y-49465603D01*
X199246677Y-49465603D01*
X199151439Y-49417984D01*
X199103820Y-49370365D01*
%TO.C,J4*%
X161066666Y-57452380D02*
X161066666Y-58166666D01*
X161019047Y-58309523D01*
X160923809Y-58404761D01*
X160780952Y-58452380D01*
X160685714Y-58452380D01*
X161971428Y-57785714D02*
X161971428Y-58452380D01*
X161733333Y-57404761D02*
X161495238Y-58119047D01*
X162114285Y-58119047D01*
%TO.C,J8*%
X175666666Y-57452380D02*
X175666666Y-58166666D01*
X175619047Y-58309523D01*
X175523809Y-58404761D01*
X175380952Y-58452380D01*
X175285714Y-58452380D01*
X176285714Y-57880952D02*
X176190476Y-57833333D01*
X176142857Y-57785714D01*
X176095238Y-57690476D01*
X176095238Y-57642857D01*
X176142857Y-57547619D01*
X176190476Y-57500000D01*
X176285714Y-57452380D01*
X176476190Y-57452380D01*
X176571428Y-57500000D01*
X176619047Y-57547619D01*
X176666666Y-57642857D01*
X176666666Y-57690476D01*
X176619047Y-57785714D01*
X176571428Y-57833333D01*
X176476190Y-57880952D01*
X176285714Y-57880952D01*
X176190476Y-57928571D01*
X176142857Y-57976190D01*
X176095238Y-58071428D01*
X176095238Y-58261904D01*
X176142857Y-58357142D01*
X176190476Y-58404761D01*
X176285714Y-58452380D01*
X176476190Y-58452380D01*
X176571428Y-58404761D01*
X176619047Y-58357142D01*
X176666666Y-58261904D01*
X176666666Y-58071428D01*
X176619047Y-57976190D01*
X176571428Y-57928571D01*
X176476190Y-57880952D01*
%TO.C,J3*%
X122266666Y-125952380D02*
X122266666Y-126666666D01*
X122219047Y-126809523D01*
X122123809Y-126904761D01*
X121980952Y-126952380D01*
X121885714Y-126952380D01*
X122647619Y-125952380D02*
X123266666Y-125952380D01*
X122933333Y-126333333D01*
X123076190Y-126333333D01*
X123171428Y-126380952D01*
X123219047Y-126428571D01*
X123266666Y-126523809D01*
X123266666Y-126761904D01*
X123219047Y-126857142D01*
X123171428Y-126904761D01*
X123076190Y-126952380D01*
X122790476Y-126952380D01*
X122695238Y-126904761D01*
X122647619Y-126857142D01*
%TO.C,U1*%
X117638095Y-57752380D02*
X117638095Y-58561904D01*
X117685714Y-58657142D01*
X117733333Y-58704761D01*
X117828571Y-58752380D01*
X118019047Y-58752380D01*
X118114285Y-58704761D01*
X118161904Y-58657142D01*
X118209523Y-58561904D01*
X118209523Y-57752380D01*
X119209523Y-58752380D02*
X118638095Y-58752380D01*
X118923809Y-58752380D02*
X118923809Y-57752380D01*
X118828571Y-57895238D01*
X118733333Y-57990476D01*
X118638095Y-58038095D01*
%TO.C,J13*%
X192352380Y-131309523D02*
X193066666Y-131309523D01*
X193209523Y-131357142D01*
X193304761Y-131452380D01*
X193352380Y-131595238D01*
X193352380Y-131690476D01*
X193352380Y-130309523D02*
X193352380Y-130880952D01*
X193352380Y-130595238D02*
X192352380Y-130595238D01*
X192495238Y-130690476D01*
X192590476Y-130785714D01*
X192638095Y-130880952D01*
X192352380Y-129976190D02*
X192352380Y-129357142D01*
X192733333Y-129690476D01*
X192733333Y-129547619D01*
X192780952Y-129452380D01*
X192828571Y-129404761D01*
X192923809Y-129357142D01*
X193161904Y-129357142D01*
X193257142Y-129404761D01*
X193304761Y-129452380D01*
X193352380Y-129547619D01*
X193352380Y-129833333D01*
X193304761Y-129928571D01*
X193257142Y-129976190D01*
%TO.C,J6*%
X151666666Y-57452380D02*
X151666666Y-58166666D01*
X151619047Y-58309523D01*
X151523809Y-58404761D01*
X151380952Y-58452380D01*
X151285714Y-58452380D01*
X152571428Y-57452380D02*
X152380952Y-57452380D01*
X152285714Y-57500000D01*
X152238095Y-57547619D01*
X152142857Y-57690476D01*
X152095238Y-57880952D01*
X152095238Y-58261904D01*
X152142857Y-58357142D01*
X152190476Y-58404761D01*
X152285714Y-58452380D01*
X152476190Y-58452380D01*
X152571428Y-58404761D01*
X152619047Y-58357142D01*
X152666666Y-58261904D01*
X152666666Y-58023809D01*
X152619047Y-57928571D01*
X152571428Y-57880952D01*
X152476190Y-57833333D01*
X152285714Y-57833333D01*
X152190476Y-57880952D01*
X152142857Y-57928571D01*
X152095238Y-58023809D01*
%TO.C,J10*%
X167552380Y-131309523D02*
X168266666Y-131309523D01*
X168409523Y-131357142D01*
X168504761Y-131452380D01*
X168552380Y-131595238D01*
X168552380Y-131690476D01*
X168552380Y-130309523D02*
X168552380Y-130880952D01*
X168552380Y-130595238D02*
X167552380Y-130595238D01*
X167695238Y-130690476D01*
X167790476Y-130785714D01*
X167838095Y-130880952D01*
X167552380Y-129690476D02*
X167552380Y-129595238D01*
X167600000Y-129500000D01*
X167647619Y-129452380D01*
X167742857Y-129404761D01*
X167933333Y-129357142D01*
X168171428Y-129357142D01*
X168361904Y-129404761D01*
X168457142Y-129452380D01*
X168504761Y-129500000D01*
X168552380Y-129595238D01*
X168552380Y-129690476D01*
X168504761Y-129785714D01*
X168457142Y-129833333D01*
X168361904Y-129880952D01*
X168171428Y-129928571D01*
X167933333Y-129928571D01*
X167742857Y-129880952D01*
X167647619Y-129833333D01*
X167600000Y-129785714D01*
X167552380Y-129690476D01*
%TO.C,J11*%
X173752380Y-131309523D02*
X174466666Y-131309523D01*
X174609523Y-131357142D01*
X174704761Y-131452380D01*
X174752380Y-131595238D01*
X174752380Y-131690476D01*
X174752380Y-130309523D02*
X174752380Y-130880952D01*
X174752380Y-130595238D02*
X173752380Y-130595238D01*
X173895238Y-130690476D01*
X173990476Y-130785714D01*
X174038095Y-130880952D01*
X174752380Y-129357142D02*
X174752380Y-129928571D01*
X174752380Y-129642857D02*
X173752380Y-129642857D01*
X173895238Y-129738095D01*
X173990476Y-129833333D01*
X174038095Y-129928571D01*
%TO.C,J5*%
X148866666Y-125852380D02*
X148866666Y-126566666D01*
X148819047Y-126709523D01*
X148723809Y-126804761D01*
X148580952Y-126852380D01*
X148485714Y-126852380D01*
X149819047Y-125852380D02*
X149342857Y-125852380D01*
X149295238Y-126328571D01*
X149342857Y-126280952D01*
X149438095Y-126233333D01*
X149676190Y-126233333D01*
X149771428Y-126280952D01*
X149819047Y-126328571D01*
X149866666Y-126423809D01*
X149866666Y-126661904D01*
X149819047Y-126757142D01*
X149771428Y-126804761D01*
X149676190Y-126852380D01*
X149438095Y-126852380D01*
X149342857Y-126804761D01*
X149295238Y-126757142D01*
%TO.C,J12*%
X186152380Y-131309523D02*
X186866666Y-131309523D01*
X187009523Y-131357142D01*
X187104761Y-131452380D01*
X187152380Y-131595238D01*
X187152380Y-131690476D01*
X187152380Y-130309523D02*
X187152380Y-130880952D01*
X187152380Y-130595238D02*
X186152380Y-130595238D01*
X186295238Y-130690476D01*
X186390476Y-130785714D01*
X186438095Y-130880952D01*
X186247619Y-129928571D02*
X186200000Y-129880952D01*
X186152380Y-129785714D01*
X186152380Y-129547619D01*
X186200000Y-129452380D01*
X186247619Y-129404761D01*
X186342857Y-129357142D01*
X186438095Y-129357142D01*
X186580952Y-129404761D01*
X187152380Y-129976190D01*
X187152380Y-129357142D01*
D14*
%TO.C,J9*%
X162740000Y-127785000D02*
X161790000Y-127785000D01*
X161790000Y-120815000D02*
X161790000Y-121765000D01*
X162740000Y-120815000D02*
X161790000Y-120815000D01*
X161790000Y-127785000D02*
X161790000Y-126835000D01*
X165710000Y-127415000D02*
X165710000Y-121185000D01*
X161790000Y-126835000D02*
X161100000Y-126835000D01*
%TO.C,J14*%
X180390000Y-127785000D02*
X180390000Y-126835000D01*
X180390000Y-120815000D02*
X180390000Y-121765000D01*
X184310000Y-127415000D02*
X184310000Y-121185000D01*
X181340000Y-120815000D02*
X180390000Y-120815000D01*
X181340000Y-127785000D02*
X180390000Y-127785000D01*
X180390000Y-126835000D02*
X179700000Y-126835000D01*
%TO.C,J7*%
X135190000Y-131260000D02*
X135190000Y-131710000D01*
X136140000Y-127290000D02*
X136140000Y-125800000D01*
X135190000Y-127740000D02*
X135190000Y-127290000D01*
X135190000Y-127290000D02*
X136140000Y-127290000D01*
X144660000Y-131710000D02*
X144660000Y-131260000D01*
X135190000Y-131710000D02*
X144660000Y-131710000D01*
X144660000Y-127740000D02*
X144660000Y-127290000D01*
X144660000Y-127290000D02*
X143710000Y-127290000D01*
%TO.C,J1*%
X188810000Y-57010000D02*
X187860000Y-57010000D01*
X180590000Y-57010000D02*
X181540000Y-57010000D01*
X188810000Y-56560000D02*
X188810000Y-57010000D01*
X180590000Y-56560000D02*
X180590000Y-57010000D01*
X188810000Y-53040000D02*
X188810000Y-52590000D01*
X180590000Y-52590000D02*
X180590000Y-53040000D01*
X188810000Y-52590000D02*
X180590000Y-52590000D01*
X187860000Y-57010000D02*
X187860000Y-58500000D01*
%TO.C,J2*%
X122115000Y-57010000D02*
X123065000Y-57010000D01*
X139085000Y-53040000D02*
X139085000Y-52590000D01*
X139085000Y-56560000D02*
X139085000Y-57010000D01*
X139085000Y-52590000D02*
X122115000Y-52590000D01*
X122115000Y-52590000D02*
X122115000Y-53040000D01*
X139085000Y-57010000D02*
X138135000Y-57010000D01*
X122115000Y-56560000D02*
X122115000Y-57010000D01*
X138135000Y-57010000D02*
X138135000Y-58500000D01*
%TO.C,J4*%
X160835000Y-56560000D02*
X160835000Y-57010000D01*
X160835000Y-52590000D02*
X156365000Y-52590000D01*
X156365000Y-52590000D02*
X156365000Y-53040000D01*
X160835000Y-53040000D02*
X160835000Y-52590000D01*
X160835000Y-57010000D02*
X159885000Y-57010000D01*
X159885000Y-57010000D02*
X159885000Y-58500000D01*
X156365000Y-56560000D02*
X156365000Y-57010000D01*
X156365000Y-57010000D02*
X157315000Y-57010000D01*
%TO.C,J8*%
X165965000Y-52590000D02*
X165965000Y-53040000D01*
X175435000Y-56560000D02*
X175435000Y-57010000D01*
X174485000Y-57010000D02*
X174485000Y-58500000D01*
X175435000Y-53040000D02*
X175435000Y-52590000D01*
X165965000Y-57010000D02*
X166915000Y-57010000D01*
X165965000Y-56560000D02*
X165965000Y-57010000D01*
X175435000Y-52590000D02*
X165965000Y-52590000D01*
X175435000Y-57010000D02*
X174485000Y-57010000D01*
%TO.C,J3*%
X130085000Y-127740000D02*
X130085000Y-127290000D01*
X130085000Y-127290000D02*
X129135000Y-127290000D01*
X123115000Y-127740000D02*
X123115000Y-127290000D01*
X123115000Y-127290000D02*
X124065000Y-127290000D01*
X123115000Y-131260000D02*
X123115000Y-131710000D01*
X123115000Y-131710000D02*
X130085000Y-131710000D01*
X124065000Y-127290000D02*
X124065000Y-125800000D01*
X130085000Y-131710000D02*
X130085000Y-131260000D01*
D15*
%TO.C,U1*%
X111780000Y-125220000D02*
X111780000Y-59180000D01*
X121940000Y-59180000D02*
X121940000Y-125220000D01*
X111780000Y-59180000D02*
X121940000Y-59180000D01*
X116860000Y-59180000D02*
X116860000Y-125220000D01*
X121940000Y-125220000D02*
X111780000Y-125220000D01*
D14*
%TO.C,J13*%
X193740000Y-120815000D02*
X192790000Y-120815000D01*
X192790000Y-120815000D02*
X192790000Y-121765000D01*
X193740000Y-127785000D02*
X192790000Y-127785000D01*
X192790000Y-127785000D02*
X192790000Y-126835000D01*
X192790000Y-126835000D02*
X192100000Y-126835000D01*
X196710000Y-127415000D02*
X196710000Y-121185000D01*
%TO.C,J6*%
X151285000Y-53040000D02*
X151285000Y-52590000D01*
X151285000Y-56560000D02*
X151285000Y-57010000D01*
X150335000Y-57010000D02*
X150335000Y-58500000D01*
X144315000Y-57010000D02*
X145265000Y-57010000D01*
X151285000Y-57010000D02*
X150335000Y-57010000D01*
X151285000Y-52590000D02*
X144315000Y-52590000D01*
X144315000Y-52590000D02*
X144315000Y-53040000D01*
X144315000Y-56560000D02*
X144315000Y-57010000D01*
%TO.C,J10*%
X168940000Y-127785000D02*
X167990000Y-127785000D01*
X168940000Y-120815000D02*
X167990000Y-120815000D01*
X167990000Y-120815000D02*
X167990000Y-121765000D01*
X167990000Y-127785000D02*
X167990000Y-126835000D01*
X167990000Y-126835000D02*
X167300000Y-126835000D01*
X171910000Y-127415000D02*
X171910000Y-121185000D01*
%TO.C,J11*%
X175140000Y-127785000D02*
X174190000Y-127785000D01*
X174190000Y-127785000D02*
X174190000Y-126835000D01*
X174190000Y-120815000D02*
X174190000Y-121765000D01*
X178110000Y-127415000D02*
X178110000Y-121185000D01*
X174190000Y-126835000D02*
X173500000Y-126835000D01*
X175140000Y-120815000D02*
X174190000Y-120815000D01*
%TO.C,J5*%
X158010000Y-127290000D02*
X157060000Y-127290000D01*
X158010000Y-127740000D02*
X158010000Y-127290000D01*
X149790000Y-131260000D02*
X149790000Y-131710000D01*
X158010000Y-131710000D02*
X158010000Y-131260000D01*
X149790000Y-131710000D02*
X158010000Y-131710000D01*
X149790000Y-127290000D02*
X150740000Y-127290000D01*
X149790000Y-127740000D02*
X149790000Y-127290000D01*
X150740000Y-127290000D02*
X150740000Y-125800000D01*
%TO.C,J12*%
X190510000Y-127415000D02*
X190510000Y-121185000D01*
X187540000Y-127785000D02*
X186590000Y-127785000D01*
X186590000Y-127785000D02*
X186590000Y-126835000D01*
X187540000Y-120815000D02*
X186590000Y-120815000D01*
X186590000Y-120815000D02*
X186590000Y-121765000D01*
X186590000Y-126835000D02*
X185900000Y-126835000D01*
%TD*%
%LPC*%
D16*
%TO.C,J9*%
X161750000Y-126175000D03*
X161750000Y-124925000D03*
X161750000Y-123675000D03*
X161750000Y-122425000D03*
D17*
X164500000Y-119875000D03*
X164500000Y-128725000D03*
%TD*%
D16*
%TO.C,J14*%
X180350000Y-126175000D03*
X180350000Y-124925000D03*
X180350000Y-123675000D03*
X180350000Y-122425000D03*
D17*
X183100000Y-128725000D03*
X183100000Y-119875000D03*
%TD*%
D18*
%TO.C,J7*%
X136800000Y-126600000D03*
X138050000Y-126600000D03*
X139300000Y-126600000D03*
X140550000Y-126600000D03*
X141800000Y-126600000D03*
X143050000Y-126600000D03*
D19*
X134250000Y-129500000D03*
X145600000Y-129500000D03*
%TD*%
D20*
%TO.C,J1*%
X187200000Y-57700000D03*
X185950000Y-57700000D03*
X184700000Y-57700000D03*
X183450000Y-57700000D03*
X182200000Y-57700000D03*
D21*
X189750000Y-54800000D03*
X179650000Y-54800000D03*
%TD*%
%TO.C,J2*%
X121175000Y-54800000D03*
X140025000Y-54800000D03*
D20*
X123725000Y-57700000D03*
X124975000Y-57700000D03*
X126225000Y-57700000D03*
X127475000Y-57700000D03*
X128725000Y-57700000D03*
X129975000Y-57700000D03*
X131225000Y-57700000D03*
X132475000Y-57700000D03*
X133725000Y-57700000D03*
X134975000Y-57700000D03*
X136225000Y-57700000D03*
X137475000Y-57700000D03*
%TD*%
D22*
%TO.C,H3*%
X198913344Y-52813223D03*
%TD*%
D20*
%TO.C,J4*%
X159225000Y-57700000D03*
X157975000Y-57700000D03*
D21*
X155425000Y-54800000D03*
X161775000Y-54800000D03*
%TD*%
D20*
%TO.C,J8*%
X173825000Y-57700000D03*
X172575000Y-57700000D03*
X171325000Y-57700000D03*
X170075000Y-57700000D03*
X168825000Y-57700000D03*
X167575000Y-57700000D03*
D21*
X165025000Y-54800000D03*
X176375000Y-54800000D03*
%TD*%
D18*
%TO.C,J3*%
X124725000Y-126600000D03*
X125975000Y-126600000D03*
X127225000Y-126600000D03*
X128475000Y-126600000D03*
D19*
X131025000Y-129500000D03*
X122175000Y-129500000D03*
%TD*%
D23*
%TO.C,U1*%
X120670000Y-123950000D03*
D24*
X118130000Y-123950000D03*
X120670000Y-121410000D03*
X118130000Y-121410000D03*
X120670000Y-118870000D03*
X118130000Y-118870000D03*
X120670000Y-116330000D03*
X118130000Y-116330000D03*
X120670000Y-113790000D03*
X118130000Y-113790000D03*
X120670000Y-111250000D03*
X118130000Y-111250000D03*
X120670000Y-108710000D03*
X118130000Y-108710000D03*
X120670000Y-106170000D03*
X118130000Y-106170000D03*
X120670000Y-103630000D03*
X118130000Y-103630000D03*
X120670000Y-101090000D03*
X118130000Y-101090000D03*
X120670000Y-98550000D03*
X118130000Y-98550000D03*
X120670000Y-96010000D03*
X118130000Y-96010000D03*
X120670000Y-93470000D03*
X118130000Y-93470000D03*
X120670000Y-90930000D03*
X118130000Y-90930000D03*
X120670000Y-88390000D03*
X118130000Y-88390000D03*
X120670000Y-85850000D03*
X118130000Y-85850000D03*
X120670000Y-83310000D03*
X118130000Y-83310000D03*
X120670000Y-80770000D03*
X118130000Y-80770000D03*
X120670000Y-78230000D03*
X118130000Y-78230000D03*
X120670000Y-75690000D03*
X118130000Y-75690000D03*
X120670000Y-73150000D03*
X118130000Y-73150000D03*
X120670000Y-70610000D03*
X118130000Y-70610000D03*
X120670000Y-68070000D03*
X118130000Y-68070000D03*
X120670000Y-65530000D03*
X118130000Y-65530000D03*
X120670000Y-62990000D03*
X118130000Y-62990000D03*
X120670000Y-60450000D03*
X118130000Y-60450000D03*
X115590000Y-123950000D03*
X113050000Y-123950000D03*
X115590000Y-121410000D03*
X113050000Y-121410000D03*
X115590000Y-118870000D03*
X113050000Y-118870000D03*
X115590000Y-116330000D03*
X113050000Y-116330000D03*
X115590000Y-113790000D03*
X113050000Y-113790000D03*
X115590000Y-111250000D03*
X113050000Y-111250000D03*
X115590000Y-108710000D03*
X113050000Y-108710000D03*
X115590000Y-106170000D03*
X113050000Y-106170000D03*
X115590000Y-103630000D03*
X113050000Y-103630000D03*
X115590000Y-101090000D03*
X113050000Y-101090000D03*
X115590000Y-98550000D03*
X113050000Y-98550000D03*
X115590000Y-96010000D03*
X113050000Y-96010000D03*
X115590000Y-93470000D03*
X113050000Y-93470000D03*
X115590000Y-90930000D03*
X113050000Y-90930000D03*
X115590000Y-88390000D03*
X113050000Y-88390000D03*
X115590000Y-85850000D03*
X113050000Y-85850000D03*
X115590000Y-83310000D03*
X113050000Y-83310000D03*
X115590000Y-80770000D03*
X113050000Y-80770000D03*
X115590000Y-78230000D03*
X113050000Y-78230000D03*
X115590000Y-75690000D03*
X113050000Y-75690000D03*
X115590000Y-73150000D03*
X113050000Y-73150000D03*
X115590000Y-70610000D03*
X113050000Y-70610000D03*
X115590000Y-68070000D03*
X113050000Y-68070000D03*
X115590000Y-65530000D03*
X113050000Y-65530000D03*
X115590000Y-62990000D03*
X113050000Y-62990000D03*
X115590000Y-60450000D03*
X113050000Y-60450000D03*
%TD*%
D16*
%TO.C,J13*%
X192750000Y-126175000D03*
X192750000Y-124925000D03*
X192750000Y-123675000D03*
X192750000Y-122425000D03*
D17*
X195500000Y-128725000D03*
X195500000Y-119875000D03*
%TD*%
D22*
%TO.C,H2*%
X113183344Y-129013223D03*
%TD*%
D21*
%TO.C,J6*%
X143375000Y-54800000D03*
X152225000Y-54800000D03*
D20*
X145925000Y-57700000D03*
X147175000Y-57700000D03*
X148425000Y-57700000D03*
X149675000Y-57700000D03*
%TD*%
D22*
%TO.C,H1*%
X113183344Y-55353223D03*
%TD*%
D16*
%TO.C,J10*%
X167950000Y-126175000D03*
X167950000Y-124925000D03*
X167950000Y-123675000D03*
X167950000Y-122425000D03*
D17*
X170700000Y-119875000D03*
X170700000Y-128725000D03*
%TD*%
D16*
%TO.C,J11*%
X174150000Y-126175000D03*
X174150000Y-124925000D03*
X174150000Y-123675000D03*
X174150000Y-122425000D03*
D17*
X176900000Y-128725000D03*
X176900000Y-119875000D03*
%TD*%
D18*
%TO.C,J5*%
X151400000Y-126600000D03*
X152650000Y-126600000D03*
X153900000Y-126600000D03*
X155150000Y-126600000D03*
X156400000Y-126600000D03*
D19*
X158950000Y-129500000D03*
X148850000Y-129500000D03*
%TD*%
D22*
%TO.C,H4*%
X198913344Y-132823222D03*
%TD*%
D16*
%TO.C,J12*%
X186550000Y-126175000D03*
X186550000Y-124925000D03*
X186550000Y-123675000D03*
X186550000Y-122425000D03*
D17*
X189300000Y-119875000D03*
X189300000Y-128725000D03*
%TD*%
M02*
